<svg xmlns="http://www.w3.org/2000/svg" viewBox="0 0 35 35" width="30" height="30">
  <g transform="rotate(-45 15 15)">
  <path fill="#a3b7cc" d="M2 28.75L1 29 1.25 28 13.646 15.646 14.354 16.354z"/>
  <path fill="#DFD2F8"
        d="M12.484,12.527c3.735-1.797,5.965-4.023,7.674-7.662l4.961,4.961 c-3.917,1.705-6.152,3.93-7.682,7.654L12.484,12.527z"/>
  <path fill="#BFA6F1"
        d="M20.298,5.713l3.958,3.958c-3.37,1.606-5.508,3.727-6.984,6.938l-3.945-3.945 C16.555,10.984,18.685,8.86,20.298,5.713 M20,4c-1.848,4.268-4.305,6.552-8.375,8.375l6,6C19.127,14.305,21.386,11.848,26,10L20,4 L20,4z"/>
  <path fill="#DFD2F8"
        d="M26.152,10.5c-0.376,0-0.729-0.146-0.996-0.413l-5.244-5.244C19.646,4.578,19.5,4.224,19.5,3.849 s0.146-0.729,0.413-0.995l1.095-1.139l7.278,7.278l-1.132,1.088C26.881,10.354,26.527,10.5,26.152,10.5z"/>
  <path fill="#BFA6F1"
        d="M21.014,2.429l6.557,6.557l-0.779,0.749C26.621,9.906,26.394,10,26.152,10 c-0.242,0-0.47-0.094-0.642-0.266L20.266,4.49C20.094,4.319,20,4.091,20,3.849s0.094-0.47,0.28-0.656L21.014,2.429 M21,1 l-1.441,1.5c-0.745,0.745-0.745,1.952,0,2.697l5.244,5.244C25.175,10.814,25.664,11,26.152,11c0.488,0,0.976-0.186,1.348-0.559 L29,9L21,1L21,1z"/>
  <g>
    <path fill="#DFD2F8"
          d="M6.707,13.339l0.795-0.795c0.673-0.673,1.568-1.043,2.52-1.043c0.951,0,1.846,0.371,2.519,1.043 l4.916,4.917c1.388,1.389,1.388,3.649,0,5.038l-0.796,0.795L6.707,13.339z"/>
    <path fill="#BFA6F1"
          d="M10.021,12c0.818,0,1.587,0.319,2.166,0.897l4.916,4.916c1.193,1.194,1.193,3.137,0,4.33 l-0.443,0.442l-9.247-9.247l0.442-0.442C8.434,12.319,9.204,12,10.021,12 M10.021,11c-1.04,0-2.079,0.397-2.873,1.19L6,13.339 L16.661,24l1.15-1.149c1.586-1.587,1.586-4.158,0-5.745l-4.916-4.916C12.101,11.397,11.061,11,10.021,11L10.021,11z"/>
  </g>
  </g>
</svg>
