<svg height="30" viewBox="0 0 35 35" width="30" xmlns="http://www.w3.org/2000/svg">
  <g transform="matrix(.70710678 -.70710678 .70710678 .70710678 -6.213203 15)">
    <path d="m2 28.75-1 .25.25-1 12.396-12.354.708.708z" fill="#a3b7cc"/>
    <path d="m12.484 12.527c3.735-1.797 5.965-4.023 7.674-7.662l4.961 4.961c-3.917 1.705-6.152 3.93-7.682 7.654z"
          fill="#ffa500"/>
    <path
      d="m20.298 5.713 3.958 3.958c-3.37 1.606-5.508 3.727-6.984 6.938l-3.945-3.945c3.228-1.68 5.358-3.804 6.971-6.951m-.298-1.713c-1.848 4.268-4.305 6.552-8.375 8.375l6 6c1.502-4.07 3.761-6.527 8.375-8.375z"
      fill="#d88c00"/>
    <path
      d="m26.152 10.5c-.376 0-.729-.146-.996-.413l-5.244-5.244c-.266-.265-.412-.619-.412-.994s.146-.729.413-.995l1.095-1.139 7.278 7.278-1.132 1.088c-.273.273-.627.419-1.002.419z"
      fill="#ffa500"/>
    <path
      d="m21.014 2.429 6.557 6.557-.779.749c-.171.171-.398.265-.64.265s-.47-.094-.642-.266l-5.244-5.244c-.172-.171-.266-.399-.266-.641s.094-.47.28-.656zm-.014-1.429-1.441 1.5c-.745.745-.745 1.952 0 2.697l5.244 5.244c.372.373.861.559 1.349.559s.976-.186 1.348-.559l1.5-1.441z"
      fill="#d88c00"/>
    <path
      d="m6.707 13.339.795-.795c.673-.673 1.568-1.043 2.52-1.043.951 0 1.846.371 2.519 1.043l4.916 4.917c1.388 1.389 1.388 3.649 0 5.038l-.796.795z"
      fill="#ffa500"/>
    <path
      d="m10.021 12c.818 0 1.587.319 2.166.897l4.916 4.916c1.193 1.194 1.193 3.137 0 4.33l-.443.442-9.247-9.247.442-.442c.579-.577 1.349-.896 2.166-.896m0-1c-1.04 0-2.079.397-2.873 1.19l-1.148 1.149 10.661 10.661 1.15-1.149c1.586-1.587 1.586-4.158 0-5.745l-4.916-4.916c-.794-.793-1.834-1.19-2.874-1.19z"
      fill="#d88c00"/>
  </g>
</svg>
