<?xml version="1.0" standalone="no"?>
<!DOCTYPE svg PUBLIC "-//W3C//DTD SVG 20010904//EN"
 "http://www.w3.org/TR/2001/REC-SVG-20010904/DTD/svg10.dtd">
<svg version="1.0" xmlns="http://www.w3.org/2000/svg"
 width="1280.000000pt" height="640.000000pt" viewBox="0 0 1280.000000 640.000000"
 preserveAspectRatio="xMidYMid meet">
<metadata>
Created by potrace 1.15, written by Peter Selinger 2001-2017
</metadata>
<g transform="translate(0.000000,640.000000) scale(0.100000,-0.100000)"
fill="currentColor" stroke="none">
<path d="M4712 4470 c-2 -204 -21 -292 -69 -320 -20 -12 -33 -27 -33 -40 0
-15 -7 -20 -25 -20 -23 0 -25 -4 -25 -47 0 -27 -9 -318 -20 -648 -11 -330 -20
-630 -20 -667 l0 -68 -35 0 c-34 0 -35 1 -35 39 0 22 -6 44 -15 51 -8 7 -15
27 -15 45 0 42 -9 65 -25 65 -7 0 -29 20 -49 44 -29 36 -45 46 -86 55 -63 14
-111 -3 -138 -49 l-19 -31 -17 41 c-9 22 -16 49 -16 60 0 13 -23 35 -67 65
-37 25 -73 45 -79 45 -23 0 -135 -98 -164 -143 -20 -33 -36 -47 -48 -45 -14 3
-18 17 -20 81 l-3 79 -98 -7 c-55 -4 -125 -10 -158 -14 l-58 -6 -3 -162 -2
-163 -65 0 -65 0 -26 -42 c-15 -24 -30 -45 -34 -48 -15 -12 -40 -81 -41 -112
0 -18 -3 -51 -7 -72 -6 -35 -9 -37 -21 -23 -10 13 -31 17 -88 17 -70 0 -75 -1
-70 -20 4 -15 0 -20 -14 -20 -10 0 -19 -4 -19 -10 0 -5 -11 -10 -25 -10 -22 0
-25 -4 -25 -35 0 -32 -2 -35 -30 -35 l-30 0 0 69 0 69 -132 8 -132 9 -9 43
c-4 23 -14 42 -21 42 -6 0 -21 22 -33 49 l-20 49 -109 4 c-60 3 -115 3 -121 0
-7 -2 -24 -28 -38 -58 -20 -43 -30 -54 -49 -54 -17 0 -26 -7 -30 -25 -5 -20
-13 -25 -36 -25 -23 0 -31 -5 -36 -24 -7 -28 -29 -36 -99 -36 -95 0 -123 -9
-130 -41 -4 -16 -11 -31 -16 -34 -5 -4 -9 -35 -9 -71 0 -64 0 -64 -29 -64 -16
0 -31 6 -35 15 -3 8 -18 15 -33 15 -28 0 -28 1 -28 59 0 33 -3 63 -7 66 -3 4
-27 7 -53 8 l-46 2 -17 -50 c-20 -60 -52 -75 -52 -26 0 24 -4 31 -20 31 -11 0
-20 3 -21 8 0 4 -4 57 -10 117 -5 61 -12 147 -16 193 -5 73 -8 82 -25 82 -13
0 -18 5 -15 13 3 7 -1 24 -9 38 -7 13 -14 40 -15 59 -1 19 -5 0 -9 -44 -6 -56
-14 -86 -30 -108 -25 -34 -36 -103 -46 -280 l-6 -118 -31 -15 c-16 -8 -32 -15
-34 -15 -1 0 -3 17 -4 38 -2 93 -34 119 -64 52 l-18 -40 -84 0 c-79 0 -84 -1
-95 -25 -6 -14 -14 -25 -18 -25 -4 0 -10 -9 -13 -21 -10 -39 -24 -10 -19 41
l5 50 -37 0 c-23 0 -35 4 -31 10 11 17 -15 41 -34 31 -25 -13 -41 -2 -41 30 0
29 0 29 -61 29 -73 0 -137 -17 -141 -37 -2 -8 -20 -21 -40 -28 -34 -11 -37
-11 -42 9 -3 12 -6 52 -6 89 0 40 -4 66 -9 62 -6 -3 -11 19 -13 52 l-3 58 -9
-62 c-5 -40 -13 -63 -21 -63 -7 0 -26 -12 -42 -28 -27 -25 -31 -36 -37 -112
-8 -90 -29 -150 -52 -150 -8 0 -17 -7 -20 -15 -3 -8 -21 -19 -39 -25 -22 -7
-35 -19 -39 -35 -4 -14 -10 -24 -14 -23 -4 0 -14 -1 -22 -4 -36 -13 -99 -28
-119 -28 -21 0 -21 -2 -21 -205 l0 -205 6400 0 6400 0 0 119 0 119 -39 15
c-36 15 -48 15 -153 -3 -62 -11 -116 -20 -120 -20 -3 0 -16 -16 -28 -36 l-21
-37 -167 7 c-91 4 -170 10 -174 12 -5 3 -8 30 -8 59 0 30 -7 70 -17 90 l-17
35 -82 0 c-45 0 -118 -5 -161 -10 -80 -11 -93 -19 -135 -79 l-15 -21 -124 28
-124 28 -7 39 c-4 22 -7 123 -7 225 -1 102 -4 269 -8 372 -6 180 -7 187 -27
190 -20 3 -21 10 -26 143 l-5 140 -55 -3 c-54 -2 -55 -2 -77 37 -22 38 -25 39
-108 55 -108 20 -178 8 -200 -35 -13 -24 -23 -28 -130 -44 l-115 -17 0 -171
c0 -169 0 -170 -20 -152 -11 10 -20 25 -20 33 0 12 -9 13 -46 8 -26 -3 -64 -6
-85 -6 -33 0 -40 -4 -45 -26 l-6 -25 -22 20 c-23 22 -84 29 -101 12 -6 -5 -35
-11 -65 -13 l-55 -3 -7 40 c-4 22 -7 57 -7 78 -1 34 -3 37 -30 37 -21 0 -32 6
-36 19 -9 30 -92 54 -133 40 -19 -7 -32 -18 -32 -28 0 -19 -38 -41 -70 -41
-17 0 -20 -7 -20 -45 l0 -45 -117 0 c-176 0 -161 -13 -167 149 -3 75 -8 162
-11 194 l-7 57 -44 0 c-40 0 -45 -3 -58 -34 -19 -45 -42 -56 -118 -56 l-63 0
-52 -63 -53 -62 0 -111 c0 -136 -7 -177 -28 -169 -21 8 -42 -13 -42 -41 0 -13
-4 -24 -10 -24 -5 0 -10 25 -10 55 l0 54 -36 7 c-33 6 -187 1 -223 -8 -11 -2
-15 8 -16 37 -1 33 -5 41 -23 43 -21 3 -22 8 -22 115 0 110 -1 114 -40 194
-28 58 -41 102 -46 149 -7 70 -17 68 -28 -7 -4 -25 -18 -72 -31 -105 l-25 -59
0 52 c0 28 -4 54 -8 57 -15 9 -387 19 -435 12 l-47 -7 0 -203 0 -202 -42 5
c-38 5 -43 9 -50 41 -5 19 -8 62 -8 94 l0 59 -82 -6 c-44 -3 -95 -3 -112 0
l-31 5 3 60 4 61 -54 -6 c-29 -4 -74 -7 -99 -7 l-46 0 -6 -42 c-3 -24 -11 -44
-16 -46 -6 -2 -11 -10 -11 -17 0 -7 -11 -20 -25 -29 -24 -16 -25 -21 -25 -112
0 -95 0 -96 -22 -90 -13 3 -26 6 -30 6 -5 0 -8 16 -8 35 0 34 -2 35 -36 35
-31 0 -36 -3 -31 -20 3 -11 1 -23 -4 -26 -5 -3 -9 -39 -9 -80 0 -61 -3 -74
-16 -74 -10 0 -14 6 -10 15 3 8 -7 29 -21 46 -26 31 -28 31 -90 25 l-63 -7 0
179 0 179 -202 -4 c-112 -2 -219 -7 -238 -11 l-35 -8 4 -209 c3 -196 2 -211
-15 -227 -16 -14 -86 -37 -116 -38 -5 0 -8 195 -8 434 l0 433 -52 7 c-83 9
-257 7 -279 -4 -18 -10 -19 -23 -19 -220 0 -129 -4 -211 -10 -215 -6 -3 -41
-3 -80 1 l-69 7 -3 106 -3 106 -29 3 c-16 2 -46 -4 -67 -13 -54 -25 -60 -55
-66 -372 -3 -150 -10 -273 -14 -273 -5 0 -9 -11 -9 -24 0 -15 -7 -26 -20 -29
-18 -5 -20 -14 -20 -94 l0 -88 -52 0 c-51 0 -53 -1 -70 -37 -14 -29 -24 -38
-43 -38 l-25 0 0 104 c0 102 0 104 -24 110 -19 5 -25 14 -28 39 -2 24 -8 33
-25 35 -16 2 -23 -3 -28 -26 -3 -18 -14 -32 -26 -35 -17 -5 -19 -15 -19 -123
0 -170 -20 -136 -27 45 l-6 141 -43 0 c-23 0 -54 4 -68 10 -22 8 -26 16 -26
49 0 22 -4 43 -10 46 -5 3 -10 13 -10 22 0 23 -46 117 -65 133 -8 7 -30 16
-48 19 l-32 7 3 62 4 62 -104 1 c-57 1 -106 1 -110 0 -10 -1 -8 -62 -17 533
l-8 509 -27 19 c-14 11 -26 25 -26 31 0 6 -11 20 -25 32 -17 13 -31 40 -41 80
-8 33 -21 65 -29 70 -9 8 -16 58 -23 170 l-9 160 -1 -155z"/>
</g>
</svg>
