<?xml version="1.0" encoding="iso-8859-1"?>
<svg version="1.1" id="Layer_1" xmlns="http://www.w3.org/2000/svg" xmlns:xlink="http://www.w3.org/1999/xlink" x="0px" y="0px"
     viewBox="0 0 512 512" style="enable-background:new 0 0 512 512;" xml:space="preserve">
<polygon style="fill:#000;" points="419.136,365.056 0,365.056 0,146.944 512,146.944 "/>
  <g>
	<path style="fill:#FFFFFF;" d="M44.016,289.76c0-8.152,5.664-13.992,13.464-13.992c7.968,0,13.464,5.672,13.464,13.992
		c0,7.976-5.32,13.992-13.464,13.992C49.504,303.752,44.016,297.736,44.016,289.76z"/>
    <path style="fill:#FFFFFF;" d="M151.88,299.152c-4.608,2.128-13.64,4.432-24.448,4.432c-26.92,0-44.456-17.176-44.456-43.928
		c0-25.856,17.712-46.056,48-46.056c7.976,0,16.12,1.776,21.08,4.08l-3.896,16.296c-3.544-1.592-8.68-3.368-16.472-3.368
		c-16.656,0-26.568,12.216-26.392,27.984c0,17.712,11.512,27.816,26.392,27.816c7.616,0,12.928-1.6,17.176-3.368L151.88,299.152z"/>
    <path style="fill:#FFFFFF;" d="M248.392,257.88c0,31.712-22.312,45.872-44.28,45.872c-24.448,0-43.216-16.824-43.216-44.456
		c0-28.344,18.6-45.704,44.64-45.704C231.216,213.6,248.392,231.672,248.392,257.88z M183.392,258.768
		c0,16.648,8.152,29.224,21.432,29.224c12.4,0,21.08-12.224,21.08-29.584c0-13.464-6.024-28.864-20.896-28.864
		C189.592,229.544,183.392,244.416,183.392,258.768z"/>
    <path style="fill:#FFFFFF;" d="M266.264,241.232c0-9.912-0.168-18.24-0.704-25.68h18.776l0.88,12.752h0.528
		c4.248-6.728,12.048-14.704,26.568-14.704c11.336,0,20.192,6.384,23.912,15.944h0.352c3.016-4.784,6.552-8.328,10.624-10.808
		c4.8-3.36,10.28-5.136,17.368-5.136c14.352,0,28.872,9.744,28.872,37.376v50.832h-21.256V254.16c0-14.344-4.96-22.84-15.408-22.84
		c-7.448,0-12.928,5.312-15.232,11.504c-0.528,2.128-1.064,4.784-1.064,7.264v51.72h-21.256v-49.944
		c0-12.048-4.784-20.544-14.872-20.544c-8.152,0-13.64,6.376-15.584,12.4c-0.888,2.128-1.24,4.6-1.24,7.088v51.008h-21.256
		L266.264,241.232L266.264,241.232z"/>
</g>
</svg>
