<svg enable-background="new 0 0 512 512" viewBox="0 0 512 512" xmlns="http://www.w3.org/2000/svg"><path d="m419.136 365.056h-419.136v-218.112h512z"/><g fill="#fff"><path d="m44.016 289.76c0-8.152 5.664-13.992 13.464-13.992 7.968 0 13.464 5.672 13.464 13.992 0 7.976-5.32 13.992-13.464 13.992-7.976 0-13.464-6.016-13.464-13.992z"/><path d="m151.88 299.152c-4.608 2.128-13.64 4.432-24.448 4.432-26.92 0-44.456-17.176-44.456-43.928 0-25.856 17.712-46.056 48-46.056 7.976 0 16.12 1.776 21.08 4.08l-3.896 16.296c-3.544-1.592-8.68-3.368-16.472-3.368-16.656 0-26.568 12.216-26.392 27.984 0 17.712 11.512 27.816 26.392 27.816 7.616 0 12.928-1.6 17.176-3.368z"/><path d="m248.392 257.88c0 31.712-22.312 45.872-44.28 45.872-24.448 0-43.216-16.824-43.216-44.456 0-28.344 18.6-45.704 44.64-45.704 25.68.008 42.856 18.08 42.856 44.288zm-65 .888c0 16.648 8.152 29.224 21.432 29.224 12.4 0 21.08-12.224 21.08-29.584 0-13.464-6.024-28.864-20.896-28.864-15.416 0-21.616 14.872-21.616 29.224z"/><path d="m266.264 241.232c0-9.912-.168-18.24-.704-25.68h18.776l.88 12.752h.528c4.248-6.728 12.048-14.704 26.568-14.704 11.336 0 20.192 6.384 23.912 15.944h.352c3.016-4.784 6.552-8.328 10.624-10.808 4.8-3.36 10.28-5.136 17.368-5.136 14.352 0 28.872 9.744 28.872 37.376v50.832h-21.256v-47.648c0-14.344-4.96-22.84-15.408-22.84-7.448 0-12.928 5.312-15.232 11.504-.528 2.128-1.064 4.784-1.064 7.264v51.72h-21.256v-49.944c0-12.048-4.784-20.544-14.872-20.544-8.152 0-13.64 6.376-15.584 12.4-.888 2.128-1.24 4.6-1.24 7.088v51.008h-21.256z"/></g></svg>