<?xml version="1.0" standalone="no"?>
<!DOCTYPE svg PUBLIC "-//W3C//DTD SVG 20010904//EN"
 "http://www.w3.org/TR/2001/REC-SVG-20010904/DTD/svg10.dtd">
<svg version="1.0" xmlns="http://www.w3.org/2000/svg"
 width="1280.000000pt" height="1280.000000pt" viewBox="0 0 1280.000000 1280.000000"
 preserveAspectRatio="xMidYMid meet">
<metadata>
Created by potrace 1.15, written by Peter Selinger 2001-2017
</metadata>
<g transform="translate(0.000000,1280.000000) scale(0.100000,-0.100000)"
fill="#aaa" stroke="none">
<path d="M6170 12794 c-232 -16 -367 -27 -505 -45 -1491 -184 -2885 -910
-3898 -2029 -858 -949 -1403 -2105 -1582 -3360 -46 -327 -59 -518 -59 -900 0
-383 13 -574 60 -900 228 -1594 1052 -3037 2310 -4046 891 -714 1931 -1165
3064 -1328 325 -47 517 -60 900 -60 382 0 573 13 900 59 2066 295 3861 1597
4785 3470 362 735 562 1461 637 2315 16 189 16 802 0 985 -58 639 -175 1165
-379 1715 -640 1722 -2011 3093 -3733 3733 -536 199 -1051 315 -1654 373 -151
14 -722 26 -846 18z m270 -384 l0 -90 -79 0 -78 0 -7 46 c-3 26 -6 64 -6 85
l0 38 48 4 c26 2 64 4 85 5 l37 2 0 -90z m178 80 l32 0 0 -54 c0 -29 -3 -68
-6 -85 l-6 -31 -79 0 -79 0 0 91 0 92 53 -7 c28 -3 67 -6 85 -6z m-388 -90 l0
-90 -80 0 -80 0 0 48 c0 26 -3 63 -6 84 -7 43 -3 45 99 47 l67 1 0 -90z m625
79 c3 -4 3 -43 -1 -88 l-7 -81 -78 0 -79 0 0 91 0 91 79 -3 c44 -2 82 -7 86
-10z m-831 -85 c4 -47 6 -87 4 -89 -2 -1 -37 -6 -79 -10 l-77 -7 -6 39 c-3 21
-8 61 -11 90 l-7 52 54 4 c29 2 67 4 84 5 l31 2 7 -86z m1008 76 l39 0 -6 -57
c-3 -32 -8 -73 -11 -91 l-5 -34 -77 7 c-42 4 -78 8 -79 9 -1 1 0 42 4 90 l6
88 45 -6 c25 -3 62 -6 84 -6z m-1217 -77 c3 -38 7 -77 8 -88 2 -16 -6 -21 -43
-27 -25 -3 -61 -7 -81 -7 l-36 -1 -10 83 c-6 45 -9 84 -7 86 3 4 99 18 136 20
26 1 27 -1 33 -66z m1438 50 c23 -4 28 -9 23 -26 -2 -12 -8 -51 -12 -86 l-7
-63 -76 7 c-42 4 -78 9 -81 10 -3 2 -1 42 4 90 l9 86 56 -6 c31 -3 69 -9 84
-12z m-1649 -45 c10 -59 19 -138 15 -138 -2 -1 -37 -7 -77 -14 -52 -9 -75 -9
-78 -2 -2 6 -10 46 -18 88 l-13 77 51 9 c28 5 65 10 82 11 28 1 32 -3 38 -31z
m1822 21 c39 -7 61 -15 59 -22 -2 -7 -9 -45 -15 -86 l-12 -73 -56 6 c-31 4
-67 9 -80 13 -26 6 -26 4 -6 136 7 42 11 43 110 26z m-2032 -41 c19 -87 27
-139 22 -146 -6 -9 -145 -37 -151 -30 -9 8 -37 160 -31 165 6 6 111 30 138 32
11 1 20 -8 22 -21z m2227 7 c73 -11 73 -11 55 -101 -9 -42 -18 -80 -21 -82 -2
-3 -37 2 -77 10 l-73 14 3 34 c1 19 7 59 13 88 10 48 13 53 32 49 12 -3 43 -9
68 -12z m-2418 -106 c9 -45 15 -85 12 -89 -2 -4 -32 -13 -66 -19 -33 -7 -67
-15 -74 -17 -8 -4 -19 22 -33 83 -12 48 -20 88 -19 89 3 2 141 32 152 33 6 1
18 -35 28 -80z m2646 56 c36 -9 45 -16 43 -31 -4 -23 -34 -154 -36 -154 0 1
-35 9 -76 19 -41 10 -75 22 -75 27 0 5 7 44 15 87 l14 77 34 -6 c19 -4 55 -12
81 -19z m-2859 -67 c6 -24 16 -60 21 -82 6 -21 8 -40 6 -42 -7 -7 -148 -46
-151 -42 -8 11 -46 161 -42 165 6 6 125 41 143 42 7 1 17 -18 23 -41z m3058
16 c28 -8 52 -18 52 -22 0 -7 -42 -155 -45 -160 -3 -3 -146 35 -151 41 -1 1 7
40 18 85 24 94 11 89 126 56z m-1128 -28 c47 -3 99 -8 115 -12 17 -3 59 -8 95
-10 36 -2 81 -9 100 -14 19 -6 49 -10 65 -10 30 0 152 -20 280 -46 39 -8 104
-21 146 -29 42 -8 90 -20 105 -26 16 -6 40 -12 54 -14 35 -4 149 -34 168 -44
10 -5 49 -16 87 -26 39 -9 84 -22 100 -29 17 -7 64 -23 105 -36 41 -12 84 -28
95 -35 11 -7 35 -15 53 -19 19 -3 62 -19 97 -36 35 -16 69 -30 76 -30 7 0 49
-17 93 -38 45 -21 116 -53 159 -72 42 -18 77 -37 77 -41 0 -5 12 -12 28 -15
28 -7 143 -62 152 -73 3 -3 44 -26 93 -50 48 -24 87 -47 87 -52 0 -4 10 -11
23 -14 23 -8 133 -71 154 -90 6 -5 38 -25 70 -43 33 -18 75 -46 94 -63 19 -16
38 -29 43 -29 9 0 104 -66 121 -84 6 -6 36 -28 67 -49 31 -21 68 -49 82 -62
14 -13 46 -38 70 -54 25 -17 62 -47 82 -67 21 -19 44 -39 52 -43 74 -41 667
-640 696 -702 5 -10 12 -19 16 -19 5 0 34 -35 66 -77 33 -42 69 -87 81 -100
12 -13 39 -50 60 -81 21 -31 47 -67 59 -80 11 -12 35 -48 54 -80 18 -31 39
-61 45 -67 11 -10 66 -95 94 -145 9 -16 29 -47 44 -69 15 -23 37 -61 49 -84
13 -23 33 -57 45 -76 25 -37 30 -56 11 -45 -7 4 -8 3 -4 -5 4 -6 11 -9 16 -6
5 3 24 -25 43 -62 19 -38 46 -90 60 -118 28 -55 102 -210 141 -295 40 -88 56
-131 56 -149 -1 -9 -9 7 -19 34 -20 52 -45 109 -60 135 -5 8 -21 46 -36 83
-16 38 -33 74 -40 81 -7 6 -16 23 -20 36 -11 37 -65 142 -86 169 -27 35 -23
18 6 -25 14 -21 24 -41 23 -45 -6 -16 -774 -792 -803 -811 -40 -27 -55 -32
390 152 490 203 443 186 463 165 16 -16 16 -17 -3 -5 -17 10 -60 -6 -295 -103
-151 -63 -459 -191 -685 -285 -1101 -456 -1283 -531 -1315 -544 l-34 -14 -52
113 c-263 571 -768 1111 -1309 1398 -171 91 -176 94 -165 113 11 20 212 826
215 862 3 34 32 107 339 848 146 353 266 644 266 647 0 3 -6 5 -12 5 -7 0 -50
-91 -96 -203 -234 -568 -426 -1026 -429 -1023 -2 1 3 22 11 44 33 94 259 1021
260 1067 l1 50 22 -22 c29 -30 77 -30 107 0 33 34 69 134 61 174 -10 53 -67
79 -116 53 -24 -13 -65 -93 -75 -145 -5 -29 -9 -35 -14 -21 -4 13 -18 -8 -52
-80 -58 -123 -338 -819 -339 -842 0 -9 -3 -12 -5 -6 -5 12 220 921 230 931 3
3 31 -4 63 -15 43 -16 59 -18 65 -9 12 19 10 24 -15 31 -13 3 -41 13 -62 22
-36 15 -38 17 -22 29 10 7 38 16 63 20 91 13 129 91 70 142 -27 23 -89 32
-100 14 -3 -4 -16 -6 -29 -4 -23 5 -40 -36 -455 -1069 -236 -590 -452 -1127
-478 -1193 -26 -66 -48 -121 -48 -121 -1 -1 -62 11 -136 26 -152 31 -384 60
-483 60 l-67 0 1 58 c2 55 2 55 9 17 4 -22 8 -33 9 -24 0 9 18 29 38 45 85 64
229 233 237 277 1 7 10 30 20 52 75 174 83 354 24 534 -11 35 -27 75 -34 90
-8 14 -15 35 -16 46 -1 11 -5 -77 -8 -195 -5 -175 -6 -146 -6 155 1 329 3 373
18 401 17 31 46 47 106 59 18 4 32 13 32 21 0 11 -29 14 -160 16 -88 1 -177 2
-197 3 -27 0 -39 -5 -41 -16 -2 -11 13 -20 57 -32 92 -26 96 -36 97 -282 0
-110 -1 -144 -3 -75 -2 69 -7 120 -11 113 -5 -8 -23 3 -57 35 -28 26 -64 57
-81 69 -47 33 -182 99 -244 118 -65 20 -183 45 -189 39 -2 -2 2 -12 9 -21 7
-10 -3 -1 -22 20 l-35 37 -142 0 c-132 0 -141 -1 -141 -19 0 -20 18 -31 51
-31 11 0 34 -15 52 -32 18 -18 21 -22 5 -9 -58 51 -145 38 -310 -44 -93 -47
-121 -68 -209 -155 -93 -93 -137 -160 -183 -284 -141 -375 35 -788 414 -972
116 -56 160 -67 227 -54 107 19 98 9 -12 -14 -167 -35 -471 -127 -545 -166
-13 -7 -42 56 -167 358 -84 202 -285 688 -448 1080 l-295 712 31 28 c24 22 32
37 31 61 -1 35 -26 71 -50 71 -12 0 -12 3 -2 15 17 21 5 62 -26 81 -21 14 -31
15 -64 5 -43 -13 -60 -35 -60 -75 0 -20 5 -26 21 -26 15 0 19 5 15 15 -14 37
29 74 64 55 42 -22 15 -85 -31 -73 -24 7 -24 7 6 -61 25 -55 24 -72 -1 -38
-10 14 -15 15 -26 4 -11 -11 -8 -18 15 -38 15 -13 33 -24 40 -24 7 0 129 -282
271 -628 143 -345 344 -832 448 -1082 121 -293 184 -456 177 -459 -7 -2 -88
-41 -180 -87 -176 -89 -408 -237 -548 -351 -128 -105 -134 -109 -137 -98 -2 6
-37 81 -78 168 -41 86 -73 157 -70 157 2 0 79 -34 171 -75 91 -42 168 -73 171
-70 3 3 -33 85 -81 183 -141 292 -149 312 -143 355 4 20 3 37 -1 37 -4 0 -31
-23 -60 -52 -59 -59 -70 -86 -26 -63 26 14 30 13 49 -8 16 -16 154 -297 154
-313 0 -1 -77 32 -170 74 -143 63 -170 79 -170 97 0 11 5 26 12 33 6 6 8 15 5
19 -9 9 -168 -148 -161 -159 3 -4 15 -1 28 7 24 16 44 13 122 -19 38 -16 43
-23 91 -130 l50 -114 -41 18 c-140 60 -297 134 -302 142 -3 5 1 19 10 32 8 13
12 27 9 30 -7 7 -153 -133 -153 -145 0 -4 18 -5 40 -2 24 3 54 0 77 -10 47
-19 446 -207 452 -213 3 -2 -49 -58 -115 -124 l-119 -120 -178 178 c-97 97
-180 185 -183 194 -3 9 2 30 10 47 28 53 1 42 -69 -29 -70 -70 -79 -90 -32
-69 14 6 36 9 49 6 33 -9 258 -237 233 -237 -11 1 -127 13 -257 29 l-237 27
-53 -53 c-28 -29 -49 -56 -45 -60 4 -3 13 -1 19 5 7 7 28 12 48 12 32 0 48
-12 181 -147 81 -82 151 -157 157 -168 8 -14 6 -27 -5 -48 -26 -52 -4 -42 67
28 67 66 84 103 33 70 -14 -9 -35 -14 -46 -11 -12 3 -83 67 -157 142 -117 119
-131 136 -105 131 17 -3 150 -18 296 -33 l266 -28 -64 -75 c-146 -174 -275
-375 -390 -611 -42 -85 -77 -156 -78 -157 -1 -1 -217 88 -481 198 -460 193
-641 268 -1369 566 -181 74 -343 145 -360 158 -54 41 -148 65 -190 49 -27 -11
-45 -62 -33 -96 18 -52 136 -101 203 -84 16 4 32 20 42 41 13 27 21 34 36 29
17 -5 220 -90 820 -341 86 -36 156 -68 154 -69 -2 -2 -59 19 -128 46 -78 31
-127 46 -133 40 -6 -6 -34 -10 -63 -10 -92 0 -282 -58 -363 -111 -25 -16 -54
-35 -64 -42 -55 -35 -131 -108 -175 -167 -14 -19 -28 -37 -31 -40 -14 -12 -69
-120 -85 -165 -47 -136 -56 -268 -26 -397 24 -100 50 -162 106 -248 130 -201
351 -335 604 -369 46 -6 86 -13 89 -15 2 -3 47 10 100 29 170 61 108 30 -110
-55 -117 -45 -226 -83 -242 -84 -36 -1 -56 30 -56 87 0 30 -4 37 -20 37 -19 0
-20 -7 -20 -226 0 -209 1 -225 17 -222 12 2 20 16 24 41 9 56 40 81 164 132
l114 47 231 -87 231 -88 -321 -123 c-177 -68 -336 -126 -353 -129 -43 -7 -56
4 -65 56 -5 30 -13 45 -25 47 -16 3 -17 -13 -17 -202 0 -195 1 -206 19 -206
13 0 21 10 25 33 7 40 46 80 101 103 22 9 249 93 505 185 452 163 501 185 453
204 -10 3 -159 58 -332 121 -304 111 -359 133 -334 134 6 0 18 3 27 6 10 4 16
1 16 -9 0 -17 -25 -14 575 -52 220 -14 423 -28 451 -31 l51 -5 7 -120 c10
-186 39 -372 87 -564 24 -93 93 -310 119 -370 l17 -41 -306 -126 c-168 -70
-654 -271 -1079 -448 -425 -176 -777 -320 -781 -320 -4 0 -13 18 -20 40 -9 29
-17 40 -31 40 -24 0 -24 3 -5 -50 8 -23 12 -46 9 -51 -8 -14 -40 -10 -55 7
-17 21 -64 44 -89 44 -31 0 -70 -44 -70 -79 0 -17 11 -42 26 -61 21 -25 33
-30 58 -28 43 4 50 38 7 38 -49 0 -74 57 -37 82 19 13 47 9 74 -12 26 -21 26
-21 4 -27 -12 -3 -22 -12 -22 -19 0 -17 2 -17 34 -3 19 9 32 9 55 -1 17 -7 42
-9 57 -6 21 6 25 11 20 34 l-6 27 1073 443 c589 244 1077 445 1082 447 6 3 47
-71 92 -163 96 -198 171 -321 304 -497 161 -214 348 -406 562 -577 96 -77 291
-209 355 -242 19 -10 30 -21 26 -28 -4 -6 -3 -8 3 -5 5 4 77 -27 159 -68 82
-41 154 -75 161 -75 7 0 0 -28 -19 -75 -17 -42 -32 -74 -34 -72 -2 2 8 32 22
67 14 34 22 66 17 70 -22 19 -263 128 -268 120 -3 -4 -30 -22 -60 -39 -34 -19
-117 -93 -223 -199 l-169 -168 -184 -109 -184 -109 -165 -167 c-174 -177 -189
-187 -461 -341 -13 -7 -26 -15 -29 -18 -3 -3 -89 -88 -192 -188 -121 -119
-192 -181 -200 -177 -7 4 14 -18 47 -48 53 -49 58 -56 46 -71 -29 -34 -68 -46
-143 -44 -72 3 -73 3 -73 -22 0 -18 6 -26 23 -28 13 -2 29 1 36 7 16 13 42 5
50 -14 6 -17 -48 -65 -72 -65 -25 0 -79 36 -92 61 -7 12 -10 39 -7 59 l5 38
-27 -14 c-14 -8 -32 -14 -40 -14 -7 0 -29 -9 -47 -21 -19 -11 -39 -17 -46 -14
-7 4 10 -14 37 -39 28 -25 53 -45 57 -46 5 0 25 -15 45 -34 21 -18 60 -49 86
-70 27 -20 45 -36 41 -36 -11 0 -118 82 -132 102 -7 10 -18 18 -24 18 -11 0
-104 73 -125 98 -7 8 -10 18 -8 23 3 4 0 11 -6 15 -8 4 -9 3 -5 -4 16 -27 -16
-9 -66 36 -29 26 -68 61 -87 77 -109 96 -522 522 -544 560 -5 10 -26 35 -46
55 -21 21 -51 58 -67 82 -16 24 -40 55 -54 69 -14 14 -43 53 -65 85 -22 32
-49 69 -61 82 -11 12 -35 48 -54 80 -18 31 -39 62 -45 67 -14 12 -95 139 -95
149 0 4 -13 24 -29 44 -16 20 -39 57 -52 82 -13 25 -38 69 -57 98 -18 28 -44
76 -58 105 -14 28 -38 75 -54 102 -17 28 -35 67 -40 88 -6 20 -14 37 -19 37
-4 0 -22 35 -40 77 -19 43 -48 110 -66 148 -18 39 -36 81 -40 95 -4 14 -17 48
-30 75 -12 28 -28 68 -35 90 -7 22 -23 65 -36 95 -12 30 -28 78 -35 105 -6 28
-16 58 -21 68 -15 31 -48 141 -48 164 0 12 -4 24 -8 27 -5 3 -16 40 -26 83
-10 43 -24 99 -33 125 -8 25 -21 81 -30 125 -35 180 -53 282 -63 348 -6 39
-15 97 -20 130 -6 33 -12 91 -15 128 -2 38 -6 71 -9 75 -27 45 -26 1111 1
1155 3 4 7 40 9 80 3 40 9 88 14 107 6 19 10 49 10 65 0 30 20 152 46 280 8
39 21 103 29 143 7 41 20 95 29 120 8 26 20 74 26 107 7 33 18 74 25 90 6 17
20 62 29 100 10 39 23 84 30 100 7 17 23 64 36 105 12 41 29 84 36 95 8 11 14
28 14 39 0 10 15 55 34 100 18 45 46 113 61 151 16 39 34 77 42 86 7 8 13 21
13 28 0 11 57 136 78 171 5 8 23 44 38 79 16 35 34 69 39 75 6 6 27 46 48 88
21 43 43 83 50 90 7 7 27 42 45 79 18 36 44 78 58 94 13 15 24 32 24 37 0 13
201 308 210 308 4 0 12 12 19 27 26 56 278 362 459 557 126 135 319 318 462
439 150 127 304 248 338 265 17 8 32 19 32 23 0 4 35 30 78 58 42 28 82 55 87
59 33 26 135 92 143 92 5 0 22 11 37 24 16 14 58 40 94 58 37 18 68 36 71 39
9 13 132 79 145 79 8 0 20 6 28 14 18 19 316 166 335 166 9 0 23 6 31 13 9 8
48 26 86 41 39 15 84 34 100 41 71 33 154 63 159 58 3 -3 16 1 28 9 13 9 57
26 98 38 41 13 89 29 107 37 17 7 62 20 100 29 37 9 75 20 85 25 20 10 133 40
168 44 14 2 38 8 54 14 15 6 63 18 105 26 42 8 110 21 151 29 167 34 237 46
272 46 20 0 48 4 61 9 14 5 61 12 106 15 45 3 85 8 89 10 4 2 63 7 131 10 68
3 126 8 129 11 6 6 654 -2 782 -9z m-2104 -142 c5 -30 4 -31 -53 -46 -32 -9
-65 -20 -74 -23 -14 -5 -22 9 -44 75 -15 45 -23 85 -19 90 5 4 41 17 79 28
l70 19 17 -56 c10 -31 20 -70 24 -87z m3447 109 c16 -3 31 -11 33 -17 6 -16
-42 -161 -53 -159 -23 4 -139 36 -142 39 -2 2 7 41 20 88 l23 84 46 -14 c25
-8 58 -17 73 -21z m-3636 -199 c-7 -5 -133 -44 -143 -44 -10 0 -64 132 -64
157 0 5 35 20 77 34 l77 25 28 -85 c15 -47 26 -86 25 -87z m3800 144 c32 -12
62 -25 66 -28 11 -10 -42 -160 -57 -160 -19 0 -133 45 -136 53 -6 16 44 157
56 157 7 0 38 -10 71 -22z m-3998 -198 c1 -10 -25 -25 -71 -42 -40 -15 -73
-26 -73 -25 -16 30 -65 160 -62 164 3 2 38 17 78 32 l74 29 27 -72 c15 -39 27
-78 27 -86z m4201 124 c56 -21 70 -30 65 -43 -3 -9 -18 -46 -33 -82 l-27 -66
-65 24 c-36 13 -69 28 -73 32 -10 10 41 161 54 161 4 0 40 -12 79 -26z m-4415
-132 c16 -39 26 -74 24 -76 -7 -7 -142 -66 -144 -64 -9 15 -65 150 -65 157 0
12 143 72 151 63 4 -4 19 -40 34 -80z m4638 41 c20 -8 37 -19 37 -23 0 -17
-64 -150 -72 -150 -9 0 -130 49 -137 56 -2 2 11 39 29 83 l32 80 37 -15 c20
-9 53 -22 74 -31z m-4815 -154 l20 -47 -66 -28 c-36 -16 -69 -30 -74 -32 -4
-2 -25 32 -47 76 l-40 79 77 35 77 35 16 -36 c9 -20 26 -57 37 -82z m4979 80
l72 -32 -40 -79 c-21 -43 -42 -78 -44 -78 -6 0 -127 60 -134 66 -5 5 60 154
68 154 3 0 38 -14 78 -31z m-5149 -214 c-8 -7 -129 -65 -135 -65 -10 0 -89
147 -83 153 3 3 37 21 75 40 l70 36 38 -81 c21 -44 37 -82 35 -83z m5335 124
c34 -17 64 -33 67 -36 6 -6 -73 -153 -83 -153 -7 0 -127 58 -135 65 -6 5 72
155 80 155 5 0 37 -14 71 -31z m-895 -15 c44 -31 18 -76 -51 -88 -21 -4 -44
-9 -52 -12 -11 -4 -11 2 -3 35 6 23 14 41 19 41 5 0 18 9 29 20 24 24 29 24
58 4z m-4661 -116 c21 -40 39 -76 41 -79 3 -7 -122 -79 -137 -79 -4 0 -13 10
-19 23 -6 12 -25 45 -41 74 l-31 52 72 41 c40 22 74 40 75 40 2 0 20 -33 40
-72z m5805 -7 c4 -3 -11 -35 -33 -71 -21 -36 -40 -69 -42 -74 -2 -5 -35 8 -75
29 l-71 39 41 78 42 78 65 -37 c36 -19 69 -38 73 -42z m-954 57 c20 -20 14
-71 -15 -129 -29 -56 -52 -70 -80 -48 -19 17 -12 83 17 138 25 49 53 64 78 39z
m-5009 -248 c-12 -8 -44 -27 -70 -42 l-47 -27 -46 76 c-26 41 -46 76 -44 78 2
1 34 20 72 43 l70 41 44 -77 43 -77 -22 -15z m6044 146 c12 -8 41 -26 64 -40
l43 -26 -47 -75 -46 -75 -26 17 c-14 9 -45 28 -69 41 l-43 24 32 57 c59 104
55 100 92 77z m-5125 -48 c24 -24 8 -78 -24 -78 -10 0 -44 67 -44 85 0 10 57
4 68 -7z m-1078 -187 c0 -8 -16 -19 -102 -75 l-27 -17 -50 74 -50 75 71 45 72
45 43 -69 c24 -38 43 -73 43 -78z m6424 97 l64 -43 -50 -72 -50 -72 -61 40
c-33 22 -63 41 -65 44 -7 6 79 145 89 145 5 0 38 -19 73 -42z m-6636 -141 l49
-72 -67 -47 -67 -47 -44 62 c-24 33 -47 67 -52 74 -5 8 14 27 60 58 37 25 69
45 70 45 1 0 24 -33 51 -73z m6814 20 l57 -40 -41 -58 c-61 -88 -58 -87 -128
-38 -33 23 -60 44 -60 46 0 2 21 35 46 73 27 41 51 67 58 63 6 -3 37 -24 68
-46z m-6978 -145 c27 -35 47 -64 45 -66 -2 -1 -32 -23 -65 -49 l-61 -46 -20
22 c-10 12 -36 43 -56 69 l-37 47 67 51 c36 28 70 47 73 43 4 -5 28 -36 54
-71z m7148 21 l58 -44 -56 -69 -55 -69 -60 46 c-39 31 -58 52 -54 61 12 33 91
130 100 124 6 -3 36 -25 67 -49z m-7310 -151 l46 -58 -64 -51 -63 -52 -56 66
c-30 37 -55 70 -55 73 1 3 28 26 62 53 69 53 63 55 130 -31z m7481 15 l47 -39
-29 -36 c-85 -105 -76 -98 -102 -80 -13 9 -42 31 -63 50 l-39 34 52 67 c46 58
55 66 70 55 9 -7 37 -30 64 -51z m-7651 -135 l57 -69 -61 -53 -61 -54 -58 65
c-32 35 -57 67 -56 71 1 6 118 108 122 108 1 0 26 -31 57 -68z m7819 -7 l40
-36 -57 -64 -57 -64 -23 18 c-47 37 -94 81 -94 87 0 4 24 35 53 69 l52 62 23
-18 c13 -10 42 -34 63 -54z m-4260 28 c13 -16 12 -17 -3 -4 -10 7 -18 15 -18
17 0 8 8 3 21 -13z m-3698 -177 l41 -49 -59 -54 -59 -54 -64 63 -63 63 62 57
c72 66 64 67 142 -26z m8147 -27 c0 -5 -26 -35 -57 -68 l-58 -60 -59 54 -58
54 58 65 58 64 58 -50 c32 -28 58 -55 58 -59z m-8313 -217 l-57 -57 -62 62
-63 63 58 58 58 59 62 -64 61 -64 -57 -57z m8413 123 l55 -55 -63 -63 -62 -62
-57 58 -58 57 60 60 c33 33 62 60 65 60 3 0 30 -25 60 -55z m-8530 -244 c-15
-20 -39 -47 -54 -60 l-25 -24 -66 58 -66 58 23 26 c12 14 38 43 57 64 l35 37
63 -62 62 -61 -29 -36z m8677 91 l51 -59 -64 -57 -65 -58 -54 58 -55 59 62 58
c33 31 64 57 67 57 4 0 30 -26 58 -58z m-8847 -151 l64 -58 -54 -61 -54 -61
-49 42 c-27 23 -58 49 -68 57 -18 15 -17 18 33 78 29 34 55 62 58 62 3 0 34
-27 70 -59z m8986 -3 l52 -61 -66 -55 -65 -56 -54 59 -53 59 62 57 c35 32 65
58 68 58 3 0 28 -28 56 -61z m-9121 -154 l65 -56 -47 -58 c-27 -32 -52 -59
-57 -59 -4 -1 -37 22 -72 50 -42 33 -61 55 -57 63 17 28 89 115 95 116 4 0 36
-25 73 -56z m9286 -45 l19 -26 -58 -45 c-31 -24 -62 -48 -69 -51 -12 -7 -106
99 -101 113 2 4 30 31 63 59 l60 52 33 -38 c19 -21 42 -50 53 -64z m-4365
-226 c-3 -7 -13 -12 -23 -12 -17 1 -17 2 0 6 15 4 17 20 19 131 l2 127 3 -119
c2 -66 1 -126 -1 -133z m-4988 61 c2 -1 -18 -32 -46 -68 l-49 -65 -69 50 c-38
28 -68 55 -66 61 2 6 23 37 48 70 l46 58 66 -52 c37 -28 69 -53 70 -54z m9456
31 l44 -59 -66 -48 c-37 -27 -69 -48 -73 -48 -11 0 -91 110 -87 120 5 17 112
99 125 97 7 -1 32 -29 57 -62z m-9636 -154 l61 -44 -41 -59 c-23 -32 -46 -62
-51 -65 -14 -9 -149 86 -141 100 43 72 87 126 98 120 7 -5 40 -28 74 -52z
m9753 -6 c19 -27 38 -55 42 -61 8 -14 -132 -110 -142 -97 -40 46 -82 116 -75
123 29 29 130 98 135 92 3 -4 21 -29 40 -57z m-9827 -233 c-55 -85 -67 -102
-74 -102 -5 0 -40 19 -78 43 l-70 43 45 71 46 72 74 -50 74 -50 -17 -27z
m9946 56 c22 -33 40 -64 40 -67 0 -8 -140 -95 -144 -90 -2 2 -21 32 -44 65
l-41 62 67 45 c37 25 70 46 75 46 4 1 25 -27 47 -61z m-4983 -50 c-2 -13 -4
-5 -4 17 -1 22 1 32 4 23 2 -10 2 -28 0 -40z m-170 -80 c-2 -13 -4 -5 -4 17
-1 22 1 32 4 23 2 -10 2 -28 0 -40z m-4939 -37 l52 -33 -27 -49 c-56 -98 -48
-96 -135 -46 -85 49 -83 37 -21 135 32 51 35 53 56 39 12 -8 46 -29 75 -46z
m10197 -1 c20 -33 33 -65 29 -71 -4 -8 -3 -9 4 -5 7 4 12 3 12 -2 0 -5 -10
-14 -22 -20 -13 -6 -46 -24 -74 -40 l-50 -30 -40 66 -40 67 71 47 c38 25 71
47 72 47 1 1 18 -26 38 -59z m-5265 -10 c0 -6 -31 -9 -77 -8 l-78 2 75 6 c41
4 76 7 78 8 1 1 2 -2 2 -8z m-207 -17 c-7 -2 -21 -2 -30 0 -10 3 -4 5 12 5 17
0 24 -2 18 -5z m-75 -10 c-10 -2 -28 -2 -40 0 -13 2 -5 4 17 4 22 1 32 -1 23
-4z m-85 -10 c-7 -2 -19 -2 -25 0 -7 3 -2 5 12 5 14 0 19 -2 13 -5z m342 -484
c-14 -233 -34 -572 -45 -754 -11 -181 -25 -397 -30 -480 -5 -82 -14 -238 -20
-345 -16 -271 -23 -333 -37 -338 -7 -2 -13 1 -13 6 0 6 -200 493 -445 1084
-245 590 -447 1077 -448 1082 -3 10 154 68 303 111 136 39 339 81 430 88 l65
6 -70 -13 -70 -13 60 -4 c72 -6 200 8 285 31 26 7 3 8 -85 6 -136 -5 -120 1
35 12 l105 7 3 -31 c2 -18 -9 -222 -23 -455z m497 465 c119 -13 365 -58 375
-68 3 -3 -124 -325 -281 -717 -157 -392 -286 -703 -286 -692 0 12 -4 77 -10
145 -5 68 -14 197 -20 288 -6 91 -21 338 -35 550 -14 212 -27 415 -30 452 l-6
67 83 -5 c46 -3 140 -12 210 -20z m-5479 -128 c23 -14 23 -15 -19 -91 l-36
-65 -79 41 -78 41 16 31 c8 18 27 51 40 75 l25 42 57 -32 c31 -17 64 -36 74
-42z m10343 58 c-3 -8 -2 -12 4 -9 5 3 16 -8 25 -24 18 -35 19 -45 4 -35 -6 3
-4 -7 5 -24 8 -16 12 -33 8 -37 -4 -5 -1 -5 6 -1 9 5 9 12 1 27 -6 12 -8 23
-6 26 3 3 12 -8 20 -23 l15 -29 -77 -41 -76 -41 -17 31 c-20 37 -22 50 -6 40
7 -4 8 -3 4 5 -4 6 -11 9 -16 6 -5 -3 -16 8 -25 25 -15 30 -15 30 17 50 38 23
52 25 42 8 -4 -8 -3 -10 2 -5 5 5 9 13 9 18 0 5 14 18 30 28 37 24 38 24 31 5z
m-5976 -1229 c244 -588 444 -1077 447 -1085 2 -10 -13 -24 -44 -41 l-47 -25
-525 461 c-289 254 -663 582 -831 729 -168 147 -311 270 -318 273 -7 3 -18 1
-23 -4 -6 -6 38 -62 119 -154 743 -836 1362 -1540 1362 -1548 0 -6 -8 -26 -17
-46 -12 -25 -22 -34 -32 -30 -55 20 -2177 899 -2183 904 -18 15 143 324 267
511 118 179 238 325 394 480 209 208 441 383 690 520 138 76 284 142 292 132
4 -4 206 -488 449 -1077z m-4489 1002 l47 -27 -36 -67 c-19 -38 -36 -69 -37
-71 -1 -1 -38 15 -82 36 l-80 39 38 76 39 76 32 -18 c18 -10 54 -30 79 -44z
m10605 -18 c19 -39 34 -72 32 -74 -2 -1 -36 -19 -75 -39 l-73 -36 -35 71 c-20
39 -35 72 -33 74 3 3 141 74 145 75 2 0 19 -32 39 -71z m-3911 -32 c548 -295
1003 -765 1283 -1324 33 -65 67 -135 75 -155 l15 -36 -126 -53 c-333 -137
-448 -185 -722 -299 -162 -68 -347 -144 -410 -170 -63 -26 -248 -102 -410
-170 -376 -156 -393 -162 -385 -150 3 5 -4 23 -16 39 -19 27 -20 34 -10 78 6
26 13 63 16 82 2 18 10 41 18 50 980 1116 1277 1457 1274 1466 -3 5 -11 9 -20
9 -8 -1 -266 -224 -572 -495 -306 -272 -561 -496 -567 -498 -6 -2 -5 4 1 15
12 20 412 1624 415 1660 1 26 1 26 141 -49z m-6746 -154 c2 -2 -11 -36 -28
-77 l-33 -74 -82 36 -82 37 34 77 35 76 76 -36 c42 -20 78 -38 80 -39z m10751
-4 c17 -38 31 -72 29 -73 -9 -8 -151 -67 -154 -64 -1 2 -17 33 -33 70 l-31 68
72 34 c40 19 75 35 78 35 3 1 21 -31 39 -70z m-10907 -150 c40 -17 73 -32 75
-34 2 -2 -57 -137 -64 -144 -2 -2 -39 11 -83 29 l-80 32 18 46 c31 78 44 102
53 102 5 0 42 -14 81 -31z m10994 -44 c17 -41 27 -75 22 -75 -5 0 -9 6 -9 13
-1 6 -13 38 -28 70 l-27 57 -65 -31 c-36 -16 -66 -32 -67 -33 -2 -1 9 -30 23
-63 l26 -61 60 25 c33 13 62 22 64 20 2 -2 -26 -16 -63 -30 -37 -15 -67 -26
-68 -24 -13 24 -57 139 -54 141 6 5 143 65 149 66 3 0 19 -34 37 -75z m-11080
-146 c43 -17 79 -32 80 -33 3 -2 -48 -136 -54 -145 -1 -2 -40 9 -86 24 l-84
29 30 78 c16 43 31 78 33 78 2 0 38 -14 81 -31z m11142 -14 c0 -5 -4 -3 -9 5
-5 8 -9 22 -9 30 0 16 17 -16 18 -35z m-59 15 c-8 -5 -19 -10 -25 -10 -5 0 -3
5 5 10 8 5 20 10 25 10 6 0 3 -5 -5 -10z m-50 -20 c-8 -5 -19 -10 -25 -10 -5
0 -3 5 5 10 8 5 20 10 25 10 6 0 3 -5 -5 -10z m-43 -37 c1 -19 -1 -22 -8 -12
-11 17 -12 39 -1 39 4 0 8 -12 9 -27z m173 -8 c0 -5 -5 -3 -10 5 -5 8 -10 20
-10 25 0 6 5 3 10 -5 5 -8 10 -19 10 -25z m-240 5 c0 -5 -2 -10 -4 -10 -3 0
-8 5 -11 10 -3 6 -1 10 4 10 6 0 11 -4 11 -10z m-10534 -36 c52 -23 68 -42 58
-69 -13 -34 -94 -27 -161 15 -56 34 -35 98 27 83 14 -4 48 -17 76 -29z m10442
24 c5 -7 12 -24 16 -38 4 -17 1 -14 -9 8 -11 23 -21 32 -33 30 -18 -4 -18 -7
-8 -48 5 -20 3 -20 -8 5 -15 31 -6 55 19 55 7 0 17 -6 23 -12z m-118 -12 c0
-2 -220 -95 -489 -207 -269 -112 -487 -207 -485 -211 3 -4 -16 -30 -42 -58
-32 -34 -103 -84 -225 -157 -176 -105 -180 -108 -341 -270 -142 -144 -177
-173 -271 -229 -59 -35 -112 -64 -117 -64 -6 0 -10 -4 -10 -9 0 -5 -8 -11 -17
-14 -24 -8 -77 -40 -81 -49 -2 -5 -9 -8 -15 -8 -7 -1 -27 -14 -46 -30 l-33
-28 20 -89 c31 -130 54 -279 49 -310 -3 -23 -4 -22 -6 9 -4 118 -95 482 -168
676 -19 52 -33 96 -30 98 5 5 2290 952 2300 953 4 1 7 -1 7 -3z m230 -31 c0
-5 -5 -3 -10 5 -5 8 -10 20 -10 25 0 6 5 3 10 -5 5 -8 10 -19 10 -25z m240 -2
c0 -7 -8 -13 -17 -13 -13 0 -15 2 -5 8 7 5 10 17 6 28 -5 16 -4 16 5 4 6 -8
11 -21 11 -27z m-166 -23 c5 -17 4 -20 -2 -10 -5 8 -13 26 -16 40 -5 17 -4 20
2 10 5 -8 13 -26 16 -40z m-45 -65 c0 -11 -7 0 -15 25 -17 56 -17 64 1 25 8
-16 14 -39 14 -50z m-95 15 c5 -17 4 -20 -2 -10 -5 8 -13 26 -16 40 -5 17 -4
20 2 10 5 -8 13 -26 16 -40z m-56 11 c10 -29 10 -29 -21 -21 -18 5 -41 11 -52
13 -11 3 -1 3 23 1 39 -3 43 -2 37 16 -10 31 2 23 13 -9z m-10815 -54 c-23
-81 -49 -147 -58 -144 -5 3 -43 15 -82 28 -40 12 -73 29 -73 35 0 7 12 44 26
82 l25 69 82 -32 c45 -17 81 -35 80 -38z m10702 58 c-24 -8 -116 -12 -103 -4
7 5 36 8 63 8 28 0 46 -2 40 -4z m-117 -40 c-3 -3 -9 2 -12 12 -6 14 -5 15 5
6 7 -7 10 -15 7 -18z m522 5 c-8 -5 -19 -10 -25 -10 -5 0 -3 5 5 10 8 5 20 10
25 10 6 0 3 -5 -5 -10z m-397 -17 c-13 -2 -35 -2 -50 0 -16 2 -5 4 22 4 28 0
40 -2 28 -4z m357 3 c0 -2 -7 -7 -16 -10 -8 -3 -12 -2 -9 4 6 10 25 14 25 6z
m-447 -13 c-7 -2 -19 -2 -25 0 -7 3 -2 5 12 5 14 0 19 -2 13 -5z m165 0 c-10
-2 -26 -2 -35 0 -10 3 -2 5 17 5 19 0 27 -2 18 -5z m208 -29 c8 -20 13 -38 11
-40 -2 -2 -11 14 -20 36 -19 50 -12 53 9 4z m-126 16 c-8 -5 -19 -10 -25 -10
-5 0 -3 5 5 10 8 5 20 10 25 10 6 0 3 -5 -5 -10z m14 -38 c2 -4 -12 -6 -32 -4
-62 6 -69 10 -20 11 26 0 49 -3 52 -7z m-166 -33 c-74 -38 -81 -120 -13 -157
11 -6 14 -12 7 -12 -7 0 -24 11 -37 25 -27 26 -33 72 -14 106 11 21 66 59 84
59 6 -1 -7 -10 -27 -21z m210 -30 c-3 -8 -7 -3 -11 10 -4 17 -3 21 5 13 5 -5
8 -16 6 -23z m-54 13 c2 -4 -13 -6 -35 -4 -21 2 -39 6 -39 8 0 7 69 4 74 -4z
m220 -18 c3 -8 2 -12 -4 -9 -6 3 -10 10 -10 16 0 14 7 11 14 -7z m-334 2 c0
-2 -7 -7 -16 -10 -8 -3 -12 -2 -9 4 6 10 25 14 25 6z m-10825 -72 c0 -28 -40
-144 -49 -144 -6 0 -45 11 -87 23 l-77 22 25 81 26 82 81 -28 c44 -15 81 -31
81 -36z m10936 33 c-10 -9 -11 -8 -5 6 3 10 9 15 12 12 3 -3 0 -11 -7 -18z
m50 -10 c-10 -9 -11 -8 -5 6 3 10 9 15 12 12 3 -3 0 -11 -7 -18z m-197 -36
c-5 -6 -34 20 -34 30 0 5 8 1 18 -8 10 -10 17 -20 16 -22z m49 2 c-7 -2 -19
-2 -25 0 -7 3 -2 5 12 5 14 0 19 -2 13 -5z m102 -13 c-3 -5 -12 -10 -18 -10
-7 0 -6 4 3 10 19 12 23 12 15 0z m-88 -36 c-3 -3 -12 -4 -19 -1 -8 3 -5 6 6
6 11 1 17 -2 13 -5z m-9267 -84 c8 -5 11 -10 5 -10 -5 0 -17 5 -25 10 -8 5
-10 10 -5 10 6 0 17 -5 25 -10z m-1718 -22 c89 -24 84 -12 52 -126 -16 -58 -6
-55 -109 -30 -78 18 -77 18 -70 46 15 66 36 132 42 132 3 0 41 -10 85 -22z
m1768 2 c8 -5 11 -10 5 -10 -5 0 -17 5 -25 10 -8 5 -10 10 -5 10 6 0 17 -5 25
-10z m70 -30 c8 -5 11 -10 5 -10 -5 0 -17 5 -25 10 -8 5 -10 10 -5 10 6 0 17
-5 25 -10z m405 -166 c209 -85 430 -176 492 -201 l111 -46 -18 -42 c-32 -75
-101 -295 -130 -419 -35 -148 -67 -363 -76 -513 l-7 -113 -35 0 c-33 0 -793
-43 -947 -54 -38 -3 -63 -2 -55 3 8 4 147 57 307 117 214 80 293 113 293 125
0 11 -37 28 -129 60 -72 24 -128 45 -126 47 2 2 19 -1 38 -7 35 -12 36 -11 88
44 29 31 60 66 68 78 8 12 21 28 27 34 19 20 82 156 106 231 17 54 21 90 21
187 -1 131 -23 226 -78 335 -30 59 -103 160 -116 160 -4 0 -10 9 -14 19 -4 13
-40 34 -105 62 -86 36 -111 49 -97 49 2 0 174 -70 382 -156z m-2282 -10 c62
-15 68 -19 63 -38 -3 -12 -11 -47 -18 -79 -11 -51 -15 -57 -33 -53 -11 2 -49
10 -85 17 -36 6 -66 13 -68 14 -3 3 28 147 35 158 3 4 12 6 21 3 10 -3 48 -13
85 -22z m-54 -200 c39 -9 71 -20 71 -26 0 -31 -24 -148 -31 -148 -14 0 -162
30 -165 33 -4 4 13 108 22 140 7 21 13 21 103 1z m4076 -509 c594 -246 1084
-450 1088 -454 4 -4 -84 -13 -195 -20 -112 -6 -268 -16 -348 -21 -80 -5 -223
-14 -317 -20 -95 -5 -248 -15 -340 -20 -653 -41 -1154 -70 -1190 -70 l-43 0 5
63 c29 347 72 569 158 822 57 166 67 186 86 176 9 -5 502 -210 1096 -456z
m4617 375 c62 -157 160 -540 157 -618 0 -15 -7 5 -14 43 -7 39 -23 115 -35
170 -20 85 -25 96 -31 71 -11 -39 -216 -245 -276 -276 -26 -13 -50 -27 -53
-30 -9 -10 -65 -41 -82 -47 -10 -3 -18 -9 -18 -14 0 -5 -4 -9 -9 -9 -25 0
-143 -80 -201 -136 -57 -55 -71 -63 -110 -67 -37 -3 -34 -4 20 -5 36 -2 146
-9 245 -17 99 -8 216 -15 260 -16 56 -2 66 -4 35 -7 -25 -2 -126 1 -225 7
-205 13 -414 26 -660 41 -415 24 -529 31 -670 40 -82 5 -202 12 -265 16 -63 4
-109 9 -103 11 13 5 -7 47 -34 69 -9 8 236 114 1005 432 559 232 1021 420
1026 419 5 -2 22 -36 38 -77z m-8729 -70 c63 -10 77 -16 73 -29 -3 -9 -7 -36
-11 -61 -12 -83 -12 -83 -63 -76 -121 16 -122 17 -122 39 0 52 23 148 34 144
7 -3 47 -11 89 -17z m-28 -206 c33 -3 63 -8 66 -10 8 -4 -15 -158 -24 -157 -4
0 -43 4 -88 7 l-80 7 6 57 c12 106 15 114 38 109 12 -3 49 -9 82 -13z m14
-210 l33 -5 -7 -77 c-4 -42 -8 -78 -10 -80 -1 -1 -41 1 -90 4 l-87 7 6 45 c3
25 6 62 6 84 l0 39 58 -6 c31 -3 72 -8 91 -11z m9474 -101 c-7 -2 -19 -2 -25
0 -7 3 -2 5 12 5 14 0 19 -2 13 -5z m-36 -185 c-2 -35 -3 -9 -3 57 0 66 1 94
3 63 2 -32 2 -86 0 -120z m50 140 c-3 -7 -5 -2 -5 12 0 14 2 19 5 13 2 -7 2
-19 0 -25z m-568 -137 c1 -70 -6 -44 -12 44 -4 57 -3 69 3 40 5 -22 9 -60 9
-84z m-8941 79 l32 0 0 -80 0 -80 -90 0 -90 0 0 54 c0 29 3 68 6 86 l7 32 51
-6 c28 -3 66 -6 84 -6z m9556 -29 c-5 -6 -34 20 -34 30 0 5 8 1 18 -8 10 -10
17 -20 16 -22z m-577 -53 c-2 -13 -4 -5 -4 17 -1 22 1 32 4 23 2 -10 2 -28 0
-40z m626 45 c-7 -2 -19 -2 -25 0 -7 3 -2 5 12 5 14 0 19 -2 13 -5z m-7618
-33 c-3 -5 -11 -10 -16 -10 -6 0 -7 5 -4 10 3 6 11 10 16 10 6 0 7 -4 4 -10z
m-45 -20 c-8 -5 -19 -10 -25 -10 -5 0 -3 5 5 10 8 5 20 10 25 10 6 0 3 -5 -5
-10z m-50 -20 c-8 -5 -19 -10 -25 -10 -5 0 -3 5 5 10 8 5 20 10 25 10 6 0 3
-5 -5 -10z m7097 -122 c-2 -24 -4 -5 -4 42 0 47 2 66 4 43 2 -24 2 -62 0 -85z
m-7177 92 c-8 -5 -19 -10 -25 -10 -5 0 -3 5 5 10 8 5 20 10 25 10 6 0 3 -5 -5
-10z m7137 -82 c-2 -18 -4 -6 -4 27 0 33 2 48 4 33 2 -15 2 -42 0 -60z m-8957
16 l35 -6 -3 -79 -4 -79 -90 0 c-78 0 -89 2 -84 16 3 9 6 47 6 85 l0 69 53 0
c28 0 68 -3 87 -6z m8798 -71 c-15 -2 -42 -2 -60 0 -18 2 -6 4 27 4 33 0 48
-2 33 -4z m139 -10 c-20 -2 -52 -2 -70 0 -17 2 0 4 38 4 39 0 53 -2 32 -4z
m191 -10 c-15 -2 -42 -2 -60 0 -18 2 -6 4 27 4 33 0 48 -2 33 -4z m170 -10
c-10 -2 -28 -2 -40 0 -13 2 -5 4 17 4 22 1 32 -1 23 -4z m249 -15 c-3 -8 -6
-5 -6 6 -1 11 2 17 5 13 3 -3 4 -12 1 -19z m-94 5 c-13 -2 -35 -2 -50 0 -16 2
-5 4 22 4 28 0 40 -2 28 -4z m310 -20 c-7 -2 -21 -2 -30 0 -10 3 -4 5 12 5 17
0 24 -2 18 -5z m-9731 -152 l3 -79 -50 -6 c-27 -3 -67 -6 -87 -6 l-38 0 0 69
c0 38 -3 76 -6 85 -5 14 6 16 84 16 l90 0 4 -79z m9731 62 c-7 -2 -21 -2 -30
0 -10 3 -4 5 12 5 17 0 24 -2 18 -5z m-216 -70 c-2 -16 -4 -5 -4 22 0 28 2 40
4 28 2 -13 2 -35 0 -50z m-89 50 c-10 -2 -26 -2 -35 0 -10 3 -2 5 17 5 19 0
27 -2 18 -5z m-121 -9 c-3 -3 -12 -4 -19 -1 -8 3 -5 6 6 6 11 1 17 -2 13 -5z
m-174 -11 c-13 -2 -33 -2 -45 0 -13 2 -3 4 22 4 25 0 35 -2 23 -4z m-6038 -23
c291 -19 741 -49 1070 -70 88 -6 223 -15 300 -20 77 -5 217 -14 310 -20 94 -6
225 -15 293 -20 68 -6 135 -10 150 -11 16 0 21 -3 12 -6 -25 -9 -1686 -697
-1962 -813 l-258 -107 -21 56 c-115 302 -179 603 -204 949 -3 45 -2 82 2 82 5
0 143 -9 308 -20z m5918 13 c-7 -2 -21 -2 -30 0 -10 3 -4 5 12 5 17 0 24 -2
18 -5z m-180 -10 c-13 -2 -35 -2 -50 0 -16 2 -5 4 22 4 28 0 40 -2 28 -4z
m-130 -10 c-23 -2 -64 -2 -90 0 -26 2 -7 3 42 3 50 0 71 -1 48 -3z m-165 -10
c-15 -2 -42 -2 -60 0 -18 2 -6 4 27 4 33 0 48 -2 33 -4z m-99 -7 c-2 -2 -69
-6 -149 -8 -80 -3 -118 -2 -85 2 65 7 241 12 234 6z m-354 -23 c-33 -2 -140
-10 -237 -18 -177 -14 -177 -14 -235 -51 -32 -20 -119 -98 -193 -173 -74 -76
-143 -142 -153 -147 -15 -9 14 -24 158 -84 96 -40 174 -75 172 -77 -4 -3 -868
351 -897 368 -8 4 -10 9 -4 9 14 0 39 56 37 82 -2 16 7 18 62 18 36 0 120 4
187 10 120 9 252 18 623 41 99 6 221 15 270 19 50 4 131 7 180 7 57 -1 68 -2
30 -4z m842 -70 c-3 -10 -5 -2 -5 17 0 19 2 27 5 18 2 -10 2 -26 0 -35z m40
-15 c-3 -8 -6 -5 -6 6 -1 11 2 17 5 13 3 -3 4 -12 1 -19z m-8957 -77 l0 -78
-82 -6 c-46 -3 -85 -4 -87 -1 -2 2 -6 40 -9 84 l-5 80 92 0 91 0 0 -79z m5265
13 c9 -14 14 -31 12 -37 -4 -11 -1375 -1563 -1479 -1675 -35 -37 -39 -46 -27
-58 12 -11 118 78 732 616 394 347 720 630 723 630 3 0 3 -3 1 -7 -3 -5 -55
-204 -115 -443 -61 -239 -156 -613 -211 -830 -89 -349 -108 -415 -172 -567
l-71 -171 -116 54 c-540 254 -988 652 -1304 1158 -81 131 -232 425 -222 435 7
8 2207 919 2220 920 7 1 19 -11 29 -25z m3682 -36 c-3 -8 -6 -5 -6 6 -1 11 2
17 5 13 3 -3 4 -12 1 -19z m-2082 -104 c112 -46 182 -80 178 -87 -4 -6 -1 -7
6 -2 12 7 416 -153 408 -161 -2 -2 -44 12 -93 32 -165 67 -185 74 -180 66 3
-5 -73 -56 -169 -113 l-173 -104 46 -55 c26 -30 106 -124 180 -207 73 -84 131
-153 128 -153 -12 0 -376 421 -374 432 2 7 -3 12 -10 13 -19 0 -255 269 -239
273 14 3 90 105 95 127 2 8 6 15 8 15 3 0 88 -34 189 -76z m-6850 -70 c4 -41
5 -77 3 -80 -6 -5 -169 -26 -173 -22 -1 2 -5 40 -9 85 l-6 82 52 4 c29 2 69 4
89 5 l37 2 7 -76z m21 -215 l7 -76 -69 -7 c-38 -4 -76 -9 -86 -12 -17 -5 -18
-1 -34 117 l-6 47 84 9 c45 5 86 6 90 3 4 -3 10 -39 14 -81z m6632 -276 c193
-173 352 -316 352 -319 0 -3 -84 69 -187 159 l-186 165 -53 -63 c-35 -41 -80
-79 -129 -108 -67 -41 -76 -44 -86 -29 -15 24 -10 11 70 -187 39 -96 69 -176
68 -178 -3 -2 -90 204 -314 745 -8 19 -10 31 -4 28 5 -4 19 14 30 38 14 32 27
47 45 52 15 3 23 11 19 17 -15 24 38 -22 375 -320z m870 282 c24 -10 41 -19
39 -22 -3 -2 -29 8 -58 22 -59 27 -50 28 19 0z m102 0 c14 -8 21 -14 15 -14
-5 0 -21 6 -35 14 -14 8 -20 14 -15 14 6 0 21 -6 35 -14z m60 -25 c8 -5 11
-10 5 -10 -5 0 -17 5 -25 10 -8 5 -10 10 -5 10 6 0 17 -5 25 -10z m-42 -25
c24 -10 41 -19 39 -22 -3 -2 -29 8 -58 22 -59 27 -50 28 19 0z m130 -10 c24
-10 41 -19 39 -22 -3 -2 -29 8 -58 22 -59 27 -50 28 19 0z m-48 -25 c8 -5 11
-10 5 -10 -5 0 -17 5 -25 10 -8 5 -10 10 -5 10 6 0 17 -5 25 -10z m50 -20 c8
-5 11 -10 5 -10 -5 0 -17 5 -25 10 -8 5 -10 10 -5 10 6 0 17 -5 25 -10z
m-7740 -22 c1 -2 7 -36 14 -76 9 -52 9 -75 2 -78 -6 -2 -45 -10 -87 -17 l-77
-14 -12 79 c-7 43 -11 81 -8 83 9 10 167 30 168 23z m6300 -403 c88 -213 158
-390 157 -392 -2 -2 -41 87 -87 196 l-83 200 -46 -26 c-25 -15 -56 -31 -68
-37 -13 -6 -23 -14 -23 -18 0 -5 -6 -8 -14 -8 -8 0 -39 -23 -69 -50 l-56 -51
-4 28 c-2 15 -5 -1 -6 -37 -1 -36 -8 -141 -16 -235 -8 -93 -15 -199 -16 -235
-2 -42 -4 -53 -7 -30 -2 19 1 109 7 200 6 91 16 230 21 310 22 326 24 348 30
300 l5 -45 8 38 c8 37 53 164 83 234 8 17 14 37 14 44 0 7 2 10 5 8 2 -3 76
-180 165 -394z m1640 385 c8 -5 11 -10 5 -10 -5 0 -17 5 -25 10 -8 5 -10 10
-5 10 6 0 17 -5 25 -10z m-7891 -256 c7 -42 11 -78 9 -80 -7 -6 -159 -36 -164
-32 -7 8 -34 151 -29 156 5 5 124 29 156 31 11 1 18 -17 28 -75z m7137 -146
l29 -33 -32 29 c-31 28 -38 36 -30 36 2 0 16 -15 33 -32z m-7098 -43 c7 -35
15 -70 17 -78 4 -9 -19 -19 -80 -34 -61 -15 -88 -17 -90 -9 -8 23 -35 149 -33
151 3 2 147 32 164 34 6 0 16 -28 22 -64z m7172 -40 c19 -19 32 -35 29 -35 -3
0 -20 16 -39 35 -19 19 -32 35 -29 35 3 0 20 -16 39 -35z m-240 -10 c19 -19
32 -35 29 -35 -3 0 -20 16 -39 35 -19 19 -32 35 -29 35 3 0 20 -16 39 -35z
m85 -75 c21 -22 37 -40 34 -40 -3 0 -23 18 -44 40 -21 22 -37 40 -34 40 3 0
23 -18 44 -40z m220 10 c10 -11 16 -20 13 -20 -3 0 -13 9 -23 20 -10 11 -16
20 -13 20 3 0 13 -9 23 -20z m-7191 -72 c32 -112 37 -100 -55 -126 -45 -12
-83 -21 -86 -19 -8 9 -44 149 -40 154 6 5 134 41 154 42 6 1 18 -23 27 -51z
m7056 -13 c13 -14 21 -25 18 -25 -2 0 -15 11 -28 25 -13 14 -21 25 -18 25 2 0
15 -11 28 -25z m215 -5 c10 -11 16 -20 13 -20 -3 0 -13 9 -23 20 -10 11 -16
20 -13 20 3 0 13 -9 23 -20z m-125 -75 c13 -14 21 -25 18 -25 -2 0 -15 11 -28
25 -13 14 -21 25 -18 25 2 0 15 -11 28 -25z m-781 -40 c0 -5 -6 1 -14 15 -8
14 -14 30 -14 35 0 6 6 -1 14 -15 8 -14 14 -29 14 -35z m972 38 c13 -16 12
-17 -3 -4 -10 7 -18 15 -18 17 0 8 8 3 21 -13z m-7278 -110 c9 -32 19 -65 22
-74 5 -14 -9 -22 -75 -44 -45 -15 -84 -25 -87 -22 -2 3 -15 38 -27 79 l-23 73
71 21 c103 32 100 32 119 -33z m6327 22 c0 -5 -5 -3 -10 5 -5 8 -10 20 -10 25
0 6 5 3 10 -5 5 -8 10 -19 10 -25z m841 18 c13 -16 12 -17 -3 -4 -10 7 -18 15
-18 17 0 8 8 3 21 -13z m-881 -28 c0 -5 -5 -3 -10 5 -5 8 -10 20 -10 25 0 6 5
3 10 -5 5 -8 10 -19 10 -25z m60 -40 c0 -5 -5 -3 -10 5 -5 8 -10 20 -10 25 0
6 5 3 10 -5 5 -8 10 -19 10 -25z m-30 -30 c0 -5 -5 -3 -10 5 -5 8 -10 20 -10
25 0 6 5 3 10 -5 5 -8 10 -19 10 -25z m60 -40 c0 -5 -5 -3 -10 5 -5 8 -10 20
-10 25 0 6 5 3 10 -5 5 -8 10 -19 10 -25z m-40 -10 c0 -5 -5 -3 -10 5 -5 8
-10 20 -10 25 0 6 5 3 10 -5 5 -8 10 -19 10 -25z m60 -40 c0 -5 -5 -3 -10 5
-5 8 -10 20 -10 25 0 6 5 3 10 -5 5 -8 10 -19 10 -25z m-6331 -60 c14 -41 23
-76 20 -79 -13 -12 -153 -55 -159 -49 -10 10 -53 143 -49 147 4 3 150 54 159
55 3 1 16 -33 29 -74z m5698 -162 c-2 -16 -4 -3 -4 27 0 30 2 43 4 28 2 -16 2
-40 0 -55z m-5627 -30 c14 -37 26 -70 28 -73 1 -3 -32 -19 -75 -35 -42 -17
-80 -31 -83 -33 -8 -3 -65 147 -58 153 7 7 132 53 148 54 10 1 24 -22 40 -66z
m5307 -15 c-3 -7 -5 -2 -5 12 0 14 2 19 5 13 2 -7 2 -19 0 -25z m310 -120 c-2
-24 -4 -5 -4 42 0 47 2 66 4 43 2 -24 2 -62 0 -85z m-300 0 c-2 -18 -4 -4 -4
32 0 36 2 50 4 33 2 -18 2 -48 0 -65z m-5239 -59 l31 -71 -75 -34 c-41 -19
-78 -34 -83 -34 -4 0 -21 33 -38 74 l-31 74 71 30 c40 17 77 31 83 31 5 1 24
-31 42 -70z m5249 -112 c-2 -23 -3 -1 -3 48 0 50 1 68 3 42 2 -26 2 -67 0 -90z
m280 36 c-2 -16 -4 -5 -4 22 0 28 2 40 4 28 2 -13 2 -35 0 -50z m-5417 -179
c0 -2 -35 -21 -78 -43 l-78 -39 -33 74 c-19 41 -32 77 -29 79 2 2 38 20 79 39
l74 34 33 -70 c17 -39 32 -72 32 -74z m5147 -1 c-2 -16 -4 -5 -4 22 0 28 2 40
4 28 2 -13 2 -35 0 -50z m260 10 c-3 -10 -5 -4 -5 12 0 17 2 24 5 18 2 -7 2
-21 0 -30z m-5347 -123 c18 -38 32 -71 29 -73 -2 -2 -35 -20 -73 -41 l-70 -38
-17 24 c-22 29 -64 117 -58 122 6 6 143 75 150 76 3 0 20 -31 39 -70z m5337
-2 c-2 -13 -4 -5 -4 17 -1 22 1 32 4 23 2 -10 2 -28 0 -40z m-240 -70 c-2 -13
-4 -5 -4 17 -1 22 1 32 4 23 2 -10 2 -28 0 -40z m-1003 -68 c-9 -33 -21 -57
-25 -53 -5 5 1 34 13 65 13 31 24 55 26 53 2 -2 -4 -31 -14 -65z m-3989 -58
c16 -28 26 -54 24 -55 -2 -2 -37 -22 -77 -45 l-72 -41 -16 32 c-9 18 -27 50
-40 73 l-24 40 77 41 c87 47 77 50 128 -45z m5002 -14 c-2 -13 -4 -3 -4 22 0
25 2 35 4 23 2 -13 2 -33 0 -45z m-1037 -25 c0 -14 -2 -15 -9 -4 -7 11 -11 10
-20 -5 -11 -21 -15 -15 -5 10 8 22 34 20 34 -1z m-26 -102 c-9 -40 -19 -70
-21 -67 -2 2 4 36 13 75 10 39 19 69 22 67 2 -2 -4 -36 -14 -75z m1273 42 c-3
-10 -5 -4 -5 12 0 17 2 24 5 18 2 -7 2 -21 0 -30z m-1318 -57 c-18 -42 -33
-75 -35 -73 -2 2 10 38 27 81 18 42 33 75 35 73 2 -2 -10 -38 -27 -81z m-3798
-8 l37 -63 -71 -46 c-40 -26 -75 -44 -79 -42 -14 8 -80 134 -74 141 14 13 141
81 145 77 2 -3 21 -33 42 -67z m3728 -57 c-12 -28 -24 -50 -26 -48 -2 2 6 27
18 56 12 28 24 50 26 48 2 -2 -6 -27 -18 -56z m898 33 c-3 -3 -12 -4 -19 -1
-8 3 -5 6 6 6 11 1 17 -2 13 -5z m206 -21 c-7 -2 -19 -2 -25 0 -7 3 -2 5 12 5
14 0 19 -2 13 -5z m-276 -9 c-3 -3 -12 -4 -19 -1 -8 3 -5 6 6 6 11 1 17 -2 13
-5z m-740 -26 c-3 -8 -6 -5 -6 6 -1 11 2 17 5 13 3 -3 4 -12 1 -19z m900 6
c-3 -3 -12 -4 -19 -1 -8 3 -5 6 6 6 11 1 17 -2 13 -5z m-966 -31 c-12 -20 -14
-14 -5 12 4 9 9 14 11 11 3 -2 0 -13 -6 -23z m56 -15 c-3 -8 -6 -5 -6 6 -1 11
2 17 5 13 3 -3 4 -12 1 -19z m-3715 -25 c14 -21 32 -50 42 -64 l16 -26 -72
-51 -73 -50 -43 64 c-23 35 -42 68 -42 73 0 9 127 91 141 91 4 0 17 -17 31
-37z m3587 -32 c-12 -28 -24 -50 -26 -48 -2 2 6 27 18 56 12 28 24 50 26 48 2
-2 -6 -27 -18 -56z m1248 17 c-3 -7 -5 -2 -5 12 0 14 2 19 5 13 2 -7 2 -19 0
-25z m-1130 0 c-3 -8 -6 -5 -6 6 -1 11 2 17 5 13 3 -3 4 -12 1 -19z m-76 -15
c-12 -20 -14 -14 -5 12 4 9 9 14 11 11 3 -2 0 -13 -6 -23z m66 -25 c-3 -8 -6
-5 -6 6 -1 11 2 17 5 13 3 -3 4 -12 1 -19z m-98 -57 c-12 -28 -24 -50 -26 -48
-2 2 6 27 18 56 12 28 24 50 26 48 2 -2 -6 -27 -18 -56z m88 17 c-3 -8 -6 -5
-6 6 -1 11 2 17 5 13 3 -3 4 -12 1 -19z m-136 -25 c-12 -20 -14 -14 -5 12 4 9
9 14 11 11 3 -2 0 -13 -6 -23z m126 -15 c-3 -8 -6 -5 -6 6 -1 11 2 17 5 13 3
-3 4 -12 1 -19z m-3545 -61 c44 -62 44 -63 24 -78 -12 -8 -44 -31 -72 -52
l-51 -37 -42 63 c-23 34 -43 65 -44 69 -2 8 121 96 135 97 3 1 26 -27 50 -62z
m3399 26 c-12 -20 -14 -14 -5 12 4 9 9 14 11 11 3 -2 0 -13 -6 -23z m136 -5
c-3 -8 -6 -5 -6 6 -1 11 2 17 5 13 3 -3 4 -12 1 -19z m-106 -25 c-12 -20 -14
-14 -5 12 4 9 9 14 11 11 3 -2 0 -13 -6 -23z m96 -15 c-3 -8 -6 -5 -6 6 -1 11
2 17 5 13 3 -3 4 -12 1 -19z m-156 -25 c-12 -20 -14 -14 -5 12 4 9 9 14 11 11
3 -2 0 -13 -6 -23z m146 -15 c-3 -8 -6 -5 -6 6 -1 11 2 17 5 13 3 -3 4 -12 1
-19z m-166 -35 c-12 -20 -14 -14 -5 12 4 9 9 14 11 11 3 -2 0 -13 -6 -23z
m-3228 -70 l47 -61 -69 -56 -70 -56 -45 63 c-26 34 -47 65 -49 69 -2 6 136
110 139 105 0 -1 21 -30 47 -64z m3258 40 c-12 -20 -14 -14 -5 12 4 9 9 14 11
11 3 -2 0 -13 -6 -23z m116 -15 c-3 -8 -6 -5 -6 6 -1 11 2 17 5 13 3 -3 4 -12
1 -19z m-136 -35 c-12 -20 -14 -14 -5 12 4 9 9 14 11 11 3 -2 0 -13 -6 -23z
m-60 -40 c-12 -20 -14 -14 -5 12 4 9 9 14 11 11 3 -2 0 -13 -6 -23z m-3049
-113 l47 -58 -67 -56 -67 -56 -33 38 c-19 20 -42 49 -53 64 l-19 26 62 50 c35
28 68 51 73 51 6 0 31 -27 57 -59z m157 -191 l20 -25 -64 -57 -63 -57 -55 61
-55 62 67 58 66 58 33 -37 c18 -20 41 -49 51 -63z m109 -118 l51 -58 -42 -39
c-91 -85 -79 -84 -141 -18 l-54 59 61 57 c34 31 65 57 68 58 3 0 29 -26 57
-59z m142 -146 l55 -55 -63 -63 -62 -62 -57 58 -58 57 60 60 c33 33 62 60 65
60 3 0 30 -25 60 -55z m195 -195 c0 -3 -25 -34 -55 -68 l-55 -61 -58 55 -58
56 57 64 56 64 56 -51 c32 -29 57 -55 57 -59z m134 -114 c23 -25 24 -26 6 -46
-10 -11 -21 -18 -25 -15 -4 2 -18 -8 -31 -23 -22 -25 -22 -25 -1 -8 33 28 27
4 -8 -29 -24 -23 -33 -26 -43 -16 -6 6 -12 17 -12 24 -1 7 -7 11 -14 9 -8 -2
-29 11 -47 29 l-33 32 57 62 57 63 35 -28 c19 -15 46 -40 59 -54z m125 -102
c37 -29 54 -50 49 -58 -5 -6 -28 -38 -52 -69 -38 -50 -46 -56 -60 -44 -9 7
-37 30 -63 51 l-48 38 53 64 c28 35 55 64 59 64 3 0 31 -21 62 -46z m746 -48
c0 -2 -7 -7 -16 -10 -8 -3 -12 -2 -9 4 6 10 25 14 25 6z m99 -50 c-2 -2 -13 8
-23 22 l-19 27 24 -22 c12 -12 21 -24 18 -27z m-634 -78 c0 -5 -20 -37 -45
-72 l-45 -63 -62 46 c-34 25 -60 51 -58 58 2 6 25 39 51 72 l46 60 57 -46 c31
-25 56 -50 56 -55z m579 83 c4 -5 -3 -7 -14 -4 -23 6 -26 13 -6 13 8 0 17 -4
20 -9z m-104 -5 c0 -2 -8 -10 -17 -17 -16 -13 -17 -12 -4 4 13 16 21 21 21 13z
m60 0 c0 -2 -8 -10 -17 -17 -16 -13 -17 -12 -4 4 13 16 21 21 21 13z m107 -38
c-3 -8 -6 -5 -6 6 -1 11 2 17 5 13 3 -3 4 -12 1 -19z m-487 -69 c14 -11 5 -7
-20 9 -25 16 -54 40 -65 53 -19 22 12 -1 85 -62z m-79 -16 c13 -16 12 -17 -4
-4 -20 16 -18 17 -71 -57 -33 -45 -36 -55 -25 -70 12 -16 12 -16 -5 0 -18 15
-16 19 29 82 26 36 50 66 55 66 4 0 14 -8 21 -17z m336 -20 c-3 -10 -5 -4 -5
12 0 17 2 24 5 18 2 -7 2 -21 0 -30z m143 24 c0 -2 -12 -14 -27 -28 l-28 -24
24 28 c23 25 31 32 31 24z m-345 -25 c-3 -3 -11 0 -18 7 -9 10 -8 11 6 5 10
-3 15 -9 12 -12z m40 -22 c10 -11 16 -20 13 -20 -3 0 -13 9 -23 20 -10 11 -16
20 -13 20 3 0 13 -9 23 -20z m-75 -30 c0 -4 -8 -14 -17 -21 -16 -13 -17 -12
-4 3 12 16 10 21 -10 39 l-24 20 28 -17 c15 -9 27 -20 27 -24z m265 10 c10
-11 16 -20 13 -20 -3 0 -13 9 -23 20 -10 11 -16 20 -13 20 3 0 13 -9 23 -20z
m-204 -47 c10 -12 11 -15 1 -9 -7 4 -20 2 -29 -6 -15 -12 -15 -11 -2 10 17 26
13 26 30 5z m184 -43 c10 -11 16 -20 13 -20 -3 0 -13 9 -23 20 -10 11 -16 20
-13 20 3 0 13 -9 23 -20z m262 -6 c-3 -3 -12 -4 -19 -1 -8 3 -5 6 6 6 11 1 17
-2 13 -5z m-597 -50 c0 -3 -13 4 -30 16 -16 12 -30 24 -30 26 0 3 14 -4 30
-16 17 -12 30 -24 30 -26z m74 11 c-9 -14 -18 -25 -21 -25 -5 0 5 18 20 38 17
22 18 13 1 -13z m177 2 c-10 -9 -11 -8 -5 6 3 10 9 15 12 12 3 -3 0 -11 -7
-18z m69 -21 c0 -2 -7 -7 -16 -10 -8 -3 -12 -2 -9 4 6 10 25 14 25 6z m-145
-104 c-3 -3 -11 0 -18 7 -9 10 -8 11 6 5 10 -3 15 -9 12 -12z"/>
<path d="M6396 12147 c-29 -29 -41 -104 -27 -167 17 -77 74 -102 128 -56 27
23 28 29 28 109 0 77 -3 88 -24 111 -31 33 -74 34 -105 3z m77 -22 c32 -31 28
-165 -5 -186 -41 -27 -70 21 -66 107 5 84 34 116 71 79z"/>
<path d="M5634 12108 c-45 -21 -57 -98 -28 -181 26 -77 78 -98 131 -53 25 21
28 31 27 79 -2 71 -19 122 -51 147 -28 22 -47 24 -79 8z m69 -50 c26 -35 36
-148 14 -167 -9 -7 -24 -11 -34 -9 -46 8 -77 166 -38 194 24 18 34 14 58 -18z"/>
<path d="M7334 12086 c-3 -8 -19 -18 -35 -21 -41 -9 -46 -24 -10 -31 25 -5 30
-11 26 -28 -20 -91 -26 -149 -15 -160 17 -17 26 5 45 122 9 58 19 112 22 119
3 7 -2 13 -11 13 -9 0 -19 -6 -22 -14z"/>
<path d="M5465 12083 c-70 -14 -65 -8 -65 -83 0 -72 12 -89 40 -55 37 44 114
-7 94 -63 -11 -32 -63 -43 -84 -18 -15 20 -40 21 -40 3 0 -48 94 -65 137 -26
25 24 32 84 13 118 -15 28 -61 44 -94 31 -37 -14 -36 -14 -36 20 0 24 5 31 25
35 14 3 36 7 50 10 32 7 34 35 3 34 -13 -1 -32 -3 -43 -6z"/>
<path d="M7487 12059 c-48 -28 -76 -178 -42 -226 19 -27 67 -38 95 -23 34 18
60 86 60 157 0 55 -3 64 -26 82 -29 23 -59 26 -87 10z m69 -44 c20 -30 12
-107 -17 -154 -23 -37 -43 -39 -65 -6 -20 30 -12 107 17 154 23 37 43 39 65 6z"/>
<path d="M5240 12043 c-30 -11 -50 -37 -50 -65 0 -18 5 -28 15 -28 8 0 15 9
15 20 0 29 43 54 69 40 30 -16 28 -58 -4 -70 -33 -13 -34 -43 -1 -34 46 11 74
-47 38 -79 -26 -24 -59 -21 -78 7 -9 14 -22 22 -30 19 -21 -8 10 -61 41 -69
31 -8 75 3 98 23 24 22 23 85 -2 107 -16 14 -18 23 -10 40 25 55 -39 112 -101
89z"/>
<path d="M4657 11872 c-23 -25 -22 -106 2 -158 24 -54 67 -87 101 -79 60 15
78 61 55 140 -22 77 -57 115 -104 115 -24 0 -44 -7 -54 -18z m87 -31 c23 -25
45 -87 46 -128 0 -44 -32 -63 -62 -36 -39 35 -67 119 -53 162 8 27 46 28 69 2z"/>
<path d="M4522 11823 c-13 -25 -52 -169 -52 -193 0 -24 18 -25 67 -5 45 19 41
20 55 -15 10 -22 17 -27 27 -21 12 8 13 14 3 35 -10 22 -9 27 9 36 23 13 15
34 -11 27 -15 -4 -24 9 -47 74 -15 44 -31 79 -35 79 -4 0 -11 -8 -16 -17z m31
-107 l15 -44 -29 -13 c-16 -6 -32 -10 -34 -7 -5 5 23 108 29 108 2 0 11 -20
19 -44z"/>
<path d="M3755 11485 c-31 -30 -31 -56 0 -123 31 -67 68 -102 110 -102 39 0
75 35 75 73 0 39 -43 119 -80 151 -39 33 -74 33 -105 1z m95 -43 c48 -48 71
-115 48 -139 -27 -26 -65 -9 -98 44 -31 49 -39 100 -18 121 18 18 27 15 68
-26z"/>
<path d="M9126 11459 c-21 -17 -24 -24 -15 -35 10 -13 14 -12 29 1 31 28 80
13 80 -26 0 -28 -27 -44 -54 -31 -34 15 -44 -13 -15 -37 27 -22 20 -66 -12
-76 -31 -10 -72 21 -66 51 2 13 -2 29 -9 35 -11 9 -16 5 -24 -15 -20 -54 25
-106 91 -106 47 0 84 40 75 82 -4 20 -1 28 13 33 24 7 45 57 36 85 -7 23 -60
60 -86 60 -9 0 -28 -9 -43 -21z"/>
<path d="M3581 11384 c-30 -25 -37 -47 -25 -78 10 -25 36 -20 34 7 -4 40 0 47
25 59 43 19 76 -32 40 -62 -29 -24 -18 -38 24 -33 33 5 41 2 51 -16 15 -29 5
-55 -26 -69 -31 -15 -29 -15 -49 4 -9 9 -23 13 -33 9 -15 -6 -13 -10 11 -31
35 -30 55 -30 98 -1 25 17 35 31 37 56 4 39 -21 81 -48 81 -17 0 -19 5 -14 24
4 19 -1 32 -20 50 -32 33 -66 33 -105 0z"/>
<path d="M9290 11339 c-94 -95 -90 -219 7 -219 54 0 133 105 133 178 0 70 -86
95 -140 41z m88 -11 c17 -17 15 -53 -7 -96 -38 -75 -94 -103 -111 -57 -11 31
6 77 46 123 37 44 52 50 72 30z"/>
<path d="M3417 11294 c-35 -19 -50 -55 -37 -90 8 -20 13 -24 24 -15 7 6 11 22
9 35 -4 18 2 29 21 41 25 17 28 17 46 0 26 -23 25 -40 -1 -59 -29 -20 -16 -36
24 -29 60 9 79 -56 25 -86 -24 -14 -28 -14 -48 4 -16 15 -23 16 -33 6 -9 -10
-7 -16 12 -32 30 -24 55 -24 97 1 43 27 54 72 27 109 -11 14 -29 27 -40 29
-16 2 -19 9 -15 28 3 17 -3 33 -18 50 -27 27 -53 30 -93 8z"/>
<path d="M2930 10945 c-18 -20 -22 -31 -17 -61 7 -43 48 -98 97 -131 41 -28
60 -29 94 -2 37 29 36 83 -3 136 -60 83 -127 105 -171 58z m117 -50 c46 -48
62 -89 46 -114 -17 -26 -55 -14 -100 33 -47 49 -62 88 -43 111 22 26 52 16 97
-30z"/>
<path d="M9959 10866 c-127 -34 -133 -42 -70 -91 l39 -30 -20 -22 c-21 -22
-17 -43 7 -43 8 0 19 9 25 21 9 16 14 18 26 8 21 -17 42 4 25 24 -9 12 -2 26
39 76 48 56 56 82 27 80 -7 0 -51 -11 -98 -23z m21 -61 l-34 -35 -24 23 -24
22 54 16 c29 9 55 14 57 12 3 -2 -11 -19 -29 -38z"/>
<path d="M2779 10821 c-32 -32 -37 -66 -15 -97 20 -27 43 -6 27 25 -25 45 30
85 71 51 22 -17 22 -20 9 -66 -23 -81 -25 -112 -7 -139 l17 -25 63 52 c35 29
63 57 62 62 -5 21 -25 15 -66 -19 -23 -19 -46 -35 -51 -35 -14 0 -11 33 6 73
24 57 20 102 -11 126 -37 29 -70 26 -105 -8z"/>
<path d="M10099 10777 c-118 -80 -134 -221 -23 -221 42 0 107 58 136 122 22
49 18 73 -19 102 -33 26 -52 25 -94 -3z m81 -32 c19 -23 4 -60 -43 -110 -44
-46 -75 -56 -96 -31 -18 22 -3 61 43 111 44 47 74 56 96 30z"/>
<path d="M2660 10713 c-28 -10 -70 -57 -70 -77 1 -27 26 -60 39 -52 5 4 7 21
4 39 -6 38 13 60 49 55 29 -4 36 -42 13 -68 -20 -22 -4 -36 24 -20 31 16 49
12 66 -14 13 -19 14 -29 5 -45 -13 -26 -55 -37 -76 -21 -12 10 -17 11 -27 1
-16 -17 17 -41 56 -41 36 0 87 49 87 83 0 35 -36 77 -66 77 -14 0 -23 4 -19 9
9 16 -16 58 -42 70 -13 6 -25 11 -26 10 -1 0 -9 -3 -17 -6z"/>
<path d="M2211 10274 c-12 -15 -21 -36 -21 -47 0 -56 102 -147 165 -147 38 0
75 35 75 72 0 52 -107 148 -166 148 -23 0 -38 -7 -53 -26z m114 -36 c58 -41
84 -81 69 -106 -18 -29 -55 -25 -102 9 -53 39 -77 81 -62 109 15 28 41 25 95
-12z"/>
<path d="M10652 10224 c-44 -29 -51 -38 -41 -50 6 -8 17 -14 24 -14 17 0 45
-33 45 -53 0 -23 -36 -57 -59 -57 -31 0 -54 29 -47 61 7 36 -18 59 -33 30 -34
-62 32 -143 102 -125 35 8 77 58 77 91 0 14 -12 37 -28 53 l-28 28 25 15 c25
14 27 13 56 -24 33 -42 34 -43 54 -30 11 7 6 19 -28 60 -24 28 -48 51 -54 50
-7 0 -36 -16 -65 -35z"/>
<path d="M2087 10134 c-3 -4 -1 -16 4 -27 8 -14 8 -27 0 -45 -15 -32 2 -54 18
-23 7 12 16 21 22 21 6 0 40 -25 75 -56 56 -49 84 -61 84 -34 0 4 -37 39 -82
76 -112 94 -114 95 -121 88z"/>
<path d="M10758 10061 c-89 -57 -117 -132 -64 -178 15 -12 37 -23 50 -23 31 0
108 51 140 92 33 44 33 82 1 113 -32 33 -70 32 -127 -4z m110 -42 c2 -20 -8
-35 -42 -67 -50 -46 -89 -61 -111 -42 -21 18 -19 34 12 71 59 69 135 90 141
38z"/>
<path d="M1983 9989 c-13 -4 -31 -22 -42 -40 -15 -25 -17 -37 -9 -60 12 -35
26 -45 41 -30 8 8 8 14 -1 23 -29 29 -7 78 35 78 32 0 44 -28 27 -61 -18 -35
1 -44 35 -17 21 16 27 17 45 5 50 -33 19 -103 -40 -92 -38 7 -54 -9 -25 -24
34 -19 66 -12 96 19 38 40 38 85 0 117 -19 17 -35 23 -51 19 -19 -5 -23 -2
-26 21 -4 32 -50 55 -85 42z"/>
<path d="M1642 9510 c-51 -21 -53 -91 -4 -137 94 -88 212 -82 212 11 0 26 -8
41 -35 65 -63 55 -130 78 -173 61z m91 -46 c43 -22 87 -64 87 -84 0 -22 -20
-40 -44 -40 -32 0 -126 58 -138 85 -22 50 31 71 95 39z"/>
<path d="M11203 9429 c-46 -23 -103 -81 -103 -105 0 -29 31 -75 57 -85 86 -32
162 73 99 136 -26 26 -18 35 29 35 30 0 52 -35 36 -54 -11 -13 -5 -46 8 -46
17 0 31 27 31 61 0 72 -74 99 -157 58z m18 -69 c45 -25 0 -101 -50 -85 -33 10
-39 54 -11 77 26 21 34 22 61 8z"/>
<path d="M8705 9423 c5 -10 10 -31 12 -48 4 -27 -10 -44 -155 -187 -87 -87
-164 -158 -171 -158 -7 0 -26 8 -42 17 -54 32 -43 2 26 -67 63 -64 95 -84 95
-61 0 5 -7 14 -15 21 -35 29 -18 58 122 201 75 76 137 138 138 137 1 -2 -13
-133 -30 -293 -18 -159 -31 -294 -28 -298 3 -5 88 73 189 173 198 196 184 188
264 165 19 -6 6 12 -52 71 -43 43 -80 75 -84 72 -3 -4 1 -17 10 -30 9 -12 16
-31 16 -41 0 -23 -234 -264 -238 -245 -1 7 10 120 26 250 l28 238 -51 50 c-52
52 -73 63 -60 33z"/>
<path d="M1521 9314 c-28 -35 -26 -66 4 -102 29 -35 117 -82 152 -82 34 0 73
43 73 79 0 55 -102 130 -177 131 -22 0 -38 -8 -52 -26z m96 -19 c65 -28 105
-64 101 -93 -6 -51 -93 -37 -160 26 -32 30 -36 56 -10 71 23 14 27 14 69 -4z"/>
<path d="M11321 9264 c-52 -23 -98 -62 -111 -94 -15 -37 3 -79 43 -98 62 -30
207 59 207 127 0 41 -39 81 -77 80 -15 0 -43 -7 -62 -15z m97 -55 c4 -32 -36
-69 -102 -94 -37 -14 -49 -15 -61 -5 -24 20 -18 46 18 76 70 59 140 70 145 23z"/>
<path d="M11401 9204 c0 -11 3 -14 6 -6 3 7 2 16 -1 19 -3 4 -6 -2 -5 -13z"/>
<path d="M11350 9150 c-9 -6 -10 -10 -3 -10 6 0 15 5 18 10 8 12 4 12 -15 0z"/>
<path d="M11466 9237 c3 -10 9 -15 12 -12 3 3 0 11 -7 18 -10 9 -11 8 -5 -6z"/>
<path d="M1437 9159 c-9 -5 -24 -24 -33 -41 -13 -24 -13 -35 -4 -58 11 -27 37
-46 48 -35 3 3 0 16 -8 29 -7 14 -10 36 -6 51 6 22 11 26 39 23 29 -3 32 -6
33 -38 1 -55 3 -56 29 -27 30 32 33 32 63 11 26 -18 28 -41 6 -73 -12 -16 -23
-22 -40 -18 -13 2 -29 -2 -35 -9 -8 -10 -5 -15 15 -20 14 -3 36 -4 49 0 28 7
57 55 57 94 0 40 -43 76 -82 68 -16 -3 -28 -1 -28 4 0 6 -9 19 -20 30 -22 22
-55 25 -83 9z"/>
<path d="M11350 9070 c-8 -5 -10 -10 -5 -10 6 0 17 5 25 10 8 5 11 10 5 10 -5
0 -17 -5 -25 -10z"/>
<path d="M11278 9043 c7 -3 16 -2 19 1 4 3 -2 6 -13 5 -11 0 -14 -3 -6 -6z"/>
<path d="M9130 9001 c0 -6 4 -12 9 -15 5 -3 11 -16 14 -28 5 -19 -20 -49 -151
-181 -86 -87 -165 -163 -175 -168 -13 -8 -25 -6 -44 6 -14 10 -29 13 -34 8 -5
-5 61 -79 154 -171 l164 -163 64 37 c79 46 76 43 60 53 -7 5 -29 4 -49 -1 -61
-17 -97 -3 -172 69 -39 36 -70 72 -70 80 0 9 34 50 75 92 l74 76 66 -65 c68
-67 75 -85 49 -124 -11 -18 -12 -26 -4 -31 12 -7 150 120 150 137 0 12 -38 10
-45 -2 -16 -25 -57 -8 -120 52 l-66 61 68 69 c37 37 75 68 84 68 9 0 47 -32
84 -71 70 -75 73 -84 50 -156 -12 -38 20 -28 59 20 l35 42 -157 158 c-86 86
-160 157 -164 157 -5 0 -8 -4 -8 -9z"/>
<path d="M1110 8430 c-46 -46 -17 -131 48 -143 31 -6 77 15 86 38 3 9 6 28 6
41 0 28 7 30 38 8 31 -22 28 -77 -5 -82 -23 -3 -38 -28 -23 -37 17 -10 64 19
78 47 10 22 10 33 -2 61 -28 69 -179 114 -226 67z m91 -20 c22 -12 26 -59 7
-78 -30 -30 -88 -2 -88 42 0 41 38 58 81 36z"/>
<path d="M10740 8270 c-8 -5 -10 -10 -5 -10 6 0 17 5 25 10 8 5 11 10 5 10 -5
0 -17 -5 -25 -10z"/>
<path d="M1045 8245 c-37 -36 -35 -97 4 -124 26 -19 30 -19 35 -5 4 11 -1 22
-14 31 -43 30 -6 102 44 84 16 -6 25 -25 38 -77 13 -52 24 -75 45 -91 15 -13
31 -23 35 -23 6 0 58 145 58 163 0 4 -7 7 -14 7 -9 0 -24 -24 -37 -60 -26 -72
-41 -68 -58 17 -19 97 -82 133 -136 78z"/>
<path d="M10690 8250 c-8 -5 -10 -10 -5 -10 6 0 17 5 25 10 8 5 11 10 5 10 -5
0 -17 -5 -25 -10z"/>
<path d="M10640 8230 c-8 -5 -10 -10 -5 -10 6 0 17 5 25 10 8 5 11 10 5 10 -5
0 -17 -5 -25 -10z"/>
<path d="M10595 8210 c-3 -6 1 -7 9 -4 18 7 21 14 7 14 -6 0 -13 -4 -16 -10z"/>
<path d="M2407 8169 c7 -7 15 -10 18 -7 3 3 -2 9 -12 12 -14 6 -15 5 -6 -5z"/>
<path d="M2450 8150 c8 -5 20 -10 25 -10 6 0 3 5 -5 10 -8 5 -19 10 -25 10 -5
0 -3 -5 5 -10z"/>
<path d="M10450 8150 c-8 -5 -10 -10 -5 -10 6 0 17 5 25 10 8 5 11 10 5 10 -5
0 -17 -5 -25 -10z"/>
<path d="M2500 8130 c8 -5 20 -10 25 -10 6 0 3 5 -5 10 -8 5 -19 10 -25 10 -5
0 -3 -5 5 -10z"/>
<path d="M2570 8100 c8 -5 20 -10 25 -10 6 0 3 5 -5 10 -8 5 -19 10 -25 10 -5
0 -3 -5 5 -10z"/>
<path d="M10305 8090 c-3 -6 1 -7 9 -4 18 7 21 14 7 14 -6 0 -13 -4 -16 -10z"/>
<path d="M896 7677 c-35 -35 -34 -72 4 -107 41 -39 153 -55 201 -29 30 15 42
57 28 91 -16 39 -61 60 -141 66 -61 4 -68 3 -92 -21z m142 -22 c64 -19 82 -45
51 -76 -19 -19 -28 -21 -78 -15 -91 11 -135 52 -92 88 28 22 52 23 119 3z"/>
<path d="M855 7480 c-27 -30 -25 -88 4 -111 25 -21 66 -25 76 -9 4 7 16 1 30
-15 48 -51 122 -23 132 50 7 54 -24 95 -72 95 -18 0 -38 -7 -45 -15 -11 -14
-14 -13 -27 5 -19 27 -74 27 -98 0z m69 -16 c22 -9 21 -61 -2 -73 -38 -20 -72
35 -40 67 14 14 20 14 42 6z m131 -24 c27 -29 10 -74 -28 -78 -52 -6 -72 32
-41 76 19 27 45 28 69 2z"/>
<path d="M821 7284 c-40 -51 -16 -134 39 -134 26 0 26 27 0 35 -30 10 -37 52
-12 77 32 32 58 16 95 -60 22 -46 41 -71 60 -80 16 -8 31 -11 34 -9 5 5 33
141 33 160 0 4 -9 7 -19 7 -16 0 -20 -10 -26 -60 -4 -38 -12 -60 -19 -60 -7 0
-25 29 -41 65 -15 36 -36 70 -46 75 -34 19 -76 12 -98 -16z"/>
<path d="M795 6718 c-40 -23 -55 -61 -39 -103 25 -63 233 -63 258 0 12 33 5
57 -23 86 -27 27 -35 29 -103 29 -40 0 -82 -6 -93 -12z m181 -39 c21 -18 13
-51 -16 -67 -34 -18 -145 -11 -166 10 -22 21 -10 54 24 67 34 13 138 7 158
-10z"/>
<path d="M750 6449 c0 -81 2 -90 18 -87 14 3 18 16 20 66 2 34 5 62 7 62 3 0
26 -13 52 -29 45 -27 130 -61 154 -61 6 0 9 7 7 16 -2 10 -26 23 -62 34 -32
10 -84 35 -116 54 -32 20 -63 36 -69 36 -7 0 -11 -31 -11 -91z"/>
<path d="M771 6304 c-23 -30 -27 -64 -10 -97 15 -29 12 -26 48 -37 27 -7 31
-6 31 10 0 11 -10 20 -24 24 -42 10 -45 65 -5 87 27 14 52 -2 83 -55 30 -51
60 -76 93 -76 22 0 23 3 23 85 0 69 -3 85 -15 85 -12 0 -15 -14 -15 -65 0 -85
-15 -86 -65 -5 -35 57 -51 70 -91 70 -23 0 -39 -8 -53 -26z"/>
<path d="M911 5759 c-84 -16 -124 -63 -102 -117 22 -52 95 -67 184 -36 52 18
77 45 77 84 -1 32 -19 56 -54 70 -31 11 -43 11 -105 -1z m117 -41 c33 -33 -2
-72 -79 -86 -64 -11 -103 -2 -107 26 -4 30 13 50 52 61 46 13 120 13 134 -1z"/>
<path d="M955 5545 c-29 -28 -32 -61 -9 -93 14 -21 14 -22 -11 -22 -58 0 -84
40 -49 75 9 8 13 23 10 32 -11 27 -56 -23 -56 -62 0 -65 75 -99 167 -76 78 20
111 64 92 121 -13 37 -36 50 -84 50 -25 0 -43 -8 -60 -25z m96 -15 c39 -22 13
-90 -35 -90 -30 0 -46 18 -46 52 0 40 40 59 81 38z"/>
<path d="M1093 5382 c-8 -5 -8 -23 -1 -65 6 -32 7 -61 4 -64 -3 -3 -33 19 -65
50 -65 62 -85 68 -124 37 -34 -27 -41 -52 -27 -95 13 -39 35 -55 75 -55 38 0
29 33 -10 40 -24 4 -31 11 -33 33 -4 33 13 57 40 57 10 0 40 -22 66 -49 44
-45 98 -71 120 -57 9 5 -15 156 -26 168 -4 4 -12 4 -19 0z"/>
<path d="M1131 4811 c-68 -24 -104 -59 -103 -101 2 -65 53 -90 137 -65 58 16
110 54 120 86 14 45 -32 100 -83 99 -9 -1 -41 -9 -71 -19z m120 -43 c10 -19 8
-25 -19 -49 -47 -42 -135 -62 -160 -37 -30 30 -4 67 64 92 60 22 101 20 115
-6z"/>
<path d="M1206 4618 c-14 -13 -26 -30 -27 -38 -4 -34 2 -59 16 -73 12 -13 12
-16 -8 -21 -40 -10 -45 -7 -62 43 -12 36 -20 48 -31 44 -8 -3 -14 -10 -14 -17
0 -14 33 -103 42 -111 8 -8 119 15 133 27 6 5 -1 18 -18 34 -34 32 -35 68 -2
90 51 33 110 -14 79 -63 -14 -22 -10 -53 7 -53 14 0 39 43 39 68 0 30 -25 78
-45 86 -35 13 -84 6 -109 -16z"/>
<path d="M3760 4387 c-202 -100 -230 -112 -277 -111 -29 0 -53 -1 -53 -1 0 -7
124 -124 128 -120 3 2 -1 19 -9 36 -12 30 -11 33 10 48 35 24 313 151 309 142
-41 -105 -145 -324 -155 -328 -8 -3 -25 0 -39 7 -47 26 -33 3 48 -78 80 -80
111 -97 81 -44 -14 25 -13 32 9 92 l25 64 108 48 c59 27 109 47 111 46 4 -5
-134 -308 -147 -324 -10 -13 -15 -12 -35 1 -57 37 -44 9 33 -74 63 -67 105
-94 87 -53 -17 38 -1 87 101 302 100 213 124 270 112 270 -3 0 -54 -23 -113
-51 -60 -28 -137 -64 -170 -79 l-61 -28 78 171 c44 94 79 172 79 174 0 14 -66
-14 -260 -110z"/>
<path d="M4345 4031 c-35 -15 -75 -63 -85 -103 -11 -39 -9 -59 24 -212 17 -78
13 -117 -15 -142 -24 -22 -75 -20 -101 3 -49 44 -60 103 -32 173 28 71 3 66
-59 -10 -56 -69 -65 -97 -27 -85 15 5 24 -3 41 -37 41 -83 89 -118 160 -118
49 0 98 29 123 71 22 37 22 112 2 183 -34 117 -22 193 35 216 37 16 75 6 110
-29 35 -35 45 -88 30 -157 -21 -93 -11 -93 59 -1 49 65 57 94 22 83 -12 -4
-27 10 -53 53 -50 79 -96 114 -162 118 -29 1 -61 -1 -72 -6z"/>
<path d="M1513 3918 c-53 -25 -103 -81 -103 -114 0 -14 12 -37 26 -51 21 -21
32 -25 66 -20 52 7 127 54 150 93 15 26 16 36 7 63 -19 55 -72 66 -146 29z
m102 -21 c28 -21 12 -59 -36 -92 -56 -37 -113 -45 -128 -17 -15 28 19 68 83
98 60 28 57 28 81 11z"/>
<path d="M1627 3764 c-3 -4 -2 -14 3 -24 7 -14 -3 -23 -60 -56 -104 -58 -97
-69 55 -79 115 -8 125 -1 90 55 l-27 43 26 21 c18 15 23 25 17 35 -8 12 -13
12 -37 -3 -25 -17 -28 -17 -36 -2 -9 17 -20 20 -31 10z m48 -104 c15 -30 15
-30 -12 -29 -16 1 -41 4 -58 8 l-30 7 40 22 c22 11 41 21 42 22 1 0 9 -13 18
-30z"/>
<path d="M1785 3610 c-4 -6 8 -35 25 -65 37 -64 28 -70 -50 -30 -60 30 -103
32 -130 5 -24 -24 -26 -60 -5 -100 16 -31 46 -44 86 -38 40 5 29 33 -14 36
-49 4 -71 40 -42 72 24 26 33 25 101 -10 56 -30 102 -34 127 -11 9 9 -70 151
-83 151 -5 0 -12 -5 -15 -10z"/>
<path d="M2074 3126 c-44 -19 -105 -76 -119 -110 -15 -35 -3 -81 25 -96 49
-26 105 -5 168 64 53 57 56 93 11 130 -35 29 -42 30 -85 12z m74 -43 c13 -25
0 -54 -43 -92 -48 -41 -80 -54 -106 -41 -10 6 -19 15 -19 21 0 22 31 67 62 91
55 42 92 49 106 21z"/>
<path d="M2193 2970 c-23 -14 -33 -27 -33 -45 0 -20 -5 -25 -24 -25 -34 0 -69
-46 -61 -80 14 -55 63 -87 106 -70 31 13 33 18 20 38 -7 11 -12 12 -29 1 -18
-11 -24 -10 -41 5 -27 24 -27 52 0 66 16 9 25 8 39 -5 11 -10 26 -15 34 -12
14 5 13 10 -1 36 -17 28 -17 30 1 50 24 27 48 27 71 0 16 -16 17 -25 8 -48
-13 -36 -2 -61 20 -42 23 19 29 58 13 89 -30 57 -74 73 -123 42z"/>
<path d="M2353 2848 c-10 -11 -4 -23 29 -61 22 -27 37 -51 34 -54 -4 -4 -28
-1 -54 7 -83 23 -105 23 -135 0 -19 -15 -27 -30 -27 -53 1 -73 84 -118 138
-74 21 17 -5 38 -32 25 -37 -16 -68 5 -64 45 4 41 30 46 110 21 55 -16 61 -16
94 -1 41 20 40 24 -33 106 -40 44 -50 51 -60 39z"/>
<path d="M2707 2409 c-44 -33 -87 -103 -87 -142 0 -41 34 -77 75 -77 37 0 90
41 126 98 35 56 37 85 4 117 -30 31 -79 32 -118 4z m93 -24 c19 -22 4 -61 -42
-111 -32 -34 -47 -44 -67 -42 -21 2 -27 9 -29 35 -3 27 5 40 46 82 50 53 71
61 92 36z"/>
<path d="M2884 2318 c-5 -7 11 -27 39 -52 26 -23 47 -44 47 -49 0 -4 -36 -4
-79 -1 -78 7 -80 6 -106 -22 -21 -22 -25 -35 -21 -58 12 -58 75 -98 118 -74
12 7 28 13 33 14 6 1 27 8 47 18 30 13 46 14 80 6 69 -15 76 -12 38 20 -35 29
-70 39 -70 20 0 -5 -5 -10 -12 -10 -6 0 -27 -12 -45 -26 -30 -23 -34 -24 -32
-8 4 23 -8 44 -24 44 -6 0 -2 -7 9 -15 14 -11 15 -14 3 -9 -10 3 -20 1 -24 -5
-3 -6 -19 -11 -35 -11 -37 0 -56 30 -39 61 10 20 17 21 81 16 75 -6 101 0 135
32 15 14 23 17 26 8 2 -7 7 -9 11 -6 3 3 -4 14 -16 25 -12 10 -18 13 -14 7 4
-7 3 -13 -2 -13 -15 0 -33 26 -24 35 4 5 2 5 -5 2 -6 -4 -30 9 -53 28 -45 38
-55 41 -66 23z"/>
<path d="M2928 2223 c6 -2 18 -2 25 0 6 3 1 5 -13 5 -14 0 -19 -2 -12 -5z"/>
<path d="M3045 2190 c-4 -6 -10 -8 -13 -6 -4 2 -18 -2 -32 -9 l-25 -13 32 1
c24 2 45 -8 77 -33 25 -19 45 -39 46 -44 0 -5 -25 -5 -57 -1 -82 11 -104 8
-130 -17 -25 -24 -30 -73 -10 -99 38 -49 97 -58 132 -20 13 16 14 20 1 30 -12
10 -20 9 -38 -3 -22 -14 -26 -14 -46 0 -29 20 -29 62 -1 72 12 5 47 4 79 -1
51 -8 63 -7 92 10 18 10 33 24 33 30 0 10 -115 113 -127 113 -4 0 -10 -5 -13
-10z"/>
<path d="M2826 2162 c-2 -4 11 -6 30 -4 19 2 34 6 34 8 0 8 -59 4 -64 -4z"/>
<path d="M2741 2144 c0 -11 3 -14 6 -6 3 7 2 16 -1 19 -3 4 -6 -2 -5 -13z"/>
<path d="M2938 2153 c6 -2 18 -2 25 0 6 3 1 5 -13 5 -14 0 -19 -2 -12 -5z"/>
<path d="M2828 2118 c6 -6 18 -8 28 -6 14 3 12 5 -9 10 -19 3 -25 2 -19 -4z"/>
<path d="M2807 2049 c7 -7 15 -10 18 -7 3 3 -2 9 -12 12 -14 6 -15 5 -6 -5z"/>
<path d="M5918 9473 c6 -2 18 -2 25 0 6 3 1 5 -13 5 -14 0 -19 -2 -12 -5z"/>
<path d="M11575 9369 c-4 -6 -5 -12 -2 -15 2 -3 7 2 10 11 7 17 1 20 -8 4z"/>
<path d="M11688 9289 c-21 -11 -38 -22 -38 -24 0 -3 18 4 40 15 22 11 40 23
40 25 0 7 0 7 -42 -16z"/>
<path d="M11729 9221 l-67 -36 29 -58 c16 -31 33 -57 37 -57 4 1 35 15 69 33
l61 32 -31 62 -32 61 -66 -37z"/>
<path d="M11823 9037 c-35 -17 -63 -34 -63 -38 0 -4 11 -32 25 -62 l26 -56 69
31 69 30 -25 57 c-14 31 -28 59 -32 62 -4 4 -35 -7 -69 -24z"/>
<path d="M10610 8150 c-8 -5 -10 -10 -5 -10 6 0 17 5 25 10 8 5 11 10 5 10 -5
0 -17 -5 -25 -10z"/>
<path d="M10560 8130 c-8 -5 -10 -10 -5 -10 6 0 17 5 25 10 8 5 11 10 5 10 -5
0 -17 -5 -25 -10z"/>
<path d="M10510 8110 c-8 -5 -10 -10 -5 -10 6 0 17 5 25 10 8 5 11 10 5 10 -5
0 -17 -5 -25 -10z"/>
<path d="M10370 8050 c-8 -5 -10 -10 -5 -10 6 0 17 5 25 10 8 5 11 10 5 10 -5
0 -17 -5 -25 -10z"/>
<path d="M10320 8030 c-8 -5 -10 -10 -5 -10 6 0 17 5 25 10 8 5 11 10 5 10 -5
0 -17 -5 -25 -10z"/>
<path d="M9401 7294 c0 -11 3 -14 6 -6 3 7 2 16 -1 19 -3 4 -6 -2 -5 -13z"/>
<path d="M8533 6633 c15 -2 39 -2 55 0 15 2 2 4 -28 4 -30 0 -43 -2 -27 -4z"/>
<path d="M8168 6273 c18 -2 45 -2 60 0 15 2 0 4 -33 4 -33 0 -45 -2 -27 -4z"/>
<path d="M8063 6263 c15 -2 37 -2 50 0 12 2 0 4 -28 4 -27 0 -38 -2 -22 -4z"/>
<path d="M7760 5950 c8 -5 20 -10 25 -10 6 0 3 5 -5 10 -8 5 -19 10 -25 10 -5
0 -3 -5 5 -10z"/>
<path d="M7810 5930 c8 -5 20 -10 25 -10 6 0 3 5 -5 10 -8 5 -19 10 -25 10 -5
0 -3 -5 5 -10z"/>
<path d="M5441 4164 c0 -11 3 -14 6 -6 3 7 2 16 -1 19 -3 4 -6 -2 -5 -13z"/>
<path d="M5421 4084 c0 -11 3 -14 6 -6 3 7 2 16 -1 19 -3 4 -6 -2 -5 -13z"/>
<path d="M5315 3950 c-55 -55 -106 -100 -112 -100 -7 0 -13 -4 -13 -9 0 -5 -8
-11 -17 -14 -19 -6 -75 -38 -83 -48 -9 -10 -45 -22 -60 -20 -8 2 -13 0 -10 -3
9 -9 228 -116 238 -116 4 0 40 80 79 178 63 158 89 232 81 232 -2 0 -48 -45
-103 -100z"/>
<path d="M4970 3786 c0 -3 9 -10 20 -16 11 -6 20 -8 20 -6 0 3 -9 10 -20 16
-11 6 -20 8 -20 6z"/>
<path d="M7700 5910 c8 -5 20 -10 25 -10 6 0 3 5 -5 10 -8 5 -19 10 -25 10 -5
0 -3 -5 5 -10z"/>
<path d="M7750 5890 c8 -5 20 -10 25 -10 6 0 3 5 -5 10 -8 5 -19 10 -25 10 -5
0 -3 -5 5 -10z"/>
<path d="M6946 5357 c3 -10 9 -15 12 -12 3 3 0 11 -7 18 -10 9 -11 8 -5 -6z"/>
<path d="M6960 5325 c0 -5 5 -17 10 -25 5 -8 10 -10 10 -5 0 6 -5 17 -10 25
-5 8 -10 11 -10 5z"/>
<path d="M6920 5265 c0 -5 5 -17 10 -25 5 -8 10 -10 10 -5 0 6 -5 17 -10 25
-5 8 -10 11 -10 5z"/>
<path d="M6673 5140 c0 -30 2 -43 4 -27 2 15 2 39 0 55 -2 15 -4 2 -4 -28z"/>
<path d="M2639 1997 c6 -8 7 -18 3 -22 -4 -5 -1 -5 6 -1 10 6 10 11 1 22 -6 8
-14 14 -16 14 -3 0 0 -6 6 -13z"/>
<path d="M2666 1885 c-25 -29 -46 -56 -46 -58 0 -3 23 -25 51 -48 l52 -43 29
34 c16 19 38 47 48 61 l19 25 -53 42 -53 41 -47 -54z"/>
<path d="M2834 1763 c-21 -27 -42 -53 -47 -60 -5 -8 10 -25 46 -52 30 -23 56
-41 59 -41 7 0 91 120 87 124 -2 1 -22 16 -44 32 -22 17 -45 34 -52 37 -7 4
-27 -12 -49 -40z"/>
</g>
</svg>
