<svg xmlns="http://www.w3.org/2000/svg" width="128" height="128" viewBox="0 0 32 32"><g fill="none"><g filter="url(#f2294idk)"><path fill="url(#f2294idf)" d="M17.375 11.66c-.2-.02-.4-.04-.6-.08c-1.24-.22-2.4-.78-3.34-1.64c-2.74-2.11-6.01-4.77-7.68-7.78h-.35c-1.45 0-2.36 1.56-1.65 2.82c1.32 2.33 3.18 4.31 5.42 5.77c.76.59 4.546 2.869 5.506 2.869l2.694-1.959Z"/><path fill="url(#f2294idg)" d="M17.375 11.66c-.2-.02-.4-.04-.6-.08c-1.24-.22-2.4-.78-3.34-1.64c-2.74-2.11-6.01-4.77-7.68-7.78h-.35c-1.45 0-2.36 1.56-1.65 2.82c1.32 2.33 3.18 4.31 5.42 5.77c.76.59 4.546 2.869 5.506 2.869l2.694-1.959Z"/></g><path fill="url(#f2294id0)" d="m16.205 7.37l.176 1.239l-1.563 1.195L9.797 2.15h2.178c.67 0 1.29.35 1.62.93l2.61 4.29Z"/><path fill="url(#f2294id1)" d="m19.282 8.656l-1.67 3.014h2.643c.97 0-.76 1.226 0 .636c2.457-1.03 6.77-4.986 8.08-7.316c.72-1.27-.2-2.83-1.64-2.83h-.35c-2.192 2.29-4.725 4.585-7.063 6.496Z"/><path fill="url(#f2294id2)" d="M16.015 11.629c-.097.012-.194.021-.29.031l-.2.24l.21-.327a6.66 6.66 0 0 1-3.3-1.633c-2.74-2.11-5.218-4.78-6.888-7.79h4.388l6.08 9.479Z"/><path fill="url(#f2294id3)" d="M16.015 11.629c-.097.012-.194.021-.29.031l-.2.24l.21-.327a6.66 6.66 0 0 1-3.3-1.633c-2.74-2.11-5.218-4.78-6.888-7.79h4.388l6.08 9.479Z"/><path fill="url(#f2294id4)" d="m16.609 10.211l.18 1.27a6.645 6.645 0 0 0 2.876-1.54c2.74-2.11 5.01-4.77 6.68-7.78h-4.57l-5.166 8.05Z"/><path fill="url(#f2294id5)" d="m16.609 10.211l.18 1.27a6.645 6.645 0 0 0 2.876-1.54c2.74-2.11 5.01-4.77 6.68-7.78h-4.57l-5.166 8.05Z"/><path fill="url(#f2294id6)" d="M16.421 11.66h-.046l.2.24l-.154-.24Z"/><path fill="url(#f2294id7)" d="M16.421 11.66h-.046l.2.24l-.154-.24Z"/><path fill="url(#f2294id8)" d="M22.155 2.16h-2.04c-.67 0-1.28.35-1.62.93l-5.22 8.58h2.78l6.1-9.51Z"/><path fill="url(#f2294id9)" d="M22.155 2.16h-2.04c-.67 0-1.28.35-1.62.93l-5.22 8.58h2.78l6.1-9.51Z"/><path fill="url(#f2294ida)" d="M16.037 30.094c5.545 0 10.04-4.607 10.04-10.29c0-5.683-4.495-10.29-10.04-10.29c-5.545 0-10.04 4.607-10.04 10.29c0 5.683 4.495 10.29 10.04 10.29Z"/><path fill="url(#f2294idb)" d="M16.037 30.094c5.545 0 10.04-4.607 10.04-10.29c0-5.683-4.495-10.29-10.04-10.29c-5.545 0-10.04 4.607-10.04 10.29c0 5.683 4.495 10.29 10.04 10.29Z"/><path fill="url(#f2294idc)" d="M16.037 28.244c4.545 0 8.23-3.779 8.23-8.44s-3.685-8.44-8.23-8.44s-8.23 3.779-8.23 8.44c0 4.662 3.685 8.44 8.23 8.44Z"/><path fill="url(#f2294idh)" d="M16.037 28.244c4.545 0 8.23-3.779 8.23-8.44s-3.685-8.44-8.23-8.44s-8.23 3.779-8.23 8.44c0 4.662 3.685 8.44 8.23 8.44Z"/><path fill="url(#f2294idi)" d="M16.037 28.244c4.545 0 8.23-3.779 8.23-8.44s-3.685-8.44-8.23-8.44s-8.23 3.779-8.23 8.44c0 4.662 3.685 8.44 8.23 8.44Z"/><path fill="url(#f2294idd)" d="M16.047 28.854c-2.36 0-4.58-.94-6.24-2.65a9.098 9.098 0 0 1-2.59-6.4c0-2.42.92-4.69 2.59-6.4a8.69 8.69 0 0 1 12.49 0c3.44 3.53 3.44 9.27 0 12.8c-1.68 1.71-3.9 2.65-6.25 2.65Zm-.01-16.87c-1.95 0-3.91.76-5.39 2.29a7.872 7.872 0 0 0-2.23 5.53c0 2.09.79 4.05 2.23 5.53a7.476 7.476 0 0 0 5.39 2.29c2.04 0 3.95-.81 5.39-2.29c2.97-3.05 2.97-8.01 0-11.06a7.46 7.46 0 0 0-5.39-2.29Z"/><g filter="url(#f2294idl)"><path fill="url(#f2294ide)" d="m16.647 15.754l.83 1.72c.1.2.29.35.51.38l1.85.28c.55.08.78.78.37 1.18l-1.28 1.28c-.19.19-.25.47-.17.73l.59 1.71c.2.57-.36 1.11-.91.87l-2.14-.96a.638.638 0 0 0-.54 0l-2.14.96c-.54.24-1.11-.3-.91-.87l.59-1.71c.09-.26.02-.54-.17-.73l-1.28-1.28c-.4-.4-.18-1.1.37-1.18l1.85-.28c.22-.03.41-.17.51-.38l.83-1.72c.27-.52.99-.52 1.24 0Z"/><path fill="url(#f2294idj)" d="m16.647 15.754l.83 1.72c.1.2.29.35.51.38l1.85.28c.55.08.78.78.37 1.18l-1.28 1.28c-.19.19-.25.47-.17.73l.59 1.71c.2.57-.36 1.11-.91.87l-2.14-.96a.638.638 0 0 0-.54 0l-2.14.96c-.54.24-1.11-.3-.91-.87l.59-1.71c.09-.26.02-.54-.17-.73l-1.28-1.28c-.4-.4-.18-1.1.37-1.18l1.85-.28c.22-.03.41-.17.51-.38l.83-1.72c.27-.52.99-.52 1.24 0Z"/></g><defs><linearGradient id="f2294id0" x1="11.324" x2="16.381" y1="2.15" y2="9.804" gradientUnits="userSpaceOnUse"><stop stop-color="#F53F56"/><stop offset="1" stop-color="#EA3586"/></linearGradient><linearGradient id="f2294id1" x1="25.661" x2="25.148" y1="3.874" y2="10.387" gradientUnits="userSpaceOnUse"><stop stop-color="#FD4058"/><stop offset="1" stop-color="#F62E9E"/></linearGradient><linearGradient id="f2294id2" x1="13.307" x2="7.764" y1="2.996" y2="11.7" gradientUnits="userSpaceOnUse"><stop stop-color="#E3D4F3"/><stop offset="1" stop-color="#E3C2F5"/></linearGradient><linearGradient id="f2294id3" x1="13.91" x2="13.91" y1="1.811" y2="3.47" gradientUnits="userSpaceOnUse"><stop stop-color="#D3CCD9"/><stop offset="1" stop-color="#D3CCD9" stop-opacity="0"/></linearGradient><linearGradient id="f2294id4" x1="23.49" x2="17.766" y1="3.005" y2="11.255" gradientUnits="userSpaceOnUse"><stop stop-color="#E3D4F3"/><stop offset="1" stop-color="#E3C2F5"/></linearGradient><linearGradient id="f2294id5" x1="24.042" x2="24.042" y1="1.821" y2="3.479" gradientUnits="userSpaceOnUse"><stop stop-color="#D3CCD9"/><stop offset="1" stop-color="#D3CCD9" stop-opacity="0"/></linearGradient><linearGradient id="f2294id6" x1="23.49" x2="17.766" y1="3.005" y2="11.255" gradientUnits="userSpaceOnUse"><stop stop-color="#E3D4F3"/><stop offset="1" stop-color="#E3C2F5"/></linearGradient><linearGradient id="f2294id7" x1="24.042" x2="24.042" y1="1.821" y2="3.479" gradientUnits="userSpaceOnUse"><stop stop-color="#D3CCD9"/><stop offset="1" stop-color="#D3CCD9" stop-opacity="0"/></linearGradient><linearGradient id="f2294id8" x1="20.93" x2="16.305" y1="2.713" y2="10.838" gradientUnits="userSpaceOnUse"><stop stop-color="#3EA0F4"/><stop offset="1" stop-color="#437EE0"/></linearGradient><linearGradient id="f2294id9" x1="15.093" x2="16.047" y1="7.318" y2="7.954" gradientUnits="userSpaceOnUse"><stop stop-color="#6C65C0"/><stop offset="1" stop-color="#6C65C0" stop-opacity="0"/></linearGradient><linearGradient id="f2294ida" x1="21.404" x2="13.341" y1="16.157" y2="29.782" gradientUnits="userSpaceOnUse"><stop stop-color="#F4C654"/><stop offset="1" stop-color="#DC9729"/></linearGradient><linearGradient id="f2294idb" x1="12.529" x2="14.904" y1="30.594" y2="17.157" gradientUnits="userSpaceOnUse"><stop stop-color="#FA8547"/><stop offset="1" stop-color="#FA8547" stop-opacity="0"/></linearGradient><linearGradient id="f2294idc" x1="12.232" x2="24.509" y1="18.734" y2="18.734" gradientUnits="userSpaceOnUse"><stop stop-color="#FAA945"/><stop offset="1" stop-color="#EC9936"/></linearGradient><linearGradient id="f2294idd" x1="24.092" x2="16.047" y1="18.224" y2="18.224" gradientUnits="userSpaceOnUse"><stop stop-color="#F9A842"/><stop offset="1" stop-color="#FAA742"/><stop offset="1" stop-color="#FAA742"/></linearGradient><linearGradient id="f2294ide" x1="15.082" x2="18.4" y1="19.075" y2="24.242" gradientUnits="userSpaceOnUse"><stop stop-color="#864B60"/><stop offset="1" stop-color="#5D3247"/></linearGradient><radialGradient id="f2294idf" cx="0" cy="0" r="1" gradientTransform="rotate(124.323 3.672 5.69) scale(6.48778 12.8773)" gradientUnits="userSpaceOnUse"><stop offset=".361" stop-color="#3FA0F7"/><stop offset="1" stop-color="#2F60C2"/></radialGradient><radialGradient id="f2294idg" cx="0" cy="0" r="1" gradientTransform="matrix(0 -3.22394 3.90129 0 10.734 12.268)" gradientUnits="userSpaceOnUse"><stop stop-color="#3258BF"/><stop offset="1" stop-color="#3258BF" stop-opacity="0"/></radialGradient><radialGradient id="f2294idh" cx="0" cy="0" r="1" gradientTransform="matrix(-10.9797 0 0 -9.59463 19.228 19.804)" gradientUnits="userSpaceOnUse"><stop offset=".844" stop-color="#F7B44D" stop-opacity="0"/><stop offset="1" stop-color="#F7B44D"/></radialGradient><radialGradient id="f2294idi" cx="0" cy="0" r="1" gradientTransform="matrix(10.3667 0 0 9.34393 13.9 19.804)" gradientUnits="userSpaceOnUse"><stop offset=".826" stop-color="#D2801F" stop-opacity="0"/><stop offset="1" stop-color="#D2801F"/></radialGradient><radialGradient id="f2294idj" cx="0" cy="0" r="1" gradientTransform="rotate(130.746 5.327 12.672) scale(2.68113 3.65655)" gradientUnits="userSpaceOnUse"><stop offset=".201" stop-color="#602543"/><stop offset="1" stop-color="#602543" stop-opacity="0"/></radialGradient><filter id="f2294idk" width="14.016" height="11.609" x="3.509" y="2.01" color-interpolation-filters="sRGB" filterUnits="userSpaceOnUse"><feFlood flood-opacity="0" result="BackgroundImageFix"/><feBlend in="SourceGraphic" in2="BackgroundImageFix" result="shape"/><feColorMatrix in="SourceAlpha" result="hardAlpha" values="0 0 0 0 0 0 0 0 0 0 0 0 0 0 0 0 0 0 127 0"/><feOffset dx=".15" dy="-.15"/><feGaussianBlur stdDeviation=".25"/><feComposite in2="hardAlpha" k2="-1" k3="1" operator="arithmetic"/><feColorMatrix values="0 0 0 0 0.254902 0 0 0 0 0.329412 0 0 0 0 0.729412 0 0 0 1 0"/><feBlend in2="shape" result="effect1_innerShadow_18_1461"/></filter><filter id="f2294idl" width="9.224" height="8.899" x="11.342" y="15.064" color-interpolation-filters="sRGB" filterUnits="userSpaceOnUse"><feFlood flood-opacity="0" result="BackgroundImageFix"/><feBlend in="SourceGraphic" in2="BackgroundImageFix" result="shape"/><feColorMatrix in="SourceAlpha" result="hardAlpha" values="0 0 0 0 0 0 0 0 0 0 0 0 0 0 0 0 0 0 127 0"/><feOffset dx="-.3" dy="-.3"/><feGaussianBlur stdDeviation=".375"/><feComposite in2="hardAlpha" k2="-1" k3="1" operator="arithmetic"/><feColorMatrix values="0 0 0 0 0.290196 0 0 0 0 0.14902 0 0 0 0 0.14902 0 0 0 1 0"/><feBlend in2="shape" result="effect1_innerShadow_18_1461"/><feColorMatrix in="SourceAlpha" result="hardAlpha" values="0 0 0 0 0 0 0 0 0 0 0 0 0 0 0 0 0 0 127 0"/><feOffset dx=".2" dy="-.2"/><feGaussianBlur stdDeviation=".075"/><feComposite in2="hardAlpha" k2="-1" k3="1" operator="arithmetic"/><feColorMatrix values="0 0 0 0 0.517647 0 0 0 0 0.372549 0 0 0 0 0.34902 0 0 0 1 0"/><feBlend in2="effect1_innerShadow_18_1461" result="effect2_innerShadow_18_1461"/></filter></defs></g></svg>