<svg xmlns="http://www.w3.org/2000/svg" width="128" height="128" viewBox="0 0 32 32"><g fill="none"><rect width="19.828" height="27.769" x="10.117" y="2.609" fill="url(#f1379id0)" rx="2.6"/><rect width="19.828" height="27.769" x="10.117" y="2.609" fill="url(#f1379id1)" rx="2.6"/><g filter="url(#f1379idg)"><path fill="#FF9544" d="M13.272 9.616c0-.33.267-.597.596-.597h2.101c.33 0 .597.267.597.597v2.1c0 .33-.267.598-.597.598h-2.1a.597.597 0 0 1-.597-.597V9.616Z"/><path fill="url(#f1379id2)" d="M13.272 9.616c0-.33.267-.597.596-.597h2.101c.33 0 .597.267.597.597v2.1c0 .33-.267.598-.597.598h-2.1a.597.597 0 0 1-.597-.597V9.616Z"/></g><g filter="url(#f1379idh)"><path fill="#38C6FF" d="M18.384 9.616c0-.33.267-.597.597-.597h2.1c.33 0 .597.267.597.597v2.1c0 .33-.267.598-.596.598H18.98a.597.597 0 0 1-.597-.597V9.616Z"/></g><g filter="url(#f1379idi)"><path fill="#FFEC58" d="M23.497 9.616c0-.33.267-.597.596-.597h2.101c.33 0 .597.267.597.597v2.1c0 .33-.267.598-.597.598h-2.1a.597.597 0 0 1-.597-.597V9.616Z"/></g><g filter="url(#f1379idj)"><path fill="#38C6FF" d="M13.272 15.443c0-.33.267-.596.596-.596h2.101c.33 0 .597.267.597.596v2.101c0 .33-.267.597-.597.597h-2.1a.597.597 0 0 1-.597-.597v-2.1Z"/></g><g filter="url(#f1379idk)"><path fill="#FF9544" d="M13.272 21.27c0-.329.267-.596.596-.596h2.101c.33 0 .597.267.597.596v2.102a.596.596 0 0 1-.597.596h-2.1a.597.597 0 0 1-.597-.596V21.27Z"/><path fill="url(#f1379id3)" d="M13.272 21.27c0-.329.267-.596.596-.596h2.101c.33 0 .597.267.597.596v2.102a.596.596 0 0 1-.597.596h-2.1a.597.597 0 0 1-.597-.596V21.27Z"/></g><g filter="url(#f1379idl)"><path fill="#FFEC58" d="M18.384 15.443c0-.33.267-.596.597-.596h2.1c.33 0 .597.267.597.596v2.101c0 .33-.267.597-.596.597H18.98a.597.597 0 0 1-.597-.597v-2.1Z"/></g><g filter="url(#f1379idm)"><path fill="#38C6FF" d="M18.384 21.27c0-.329.267-.596.597-.596h2.1c.33 0 .597.267.597.596v2.102a.596.596 0 0 1-.596.596H18.98a.597.597 0 0 1-.597-.596V21.27Z"/></g><g filter="url(#f1379idn)"><path fill="#FF9544" d="M23.497 15.443c0-.33.267-.596.596-.596h2.101c.33 0 .597.267.597.596v2.101c0 .33-.267.597-.597.597h-2.1a.597.597 0 0 1-.597-.597v-2.1Z"/><path fill="url(#f1379id4)" d="M23.497 15.443c0-.33.267-.596.596-.596h2.101c.33 0 .597.267.597.596v2.101c0 .33-.267.597-.597.597h-2.1a.597.597 0 0 1-.597-.597v-2.1Z"/></g><g filter="url(#f1379ido)"><path fill="#FFEC58" d="M23.497 21.27c0-.329.267-.596.596-.596h2.101c.33 0 .597.267.597.596v2.102a.596.596 0 0 1-.597.596h-2.1a.597.597 0 0 1-.597-.596V21.27Z"/></g><g filter="url(#f1379idp)"><path fill="url(#f1379id5)" d="M27.677 6.152H29.2v21.724h-1.523z"/></g><g filter="url(#f1379idq)"><path fill="url(#f1379id6)" d="M29.945 6.712H10.117V5.195a2.586 2.586 0 0 1 2.586-2.586H27.36a2.586 2.586 0 0 1 2.585 2.586v1.517Z"/><path fill="url(#f1379id7)" d="M29.945 6.712H10.117V5.195a2.586 2.586 0 0 1 2.586-2.586H27.36a2.586 2.586 0 0 1 2.585 2.586v1.517Z"/><path fill="url(#f1379id8)" d="M29.945 6.712H10.117V5.195a2.586 2.586 0 0 1 2.586-2.586H27.36a2.586 2.586 0 0 1 2.585 2.586v1.517Z"/><path fill="url(#f1379id9)" d="M29.945 6.712H10.117V5.195a2.586 2.586 0 0 1 2.586-2.586H27.36a2.586 2.586 0 0 1 2.585 2.586v1.517Z"/><path fill="url(#f1379ids)" d="M29.945 6.712H10.117V5.195a2.586 2.586 0 0 1 2.586-2.586H27.36a2.586 2.586 0 0 1 2.585 2.586v1.517Z"/></g><path fill="url(#f1379ida)" d="M29.945 26.323v1.47a2.586 2.586 0 0 1-2.585 2.585H12.703a2.586 2.586 0 0 1-2.586-2.585v-1.47h19.828Z"/><path fill="url(#f1379idb)" d="M29.945 26.323v1.47a2.586 2.586 0 0 1-2.585 2.585H12.703a2.586 2.586 0 0 1-2.586-2.585v-1.47h19.828Z"/><path fill="url(#f1379idt)" d="M29.945 26.323v1.47a2.586 2.586 0 0 1-2.585 2.585H12.703a2.586 2.586 0 0 1-2.586-2.585v-1.47h19.828Z"/><path fill="url(#f1379idc)" d="M29.945 26.323v1.47a2.586 2.586 0 0 1-2.585 2.585H12.703a2.586 2.586 0 0 1-2.586-2.585v-1.47h19.828Z"/><g filter="url(#f1379idr)"><path fill="url(#f1379idd)" d="M7.049 10.888a.6.6 0 0 0-1.002.445v2.16a.5.5 0 0 1-.5.5H3.094a1 1 0 0 0-1 1v2.077a1 1 0 0 0 1 1h2.453a.5.5 0 0 1 .5.5v2.097a.6.6 0 0 0 1.002.445l5.052-4.555a.75.75 0 0 0 0-1.114l-5.052-4.555Z"/><path fill="url(#f1379ide)" d="M7.049 10.888a.6.6 0 0 0-1.002.445v2.16a.5.5 0 0 1-.5.5H3.094a1 1 0 0 0-1 1v2.077a1 1 0 0 0 1 1h2.453a.5.5 0 0 1 .5.5v2.097a.6.6 0 0 0 1.002.445l5.052-4.555a.75.75 0 0 0 0-1.114l-5.052-4.555Z"/><path fill="url(#f1379idf)" d="M7.049 10.888a.6.6 0 0 0-1.002.445v2.16a.5.5 0 0 1-.5.5H3.094a1 1 0 0 0-1 1v2.077a1 1 0 0 0 1 1h2.453a.5.5 0 0 1 .5.5v2.097a.6.6 0 0 0 1.002.445l5.052-4.555a.75.75 0 0 0 0-1.114l-5.052-4.555Z"/></g><defs><linearGradient id="f1379id0" x1="20.031" x2="20.031" y1="7.986" y2="26.447" gradientUnits="userSpaceOnUse"><stop stop-color="#62326D"/><stop offset="1" stop-color="#434486"/></linearGradient><linearGradient id="f1379id1" x1="10.117" x2="12.417" y1="22.282" y2="22.344" gradientUnits="userSpaceOnUse"><stop offset=".031" stop-color="#412C4C"/><stop offset="1" stop-color="#412C4C" stop-opacity="0"/></linearGradient><linearGradient id="f1379id2" x1="13.427" x2="14.468" y1="11.482" y2="11.482" gradientUnits="userSpaceOnUse"><stop offset=".333" stop-color="#FF945C"/><stop offset="1" stop-color="#FF945C" stop-opacity="0"/></linearGradient><linearGradient id="f1379id3" x1="13.427" x2="14.468" y1="23.137" y2="23.137" gradientUnits="userSpaceOnUse"><stop offset=".333" stop-color="#FF945C"/><stop offset="1" stop-color="#FF945C" stop-opacity="0"/></linearGradient><linearGradient id="f1379id4" x1="23.652" x2="24.693" y1="17.31" y2="17.31" gradientUnits="userSpaceOnUse"><stop offset=".333" stop-color="#FF945C"/><stop offset="1" stop-color="#FF945C" stop-opacity="0"/></linearGradient><linearGradient id="f1379id5" x1="28.438" x2="28.438" y1="6.152" y2="27.876" gradientUnits="userSpaceOnUse"><stop stop-color="#674876"/><stop offset="1" stop-color="#555187"/></linearGradient><linearGradient id="f1379id6" x1="20.031" x2="20.031" y1="2.609" y2="6.712" gradientUnits="userSpaceOnUse"><stop stop-color="#636AB6"/><stop offset="1" stop-color="#6C6EBE"/></linearGradient><linearGradient id="f1379id7" x1="21.181" x2="21.181" y1="6.867" y2="6.183" gradientUnits="userSpaceOnUse"><stop stop-color="#6062B1"/><stop offset="1" stop-color="#6062B1" stop-opacity="0"/></linearGradient><linearGradient id="f1379id8" x1="10.117" x2="13.318" y1="6.712" y2="6.712" gradientUnits="userSpaceOnUse"><stop offset=".136" stop-color="#484B86"/><stop offset="1" stop-color="#5E61AD" stop-opacity="0"/></linearGradient><linearGradient id="f1379id9" x1="29.945" x2="27.024" y1="6.712" y2="6.712" gradientUnits="userSpaceOnUse"><stop offset=".128" stop-color="#7277C8"/><stop offset="1" stop-color="#7277C8" stop-opacity="0"/></linearGradient><linearGradient id="f1379ida" x1="20.031" x2="20.031" y1="26.323" y2="30.378" gradientUnits="userSpaceOnUse"><stop stop-color="#6B4390"/><stop offset="1" stop-color="#76509E"/></linearGradient><linearGradient id="f1379idb" x1="10.117" x2="12.51" y1="27.566" y2="27.566" gradientUnits="userSpaceOnUse"><stop offset=".164" stop-color="#4F3D6C"/><stop offset="1" stop-color="#6E4693" stop-opacity="0"/></linearGradient><linearGradient id="f1379idc" x1="19.72" x2="19.72" y1="26.043" y2="26.633" gradientUnits="userSpaceOnUse"><stop offset=".158" stop-color="#5E3D7F"/><stop offset="1" stop-color="#5E3D7F" stop-opacity="0"/></linearGradient><linearGradient id="f1379idd" x1="11.75" x2="2.094" y1="16.484" y2="16.484" gradientUnits="userSpaceOnUse"><stop stop-color="#44C0FF"/><stop offset="1" stop-color="#38B5FF"/></linearGradient><linearGradient id="f1379ide" x1="10.094" x2="9.344" y1="13.766" y2="14.547" gradientUnits="userSpaceOnUse"><stop offset=".261" stop-color="#49C4FF"/><stop offset="1" stop-color="#49C4FF" stop-opacity="0"/></linearGradient><linearGradient id="f1379idf" x1="9.406" x2="9.063" y1="19.109" y2="18.75" gradientUnits="userSpaceOnUse"><stop stop-color="#2AACFA"/><stop offset="1" stop-color="#2AACFA" stop-opacity="0"/></linearGradient><filter id="f1379idg" width="3.894" height="3.894" x="12.972" y="8.719" color-interpolation-filters="sRGB" filterUnits="userSpaceOnUse"><feFlood flood-opacity="0" result="BackgroundImageFix"/><feBlend in="SourceGraphic" in2="BackgroundImageFix" result="shape"/><feColorMatrix in="SourceAlpha" result="hardAlpha" values="0 0 0 0 0 0 0 0 0 0 0 0 0 0 0 0 0 0 127 0"/><feOffset dx="-.3" dy="-.3"/><feGaussianBlur stdDeviation=".2"/><feComposite in2="hardAlpha" k2="-1" k3="1" operator="arithmetic"/><feColorMatrix values="0 0 0 0 0.913725 0 0 0 0 0.384314 0 0 0 0 0.129412 0 0 0 1 0"/><feBlend in2="shape" result="effect1_innerShadow_18_19091"/><feColorMatrix in="SourceAlpha" result="hardAlpha" values="0 0 0 0 0 0 0 0 0 0 0 0 0 0 0 0 0 0 127 0"/><feOffset dx=".3" dy=".3"/><feGaussianBlur stdDeviation=".2"/><feComposite in2="hardAlpha" k2="-1" k3="1" operator="arithmetic"/><feColorMatrix values="0 0 0 0 1 0 0 0 0 0.498039 0 0 0 0 0.160784 0 0 0 1 0"/><feBlend in2="effect1_innerShadow_18_19091" result="effect2_innerShadow_18_19091"/></filter><filter id="f1379idh" width="3.894" height="3.894" x="18.084" y="8.719" color-interpolation-filters="sRGB" filterUnits="userSpaceOnUse"><feFlood flood-opacity="0" result="BackgroundImageFix"/><feBlend in="SourceGraphic" in2="BackgroundImageFix" result="shape"/><feColorMatrix in="SourceAlpha" result="hardAlpha" values="0 0 0 0 0 0 0 0 0 0 0 0 0 0 0 0 0 0 127 0"/><feOffset dx="-.3" dy="-.3"/><feGaussianBlur stdDeviation=".25"/><feComposite in2="hardAlpha" k2="-1" k3="1" operator="arithmetic"/><feColorMatrix values="0 0 0 0 0.0980392 0 0 0 0 0.572549 0 0 0 0 0.866667 0 0 0 1 0"/><feBlend in2="shape" result="effect1_innerShadow_18_19091"/><feColorMatrix in="SourceAlpha" result="hardAlpha" values="0 0 0 0 0 0 0 0 0 0 0 0 0 0 0 0 0 0 127 0"/><feOffset dx=".3" dy=".3"/><feGaussianBlur stdDeviation=".2"/><feComposite in2="hardAlpha" k2="-1" k3="1" operator="arithmetic"/><feColorMatrix values="0 0 0 0 0.0745098 0 0 0 0 0.709804 0 0 0 0 1 0 0 0 1 0"/><feBlend in2="effect1_innerShadow_18_19091" result="effect2_innerShadow_18_19091"/></filter><filter id="f1379idi" width="3.894" height="3.894" x="23.197" y="8.719" color-interpolation-filters="sRGB" filterUnits="userSpaceOnUse"><feFlood flood-opacity="0" result="BackgroundImageFix"/><feBlend in="SourceGraphic" in2="BackgroundImageFix" result="shape"/><feColorMatrix in="SourceAlpha" result="hardAlpha" values="0 0 0 0 0 0 0 0 0 0 0 0 0 0 0 0 0 0 127 0"/><feOffset dx="-.3" dy="-.3"/><feGaussianBlur stdDeviation=".25"/><feComposite in2="hardAlpha" k2="-1" k3="1" operator="arithmetic"/><feColorMatrix values="0 0 0 0 0.858824 0 0 0 0 0.752941 0 0 0 0 0.188235 0 0 0 1 0"/><feBlend in2="shape" result="effect1_innerShadow_18_19091"/><feColorMatrix in="SourceAlpha" result="hardAlpha" values="0 0 0 0 0 0 0 0 0 0 0 0 0 0 0 0 0 0 127 0"/><feOffset dx=".3" dy=".3"/><feGaussianBlur stdDeviation=".2"/><feComposite in2="hardAlpha" k2="-1" k3="1" operator="arithmetic"/><feColorMatrix values="0 0 0 0 0.968627 0 0 0 0 0.858824 0 0 0 0 0.223529 0 0 0 1 0"/><feBlend in2="effect1_innerShadow_18_19091" result="effect2_innerShadow_18_19091"/></filter><filter id="f1379idj" width="3.894" height="3.894" x="12.972" y="14.547" color-interpolation-filters="sRGB" filterUnits="userSpaceOnUse"><feFlood flood-opacity="0" result="BackgroundImageFix"/><feBlend in="SourceGraphic" in2="BackgroundImageFix" result="shape"/><feColorMatrix in="SourceAlpha" result="hardAlpha" values="0 0 0 0 0 0 0 0 0 0 0 0 0 0 0 0 0 0 127 0"/><feOffset dx="-.3" dy="-.3"/><feGaussianBlur stdDeviation=".25"/><feComposite in2="hardAlpha" k2="-1" k3="1" operator="arithmetic"/><feColorMatrix values="0 0 0 0 0.0980392 0 0 0 0 0.572549 0 0 0 0 0.866667 0 0 0 1 0"/><feBlend in2="shape" result="effect1_innerShadow_18_19091"/><feColorMatrix in="SourceAlpha" result="hardAlpha" values="0 0 0 0 0 0 0 0 0 0 0 0 0 0 0 0 0 0 127 0"/><feOffset dx=".3" dy=".3"/><feGaussianBlur stdDeviation=".2"/><feComposite in2="hardAlpha" k2="-1" k3="1" operator="arithmetic"/><feColorMatrix values="0 0 0 0 0.0745098 0 0 0 0 0.709804 0 0 0 0 1 0 0 0 1 0"/><feBlend in2="effect1_innerShadow_18_19091" result="effect2_innerShadow_18_19091"/></filter><filter id="f1379idk" width="3.894" height="3.894" x="12.972" y="20.374" color-interpolation-filters="sRGB" filterUnits="userSpaceOnUse"><feFlood flood-opacity="0" result="BackgroundImageFix"/><feBlend in="SourceGraphic" in2="BackgroundImageFix" result="shape"/><feColorMatrix in="SourceAlpha" result="hardAlpha" values="0 0 0 0 0 0 0 0 0 0 0 0 0 0 0 0 0 0 127 0"/><feOffset dx="-.3" dy="-.3"/><feGaussianBlur stdDeviation=".2"/><feComposite in2="hardAlpha" k2="-1" k3="1" operator="arithmetic"/><feColorMatrix values="0 0 0 0 0.913725 0 0 0 0 0.384314 0 0 0 0 0.129412 0 0 0 1 0"/><feBlend in2="shape" result="effect1_innerShadow_18_19091"/><feColorMatrix in="SourceAlpha" result="hardAlpha" values="0 0 0 0 0 0 0 0 0 0 0 0 0 0 0 0 0 0 127 0"/><feOffset dx=".3" dy=".3"/><feGaussianBlur stdDeviation=".2"/><feComposite in2="hardAlpha" k2="-1" k3="1" operator="arithmetic"/><feColorMatrix values="0 0 0 0 1 0 0 0 0 0.498039 0 0 0 0 0.160784 0 0 0 1 0"/><feBlend in2="effect1_innerShadow_18_19091" result="effect2_innerShadow_18_19091"/></filter><filter id="f1379idl" width="3.894" height="3.894" x="18.084" y="14.547" color-interpolation-filters="sRGB" filterUnits="userSpaceOnUse"><feFlood flood-opacity="0" result="BackgroundImageFix"/><feBlend in="SourceGraphic" in2="BackgroundImageFix" result="shape"/><feColorMatrix in="SourceAlpha" result="hardAlpha" values="0 0 0 0 0 0 0 0 0 0 0 0 0 0 0 0 0 0 127 0"/><feOffset dx="-.3" dy="-.3"/><feGaussianBlur stdDeviation=".25"/><feComposite in2="hardAlpha" k2="-1" k3="1" operator="arithmetic"/><feColorMatrix values="0 0 0 0 0.858824 0 0 0 0 0.752941 0 0 0 0 0.188235 0 0 0 1 0"/><feBlend in2="shape" result="effect1_innerShadow_18_19091"/><feColorMatrix in="SourceAlpha" result="hardAlpha" values="0 0 0 0 0 0 0 0 0 0 0 0 0 0 0 0 0 0 127 0"/><feOffset dx=".3" dy=".3"/><feGaussianBlur stdDeviation=".2"/><feComposite in2="hardAlpha" k2="-1" k3="1" operator="arithmetic"/><feColorMatrix values="0 0 0 0 0.968627 0 0 0 0 0.858824 0 0 0 0 0.223529 0 0 0 1 0"/><feBlend in2="effect1_innerShadow_18_19091" result="effect2_innerShadow_18_19091"/></filter><filter id="f1379idm" width="3.894" height="3.894" x="18.084" y="20.374" color-interpolation-filters="sRGB" filterUnits="userSpaceOnUse"><feFlood flood-opacity="0" result="BackgroundImageFix"/><feBlend in="SourceGraphic" in2="BackgroundImageFix" result="shape"/><feColorMatrix in="SourceAlpha" result="hardAlpha" values="0 0 0 0 0 0 0 0 0 0 0 0 0 0 0 0 0 0 127 0"/><feOffset dx="-.3" dy="-.3"/><feGaussianBlur stdDeviation=".25"/><feComposite in2="hardAlpha" k2="-1" k3="1" operator="arithmetic"/><feColorMatrix values="0 0 0 0 0.0980392 0 0 0 0 0.572549 0 0 0 0 0.866667 0 0 0 1 0"/><feBlend in2="shape" result="effect1_innerShadow_18_19091"/><feColorMatrix in="SourceAlpha" result="hardAlpha" values="0 0 0 0 0 0 0 0 0 0 0 0 0 0 0 0 0 0 127 0"/><feOffset dx=".3" dy=".3"/><feGaussianBlur stdDeviation=".2"/><feComposite in2="hardAlpha" k2="-1" k3="1" operator="arithmetic"/><feColorMatrix values="0 0 0 0 0.0745098 0 0 0 0 0.709804 0 0 0 0 1 0 0 0 1 0"/><feBlend in2="effect1_innerShadow_18_19091" result="effect2_innerShadow_18_19091"/></filter><filter id="f1379idn" width="3.894" height="3.894" x="23.197" y="14.547" color-interpolation-filters="sRGB" filterUnits="userSpaceOnUse"><feFlood flood-opacity="0" result="BackgroundImageFix"/><feBlend in="SourceGraphic" in2="BackgroundImageFix" result="shape"/><feColorMatrix in="SourceAlpha" result="hardAlpha" values="0 0 0 0 0 0 0 0 0 0 0 0 0 0 0 0 0 0 127 0"/><feOffset dx="-.3" dy="-.3"/><feGaussianBlur stdDeviation=".2"/><feComposite in2="hardAlpha" k2="-1" k3="1" operator="arithmetic"/><feColorMatrix values="0 0 0 0 0.913725 0 0 0 0 0.384314 0 0 0 0 0.129412 0 0 0 1 0"/><feBlend in2="shape" result="effect1_innerShadow_18_19091"/><feColorMatrix in="SourceAlpha" result="hardAlpha" values="0 0 0 0 0 0 0 0 0 0 0 0 0 0 0 0 0 0 127 0"/><feOffset dx=".3" dy=".3"/><feGaussianBlur stdDeviation=".2"/><feComposite in2="hardAlpha" k2="-1" k3="1" operator="arithmetic"/><feColorMatrix values="0 0 0 0 1 0 0 0 0 0.498039 0 0 0 0 0.160784 0 0 0 1 0"/><feBlend in2="effect1_innerShadow_18_19091" result="effect2_innerShadow_18_19091"/></filter><filter id="f1379ido" width="3.894" height="3.894" x="23.197" y="20.374" color-interpolation-filters="sRGB" filterUnits="userSpaceOnUse"><feFlood flood-opacity="0" result="BackgroundImageFix"/><feBlend in="SourceGraphic" in2="BackgroundImageFix" result="shape"/><feColorMatrix in="SourceAlpha" result="hardAlpha" values="0 0 0 0 0 0 0 0 0 0 0 0 0 0 0 0 0 0 127 0"/><feOffset dx="-.3" dy="-.3"/><feGaussianBlur stdDeviation=".25"/><feComposite in2="hardAlpha" k2="-1" k3="1" operator="arithmetic"/><feColorMatrix values="0 0 0 0 0.858824 0 0 0 0 0.752941 0 0 0 0 0.188235 0 0 0 1 0"/><feBlend in2="shape" result="effect1_innerShadow_18_19091"/><feColorMatrix in="SourceAlpha" result="hardAlpha" values="0 0 0 0 0 0 0 0 0 0 0 0 0 0 0 0 0 0 127 0"/><feOffset dx=".3" dy=".3"/><feGaussianBlur stdDeviation=".2"/><feComposite in2="hardAlpha" k2="-1" k3="1" operator="arithmetic"/><feColorMatrix values="0 0 0 0 0.968627 0 0 0 0 0.858824 0 0 0 0 0.223529 0 0 0 1 0"/><feBlend in2="effect1_innerShadow_18_19091" result="effect2_innerShadow_18_19091"/></filter><filter id="f1379idp" width="3.523" height="23.724" x="26.677" y="5.152" color-interpolation-filters="sRGB" filterUnits="userSpaceOnUse"><feFlood flood-opacity="0" result="BackgroundImageFix"/><feBlend in="SourceGraphic" in2="BackgroundImageFix" result="shape"/><feGaussianBlur result="effect1_foregroundBlur_18_19091" stdDeviation=".5"/></filter><filter id="f1379idq" width="19.828" height="4.202" x="10.117" y="2.609" color-interpolation-filters="sRGB" filterUnits="userSpaceOnUse"><feFlood flood-opacity="0" result="BackgroundImageFix"/><feBlend in="SourceGraphic" in2="BackgroundImageFix" result="shape"/><feColorMatrix in="SourceAlpha" result="hardAlpha" values="0 0 0 0 0 0 0 0 0 0 0 0 0 0 0 0 0 0 127 0"/><feOffset dy=".1"/><feGaussianBlur stdDeviation=".375"/><feComposite in2="hardAlpha" k2="-1" k3="1" operator="arithmetic"/><feColorMatrix values="0 0 0 0 0.380392 0 0 0 0 0.407843 0 0 0 0 0.666667 0 0 0 1 0"/><feBlend in2="shape" result="effect1_innerShadow_18_19091"/></filter><filter id="f1379idr" width="10.455" height="10.736" x="2.094" y="10.732" color-interpolation-filters="sRGB" filterUnits="userSpaceOnUse"><feFlood flood-opacity="0" result="BackgroundImageFix"/><feBlend in="SourceGraphic" in2="BackgroundImageFix" result="shape"/><feColorMatrix in="SourceAlpha" result="hardAlpha" values="0 0 0 0 0 0 0 0 0 0 0 0 0 0 0 0 0 0 127 0"/><feOffset dx=".2" dy=".2"/><feGaussianBlur stdDeviation=".3"/><feComposite in2="hardAlpha" k2="-1" k3="1" operator="arithmetic"/><feColorMatrix values="0 0 0 0 0.2 0 0 0 0 0.568627 0 0 0 0 0.811765 0 0 0 1 0"/><feBlend in2="shape" result="effect1_innerShadow_18_19091"/></filter><radialGradient id="f1379ids" cx="0" cy="0" r="1" gradientTransform="matrix(-.65265 0 0 -3.1545 29.945 6.432)" gradientUnits="userSpaceOnUse"><stop stop-color="#6C6FB4"/><stop offset="1" stop-color="#6C6FB4" stop-opacity="0"/></radialGradient><radialGradient id="f1379idt" cx="0" cy="0" r="1" gradientTransform="matrix(0 3.0768 -1.6161 0 28.298 25.98)" gradientUnits="userSpaceOnUse"><stop stop-color="#6B5094"/><stop offset="1" stop-color="#6B5094" stop-opacity="0"/></radialGradient></defs></g></svg>