<svg xmlns="http://www.w3.org/2000/svg" width="128" height="128" viewBox="0 0 32 32"><g fill="none"><path fill="url(#f174idh)" d="m22.499 28.752l-3.521-3.672h4.898v3.118c0 .721-.878 1.074-1.377.554Z"/><path fill="url(#f174idi)" d="m22.499 28.752l-3.521-3.672h4.898v3.118c0 .721-.878 1.074-1.377.554Z"/><path fill="url(#f174idu)" d="M30 18.179c-.322 4.59-1.916 7.886-6.662 7.886h-9.175c-2.407 0-4.371-1.253-5.126-3.16l-.327-.777c-.23-.581-.697-.698-1.32-.735c-2.915-.172-4.876-1.539-5.165-4.484c0-7.841 6.469-12.846 13.659-12.846A14.059 14.059 0 0 1 30 18.179Z"/><path fill="url(#f174idv)" d="M30 18.179c-.322 4.59-1.916 7.886-6.662 7.886h-9.175c-2.407 0-4.371-1.253-5.126-3.16l-.327-.777c-.23-.581-.697-.698-1.32-.735c-2.915-.172-4.876-1.539-5.165-4.484c0-7.841 6.469-12.846 13.659-12.846A14.059 14.059 0 0 1 30 18.179Z"/><path fill="url(#f174idw)" d="M30 18.179c-.322 4.59-1.916 7.886-6.662 7.886h-9.175c-2.407 0-4.371-1.253-5.126-3.16l-.327-.777c-.23-.581-.697-.698-1.32-.735c-2.915-.172-4.876-1.539-5.165-4.484c0-7.841 6.469-12.846 13.659-12.846A14.059 14.059 0 0 1 30 18.179Z"/><path fill="url(#f174idj)" d="M30 18.179c-.322 4.59-1.916 7.886-6.662 7.886h-9.175c-2.407 0-4.371-1.253-5.126-3.16l-.327-.777c-.23-.581-.697-.698-1.32-.735c-2.915-.172-4.876-1.539-5.165-4.484c0-7.841 6.469-12.846 13.659-12.846A14.059 14.059 0 0 1 30 18.179Z"/><path fill="url(#f174idx)" d="M30 18.179c-.322 4.59-1.916 7.886-6.662 7.886h-9.175c-2.407 0-4.371-1.253-5.126-3.16l-.327-.777c-.23-.581-.697-.698-1.32-.735c-2.915-.172-4.876-1.539-5.165-4.484c0-7.841 6.469-12.846 13.659-12.846A14.059 14.059 0 0 1 30 18.179Z"/><g filter="url(#f174id0)"><circle cx="18.627" cy="15.322" r=".445" stroke="url(#f174idk)" stroke-linecap="round"/></g><g stroke-linecap="round" stroke-width=".8" filter="url(#f174id1)"><path stroke="#C0568D" d="M10.576 7.116a.2.2 0 0 0-.4.02c.015.278.006.905-.113 1.375c-2.17.524-3.604 1.789-4.514 3.209c-1.02 1.591-1.382 3.377-1.404 4.543a.2.2 0 0 0 .4.008c.02-1.105.367-2.816 1.34-4.335c.868-1.354 2.233-2.557 4.32-3.048a.2.2 0 0 0 .115-.026c.209-.046.424-.084.647-.116a.2.2 0 0 0-.056-.396c-.142.02-.282.043-.418.069a6.115 6.115 0 0 0 .083-1.303Z"/><path stroke="url(#f174idy)" d="M10.576 7.116a.2.2 0 0 0-.4.02c.015.278.006.905-.113 1.375c-2.17.524-3.604 1.789-4.514 3.209c-1.02 1.591-1.382 3.377-1.404 4.543a.2.2 0 0 0 .4.008c.02-1.105.367-2.816 1.34-4.335c.868-1.354 2.233-2.557 4.32-3.048a.2.2 0 0 0 .115-.026c.209-.046.424-.084.647-.116a.2.2 0 0 0-.056-.396c-.142.02-.282.043-.418.069a6.115 6.115 0 0 0 .083-1.303Z"/></g><g filter="url(#f174id2)"><path fill="url(#f174idl)" d="M10.576 7.116a.2.2 0 0 0-.4.02c.015.278.006.905-.113 1.375c-2.17.524-3.604 1.789-4.514 3.209c-1.02 1.591-1.382 3.377-1.404 4.543a.2.2 0 0 0 .4.008c.02-1.105.367-2.816 1.34-4.335c.868-1.354 2.233-2.557 4.32-3.048a.2.2 0 0 0 .115-.026c.209-.046.424-.084.647-.116a.2.2 0 0 0-.056-.396c-.142.02-.282.043-.418.069a6.115 6.115 0 0 0 .083-1.303Z"/></g><g filter="url(#f174id3)"><path stroke="url(#f174idm)" stroke-linecap="round" stroke-width=".8" d="M18.817 6.374c-2.17-1.355-4.228-.513-4.974.067a.2.2 0 1 1-.245-.316c.836-.65 3.077-1.56 5.431-.09a.2.2 0 0 1-.212.34Z" clip-rule="evenodd"/></g><g filter="url(#f174id4)"><path fill="url(#f174idn)" fill-rule="evenodd" d="M18.817 6.374c-2.17-1.355-4.228-.513-4.974.067a.2.2 0 1 1-.245-.316c.836-.65 3.077-1.56 5.431-.09a.2.2 0 0 1-.212.34Z" clip-rule="evenodd"/></g><g filter="url(#f174id5)"><path fill="#CC5073" d="M16.113 5.652c-1.027.059-1.854.465-2.27.789a.2.2 0 0 1-.244.001c.446-.378 1.48-.953 2.514-.79Z"/></g><g stroke-linecap="round" stroke-width=".8" filter="url(#f174id6)"><path stroke="#FF8DBD" d="M24.808 9.394a.2.2 0 0 0-.394-.066l-.01.057c-.043.257-.077.463-.154.718c-.084.275-.22.611-.474 1.121c-.38.76-.648 1.564-.764 1.97c-.257.07-.52.194-.832.377c-.36.211-.8.508-1.385.906c-.902.613-1.782.74-2.084.73a.2.2 0 1 0-.012.4c.385.012 1.348-.138 2.321-.8c.588-.4 1.015-.688 1.362-.89a3.21 3.21 0 0 1 .7-.327c.265.177.845.482 1.616.698a4.53 4.53 0 0 1 2.026 1.234c.758.792 1.456 2.074 1.594 4.149a.2.2 0 1 0 .399-.027c-.144-2.16-.875-3.532-1.704-4.398a4.932 4.932 0 0 0-2.208-1.344a5.92 5.92 0 0 1-1.412-.588c.109-.382.37-1.171.74-1.91c.261-.522.407-.88.5-1.184c.085-.282.123-.512.165-.766l.01-.06Z"/><path stroke="url(#f174idz)" d="M24.808 9.394a.2.2 0 0 0-.394-.066l-.01.057c-.043.257-.077.463-.154.718c-.084.275-.22.611-.474 1.121c-.38.76-.648 1.564-.764 1.97c-.257.07-.52.194-.832.377c-.36.211-.8.508-1.385.906c-.902.613-1.782.74-2.084.73a.2.2 0 1 0-.012.4c.385.012 1.348-.138 2.321-.8c.588-.4 1.015-.688 1.362-.89a3.21 3.21 0 0 1 .7-.327c.265.177.845.482 1.616.698a4.53 4.53 0 0 1 2.026 1.234c.758.792 1.456 2.074 1.594 4.149a.2.2 0 1 0 .399-.027c-.144-2.16-.875-3.532-1.704-4.398a4.932 4.932 0 0 0-2.208-1.344a5.92 5.92 0 0 1-1.412-.588c.109-.382.37-1.171.74-1.91c.261-.522.407-.88.5-1.184c.085-.282.123-.512.165-.766l.01-.06Z"/><path stroke="url(#f174id10)" d="M24.808 9.394a.2.2 0 0 0-.394-.066l-.01.057c-.043.257-.077.463-.154.718c-.084.275-.22.611-.474 1.121c-.38.76-.648 1.564-.764 1.97c-.257.07-.52.194-.832.377c-.36.211-.8.508-1.385.906c-.902.613-1.782.74-2.084.73a.2.2 0 1 0-.012.4c.385.012 1.348-.138 2.321-.8c.588-.4 1.015-.688 1.362-.89a3.21 3.21 0 0 1 .7-.327c.265.177.845.482 1.616.698a4.53 4.53 0 0 1 2.026 1.234c.758.792 1.456 2.074 1.594 4.149a.2.2 0 1 0 .399-.027c-.144-2.16-.875-3.532-1.704-4.398a4.932 4.932 0 0 0-2.208-1.344a5.92 5.92 0 0 1-1.412-.588c.109-.382.37-1.171.74-1.91c.261-.522.407-.88.5-1.184c.085-.282.123-.512.165-.766l.01-.06Z"/></g><g filter="url(#f174id7)"><path fill="#FF73A8" d="M24.808 9.394a.2.2 0 0 0-.394-.066l-.01.057c-.043.257-.077.463-.154.718c-.084.275-.22.611-.474 1.121c-.38.76-.648 1.564-.764 1.97c-.257.07-.52.194-.832.377c-.36.211-.8.508-1.385.906c-.902.613-1.782.74-2.084.73a.2.2 0 1 0-.012.4c.385.012 1.348-.138 2.321-.8c.588-.4 1.015-.688 1.362-.89a3.21 3.21 0 0 1 .7-.327c.265.177.845.482 1.616.698a4.53 4.53 0 0 1 2.026 1.234c.758.792 1.456 2.074 1.594 4.149a.2.2 0 1 0 .399-.027c-.144-2.16-.875-3.532-1.704-4.398a4.932 4.932 0 0 0-2.208-1.344a5.92 5.92 0 0 1-1.412-.588c.109-.382.37-1.171.74-1.91c.261-.522.407-.88.5-1.184c.085-.282.123-.512.165-.766l.01-.06Z"/></g><g stroke-linecap="round" stroke-width=".8" filter="url(#f174id8)"><path stroke="#DE4B9E" d="M9.217 14.644a.2.2 0 1 0-.15.37c.441.18 1.329.826 1.389 1.971c-.332.293-.625.61-.882.938c-.89 1.14-1.282 2.017-1.407 2.894a.2.2 0 0 0 .396.056c.115-.81.48-1.62 1.326-2.704c.844-1.079 2.093-2.019 3.847-2.298a.2.2 0 1 0-.063-.395a6.294 6.294 0 0 0-2.848 1.207c-.187-1.18-1.122-1.843-1.608-2.039Z"/><path stroke="url(#f174id11)" d="M9.217 14.644a.2.2 0 1 0-.15.37c.441.18 1.329.826 1.389 1.971c-.332.293-.625.61-.882.938c-.89 1.14-1.282 2.017-1.407 2.894a.2.2 0 0 0 .396.056c.115-.81.48-1.62 1.326-2.704c.844-1.079 2.093-2.019 3.847-2.298a.2.2 0 1 0-.063-.395a6.294 6.294 0 0 0-2.848 1.207c-.187-1.18-1.122-1.843-1.608-2.039Z"/></g><g filter="url(#f174id9)"><path fill="url(#f174ido)" d="M9.217 14.644a.2.2 0 1 0-.15.37c.441.18 1.33.826 1.389 1.971c-.332.293-.625.61-.882.938c-.89 1.14-1.35 2.423-1.474 3.3a.2.2 0 0 0 .396.056c.115-.81.547-2.026 1.393-3.11c.844-1.079 2.094-2.019 3.847-2.298a.2.2 0 1 0-.063-.395a6.293 6.293 0 0 0-2.847 1.207c-.188-1.18-1.123-1.843-1.609-2.039Z"/></g><g filter="url(#f174ida)"><path fill="url(#f174id12)" d="M9.217 14.644a.2.2 0 1 0-.15.37c.441.18 1.33.826 1.389 1.971c-.332.293-.625.61-.882.938c-.89 1.14-1.35 2.423-1.474 3.3a.2.2 0 0 0 .396.056c.115-.81.547-2.026 1.393-3.11c.844-1.079 2.094-2.019 3.847-2.298a.2.2 0 1 0-.063-.395a6.293 6.293 0 0 0-2.847 1.207c-.188-1.18-1.123-1.843-1.609-2.039Z"/></g><g stroke-linecap="round" stroke-width="1.25" filter="url(#f174idb)"><path stroke="#FF65C6" d="M17.521 18.506a.2.2 0 0 1 .122.255c-.175.497-.367.883-.583 1.182c.063.2.29.535.895.535h1.568a1.432 1.432 0 0 1 .849.215l1.886-.276c.226-.028.502-.109.755-.244c.253-.136.47-.32.595-.545c.3-.537.45-.791.49-.854a.2.2 0 1 1 .338.215c-.033.052-.178.296-.479.834c-.174.312-.458.543-.755.702c-.296.16-.62.255-.892.29l-1.57.229c.116.161.206.363.255.611c.174.888.25 1.266.265 1.344a.2.2 0 1 1-.392.078l-.266-1.344c-.076-.387-.27-.6-.472-.719a1.023 1.023 0 0 0-.58-.136h-1.596c-.644 0-1.006-.303-1.18-.602c-.04.039-.082.075-.124.11c-.4.326-.853.443-1.356.492c-.83.08-1.736-.178-2.044-.313a.2.2 0 1 1 .16-.367c.264.116 1.101.353 1.846.281c.465-.045.828-.147 1.14-.403c.316-.258.602-.692.87-1.449a.2.2 0 0 1 .255-.121Z"/><path stroke="url(#f174idp)" d="M17.521 18.506a.2.2 0 0 1 .122.255c-.175.497-.367.883-.583 1.182c.063.2.29.535.895.535h1.568a1.432 1.432 0 0 1 .849.215l1.886-.276c.226-.028.502-.109.755-.244c.253-.136.47-.32.595-.545c.3-.537.45-.791.49-.854a.2.2 0 1 1 .338.215c-.033.052-.178.296-.479.834c-.174.312-.458.543-.755.702c-.296.16-.62.255-.892.29l-1.57.229c.116.161.206.363.255.611c.174.888.25 1.266.265 1.344a.2.2 0 1 1-.392.078l-.266-1.344c-.076-.387-.27-.6-.472-.719a1.023 1.023 0 0 0-.58-.136h-1.596c-.644 0-1.006-.303-1.18-.602c-.04.039-.082.075-.124.11c-.4.326-.853.443-1.356.492c-.83.08-1.736-.178-2.044-.313a.2.2 0 1 1 .16-.367c.264.116 1.101.353 1.846.281c.465-.045.828-.147 1.14-.403c.316-.258.602-.692.87-1.449a.2.2 0 0 1 .255-.121Z"/><path stroke="url(#f174id13)" d="M17.521 18.506a.2.2 0 0 1 .122.255c-.175.497-.367.883-.583 1.182c.063.2.29.535.895.535h1.568a1.432 1.432 0 0 1 .849.215l1.886-.276c.226-.028.502-.109.755-.244c.253-.136.47-.32.595-.545c.3-.537.45-.791.49-.854a.2.2 0 1 1 .338.215c-.033.052-.178.296-.479.834c-.174.312-.458.543-.755.702c-.296.16-.62.255-.892.29l-1.57.229c.116.161.206.363.255.611c.174.888.25 1.266.265 1.344a.2.2 0 1 1-.392.078l-.266-1.344c-.076-.387-.27-.6-.472-.719a1.023 1.023 0 0 0-.58-.136h-1.596c-.644 0-1.006-.303-1.18-.602c-.04.039-.082.075-.124.11c-.4.326-.853.443-1.356.492c-.83.08-1.736-.178-2.044-.313a.2.2 0 1 1 .16-.367c.264.116 1.101.353 1.846.281c.465-.045.828-.147 1.14-.403c.316-.258.602-.692.87-1.449a.2.2 0 0 1 .255-.121Z"/></g><g filter="url(#f174idc)"><path fill="url(#f174idq)" d="M17.521 18.39a.2.2 0 0 1 .122.256c-.175.497-.367.883-.583 1.182c.063.2.29.536.895.536h1.568a1.432 1.432 0 0 1 .849.215l1.886-.276c.226-.028.502-.11.755-.245c.253-.136.47-.32.595-.545c.3-.537.45-.79.49-.853a.2.2 0 0 1 .338.214c-.033.052-.178.296-.479.834c-.174.313-.458.543-.755.702c-.296.16-.62.255-.892.29l-1.57.23c.116.16.206.362.255.61c.174.888.25 1.266.265 1.344a.2.2 0 1 1-.392.078l-.266-1.344c-.076-.386-.27-.6-.472-.718c-.21-.123-.44-.15-.58-.137h-1.596c-.644 0-1.006-.302-1.18-.602c-.04.039-.082.076-.124.11c-.4.327-.853.443-1.356.492c-.83.08-1.736-.178-2.044-.313a.2.2 0 1 1 .16-.366c.264.115 1.101.353 1.846.28c.465-.044.828-.147 1.14-.402c.316-.258.602-.692.87-1.45a.2.2 0 0 1 .255-.121Z"/></g><g filter="url(#f174idd)"><path stroke="url(#f174idr)" stroke-linecap="round" stroke-width=".75" d="M23.58 9.189c-.105.76-.75 2.65-2.5 4.125"/></g><g filter="url(#f174ide)"><path stroke="url(#f174ids)" stroke-linecap="round" d="M23.048 14.47c.209.188.8.594 1.5.719c.875.156 2.313 1.031 2.657 3.094"/></g><g filter="url(#f174idf)"><path fill="url(#f174idt)" d="M24.467 13.172c.44-.595.863-2.276.939-2.654c.83.421 2.64 2.182 3.236 5.858c-.803-2.097-3.075-2.977-4.175-3.204Z"/></g><g filter="url(#f174idg)"><path fill="url(#f174id14)" d="M8.814 15.267c-.388-.288-.224-.64-.094-.781l-.828-1.078c-1.5.906-1.219 2.53-.187 3.125c.825.475 1.083 1.385 1.109 1.78c.35-.712.937-1.202 1.187-1.359c-.156-1.015-.703-1.328-1.187-1.687Z"/></g><defs><filter id="f174id0" width="3.891" height="3.891" x="16.681" y="13.376" color-interpolation-filters="sRGB" filterUnits="userSpaceOnUse"><feFlood flood-opacity="0" result="BackgroundImageFix"/><feBlend in="SourceGraphic" in2="BackgroundImageFix" result="shape"/><feGaussianBlur result="effect1_foregroundBlur_20020_5011" stdDeviation=".5"/></filter><filter id="f174id1" width="9.394" height="11.941" x="2.945" y="5.726" color-interpolation-filters="sRGB" filterUnits="userSpaceOnUse"><feFlood flood-opacity="0" result="BackgroundImageFix"/><feBlend in="SourceGraphic" in2="BackgroundImageFix" result="shape"/><feGaussianBlur result="effect1_foregroundBlur_20020_5011" stdDeviation=".4"/></filter><filter id="f174id2" width="7.394" height="9.941" x="3.945" y="6.726" color-interpolation-filters="sRGB" filterUnits="userSpaceOnUse"><feFlood flood-opacity="0" result="BackgroundImageFix"/><feBlend in="SourceGraphic" in2="BackgroundImageFix" result="shape"/><feColorMatrix in="SourceAlpha" result="hardAlpha" values="0 0 0 0 0 0 0 0 0 0 0 0 0 0 0 0 0 0 127 0"/><feOffset dx="-.1" dy="-.1"/><feGaussianBlur stdDeviation=".1"/><feComposite in2="hardAlpha" k2="-1" k3="1" operator="arithmetic"/><feColorMatrix values="0 0 0 0 0.705882 0 0 0 0 0.239216 0 0 0 0 0.486275 0 0 0 1 0"/><feBlend in2="shape" result="effect1_innerShadow_20020_5011"/><feGaussianBlur result="effect2_foregroundBlur_20020_5011" stdDeviation=".1"/></filter><filter id="f174id3" width="8.003" height="3.639" x="12.32" y="4.044" color-interpolation-filters="sRGB" filterUnits="userSpaceOnUse"><feFlood flood-opacity="0" result="BackgroundImageFix"/><feBlend in="SourceGraphic" in2="BackgroundImageFix" result="shape"/><feGaussianBlur result="effect1_foregroundBlur_20020_5011" stdDeviation=".4"/></filter><filter id="f174id4" width="5.803" height="1.438" x="13.42" y="5.144" color-interpolation-filters="sRGB" filterUnits="userSpaceOnUse"><feFlood flood-opacity="0" result="BackgroundImageFix"/><feBlend in="SourceGraphic" in2="BackgroundImageFix" result="shape"/><feGaussianBlur result="effect1_foregroundBlur_20020_5011" stdDeviation=".05"/></filter><filter id="f174id5" width="2.714" height="1.059" x="13.499" y="5.524" color-interpolation-filters="sRGB" filterUnits="userSpaceOnUse"><feFlood flood-opacity="0" result="BackgroundImageFix"/><feBlend in="SourceGraphic" in2="BackgroundImageFix" result="shape"/><feGaussianBlur result="effect1_foregroundBlur_20020_5011" stdDeviation=".05"/></filter><filter id="f174id6" width="13.013" height="13.497" x="17.105" y="7.761" color-interpolation-filters="sRGB" filterUnits="userSpaceOnUse"><feFlood flood-opacity="0" result="BackgroundImageFix"/><feBlend in="SourceGraphic" in2="BackgroundImageFix" result="shape"/><feColorMatrix in="SourceAlpha" result="hardAlpha" values="0 0 0 0 0 0 0 0 0 0 0 0 0 0 0 0 0 0 127 0"/><feOffset dy="-.2"/><feGaussianBlur stdDeviation=".1"/><feComposite in2="hardAlpha" k2="-1" k3="1" operator="arithmetic"/><feColorMatrix values="0 0 0 0 1 0 0 0 0 0.380392 0 0 0 0 0.615686 0 0 0 1 0"/><feBlend in2="shape" result="effect1_innerShadow_20020_5011"/><feGaussianBlur result="effect2_foregroundBlur_20020_5011" stdDeviation=".5"/></filter><filter id="f174id7" width="10.613" height="11.097" x="18.305" y="8.961" color-interpolation-filters="sRGB" filterUnits="userSpaceOnUse"><feFlood flood-opacity="0" result="BackgroundImageFix"/><feBlend in="SourceGraphic" in2="BackgroundImageFix" result="shape"/><feColorMatrix in="SourceAlpha" result="hardAlpha" values="0 0 0 0 0 0 0 0 0 0 0 0 0 0 0 0 0 0 127 0"/><feOffset dy="-.2"/><feGaussianBlur stdDeviation=".1"/><feComposite in2="hardAlpha" k2="-1" k3="1" operator="arithmetic"/><feColorMatrix values="0 0 0 0 1 0 0 0 0 0.380392 0 0 0 0 0.615686 0 0 0 1 0"/><feBlend in2="shape" result="effect1_innerShadow_20020_5011"/><feGaussianBlur result="effect2_foregroundBlur_20020_5011" stdDeviation=".1"/></filter><filter id="f174id8" width="8.139" height="8.816" x="6.965" y="13.429" color-interpolation-filters="sRGB" filterUnits="userSpaceOnUse"><feFlood flood-opacity="0" result="BackgroundImageFix"/><feBlend in="SourceGraphic" in2="BackgroundImageFix" result="shape"/><feGaussianBlur result="effect1_foregroundBlur_20020_5011" stdDeviation=".4"/></filter><filter id="f174id9" width="6.006" height="7.022" x="7.998" y="14.529" color-interpolation-filters="sRGB" filterUnits="userSpaceOnUse"><feFlood flood-opacity="0" result="BackgroundImageFix"/><feBlend in="SourceGraphic" in2="BackgroundImageFix" result="shape"/><feColorMatrix in="SourceAlpha" result="hardAlpha" values="0 0 0 0 0 0 0 0 0 0 0 0 0 0 0 0 0 0 127 0"/><feOffset dx="-.1" dy="-.1"/><feGaussianBlur stdDeviation=".1"/><feComposite in2="hardAlpha" k2="-1" k3="1" operator="arithmetic"/><feColorMatrix values="0 0 0 0 0.835294 0 0 0 0 0.196078 0 0 0 0 0.521569 0 0 0 1 0"/><feBlend in2="shape" result="effect1_innerShadow_20020_5011"/><feGaussianBlur result="effect2_foregroundBlur_20020_5011" stdDeviation=".05"/></filter><filter id="f174ida" width="6.006" height="7.022" x="7.998" y="14.529" color-interpolation-filters="sRGB" filterUnits="userSpaceOnUse"><feFlood flood-opacity="0" result="BackgroundImageFix"/><feBlend in="SourceGraphic" in2="BackgroundImageFix" result="shape"/><feGaussianBlur result="effect1_foregroundBlur_20020_5011" stdDeviation=".05"/></filter><filter id="f174idb" width="15.088" height="8.494" x="11.254" y="16.619" color-interpolation-filters="sRGB" filterUnits="userSpaceOnUse"><feFlood flood-opacity="0" result="BackgroundImageFix"/><feBlend in="SourceGraphic" in2="BackgroundImageFix" result="shape"/><feGaussianBlur result="effect1_foregroundBlur_20020_5011" stdDeviation=".625"/></filter><filter id="f174idc" width="11.738" height="5.144" x="12.93" y="18.18" color-interpolation-filters="sRGB" filterUnits="userSpaceOnUse"><feFlood flood-opacity="0" result="BackgroundImageFix"/><feBlend in="SourceGraphic" in2="BackgroundImageFix" result="shape"/><feColorMatrix in="SourceAlpha" result="hardAlpha" values="0 0 0 0 0 0 0 0 0 0 0 0 0 0 0 0 0 0 127 0"/><feOffset dy="-.2"/><feGaussianBlur stdDeviation=".1"/><feComposite in2="hardAlpha" k2="-1" k3="1" operator="arithmetic"/><feColorMatrix values="0 0 0 0 1 0 0 0 0 0.32549 0 0 0 0 0.72549 0 0 0 1 0"/><feBlend in2="shape" result="effect1_innerShadow_20020_5011"/><feGaussianBlur result="effect2_foregroundBlur_20020_5011" stdDeviation=".1"/></filter><filter id="f174idd" width="5.25" height="6.875" x="19.705" y="7.814" color-interpolation-filters="sRGB" filterUnits="userSpaceOnUse"><feFlood flood-opacity="0" result="BackgroundImageFix"/><feBlend in="SourceGraphic" in2="BackgroundImageFix" result="shape"/><feGaussianBlur result="effect1_foregroundBlur_20020_5011" stdDeviation=".5"/></filter><filter id="f174ide" width="8.156" height="7.813" x="21.048" y="12.47" color-interpolation-filters="sRGB" filterUnits="userSpaceOnUse"><feFlood flood-opacity="0" result="BackgroundImageFix"/><feBlend in="SourceGraphic" in2="BackgroundImageFix" result="shape"/><feGaussianBlur result="effect1_foregroundBlur_20020_5011" stdDeviation=".75"/></filter><filter id="f174idf" width="6.175" height="7.858" x="23.467" y="9.518" color-interpolation-filters="sRGB" filterUnits="userSpaceOnUse"><feFlood flood-opacity="0" result="BackgroundImageFix"/><feBlend in="SourceGraphic" in2="BackgroundImageFix" result="shape"/><feGaussianBlur result="effect1_foregroundBlur_20020_5011" stdDeviation=".5"/></filter><filter id="f174idg" width="4.153" height="5.906" x="6.349" y="12.908" color-interpolation-filters="sRGB" filterUnits="userSpaceOnUse"><feFlood flood-opacity="0" result="BackgroundImageFix"/><feBlend in="SourceGraphic" in2="BackgroundImageFix" result="shape"/><feGaussianBlur result="effect1_foregroundBlur_20020_5011" stdDeviation=".25"/></filter><linearGradient id="f174idh" x1="24.205" x2="20.455" y1="27.72" y2="27.72" gradientUnits="userSpaceOnUse"><stop stop-color="#FF4AC6"/><stop offset="1" stop-color="#FF3FC0"/></linearGradient><linearGradient id="f174idi" x1="23.236" x2="23.236" y1="25.345" y2="26.876" gradientUnits="userSpaceOnUse"><stop stop-color="#ED4D98"/><stop offset="1" stop-color="#ED4D98" stop-opacity="0"/></linearGradient><linearGradient id="f174idj" x1="16.468" x2="16.468" y1="26.215" y2="25.552" gradientUnits="userSpaceOnUse"><stop stop-color="#FF99F8"/><stop offset="1" stop-color="#FF99F8" stop-opacity="0"/></linearGradient><linearGradient id="f174idk" x1="17.978" x2="18.969" y1="15.595" y2="14.312" gradientUnits="userSpaceOnUse"><stop stop-color="#FF8DCF"/><stop offset="1" stop-color="#FF8DCF" stop-opacity="0"/></linearGradient><linearGradient id="f174idl" x1="6.014" x2="12.059" y1="12.955" y2="6.926" gradientUnits="userSpaceOnUse"><stop stop-color="#CA4794"/><stop offset="1" stop-color="#E85B90"/></linearGradient><linearGradient id="f174idm" x1="13.52" x2="19.123" y1="6.376" y2="6.376" gradientUnits="userSpaceOnUse"><stop stop-color="#FF97B4"/><stop offset="1" stop-color="#FF97B4" stop-opacity="0"/></linearGradient><linearGradient id="f174idn" x1="13.959" x2="19.29" y1="6.483" y2="6.483" gradientUnits="userSpaceOnUse"><stop stop-color="#FF6791"/><stop offset="1" stop-color="#FF788C"/></linearGradient><linearGradient id="f174ido" x1="9.65" x2="13.926" y1="18.94" y2="13.989" gradientUnits="userSpaceOnUse"><stop stop-color="#DD45A8"/><stop offset="1" stop-color="#F24FA6"/></linearGradient><linearGradient id="f174idp" x1="13.13" x2="17.08" y1="20.866" y2="17.845" gradientUnits="userSpaceOnUse"><stop stop-color="#FF9CE7"/><stop offset="1" stop-color="#FF7CDF" stop-opacity="0"/></linearGradient><linearGradient id="f174idq" x1="15.173" x2="25.705" y1="20.126" y2="20.001" gradientUnits="userSpaceOnUse"><stop stop-color="#FF5EBF"/><stop offset="1" stop-color="#FF56A5"/></linearGradient><linearGradient id="f174idr" x1="24.048" x2="20.923" y1="9.189" y2="14.001" gradientUnits="userSpaceOnUse"><stop stop-color="#FFAEBC"/><stop offset="1" stop-color="#FFAEBC" stop-opacity="0"/></linearGradient><linearGradient id="f174ids" x1="23.736" x2="32.275" y1="13.939" y2="17.31" gradientUnits="userSpaceOnUse"><stop stop-color="#FFBAD9"/><stop offset="1" stop-color="#FFBAD9" stop-opacity="0"/></linearGradient><linearGradient id="f174idt" x1="23.593" x2="28.804" y1="13.447" y2="13.447" gradientUnits="userSpaceOnUse"><stop offset=".286" stop-color="#FFACC7"/><stop offset="1" stop-color="#FFACC7" stop-opacity="0"/></linearGradient><radialGradient id="f174idu" cx="0" cy="0" r="1" gradientTransform="matrix(13.54183 -15.45455 27.11604 23.76004 12.132 21.456)" gradientUnits="userSpaceOnUse"><stop offset=".234" stop-color="#FF6FE1"/><stop offset=".906" stop-color="#FF9E9D"/></radialGradient><radialGradient id="f174idv" cx="0" cy="0" r="1" gradientTransform="rotate(170.159 15.26 10.255) scale(12.4329 15.6948)" gradientUnits="userSpaceOnUse"><stop stop-color="#FF94D4"/><stop offset="1" stop-color="#FF94D4" stop-opacity="0"/></radialGradient><radialGradient id="f174idw" cx="0" cy="0" r="1" gradientTransform="rotate(-148.057 15.86 7.676) scale(24.4528 25.0635)" gradientUnits="userSpaceOnUse"><stop offset=".791" stop-color="#BE6F90" stop-opacity="0"/><stop offset="1" stop-color="#BE6F90"/></radialGradient><radialGradient id="f174idx" cx="0" cy="0" r="1" gradientTransform="matrix(2.9375 -7.8125 3.862 1.45212 8.486 23.939)" gradientUnits="userSpaceOnUse"><stop stop-color="#DB60B2"/><stop offset="1" stop-color="#DB60B2" stop-opacity="0"/></radialGradient><radialGradient id="f174idy" cx="0" cy="0" r="1" gradientTransform="rotate(-137.203 7.029 5.025) scale(3.90853 6.19621)" gradientUnits="userSpaceOnUse"><stop offset=".826" stop-color="#FF7DAF" stop-opacity="0"/><stop offset="1" stop-color="#FF7DAF"/></radialGradient><radialGradient id="f174idz" cx="0" cy="0" r="1" gradientTransform="rotate(106.928 8.562 13.637) scale(3.50452 4.03249)" gradientUnits="userSpaceOnUse"><stop stop-color="#FFABBE"/><stop offset="1" stop-color="#FFABBE" stop-opacity="0"/></radialGradient><radialGradient id="f174id10" cx="0" cy="0" r="1" gradientTransform="matrix(.90377 .0583 -.0671 1.03993 18.738 15.364)" gradientUnits="userSpaceOnUse"><stop stop-color="#FF8CCE"/><stop offset="1" stop-color="#FF8CCE" stop-opacity="0"/></radialGradient><radialGradient id="f174id11" cx="0" cy="0" r="1" gradientTransform="matrix(-2.82812 -2.76564 4.2871 -4.38397 12.298 19.439)" gradientUnits="userSpaceOnUse"><stop offset=".627" stop-color="#FF8CDC" stop-opacity="0"/><stop offset="1" stop-color="#FF8CDC"/></radialGradient><radialGradient id="f174id12" cx="0" cy="0" r="1" gradientTransform="matrix(.90625 .49219 -.80077 1.47444 8.97 14.712)" gradientUnits="userSpaceOnUse"><stop stop-color="#FF83DD"/><stop offset="1" stop-color="#FF83DD" stop-opacity="0"/></radialGradient><radialGradient id="f174id13" cx="0" cy="0" r="1" gradientTransform="matrix(1.3125 -1 1.86944 2.45365 19.767 21.564)" gradientUnits="userSpaceOnUse"><stop stop-color="#FF9CE7"/><stop offset="1" stop-color="#FF7CDF" stop-opacity="0"/></radialGradient><radialGradient id="f174id14" cx="0" cy="0" r="1" gradientTransform="matrix(-2.24999 1.0469 -1.3889 -2.98504 9.814 15.658)" gradientUnits="userSpaceOnUse"><stop stop-color="#FF9BE1"/><stop offset="1" stop-color="#FF9BE1" stop-opacity="0"/></radialGradient></defs></g></svg>