<svg xmlns="http://www.w3.org/2000/svg" width="32" height="32" viewBox="0 0 32 32"><g fill="none"><circle cx="15.868" cy="28.102" r="1.773" fill="url(#f853idb)"/><rect width="6.781" height="6.719" x="12.516" y="22.172" fill="url(#f853id0)" rx="1.25"/><rect width="6.781" height="6.719" x="12.516" y="22.172" fill="url(#f853id1)" rx="1.25"/><rect width="6.781" height="6.719" x="12.516" y="22.172" fill="url(#f853idc)" rx="1.25"/><rect width="6.781" height="6.719" x="12.516" y="22.172" fill="url(#f853id2)" rx="1.25"/><g filter="url(#f853idh)"><path fill="url(#f853idd)" d="M15.767 22.969h.054c.556-.003 1.834-.024 2.347-.117c.55-.1.621-.375.719-.805c.602-2.654 1.612-3.674 2.288-4.356c.104-.105.2-.203.286-.296c.293-.322.547-.606.74-.825a8.648 8.648 0 1 0-12.644-.057c.2.226.472.531.792.882a6.933 6.933 0 0 0 .286.296c.675.682 1.686 1.703 2.288 4.356c.098.43.169.705.719.805c.511.093 1.546.114 2.07.116h.055Z"/><path fill="url(#f853ide)" d="M15.767 22.969h.054c.556-.003 1.834-.024 2.347-.117c.55-.1.621-.375.719-.805c.602-2.654 1.612-3.674 2.288-4.356c.104-.105.2-.203.286-.296c.293-.322.547-.606.74-.825a8.648 8.648 0 1 0-12.644-.057c.2.226.472.531.792.882a6.933 6.933 0 0 0 .286.296c.675.682 1.686 1.703 2.288 4.356c.098.43.169.705.719.805c.511.093 1.546.114 2.07.116h.055Z"/></g><circle cx="17.462" cy="6.953" r="3.328" fill="url(#f853id3)"/><g filter="url(#f853idi)"><path fill="#FFAD55" d="M15.479 22.966c-.035-2.172-.208-3.602-.472-4.598c-.303-1.147-.728-1.72-1.178-2.173l-.005-.006l-.006-.005a2.984 2.984 0 1 1 4.101 0l-.006.005l-.006.006c-.441.446-.872.98-1.179 2.118c-.266.985-.44 2.42-.475 4.651c.302-.005.663-.014 1.001-.03c.036-2.168.206-3.496.44-4.36c.252-.937.577-1.325.918-1.67a3.984 3.984 0 1 0-5.488 0c.333.337.662.758.917 1.72c.232.879.4 2.204.437 4.31c.347.02.712.028 1 .032Z"/></g><g filter="url(#f853idj)"><path stroke="url(#f853id4)" stroke-width=".25" d="M16.879 22.739c0-4.771.731-5.533 1.515-6.324a3.484 3.484 0 1 0-4.788 0c.784.791 1.511 2.161 1.511 6.324"/></g><g filter="url(#f853idk)"><rect width="6.811" height="1.07" x="12.43" y="25.123" fill="#7E6693" rx=".535" transform="rotate(-8.905 12.43 25.123)"/></g><g filter="url(#f853idl)"><rect width="6.811" height="1.07" x="12.43" y="27.494" fill="#7E6693" rx=".535" transform="rotate(-8.905 12.43 27.494)"/></g><rect width="8.32" height="1.102" x="11.685" y="27.463" fill="url(#f853id5)" rx=".551" transform="rotate(-8.905 11.685 27.463)"/><rect width="8.32" height="1.102" x="11.685" y="27.463" fill="url(#f853id6)" rx=".551" transform="rotate(-8.905 11.685 27.463)"/><rect width="8.32" height="1.102" x="11.685" y="27.463" fill="url(#f853id7)" rx=".551" transform="rotate(-8.905 11.685 27.463)"/><rect width="8.32" height="1.102" x="11.685" y="27.463" fill="url(#f853idf)" rx=".551" transform="rotate(-8.905 11.685 27.463)"/><rect width="8.32" height="1.102" x="11.685" y="25.086" fill="url(#f853id8)" rx=".551" transform="rotate(-8.905 11.685 25.086)"/><rect width="8.32" height="1.102" x="11.685" y="25.086" fill="url(#f853id9)" rx=".551" transform="rotate(-8.905 11.685 25.086)"/><rect width="8.32" height="1.102" x="11.685" y="25.086" fill="url(#f853ida)" rx=".551" transform="rotate(-8.905 11.685 25.086)"/><rect width="8.32" height="1.102" x="11.685" y="25.086" fill="url(#f853idg)" rx=".551" transform="rotate(-8.905 11.685 25.086)"/><defs><linearGradient id="f853id0" x1="19.297" x2="12.516" y1="25.802" y2="25.802" gradientUnits="userSpaceOnUse"><stop stop-color="#CDC2D1"/><stop offset="1" stop-color="#947C8D"/></linearGradient><linearGradient id="f853id1" x1="12.181" x2="13.837" y1="26.313" y2="26.313" gradientUnits="userSpaceOnUse"><stop stop-color="#8A7B88"/><stop offset="1" stop-color="#8A7B88" stop-opacity="0"/></linearGradient><linearGradient id="f853id2" x1="17.462" x2="17.462" y1="28.891" y2="27.625" gradientUnits="userSpaceOnUse"><stop stop-color="#7E5F9E"/><stop offset="1" stop-color="#7E5F9E" stop-opacity="0"/></linearGradient><linearGradient id="f853id3" x1="16.298" x2="19.72" y1="8.027" y2="5.361" gradientUnits="userSpaceOnUse"><stop stop-color="#fff" stop-opacity="0"/><stop offset=".594" stop-color="#fff"/></linearGradient><linearGradient id="f853id4" x1="19.72" x2="15.714" y1="10.997" y2="20.54" gradientUnits="userSpaceOnUse"><stop stop-color="#FFBF5C"/><stop offset="1" stop-color="#FFBF5C" stop-opacity="0"/></linearGradient><linearGradient id="f853id5" x1="15.744" x2="15.823" y1="27.472" y2="28.687" gradientUnits="userSpaceOnUse"><stop stop-color="#B1969A"/><stop offset="1" stop-color="#DAD2E2"/></linearGradient><linearGradient id="f853id6" x1="16.715" x2="16.713" y1="28.542" y2="27.751" gradientUnits="userSpaceOnUse"><stop stop-color="#8A68A9"/><stop offset="1" stop-color="#DEC2E3" stop-opacity="0"/></linearGradient><linearGradient id="f853id7" x1="11.587" x2="14.374" y1="28.086" y2="27.938" gradientUnits="userSpaceOnUse"><stop stop-color="#958387"/><stop offset="1" stop-color="#958387" stop-opacity="0"/></linearGradient><linearGradient id="f853id8" x1="15.744" x2="15.823" y1="25.096" y2="26.31" gradientUnits="userSpaceOnUse"><stop stop-color="#B1969A"/><stop offset="1" stop-color="#DAD2E2"/></linearGradient><linearGradient id="f853id9" x1="16.715" x2="16.713" y1="26.165" y2="25.374" gradientUnits="userSpaceOnUse"><stop stop-color="#8A68A9"/><stop offset="1" stop-color="#DEC2E3" stop-opacity="0"/></linearGradient><linearGradient id="f853ida" x1="11.587" x2="14.374" y1="25.71" y2="25.561" gradientUnits="userSpaceOnUse"><stop stop-color="#958387"/><stop offset="1" stop-color="#958387" stop-opacity="0"/></linearGradient><radialGradient id="f853idb" cx="0" cy="0" r="1" gradientTransform="matrix(-.10937 .9375 -2.17141 -.25333 16.337 29.11)" gradientUnits="userSpaceOnUse"><stop offset=".268" stop-color="#AC90C6"/><stop offset="1" stop-color="#8E6AAA"/></radialGradient><radialGradient id="f853idc" cx="0" cy="0" r="1" gradientTransform="matrix(.01964 .82464 -3.67138 .08742 17.305 22.64)" gradientUnits="userSpaceOnUse"><stop offset=".229" stop-color="#EDE2EB"/><stop offset="1" stop-color="#C8BCCB" stop-opacity="0"/></radialGradient><radialGradient id="f853idd" cx="0" cy="0" r="1" gradientTransform="rotate(138.066 8.221 7.81) scale(9.91369 8.17473)" gradientUnits="userSpaceOnUse"><stop offset=".286" stop-color="#FFEC87"/><stop offset="1" stop-color="#FFCD4B"/></radialGradient><radialGradient id="f853ide" cx="0" cy="0" r="1" gradientTransform="matrix(-12.31245 -7.81251 7.51457 -11.8429 20.493 13.438)" gradientUnits="userSpaceOnUse"><stop offset=".622" stop-color="#FFB239" stop-opacity="0"/><stop offset="1" stop-color="#FFB239"/></radialGradient><radialGradient id="f853idf" cx="0" cy="0" r="1" gradientTransform="matrix(-.0047 .8375 -4.95703 -.0278 18.58 27.84)" gradientUnits="userSpaceOnUse"><stop offset=".127" stop-color="#FCF0FC"/><stop offset="1" stop-color="#E5C9E3" stop-opacity="0"/></radialGradient><radialGradient id="f853idg" cx="0" cy="0" r="1" gradientTransform="matrix(-.0047 .8375 -4.95701 -.02777 18.58 25.463)" gradientUnits="userSpaceOnUse"><stop offset=".127" stop-color="#FCF0FC"/><stop offset="1" stop-color="#E5C9E3" stop-opacity="0"/></radialGradient><filter id="f853idh" width="17.547" height="21.126" x="7.258" y="1.992" color-interpolation-filters="sRGB" filterUnits="userSpaceOnUse"><feFlood flood-opacity="0" result="BackgroundImageFix"/><feBlend in="SourceGraphic" in2="BackgroundImageFix" result="shape"/><feColorMatrix in="SourceAlpha" result="hardAlpha" values="0 0 0 0 0 0 0 0 0 0 0 0 0 0 0 0 0 0 127 0"/><feOffset dx=".25" dy=".15"/><feGaussianBlur stdDeviation=".5"/><feComposite in2="hardAlpha" k2="-1" k3="1" operator="arithmetic"/><feColorMatrix values="0 0 0 0 0.992157 0 0 0 0 0.666667 0 0 0 0 0.309804 0 0 0 1 0"/><feBlend in2="shape" result="effect1_innerShadow_18_20513"/></filter><filter id="f853idi" width="8.219" height="12.935" x="11.884" y="10.031" color-interpolation-filters="sRGB" filterUnits="userSpaceOnUse"><feFlood flood-opacity="0" result="BackgroundImageFix"/><feBlend in="SourceGraphic" in2="BackgroundImageFix" result="shape"/><feColorMatrix in="SourceAlpha" result="hardAlpha" values="0 0 0 0 0 0 0 0 0 0 0 0 0 0 0 0 0 0 127 0"/><feOffset dx=".25"/><feGaussianBlur stdDeviation=".25"/><feComposite in2="hardAlpha" k2="-1" k3="1" operator="arithmetic"/><feColorMatrix values="0 0 0 0 1 0 0 0 0 0.572549 0 0 0 0 0.254902 0 0 0 1 0"/><feBlend in2="shape" result="effect1_innerShadow_18_20513"/></filter><filter id="f853idj" width="7.719" height="12.964" x="12.141" y="10.024" color-interpolation-filters="sRGB" filterUnits="userSpaceOnUse"><feFlood flood-opacity="0" result="BackgroundImageFix"/><feBlend in="SourceGraphic" in2="BackgroundImageFix" result="shape"/><feGaussianBlur result="effect1_foregroundBlur_18_20513" stdDeviation=".125"/></filter><filter id="f853idk" width="7.242" height="2.459" x="12.256" y="23.895" color-interpolation-filters="sRGB" filterUnits="userSpaceOnUse"><feFlood flood-opacity="0" result="BackgroundImageFix"/><feBlend in="SourceGraphic" in2="BackgroundImageFix" result="shape"/><feGaussianBlur result="effect1_foregroundBlur_18_20513" stdDeviation=".125"/></filter><filter id="f853idl" width="7.242" height="2.459" x="12.256" y="26.266" color-interpolation-filters="sRGB" filterUnits="userSpaceOnUse"><feFlood flood-opacity="0" result="BackgroundImageFix"/><feBlend in="SourceGraphic" in2="BackgroundImageFix" result="shape"/><feGaussianBlur result="effect1_foregroundBlur_18_20513" stdDeviation=".125"/></filter></defs></g></svg>