<svg xmlns="http://www.w3.org/2000/svg" width="128" height="128" viewBox="0 0 32 32"><g fill="none"><path fill="url(#f1523id0)" d="M30 16.123c0 7.732-6.268 14-14 14s-14-6.268-14-14s6.268-14 14-14s14 6.268 14 14Z"/><g filter="url(#f1523ida)"><path fill="#C3C0C7" fill-rule="evenodd" d="M18.484 10.1a1 1 0 0 1 .366 1.366l-2.109 3.652a1.988 1.988 0 0 1-.712 2.737v6.274a1 1 0 1 1-2 0v-6.277a1.988 1.988 0 0 1 .964-3.707l2.125-3.679a1 1 0 0 1 1.366-.366Z" clip-rule="evenodd"/></g><g fill-rule="evenodd" clip-rule="evenodd" filter="url(#f1523idb)"><path fill="url(#f1523id5)" d="M16.029 15.134a1 1 0 0 1 1 1v7.995a1 1 0 1 1-2 0v-7.995a1 1 0 0 1 1-1Z"/><path fill="url(#f1523id1)" d="M16.029 15.134a1 1 0 0 1 1 1v7.995a1 1 0 1 1-2 0v-7.995a1 1 0 0 1 1-1Z"/></g><path fill="url(#f1523id6)" fill-rule="evenodd" d="M19.484 10.1a1 1 0 0 1 .366 1.366l-2.984 5.168a1 1 0 0 1-1.732-1l2.984-5.168a1 1 0 0 1 1.366-.366Z" clip-rule="evenodd"/><path fill="url(#f1523id7)" fill-rule="evenodd" d="M19.484 10.1a1 1 0 0 1 .366 1.366l-2.984 5.168a1 1 0 0 1-1.732-1l2.984-5.168a1 1 0 0 1 1.366-.366Z" clip-rule="evenodd"/><path fill="url(#f1523id2)" fill-rule="evenodd" d="M19.484 10.1a1 1 0 0 1 .366 1.366l-2.984 5.168a1 1 0 0 1-1.732-1l2.984-5.168a1 1 0 0 1 1.366-.366Z" clip-rule="evenodd"/><path fill="url(#f1523id8)" fill-rule="evenodd" d="M19.484 10.1a1 1 0 0 1 .366 1.366l-2.984 5.168a1 1 0 0 1-1.732-1l2.984-5.168a1 1 0 0 1 1.366-.366Z" clip-rule="evenodd"/><g filter="url(#f1523idc)"><path fill="url(#f1523id9)" fill-rule="evenodd" d="M16 27.123c6.075 0 11-4.925 11-11s-4.925-11-11-11s-11 4.925-11 11s4.925 11 11 11Zm0 3c7.732 0 14-6.268 14-14s-6.268-14-14-14s-14 6.268-14 14s6.268 14 14 14Z" clip-rule="evenodd"/></g><path fill="url(#f1523id3)" d="M18.02 16.134a1.989 1.989 0 1 1-3.978 0a1.989 1.989 0 0 1 3.978 0Z"/><path fill="url(#f1523id4)" d="M18.02 16.134a1.989 1.989 0 1 1-3.978 0a1.989 1.989 0 0 1 3.978 0Z"/><defs><radialGradient id="f1523id0" cx="0" cy="0" r="1" gradientTransform="rotate(-46.212 33.64 1.09) scale(25.2966)" gradientUnits="userSpaceOnUse"><stop offset=".598" stop-color="#DDDADF"/><stop offset="1" stop-color="#BDBABF"/></radialGradient><radialGradient id="f1523id1" cx="0" cy="0" r="1" gradientTransform="rotate(146.437 5.402 11.367) scale(1.95012 1.33455)" gradientUnits="userSpaceOnUse"><stop offset=".293" stop-color="#911A57"/><stop offset="1" stop-color="#911A57" stop-opacity="0"/></radialGradient><radialGradient id="f1523id2" cx="0" cy="0" r="1" gradientTransform="rotate(120 6.806 11.093) scale(5.73026 .81528)" gradientUnits="userSpaceOnUse"><stop stop-color="#50375F"/><stop offset="1" stop-color="#50375F" stop-opacity="0"/></radialGradient><radialGradient id="f1523id3" cx="0" cy="0" r="1" gradientTransform="rotate(134.039 5.232 11.466) scale(3.40442)" gradientUnits="userSpaceOnUse"><stop stop-color="#C9C6CC"/><stop offset="1" stop-color="#928E95"/></radialGradient><radialGradient id="f1523id4" cx="0" cy="0" r="1" gradientTransform="rotate(139.399 5.406 10.883) scale(2.88111)" gradientUnits="userSpaceOnUse"><stop offset=".527" stop-color="#776F7F" stop-opacity="0"/><stop offset="1" stop-color="#776F7F"/></radialGradient><linearGradient id="f1523id5" x1="16.029" x2="16.029" y1="15.134" y2="25.129" gradientUnits="userSpaceOnUse"><stop stop-color="#F83F4C"/><stop offset="1" stop-color="#F74093"/></linearGradient><linearGradient id="f1523id6" x1="19.484" x2="16.578" y1="10.1" y2="15.133" gradientUnits="userSpaceOnUse"><stop stop-color="#32183D"/><stop offset="1" stop-color="#2C3A65"/></linearGradient><linearGradient id="f1523id7" x1="17.102" x2="17.968" y1="12.225" y2="12.725" gradientUnits="userSpaceOnUse"><stop stop-color="#2E2840"/><stop offset="1" stop-color="#2E2840" stop-opacity="0"/></linearGradient><linearGradient id="f1523id8" x1="19.484" x2="19.125" y1="10.1" y2="10.722" gradientUnits="userSpaceOnUse"><stop stop-color="#3E1846"/><stop offset="1" stop-color="#3E1846" stop-opacity="0"/></linearGradient><linearGradient id="f1523id9" x1="24.511" x2="4.284" y1="4.136" y2="28.656" gradientUnits="userSpaceOnUse"><stop stop-color="#6D6B70"/><stop offset="1" stop-color="#706C74"/></linearGradient><filter id="f1523ida" width="8.941" height="18.163" x="11.542" y="8.466" color-interpolation-filters="sRGB" filterUnits="userSpaceOnUse"><feFlood flood-opacity="0" result="BackgroundImageFix"/><feBlend in="SourceGraphic" in2="BackgroundImageFix" result="shape"/><feGaussianBlur result="effect1_foregroundBlur_18_13507" stdDeviation=".75"/></filter><filter id="f1523idb" width="2.6" height="9.995" x="15.029" y="15.134" color-interpolation-filters="sRGB" filterUnits="userSpaceOnUse"><feFlood flood-opacity="0" result="BackgroundImageFix"/><feBlend in="SourceGraphic" in2="BackgroundImageFix" result="shape"/><feColorMatrix in="SourceAlpha" result="hardAlpha" values="0 0 0 0 0 0 0 0 0 0 0 0 0 0 0 0 0 0 127 0"/><feOffset dx=".6"/><feGaussianBlur stdDeviation=".425"/><feComposite in2="hardAlpha" k2="-1" k3="1" operator="arithmetic"/><feColorMatrix values="0 0 0 0 0.635294 0 0 0 0 0.227451 0 0 0 0 0.403922 0 0 0 1 0"/><feBlend in2="shape" result="effect1_innerShadow_18_13507"/></filter><filter id="f1523idc" width="28.8" height="28.8" x="1.6" y="1.723" color-interpolation-filters="sRGB" filterUnits="userSpaceOnUse"><feFlood flood-opacity="0" result="BackgroundImageFix"/><feBlend in="SourceGraphic" in2="BackgroundImageFix" result="shape"/><feColorMatrix in="SourceAlpha" result="hardAlpha" values="0 0 0 0 0 0 0 0 0 0 0 0 0 0 0 0 0 0 127 0"/><feOffset dx=".4" dy="-.4"/><feGaussianBlur stdDeviation=".3"/><feComposite in2="hardAlpha" k2="-1" k3="1" operator="arithmetic"/><feColorMatrix values="0 0 0 0 0.282353 0 0 0 0 0.254902 0 0 0 0 0.313726 0 0 0 1 0"/><feBlend in2="shape" result="effect1_innerShadow_18_13507"/><feColorMatrix in="SourceAlpha" result="hardAlpha" values="0 0 0 0 0 0 0 0 0 0 0 0 0 0 0 0 0 0 127 0"/><feOffset dx="-.4" dy=".4"/><feGaussianBlur stdDeviation=".3"/><feComposite in2="hardAlpha" k2="-1" k3="1" operator="arithmetic"/><feColorMatrix values="0 0 0 0 0.533333 0 0 0 0 0.533333 0 0 0 0 0.533333 0 0 0 1 0"/><feBlend in2="effect1_innerShadow_18_13507" result="effect2_innerShadow_18_13507"/></filter></defs></g></svg>