<svg xmlns="http://www.w3.org/2000/svg"  viewBox="0 0 32 32"><g fill="none"><circle cx="5.379" cy="22.251" r="1.551" fill="url(#f355id0)"/><circle cx="26.633" cy="22.263" r="1.551" fill="url(#f355id1)"/><circle cx="26.633" cy="22.263" r="1.551" fill="url(#f355id2)"/><path fill="url(#f355id3)" d="M9.008 12.083c-.6.9-1.037 2.125-1.188 2.594l2.344 1.687l1.79-2.266a29.45 29.45 0 0 0-1-1.425a13.435 13.435 0 0 0-.9-1.016l-1.046.426Z"/><path fill="url(#f355id4)" d="M9.008 12.083c-.6.9-1.037 2.125-1.188 2.594l2.344 1.687l1.79-2.266a29.45 29.45 0 0 0-1-1.425a13.435 13.435 0 0 0-.9-1.016l-1.046.426Z"/><path fill="url(#f355id5)" d="M22.992 12.083c.6.9 1.037 2.125 1.188 2.594l-2.344 1.687l-1.79-2.266c.212-.325.713-1.05 1-1.425c.288-.375.722-.834.9-1.016l1.046.426Z"/><path fill="url(#f355id6)" d="M22.992 12.083c.6.9 1.037 2.125 1.188 2.594l-2.344 1.687l-1.79-2.266c.212-.325.713-1.05 1-1.425c.288-.375.722-.834.9-1.016l1.046.426Z"/><path fill="url(#f355id7)" d="M22.992 12.083c.6.9 1.037 2.125 1.188 2.594l-2.344 1.687l-1.79-2.266c.212-.325.713-1.05 1-1.425c.288-.375.722-.834.9-1.016l1.046.426Z"/><g filter="url(#f355id10)"><path fill="url(#f355id16)" d="m3.125 12.153l3.106 15.159A1.6 1.6 0 0 0 7.8 28.59h16.4a1.6 1.6 0 0 0 1.568-1.28l3.106-15.158l-.992-.484c-1.484 1.078-4.592 3.289-5.394 3.773c-.64.386-1.228-.243-1.35-.422c-1.117-1.64-2.822-4.028-3.46-4.867c-.652-.86-1.39-1.284-1.679-1.32c-.289.036-1.027.46-1.68 1.32c-.637.839-2.341 3.227-3.459 4.867c-.122.179-.71.809-1.35.422c-.802-.484-3.91-2.695-5.394-3.773l-.992.484Z"/><path fill="url(#f355id8)" d="m3.125 12.153l3.106 15.159A1.6 1.6 0 0 0 7.8 28.59h16.4a1.6 1.6 0 0 0 1.568-1.28l3.106-15.158l-.992-.484c-1.484 1.078-4.592 3.289-5.394 3.773c-.64.386-1.228-.243-1.35-.422c-1.117-1.64-2.822-4.028-3.46-4.867c-.652-.86-1.39-1.284-1.679-1.32c-.289.036-1.027.46-1.68 1.32c-.637.839-2.341 3.227-3.459 4.867c-.122.179-.71.809-1.35.422c-.802-.484-3.91-2.695-5.394-3.773l-.992.484Z"/></g><path fill="url(#f355id17)" d="m3.125 12.153l3.106 15.159A1.6 1.6 0 0 0 7.8 28.59h16.4a1.6 1.6 0 0 0 1.568-1.28l3.106-15.158l-.992-.484c-1.484 1.078-4.592 3.289-5.394 3.773c-.64.386-1.228-.243-1.35-.422c-1.117-1.64-2.822-4.028-3.46-4.867c-.652-.86-1.39-1.284-1.679-1.32c-.289.036-1.027.46-1.68 1.32c-.637.839-2.341 3.227-3.459 4.867c-.122.179-.71.809-1.35.422c-.802-.484-3.91-2.695-5.394-3.773l-.992.484Z"/><path fill="url(#f355id18)" d="m3.125 12.153l3.106 15.159A1.6 1.6 0 0 0 7.8 28.59h16.4a1.6 1.6 0 0 0 1.568-1.28l3.106-15.158l-.992-.484c-1.484 1.078-4.592 3.289-5.394 3.773c-.64.386-1.228-.243-1.35-.422c-1.117-1.64-2.822-4.028-3.46-4.867c-.652-.86-1.39-1.284-1.679-1.32c-.289.036-1.027.46-1.68 1.32c-.637.839-2.341 3.227-3.459 4.867c-.122.179-.71.809-1.35.422c-.802-.484-3.91-2.695-5.394-3.773l-.992.484Z"/><path fill="url(#f355id19)" d="m3.125 12.153l3.106 15.159A1.6 1.6 0 0 0 7.8 28.59h16.4a1.6 1.6 0 0 0 1.568-1.28l3.106-15.158l-.992-.484c-1.484 1.078-4.592 3.289-5.394 3.773c-.64.386-1.228-.243-1.35-.422c-1.117-1.64-2.822-4.028-3.46-4.867c-.652-.86-1.39-1.284-1.679-1.32c-.289.036-1.027.46-1.68 1.32c-.637.839-2.341 3.227-3.459 4.867c-.122.179-.71.809-1.35.422c-.802-.484-3.91-2.695-5.394-3.773l-.992.484Z"/><path fill="url(#f355id9)" d="m3.125 12.153l3.106 15.159A1.6 1.6 0 0 0 7.8 28.59h16.4a1.6 1.6 0 0 0 1.568-1.28l3.106-15.158l-.992-.484c-1.484 1.078-4.592 3.289-5.394 3.773c-.64.386-1.228-.243-1.35-.422c-1.117-1.64-2.822-4.028-3.46-4.867c-.652-.86-1.39-1.284-1.679-1.32c-.289.036-1.027.46-1.68 1.32c-.637.839-2.341 3.227-3.459 4.867c-.122.179-.71.809-1.35.422c-.802-.484-3.91-2.695-5.394-3.773l-.992.484Z"/><path fill="url(#f355ida)" d="m3.125 12.153l3.106 15.159A1.6 1.6 0 0 0 7.8 28.59h16.4a1.6 1.6 0 0 0 1.568-1.28l3.106-15.158l-.992-.484c-1.484 1.078-4.592 3.289-5.394 3.773c-.64.386-1.228-.243-1.35-.422c-1.117-1.64-2.822-4.028-3.46-4.867c-.652-.86-1.39-1.284-1.679-1.32c-.289.036-1.027.46-1.68 1.32c-.637.839-2.341 3.227-3.459 4.867c-.122.179-.71.809-1.35.422c-.802-.484-3.91-2.695-5.394-3.773l-.992.484Z"/><path fill="url(#f355idb)" d="m3.125 12.153l3.106 15.159A1.6 1.6 0 0 0 7.8 28.59h16.4a1.6 1.6 0 0 0 1.568-1.28l3.106-15.158l-.992-.484c-1.484 1.078-4.592 3.289-5.394 3.773c-.64.386-1.228-.243-1.35-.422c-1.117-1.64-2.822-4.028-3.46-4.867c-.652-.86-1.39-1.284-1.679-1.32c-.289.036-1.027.46-1.68 1.32c-.637.839-2.341 3.227-3.459 4.867c-.122.179-.71.809-1.35.422c-.802-.484-3.91-2.695-5.394-3.773l-.992.484Z"/><g filter="url(#f355id11)"><path fill="url(#f355idc)" d="M23.78 22.743c-.266.814-1.118 1.222-1.932.957c-.614-.25-.879-.951-.614-1.765c.265-.815 1.1-1.282 1.606-1.118c.814.265 1.204 1.111.94 1.926Z"/><path fill="url(#f355idd)" d="M23.78 22.743c-.266.814-1.118 1.222-1.932.957c-.614-.25-.879-.951-.614-1.765c.265-.815 1.1-1.282 1.606-1.118c.814.265 1.204 1.111.94 1.926Z"/></g><g filter="url(#f355id12)"><path fill="url(#f355ide)" d="M8.297 22.743c.265.814 1.117 1.222 1.932.957c.613-.25.878-.951.613-1.765c-.265-.815-1.1-1.282-1.605-1.118c-.815.265-1.205 1.111-.94 1.926Z"/><path fill="url(#f355idf)" d="M8.297 22.743c.265.814 1.117 1.222 1.932.957c.613-.25.878-.951.613-1.765c-.265-.815-1.1-1.282-1.605-1.118c-.815.265-1.205 1.111-.94 1.926Z"/></g><path fill="url(#f355idg)" d="M4.922 11.925a1.39 1.39 0 1 1-2.781 0a1.39 1.39 0 0 1 2.78 0Z"/><path fill="url(#f355idh)" d="M4.922 11.925a1.39 1.39 0 1 1-2.781 0a1.39 1.39 0 0 1 2.78 0Z"/><path fill="url(#f355idi)" d="M4.922 11.925a1.39 1.39 0 1 1-2.781 0a1.39 1.39 0 0 1 2.78 0Z"/><path fill="url(#f355idj)" d="M4.922 11.925a1.39 1.39 0 1 1-2.781 0a1.39 1.39 0 0 1 2.78 0Z"/><path fill="url(#f355idk)" d="M10.28 12.18a1.39 1.39 0 1 0-1.355.028a.667.667 0 0 1 .419-.02c.214.062.566.14.937-.008Z"/><path fill="url(#f355idl)" d="M10.28 12.18a1.39 1.39 0 1 0-1.355.028a.667.667 0 0 1 .419-.02c.214.062.566.14.937-.008Z"/><path fill="url(#f355idm)" d="M10.28 12.18a1.39 1.39 0 1 0-1.355.028a.667.667 0 0 1 .419-.02c.214.062.566.14.937-.008Z"/><path fill="url(#f355idn)" d="M10.28 12.18a1.39 1.39 0 1 0-1.355.028a.667.667 0 0 1 .419-.02c.214.062.566.14.937-.008Z"/><g filter="url(#f355id13)"><path fill="url(#f355ido)" d="M21.72 12.18a1.39 1.39 0 1 1 1.355.028a.667.667 0 0 0-.419-.02c-.214.062-.566.14-.937-.008Z"/><path fill="url(#f355idp)" d="M21.72 12.18a1.39 1.39 0 1 1 1.355.028a.667.667 0 0 0-.419-.02c-.214.062-.566.14-.937-.008Z"/></g><g filter="url(#f355id14)"><circle cx="16.038" cy="22.326" r="2.468" fill="url(#f355idq)"/></g><g stroke-width=".15" filter="url(#f355id15)"><path stroke="url(#f355id1a)" d="M16.21 9.355c.173-.02.613.069 1 .594c.388.525 2.746 3.885 3.876 5.5c.219.338.866.872 1.703.297c.838-.575 3.531-2.525 4.547-3.202"/><path stroke="url(#f355idr)" d="M16.21 9.355c.173-.02.613.069 1 .594c.388.525 2.746 3.885 3.876 5.5c.219.338.866.872 1.703.297c.838-.575 3.531-2.525 4.547-3.202"/></g><circle cx="15.996" cy="7.645" r="1.801" fill="url(#f355ids)"/><circle cx="15.996" cy="7.645" r="1.801" fill="url(#f355idt)"/><circle cx="15.996" cy="7.645" r="1.801" fill="url(#f355idu)"/><circle cx="15.996" cy="7.645" r="1.801" fill="url(#f355idv)"/><path fill="url(#f355idw)" d="M29.922 11.925a1.39 1.39 0 1 1-2.781 0a1.39 1.39 0 0 1 2.78 0Z"/><path fill="url(#f355idx)" d="M29.922 11.925a1.39 1.39 0 1 1-2.781 0a1.39 1.39 0 0 1 2.78 0Z"/><path fill="url(#f355idy)" d="M29.922 11.925a1.39 1.39 0 1 1-2.781 0a1.39 1.39 0 0 1 2.78 0Z"/><path fill="url(#f355idz)" d="M29.922 11.925a1.39 1.39 0 1 1-2.781 0a1.39 1.39 0 0 1 2.78 0Z"/><defs><radialGradient id="f355id0" cx="0" cy="0" r="1" gradientTransform="rotate(-103.54 11.846 9.505) scale(1.75182 2.1567)" gradientUnits="userSpaceOnUse"><stop stop-color="#395DE0"/><stop offset="1" stop-color="#2C68A3"/></radialGradient><radialGradient id="f355id1" cx="0" cy="0" r="1" gradientTransform="rotate(108.743 6.278 20.379) scale(2.99062)" gradientUnits="userSpaceOnUse"><stop offset=".249" stop-color="#3DB3F3"/><stop offset="1" stop-color="#5B73F4"/></radialGradient><radialGradient id="f355id2" cx="0" cy="0" r="1" gradientTransform="matrix(-1.32813 .45312 -.28728 -.84206 28.092 21.654)" gradientUnits="userSpaceOnUse"><stop offset=".258" stop-color="#5FBEFF"/><stop offset="1" stop-color="#5FBEFF" stop-opacity="0"/></radialGradient><radialGradient id="f355id3" cx="0" cy="0" r="1" gradientTransform="matrix(3.0625 .875 -2.18396 7.64387 8.656 13.56)" gradientUnits="userSpaceOnUse"><stop stop-color="#FBC96E"/><stop offset="1" stop-color="#FAC567"/></radialGradient><radialGradient id="f355id4" cx="0" cy="0" r="1" gradientTransform="matrix(-2.21876 -.95312 2.86654 -6.67303 10.531 14.247)" gradientUnits="userSpaceOnUse"><stop offset=".765" stop-color="#D89F3A" stop-opacity="0"/><stop offset=".911" stop-color="#DAA139"/></radialGradient><radialGradient id="f355id5" cx="0" cy="0" r="1" gradientTransform="rotate(-125.455 15.932 1.594) scale(2.53202 2.59683)" gradientUnits="userSpaceOnUse"><stop offset=".254" stop-color="#BF812A"/><stop offset="1" stop-color="#CE9333"/></radialGradient><radialGradient id="f355id6" cx="0" cy="0" r="1" gradientTransform="matrix(2.01563 -.85936 2.23878 5.25103 21.922 14.262)" gradientUnits="userSpaceOnUse"><stop offset=".734" stop-color="#E9BB61" stop-opacity="0"/><stop offset=".929" stop-color="#E9BB61"/></radialGradient><radialGradient id="f355id7" cx="0" cy="0" r="1" gradientTransform="rotate(-142.922 14.106 3.55) scale(3.4469 5.81507)" gradientUnits="userSpaceOnUse"><stop offset=".773" stop-color="#C18739" stop-opacity="0"/><stop offset=".948" stop-color="#C18739"/></radialGradient><radialGradient id="f355id8" cx="0" cy="0" r="1" gradientTransform="matrix(3.86736 -10.30052 20.04813 7.52713 12.133 31.859)" gradientUnits="userSpaceOnUse"><stop stop-color="#F67B4E"/><stop offset="1" stop-color="#F67B4E" stop-opacity="0"/></radialGradient><radialGradient id="f355id9" cx="0" cy="0" r="1" gradientTransform="matrix(-.99999 2.3125 -1.91688 -.82891 28.063 12.403)" gradientUnits="userSpaceOnUse"><stop offset=".377" stop-color="#DD9049"/><stop offset="1" stop-color="#F8BF60" stop-opacity="0"/></radialGradient><radialGradient id="f355ida" cx="0" cy="0" r="1" gradientTransform="matrix(.89062 1.84375 -1.00848 .48715 4.047 12.544)" gradientUnits="userSpaceOnUse"><stop offset=".196" stop-color="#D7783D"/><stop offset="1" stop-color="#D7783D" stop-opacity="0"/></radialGradient><radialGradient id="f355idb" cx="0" cy="0" r="1" gradientTransform="matrix(.28125 1.1328 -2.4807 .6159 16 8.833)" gradientUnits="userSpaceOnUse"><stop offset=".382" stop-color="#D48C33"/><stop offset="1" stop-color="#FEB16A" stop-opacity="0"/></radialGradient><radialGradient id="f355idc" cx="0" cy="0" r="1" gradientTransform="matrix(1.4375 -1.8125 1.16953 .92756 22.031 23.06)" gradientUnits="userSpaceOnUse"><stop stop-color="#FF196C"/><stop offset="1" stop-color="#FF1F4A"/></radialGradient><radialGradient id="f355idd" cx="0" cy="0" r="1" gradientTransform="matrix(-1.50001 .875 -.55423 -.95013 23.625 21.84)" gradientUnits="userSpaceOnUse"><stop offset=".223" stop-color="#FF5873"/><stop offset="1" stop-color="#FF5873" stop-opacity="0"/></radialGradient><radialGradient id="f355ide" cx="0" cy="0" r="1" gradientTransform="rotate(-104.281 13.893 7.747) scale(1.77356 1.69812)" gradientUnits="userSpaceOnUse"><stop stop-color="#F6196C"/><stop offset="1" stop-color="#E42047"/></radialGradient><radialGradient id="f355idf" cx="0" cy="0" r="1" gradientTransform="matrix(-.79688 .35937 -.31478 -.698 10.547 22.044)" gradientUnits="userSpaceOnUse"><stop stop-color="#FE536F"/><stop offset="1" stop-color="#FE536F" stop-opacity="0"/></radialGradient><radialGradient id="f355idg" cx="0" cy="0" r="1" gradientTransform="rotate(135.198 .066 6.447) scale(2.97287 3.09287)" gradientUnits="userSpaceOnUse"><stop offset=".172" stop-color="#E7C04E"/><stop offset="1" stop-color="#D9972A"/></radialGradient><radialGradient id="f355idh" cx="0" cy="0" r="1" gradientTransform="rotate(-71.331 11.013 4.506) scale(1.65959 1.79772)" gradientUnits="userSpaceOnUse"><stop offset=".065" stop-color="#DF8089"/><stop offset="1" stop-color="#DF8089" stop-opacity="0"/></radialGradient><radialGradient id="f355idi" cx="0" cy="0" r="1" gradientTransform="matrix(-1.09375 .88517 -.45743 -.56522 4.767 11.039)" gradientUnits="userSpaceOnUse"><stop stop-color="#FFDE71"/><stop offset="1" stop-color="#FFDE71" stop-opacity="0"/></radialGradient><radialGradient id="f355idj" cx="0" cy="0" r="1" gradientTransform="matrix(-1.875 0 0 -1.94872 4.016 12.014)" gradientUnits="userSpaceOnUse"><stop offset=".488" stop-color="#E1AD3D" stop-opacity="0"/><stop offset="1" stop-color="#B9894B"/></radialGradient><radialGradient id="f355idk" cx="0" cy="0" r="1" gradientTransform="rotate(136.302 3.344 7.152) scale(2.91757 3.03227)" gradientUnits="userSpaceOnUse"><stop offset=".172" stop-color="#E7C04E"/><stop offset="1" stop-color="#D9972A"/></radialGradient><radialGradient id="f355idl" cx="0" cy="0" r="1" gradientTransform="matrix(-1.09376 .85168 -.4363 -.5603 10.812 10.075)" gradientUnits="userSpaceOnUse"><stop stop-color="#FFDE71"/><stop offset="1" stop-color="#FFDE71" stop-opacity="0"/></radialGradient><radialGradient id="f355idm" cx="0" cy="0" r="1" gradientTransform="matrix(.29688 -1.26563 1.68798 .39595 9.578 12.434)" gradientUnits="userSpaceOnUse"><stop stop-color="#E4A122"/><stop offset="1" stop-color="#E4A122" stop-opacity="0"/></radialGradient><radialGradient id="f355idn" cx="0" cy="0" r="1" gradientTransform="rotate(180 5.031 5.506) scale(1.875)" gradientUnits="userSpaceOnUse"><stop offset=".488" stop-color="#E1AD3D" stop-opacity="0"/><stop offset="1" stop-color="#B9894B"/></radialGradient><radialGradient id="f355ido" cx="0" cy="0" r="1" gradientTransform="rotate(136.32 9.637 9.936) scale(2.39817 2.49246)" gradientUnits="userSpaceOnUse"><stop offset=".172" stop-color="#F0C950"/><stop offset="1" stop-color="#C8861F"/></radialGradient><radialGradient id="f355idp" cx="0" cy="0" r="1" gradientTransform="matrix(-1.125 .72668 -.37226 -.5763 23.672 10.2)" gradientUnits="userSpaceOnUse"><stop offset=".184" stop-color="#FFDE71"/><stop offset="1" stop-color="#FFDE71" stop-opacity="0"/></radialGradient><radialGradient id="f355idq" cx="0" cy="0" r="1" gradientTransform="rotate(138.155 4.441 14.053) scale(2.81059)" gradientUnits="userSpaceOnUse"><stop stop-color="#5FBFFF"/><stop offset="1" stop-color="#3E94FF"/></radialGradient><radialGradient id="f355idr" cx="0" cy="0" r="1" gradientTransform="matrix(5.34375 -3.69576 .98987 1.43127 22.555 16.372)" gradientUnits="userSpaceOnUse"><stop offset=".289" stop-color="#FFD175"/><stop offset="1" stop-color="#FFD175" stop-opacity="0"/></radialGradient><radialGradient id="f355ids" cx="0" cy="0" r="1" gradientTransform="rotate(125.606 7.01 7.807) scale(3.43521 2.91657)" gradientUnits="userSpaceOnUse"><stop offset=".376" stop-color="#F3D154"/><stop offset="1" stop-color="#CC9848"/></radialGradient><radialGradient id="f355idt" cx="0" cy="0" r="1" gradientTransform="matrix(.33984 -1.80078 2.14062 .40398 15.656 9.446)" gradientUnits="userSpaceOnUse"><stop stop-color="#E78F5E"/><stop offset="1" stop-color="#E78F5E" stop-opacity="0"/></radialGradient><radialGradient id="f355idu" cx="0" cy="0" r="1" gradientTransform="matrix(-3 -1.96876 2.35473 -3.58814 16.75 8.247)" gradientUnits="userSpaceOnUse"><stop offset=".557" stop-color="#E9C251" stop-opacity="0"/><stop offset="1" stop-color="#B49858"/></radialGradient><radialGradient id="f355idv" cx="0" cy="0" r="1" gradientTransform="matrix(-1.8125 .8047 -.61925 -1.3948 18.063 6.84)" gradientUnits="userSpaceOnUse"><stop stop-color="#FFED77"/><stop offset="1" stop-color="#FFED77" stop-opacity="0"/></radialGradient><radialGradient id="f355idw" cx="0" cy="0" r="1" gradientTransform="rotate(135.198 12.566 11.6) scale(2.97287 3.09287)" gradientUnits="userSpaceOnUse"><stop offset=".172" stop-color="#F8CB54"/><stop offset="1" stop-color="#EAA34B"/></radialGradient><radialGradient id="f355idx" cx="0" cy="0" r="1" gradientTransform="matrix(.53125 -1.57226 2.12522 .71809 28.219 13.497)" gradientUnits="userSpaceOnUse"><stop offset=".16" stop-color="#F1907C"/><stop offset="1" stop-color="#F1907C" stop-opacity="0"/></radialGradient><radialGradient id="f355idy" cx="0" cy="0" r="1" gradientTransform="matrix(-1.09375 .88517 -.45743 -.56522 29.768 11.04)" gradientUnits="userSpaceOnUse"><stop stop-color="#FFDE71"/><stop offset="1" stop-color="#FFDE71" stop-opacity="0"/></radialGradient><radialGradient id="f355idz" cx="0" cy="0" r="1" gradientTransform="matrix(-1.875 0 0 -1.94872 29.016 12.014)" gradientUnits="userSpaceOnUse"><stop offset=".488" stop-color="#E0A444" stop-opacity="0"/><stop offset="1" stop-color="#C6924D"/></radialGradient><filter id="f355id10" width="26.55" height="19.858" x="2.725" y="8.733" color-interpolation-filters="sRGB" filterUnits="userSpaceOnUse"><feFlood flood-opacity="0" result="BackgroundImageFix"/><feBlend in="SourceGraphic" in2="BackgroundImageFix" result="shape"/><feColorMatrix in="SourceAlpha" result="hardAlpha" values="0 0 0 0 0 0 0 0 0 0 0 0 0 0 0 0 0 0 127 0"/><feOffset dx=".4" dy="-.1"/><feGaussianBlur stdDeviation=".25"/><feComposite in2="hardAlpha" k2="-1" k3="1" operator="arithmetic"/><feColorMatrix values="0 0 0 0 0.803922 0 0 0 0 0.580392 0 0 0 0 0.262745 0 0 0 1 0"/><feBlend in2="shape" result="effect1_innerShadow_18_17387"/><feColorMatrix in="SourceAlpha" result="hardAlpha" values="0 0 0 0 0 0 0 0 0 0 0 0 0 0 0 0 0 0 127 0"/><feOffset dx="-.4" dy="-.1"/><feGaussianBlur stdDeviation=".25"/><feComposite in2="hardAlpha" k2="-1" k3="1" operator="arithmetic"/><feColorMatrix values="0 0 0 0 0.894118 0 0 0 0 0.686275 0 0 0 0 0.301961 0 0 0 1 0"/><feBlend in2="effect1_innerShadow_18_17387" result="effect2_innerShadow_18_17387"/></filter><filter id="f355id11" width="4.23" height="4.496" x="20.132" y="20.285" color-interpolation-filters="sRGB" filterUnits="userSpaceOnUse"><feFlood flood-opacity="0" result="BackgroundImageFix"/><feColorMatrix in="SourceAlpha" result="hardAlpha" values="0 0 0 0 0 0 0 0 0 0 0 0 0 0 0 0 0 0 127 0"/><feOffset dx="-.25" dy=".25"/><feGaussianBlur stdDeviation=".375"/><feComposite in2="hardAlpha" operator="out"/><feColorMatrix values="0 0 0 0 1 0 0 0 0 0.54902 0 0 0 0 0.305882 0 0 0 1 0"/><feBlend in2="BackgroundImageFix" result="effect1_dropShadow_18_17387"/><feBlend in="SourceGraphic" in2="effect1_dropShadow_18_17387" result="shape"/><feColorMatrix in="SourceAlpha" result="hardAlpha" values="0 0 0 0 0 0 0 0 0 0 0 0 0 0 0 0 0 0 127 0"/><feOffset dx=".15" dy="-.15"/><feGaussianBlur stdDeviation=".25"/><feComposite in2="hardAlpha" k2="-1" k3="1" operator="arithmetic"/><feColorMatrix values="0 0 0 0 0.984314 0 0 0 0 0.219608 0 0 0 0 0.254902 0 0 0 1 0"/><feBlend in2="shape" result="effect2_innerShadow_18_17387"/></filter><filter id="f355id12" width="4.23" height="4.496" x="7.215" y="20.285" color-interpolation-filters="sRGB" filterUnits="userSpaceOnUse"><feFlood flood-opacity="0" result="BackgroundImageFix"/><feColorMatrix in="SourceAlpha" result="hardAlpha" values="0 0 0 0 0 0 0 0 0 0 0 0 0 0 0 0 0 0 127 0"/><feOffset dx="-.25" dy=".25"/><feGaussianBlur stdDeviation=".375"/><feComposite in2="hardAlpha" operator="out"/><feColorMatrix values="0 0 0 0 0.905882 0 0 0 0 0.439216 0 0 0 0 0.278431 0 0 0 1 0"/><feBlend in2="BackgroundImageFix" result="effect1_dropShadow_18_17387"/><feBlend in="SourceGraphic" in2="effect1_dropShadow_18_17387" result="shape"/><feColorMatrix in="SourceAlpha" result="hardAlpha" values="0 0 0 0 0 0 0 0 0 0 0 0 0 0 0 0 0 0 127 0"/><feOffset dx=".3" dy=".3"/><feGaussianBlur stdDeviation=".3"/><feComposite in2="hardAlpha" k2="-1" k3="1" operator="arithmetic"/><feColorMatrix values="0 0 0 0 0.796078 0 0 0 0 0.141176 0 0 0 0 0.223529 0 0 0 1 0"/><feBlend in2="shape" result="effect2_innerShadow_18_17387"/></filter><filter id="f355id13" width="2.781" height="2.676" x="21.031" y="9.589" color-interpolation-filters="sRGB" filterUnits="userSpaceOnUse"><feFlood flood-opacity="0" result="BackgroundImageFix"/><feBlend in="SourceGraphic" in2="BackgroundImageFix" result="shape"/><feColorMatrix in="SourceAlpha" result="hardAlpha" values="0 0 0 0 0 0 0 0 0 0 0 0 0 0 0 0 0 0 127 0"/><feOffset/><feGaussianBlur stdDeviation=".125"/><feComposite in2="hardAlpha" k2="-1" k3="1" operator="arithmetic"/><feColorMatrix values="0 0 0 0 0.756863 0 0 0 0 0.619608 0 0 0 0 0.321569 0 0 0 1 0"/><feBlend in2="shape" result="effect1_innerShadow_18_17387"/></filter><filter id="f355id14" width="7.436" height="7.436" x="11.82" y="19.108" color-interpolation-filters="sRGB" filterUnits="userSpaceOnUse"><feFlood flood-opacity="0" result="BackgroundImageFix"/><feColorMatrix in="SourceAlpha" result="hardAlpha" values="0 0 0 0 0 0 0 0 0 0 0 0 0 0 0 0 0 0 127 0"/><feOffset dx="-.5" dy=".5"/><feGaussianBlur stdDeviation=".625"/><feComposite in2="hardAlpha" operator="out"/><feColorMatrix values="0 0 0 0 0.937255 0 0 0 0 0.443137 0 0 0 0 0.376471 0 0 0 1 0"/><feBlend in2="BackgroundImageFix" result="effect1_dropShadow_18_17387"/><feBlend in="SourceGraphic" in2="effect1_dropShadow_18_17387" result="shape"/><feColorMatrix in="SourceAlpha" result="hardAlpha" values="0 0 0 0 0 0 0 0 0 0 0 0 0 0 0 0 0 0 127 0"/><feOffset dx=".75" dy="-.75"/><feGaussianBlur stdDeviation=".75"/><feComposite in2="hardAlpha" k2="-1" k3="1" operator="arithmetic"/><feColorMatrix values="0 0 0 0 0.313726 0 0 0 0 0.384314 0 0 0 0 1 0 0 0 1 0"/><feBlend in2="shape" result="effect2_innerShadow_18_17387"/></filter><filter id="f355id15" width="11.476" height="7.098" x="16.052" y="9.127" color-interpolation-filters="sRGB" filterUnits="userSpaceOnUse"><feFlood flood-opacity="0" result="BackgroundImageFix"/><feBlend in="SourceGraphic" in2="BackgroundImageFix" result="shape"/><feGaussianBlur result="effect1_foregroundBlur_18_17387" stdDeviation=".075"/></filter><linearGradient id="f355id16" x1="23.206" x2="5.54" y1="20.58" y2="24.7" gradientUnits="userSpaceOnUse"><stop stop-color="#FFBC5D"/><stop offset=".304" stop-color="#FCAD6A"/><stop offset="1" stop-color="#CB7547"/></linearGradient><linearGradient id="f355id17" x1="5.281" x2="8" y1="24.278" y2="23.716" gradientUnits="userSpaceOnUse"><stop stop-color="#C2794C"/><stop offset="1" stop-color="#E07648" stop-opacity="0"/></linearGradient><linearGradient id="f355id18" x1="26.625" x2="22" y1="26.028" y2="24.966" gradientUnits="userSpaceOnUse"><stop offset=".129" stop-color="#FFBB5B"/><stop offset="1" stop-color="#FFBB5B" stop-opacity="0"/></linearGradient><linearGradient id="f355id19" x1="17.438" x2="17.438" y1="28.872" y2="27.684" gradientUnits="userSpaceOnUse"><stop offset=".184" stop-color="#FF6F8C"/><stop offset="1" stop-color="#FF7A6A" stop-opacity="0"/></linearGradient><linearGradient id="f355id1a" x1="16.211" x2="22.555" y1="9.153" y2="17.153" gradientUnits="userSpaceOnUse"><stop stop-color="#FFD678"/><stop offset="1" stop-color="#FFD678" stop-opacity="0"/></linearGradient></defs></g></svg>