<svg xmlns="http://www.w3.org/2000/svg" width="128" height="128" viewBox="0 0 32 32">
    <g fill="none">
        <path fill="url(#f607id0)" d="M16 30c7.732 0 14-6.268 14-14S23.732 2 16 2S2 8.268 2 16s6.268 14 14 14Z"/>
        <path fill="url(#f607id1)" d="M16 30c7.732 0 14-6.268 14-14S23.732 2 16 2S2 8.268 2 16s6.268 14 14 14Z"/>
        <path fill="url(#f607id2)" d="M16 30c7.732 0 14-6.268 14-14S23.732 2 16 2S2 8.268 2 16s6.268 14 14 14Z"/>
        <g filter="url(#f607id7)">
            <path fill="url(#f607id4)"
                  d="M13.086 5.044a.443.443 0 0 1-.152-.345a.494.494 0 0 0-.496-.507H10.7c-.408 0-.807-.17-1.094-.476a13.967 13.967 0 0 0-5.103 4.449h2.592c1.033 0 1.867.834 1.867 1.867v.963c0 .735.288 1.45.794 1.987l.934.983c.219.228.338.536.338.854v.466c0 .507.317.954.794 1.113c.982.336 1.968.657 2.954.978c.67.219 1.342.437 2.012.66c.08.04.169.06.258.06h1.35c.279 0 .497.218.497.497v.119a.388.388 0 0 1-.387.387a.602.602 0 0 0-.606.606v2.036c0 .725.596 1.32 1.32 1.32c.368 0 .666.299.666.666v3.625a.67.67 0 0 0 .676.675a.69.69 0 0 0 .516-.238l4.489-5.393c.169-.208.268-.476.268-.755v-.387c0-.655-.526-1.182-1.172-1.182h-.238a.576.576 0 0 1-.576-.576v-.516a1.45 1.45 0 0 0-.795-1.291l-.486-.238a3.382 3.382 0 0 0-1.49-.348h-2.602a.587.587 0 0 1-.586-.586a.409.409 0 0 0-.407-.407h-.169a.409.409 0 0 1-.407-.407v-.09a.492.492 0 0 0-.497-.496a.492.492 0 0 0-.496.496v.09c0 .278-.25.427-.528.427h-.594a.895.895 0 0 1-.864-.884v-.864c0-.695.556-1.252 1.25-1.252h.924c.447 0 .805.358.805.805c0 .1.08.189.189.189h.228a.568.568 0 0 0 .576-.567c0-.278-.725-.546-.576-.784l.902-2.027l-5.14-.11V5.045Z"/>
        </g>
        <g fill-rule="evenodd" clip-rule="evenodd" filter="url(#f607id8)">
            <path fill="url(#f607id3)"
                  d="M4.51 8h2.61C8.16 8 9 8.84 9 9.88v.97c0 .74.29 1.46.8 2l.94.99c.22.23.34.54.34.86v.47c0 .51.32.96.8 1.12c1.661.569 3.335 1.095 5 1.65c.08.04.17.06.26.06h1.36c.28 0 .5.22.5.5v.12c0 .22-.18.39-.39.39c-.34 0-.61.27-.61.61v2.05c0 .73.6 1.33 1.33 1.33c.37 0 .67.3.67.67v3.65c0 .38.3.68.68.68c.2 0 .39-.09.52-.24l4.52-5.43c.17-.21.27-.48.27-.76v-.39c0-.66-.53-1.19-1.18-1.19h-.24a.58.58 0 0 1-.58-.58v-.52c0-.55-.31-1.05-.8-1.3l-.49-.24c-.47-.23-.98-.35-1.5-.35h-2.62c-.33 0-.59-.27-.59-.59c0-.22-.18-.41-.41-.41h-.17c-.22 0-.41-.18-.41-.41v-.09c0-.28-.22-.5-.5-.5s-.5.22-.5.5v.09c0 .28-.251.43-.531.43h-.599a.901.901 0 0 1-.87-.89v-.87c0-.7.56-1.26 1.26-1.26h.93c.45 0 .81.36.81.81c0 .1.08.19.19.19h.23c.32 0 .58-.25.58-.57c0-.28.07-.55.22-.79l2.64-4.4c.08-.15.25-.24.42-.24h1.22c.28 0 .5-.22.5-.5s-.22-.5-.5-.5h-1.29a.47.47 0 0 1-.35-.15l-.59-.59a.933.933 0 0 1-.27-.65a.63.63 0 0 0-.63-.61h-.18c-.12 0-.23-.05-.31-.13l-.11-.11c-.29-.28-.1-.76.3-.76h1.44c.37 0 .74.13 1.03.36l3.83 3.06c.46.37 1.03.58 1.63.58l.492.002A14.047 14.047 0 0 0 21.206 3H15.91c-.56 0-1.07.31-1.32.81l-.46.91c-.08.17-.25.28-.44.28h-.17c-.27 0-.53-.21-.52-.49a.497.497 0 0 0-.5-.51h-1.75c-.411 0-.813-.172-1.101-.48A14.064 14.064 0 0 0 4.51 8ZM19 7.5c0 .28-.22.5-.5.5s-.5.22-.5.5s-.22.5-.5.5s-.5-.22-.5-.5s-.22-.5-.5-.5h-1c-.28 0-.5-.22-.5-.5s.22-.5.5-.5h1c.28 0 .5-.22.5-.5s.22-.5.5-.5s.5.22.5.5s.22.5.5.5s.5.22.5.5Z"/>
            <path fill="url(#f607id5)"
                  d="M4.51 8h2.61C8.16 8 9 8.84 9 9.88v.97c0 .74.29 1.46.8 2l.94.99c.22.23.34.54.34.86v.47c0 .51.32.96.8 1.12c1.661.569 3.335 1.095 5 1.65c.08.04.17.06.26.06h1.36c.28 0 .5.22.5.5v.12c0 .22-.18.39-.39.39c-.34 0-.61.27-.61.61v2.05c0 .73.6 1.33 1.33 1.33c.37 0 .67.3.67.67v3.65c0 .38.3.68.68.68c.2 0 .39-.09.52-.24l4.52-5.43c.17-.21.27-.48.27-.76v-.39c0-.66-.53-1.19-1.18-1.19h-.24a.58.58 0 0 1-.58-.58v-.52c0-.55-.31-1.05-.8-1.3l-.49-.24c-.47-.23-.98-.35-1.5-.35h-2.62c-.33 0-.59-.27-.59-.59c0-.22-.18-.41-.41-.41h-.17c-.22 0-.41-.18-.41-.41v-.09c0-.28-.22-.5-.5-.5s-.5.22-.5.5v.09c0 .28-.251.43-.531.43h-.599a.901.901 0 0 1-.87-.89v-.87c0-.7.56-1.26 1.26-1.26h.93c.45 0 .81.36.81.81c0 .1.08.19.19.19h.23c.32 0 .58-.25.58-.57c0-.28.07-.55.22-.79l2.64-4.4c.08-.15.25-.24.42-.24h1.22c.28 0 .5-.22.5-.5s-.22-.5-.5-.5h-1.29a.47.47 0 0 1-.35-.15l-.59-.59a.933.933 0 0 1-.27-.65a.63.63 0 0 0-.63-.61h-.18c-.12 0-.23-.05-.31-.13l-.11-.11c-.29-.28-.1-.76.3-.76h1.44c.37 0 .74.13 1.03.36l3.83 3.06c.46.37 1.03.58 1.63.58l.492.002A14.047 14.047 0 0 0 21.206 3H15.91c-.56 0-1.07.31-1.32.81l-.46.91c-.08.17-.25.28-.44.28h-.17c-.27 0-.53-.21-.52-.49a.497.497 0 0 0-.5-.51h-1.75c-.411 0-.813-.172-1.101-.48A14.064 14.064 0 0 0 4.51 8ZM19 7.5c0 .28-.22.5-.5.5s-.5.22-.5.5s-.22.5-.5.5s-.5-.22-.5-.5s-.22-.5-.5-.5h-1c-.28 0-.5-.22-.5-.5s.22-.5.5-.5h1c.28 0 .5-.22.5-.5s.22-.5.5-.5s.5.22.5.5s.22.5.5.5s.5.22.5.5Z"/>
        </g>
        <path fill="url(#f607id6)" fill-rule="evenodd"
              d="M4.51 8h2.61C8.16 8 9 8.84 9 9.88v.97c0 .74.29 1.46.8 2l.94.99c.22.23.34.54.34.86v.47c0 .51.32.96.8 1.12c1.661.569 3.335 1.095 5 1.65c.08.04.17.06.26.06h1.36c.28 0 .5.22.5.5v.12c0 .22-.18.39-.39.39c-.34 0-.61.27-.61.61v2.05c0 .73.6 1.33 1.33 1.33c.37 0 .67.3.67.67v3.65c0 .38.3.68.68.68c.2 0 .39-.09.52-.24l4.52-5.43c.17-.21.27-.48.27-.76v-.39c0-.66-.53-1.19-1.18-1.19h-.24a.58.58 0 0 1-.58-.58v-.52c0-.55-.31-1.05-.8-1.3l-.49-.24c-.47-.23-.98-.35-1.5-.35h-2.62c-.33 0-.59-.27-.59-.59c0-.22-.18-.41-.41-.41h-.17c-.22 0-.41-.18-.41-.41v-.09c0-.28-.22-.5-.5-.5s-.5.22-.5.5v.09c0 .28-.251.43-.531.43h-.599a.901.901 0 0 1-.87-.89v-.87c0-.7.56-1.26 1.26-1.26h.93c.45 0 .81.36.81.81c0 .1.08.19.19.19h.23c.32 0 .58-.25.58-.57c0-.28.07-.55.22-.79l2.64-4.4c.08-.15.25-.24.42-.24h1.22c.28 0 .5-.22.5-.5s-.22-.5-.5-.5h-1.29a.47.47 0 0 1-.35-.15l-.59-.59a.933.933 0 0 1-.27-.65a.63.63 0 0 0-.63-.61h-.18c-.12 0-.23-.05-.31-.13l-.11-.11c-.29-.28-.1-.76.3-.76h1.44c.37 0 .74.13 1.03.36l3.83 3.06c.46.37 1.03.58 1.63.58l.492.002A14.047 14.047 0 0 0 21.206 3H15.91c-.56 0-1.07.31-1.32.81l-.46.91c-.08.17-.25.28-.44.28h-.17c-.27 0-.53-.21-.52-.49a.497.497 0 0 0-.5-.51h-1.75c-.411 0-.813-.172-1.101-.48A14.064 14.064 0 0 0 4.51 8ZM19 7.5c0 .28-.22.5-.5.5s-.5.22-.5.5s-.22.5-.5.5s-.5-.22-.5-.5s-.22-.5-.5-.5h-1c-.28 0-.5-.22-.5-.5s.22-.5.5-.5h1c.28 0 .5-.22.5-.5s.22-.5.5-.5s.5.22.5.5s.22.5.5.5s.5.22.5.5Z"
              clip-rule="evenodd"/>
        <defs>
            <radialGradient id="f607id0" cx="0" cy="0" r="1"
                            gradientTransform="rotate(126.543 10.189 11.698) scale(23.7179 26.88)"
                            gradientUnits="userSpaceOnUse">
                <stop stop-color="#63D8FF"/>
                <stop offset="1" stop-color="#3488EF"/>
            </radialGradient>
            <radialGradient id="f607id1" cx="0" cy="0" r="1"
                            gradientTransform="matrix(-19.2977 17.52941 -23.20134 -25.54178 25.754 9.62)"
                            gradientUnits="userSpaceOnUse">
                <stop offset=".494" stop-color="#465DC2" stop-opacity="0"/>
                <stop offset="1" stop-color="#465DC2"/>
            </radialGradient>
            <radialGradient id="f607id2" cx="0" cy="0" r="1" gradientTransform="rotate(90 .965 15.035) scale(16.7059)"
                            gradientUnits="userSpaceOnUse">
                <stop offset=".868" stop-color="#606AC7" stop-opacity="0"/>
                <stop offset="1" stop-color="#606AC7"/>
            </radialGradient>
            <radialGradient id="f607id3" cx="0" cy="0" r="1"
                            gradientTransform="rotate(127.798 11.26 9.697) scale(19.0091 20.2884)"
                            gradientUnits="userSpaceOnUse">
                <stop offset=".418" stop-color="#6FFCAA"/>
                <stop offset="1" stop-color="#4EBA8B"/>
            </radialGradient>
            <linearGradient id="f607id4" x1="15.915" x2="15.915" y1="3.199" y2="28.027" gradientUnits="userSpaceOnUse">
                <stop stop-color="#2C699B"/>
                <stop offset="1" stop-color="#316CCA"/>
            </linearGradient>
            <linearGradient id="f607id5" x1="19.082" x2="20.255" y1="29.896" y2="22.422" gradientUnits="userSpaceOnUse">
                <stop stop-color="#479786"/>
                <stop offset="1" stop-color="#479786" stop-opacity="0"/>
            </linearGradient>
            <linearGradient id="f607id6" x1="23.625" x2="20.125" y1="6" y2="9.531" gradientUnits="userSpaceOnUse">
                <stop stop-color="#77FFB5"/>
                <stop offset="1" stop-color="#77FFB5" stop-opacity="0"/>
            </linearGradient>
            <filter id="f607id7" width="21.632" height="24.611" x="4.353" y="3.566" color-interpolation-filters="sRGB"
                    filterUnits="userSpaceOnUse">
                <feFlood flood-opacity="0" result="BackgroundImageFix"/>
                <feBlend in="SourceGraphic" in2="BackgroundImageFix" result="shape"/>
                <feGaussianBlur result="effect1_foregroundBlur_18_4754" stdDeviation=".075"/>
            </filter>
            <filter id="f607id8" width="23.182" height="25.2" x="4.41" y="2.9" color-interpolation-filters="sRGB"
                    filterUnits="userSpaceOnUse">
                <feFlood flood-opacity="0" result="BackgroundImageFix"/>
                <feBlend in="SourceGraphic" in2="BackgroundImageFix" result="shape"/>
                <feColorMatrix in="SourceAlpha" result="hardAlpha" values="0 0 0 0 0 0 0 0 0 0 0 0 0 0 0 0 0 0 127 0"/>
                <feOffset dx="-.1" dy=".1"/>
                <feGaussianBlur stdDeviation=".05"/>
                <feComposite in2="hardAlpha" k2="-1" k3="1" operator="arithmetic"/>
                <feColorMatrix values="0 0 0 0 0.403922 0 0 0 0 0.917647 0 0 0 0 0.682353 0 0 0 1 0"/>
                <feBlend in2="shape" result="effect1_innerShadow_18_4754"/>
                <feColorMatrix in="SourceAlpha" result="hardAlpha" values="0 0 0 0 0 0 0 0 0 0 0 0 0 0 0 0 0 0 127 0"/>
                <feOffset dx=".1" dy="-.1"/>
                <feGaussianBlur stdDeviation=".05"/>
                <feComposite in2="hardAlpha" k2="-1" k3="1" operator="arithmetic"/>
                <feColorMatrix values="0 0 0 0 0.239216 0 0 0 0 0.560784 0 0 0 0 0.513726 0 0 0 1 0"/>
                <feBlend in2="effect1_innerShadow_18_4754" result="effect2_innerShadow_18_4754"/>
            </filter>
        </defs>
    </g>
</svg>