<svg xmlns="http://www.w3.org/2000/svg" width="128" height="128" viewBox="0 0 32 32"><g fill="none"><g filter="url(#f618idf)"><path fill="url(#f618id0)" d="M4.716 14.013h22.328v1.652a7.5 7.5 0 0 1-7.5 7.5h-7.328a7.5 7.5 0 0 1-7.5-7.5v-1.652Z"/></g><g filter="url(#f618idg)"><path fill="url(#f618id1)" d="m15.289 20.399l-12.69-6.482a1.1 1.1 0 0 1 .003-1.96L15.29 5.512a1.3 1.3 0 0 1 1.179 0l12.69 6.46a1.1 1.1 0 0 1 0 1.96L16.47 20.398a1.3 1.3 0 0 1-1.182 0Z"/></g><g filter="url(#f618idh)"><path stroke="url(#f618id2)" stroke-linecap="round" stroke-width=".7" d="m16.419 19.263l12.468-6.594"/></g><g filter="url(#f618idi)"><path fill="url(#f618id3)" d="m23.137 17.325l-1.407.717v-.5c0-.667-.087-1.168-.945-1.581l-5.573-2.914a.734.734 0 0 1-.309-.975a.699.699 0 0 1 .951-.316l5.574 2.913a3.23 3.23 0 0 1 1.71 2.656Z"/></g><g filter="url(#f618idj)"><path fill="url(#f618id4)" d="m23.646 16.742l-1.407.717v-.5c0-.667-.087-1.168-.945-1.581l-5.574-2.914a.734.734 0 0 1-.308-.975a.699.699 0 0 1 .95-.317l5.574 2.914a3.23 3.23 0 0 1 1.71 2.656Z"/></g><g filter="url(#f618idk)"><path fill="url(#f618id5)" fill-rule="evenodd" d="M15.414 11.168a.725.725 0 0 1 .975-.316l5.714 2.913a3.226 3.226 0 0 1 1.76 2.873v5.844a.725.725 0 0 1-1.45 0v-5.844c0-.667-.375-1.278-.97-1.58l-5.713-2.915a.725.725 0 0 1-.316-.975Z" clip-rule="evenodd"/></g><path fill="url(#f618id9)" fill-rule="evenodd" d="M15.414 11.168a.725.725 0 0 1 .975-.316l5.714 2.913a3.226 3.226 0 0 1 1.76 2.873v5.844a.725.725 0 0 1-1.45 0v-5.844c0-.667-.375-1.278-.97-1.58l-5.713-2.915a.725.725 0 0 1-.316-.975Z" clip-rule="evenodd"/><path fill="url(#f618id6)" fill-rule="evenodd" d="M15.414 11.168a.725.725 0 0 1 .975-.316l5.714 2.913a3.226 3.226 0 0 1 1.76 2.873v5.844a.725.725 0 0 1-1.45 0v-5.844c0-.667-.375-1.278-.97-1.58l-5.713-2.915a.725.725 0 0 1-.316-.975Z" clip-rule="evenodd"/><path fill="url(#f618id7)" fill-rule="evenodd" d="M15.414 11.168a.725.725 0 0 1 .975-.316l5.714 2.913a3.226 3.226 0 0 1 1.76 2.873v5.844a.725.725 0 0 1-1.45 0v-5.844c0-.667-.375-1.278-.97-1.58l-5.713-2.915a.725.725 0 0 1-.316-.975Z" clip-rule="evenodd"/><path fill="url(#f618ida)" d="M22.419 22.474c-.649.266-.95.823-.95 1.43a1.668 1.668 0 0 0 3.336 0c0-.607-.355-1.149-.941-1.43h-1.445Z"/><path fill="url(#f618idb)" d="M22.419 22.474c-.649.266-.95.823-.95 1.43a1.668 1.668 0 0 0 3.336 0c0-.607-.355-1.149-.941-1.43h-1.445Z"/><path fill="url(#f618idc)" d="M22.419 22.474c-.649.266-.95.823-.95 1.43a1.668 1.668 0 0 0 3.336 0c0-.607-.355-1.149-.941-1.43h-1.445Z"/><path fill="#FF9D4E" d="m21.226 27.647l.638-2.65h2.527l.652 2.627a1.994 1.994 0 0 1-1.905 2.577a1.992 1.992 0 0 1-1.912-2.554Z"/><path fill="url(#f618id8)" d="m21.226 27.647l.638-2.65h2.527l.652 2.627a1.994 1.994 0 0 1-1.905 2.577a1.992 1.992 0 0 1-1.912-2.554Z"/><path fill="url(#f618idd)" d="m21.226 27.647l.638-2.65h2.527l.652 2.627a1.994 1.994 0 0 1-1.905 2.577a1.992 1.992 0 0 1-1.912-2.554Z"/><path fill="url(#f618ide)" d="m21.226 27.647l.638-2.65h2.527l.652 2.627a1.994 1.994 0 0 1-1.905 2.577a1.992 1.992 0 0 1-1.912-2.554Z"/><defs><linearGradient id="f618id0" x1="25.95" x2="5.95" y1="18.589" y2="18.589" gradientUnits="userSpaceOnUse"><stop stop-color="#68518B"/><stop stop-color="#68518B"/><stop offset=".444" stop-color="#503678"/><stop offset=".909" stop-color="#35254E"/></linearGradient><linearGradient id="f618id1" x1="28.192" x2="7.262" y1="12.956" y2="12.956" gradientUnits="userSpaceOnUse"><stop stop-color="#655676"/><stop offset="1" stop-color="#2D2635"/></linearGradient><linearGradient id="f618id2" x1="17.762" x2="29.95" y1="19.263" y2="12.263" gradientUnits="userSpaceOnUse"><stop stop-color="#6E5F85"/><stop offset="1" stop-color="#9A8DA7"/></linearGradient><linearGradient id="f618id3" x1="17.443" x2="23.857" y1="13.21" y2="18.458" gradientUnits="userSpaceOnUse"><stop stop-color="#3C2D42"/><stop offset="1" stop-color="#3D2C43" stop-opacity="0"/></linearGradient><linearGradient id="f618id4" x1="17.035" x2="22.079" y1="12.685" y2="17.146" gradientUnits="userSpaceOnUse"><stop stop-color="#2C1A20"/><stop offset="1" stop-color="#4C2350"/></linearGradient><linearGradient id="f618id5" x1="17.262" x2="23.387" y1="11.263" y2="23.207" gradientUnits="userSpaceOnUse"><stop stop-color="#D3A543"/><stop offset="1" stop-color="#FFBA62"/></linearGradient><linearGradient id="f618id6" x1="24.273" x2="23.076" y1="18.215" y2="18.304" gradientUnits="userSpaceOnUse"><stop stop-color="#FFD574"/><stop offset="1" stop-color="#FFD574" stop-opacity="0"/></linearGradient><linearGradient id="f618id7" x1="22.089" x2="21.625" y1="13.321" y2="14.204" gradientUnits="userSpaceOnUse"><stop stop-color="#FFD574"/><stop offset="1" stop-color="#FFD574" stop-opacity="0"/></linearGradient><linearGradient id="f618id8" x1="21.35" x2="22.866" y1="27.599" y2="27.846" gradientUnits="userSpaceOnUse"><stop stop-color="#D17047"/><stop offset="1" stop-color="#D17047" stop-opacity="0"/></linearGradient><radialGradient id="f618id9" cx="0" cy="0" r="1" gradientTransform="matrix(3.47162 1.76575 -1.10075 2.16418 15.684 10.463)" gradientUnits="userSpaceOnUse"><stop stop-color="#D0A745"/><stop offset="1" stop-color="#D0A745" stop-opacity="0"/></radialGradient><radialGradient id="f618ida" cx="0" cy="0" r="1" gradientTransform="rotate(137.337 7.51 16.412) scale(2.07561 2.23528)" gradientUnits="userSpaceOnUse"><stop stop-color="#FFCC6C"/><stop offset="1" stop-color="#F49041"/></radialGradient><radialGradient id="f618idb" cx="0" cy="0" r="1" gradientTransform="matrix(-3.44037 -1.42864 1.14909 -2.76717 24.44 24.29)" gradientUnits="userSpaceOnUse"><stop offset=".6" stop-color="#B25D41" stop-opacity="0"/><stop offset=".911" stop-color="#B25D41"/></radialGradient><radialGradient id="f618idc" cx="0" cy="0" r="1" gradientTransform="matrix(2.24498 -.34987 .17007 1.0913 21.845 25.076)" gradientUnits="userSpaceOnUse"><stop stop-color="#FD805E"/><stop offset="1" stop-color="#FD805E" stop-opacity="0"/></radialGradient><radialGradient id="f618idd" cx="0" cy="0" r="1" gradientTransform="matrix(0 4.37335 -1.34116 0 24.09 24.727)" gradientUnits="userSpaceOnUse"><stop offset=".567" stop-color="#FFBC6E"/><stop offset="1" stop-color="#FFBC6E" stop-opacity="0"/></radialGradient><radialGradient id="f618ide" cx="0" cy="0" r="1" gradientTransform="matrix(.58311 -2.60156 3.00404 .67332 22.4 30.2)" gradientUnits="userSpaceOnUse"><stop offset=".165" stop-color="#FF697E"/><stop offset="1" stop-color="#FF697E" stop-opacity="0"/></radialGradient><filter id="f618idf" width="22.578" height="9.402" x="4.466" y="13.763" color-interpolation-filters="sRGB" filterUnits="userSpaceOnUse"><feFlood flood-opacity="0" result="BackgroundImageFix"/><feBlend in="SourceGraphic" in2="BackgroundImageFix" result="shape"/><feColorMatrix in="SourceAlpha" result="hardAlpha" values="0 0 0 0 0 0 0 0 0 0 0 0 0 0 0 0 0 0 127 0"/><feOffset dx="-.25" dy="-.25"/><feGaussianBlur stdDeviation=".25"/><feComposite in2="hardAlpha" k2="-1" k3="1" operator="arithmetic"/><feColorMatrix values="0 0 0 0 0.470588 0 0 0 0 0.372549 0 0 0 0 0.658824 0 0 0 1 0"/><feBlend in2="shape" result="effect1_innerShadow_18_17524"/></filter><filter id="f618idg" width="28.759" height="15.92" x="1" y="4.621" color-interpolation-filters="sRGB" filterUnits="userSpaceOnUse"><feFlood flood-opacity="0" result="BackgroundImageFix"/><feBlend in="SourceGraphic" in2="BackgroundImageFix" result="shape"/><feColorMatrix in="SourceAlpha" result="hardAlpha" values="0 0 0 0 0 0 0 0 0 0 0 0 0 0 0 0 0 0 127 0"/><feOffset dy="-1.25"/><feGaussianBlur stdDeviation=".375"/><feComposite in2="hardAlpha" k2="-1" k3="1" operator="arithmetic"/><feColorMatrix values="0 0 0 0 0.133333 0 0 0 0 0.0980392 0 0 0 0 0.176471 0 0 0 1 0"/><feBlend in2="shape" result="effect1_innerShadow_18_17524"/><feColorMatrix in="SourceAlpha" result="hardAlpha" values="0 0 0 0 0 0 0 0 0 0 0 0 0 0 0 0 0 0 127 0"/><feOffset dx="-1" dy="-.5"/><feGaussianBlur stdDeviation=".5"/><feComposite in2="hardAlpha" k2="-1" k3="1" operator="arithmetic"/><feColorMatrix values="0 0 0 0 0.372549 0 0 0 0 0.254902 0 0 0 0 0.501961 0 0 0 1 0"/><feBlend in2="effect1_innerShadow_18_17524" result="effect2_innerShadow_18_17524"/></filter><filter id="f618idh" width="14.169" height="8.294" x="15.569" y="11.819" color-interpolation-filters="sRGB" filterUnits="userSpaceOnUse"><feFlood flood-opacity="0" result="BackgroundImageFix"/><feBlend in="SourceGraphic" in2="BackgroundImageFix" result="shape"/><feGaussianBlur result="effect1_foregroundBlur_18_17524" stdDeviation=".25"/></filter><filter id="f618idi" width="9.312" height="7.366" x="14.326" y="11.176" color-interpolation-filters="sRGB" filterUnits="userSpaceOnUse"><feFlood flood-opacity="0" result="BackgroundImageFix"/><feBlend in="SourceGraphic" in2="BackgroundImageFix" result="shape"/><feGaussianBlur result="effect1_foregroundBlur_18_17524" stdDeviation=".25"/></filter><filter id="f618idj" width="9.112" height="7.166" x="14.934" y="10.693" color-interpolation-filters="sRGB" filterUnits="userSpaceOnUse"><feFlood flood-opacity="0" result="BackgroundImageFix"/><feBlend in="SourceGraphic" in2="BackgroundImageFix" result="shape"/><feGaussianBlur result="effect1_foregroundBlur_18_17524" stdDeviation=".2"/></filter><filter id="f618idk" width="8.928" height="12.585" x="15.334" y="10.773" color-interpolation-filters="sRGB" filterUnits="userSpaceOnUse"><feFlood flood-opacity="0" result="BackgroundImageFix"/><feBlend in="SourceGraphic" in2="BackgroundImageFix" result="shape"/><feColorMatrix in="SourceAlpha" result="hardAlpha" values="0 0 0 0 0 0 0 0 0 0 0 0 0 0 0 0 0 0 127 0"/><feOffset dx=".4" dy=".15"/><feGaussianBlur stdDeviation=".325"/><feComposite in2="hardAlpha" k2="-1" k3="1" operator="arithmetic"/><feColorMatrix values="0 0 0 0 0.8 0 0 0 0 0.458824 0 0 0 0 0.227451 0 0 0 1 0"/><feBlend in2="shape" result="effect1_innerShadow_18_17524"/></filter></defs></g></svg>