<svg xmlns="http://www.w3.org/2000/svg" viewBox="0 0 32 32">
    <g fill="none">
        <path fill="url(#f1570id0)"
              d="M14.21 28.496h-1.25l1.5-5.31h-1.5l-1.5 5.31H8.71a.749.749 0 1 0 0 1.5h5.5c.41 0 .75-.34.75-.75s-.34-.75-.75-.75Z"/>
        <path fill="url(#f1570id1)"
              d="M14.21 28.496h-1.25l1.5-5.31h-1.5l-1.5 5.31H8.71a.749.749 0 1 0 0 1.5h5.5c.41 0 .75-.34.75-.75s-.34-.75-.75-.75Z"/>
        <path fill="url(#f1570id2)"
              d="M14.283 28.5H8.637a.749.749 0 0 0 .073 1.496h5.5c.41 0 .75-.34.75-.75c0-.385-.3-.708-.677-.746Z"/>
        <path fill="url(#f1570id3)"
              d="M14.283 28.5H8.637a.749.749 0 0 0 .073 1.496h5.5c.41 0 .75-.34.75-.75c0-.385-.3-.708-.677-.746Z"/>
        <path fill="url(#f1570idg)"
              d="M14.283 28.5H8.637a.749.749 0 0 0 .073 1.496h5.5c.41 0 .75-.34.75-.75c0-.385-.3-.708-.677-.746Z"/>
        <path fill="url(#f1570id4)"
              d="M14.283 28.5H8.637a.749.749 0 0 0 .073 1.496h5.5c.41 0 .75-.34.75-.75c0-.385-.3-.708-.677-.746Z"/>
        <path fill="url(#f1570id5)"
              d="M18.21 28.496h-1.25v-5.31h-1.5v5.31h-2.75a.749.749 0 1 0 0 1.5h5.5c.41 0 .75-.34.75-.75s-.34-.75-.75-.75Z"/>
        <path fill="url(#f1570id6)"
              d="m27.27 21.056l-7.65.73v5.21h5.21c1.73 0 3.12-1.4 3.12-3.12v-2.19a.623.623 0 0 0-.68-.63Z"/>
        <path fill="url(#f1570id7)"
              d="m27.27 21.056l-7.65.73v5.21h5.21c1.73 0 3.12-1.4 3.12-3.12v-2.19a.623.623 0 0 0-.68-.63Z"/>
        <path fill="url(#f1570id8)"
              d="M16.42 6.266a5.213 5.213 0 0 0-5.38-4.26c-2.7.12-4.82 2.26-4.95 4.95c-.03.71.08 1.4.3 2.02c.25.7.13 1.48-.33 2.06A9.861 9.861 0 0 0 4 17.046c0 5.5 4.55 9.95 10.17 9.95h5.69c.42 0 .73-.38.65-.79l-4.09-19.94Z"/>
        <path fill="url(#f1570id9)"
              d="M16.42 6.266a5.213 5.213 0 0 0-5.38-4.26c-2.7.12-4.82 2.26-4.95 4.95c-.03.71.08 1.4.3 2.02c.25.7.13 1.48-.33 2.06A9.861 9.861 0 0 0 4 17.046c0 5.5 4.55 9.95 10.17 9.95h5.69c.42 0 .73-.38.65-.79l-4.09-19.94Z"/>
        <path fill="url(#f1570idh)"
              d="M16.42 6.266a5.213 5.213 0 0 0-5.38-4.26c-2.7.12-4.82 2.26-4.95 4.95c-.03.71.08 1.4.3 2.02c.25.7.13 1.48-.33 2.06A9.861 9.861 0 0 0 4 17.046c0 5.5 4.55 9.95 10.17 9.95h5.69c.42 0 .73-.38.65-.79l-4.09-19.94Z"/>
        <path fill="url(#f1570idi)"
              d="M16.42 6.266a5.213 5.213 0 0 0-5.38-4.26c-2.7.12-4.82 2.26-4.95 4.95c-.03.71.08 1.4.3 2.02c.25.7.13 1.48-.33 2.06A9.861 9.861 0 0 0 4 17.046c0 5.5 4.55 9.95 10.17 9.95h5.69c.42 0 .73-.38.65-.79l-4.09-19.94Z"/>
        <path fill="url(#f1570idj)"
              d="M16.42 6.266a5.213 5.213 0 0 0-5.38-4.26c-2.7.12-4.82 2.26-4.95 4.95c-.03.71.08 1.4.3 2.02c.25.7.13 1.48-.33 2.06A9.861 9.861 0 0 0 4 17.046c0 5.5 4.55 9.95 10.17 9.95h5.69c.42 0 .73-.38.65-.79l-4.09-19.94Z"/>
        <path fill="url(#f1570idk)"
              d="M16.42 6.266a5.213 5.213 0 0 0-5.38-4.26c-2.7.12-4.82 2.26-4.95 4.95c-.03.71.08 1.4.3 2.02c.25.7.13 1.48-.33 2.06A9.861 9.861 0 0 0 4 17.046c0 5.5 4.55 9.95 10.17 9.95h5.69c.42 0 .73-.38.65-.79l-4.09-19.94Z"/>
        <g filter="url(#f1570idv)">
            <path fill="#9F205B"
                  d="M12.8 12.389c-1.811.128-3.22 1.64-3.277 3.51c-.011.352-.005.702.02 1.051c.362 5.138 4.373 9.123 9.23 9.447c.402-.029.67-.426.561-.825l-2.875-10.53c-.459-1.668-1.98-2.771-3.658-2.653Z"/>
        </g>
        <g filter="url(#f1570idw)">
            <path fill="#FCC44C"
                  d="M14.24 11.376c-2.03 0-3.72 1.53-3.93 3.55c-.04.38-.06.76-.06 1.14c0 5.59 4.16 10.21 9.55 10.93c.45 0 .78-.41.69-.85l-2.38-11.62a3.941 3.941 0 0 0-3.87-3.15Z"/>
        </g>
        <path fill="url(#f1570idl)"
              d="M14.24 11.376c-2.03 0-3.72 1.53-3.93 3.55c-.04.38-.06.76-.06 1.14c0 5.59 4.16 10.21 9.55 10.93c.45 0 .78-.41.69-.85l-2.38-11.62a3.941 3.941 0 0 0-3.87-3.15Z"/>
        <g filter="url(#f1570idx)">
            <path fill="#FFDD5E"
                  d="m16.632 14.63l2.234 9.62c-3.47-1.396-5.435-5.572-6.33-8.843c-.33-1.204.57-2.338 1.814-2.44a2.16 2.16 0 0 1 2.282 1.663Z"/>
        </g>
        <path fill="#3994FB"
              d="M19.8 23.816c-4.86-.65-8.71-4.46-9.43-9.29c-.03.13-.05.27-.06.4c-.04.38-.06.76-.06 1.14c0 5.59 4.16 10.21 9.55 10.93c.45 0 .78-.41.69-.85l-.48-2.34h-.21v.01Z"/>
        <path fill="url(#f1570idm)"
              d="M19.8 23.816c-4.86-.65-8.71-4.46-9.43-9.29c-.03.13-.05.27-.06.4c-.04.38-.06.76-.06 1.14c0 5.59 4.16 10.21 9.55 10.93c.45 0 .78-.41.69-.85l-.48-2.34h-.21v.01Z"/>
        <path fill="url(#f1570ida)"
              d="M19.8 23.816c-4.86-.65-8.71-4.46-9.43-9.29c-.03.13-.05.27-.06.4c-.04.38-.06.76-.06 1.14c0 5.59 4.16 10.21 9.55 10.93c.45 0 .78-.41.69-.85l-.48-2.34h-.21v.01Z"/>
        <path fill="url(#f1570idn)"
              d="M19.8 23.816c-4.86-.65-8.71-4.46-9.43-9.29c-.03.13-.05.27-.06.4c-.04.38-.06.76-.06 1.14c0 5.59 4.16 10.21 9.55 10.93c.45 0 .78-.41.69-.85l-.48-2.34h-.21v.01Z"/>
        <path fill="#D7D7D7" d="M10.898 8.088a2.028 2.028 0 1 0 0-4.057a2.028 2.028 0 0 0 0 4.057Z"/>
        <path fill="url(#f1570ido)" d="M10.898 7.06a1 1 0 1 0 0-2a1 1 0 0 0 0 2Z"/>
        <path fill="url(#f1570idp)" d="M10.898 7.06a1 1 0 1 0 0-2a1 1 0 0 0 0 2Z"/>
        <path fill="url(#f1570idb)" d="M10.898 7.06a1 1 0 1 0 0-2a1 1 0 0 0 0 2Z"/>
        <path fill="url(#f1570idq)" d="M7.11 9.646a1.76 1.76 0 1 0 0-3.52a1.76 1.76 0 0 0 0 3.52Z"/>
        <path fill="url(#f1570idr)"
              d="m6.03 8.826l2.81-1.28a2.4 2.4 0 0 0-2.47-1.92c-1.19.05-2.17 1-2.27 2.19c-.07.88.34 1.68 1 2.14c.22.16.54 0 .54-.28v-.24c0-.26.15-.5.39-.61Z"/>
        <g filter="url(#f1570idy)">
            <path stroke="url(#f1570idc)" stroke-linecap="round" stroke-width=".5"
                  d="M6.781 6.2c-.656-.126-1.75.202-1.937 1.452"/>
        </g>
        <g filter="url(#f1570idz)">
            <path fill="url(#f1570idd)" d="m20.505 22.3l6.91-.675v1.733a2 2 0 0 1-1.772 1.987l-4.618.53l-.52-3.576Z"/>
            <path fill="url(#f1570ids)" d="m20.505 22.3l6.91-.675v1.733a2 2 0 0 1-1.772 1.987l-4.618.53l-.52-3.576Z"/>
        </g>
        <path fill="url(#f1570ide)"
              d="M18.283 28.5h-5.646a.749.749 0 0 0 .073 1.496h5.5c.41 0 .75-.34.75-.75c0-.385-.3-.708-.677-.746Z"/>
        <path fill="url(#f1570idf)"
              d="M18.283 28.5h-5.646a.749.749 0 0 0 .073 1.496h5.5c.41 0 .75-.34.75-.75c0-.385-.3-.708-.677-.746Z"/>
        <path fill="url(#f1570idt)"
              d="M18.283 28.5h-5.646a.749.749 0 0 0 .073 1.496h5.5c.41 0 .75-.34.75-.75c0-.385-.3-.708-.677-.746Z"/>
        <path fill="url(#f1570idu)"
              d="M18.283 28.5h-5.646a.749.749 0 0 0 .073 1.496h5.5c.41 0 .75-.34.75-.75c0-.385-.3-.708-.677-.746Z"/>
        <defs>
            <linearGradient id="f1570id0" x1="12.688" x2="12.172" y1="26.469" y2="28.453"
                            gradientUnits="userSpaceOnUse">
                <stop stop-color="#BC6925"/>
                <stop offset="1" stop-color="#CA7A27"/>
            </linearGradient>
            <linearGradient id="f1570id1" x1="11.46" x2="12.391" y1="27.781" y2="28.063" gradientUnits="userSpaceOnUse">
                <stop stop-color="#C78441"/>
                <stop offset="1" stop-color="#C78441" stop-opacity="0"/>
            </linearGradient>
            <linearGradient id="f1570id2" x1="11.46" x2="11.46" y1="28.281" y2="29.375" gradientUnits="userSpaceOnUse">
                <stop stop-color="#CA8234"/>
                <stop offset="1" stop-color="#DB8D3C"/>
            </linearGradient>
            <linearGradient id="f1570id3" x1="11.46" x2="11.46" y1="29.996" y2="29.547" gradientUnits="userSpaceOnUse">
                <stop stop-color="#FA816E"/>
                <stop offset="1" stop-color="#FA816E" stop-opacity="0"/>
            </linearGradient>
            <linearGradient id="f1570id4" x1="12.25" x2="11.234" y1="29.996" y2="29.996" gradientUnits="userSpaceOnUse">
                <stop stop-color="#CA7A27"/>
                <stop offset="1" stop-color="#CA7A27" stop-opacity="0"/>
            </linearGradient>
            <linearGradient id="f1570id5" x1="15.458" x2="15.458" y1="27.266" y2="29.281"
                            gradientUnits="userSpaceOnUse">
                <stop stop-color="#C96D32"/>
                <stop offset="1" stop-color="#FA945D"/>
            </linearGradient>
            <linearGradient id="f1570id6" x1="22.563" x2="22.563" y1="20.5" y2="26.25" gradientUnits="userSpaceOnUse">
                <stop stop-color="#ED1C26"/>
                <stop offset="1" stop-color="#EC098C"/>
            </linearGradient>
            <linearGradient id="f1570id7" x1="24.126" x2="24.126" y1="28.938" y2="24.5" gradientUnits="userSpaceOnUse">
                <stop stop-color="#A73078"/>
                <stop offset="1" stop-color="#A73078" stop-opacity="0"/>
            </linearGradient>
            <linearGradient id="f1570id8" x1="12.259" x2="12.259" y1="29.438" y2="11.875"
                            gradientUnits="userSpaceOnUse">
                <stop stop-color="#B2286C"/>
                <stop offset="1" stop-color="#EF348D"/>
            </linearGradient>
            <linearGradient id="f1570id9" x1="12.938" x2="12.938" y1="26.996" y2="13.875"
                            gradientUnits="userSpaceOnUse">
                <stop stop-color="#A73078"/>
                <stop offset="1" stop-color="#A73078" stop-opacity="0"/>
            </linearGradient>
            <linearGradient id="f1570ida" x1="11.125" x2="7.063" y1="23.385" y2="13.26" gradientUnits="userSpaceOnUse">
                <stop stop-color="#3748D4" stop-opacity="0"/>
                <stop offset=".953" stop-color="#3748D5"/>
            </linearGradient>
            <linearGradient id="f1570idb" x1="10.701" x2="10.013" y1="5.274" y2="4.837" gradientUnits="userSpaceOnUse">
                <stop stop-color="#5C5051" stop-opacity="0"/>
                <stop offset="1" stop-color="#5C5051"/>
            </linearGradient>
            <linearGradient id="f1570idc" x1="5.422" x2="7.094" y1="5.59" y2="6.913" gradientUnits="userSpaceOnUse">
                <stop stop-color="#FFD749"/>
                <stop offset="1" stop-color="#FFD749" stop-opacity="0"/>
            </linearGradient>
            <linearGradient id="f1570idd" x1="27.416" x2="20.505" y1="22.156" y2="25.031"
                            gradientUnits="userSpaceOnUse">
                <stop stop-color="#FF5C80"/>
                <stop offset="1" stop-color="#FF5C80" stop-opacity="0"/>
            </linearGradient>
            <linearGradient id="f1570ide" x1="15.458" x2="15.458" y1="28.109" y2="30.219"
                            gradientUnits="userSpaceOnUse">
                <stop stop-color="#C96D32"/>
                <stop offset="1" stop-color="#FA945D"/>
            </linearGradient>
            <linearGradient id="f1570idf" x1="15.46" x2="15.46" y1="29.996" y2="29.547" gradientUnits="userSpaceOnUse">
                <stop stop-color="#FA816E"/>
                <stop offset="1" stop-color="#FA816E" stop-opacity="0"/>
            </linearGradient>
            <radialGradient id="f1570idg" cx="0" cy="0" r="1"
                            gradientTransform="matrix(2.51563 0 0 .55651 7.844 29.248)" gradientUnits="userSpaceOnUse">
                <stop stop-color="#E0A04D"/>
                <stop offset="1" stop-color="#E0A04D" stop-opacity="0"/>
            </radialGradient>
            <radialGradient id="f1570idh" cx="0" cy="0" r="1"
                            gradientTransform="matrix(7.37498 -3.93754 6.29094 11.78288 6.125 23.563)"
                            gradientUnits="userSpaceOnUse">
                <stop stop-color="#BE476B"/>
                <stop offset="1" stop-color="#BE476B" stop-opacity="0"/>
            </radialGradient>
            <radialGradient id="f1570idi" cx="0" cy="0" r="1"
                            gradientTransform="matrix(1.28125 1.34375 -1.8359 1.7505 7.984 8.563)"
                            gradientUnits="userSpaceOnUse">
                <stop stop-color="#D52855"/>
                <stop offset=".875" stop-color="#D52855" stop-opacity="0"/>
            </radialGradient>
            <radialGradient id="f1570idj" cx="0" cy="0" r="1"
                            gradientTransform="rotate(160.866 6.184 4.208) scale(3.24158 5.45946)"
                            gradientUnits="userSpaceOnUse">
                <stop stop-color="#FF58A2"/>
                <stop offset="1" stop-color="#FF58A2" stop-opacity="0"/>
            </radialGradient>
            <radialGradient id="f1570idk" cx="0" cy="0" r="1"
                            gradientTransform="matrix(4.67188 0 0 1.79441 8.969 26.297)" gradientUnits="userSpaceOnUse">
                <stop stop-color="#B05282"/>
                <stop offset="1" stop-color="#B05282" stop-opacity="0"/>
            </radialGradient>
            <radialGradient id="f1570idl" cx="0" cy="0" r="1"
                            gradientTransform="matrix(-10.5001 -14.03117 6.74117 -5.0447 21.906 25.656)"
                            gradientUnits="userSpaceOnUse">
                <stop offset=".926" stop-color="#CA8A2A" stop-opacity="0"/>
                <stop offset="1" stop-color="#CA8A2A"/>
            </radialGradient>
            <radialGradient id="f1570idm" cx="0" cy="0" r="1"
                            gradientTransform="matrix(-3.93753 3.96872 -7.84479 -7.78314 16.438 19.823)"
                            gradientUnits="userSpaceOnUse">
                <stop offset=".752" stop-color="#3748D4" stop-opacity="0"/>
                <stop offset=".953" stop-color="#3748D5"/>
            </radialGradient>
            <radialGradient id="f1570idn" cx="0" cy="0" r="1"
                            gradientTransform="matrix(-1.21874 1.75001 -2.75817 -1.92084 19.063 23.26)"
                            gradientUnits="userSpaceOnUse">
                <stop stop-color="#429BF6"/>
                <stop offset="1" stop-color="#429BF6" stop-opacity="0"/>
            </radialGradient>
            <radialGradient id="f1570ido" cx="0" cy="0" r="1"
                            gradientTransform="rotate(125.838 4.13 5.73) scale(1.38773 1.23721)"
                            gradientUnits="userSpaceOnUse">
                <stop offset=".006" stop-color="#433437"/>
                <stop offset="1" stop-color="#3B2838"/>
            </radialGradient>
            <radialGradient id="f1570idp" cx="0" cy="0" r="1"
                            gradientTransform="matrix(-.53125 .48437 -.42613 -.46737 11.271 5.81)"
                            gradientUnits="userSpaceOnUse">
                <stop stop-color="#5C5051"/>
                <stop offset="1" stop-color="#5C5051" stop-opacity="0"/>
            </radialGradient>
            <radialGradient id="f1570idq" cx="0" cy="0" r="1"
                            gradientTransform="rotate(95.25 .505 6.931) scale(3.7501 3.79582)"
                            gradientUnits="userSpaceOnUse">
                <stop offset=".33" stop-color="#FAAD22"/>
                <stop offset=".791" stop-color="#C96528"/>
            </radialGradient>
            <radialGradient id="f1570idr" cx="0" cy="0" r="1"
                            gradientTransform="rotate(129.152 1.799 4.84) scale(4.11041 5.01882)"
                            gradientUnits="userSpaceOnUse">
                <stop stop-color="#FFD151"/>
                <stop offset="1" stop-color="#EC9A49"/>
            </radialGradient>
            <radialGradient id="f1570ids" cx="0" cy="0" r="1"
                            gradientTransform="rotate(143.665 10.216 15.139) scale(3.26998 1.30937)"
                            gradientUnits="userSpaceOnUse">
                <stop stop-color="#FF5B7E"/>
                <stop offset="1" stop-color="#FF5B7E" stop-opacity="0"/>
            </radialGradient>
            <radialGradient id="f1570idt" cx="0" cy="0" r="1"
                            gradientTransform="matrix(-1.20999 0 0 -.79688 18.96 28.86)" gradientUnits="userSpaceOnUse">
                <stop stop-color="#F9A95B"/>
                <stop offset="1" stop-color="#F9A95B" stop-opacity="0"/>
            </radialGradient>
            <radialGradient id="f1570idu" cx="0" cy="0" r="1"
                            gradientTransform="matrix(.90625 0 0 .89035 11.719 29.248)" gradientUnits="userSpaceOnUse">
                <stop stop-color="#F9A95B"/>
                <stop offset="1" stop-color="#F9A95B" stop-opacity="0"/>
            </radialGradient>
            <filter id="f1570idv" width="11.841" height="16.016" x="8.518" y="11.38" color-interpolation-filters="sRGB"
                    filterUnits="userSpaceOnUse">
                <feFlood flood-opacity="0" result="BackgroundImageFix"/>
                <feBlend in="SourceGraphic" in2="BackgroundImageFix" result="shape"/>
                <feGaussianBlur result="effect1_foregroundBlur_28327_5323" stdDeviation=".5"/>
            </filter>
            <filter id="f1570idw" width="10.255" height="15.82" x="10.25" y="11.376" color-interpolation-filters="sRGB"
                    filterUnits="userSpaceOnUse">
                <feFlood flood-opacity="0" result="BackgroundImageFix"/>
                <feBlend in="SourceGraphic" in2="BackgroundImageFix" result="shape"/>
                <feColorMatrix in="SourceAlpha" result="hardAlpha" values="0 0 0 0 0 0 0 0 0 0 0 0 0 0 0 0 0 0 127 0"/>
                <feOffset dy=".2"/>
                <feGaussianBlur stdDeviation=".5"/>
                <feComposite in2="hardAlpha" k2="-1" k3="1" operator="arithmetic"/>
                <feColorMatrix values="0 0 0 0 0.960784 0 0 0 0 0.537255 0 0 0 0 0.305882 0 0 0 1 0"/>
                <feBlend in2="shape" result="effect1_innerShadow_28327_5323"/>
            </filter>
            <filter id="f1570idx" width="12.399" height="17.291" x="9.467" y="9.959" color-interpolation-filters="sRGB"
                    filterUnits="userSpaceOnUse">
                <feFlood flood-opacity="0" result="BackgroundImageFix"/>
                <feBlend in="SourceGraphic" in2="BackgroundImageFix" result="shape"/>
                <feGaussianBlur result="effect1_foregroundBlur_28327_5323" stdDeviation="1.5"/>
            </filter>
            <filter id="f1570idy" width="3.958" height="3.498" x="3.834" y="5.164" color-interpolation-filters="sRGB"
                    filterUnits="userSpaceOnUse">
                <feFlood flood-opacity="0" result="BackgroundImageFix"/>
                <feBlend in="SourceGraphic" in2="BackgroundImageFix" result="shape"/>
                <feGaussianBlur result="effect1_foregroundBlur_28327_5323" stdDeviation=".38"/>
            </filter>
            <filter id="f1570idz" width="8.911" height="6.25" x="19.505" y="20.625" color-interpolation-filters="sRGB"
                    filterUnits="userSpaceOnUse">
                <feFlood flood-opacity="0" result="BackgroundImageFix"/>
                <feBlend in="SourceGraphic" in2="BackgroundImageFix" result="shape"/>
                <feGaussianBlur result="effect1_foregroundBlur_28327_5323" stdDeviation=".5"/>
            </filter>
        </defs>
    </g>
</svg>