<svg xmlns="http://www.w3.org/2000/svg" viewBox="0 0 32 32"><g fill="none"><path fill="url(#f2104id0)" d="m19.88 29.353l-3.638-9.964l5.922-3.453l4.039 11.094a.75.75 0 0 1-.994.949l-1.839-.77a1 1 0 0 0-1.288.492l-.82 1.718a.75.75 0 0 1-1.382-.066Z"/><path fill="url(#f2104id1)" d="m19.88 29.353l-3.638-9.964l5.922-3.453l4.039 11.094a.75.75 0 0 1-.994.949l-1.839-.77a1 1 0 0 0-1.288.492l-.82 1.718a.75.75 0 0 1-1.382-.066Z"/><path fill="url(#f2104id2)" d="m19.88 29.353l-3.638-9.964l5.922-3.453l4.039 11.094a.75.75 0 0 1-.994.949l-1.839-.77a1 1 0 0 0-1.288.492l-.82 1.718a.75.75 0 0 1-1.382-.066Z"/><path fill="url(#f2104id3)" d="m19.88 29.353l-3.638-9.964l5.922-3.453l4.039 11.094a.75.75 0 0 1-.994.949l-1.839-.77a1 1 0 0 0-1.288.492l-.82 1.718a.75.75 0 0 1-1.382-.066Z"/><path fill="url(#f2104id4)" d="m12.213 29.353l3.638-9.964l-5.922-3.453L5.89 27.03a.75.75 0 0 0 .994.949l1.84-.77a1 1 0 0 1 1.287.492l.821 1.718a.75.75 0 0 0 1.381-.066Z"/><path fill="url(#f2104idf)" d="m12.213 29.353l3.638-9.964l-5.922-3.453L5.89 27.03a.75.75 0 0 0 .994.949l1.84-.77a1 1 0 0 1 1.287.492l.821 1.718a.75.75 0 0 0 1.381-.066Z"/><path fill="url(#f2104id5)" d="m12.213 29.353l3.638-9.964l-5.922-3.453L5.89 27.03a.75.75 0 0 0 .994.949l1.84-.77a1 1 0 0 1 1.287.492l.821 1.718a.75.75 0 0 0 1.381-.066Z"/><path fill="url(#f2104id6)" d="m12.213 29.353l3.638-9.964l-5.922-3.453L5.89 27.03a.75.75 0 0 0 .994.949l1.84-.77a1 1 0 0 1 1.287.492l.821 1.718a.75.75 0 0 0 1.381-.066Z"/><path fill="url(#f2104id7)" d="m13.422 9.724l.83-.395l-5.32-2.612c-1.184-.614-3.034-1.177-4.804-.292a3.714 3.714 0 0 0-.907.628c-.527.463-1.216 1.372-1.216 2.968v6.764c-.042.541.179 1.932 1.018 2.709c1.114 1.21 3.184 1.73 5.47.727c1.205-.529 2.74-1.304 3.742-1.811c.404-.204.721-.365.896-.448l1.121-.533l-.83-.407V9.724Z"/><path fill="url(#f2104idg)" d="m13.422 9.724l.83-.395l-5.32-2.612c-1.184-.614-3.034-1.177-4.804-.292a3.714 3.714 0 0 0-.907.628c-.527.463-1.216 1.372-1.216 2.968v6.764c-.042.541.179 1.932 1.018 2.709c1.114 1.21 3.184 1.73 5.47.727c1.205-.529 2.74-1.304 3.742-1.811c.404-.204.721-.365.896-.448l1.121-.533l-.83-.407V9.724Z"/><path fill="url(#f2104id8)" d="m18.517 9.724l-.83-.395l5.32-2.612c1.185-.614 3.035-1.177 4.805-.292c.356.178.657.391.906.628c.527.463 1.217 1.372 1.217 2.968v6.764c.042.541-.18 1.932-1.018 2.709c-1.114 1.21-3.185 1.73-5.47.727c-1.206-.529-2.74-1.304-3.742-1.811c-.404-.204-.722-.365-.896-.448l-1.122-.533l.83-.407V9.724Z"/><path fill="#C4C4C4" fill-opacity=".55" d="m8.662 15.352l4.211 2.069c-.657.312-2.932 1.51-4.62 2.25c-2.112.927-3.91.4-4.816-.613c-.904-1.013-.91-3.062.96-3.996c1.516-.759 3.144-.291 4.265.29Z"/><path fill="#C40E49" d="m23.278 15.352l-4.211 2.069c.657.312 2.931 1.51 4.62 2.25c2.112.927 3.91.4 4.815-.613c.905-1.013.912-3.062-.958-3.996c-1.517-.759-3.146-.291-4.266.29Z"/><path fill="url(#f2104idh)" d="m23.278 15.352l-4.211 2.069c.657.312 2.931 1.51 4.62 2.25c2.112.927 3.91.4 4.815-.613c.905-1.013.912-3.062-.958-3.996c-1.517-.759-3.146-.291-4.266.29Z"/><path fill="#CC0B30" d="m8.662 15.352l4.211 2.069c-.657.312-2.932 1.51-4.62 2.25c-2.112.927-3.91.4-4.816-.613c-.904-1.013-.91-3.062.96-3.996c1.516-.759 3.144-.291 4.265.29Z"/><path fill="url(#f2104idi)" d="m8.662 15.352l4.211 2.069c-.657.312-2.932 1.51-4.62 2.25c-2.112.927-3.91.4-4.816-.613c-.904-1.013-.91-3.062.96-3.996c1.516-.759 3.144-.291 4.265.29Z"/><g filter="url(#f2104idl)"><path stroke="url(#f2104id9)" stroke-width=".6" d="m18.938 17.691l-.561-.266l.557-.274l4.209-2.066c1.152-.598 2.891-1.114 4.535-.292c2.066 1.033 2.07 3.32 1.048 4.465c-1.005 1.124-2.95 1.658-5.16.688c-1.196-.525-2.704-1.287-3.705-1.794a55.456 55.456 0 0 0-.923-.46Z"/></g><g filter="url(#f2104idm)"><path stroke="url(#f2104ida)" stroke-width=".6" d="m13.002 17.691l.56-.266l-.557-.274l-4.208-2.066c-1.152-.598-2.891-1.114-4.535-.292c-2.066 1.033-2.07 3.32-1.048 4.465c1.005 1.124 2.949 1.658 5.159.688c1.197-.525 2.704-1.287 3.706-1.794c.412-.208.739-.373.923-.46Z"/></g><path stroke="url(#f2104idj)" stroke-width=".6" d="m18.938 17.691l-.561-.266l.557-.274l4.209-2.066c1.152-.598 2.891-1.114 4.535-.292c2.066 1.033 2.07 3.32 1.048 4.465c-1.005 1.124-2.95 1.658-5.16.688c-1.196-.525-2.704-1.287-3.705-1.794a55.456 55.456 0 0 0-.923-.46Z"/><rect width="6.915" height="12.99" x="12.604" y="7.112" fill="url(#f2104idb)" rx="1.85"/><rect width="6.915" height="12.99" x="12.604" y="7.112" fill="url(#f2104idc)" rx="1.85"/><rect width="6.915" height="12.99" x="12.604" y="7.112" fill="url(#f2104idk)" rx="1.85"/><rect width="6.915" height="12.99" x="12.604" y="7.112" fill="url(#f2104idd)" rx="1.85"/><rect width="6.915" height="12.99" x="12.604" y="7.112" fill="url(#f2104ide)" rx="1.85"/><defs><linearGradient id="f2104id0" x1="18.304" x2="21.679" y1="19.702" y2="28.014" gradientUnits="userSpaceOnUse"><stop stop-color="#BA2950"/><stop offset="1" stop-color="#DB1532"/></linearGradient><linearGradient id="f2104id1" x1="22.289" x2="20.351" y1="18.264" y2="21.577" gradientUnits="userSpaceOnUse"><stop offset=".283" stop-color="#980129"/><stop offset="1" stop-color="#980129" stop-opacity="0"/></linearGradient><linearGradient id="f2104id2" x1="17.378" x2="17.805" y1="22.623" y2="22.478" gradientUnits="userSpaceOnUse"><stop stop-color="#A80435"/><stop offset="1" stop-color="#A80435" stop-opacity="0"/></linearGradient><linearGradient id="f2104id3" x1="24.993" x2="24.617" y1="23.461" y2="23.598" gradientUnits="userSpaceOnUse"><stop stop-color="#E04E6F"/><stop offset="1" stop-color="#E04E6F" stop-opacity="0"/></linearGradient><linearGradient id="f2104id4" x1="13.789" x2="10.414" y1="19.702" y2="28.014" gradientUnits="userSpaceOnUse"><stop stop-color="#BA2950"/><stop offset="1" stop-color="#DB1532"/></linearGradient><linearGradient id="f2104id5" x1="7.637" x2="8.166" y1="21.97" y2="22.165" gradientUnits="userSpaceOnUse"><stop stop-color="#AA3244"/><stop offset="1" stop-color="#AA3244" stop-opacity="0"/></linearGradient><linearGradient id="f2104id6" x1="14.244" x2="13.864" y1="24.183" y2="24.034" gradientUnits="userSpaceOnUse"><stop offset=".176" stop-color="#D24162"/><stop offset="1" stop-color="#D24162" stop-opacity="0"/></linearGradient><linearGradient id="f2104id7" x1="12.914" x2="2" y1="13.889" y2="13.889" gradientUnits="userSpaceOnUse"><stop stop-color="#C92D60"/><stop offset=".497" stop-color="#CD2E4E"/><stop offset="1" stop-color="#A1383E"/></linearGradient><linearGradient id="f2104id8" x1="20.476" x2="29.94" y1="14.014" y2="14.014" gradientUnits="userSpaceOnUse"><stop offset=".092" stop-color="#A52548"/><stop offset="1" stop-color="#EC4953"/></linearGradient><linearGradient id="f2104id9" x1="19.067" x2="29.813" y1="17.752" y2="17.752" gradientUnits="userSpaceOnUse"><stop stop-color="#BB1865"/><stop offset="1" stop-color="#DD1836"/></linearGradient><linearGradient id="f2104ida" x1="12.873" x2="2.127" y1="17.752" y2="17.752" gradientUnits="userSpaceOnUse"><stop stop-color="#C31867"/><stop offset="1" stop-color="#C81745"/></linearGradient><linearGradient id="f2104idb" x1="16.061" x2="16.061" y1="7.112" y2="20.103" gradientUnits="userSpaceOnUse"><stop stop-color="#C83065"/><stop offset="1" stop-color="#DF1E30"/></linearGradient><linearGradient id="f2104idc" x1="11.733" x2="14.388" y1="12.703" y2="12.889" gradientUnits="userSpaceOnUse"><stop stop-color="#A2304B"/><stop offset="1" stop-color="#A2304B" stop-opacity="0"/></linearGradient><linearGradient id="f2104idd" x1="19.677" x2="18.675" y1="12.75" y2="12.75" gradientUnits="userSpaceOnUse"><stop stop-color="#C11451"/><stop offset="1" stop-color="#C11451" stop-opacity="0"/></linearGradient><linearGradient id="f2104ide" x1="16.718" x2="16.718" y1="20.577" y2="18.667" gradientUnits="userSpaceOnUse"><stop stop-color="#D12951"/><stop offset="1" stop-color="#D12951" stop-opacity="0"/></linearGradient><radialGradient id="f2104idf" cx="0" cy="0" r="1" gradientTransform="rotate(129.152 3.17 12.242) scale(6.04469 6.91506)" gradientUnits="userSpaceOnUse"><stop offset=".29" stop-color="#980129"/><stop offset="1" stop-color="#980129" stop-opacity="0"/></radialGradient><radialGradient id="f2104idg" cx="0" cy="0" r="1" gradientTransform="matrix(0 -9.9375 3.23171 0 10.476 17.514)" gradientUnits="userSpaceOnUse"><stop stop-color="#DB3665"/><stop offset="1" stop-color="#DB3665" stop-opacity="0"/></radialGradient><radialGradient id="f2104idh" cx="0" cy="0" r="1" gradientTransform="matrix(1.6409 8.51226 -11.6125 2.23853 27.625 12.077)" gradientUnits="userSpaceOnUse"><stop offset=".657" stop-color="#932128"/><stop offset="1" stop-color="#932128" stop-opacity="0"/></radialGradient><radialGradient id="f2104idi" cx="0" cy="0" r="1" gradientTransform="rotate(100.911 -2.828 7.82) scale(8.66897 11.8263)" gradientUnits="userSpaceOnUse"><stop offset=".657" stop-color="#97242A"/><stop offset="1" stop-color="#932128" stop-opacity="0"/></radialGradient><radialGradient id="f2104idj" cx="0" cy="0" r="1" gradientTransform="matrix(3.6875 -4.50366 5.11314 4.18653 24.601 19.17)" gradientUnits="userSpaceOnUse"><stop offset=".828" stop-color="#EC4C5C" stop-opacity="0"/><stop offset="1" stop-color="#EC4C5C"/></radialGradient><radialGradient id="f2104idk" cx="0" cy="0" r="1" gradientTransform="matrix(-4.61266 0 0 -.6523 20.12 17.549)" gradientUnits="userSpaceOnUse"><stop stop-color="#F75053"/><stop offset="1" stop-color="#F75053" stop-opacity="0"/></radialGradient><filter id="f2104idl" width="12.006" height="6.785" x="17.688" y="14.066" color-interpolation-filters="sRGB" filterUnits="userSpaceOnUse"><feFlood flood-opacity="0" result="BackgroundImageFix"/><feBlend in="SourceGraphic" in2="BackgroundImageFix" result="shape"/><feColorMatrix in="SourceAlpha" result="hardAlpha" values="0 0 0 0 0 0 0 0 0 0 0 0 0 0 0 0 0 0 127 0"/><feOffset dy=".1"/><feGaussianBlur stdDeviation=".1"/><feComposite in2="hardAlpha" k2="-1" k3="1" operator="arithmetic"/><feColorMatrix values="0 0 0 0 0.811765 0 0 0 0 0.254902 0 0 0 0 0.388235 0 0 0 1 0"/><feBlend in2="shape" result="effect1_innerShadow_18_1233"/></filter><filter id="f2104idm" width="12.006" height="6.785" x="2.246" y="14.066" color-interpolation-filters="sRGB" filterUnits="userSpaceOnUse"><feFlood flood-opacity="0" result="BackgroundImageFix"/><feBlend in="SourceGraphic" in2="BackgroundImageFix" result="shape"/><feColorMatrix in="SourceAlpha" result="hardAlpha" values="0 0 0 0 0 0 0 0 0 0 0 0 0 0 0 0 0 0 127 0"/><feOffset dy=".1"/><feGaussianBlur stdDeviation=".1"/><feComposite in2="hardAlpha" k2="-1" k3="1" operator="arithmetic"/><feColorMatrix values="0 0 0 0 0.843137 0 0 0 0 0.25098 0 0 0 0 0.341176 0 0 0 1 0"/><feBlend in2="shape" result="effect1_innerShadow_18_1233"/></filter></defs></g></svg>