<svg xmlns="http://www.w3.org/2000/svg" viewBox="0 0 32 32"><g fill="none"><g filter="url(#f640idp)"><path fill="#A3796E" d="M11.894 7.997L28.255 24.36a2.936 2.936 0 1 1-4.152 4.152L7.742 12.15l4.152-4.153Z"/><path fill="url(#f640idf)" d="M11.894 7.997L28.255 24.36a2.936 2.936 0 1 1-4.152 4.152L7.742 12.15l4.152-4.153Z"/><path fill="url(#f640idg)" d="M11.894 7.997L28.255 24.36a2.936 2.936 0 1 1-4.152 4.152L7.742 12.15l4.152-4.153Z"/></g><g filter="url(#f640idq)"><path fill="url(#f640idh)" d="M11.855 11.255a.766.766 0 0 1 1.082-1.083l14.897 14.896a.766.766 0 0 1-1.083 1.083L11.855 11.255Z"/><path fill="url(#f640id0)" d="M11.855 11.255a.766.766 0 0 1 1.082-1.083l14.897 14.896a.766.766 0 0 1-1.083 1.083L11.855 11.255Z"/></g><g filter="url(#f640idr)"><path fill="#ADA9B9" d="M2.433 10.818c.714-.714 1.571-.508 2.494-.05c.177.087.335.206.474.345l2.843 2.844c.1.1.19.208.26.33c.569.981.605 1.964.03 2.538L7.43 17.9a.25.25 0 0 1-.353 0l-5.678-5.68a.25.25 0 0 1 0-.354l1.034-1.05Z"/><path fill="url(#f640id1)" d="M2.433 10.818c.714-.714 1.571-.508 2.494-.05c.177.087.335.206.474.345l2.843 2.844c.1.1.19.208.26.33c.569.981.605 1.964.03 2.538L7.43 17.9a.25.25 0 0 1-.353 0l-5.678-5.68a.25.25 0 0 1 0-.354l1.034-1.05Z"/><path fill="url(#f640id2)" d="M2.433 10.818c.714-.714 1.571-.508 2.494-.05c.177.087.335.206.474.345l2.843 2.844c.1.1.19.208.26.33c.569.981.605 1.964.03 2.538L7.43 17.9a.25.25 0 0 1-.353 0l-5.678-5.68a.25.25 0 0 1 0-.354l1.034-1.05Z"/><path fill="url(#f640id3)" d="M2.433 10.818c.714-.714 1.571-.508 2.494-.05c.177.087.335.206.474.345l2.843 2.844c.1.1.19.208.26.33c.569.981.605 1.964.03 2.538L7.43 17.9a.25.25 0 0 1-.353 0l-5.678-5.68a.25.25 0 0 1 0-.354l1.034-1.05Z"/><path fill="url(#f640id4)" d="M2.433 10.818c.714-.714 1.571-.508 2.494-.05c.177.087.335.206.474.345l2.843 2.844c.1.1.19.208.26.33c.569.981.605 1.964.03 2.538L7.43 17.9a.25.25 0 0 1-.353 0l-5.678-5.68a.25.25 0 0 1 0-.354l1.034-1.05Z"/></g><path fill="url(#f640id5)" d="M11.894 7.997L28.255 24.36a2.936 2.936 0 1 1-4.152 4.152L7.742 12.15l4.152-4.153Z"/><g filter="url(#f640ids)"><path fill="#CAC3DA" d="M12.853 6.704a.5.5 0 0 0 0 .706l2.141 2.14a.4.4 0 0 1 0 .566L9.85 15.261a.4.4 0 0 1-.566 0l-4.64-4.64a.75.75 0 0 1 0-1.06L11.2 3.004a2 2 0 0 1 1.578-.579l3.149.26a.4.4 0 0 1 .25.68l-3.324 3.339Z"/></g><path fill="url(#f640idi)" d="M12.853 6.704a.5.5 0 0 0 0 .706l2.141 2.14a.4.4 0 0 1 0 .566L9.85 15.261a.4.4 0 0 1-.566 0l-4.64-4.64a.75.75 0 0 1 0-1.06L11.2 3.004a2 2 0 0 1 1.578-.579l3.149.26a.4.4 0 0 1 .25.68l-3.324 3.339Z"/><path fill="url(#f640id6)" d="M12.853 6.704a.5.5 0 0 0 0 .706l2.141 2.14a.4.4 0 0 1 0 .566L9.85 15.261a.4.4 0 0 1-.566 0l-4.64-4.64a.75.75 0 0 1 0-1.06L11.2 3.004a2 2 0 0 1 1.578-.579l3.149.26a.4.4 0 0 1 .25.68l-3.324 3.339Z"/><path fill="url(#f640id7)" d="M12.853 6.704a.5.5 0 0 0 0 .706l2.141 2.14a.4.4 0 0 1 0 .566L9.85 15.261a.4.4 0 0 1-.566 0l-4.64-4.64a.75.75 0 0 1 0-1.06L11.2 3.004a2 2 0 0 1 1.578-.579l3.149.26a.4.4 0 0 1 .25.68l-3.324 3.339Z"/><g filter="url(#f640idt)"><path fill="url(#f640idj)" d="M6.621 11.927h7.225v4.278H6.621z" transform="rotate(-45 6.621 11.927)"/><path fill="url(#f640idk)" d="M6.621 11.927h7.225v4.278H6.621z" transform="rotate(-45 6.621 11.927)"/></g><g filter="url(#f640idu)"><path fill="url(#f640idl)" d="M25.388 3.439c.342.09.425.511.175.761L23.14 6.624a.75.75 0 0 0 0 1.06l1.548 1.55a.75.75 0 0 0 1.061 0L28.182 6.8c.249-.25.67-.167.761.173a5.008 5.008 0 0 1-6.094 6.156a.647.647 0 0 0-.622.157l-8.589 8.589a.647.647 0 0 0-.158.617a5.008 5.008 0 0 1-6.138 6.068c-.341-.09-.425-.511-.175-.761l2.424-2.424a.75.75 0 0 0 0-1.06l-1.549-1.55a.75.75 0 0 0-1.06 0L4.549 25.2c-.25.25-.67.167-.761-.173a5.014 5.014 0 0 1 6.083-6.158c.22.056.459.003.62-.158l8.598-8.598a.647.647 0 0 0 .16-.616a5.008 5.008 0 0 1 6.14-6.057Z"/><path fill="url(#f640id8)" d="M25.388 3.439c.342.09.425.511.175.761L23.14 6.624a.75.75 0 0 0 0 1.06l1.548 1.55a.75.75 0 0 0 1.061 0L28.182 6.8c.249-.25.67-.167.761.173a5.008 5.008 0 0 1-6.094 6.156a.647.647 0 0 0-.622.157l-8.589 8.589a.647.647 0 0 0-.158.617a5.008 5.008 0 0 1-6.138 6.068c-.341-.09-.425-.511-.175-.761l2.424-2.424a.75.75 0 0 0 0-1.06l-1.549-1.55a.75.75 0 0 0-1.06 0L4.549 25.2c-.25.25-.67.167-.761-.173a5.014 5.014 0 0 1 6.083-6.158c.22.056.459.003.62-.158l8.598-8.598a.647.647 0 0 0 .16-.616a5.008 5.008 0 0 1 6.14-6.057Z"/></g><path fill="url(#f640idm)" d="M19.463 9.746h4.464v12.927h-4.464z" transform="rotate(45 19.463 9.746)"/><path fill="url(#f640idn)" d="M19.463 9.746h4.464v12.927h-4.464z" transform="rotate(45 19.463 9.746)"/><path fill="url(#f640ido)" d="M19.463 9.746h4.464v12.927h-4.464z" transform="rotate(45 19.463 9.746)"/><path fill="url(#f640id9)" d="M19.463 9.746h4.464v12.927h-4.464z" transform="rotate(45 19.463 9.746)"/><path fill="url(#f640ida)" d="M7.167 27.8c-.25.25-.166.671.175.761a5.008 5.008 0 1 0-3.555-3.535c.093.34.513.422.762.173l2.433-2.433a.75.75 0 0 1 1.06 0l1.55 1.55a.75.75 0 0 1 0 1.06L7.166 27.8Z"/><path fill="url(#f640idb)" d="M7.167 27.8c-.25.25-.166.671.175.761a5.008 5.008 0 1 0-3.555-3.535c.093.34.513.422.762.173l2.433-2.433a.75.75 0 0 1 1.06 0l1.55 1.55a.75.75 0 0 1 0 1.06L7.166 27.8Z"/><path fill="url(#f640idc)" d="M7.167 27.8c-.25.25-.166.671.175.761a5.008 5.008 0 1 0-3.555-3.535c.093.34.513.422.762.173l2.433-2.433a.75.75 0 0 1 1.06 0l1.55 1.55a.75.75 0 0 1 0 1.06L7.166 27.8Z"/><path fill="url(#f640idd)" d="M25.388 3.439c.342.09.425.511.175.761L23.14 6.624a.75.75 0 0 0 0 1.06l1.548 1.55a.75.75 0 0 0 1.061 0L28.182 6.8c.249-.25.67-.167.761.173a5.008 5.008 0 0 1-5.87 6.208a.906.906 0 0 1-.45-.252l-3.164-3.164a.906.906 0 0 1-.252-.45a5.008 5.008 0 0 1 6.182-5.877Z"/><path fill="url(#f640ide)" d="M25.388 3.439c.342.09.425.511.175.761L23.14 6.624a.75.75 0 0 0 0 1.06l1.548 1.55a.75.75 0 0 0 1.061 0L28.182 6.8c.249-.25.67-.167.761.173a5.008 5.008 0 0 1-5.87 6.208a.906.906 0 0 1-.45-.252l-3.164-3.164a.906.906 0 0 1-.252-.45a5.008 5.008 0 0 1 6.182-5.877Z"/><defs><radialGradient id="f640id0" cx="0" cy="0" r="1" gradientTransform="matrix(-1.78126 -1.28124 1.64014 -2.28022 28.355 25.943)" gradientUnits="userSpaceOnUse"><stop stop-color="#9B7775"/><stop offset="1" stop-color="#9B7775" stop-opacity="0"/></radialGradient><radialGradient id="f640id1" cx="0" cy="0" r="1" gradientTransform="matrix(2.15627 -2.20266 2.20324 2.15683 5.137 15.87)" gradientUnits="userSpaceOnUse"><stop stop-color="#CABFDD"/><stop offset="1" stop-color="#CABFDD" stop-opacity="0"/></radialGradient><radialGradient id="f640id2" cx="0" cy="0" r="1" gradientTransform="rotate(-47.332 19.577 2.572) scale(4.8875 11.3328)" gradientUnits="userSpaceOnUse"><stop offset=".599" stop-color="#BBB9C3" stop-opacity="0"/><stop offset=".776" stop-color="#8C889A"/></radialGradient><radialGradient id="f640id3" cx="0" cy="0" r="1" gradientTransform="matrix(-1.25 1.4375 -4.40954 -3.83437 6.23 13.224)" gradientUnits="userSpaceOnUse"><stop stop-color="#DED9EA"/><stop offset="1" stop-color="#CAC1DC" stop-opacity="0"/></radialGradient><radialGradient id="f640id4" cx="0" cy="0" r="1" gradientTransform="rotate(-177.818 3.833 6.448) scale(6.56726 8.47243)" gradientUnits="userSpaceOnUse"><stop offset=".547" stop-color="#8F8C98" stop-opacity="0"/><stop offset="1" stop-color="#8F8C98"/></radialGradient><radialGradient id="f640id5" cx="0" cy="0" r="1" gradientTransform="rotate(-132.466 11.531 4.405) scale(2.75103 21.6672)" gradientUnits="userSpaceOnUse"><stop offset=".319" stop-color="#563235"/><stop offset="1" stop-color="#563235" stop-opacity="0"/></radialGradient><radialGradient id="f640id6" cx="0" cy="0" r="1" gradientTransform="rotate(136.759 7.216 4.733) scale(1.67855 .33786)" gradientUnits="userSpaceOnUse"><stop stop-color="#DFDDE8"/><stop offset="1" stop-color="#CCC9D6" stop-opacity="0"/></radialGradient><radialGradient id="f640id7" cx="0" cy="0" r="1" gradientTransform="matrix(-3.49836 2.39699 -1.91507 -2.795 15.456 8.29)" gradientUnits="userSpaceOnUse"><stop offset=".201" stop-color="#ECEAF4"/><stop offset="1" stop-color="#ECEAF4" stop-opacity="0"/></radialGradient><radialGradient id="f640id8" cx="0" cy="0" r="1" gradientTransform="matrix(-4.21876 4.03125 -2.7613 -2.88975 29.506 6.32)" gradientUnits="userSpaceOnUse"><stop stop-color="#E1DFE7"/><stop offset="1" stop-color="#E1DFE7" stop-opacity="0"/></radialGradient><radialGradient id="f640id9" cx="0" cy="0" r="1" gradientTransform="matrix(-.13258 -1.12695 2.49429 -.29345 22.175 22.54)" gradientUnits="userSpaceOnUse"><stop offset=".341" stop-color="#E0DBE9"/><stop offset="1" stop-color="#D3CEDA" stop-opacity="0"/></radialGradient><radialGradient id="f640ida" cx="0" cy="0" r="1" gradientTransform="matrix(-6.53123 -1.96879 2.30664 -7.65204 10.694 24.04)" gradientUnits="userSpaceOnUse"><stop offset=".683" stop-color="#9D99A6" stop-opacity="0"/><stop offset="1" stop-color="#9D99A6"/></radialGradient><radialGradient id="f640idb" cx="0" cy="0" r="1" gradientTransform="matrix(.09375 7.1875 -9.91348 .1293 8.85 21.945)" gradientUnits="userSpaceOnUse"><stop offset=".406" stop-color="#E0D0EF" stop-opacity="0"/><stop offset=".945" stop-color="#CBA8E2"/></radialGradient><radialGradient id="f640idc" cx="0" cy="0" r="1" gradientTransform="rotate(133.719 1.804 13.212) scale(3.70771 3.64672)" gradientUnits="userSpaceOnUse"><stop stop-color="#E9E3F3"/><stop offset="1" stop-color="#E9E3F3" stop-opacity="0"/></radialGradient><radialGradient id="f640idd" cx="0" cy="0" r="1" gradientTransform="matrix(-.625 -6.09375 8.4139 -.86296 23.881 13.29)" gradientUnits="userSpaceOnUse"><stop offset=".012" stop-color="#C3A9D9"/><stop offset="1" stop-color="#C3A9D9" stop-opacity="0"/></radialGradient><radialGradient id="f640ide" cx="0" cy="0" r="1" gradientTransform="matrix(-7.8125 -2.71877 2.88538 -8.29127 26.756 9.04)" gradientUnits="userSpaceOnUse"><stop offset=".696" stop-color="#AFA6BB" stop-opacity="0"/><stop offset=".956" stop-color="#9C98A3"/></radialGradient><linearGradient id="f640idf" x1="30.199" x2="25.855" y1="27.224" y2="22.88" gradientUnits="userSpaceOnUse"><stop offset=".065" stop-color="#7F494F"/><stop offset="1" stop-color="#7F494F" stop-opacity="0"/></linearGradient><linearGradient id="f640idg" x1="17.574" x2="21.136" y1="20.943" y2="17.255" gradientUnits="userSpaceOnUse"><stop offset=".058" stop-color="#733464"/><stop offset="1" stop-color="#7C425A" stop-opacity="0"/></linearGradient><linearGradient id="f640idh" x1="17.543" x2="26.73" y1="16.661" y2="25.693" gradientUnits="userSpaceOnUse"><stop stop-color="#A77975"/><stop offset="1" stop-color="#8F6969"/></linearGradient><linearGradient id="f640idi" x1="14.096" x2="13.998" y1="2.622" y2="3.853" gradientUnits="userSpaceOnUse"><stop stop-color="#CCCCD3"/><stop offset="1" stop-color="#CCCCD3" stop-opacity="0"/></linearGradient><linearGradient id="f640idj" x1="13.803" x2="6.552" y1="14.924" y2="15.356" gradientUnits="userSpaceOnUse"><stop stop-color="#EDEAF7"/><stop offset="1" stop-color="#A89ABE"/></linearGradient><linearGradient id="f640idk" x1="10.234" x2="10.256" y1="11.927" y2="13.208" gradientUnits="userSpaceOnUse"><stop offset=".111" stop-color="#B2ADC0"/><stop offset="1" stop-color="#B2ADC0" stop-opacity="0"/></linearGradient><linearGradient id="f640idl" x1="13.194" x2="18.444" y1="12.883" y2="19.07" gradientUnits="userSpaceOnUse"><stop stop-color="#BAB6C1"/><stop offset="1" stop-color="#E0DBE7"/></linearGradient><linearGradient id="f640idm" x1="18.375" x2="22.323" y1="16.706" y2="16.827" gradientUnits="userSpaceOnUse"><stop stop-color="#9E9AA4"/><stop offset="1" stop-color="#D2CED9" stop-opacity="0"/></linearGradient><linearGradient id="f640idn" x1="21.711" x2="21.675" y1="9.424" y2="10.267" gradientUnits="userSpaceOnUse"><stop offset=".275" stop-color="#C8B4D9"/><stop offset="1" stop-color="#C8B4D9" stop-opacity="0"/></linearGradient><linearGradient id="f640ido" x1="24.827" x2="21.44" y1="16.062" y2="15.955" gradientUnits="userSpaceOnUse"><stop stop-color="#D3C1E6"/><stop offset="1" stop-color="#D3C1E6" stop-opacity="0"/></linearGradient><filter id="f640idp" width="21.374" height="21.524" x="7.742" y="7.847" color-interpolation-filters="sRGB" filterUnits="userSpaceOnUse"><feFlood flood-opacity="0" result="BackgroundImageFix"/><feBlend in="SourceGraphic" in2="BackgroundImageFix" result="shape"/><feColorMatrix in="SourceAlpha" result="hardAlpha" values="0 0 0 0 0 0 0 0 0 0 0 0 0 0 0 0 0 0 127 0"/><feOffset dy="-.15"/><feGaussianBlur stdDeviation=".15"/><feComposite in2="hardAlpha" k2="-1" k3="1" operator="arithmetic"/><feColorMatrix values="0 0 0 0 0.643137 0 0 0 0 0.384314 0 0 0 0 0.737255 0 0 0 1 0"/><feBlend in2="shape" result="effect1_innerShadow_18_23916"/></filter><filter id="f640idq" width="18.428" height="18.428" x="10.63" y="8.948" color-interpolation-filters="sRGB" filterUnits="userSpaceOnUse"><feFlood flood-opacity="0" result="BackgroundImageFix"/><feBlend in="SourceGraphic" in2="BackgroundImageFix" result="shape"/><feGaussianBlur result="effect1_foregroundBlur_18_23916" stdDeviation=".5"/></filter><filter id="f640idr" width="7.773" height="7.771" x="1.326" y="10.201" color-interpolation-filters="sRGB" filterUnits="userSpaceOnUse"><feFlood flood-opacity="0" result="BackgroundImageFix"/><feBlend in="SourceGraphic" in2="BackgroundImageFix" result="shape"/><feColorMatrix in="SourceAlpha" result="hardAlpha" values="0 0 0 0 0 0 0 0 0 0 0 0 0 0 0 0 0 0 127 0"/><feOffset dx=".15" dy="-.15"/><feGaussianBlur stdDeviation=".375"/><feComposite in2="hardAlpha" k2="-1" k3="1" operator="arithmetic"/><feColorMatrix values="0 0 0 0 0.552941 0 0 0 0 0.541176 0 0 0 0 0.592157 0 0 0 1 0"/><feBlend in2="shape" result="effect1_innerShadow_18_23916"/></filter><filter id="f640ids" width="12.121" height="13.21" x="4.424" y="2.168" color-interpolation-filters="sRGB" filterUnits="userSpaceOnUse"><feFlood flood-opacity="0" result="BackgroundImageFix"/><feBlend in="SourceGraphic" in2="BackgroundImageFix" result="shape"/><feColorMatrix in="SourceAlpha" result="hardAlpha" values="0 0 0 0 0 0 0 0 0 0 0 0 0 0 0 0 0 0 127 0"/><feOffset dx=".25" dy="-.25"/><feGaussianBlur stdDeviation=".5"/><feComposite in2="hardAlpha" k2="-1" k3="1" operator="arithmetic"/><feColorMatrix values="0 0 0 0 0.537255 0 0 0 0 0.52549 0 0 0 0 0.596078 0 0 0 1 0"/><feBlend in2="shape" result="effect1_innerShadow_18_23916"/></filter><filter id="f640idt" width="10.134" height="10.134" x="5.621" y="5.818" color-interpolation-filters="sRGB" filterUnits="userSpaceOnUse"><feFlood flood-opacity="0" result="BackgroundImageFix"/><feBlend in="SourceGraphic" in2="BackgroundImageFix" result="shape"/><feGaussianBlur result="effect1_foregroundBlur_18_23916" stdDeviation=".5"/></filter><filter id="f640idu" width="25.9" height="25.853" x="3.415" y="3.073" color-interpolation-filters="sRGB" filterUnits="userSpaceOnUse"><feFlood flood-opacity="0" result="BackgroundImageFix"/><feBlend in="SourceGraphic" in2="BackgroundImageFix" result="shape"/><feColorMatrix in="SourceAlpha" result="hardAlpha" values="0 0 0 0 0 0 0 0 0 0 0 0 0 0 0 0 0 0 127 0"/><feOffset dx=".2" dy=".2"/><feGaussianBlur stdDeviation=".3"/><feComposite in2="hardAlpha" k2="-1" k3="1" operator="arithmetic"/><feColorMatrix values="0 0 0 0 0.701961 0 0 0 0 0.686275 0 0 0 0 0.733333 0 0 0 1 0"/><feBlend in2="shape" result="effect1_innerShadow_18_23916"/><feColorMatrix in="SourceAlpha" result="hardAlpha" values="0 0 0 0 0 0 0 0 0 0 0 0 0 0 0 0 0 0 127 0"/><feOffset dx="-.2" dy="-.2"/><feGaussianBlur stdDeviation=".2"/><feComposite in2="hardAlpha" k2="-1" k3="1" operator="arithmetic"/><feColorMatrix values="0 0 0 0 0.866667 0 0 0 0 0.854902 0 0 0 0 0.894118 0 0 0 1 0"/><feBlend in2="effect1_innerShadow_18_23916" result="effect2_innerShadow_18_23916"/></filter></defs></g></svg>