<svg xmlns="http://www.w3.org/2000/svg" width="128" height="128" viewBox="0 0 32 32"><g fill="none"><path fill="url(#f354id0)" d="M21.448 23.87h2.677v6.441h-2.677z" transform="rotate(-45 21.448 23.87)"/><g filter="url(#f354idv)"><path fill="url(#f354id1)" d="M22.436 22.883h.707v6.441h-.707z" transform="rotate(-45 22.436 22.883)"/></g><g filter="url(#f354idw)"><path fill="url(#f354id2)" d="M2.202 6.618a2 2 0 0 1-.586-1.415l.001-2.496a.6.6 0 0 1 .6-.6h2.496a2 2 0 0 1 1.415.585L24.29 20.855l-3.925 3.926L2.202 6.618Z"/><path fill="url(#f354id3)" d="M2.202 6.618a2 2 0 0 1-.586-1.415l.001-2.496a.6.6 0 0 1 .6-.6h2.496a2 2 0 0 1 1.415.585L24.29 20.855l-3.925 3.926L2.202 6.618Z"/><path fill="url(#f354idi)" d="M2.202 6.618a2 2 0 0 1-.586-1.415l.001-2.496a.6.6 0 0 1 .6-.6h2.496a2 2 0 0 1 1.415.585L24.29 20.855l-3.925 3.926L2.202 6.618Z"/></g><g filter="url(#f354idx)"><path fill="url(#f354id4)" d="M25.262 29.56a1.334 1.334 0 0 1 0-1.886l1.883-1.883a1.334 1.334 0 1 1 1.887 1.887l-1.883 1.883a1.334 1.334 0 0 1-1.887 0Z"/><path fill="url(#f354idj)" d="M25.262 29.56a1.334 1.334 0 0 1 0-1.886l1.883-1.883a1.334 1.334 0 1 1 1.887 1.887l-1.883 1.883a1.334 1.334 0 0 1-1.887 0Z"/></g><path fill="url(#f354idk)" d="M25.262 29.56a1.334 1.334 0 0 1 0-1.886l1.883-1.883a1.334 1.334 0 1 1 1.887 1.887l-1.883 1.883a1.334 1.334 0 0 1-1.887 0Z"/><g filter="url(#f354idy)"><path fill="url(#f354id5)" d="M1.783 2.293a.598.598 0 0 1 .434-.186h2.496a2 2 0 0 1 1.415.585L24.29 20.855l-1.972 1.973L1.783 2.293Z"/><path fill="url(#f354id6)" d="M1.783 2.293a.598.598 0 0 1 .434-.186h2.496a2 2 0 0 1 1.415.585L24.29 20.855l-1.972 1.973L1.783 2.293Z"/><path fill="url(#f354idl)" d="M1.783 2.293a.598.598 0 0 1 .434-.186h2.496a2 2 0 0 1 1.415.585L24.29 20.855l-1.972 1.973L1.783 2.293Z"/><path fill="url(#f354idm)" d="M1.783 2.293a.598.598 0 0 1 .434-.186h2.496a2 2 0 0 1 1.415.585L24.29 20.855l-1.972 1.973L1.783 2.293Z"/></g><path fill="#614B76" d="M16.694 25.452c0 .142.099.265.238.29a7.155 7.155 0 0 0 8.313-8.218a.292.292 0 0 0-.29-.243h-2.127c-.205 0-.35.202-.303.401a4.455 4.455 0 0 1-5.424 5.336c-.202-.05-.407.095-.407.302v2.132Z"/><path fill="url(#f354id7)" d="M16.694 25.452c0 .142.099.265.238.29a7.155 7.155 0 0 0 8.313-8.218a.292.292 0 0 0-.29-.243h-2.127c-.205 0-.35.202-.303.401a4.455 4.455 0 0 1-5.424 5.336c-.202-.05-.407.095-.407.302v2.132Z"/><path fill="url(#f354idn)" d="M16.694 25.452c0 .142.099.265.238.29a7.155 7.155 0 0 0 8.313-8.218a.292.292 0 0 0-.29-.243h-2.127c-.205 0-.35.202-.303.401a4.455 4.455 0 0 1-5.424 5.336c-.202-.05-.407.095-.407.302v2.132Z"/><path fill="url(#f354ido)" d="M16.694 25.452c0 .142.099.265.238.29a7.155 7.155 0 0 0 8.313-8.218a.292.292 0 0 0-.29-.243h-2.127c-.205 0-.35.202-.303.401a4.455 4.455 0 0 1-5.424 5.336c-.202-.05-.407.095-.407.302v2.132Z"/><path fill="url(#f354idp)" d="M16.694 25.452c0 .142.099.265.238.29a7.155 7.155 0 0 0 8.313-8.218a.292.292 0 0 0-.29-.243h-2.127c-.205 0-.35.202-.303.401a4.455 4.455 0 0 1-5.424 5.336c-.202-.05-.407.095-.407.302v2.132Z"/><g filter="url(#f354idz)"><path fill="url(#f354id8)" d="M18.186 25.25c-.303 0-.6-.02-.892-.06v-1.518a5.055 5.055 0 0 0 5.881-5.791h1.515a6.555 6.555 0 0 1-6.505 7.37Z"/></g><path fill="url(#f354id9)" d="M0 0h2.677v6.441H0z" transform="scale(-1 1) rotate(-45 24.019 23.511)"/><g filter="url(#f354id10)"><path fill="url(#f354ida)" d="M0 0h.707v6.441H0z" transform="scale(-1 1) rotate(-45 23.32 21.826)"/></g><g filter="url(#f354id11)"><path fill="url(#f354idb)" d="M28.837 6.618a2 2 0 0 0 .585-1.415V2.707a.6.6 0 0 0-.6-.6h-2.496a2 2 0 0 0-1.415.585L6.747 20.855l3.926 3.926L28.837 6.618Z"/><path fill="url(#f354idc)" d="M28.837 6.618a2 2 0 0 0 .585-1.415V2.707a.6.6 0 0 0-.6-.6h-2.496a2 2 0 0 0-1.415.585L6.747 20.855l3.926 3.926L28.837 6.618Z"/></g><g filter="url(#f354id12)"><path fill="url(#f354idd)" d="M5.777 29.56a1.334 1.334 0 0 0 0-1.886L3.894 25.79a1.334 1.334 0 0 0-1.887 1.887L3.89 29.56a1.334 1.334 0 0 0 1.887 0Z"/><path fill="url(#f354idq)" d="M5.777 29.56a1.334 1.334 0 0 0 0-1.886L3.894 25.79a1.334 1.334 0 0 0-1.887 1.887L3.89 29.56a1.334 1.334 0 0 0 1.887 0Z"/></g><path fill="url(#f354idr)" d="M5.777 29.56a1.334 1.334 0 0 0 0-1.886L3.894 25.79a1.334 1.334 0 0 0-1.887 1.887L3.89 29.56a1.334 1.334 0 0 0 1.887 0Z"/><g filter="url(#f354id13)"><path fill="url(#f354ide)" d="M29.255 2.293a.598.598 0 0 0-.433-.186h-2.496a2 2 0 0 0-1.415.585L6.747 20.855l1.973 1.973L29.255 2.293Z"/><path fill="url(#f354idf)" d="M29.255 2.293a.598.598 0 0 0-.433-.186h-2.496a2 2 0 0 0-1.415.585L6.747 20.855l1.973 1.973L29.255 2.293Z"/></g><path fill="#614B76" d="M14.345 25.452a.292.292 0 0 1-.239.29a7.155 7.155 0 0 1-8.313-8.218a.292.292 0 0 1 .29-.243h2.128c.204 0 .35.202.303.401a4.455 4.455 0 0 0 5.424 5.336c.201-.05.407.095.407.302v2.132Z"/><path fill="url(#f354idg)" d="M14.345 25.452a.292.292 0 0 1-.239.29a7.155 7.155 0 0 1-8.313-8.218a.292.292 0 0 1 .29-.243h2.128c.204 0 .35.202.303.401a4.455 4.455 0 0 0 5.424 5.336c.201-.05.407.095.407.302v2.132Z"/><path fill="url(#f354ids)" d="M14.345 25.452a.292.292 0 0 1-.239.29a7.155 7.155 0 0 1-8.313-8.218a.292.292 0 0 1 .29-.243h2.128c.204 0 .35.202.303.401a4.455 4.455 0 0 0 5.424 5.336c.201-.05.407.095.407.302v2.132Z"/><path fill="url(#f354idt)" d="M14.345 25.452a.292.292 0 0 1-.239.29a7.155 7.155 0 0 1-8.313-8.218a.292.292 0 0 1 .29-.243h2.128c.204 0 .35.202.303.401a4.455 4.455 0 0 0 5.424 5.336c.201-.05.407.095.407.302v2.132Z"/><path fill="url(#f354idu)" d="M14.345 25.452a.292.292 0 0 1-.239.29a7.155 7.155 0 0 1-8.313-8.218a.292.292 0 0 1 .29-.243h2.128c.204 0 .35.202.303.401a4.455 4.455 0 0 0 5.424 5.336c.201-.05.407.095.407.302v2.132Z"/><g filter="url(#f354id14)"><path fill="url(#f354idh)" d="M12.853 25.25c.303 0 .6-.02.892-.06v-1.518a5.055 5.055 0 0 1-5.881-5.791H6.347a6.555 6.555 0 0 0 6.505 7.37Z"/></g><defs><linearGradient id="f354id0" x1="22.787" x2="22.668" y1="23.87" y2="29.384" gradientUnits="userSpaceOnUse"><stop stop-color="#2B1E38"/><stop offset="1" stop-color="#502E76"/></linearGradient><linearGradient id="f354id1" x1="22.79" x2="22.79" y1="22.883" y2="29.324" gradientUnits="userSpaceOnUse"><stop stop-color="#454249"/><stop offset="1" stop-color="#674D82"/></linearGradient><linearGradient id="f354id2" x1="7.147" x2="20.959" y1="9.437" y2="23.719" gradientUnits="userSpaceOnUse"><stop stop-color="#9F94AC"/><stop offset="1" stop-color="#8F76A7"/></linearGradient><linearGradient id="f354id3" x1="15.834" x2="13.366" y1="12.625" y2="15.031" gradientUnits="userSpaceOnUse"><stop offset=".478" stop-color="#ACA0B9"/><stop offset="1" stop-color="#ACA0B9" stop-opacity="0"/></linearGradient><linearGradient id="f354id4" x1="27.147" x2="27.147" y1="25.656" y2="29.951" gradientUnits="userSpaceOnUse"><stop stop-color="#6563A7"/><stop offset="1" stop-color="#6345A1"/></linearGradient><linearGradient id="f354id5" x1="3.616" x2="22.366" y1="2.719" y2="20.875" gradientUnits="userSpaceOnUse"><stop stop-color="#DBD7E0"/><stop offset="1" stop-color="#D7D1DE"/></linearGradient><linearGradient id="f354id6" x1="13.772" x2="14.155" y1="14.516" y2="14.109" gradientUnits="userSpaceOnUse"><stop stop-color="#C8BFD2"/><stop offset="1" stop-color="#C8BFD2" stop-opacity="0"/></linearGradient><linearGradient id="f354id7" x1="16.694" x2="18.959" y1="24.688" y2="24.844" gradientUnits="userSpaceOnUse"><stop offset=".255" stop-color="#403848"/><stop offset="1" stop-color="#403848" stop-opacity="0"/></linearGradient><linearGradient id="f354id8" x1="23.897" x2="17.428" y1="18.594" y2="25.063" gradientUnits="userSpaceOnUse"><stop stop-color="#654E7E"/><stop offset="1" stop-color="#52475F"/></linearGradient><linearGradient id="f354id9" x1="1.338" x2="1.22" y1="0" y2="5.513" gradientUnits="userSpaceOnUse"><stop stop-color="#2B1E38"/><stop offset="1" stop-color="#502E76"/></linearGradient><linearGradient id="f354ida" x1=".354" x2=".354" y1="0" y2="6.441" gradientUnits="userSpaceOnUse"><stop stop-color="#454249"/><stop offset="1" stop-color="#674D82"/></linearGradient><linearGradient id="f354idb" x1="23.892" x2="10.079" y1="9.437" y2="23.719" gradientUnits="userSpaceOnUse"><stop stop-color="#9F94AC"/><stop offset="1" stop-color="#8F76A7"/></linearGradient><linearGradient id="f354idc" x1="15.204" x2="17.673" y1="12.625" y2="15.031" gradientUnits="userSpaceOnUse"><stop offset=".478" stop-color="#ACA0B9"/><stop offset="1" stop-color="#ACA0B9" stop-opacity="0"/></linearGradient><linearGradient id="f354idd" x1="3.892" x2="3.892" y1="25.656" y2="29.951" gradientUnits="userSpaceOnUse"><stop stop-color="#6563A7"/><stop offset="1" stop-color="#6345A1"/></linearGradient><linearGradient id="f354ide" x1="27.423" x2="8.673" y1="2.719" y2="20.875" gradientUnits="userSpaceOnUse"><stop stop-color="#DBD7E0"/><stop offset="1" stop-color="#D7D1DE"/></linearGradient><linearGradient id="f354idf" x1="17.267" x2="16.884" y1="14.516" y2="14.109" gradientUnits="userSpaceOnUse"><stop stop-color="#C8BFD2"/><stop offset="1" stop-color="#C8BFD2" stop-opacity="0"/></linearGradient><linearGradient id="f354idg" x1="14.345" x2="12.079" y1="24.688" y2="24.844" gradientUnits="userSpaceOnUse"><stop offset=".255" stop-color="#403848"/><stop offset="1" stop-color="#403848" stop-opacity="0"/></linearGradient><linearGradient id="f354idh" x1="7.142" x2="13.611" y1="18.594" y2="25.063" gradientUnits="userSpaceOnUse"><stop stop-color="#654E7E"/><stop offset="1" stop-color="#52475F"/></linearGradient><radialGradient id="f354idi" cx="0" cy="0" r="1" gradientTransform="matrix(1.5 1.46875 -5.46005 5.57623 15.7 18.125)" gradientUnits="userSpaceOnUse"><stop offset=".348" stop-color="#8D72A7"/><stop offset="1" stop-color="#8D72A7" stop-opacity="0"/></radialGradient><radialGradient id="f354idj" cx="0" cy="0" r="1" gradientTransform="rotate(135 8.964 19.181) scale(3.0494 .66291)" gradientUnits="userSpaceOnUse"><stop stop-color="#736DB2"/><stop offset="1" stop-color="#736DB2" stop-opacity="0"/></radialGradient><radialGradient id="f354idk" cx="0" cy="0" r="1" gradientTransform="rotate(178.44 14.075 14.436) scale(4.01711 4.32354)" gradientUnits="userSpaceOnUse"><stop offset=".695" stop-color="#6B669F" stop-opacity="0"/><stop offset=".92" stop-color="#6B669F"/></radialGradient><radialGradient id="f354idl" cx="0" cy="0" r="1" gradientTransform="matrix(2.875 -6.125 2.47822 1.16325 15.2 14.063)" gradientUnits="userSpaceOnUse"><stop offset=".378" stop-color="#BDB8C2"/><stop offset="1" stop-color="#BDB8C2" stop-opacity="0"/></radialGradient><radialGradient id="f354idm" cx="0" cy="0" r="1" gradientTransform="matrix(-3.18751 -3.06249 3.78735 -3.94196 23.168 20)" gradientUnits="userSpaceOnUse"><stop offset=".126" stop-color="#8A8094"/><stop offset="1" stop-color="#D1CBD8" stop-opacity="0"/></radialGradient><radialGradient id="f354idn" cx="0" cy="0" r="1" gradientTransform="matrix(2.125 2.1875 -8.4456 8.2043 20.303 20.875)" gradientUnits="userSpaceOnUse"><stop offset=".508" stop-color="#493A5A"/><stop offset=".819" stop-color="#493A5A" stop-opacity="0"/></radialGradient><radialGradient id="f354ido" cx="0" cy="0" r="1" gradientTransform="matrix(2.46875 3.5 -6.0614 4.27545 20.772 20.563)" gradientUnits="userSpaceOnUse"><stop offset=".696" stop-color="#492E62" stop-opacity="0"/><stop offset=".918" stop-color="#492E62"/></radialGradient><radialGradient id="f354idp" cx="0" cy="0" r="1" gradientTransform="matrix(-1 5.875 -1.17474 -.19996 25.584 17.281)" gradientUnits="userSpaceOnUse"><stop offset=".095" stop-color="#7A678F"/><stop offset="1" stop-color="#7A678F" stop-opacity="0"/></radialGradient><radialGradient id="f354idq" cx="0" cy="0" r="1" gradientTransform="rotate(45 -30.789 15.826) scale(3.0494 .66291)" gradientUnits="userSpaceOnUse"><stop stop-color="#736DB2"/><stop offset="1" stop-color="#736DB2" stop-opacity="0"/></radialGradient><radialGradient id="f354idr" cx="0" cy="0" r="1" gradientTransform="matrix(4.01562 .10937 -.11772 4.32194 2.501 28.484)" gradientUnits="userSpaceOnUse"><stop offset=".695" stop-color="#6B669F" stop-opacity="0"/><stop offset=".92" stop-color="#6B669F"/></radialGradient><radialGradient id="f354ids" cx="0" cy="0" r="1" gradientTransform="matrix(-2.12501 2.18749 -8.44556 -8.20435 10.736 20.875)" gradientUnits="userSpaceOnUse"><stop offset=".508" stop-color="#493A5A"/><stop offset=".819" stop-color="#493A5A" stop-opacity="0"/></radialGradient><radialGradient id="f354idt" cx="0" cy="0" r="1" gradientTransform="matrix(-2.46878 3.49997 -6.06135 -4.2755 10.267 20.563)" gradientUnits="userSpaceOnUse"><stop offset=".696" stop-color="#492E62" stop-opacity="0"/><stop offset=".918" stop-color="#492E62"/></radialGradient><radialGradient id="f354idu" cx="0" cy="0" r="1" gradientTransform="matrix(1 5.875 -1.17474 .19996 5.454 17.281)" gradientUnits="userSpaceOnUse"><stop offset=".095" stop-color="#7A678F"/><stop offset="1" stop-color="#7A678F" stop-opacity="0"/></radialGradient><filter id="f354idv" width="6.355" height="6.355" x="21.786" y="21.733" color-interpolation-filters="sRGB" filterUnits="userSpaceOnUse"><feFlood flood-opacity="0" result="BackgroundImageFix"/><feBlend in="SourceGraphic" in2="BackgroundImageFix" result="shape"/><feGaussianBlur result="effect1_foregroundBlur_18_24030" stdDeviation=".325"/></filter><filter id="f354idw" width="22.875" height="22.875" x="1.616" y="2.106" color-interpolation-filters="sRGB" filterUnits="userSpaceOnUse"><feFlood flood-opacity="0" result="BackgroundImageFix"/><feBlend in="SourceGraphic" in2="BackgroundImageFix" result="shape"/><feColorMatrix in="SourceAlpha" result="hardAlpha" values="0 0 0 0 0 0 0 0 0 0 0 0 0 0 0 0 0 0 127 0"/><feOffset dx=".2" dy=".2"/><feGaussianBlur stdDeviation=".2"/><feComposite in2="hardAlpha" k2="-1" k3="1" operator="arithmetic"/><feColorMatrix values="0 0 0 0 0.662745 0 0 0 0 0.643137 0 0 0 0 0.686275 0 0 0 1 0"/><feBlend in2="shape" result="effect1_innerShadow_18_24030"/></filter><filter id="f354idx" width="4.551" height="4.551" x="24.871" y="25.4" color-interpolation-filters="sRGB" filterUnits="userSpaceOnUse"><feFlood flood-opacity="0" result="BackgroundImageFix"/><feBlend in="SourceGraphic" in2="BackgroundImageFix" result="shape"/><feColorMatrix in="SourceAlpha" result="hardAlpha" values="0 0 0 0 0 0 0 0 0 0 0 0 0 0 0 0 0 0 127 0"/><feOffset/><feGaussianBlur stdDeviation=".25"/><feComposite in2="hardAlpha" k2="-1" k3="1" operator="arithmetic"/><feColorMatrix values="0 0 0 0 0.27451 0 0 0 0 0.258824 0 0 0 0 0.552941 0 0 0 1 0"/><feBlend in2="shape" result="effect1_innerShadow_18_24030"/></filter><filter id="f354idy" width="22.508" height="20.922" x="1.783" y="2.106" color-interpolation-filters="sRGB" filterUnits="userSpaceOnUse"><feFlood flood-opacity="0" result="BackgroundImageFix"/><feBlend in="SourceGraphic" in2="BackgroundImageFix" result="shape"/><feColorMatrix in="SourceAlpha" result="hardAlpha" values="0 0 0 0 0 0 0 0 0 0 0 0 0 0 0 0 0 0 127 0"/><feOffset dy=".2"/><feGaussianBlur stdDeviation=".25"/><feComposite in2="hardAlpha" k2="-1" k3="1" operator="arithmetic"/><feColorMatrix values="0 0 0 0 0.772549 0 0 0 0 0.772549 0 0 0 0 0.776471 0 0 0 1 0"/><feBlend in2="shape" result="effect1_innerShadow_18_24030"/></filter><filter id="f354idz" width="8.647" height="8.57" x="16.694" y="17.281" color-interpolation-filters="sRGB" filterUnits="userSpaceOnUse"><feFlood flood-opacity="0" result="BackgroundImageFix"/><feBlend in="SourceGraphic" in2="BackgroundImageFix" result="shape"/><feGaussianBlur result="effect1_foregroundBlur_18_24030" stdDeviation=".3"/></filter><filter id="f354id10" width="6.355" height="6.355" x="2.898" y="21.733" color-interpolation-filters="sRGB" filterUnits="userSpaceOnUse"><feFlood flood-opacity="0" result="BackgroundImageFix"/><feBlend in="SourceGraphic" in2="BackgroundImageFix" result="shape"/><feGaussianBlur result="effect1_foregroundBlur_18_24030" stdDeviation=".325"/></filter><filter id="f354id11" width="22.875" height="22.875" x="6.747" y="2.106" color-interpolation-filters="sRGB" filterUnits="userSpaceOnUse"><feFlood flood-opacity="0" result="BackgroundImageFix"/><feBlend in="SourceGraphic" in2="BackgroundImageFix" result="shape"/><feColorMatrix in="SourceAlpha" result="hardAlpha" values="0 0 0 0 0 0 0 0 0 0 0 0 0 0 0 0 0 0 127 0"/><feOffset dx=".2" dy=".2"/><feGaussianBlur stdDeviation=".2"/><feComposite in2="hardAlpha" k2="-1" k3="1" operator="arithmetic"/><feColorMatrix values="0 0 0 0 0.662745 0 0 0 0 0.643137 0 0 0 0 0.686275 0 0 0 1 0"/><feBlend in2="shape" result="effect1_innerShadow_18_24030"/></filter><filter id="f354id12" width="4.551" height="4.551" x="1.616" y="25.4" color-interpolation-filters="sRGB" filterUnits="userSpaceOnUse"><feFlood flood-opacity="0" result="BackgroundImageFix"/><feBlend in="SourceGraphic" in2="BackgroundImageFix" result="shape"/><feColorMatrix in="SourceAlpha" result="hardAlpha" values="0 0 0 0 0 0 0 0 0 0 0 0 0 0 0 0 0 0 127 0"/><feOffset/><feGaussianBlur stdDeviation=".25"/><feComposite in2="hardAlpha" k2="-1" k3="1" operator="arithmetic"/><feColorMatrix values="0 0 0 0 0.27451 0 0 0 0 0.258824 0 0 0 0 0.552941 0 0 0 1 0"/><feBlend in2="shape" result="effect1_innerShadow_18_24030"/></filter><filter id="f354id13" width="22.508" height="20.922" x="6.747" y="2.106" color-interpolation-filters="sRGB" filterUnits="userSpaceOnUse"><feFlood flood-opacity="0" result="BackgroundImageFix"/><feBlend in="SourceGraphic" in2="BackgroundImageFix" result="shape"/><feColorMatrix in="SourceAlpha" result="hardAlpha" values="0 0 0 0 0 0 0 0 0 0 0 0 0 0 0 0 0 0 127 0"/><feOffset dy=".2"/><feGaussianBlur stdDeviation=".25"/><feComposite in2="hardAlpha" k2="-1" k3="1" operator="arithmetic"/><feColorMatrix values="0 0 0 0 0.772549 0 0 0 0 0.772549 0 0 0 0 0.776471 0 0 0 1 0"/><feBlend in2="shape" result="effect1_innerShadow_18_24030"/></filter><filter id="f354id14" width="8.647" height="8.57" x="5.698" y="17.281" color-interpolation-filters="sRGB" filterUnits="userSpaceOnUse"><feFlood flood-opacity="0" result="BackgroundImageFix"/><feBlend in="SourceGraphic" in2="BackgroundImageFix" result="shape"/><feGaussianBlur result="effect1_foregroundBlur_18_24030" stdDeviation=".3"/></filter></defs></g></svg>