<?xml version="1.0" encoding="UTF-8"?>
<svg width="1200pt" height="1200pt" version="1.1" viewBox="0 0 1200 1200" xmlns="http://www.w3.org/2000/svg">
    <g>
        <path fill="currentColor" d="m392.25 706.45c3.75 5.25 9.8008 8.3516 16.25 8.3516h118.1l-83.25 303.95c-2.5 9.1016 1.6992 18.699 10.051 23 2.9492 1.5 6.1016 2.25 9.25 2.25 5.8008 0 11.5-2.5508 15.449-7.3008l401.35-487.05c5.1484-6.1992 6-14.852 2.3008-21.949-3.6992-7.1484-11.398-11.051-19.301-10.699l-187.95 14.852 206.4-327c4.3984-6.8984 4.1016-15.75-0.69922-22.352-4.8008-6.6484-13-9.6016-21-7.6992l-311.15 76.699c-6.6484 1.6016-11.949 6.5-14.148 12.949l-144.35 423.95c-2.0508 6.0508-1.0508 12.801 2.6992 18.051zm176.05-418.75 252.35-62.148-201.2 318.8c-4.0508 6.3984-4.1484 14.551-0.25 21 3.9492 6.4492 11.352 10 18.699 9.6016l180.75-14.301-312 378.55 65.551-239.1c1.6484-6 0.39844-12.449-3.3516-17.398-3.8008-4.9492-9.6484-7.8516-15.898-7.8516h-116.5z"/>
        <path fill="currentColor" d="m264.65 901.95-85.047 85.051c-7.8008 7.8008-7.8008 20.449 0 28.25 3.8984 3.8984 9.0508 5.8516 14.148 5.8516 5.1016 0 10.25-1.9492 14.148-5.8516l85.051-85.051c7.8008-7.8008 7.8008-20.449 0-28.25s-20.449-7.8008-28.301 0z"/>
        <path fill="currentColor" d="m1034.1 600.45c0 11.051 9 20 20 20h120.3c11.051 0 20-8.9492 20-20s-9-20-20-20h-120.3c-11 0-20 8.9492-20 20z"/>
        <path fill="currentColor" d="m25.5 620.4h120.3c11.051 0 20-8.9492 20-20 0-11.051-9-20-20-20h-120.3c-11.051 0-20 8.9492-20 20 0 11.051 9 20 20 20z"/>
        <path fill="currentColor" d="m992.05 1020.8c3.8984 3.8984 9.0508 5.8516 14.148 5.8516 5.1016 0 10.25-1.9492 14.148-5.8516 7.8008-7.8008 7.8008-20.449 0-28.25l-85.051-85.051c-7.8008-7.8008-20.5-7.8008-28.301 0-7.8008 7.8008-7.8008 20.449 0 28.25z"/>
        <path fill="currentColor" d="m207.95 180.1c-7.8008-7.8008-20.5-7.8008-28.301 0-7.8008 7.8008-7.8008 20.449 0 28.25l85.051 85.051c3.8984 3.8984 9.0508 5.8516 14.148 5.8516 5.1016-0.003906 10.254-1.9023 14.152-5.8555 7.8008-7.8008 7.8008-20.449 0-28.25z"/>
        <path fill="currentColor" d="m1022.3 447.8c2.4492 0 4.9492-0.44922 7.3516-1.3984l111.85-44.25c10.25-4.1016 15.301-15.699 11.25-25.949-4.0508-10.25-15.602-15.199-26-11.25l-111.85 44.25c-10.25 4.1016-15.301 15.699-11.25 25.949 3.1484 7.8477 10.699 12.648 18.648 12.648z"/>
        <path fill="currentColor" d="m170.3 743.45-111.85 44.25c-10.25 4.1016-15.301 15.699-11.25 25.949 3.1484 7.8516 10.648 12.648 18.602 12.648 2.4492 0 4.9492-0.44922 7.3516-1.3984l111.85-44.25c10.25-4.1016 15.301-15.699 11.25-25.949-4.0547-10.25-15.453-15.25-25.953-11.25z"/>
        <path fill="currentColor" d="m1006.6 798.8 110.35 47.801c2.6016 1.1016 5.25 1.6484 7.9492 1.6484 7.6992 0 15.102-4.5 18.352-12.051 4.3984-10.148-0.30078-21.898-10.398-26.301l-110.35-47.801c-10.051-4.3008-21.898 0.25-26.301 10.398-4.3984 10.152 0.30078 21.902 10.398 26.305z"/>
        <path fill="currentColor" d="m62.648 390.1 110.35 47.797c2.6016 1.1523 5.3008 1.6523 8 1.6523 7.6992 0 15.102-4.5 18.352-12.051 4.3984-10.148-0.30078-21.898-10.398-26.301l-110.35-47.801c-10.051-4.3477-21.953 0.20312-26.352 10.402-4.3516 10.148 0.30078 21.898 10.398 26.301z"/>
        <path fill="currentColor" d="m757.55 1003.7c-10.25 4.1016-15.301 15.699-11.25 26l44.301 111.85c3.1484 7.8516 10.648 12.602 18.602 12.602 2.4492 0 4.9492-0.44922 7.3516-1.3984 10.25-4.1016 15.301-15.699 11.25-26l-44.301-111.85c-4.0547-10.203-15.504-15.254-25.953-11.203z"/>
        <path fill="currentColor" d="m412.1 185.05c3.1484 7.8516 10.648 12.602 18.602 12.602 2.4492 0 4.9492-0.44922 7.3516-1.3984 10.25-4.1016 15.301-15.699 11.25-26l-44.305-111.8c-4.0508-10.25-15.5-15.199-26-11.25-10.25 4.1016-15.301 15.699-11.25 26z"/>
    </g>
</svg>
