<?xml version="1.0" encoding="UTF-8"?>
<svg width="1200pt" height="1200pt" version="1.1" viewBox="0 0 1200 1200" xmlns="http://www.w3.org/2000/svg">
    <path fill="currentColor" d="m1191.6 1011.6c-29.039-71.641-51.961-149.64-105.24-147.6-35.762 1.3203-61.922-72.238-75.238-120.6 0.71875-10.68 0.35938-20.641-1.1992-30.238 34.441 4.8008 69.121-13.801 83.398-47.281 16.922-40.078-1.8008-86.398-41.879-103.32-40.078-16.922-86.398 1.8008-103.32 41.879-3.1211 7.3203-5.0391 14.879-5.7617 22.441-33.48-18.602-78.602-32.16-134.52-41.762-177-30.48-354.12-147.12-412.56-188.4 3.1211-11.398 4.3203-23.16 3.1211-35.16 50.281 5.3984 132.36-1.3203 206.04-24.238 112.56-35.039 162.72-94.68 154.68-120.48-6.4805-20.879-71.641-19.922-155.88-0.35938 58.559-54.359 75.84-105.12 63.359-123-15.359-22.199-106.44 14.398-203.28 81.602-46.441 32.281-85.801 65.641-112.44 94.199-38.879-31.68-96-38.641-155.64-32.641-64.68 6.3594-147.84 106.08-140.04 159 6.4805 43.68 79.441 111.6 164.4 113.4 6.8398 15 16.32 34.32 29.281 56.16-47.398-1.0781-206.16-4.4414-234.12-1.4414-32.879 3.4805-6.1211 51.602 32.16 64.32s93.961-3.6016 143.52 24.121c61.441 34.32 135.36 52.199 176.52 60.121 49.441 46.078 112.56 90.359 192 123.6 109.08 45.602 198.96 63.121 269.16 59.879 24.602 24 83.641 61.32 205.56 47.16 0 0 31.922 3 104.64 149.16 27.48 55.078 82.32-8.8789 53.281-80.52h-0.12109z"/>
</svg>
