<?xml version="1.0" encoding="UTF-8"?>
<svg width="1200pt" height="1200pt" version="1.1" viewBox="0 0 1200 1200" xmlns="http://www.w3.org/2000/svg">
    <g>
        <path fill="currentColor" d="m504.38 648.79h-378.27c-7.1289 0-12.91-5.7812-12.91-12.91 0-7.1289 5.7812-12.91 12.91-12.91h378.27c7.1289 0 12.91 5.7812 12.91 12.91 0 7.1328-5.7812 12.91-12.91 12.91z"/>
        <path fill="currentColor" d="m67.398 648.79h-17.52c-7.1289 0-12.91-5.7812-12.91-12.91 0-7.1289 5.7812-12.91 12.91-12.91h17.52c7.1289 0 12.91 5.7812 12.91 12.91-0.003906 7.1328-5.7812 12.91-12.91 12.91z"/>
        <path fill="currentColor" d="m504.84 756.27h-379.56c-7.1289 0-12.91-5.7812-12.91-12.91 0-7.1289 5.7812-12.91 12.91-12.91h379.56c7.1289 0 12.91 5.7812 12.91 12.91 0 7.1289-5.7812 12.91-12.91 12.91z"/>
        <path fill="currentColor" d="m70.023 756.27h-17.52c-7.1289 0-12.91-5.7812-12.91-12.91 0-7.1289 5.7812-12.91 12.91-12.91h17.52c7.1289 0 12.91 5.7812 12.91 12.91 0 7.1289-5.7773 12.91-12.91 12.91z"/>
        <path fill="currentColor" d="m510.06 414.98 6.4336-6.6562-29.188-28.195-28.195 29.188 28.578 27.609c6.9922-7.8164 14.777-14.762 22.371-21.945z"/>
        <path fill="currentColor" d="m768.47 336.32c-89.785 0-174.7 35.77-238.7 95.402l-28.223 29.227c-14.262 16.766-26.738 35.078-37.715 54.539h81.199c22.16-28.895 49.715-53.328 81.246-71.863 0.46875-0.36328 0.78906-0.85938 1.3203-1.1641 0.42188-0.24609 0.89063-0.25781 1.3281-0.44922 41.191-23.609 88.754-37.309 139.54-37.309 50.793 0 98.359 13.703 139.55 37.316 0.43359 0.1875 0.89453 0.19922 1.3164 0.4375 0.52734 0.30469 0.85156 0.80078 1.3203 1.1641 41.543 24.422 76.227 59.102 100.65 100.64 0.36719 0.46875 0.85938 0.79297 1.1641 1.3242 0.24219 0.42187 0.25781 0.89062 0.44922 1.3281 23.609 41.191 37.309 88.754 37.309 139.54 0 50.789-13.699 98.348-37.309 139.54-0.19141 0.4375-0.20312 0.90625-0.44922 1.3281-0.22656 0.39062-0.64844 0.54297-0.91016 0.90234-24.422 41.707-59.18 76.523-100.84 101.03-0.49219 0.38672-0.83203 0.89844-1.3867 1.2227-0.35156 0.20312-0.75391 0.13281-1.1172 0.30078-41.242 23.684-88.879 37.438-139.75 37.438s-98.512-13.754-139.75-37.438c-0.36328-0.16797-0.76172-0.097656-1.1172-0.30078-0.55859-0.32031-0.89844-0.83594-1.3867-1.2227-29.391-17.285-55.453-39.582-76.789-65.961-0.76172 0.14062-1.4648 0.45703-2.2656 0.45703h-79.746c62.895 106.82 175.92 172.85 301.06 172.85 193.07 0 350.14-157.07 350.14-350.14-0.003907-193.07-157.08-350.14-350.14-350.14z"/>
        <path fill="currentColor" d="m378.66 380.25 76.789-79.508 36.773 35.516-76.789 79.508z"/>
        <path fill="currentColor" d="m768.47 310.5c21.082 0 41.629 2.1758 61.773 5.5234v-55.328h-123.57v55.531c20.297-3.4414 40.867-5.7266 61.793-5.7266z"/>
        <path fill="currentColor" d="m689.54 235.71c1.3398-0.46875 2.7305-0.85547 4.2344-0.85547h149.39c0.23438 0 0.42969 0.12109 0.66016 0.13281l24.777-0.11328 0.003906-71.48-201.2 0.9375 0.9375 71.48z"/>
        <path fill="currentColor" d="m795.29 644.56 7.8633-64.582-32.055 57.461c4.3047 0.23438 8.625 0.17188 12.844 1.543 4.1367 1.3477 7.8477 3.332 11.348 5.5781z"/>
        <path fill="currentColor" d="m1025.2 410.34 29.18-28.191 28.191 29.18-29.18 28.191z"/>
        <path fill="currentColor" d="m761 709.38c6.1211 2.0352 12.676 1.5312 18.402-1.4219 5.7422-2.918 10.012-7.9023 11.992-14.027 4.125-12.641-2.8086-26.27-15.449-30.41-2.4648-0.79297-4.9883-1.1875-7.5078-1.1875-3.7461 0-7.4727 0.88281-10.91 2.6289-5.7422 2.918-10.012 7.9023-11.992 14.027-2 6.1211-1.4961 12.656 1.4414 18.402 2.9141 5.7422 7.9023 10.008 14.023 11.988z"/>
        <path fill="currentColor" d="m1049.4 338.29 36.77-35.527 76.812 79.5-36.77 35.527z"/>
        <path fill="currentColor" d="m526.23 699.37h-13.047c1.8672 37.16 11.562 72.234 27.68 103.59l11.367-6.5625c6.1758-3.582 14.078-1.4414 17.625 4.7344 3.5664 6.1562 1.4414 14.062-4.7344 17.625l-11.344 6.5508c19.672 30.309 45.531 56.168 75.84 75.84l6.5547-11.359c3.5469-6.1562 11.398-8.2812 17.625-4.7344 6.1758 3.5664 8.3008 11.453 4.7344 17.625l-6.5664 11.383c31.359 16.117 66.434 25.812 103.6 27.68v-13.047c0-7.1289 5.7812-12.91 12.91-12.91 7.1289 0 12.91 5.7812 12.91 12.91v13.047c37.164-1.8672 72.234-11.562 103.6-27.68l-6.5664-11.383c-3.5664-6.1758-1.4414-14.062 4.7344-17.625 6.1953-3.5469 14.078-1.4219 17.625 4.7344l6.5547 11.359c30.309-19.672 56.164-45.523 75.836-75.832l-11.359-6.5586c-6.1758-3.5664-8.3008-11.469-4.7344-17.625 3.5469-6.1758 11.488-8.3164 17.625-4.7344l11.383 6.5703c16.117-31.359 25.816-66.438 27.684-103.6h-13.066c-7.1289 0-12.91-5.7812-12.91-12.91 0-7.1289 5.7812-12.91 12.91-12.91h13.066c-1.8672-37.164-11.562-72.238-27.684-103.6l-11.383 6.5703c-2.0156 1.1719-4.25 1.7266-6.4297 1.7266-4.4648 0-8.8047-2.3242-11.199-6.4648-3.5664-6.1562-1.4414-14.062 4.7344-17.625l11.359-6.5586c-19.672-30.309-45.523-56.16-75.828-75.828l-6.5586 11.359c-2.3945 4.1406-6.7344 6.4648-11.199 6.4648-2.1797 0-4.4102-0.55859-6.4297-1.7266-6.1758-3.5664-8.3008-11.469-4.7344-17.625l6.5703-11.383c-31.359-16.117-66.438-25.816-103.6-27.684v13.047c0 7.1289-5.7812 12.91-12.91 12.91-7.1289 0-12.91-5.7812-12.91-12.91v-13.047c-37.164 1.8672-72.238 11.562-103.6 27.684l6.5703 11.383c3.5664 6.1562 1.4414 14.062-4.7344 17.625-2.0156 1.1719-4.25 1.7266-6.4258 1.7266-4.4648 0-8.8047-2.3242-11.199-6.4648l-6.5586-11.359c-30.309 19.672-56.164 45.531-75.836 75.84l11.344 6.5508c6.1758 3.5664 8.3008 11.469 4.7344 17.625-2.3945 4.1406-6.7344 6.4648-11.199 6.4648-2.1797 0-4.4102-0.55859-6.4297-1.7266l-11.367-6.5625c-16.117 31.359-25.812 66.43-27.68 103.59h13.047c7.1289 0 12.91 5.7812 12.91 12.91 0 7.1289-5.7812 12.906-12.91 12.906zm194.74-28.375c2.5039-7.6797 7.168-14.023 12.746-19.539l78.914-141.44c3.0078-5.3828 9.4531-7.8125 15.27-5.9961 5.8711 1.9258 9.5625 7.7227 8.8242 13.848l-19.414 159.48c1.5039 7.9648 1.3164 16.348-1.3633 24.582-4.1406 12.676-12.965 22.992-24.863 29.043-7.1133 3.6172-14.801 5.4375-22.559 5.4375-5.2031 0-10.441-0.80859-15.52-2.4844-12.676-4.1055-22.992-12.926-29.043-24.828-6.0547-11.891-7.1172-25.41-2.9922-38.105z"/>
        <path fill="currentColor" d="m541.17 541.3h-301.78c-7.1289 0-12.91-5.7812-12.91-12.91 0-7.1289 5.7812-12.91 12.91-12.91h301.78c7.1289 0 12.91 5.7812 12.91 12.91 0 7.1289-5.7812 12.91-12.91 12.91z"/>
        <path fill="currentColor" d="m182.48 541.3h-17.535c-7.1289 0-12.91-5.7812-12.91-12.91 0-7.1289 5.7812-12.91 12.91-12.91h17.535c7.1289 0 12.91 5.7812 12.91 12.91 0 7.1289-5.7812 12.91-12.91 12.91z"/>
        <path fill="currentColor" d="m547.16 863.75h-293.59c-7.1289 0-12.91-5.7812-12.91-12.91s5.7812-12.91 12.91-12.91h293.59c7.1289 0 12.91 5.7812 12.91 12.91s-5.7812 12.91-12.91 12.91z"/>
        <path fill="currentColor" d="m198.31 863.75h-35.055c-7.1289 0-12.91-5.7812-12.91-12.91s5.7812-12.91 12.91-12.91h35.055c7.1289 0 12.91 5.7812 12.91 12.91s-5.7773 12.91-12.91 12.91z"/>
    </g>
</svg>
