<?xml version="1.0" encoding="UTF-8"?>
<svg width="1200pt" height="1200pt" version="1.1" viewBox="0 0 1200 1200" xmlns="http://www.w3.org/2000/svg">
    <g>
        <path fill="currentColor" d="m1052 731.77c0-76.309-32.496-141.56-97.5-195.49-65.004-54.047-143.46-81.07-235.38-81.07-91.906 0-170.36 27.023-235.37 81.07-65.137 53.93-97.621 119.18-97.621 195.49 0 76.32 32.496 141.43 97.621 195.48 3.2148 2.6289 6.4336 5.2578 9.6367 7.7539h687.09c-5.125-8.5938-11.438-17.258-19.055-26.195-30.961-36.07-73.691-63.805-128.23-82.98 12.508-29.199 18.809-60.605 18.809-94.059zm-145.01-207.53c47.508 39.406 71.316 87.023 71.316 142.75 0 55.738-23.809 103.36-71.316 142.77-47.496 39.383-104.76 59.148-171.79 59.148-67.152 0-124.41-19.754-171.91-59.148-47.496-39.406-71.195-87.035-71.195-142.77 0-55.727 23.688-103.34 71.195-142.75 47.496-39.406 104.76-59.051 171.91-59.051 67.031 0 124.3 19.668 171.79 59.074z"/>
        <path fill="currentColor" d="m844.48 719.73c30.133-24.863 45.121-55.008 45.121-90.359 0-35.363-14.988-65.484-45.121-90.469-30.121-25.008-66.434-37.523-108.94-37.523-42.492 0-78.805 12.504-108.93 37.523-30.133 24.984-45.121 55.105-45.121 90.469 0 35.352 14.988 65.496 45.121 90.359 30.121 25.008 66.434 37.523 108.93 37.523 42.504 0.003907 78.816-12.516 108.94-37.523zm-91.188-192.5c21.793 0 40.355 5.5938 55.727 16.895 15.359 11.207 23.09 24.77 23.09 40.609 0 15.816-7.7266 29.281-23.09 40.586-15.359 11.219-33.926 16.801-55.727 16.801-21.781 0-40.355-5.5938-55.727-16.801-15.348-11.293-23.09-24.758-23.09-40.586 0-15.84 7.7383-29.398 23.09-40.609 15.359-11.301 33.934-16.895 55.727-16.895z"/>
        <path fill="currentColor" d="m466.85 935c-4.5234-3.3359-8.9297-6.793-13.223-10.367-65.125-54.047-97.633-119.16-97.633-195.47 0-25.848 2.9766-46.211 8.8086-61.094l-261.67-277.16c1.2969-3.3359 2.0156-6.9102 2.0156-10.715 0-7.8477-2.8555-14.641-8.4609-20.23-5.4844-5.4961-12.133-8.2188-20.004-8.2188-7.8594 0-14.52 2.7227-20.125 8.2188-5.4844 5.5938-8.2188 12.383-8.2188 20.23 0 7.8711 2.7344 14.508 8.2188 20.004 5.6055 5.5938 12.266 8.3398 20.125 8.3398 3.2148 0 6.3125-0.49219 9.1797-1.4531l126.19 133.7h-0.58984c-3.2148 0-6.4336 0.12109-9.5273 0.49219l-117.38-89.41c0.34766-1.7891 0.48047-3.707 0.48047-5.5938 0-7.8711-2.8555-14.664-8.4609-20.258-5.4727-5.4727-12.133-8.2188-20.004-8.2188-7.8594 0-14.531 2.7461-20.125 8.2188-5.4727 5.5938-8.2188 12.383-8.2188 20.258 0 7.8477 2.7461 14.52 8.2188 19.992 5.5938 5.5938 12.266 8.3398 20.125 8.3398 5.1133 0 9.7578-1.1992 13.934-3.5742l101.79 77.508c-11.316 4.8828-21.539 11.891-30.961 21.312-19.391 19.391-29.039 42.742-29.039 70.117 0 27.504 9.6484 50.832 29.039 70.246 14.293 14.27 30.73 23.316 49.414 27.023 16.309 62.387 47.977 113.23 95.242 152.39 26.543 22.02 53.93 37.152 82.391 45.359l98.477 0.003907z"/>
    </g>
</svg>
