<svg xmlns="http://www.w3.org/2000/svg" id="svg2" fill="none" stroke="#000" stroke-linejoin="round" version="1.1" viewBox="0 0 1000 1001">
  <defs/>
  <defs id="defs4">
    <style id="style6" type="text/css">
      path{fill-rule:evenodd}
    </style>
  </defs>
  <path id="AO" fill="currentColor" d="M495 599l-36-1-4 2h-3l-6 2-1 2 6 9 3 9 3 14-4 5v3l3 8 3 9 3 5 1 8-1 10-4 6-7 9-3 6-4 12-1 6-5 13-1 12 1 9 5-3 8-2h7l8 6 1-1h49l8 6 30 2 22-5-8-9-7-11 1-44h26l-1-5 2-5-2-7 1-6-1-5h-6l-7 2-6-1-3 2 1-17-4-5v-8l2-9-3-5v-9h-15l1-5h-6l-1 3h-7l-3 8-2 4-7-2-4 2-8 1-5-7-2-5-4-8-3-10zm-47-3v-6l2-4 5-3-5-4-4 2-4 6 3 10 3-1z" data-id="AO" data-name="Angola"/>
  <path id="BI" fill="currentColor" d="M669 556l-1-5h0l-6-1-4 8-7-1 3 6v2l4 13v1h1l5-5 5-7 3-3v-5l-3-3z" data-id="BI" data-name="Burundi"/>
  <path id="BJ" fill="currentColor" d="M340 356l-9-8h-5l-4 4-2 4-6 2-3 6-4 1-2 7 4 5 4 4 1 7 2 3v32l3 9 10-1 1-23-1-8 3-9 3-4 6-9-1-4 2-5-3-8 1-5z" data-id="BJ" data-name="Benin"/>
  <path id="BF" fill="currentColor" d="M301 311h-8l-3-3-7 2-11 6-2 4-10 6-2 4-5 3-5-2-4 3-2 10-9 11v5l-3 6v8l6 3 2 4 5 3 5-3 5-1 9 4-2-11v-7l21-1 6 1 4-2 5 1h11l4-1 3-6 6-2 2-4 1-9-14-3-1-7-7-9-1-6 1-7z" data-id="BF" data-name="Burkina Faso"/>
  <path id="BW" fill="currentColor" d="M601 763l-3-1-7 3h-3l-8 5-4-5-19 4-9 1-2 49-12 1-1 40 3 2 7 13-2 9 3 4 8-1 6-6 6-4 3-7 6-3 5 2 6 3 9 1 8-3 1-4 3-7 6-1 4-5 5-10 11-10 17-10-7-6-9-2-3-9v-5l-5-2-13-15-4-8-2-2-4-11z" data-id="BW" data-name="Botswana"/>
  <path id="CF" fill="currentColor" d="M587 398l-1-1-4-4-1-4 2-6v-5l-8-9-1-6-8 3-6 5-8 15-12 7-11-1-4 1 1 5-6 5-5 5-15 5-3-3h-2l-3 4-10 1-6 14-3 2v11l1 6-1 4 6 7 1 5 4 7 6 5 1 6 1 4 6-13 7-7 9 2 8 1 1-10 4-7 7-4 10 4 8 5 9 2 9 3 3-9 2-1 6 1 13-6 5 3 4-1 2-3 4-1 9 1h8l4-1-2-5-9-5-3-8-5-6-9-8v-4l-7-6-8-5z" data-id="CF" data-name="Central African Rep."/>
  <path id="CI" fill="currentColor" d="M230 374l-5 2-2 2-2-6-4 1h-2l-2 4h-10l-3-2-2 1-2 1-1 5 3 6 3 11-5 1-1 2 1 3-1 6h-2v4l1 7-3 6 4 4 4 1 5 5v6l-1 2-1 11h2l12-5 9-4 14-2h8l9 2h5l1-5-5-12 3-16 5-11-3-20-9-4-5 1-5 3-5-3-2-4-6-3z" data-id="CI" data-name="Côte d'Ivoire"/>
  <path id="CM" fill="currentColor" d="M478 367v-10l-1-9-5-9-3 1-1 5 5 5-1 3-1 4-10 11-3 9-2 7-2 3-3 10-6 5-2 7-3 6-1 6-8 4-7-5h-4l-8 8h-3l-6 14-3 9v4l3 2 2 6 6 3 5 9-2 11h20l6-1 7 2 7-2 2 1 15 1 10 3 10 3 1-7-2-4v-6l-6-5-4-7-1-5-6-7 1-4-1-6v-11l3-2 6-14 2-4-4-10-2-5-5-3-7-8 2-6 6 1 3-1h7l-7-12z" data-id="CM" data-name="Cameroon"/>
  <path id="CD" fill="currentColor" d="M618 446l-9-1-4 1-2 3-4 1-5-3-13 7-6-2-2 1-3 9-9-3-9-1-8-6-10-4-7 4-5 7-1 10v8l-4 8-2 8-2 13 1 7-2 5v5l-2 5-8 6-5 7-6 14 1 11-4 5-7 6-7 9-4-2-1-4h-7l-4 5-3-2-5 3-2 4v6l-3 1 1 5 5-2h4l4-2 36 1 3 10 4 8 2 5 5 7 8-1 4-2 7 2 2-4 3-8h7l1-3h6l-1 5h15v9l3 5-2 9v8l4 5-1 17 3-2 6 1 7-2h6l4 1 1 4h5l8 1 4 6 10 2 7-4 3 7 9 2 4 6 5 8h9v-15l-4 2-8-5-3-3 2-13 2-17-2-6 3-9 3-1 17-3 2 1v-2l-3-4-1-8-8-7-4-10 3-6-4-8 3-22h0v-2l-3-6 1-8 2-1v-8l4-4v-11l3-5v-11l3-6 4-8 5-3 4-5-5-2 1-16h0l-11-9-3-6-7 3-6-1-3 2-5-2-8-11-4 1h-8z" data-id="CD" data-name="Dem. Rep. Congo"/>
  <path id="CG" fill="currentColor" d="M522 469l-8-1-9-2-7 7-6 13-1 7-10-3-10-3-15-1-1 6 3 7 10-1 3 3-6 16 6 8 1 11-1 9-4 7-11-1-6-7-1 6-8 2-5 4 5 9-9 7 10 15 5-6 3-2 5 5 3 1 4-5h7l1 4 4 2 7-9 8-6 3-5-1-11 6-14 5-7 8-6 2-5v-5l2-5-1-7 2-13 2-8 4-8 1-8z" data-id="CG" data-name="Congo"/>
  <path id="DJ" fill="currentColor" d="M820 359l-5-4 7-3v-6l-3-4-4 3-5-1-4 6-4 6 1 4 1 4 6 1 3-1 3 2 4-7z" data-id="DJ" data-name="Djibouti"/>
  <path id="DZ" fill="currentColor" d="M392 6l-7 1-5-4h-12l-11 6-6-2-19 1-19 3-11 4-7 6-13 2-11 8 4 9 1 8 4 15 3 3-2 5-15 2-6 6-6 1-1 10-14 5-4 7-10 4-12 2-19 10v20l44 34 40 30 40 30 3 7 7 4 6 2v9l13-2 17-6 35-27 40-26-5-9-10-6-5 2-4-8-1-6-7-10 4-5-1-9 1-8-1-6 2-11-1-7-4-12-5-25-8-5v-4l-10-8-1-10 7-8 2-12-2-13 2-7z" data-id="DZ" data-name="Algeria"/>
  <path id="EG" fill="currentColor" d="M629 88l-12-4-12-4-15 1-4 6 2 6-2 9 4 11 3 49 2 51h142l-2-3-15-12-1-9 2-3-11-15-5-8-4-7-11-22-8-14-6-14 1-2 10 20 6 6 4 5 2-3 3-7 2-10 3-6-2-3-8-21h0l-6 4-9-1-10-3-2 4-4-6-8-2-10 1-5 4-9 4-5-2z" data-id="EG" data-name="Egypt"/>
  <path id="ER" fill="currentColor" d="M778 304l-7-7-4-13-8-16-6 8-9 2-3 5-1 9-4 20 1 6 15 3 3-11 7 7 7-4 3 3h9l10 6 4 5 5 4 6 8 4 5 5 1 4-3-6-5-4-4-7-8-7-8-17-13z" data-id="ER" data-name="Eritrea"/>
  <path id="ET" fill="currentColor" d="M755 310l-4 11-14-3-1 12-5 13-7 7-5 11-1 5-5 4-4 15 1 1v11l-2 4-6 1-4 8 7 1 7 6 2 6 5 3 8 15 6 3v7l5 5h8l16 12h4l2-1 3 2 8 1 4-6 11-6 5 5h8l4-4h7l11-10 16-1 33-41h-10l-40-17-5-5-5-6-4-8 2-5-3-2-3 1-6-1-1-4-1-4 4-6 4-6-4-5-6-8-5-4-3-5-11-6h-9l-3-3-7 4-7-7z" data-id="ET" data-name="Ethiopia"/>
  <path id="GA" fill="currentColor" d="M456 486l-2-1-7 2-7-2-6 1v17l-18-1-4 1-2 11-3 10-3 4v5l7 14 8 11 13 14 9-7-5-9 5-4 8-2 1-6 6 7h11l4-6 1-9-1-11-6-8 6-16-3-3-10 1-3-7 1-6z" data-id="GA" data-name="Gabon"/>
  <path id="GH" fill="currentColor" d="M296 365l-5-1-4 2-6-1-21 1v7l2 11 3 20-5 11-3 16 5 12-1 5 11 4 11-4 7-5 19-8-3-5-3-8-1-7 3-13-3-5-1-11v-10l-6-7 1-4z" data-id="GH" data-name="Ghana"/>
  <path id="GN" fill="currentColor" d="M156 345l-1 1-7-1-1 1-3 1-8-4h-6v5l-2 1 1 5-2 2h-2l-4 2h-3l-6 7 4 2 1 3 2 6 3 3 3 2 5 5 5 8 6-6 2-4 2-3h3l3-3h10l3 5 3 6-1 4 2 4v5l3-1h3l3-2 5 9-1 5 3 3h3l3-5h5l1-6-1-3 1-2 5-1-3-11-3-6 1-5 2-1-3-4v-4l-1-2-3 2 1-5 2-3-5-6-1-4-3-3h-2l-3 2-4 1-3 3-6-1-3-3-2-1-3 2h-2l-1-5z" data-id="GN" data-name="Guinea"/>
  <path id="GM" fill="currentColor" d="M92 335l11 1 3-2h2l5-4 5 3 5 1 5-4-2-4-4 3h-4l-5-4h-3l-3 4H94l-2 6z" data-id="GM" data-name="Gambia"/>
  <path id="GW" fill="currentColor" d="M130 343h-22l-4 1h-4l-6 2v3l4 3v2l3 4 5 1 6 6 6-7h3l4-2h2l2-2-1-5 2-1v-5z" data-id="GW" data-name="Guinea-Bissau"/>
  <path id="GQ" fill="currentColor" d="M434 486h-20l-4 15 2 2h22v-17z" data-id="GQ" data-name="Eq. Guinea"/>
  <path id="KE" fill="currentColor" d="M807 463h-8l-5-5-11 6-4 6-8-1-3-2-3 1-3-1-16-11h-8l-5-5v-8l-6-2-8 9-8 9 6 9 2 7 5 16-4 10-6 9-4 6v1l3 5-1 10 45 28v8l18 14 5-5 2-9 4-5 2-10 5-1 3-6 8-5-7-12v-50l10-16z" data-id="KE" data-name="Kenya"/>
  <path id="LR" fill="currentColor" d="M193 411h-3l-3 5h-3l-2-3v-5l-5-9-3 2h-2l-6 7-6 7v4l-3 4 8 9 10 8 11 10 13 7h3l1-11 1-2v-6l-5-5-4-1-4-4 3-6-1-7v-4z" data-id="LR" data-name="Liberia"/>
  <path id="LY" fill="currentColor" d="M590 81l-3-5-12-2-4-2h-4l-5-6-16-3-8 2-7 6-4 7 4 11-6 6-5 4-13-7-17-6-10-3-6-12-16-6-10-2-5 1-13-5-1 11-5 4-4 4-8 5 2 6-1 6-6 3 4 12 1 7-2 11 1 6-1 8 1 9-4 5 7 10 1 6 4 8 5-2 10 6 5 9 19 6 7 7 9-5 11-8 49 27 49 26-1-5h14l-1-28-2-51-3-49-4-11 2-9-2-6 4-6z" data-id="LY" data-name="Libya"/>
  <path id="LS" fill="currentColor" d="M625 940l3-5 6-2 3-4 4-7-4-4-5-4-5 2-7 6-7 9 8 10 4-1z" data-id="LS" data-name="Lesotho"/>
  <path id="MA" fill="currentColor" d="M271 31h-5l-12-4-11 1-7-6h-8l-4 9-8 14-9 6-11 7-8 9-2 7-5 12 3 17-10 12-6 3-10 10-11 1-6 6h0l-8 14-8 5-5 9v7l-4 8-4 2-6 9-5 10 1 5-4 7-5 4-1 6h0l27-1 2-5 5-6 4-19 17-15 6-18 4-1 4-11 10-1 4 2h6l4-3 7-1v-7h2v-17l19-10 12-2 10-4 4-7 14-5 1-10 6-1 6-6 15-2 2-5-3-3-4-15-1-8-4-9z" data-id="MA" data-name="Morocco"/>
  <path id="MG" fill="currentColor" d="M903 705l-3-9-3-6-4-6-4 6v8l-8 10-5-2 2 6-4 7-11 9-7 8h-6l-4 2-7 3-6 1-2 8-5 8v13l2 9 2 6-1 9-7 11v4l-6 3-3 10 1 9 3 11v13l3 7 9 5 6 3 11-5 10-4 7-16 6-19 9-26 8-19 6-16 1-12 4-3 1-6-2-10 3-4 4 8 2-4 2-7-3-7-1-16z" data-id="MG" data-name="Madagascar"/>
  <path id="ML" fill="currentColor" d="M347 252l-13 2v-9l-6-2-7-4-3-7-40-30-40-30h-19l6 60 5 59 2 2-3 10h-48l-2 3-5-1-7 3-8-4h-4l-2 9-4 2v9l3 8 4 4 1 5-1 4 1 5h2l3-2 2 1 4 3 5 1 3-3 4-1 3-2h2l3 3 1 4 5 6-2 3-1 5 3-2 2 2-1 4 4 4 1-1 3 2h10l2-4h2l4-1 2 6 2-2 5-2v-8l3-6v-5l9-11 2-10 4-3 5 2 6-3 1-4 10-6 2-4 11-6 7-2 3 3h8l7-1 5-5 16-1 11-2 1-9 7-9-1-32z" data-id="ML" data-name="Mali"/>
  <path id="MZ" fill="currentColor" d="M788 666l-1-6h0l-10 8-14 5h-7l-5 4-8 1-3 1-15-3h-4l-4 13 2 16h0l5 4 4 10v18l-5 3-4 10-8-9v-10l3-6-1-6-4-3-4 1-6-6-38 11 1 10 1 5h10l5 3 3 3 6 1 6 4-1 18-3 10-1 10 2 4-2 8-2 1-3 10-14 16 5 20 2 9-3 16 1 5 1 6 1 6h9l1-7-2-1-1-6 5-5 15-7 10-5 6-5 2-6-3-2 2-7 2-13-3 1v-5l-1-8-6-10 2-10 5-3 9-10 5-3 14-14 14-7 11-5 8-9 6-10 4-9-2-7v-22l-1-12 1-14z" data-id="MZ" data-name="Mozambique"/>
  <path id="MR" fill="currentColor" d="M238 172l-45-34v21h-39v35l-12 1-3 7 2 20H94l-2 5 6 6 3 6-2 7 2 7 1 14-2 13-4 7 1 7 4-4 7 1 5-3h7l6 4 8 3 7 11 8 9 4-2 2-9h4l8 4 7-3 5 1 2-3h48l3-10-2-2-5-59-6-60h19z" data-id="MR" data-name="Mauritania"/>
  <path id="MW" fill="currentColor" d="M715 712v-5l-3-5 1-6-4-10 4-8v-16l-4-9v-2h0l-2-3-12-3 5 6 3 12-2 4-3 11 2 11-4 5-4 13 6 4 7 6 4-1 4 3 1 6-3 6v10l8 9 4-10 5-3v-18l-5-10-4-4h0v2h2l2 8v1l-4-5-3 4-1-3z" data-id="MW" data-name="Malawi"/>
  <path id="NA" fill="currentColor" d="M576 760l-22 5-29-2-9-6h-49l-1 1-8-6h-7l-8 2-5 3v10l10 14 2 9 6 16 6 12 5 5 1 8v16l3 22 3 10 2 13 4 10 9 11 6-7 4 4 2 6 5 1 7 2 7-1 11-7 2-51 1-40 12-1 2-49 9-1 19-4 4 5 8-5h3l7-3v-1l-4-4h-8l-10 3z" data-id="NA" data-name="Namibia"/>
  <path id="NE" fill="currentColor" d="M458 199l-19-6-40 26-35 27-17 6 1 32-7 9-1 9-11 2-16 1-5 5-7 1-1 6 1 7 7 9 1 6 14 4-1 9 4-4h5l9 8 1-12 3-6 2-8 3-3 13-2 12 6 5 5h6l6-3 15 7h6l7-6h7l3-2 7 1 9 4 10-8 3 1 8 15h2l1-5 3-1 1-6h-8v-9l-5-5 5-19 15-13v-18l4-28 3-6-5-4-1-5-4-3-4-22-8 5-7-7z" data-id="NE" data-name="Niger"/>
  <path id="NG" fill="currentColor" d="M468 345h-2l-8-15-3-1-10 8-9-4-7-1-3 2h-7l-7 5-6 1-15-7-6 3h-6l-5-5-12-6-13 2-3 3-2 8-3 6-1 12v5l2 8-2 5 1 4-6 9-3 4-3 9 1 8-1 23h20l9 9 4 10 6 8 10 1 5-4 4 1 13-5 3-10 6-13h3l8-8h4l7 5 8-4 1-6 3-6 2-7 6-5 3-10 2-3 2-7 3-9 10-11 1-4 1-3-5-5z" data-id="NG" data-name="Nigeria"/>
  <path id="RW" fill="currentColor" d="M668 533l-8 4-2-1-4 4v8l-2 1-1 8 7 1 4-8 6 1h0l4-2 1-8-5-8z" data-id="RW" data-name="Rwanda"/>
  <path id="EH" fill="currentColor" d="M194 135h-2 0v7h-7l-4 4h-6l-4-2-10 1-4 11-4 1-6 18-16 15-5 19-5 6-2 5-26 1h-1v6l2-5h47l-2-20 4-7 11-1v-36l39 1 1-21v-3z" data-id="EH" data-name="W. Sahara"/>
  <path id="SD" fill="currentColor" d="M740 292l1-9 3-5 9-2 6-8-7-5-5-3-5-17-3-14 3-2-5-14H595l1 28h-14l1 5 2 55-11-1-5 11-3 8 3 3-4 5 2 5-3 6-2 5 5-1 2 6 1 8 4 4v3l2 6 7 9v5l-2 6 1 4 4 4 1 1 4-2 4-2 3-12 3-7 9-2 2 4 6 8 4 1 4-2h9l2 3h12v-3l6-2 1-4 5-3 10 8 7-1 5-10 7-8-1-8-3-4 7-1 1-3 5 1-1 10 2 10 6 5 2 5v7h2l-1-1 4-15 5-4 1-5 5-11 7-7 5-13 1-12-1-6 4-20z" data-id="SD" data-name="Sudan"/>
  <path id="SS" fill="currentColor" d="M708 379l-2-5-6-5-2-10 1-10-5-1-1 3-7 1 3 4 1 8-7 8-5 10-7 1-10-8-5 3-1 4-6 2v3h-12l-2-3h-9l-4 2-4-1-6-8-2-4-9 2-3 7-3 12-4 3-4 1 8 6 7 5v5l9 7 5 6 3 8 9 6 2 4 8 11 5 2 3-2 6 1 7-3 3 6 11 9h0l5-4 8 3 9-3h9l7-7 8-8 8-9-8-15-5-3-3-6-6-6-7-1 4-8 6-1 2-4-1-11h-1v-7z" data-id="SS" data-name="S. Sudan"/>
  <path id="SN" fill="currentColor" d="M149 315l-8-9-7-11-8-3-6-4h-7l-5 3-6-1-5 4-3 7-6 10-5 3 6 4 5 11h13l3-3 3-1 5 4h4l4-2 2 4-5 3-5-1-5-3-5 4h-2l-3 2-11-1 2 11 6-2h4l3-1h29l8 4 3-1 1-1 7 1 1-1 1-4-1-5-5-4-2-8v-9z" data-id="SN" data-name="Senegal"/>
  <path id="SL" fill="currentColor" d="M172 401l-4 1v-5l-2-4 1-4-3-6-3-5h-10l-3 3h-3l-2 3-2 4-6 6 1 10 2 5 7 8 8 5 4 1 3-4v-4l6-7 5-7z" data-id="SL" data-name="Sierra Leone"/>
  <path id="SZ" fill="currentColor" d="M674 875l-6-3-3 1-2 4-3 5v5l6 8 7-2 3-6-1-6-1-6z" data-id="SZ" data-name="Swaziland"/>
  <path id="TD" fill="currentColor" d="M583 246l-49-26-49-27-12 8 4 22 4 3 1 4 5 5-3 6-4 28v18l-15 13-5 19 5 5v9h8l-1 6 5 9 1 9v10l6 12h-6l-4 1-5-1-3 6 7 8 6 3 1 5 4 10-2 4 10-1 3-4h2l3 3 15-5 5-5 6-5-1-5 4-1 11 1 12-7 8-15 6-5 8-3v-3l-4-4-1-8-2-6-5 1 2-5 3-6-2-5 4-5-3-3 3-8 5-11 11 1-2-55z" data-id="TD" data-name="Chad"/>
  <path id="TG" fill="currentColor" d="M307 365h-11v4l5 7v10l1 11 3 5-3 13 1 7 3 8 3 5 10-3-3-9v-32l-2-3v-7l-5-5-3-4 1-7z" data-id="TG" data-name="Togo"/>
  <path id="TN" fill="currentColor" d="M430 59l-5-2-3-7h-6l-3-8 8-7 1-12-4-3v-7l5-7-1-2-9 5V2l-8-2-13 6-2 7 3 13-3 12-7 8 1 10 10 8v4l8 5 5 25 6-3 1-6-2-6 8-5 4-4 5-4 1-11z" data-id="TN" data-name="Tunisia"/>
  <path id="TZ" fill="currentColor" d="M672 531l-4 2 5 8-1 8-4 2h0l1 5 3 3v5l-3 3-5 7-5 5h-1l-1 6 3 2-1 6 3 5-3 6 9 9 1 9 6 14h1l4 2 8 3 7 4 12 3 2 3h0l1-2 6 7 1 15 4 5h-1 5l15 3 3-1 8-1 5-4h7l13-5 10-8h0l-4-3-5-14-4-8 1-7v-4l3-9v-3l-8-5v-8l6-17-18-14v-8l-45-28h0l-6 6-4 6 5 5-7 3-1-1-7 1-6 3-3-6 2-9 1-9h0-14z" data-id="TZ" data-name="Tanzania"/>
  <path id="UG" fill="currentColor" d="M711 459l-7 6h-9l-10 3-7-3-5 4h0l-1 16 5 2-4 5-5 3-4 8-3 6v11l-3 5v11l2 1 8-4 4-2h14l-1-5 6-8 7-2 5-3 7 2v2-1l4-6 6-9 4-10-5-16-2-7-6-10z" data-id="UG" data-name="Uganda"/>
  <path id="ZA" fill="currentColor" d="M522 999h6l7-6 10-2 12-5h5l7-1 13 2 5-2 7 2 2-4 6-1 13-5 9-6 9-9 14-14 8-10 4-7 5-7 3-2 8-7 4-6 2-12 4-10h-9l-3 6-7 2-7-8 1-4 3-6 2-4 3-1 6 3-1-5 3-15-2-10-5-20-6-1-4 1-6-2h-5l-17 10-11 10-5 10-4 5-6 1-3 7-1 4-8 3h-9l-6-4-5-2-6 3-3 7-6 4-6 6-9 2-2-5 1-9-6-13-3-2-2 51-11 7-7 1-7-2-5-1-2-6-4-4-6 7 7 18h0l6 11 7 13-1 11-3 2 3 10-1 8 2 4v-2l5 6h4l4 5zm103-59l-4 1-8-10 7-9 7-6 5-2 5 4 4 4-4 7-3 4-6 3-3 4z" data-id="ZA" data-name="South Africa"/>
  <path id="ZM" fill="currentColor" d="M671 636l-4-1 1-3-2-1-17 3-3 1-3 9 2 6-2 17-2 13 3 3 8 5 4-2v15h-9l-5-8-4-6-9-2-3-7-7 4-10-2-4-6-8-1h-5l-1-4-4-1 1 5-1 6 2 7-2 5 1 5h-26l-1 44 7 11 8 9 10-3h8l4 3v2l3 1 13 1 4 2 4-1 7-8 11-12 4-1 2-5 7-5 9-2-1-10 37-11-6-4 4-13 4-5-2-11 3-11 2-4-2-12-6-6-7-4-8-2-4-3h-1 0l1 2-2 1-3-3z" data-id="ZM" data-name="Zambia"/>
  <path id="ZW" fill="currentColor" d="M669 825l14-16 3-10 2-1 2-8-2-4 1-10 3-10 1-17-7-5-5-1-3-3-5-3h-10l-1-5-9 2-7 5-2 5-4 1-11 11-7 9-4 1-4-2-13-1 4 11 2 2 4 8 13 15 5 2-1 5 4 9 9 2 7 6h5l6 2 4-1 6 1z" data-id="ZW" data-name="Zimbabwe"/>
  <path id="SO" fill="currentColor" d="M833 373l-6-6-3-6-4-2-4 7-2 5 4 8 5 6 5 5 40 17h10l-33 41-16 1-11 9-8 1-3 4-10 16v50l7 12 3-4 3-7 13-17 12-10 18-14 12-11 14-19 10-16 10-20 7-18 5-15 3-15 3-5-1-7 1-8v-4h-5l-5 5-7 1-5 2h-4 0l-7 1-4 3h-6l-11 5-13 1-11 4h-6z" data-id="SO" data-name="Somalia"/>
</svg>
