<svg xmlns="http://www.w3.org/2000/svg" viewBox="0 0 800 600">
  <defs/>
  <style>
    .st0{fill:currentColor;stroke:#fff;stroke-width:.25;stroke-linecap:round;stroke-linejoin:round}
  </style>
  <g>
    <path d="M597 442h1v1-1h-1zm41 82h1l1-1h1v-1 1h2v1h-2 1v3h-1l-1 1v1h-1v1h-3v1h-4v-1h2v-1h-1v-1h1-1v-1h1v-1h1v-1h2v1h1v-2zm-42-82h-1v1h2v1h-1v-1 1h1v1h1-2v-1h-1l1 1h-3 1v1h1v2l-1-1v1h2v1h1-1v1h1-1 1v1h1v1h1v2h-1v1h-1 1v1h1v1h1v1h1v1h1l1 1h1v1h1v1h-6v-1h-1 1v2h-1v-1h-1v2h-1v2h-1 1v1h-1 1-1 1v1h-1v1h1v1h-1v1l1-1v2h-1 1-1 1-1v1h-1v-1 1h-1v2h-2v-1 2h-1v1l-1 1h-1 1v2h-1v1l1-1v1h1v2h-2 1v2h-1v1-1h-1v1h1v1h-1v1h-1v2h-1l-1 1h-2l-1 1h-2l-1 1v-3l-1-1v-1 1h-1v-2 1h-1v-1 1h-2v1h-1v-2h-3v-1h-1v-1 1h-1l1 1-2 1h-4v1h-2 1v-3l-1-1v-1 2h-1v-1h-2l-1 1h-2l1-1h-1v1h-1v-1h-1l-1 1v-2h-1v-1h1l-1-1v-3h-1v-1l1-1v-2h-1v-1h-1v-1h-3v-2 1h1v-1h-1 1-2v-2h-1 2-1v-2h1-1v-1h-1v-3h-1 1-1v-1h1v-2h1l1-1h-1v1h-1v-1h1v-1l1-1v-1 1-2h2v1h-1 1v2h1v1-1 1h1v1h1l1 1h1v1h2l1-1h4v1-1h2l1-1 1-1v-1h5v1h2l1 1v-1l1 1 1-1 1-1h1v1l1-1h1v1-1h1v-2h1v-3h2v-2 1-3h2v-2l1-1v-2h-1v-1h1v-1l1-1v1-1h4l1-1v1h5v1h1zm144 41v25h-1v1h1-1 1v14h-1l-1-2-1-1h-1v-1l-2-1v-1h1l-1-1h1-1v1h-2l-1 1h-1v-1h-1 1-1v-1h1-1v1l-1 1h-1v-1h1-1v-1h1v-2h1-1v-1h-1v-1h-1 3v-1 1h-1v-1h-2v-1h-1 1l1-1h1v1h1-1v-1h-2v-1h1v1l-1-1v-1h-1l-1-1v-2h-1v-1h1-1v-1h1-2v1-2l-1-1h-1 1-1v-1h-2v-1h-2v-1 1h-1v-1h1-1v1h-1v-1h-1l-1-1h-2v-1h-6l-1-1v-1h-2v-1h2v-1 1-1h-2v1h-1v-1h-1v1h-1v-2 1h-1v-1h-1v-1 1h-1v-3h1v-1h1v1-1h-1v-1 1h-1v2h-1v1h1-1v1h-1l1 1h-1v1h-2v1-1h-1v-1 1-1l-1-1h1v-1h1-1v-2h-1v1-1h-1v-1h-1v-1h-1l-1 1v-2h3-1 2v1h1v-1l1-1 1-1h1v2h1l-1-1h1v1-1h1v1-1h1v1-2h1v1-1h-1 1-1 1v-1h-1 1v-1h-1v1h-6l-1 1v-1h-3l-1-1h1-1v-1h-1 1-1v-1h1-1v-1h1-3v-1 1h-1v-1h-1 1l-1 1v-1h-2 1v-1h1v-3h4v-1h1v-1h6v1h2v1h5v1h-1l1 1v1l1 1v1h-1v5h1v2h1v1-2h1-1l1-1v4h1v-1 2h1v1h4v-1h1v-1h1v-2h1l1-1v-1h1v-1h3l1-1h1v-1h-1v-1h2l1-1 2-1v1h2l1 1h2v1h2l1 1h1v1h2l1 1h5l1 1h-1 1v1-1h1zm-170 36v1-1zm60 0h1-1v1h-1v-1h1zm32-1h-1 1zm5 0h-2 2zm-8-1v1h-1v-1h1zm-62 0v1h-1v1h-1 1v-1h-1 1v-1h1zm58 0h1-1zm24-3h1-1v1-1zm0 0h-1v-1 1-1 1h1zm1-1h-1 1zm0-1h1l-1 1v-1zm-63 0h1-2 1zm-1-1h-2 1v-1 1h1zm110-2h1-1v1-1zm-44-1h1v1h-1v-1zm20 0v1h-1v-1h1zm-1-1h-2v-1h2v1zm1-1h1l-1 1v-1zm-2 0h-1v-1h-1v-1h1v2h1zm-151 9v1l-1-1h-5l-1-1v1-1h-1v1h-5l-1-1h-1v-1h-7v-2h1v-1h-2l-1-1h-3v1-1 1l-1-1h-1 1v-1 1h1v-2h2v-3h1v-1 1h4v1h2v-1h2v1h2v1l1-1v1h3l1 1 1 1v1h3l1 1 1-1h2l1 1h1v-1h1v1h2v-2h1v-1h2v1h1l1 1v-1h1l1 1h2v1h3v-1 2h1-1 1v1h-1 2v1h-1v1h2v1h6v-1l1 1h2v2l-1 2v1h1v-1 1l1 1h-2v-1h-4v-1h-2v-1h-2l-1 1h-4v-1h-3v1h-1v-1 1-1 1l-1-1h-5v-1h-2l-1-1h-1v-1zm87-11h-1v-1h1v1zm54-2h-1l1-1v1zm-3-1v1-1zm-53 0v1-1zm-1-1zm39-5zm-16-4h-1 1zm-31-2zm64 0v-1 1zm-63-1v1-1zm32 0h-1v-1h1v1zm1-1h-1 1zm1-2v1h-1 1v-1zm-25-5zm3-1v1h-1v-1h1zm-5 0h1-1zm1 0zm-93-1h1-1zm115-2zm-112-1zm1 0zm-30-6zm-10-3l1-1v1h-1zm2-2v-1h-1 1v1zm2-1v1-1zm-2 0zm9 0zm-6-1h1v1l-1-1zm-1 0zm106-1zm-2 0zm-3 12v-2l-1-1 1-1v-1h-1v-1 1h1v-4h1v-1h1v-1l1-1v1h1v1-1 1h1v-2h1v-2h2v1h2v-1 2h7v1h4v-1 1h6v-1h1v-1h1v-1h1v-1h1v-1h2v2h-1v2h-1v1h-1v1h-1v1l-1 1h-3l-1 1h-1l-1-1v1h-1v-1h-1v-1h-6v1-1h-1v1h-1v-1h-2v1-1l-1 1v-1l-1 1h-2v-1h-3v1l-1 1v1h-1v4h1v2h2v1h1v1h-1 1v1h3v-1h1v-1l1-1h1v-1 1h3v-1h5-1v-1h4v3h-1v-1h-3v1h-1v1l-1 1v1h-3v1h-1v1h-2v-1h-1v2-1h1v1h1v1h1v1h1v2h1v1h1v1l1 1v-1 1h-1v1h1-1v2h1v1h1v2h1v-1h1v2l-1 1v-1h-1 1v1h-1v-1 1h-1v-1 1h-2v2h-3v-1h-1v-3h1v-1h-2v-1h-1v-1l-2-1v-1h1v-1h1v-1h-1 1v-1h-1v-1h1-2v-1l-1 1h-1l-1 1h-1v1h1v1h1-1v2h1v1l-1 1v4l1 1-1 1v3l1 1v1h-1v-1h-1v1h-1v-1l-1 1h-2v-1 1h-1v-1h1-1v-2h1v-4l1-1v-2h-1v-3h-1v-1l-1 1h-2v-2h-1v-1h1v-1h-1v-1h1v-1 1l1-1 1-1v-3h1v-5h1v-2h1v-1 1h1v1zm49-19zm2-1zm-167 3h-1v-3h1v1h1l1 1v2h3l1 2h1v2h1v1h1v1h3l1 1v1h-2v1h-2 3v-1h2v-1h1l1 1v1-1h1v2l-1 1v-1 1h-1v1h-1 1v1h-1 2-1v1-1 2h-1 2v1h1v1h1v-1l1 1h2v3l1 1v1h-1 1v1-1 1h2v1l-1 1h-1 1v1h-1v1l1-1v-1h1v-1 1h4v1l1 1v1h1v1-1h1v3h-1v14l-1 1v1-1h-1v-1h-1v-1h-1v2h-1l-1-1h-1v-1h-1l1 2v1h-1v-1h-1v-1h-1v-1h-1v-1h-1v-1l-1-1h-1v-1h-2v-1h-1v-1h-1v-1h-2l-1-1-1-1v-2h-1v-1l-2-1-1-1h-1v-2h-1v-1h-1v-1h-1l-1-1v-4h-1v-1l-1-1v-1h-1v-1 1-3l-1-1h-1v-1h-1v-1h-1v-2h-1v-1h-3 1v-1h-1v-3h-1 1-1v-3h-1v-1l1-1h-1v-1 1l-1-1-1-1h-1v-1h-3v-1 1-1h-1v-3h-1v-1h-1v-1h-1v-1l-1-1v-1h-1v-1h-2l-1-1-1-1h-1v-1l-1-1h-1v-1h-1 1-1v-1l-1-1v-2h-1l1-1h-1 1-1v-1h4v1h1v1h7v1h1l1-1h1v1l1 1h1v2h1-1v1h2v2h1v1h2v2h2l1 1 1 1h1v1h1l1 1h1v3h1v-1 1h1v1l1 1h1l1 1v1h1zm122 73v1h-2v1h-1l-1-1h-1v-1h-1v-1h-1v-1h-2v1-1h-2v-1h-1 1v-1h5l1-1v1l1 1h1v1h2v1l1 1zm-32-8h-1 1zm25-1h1l-1 1v-1 1-1zm-1 0v1-1 1h-1v-2h1v1-1 1zm24-2l-1 1h-1v-1h2zm-42 0h1v2h-1v1h-1v1h1-5v-1h2v-1l-1-1h1l1-1h2zm15-1l1 1h-1v-1zm1 3v1h-3 1v1h-1v-1l-1 1h-1v-2 1h-1v1h-3l-1 1h-5v-3h1l1-1h3v1-1 1h1v1h2v-1h1v1-1h-1v-1h-2v-2h3v2h1v-1h2v2-2h2v3-1h1zm24-2v1h-2v1h1-2v1h-4v1h-3v-1h-1v1h-4v-1h-2v1h-1v-1h-1v1h-1v-3h2v-1h3l1 1v-1 1h3v1h2v-1 1h1v-1 1h1v-1h1-1v1h3v-1h2v-1h1-1v-1h1v1h1zm-46 0v1h1-1v1h-2v1h-1 1-1 1v1h-1v-2h-1v-1h-3v-2h1l1 1h1l1-1h1l1 1h1zm-41-3h1-2 1zm41-5h-2 1-2 1v-1h1l1 1zm-18-8v1h-1 1v-1zm-63-1h-1 1-1l-1-1h2v1zm82-4v-1 1zm4-9v2l-1-1h1v-1zm-1 2v2h-1v-2h-1l1-1v-1l1-1v3zm-97-3zm-1 0l1 1h-1v-2h-1v-2 1h1v1h1v1h-1zm-1-3v1h-1v-2h1v1zm-2-3v1h-1v-1h-1v-1h1v1h1zm56-4l-1 1v-1h1zm5-3v1h-2v-2h1v1-1h1v1zm-65 3v1-1 1h-2v-1h-1l-1-2v-2h2v1-1 1h1v2h1-1 1v1zm-4-7l-1 1h1-2 1v-2h1v1zm-1-2l1 1v1-1l-1-1h-1v-1h1v1zm30-4h-1v-1h1v1zm1-2v1-1zm2 0h1v1-1h-1zm-2 1h-1v-1h1v1zm2-1v1-1zm1-1v1-1h-1 1zm5 0h1v1-1h-1zm17 0h1-1zm-25 0h-1l1-1v1zm-2 2h-2l-1-1v1h-1v-3l1 1h1v1h2v1zm0-1h-1v-1h-2v-1h2v1h1v1zm6-2v1h-1v-1h1zm3 1h1-1v1h-1v-1h-1v-1h2v1zm-13-1v2h-1v-2h-1v-1h1l1 1zm0-1v1-1h-1l-1-1h-1v-1h1v1h2v1zm-24-2h-1 1zm-9-2v-1 1zm28 0h1v1h-1v1h-1v-1h-1v-1h1l1-1v1zm-31-1v1-1zm4 0v1-1h-1 1zm131 0h1-1v-1l1 1h-1v-1 1zm-58-2h-1 1zm-18-1v-1 1zm-60 2h-1v-1h-2v-1 1-1h-1v-1h-1 1v-1 1h1-1 1l1 1h1v1h1v1zm76-4h1v1h-1v-1zm-6 0h-1 1zm-12 0v1h-1v-1h1zm2-1v1-1zm70-1h-1 1zm-70 0h1-1v1-1zm70-1h1v1l-1 1v-2zm2 0h-1v-1h1v1zm-2 0h-2v-1 1h2zm2-2h-1 1zm-1-2v1h-1v-1h1zm-57 2h-1v1h-1v-1h1v1-1h-2v-2h1v-1h1v2h1-1v1h1zm-3-6v1-1zm-79-5zm0-1v1h-1v-1h1zm1-1v1l-1-1h1v1-1zm173 102h-1v1h-2v1h-1v-1h1v-1h2v-1h1v1zm-9-1v1h-2v-1h2zm9-2h1-1v1h-1v-1h1zm3-12h-1v1h-1v1h-2v-1h1v-1h1v1-1h2zm2 0v2h-1v-1h-1 1v-1 1h1v-1zm90 1h-2v-1h1l1-1v2zm-84-1v1h-5v-1h1-1v-1h1v1h1v-1l1 1v-1h1v1-1 1h1zm18-1v1h-2v-1h2zm18 0h1v1h-2v1h-1l1-1v-1h1zm-7-1h-1v1l-1-1v-1h2v1zm-19-1h-2v1h-4v1-2h1v-1 1h2v-1h3v1zm4-1h-1v-1h1v1zm71 0v2h-1v1h-1v1h-1v1h-5v-2h1v-2h1v-1l1-1h4v1h1zm-45-2v2h-1v1h-1v2h-1l1-1h-1v1h-1v-2h1-1 1v-2h1v-1h1v-1h1v1zm2-1v1h-1v-1h-1 2zm-21 0v1-1h-1 2-1zm-90-1h1-1v1h-3v1h-2v-1h-1l1 1-2-1h-1v-1h7l1-1v1zm-54-3v1h-1 1v-1zm180 1v1h-1v1h-1v-5 1h1v1h1v1zm-86-4v3-4 1zm-96-1h-1 1zm172 0v1h-1v-2h1v1-1 1zm12 2v1h-3v-3h1-2v-1h2v-1h1v1h1v2h-1 1-1 1v1h-1 1zm-10-5v2h-1v1l-1 1v-1h1v-3h1zm-68-1v2h-1v-1h-1v-1h1-1l1-1v1-1 1h1zm59-3v1-1zm-55 2h-1v3-1h-2v-1h1v-1l-1-1h1v-1h2v2zm54-3v-1h1v1h-1zm-52 4l1 1h-1v1l-1-1v2h-2v-2h1v-3h1l-1-1h1v-1l1-1v1h1v2h-1v-1 1-1 1-1 2h-1v1h1zm64-6l1 1-1-1h-1 1zm-13 0h-1v-1h1v1zm-1-1zm-49 0v1h-2v-1h2zm50 0zm-16-2zm-34-1h-1v1-1h1zm32 0h1-1v1-1zm-1 0v1h-1v1-1h1-2v1-2h2zm3 0v1-1h-1v1-1h1zm-9 0l-1 1h-1l-1 1h-2v-1h-2v-1h-1v-3l1 1h1v-1h3v1l1-1v1h1-1v1h2v1zm-126-4v1h-1v-1h1zm2 0h-1 1zm1 0h1-1zm145 4v2h-2v-1h-1l-1-1h-2v-1h-3 1v1h-1v-1h-3v-1h-1l-1 1h1-1l-1 1v-1l-1-1h-1v-1 2h-1v1-2h-1 1v-1h1v-1h6v1-1 1l1-1h-1 2v-1h1v1h2v1h4v2h2v1zm4-5l1-1v1h-1zm-143 1l-1 1v1h-1l-1-1v1h-1v-1h-1 1v-1h-1 1v-2h2v1-1h1v1h1v1zm162-3h-1 1-1 1v-1 1zm-1-2v1h-1v-1h1zm-52 2v1-2h-1v-2h1v3zm-13-3v1h-1v-1h1zm15 0h-6v-1h2v1-1h4v1zm-20-1v1-1zm69 0l-1 1h1-1l1-1zm-24 1v1-1l-1 1h-2v-1h-1 1v-1h3v1zm-31-1v1h-4l-1 1h-1v-2l1-1v1-1h1v1h4-1 1zm71 0v1h-5l-1-1h-3v-1h3l1 1v-1 1h5zm-186 5h1-1v2h-1 1v1h-2v-1h-2l-1-1v-3h-1v-1h-4v-1h2v-2h2v1h1-1v-1h2v1h1l-1 1h1v3h1v1h2zm176-7v1-1 1h-1v-1h1v1-1zm-44 1v1h-4l-1-1h1v-1h3v1h1zm-3-2h-1 1zm-25 0v1l-1 1v-1h-1v1h-1 1v-1h-1v-1 1l-1 1-1-1v-1h2v-1h1v2-1h2zm39 0h-1l1-1v1zm31-1h-1v-1h1v1zm-24 0v2h-1v-1 1-1h-1v-2h2v1zm-1-2v1h-3v-1h1v1-1h1-1 2-1 1zm34 2l-1 1h-2v-1h-1v-2 1h-1l-1-1v-1 1h1v-1 1h2l1 1 1 1h1zm-56-2h-1v-1h1v1zm21-2v1h-1v-1 1h-1 1v-1h-1 2zm-55 0h1v1-1h-1v1-1l-1 1v-1h1zm-106 0v1h-2v-1h1-1 1v-1 1h1zm107-1h1v1h-2v-1h1zm37 3h-1v1h-1v-1h-1v-1h-1v-2l1 1v-1h1v3h2zm-4-2l-1 1v-2h1v1zm-145-1v1h-2v-1h2zm114 0h-1 1zm1 0v1l-1-1h1zm-5 0v-1 1zm60 0h-1v1-1h-1v1h-1v-1h-1v-1h-1 1-1 1v1h1v1h-1v-1h-1v1-1h-2 1v-1 1h-1v-1h3v-1h1v1h3v1zm-163 0h1-4v-1h1v-1l1 1h-1 1v1-1h1v1zm152-1v1h-1v-1l-1-1 1 1h1zm-13-1v1-1h-1 1zm-142 0v-1 1zm2 0h-1v-1h-1 1l1 1zm-2-2v1-1zm142 0v1h-1v-1h1zm-143-2v1-1zm142 1v-1h1v1h-1zm-142-1zm142 0v-1 1zm-142-1v1l-1-1h1zm-39-1v3h-2 1v-1h-1v-1h-1v-1l-1-1-1-1h1v-1h1v1h1v1h1v1h1zm169-3l-1 1 1-1zm14 11v-5h-1v-1h1v-1h-1v-5h1-1 1v-1l1-1 1-1h1-1v1l-1 1h1v4h-1v1h-1v1h1v1-1h1v-1h1v-2h1v-1h3-1v1h1v2h-1l-1 1h-1v1h1v1h1v1h1v1h1-2v-1h-4v-1 1h-1v1h1v4h1v1l1 1v1h1-1v-1h-2v-2h-1v-1h-1zm-14-16h1-1zm20-1h1l-1 1v1l-1 1h-1v-1h-1l1-1v-1h1l1-1v1zm-20-2h1l-1 1v-1zm2-4v1h-1v-2h-1 1v1h1zm6-2h1v1-1h-1zm0-1v1-1zm1-2h1l-1 1v1h-1v-1h1v-1h-1v-1h1v1zm-28 78h1v1l-1-1zm-4-1h1v1h-1v-1zm1-6v1-1zm-44-1h-1 1zm-2 0zm56-33h-1 1zm-8-8v-1 1zm49 45zm0 0h-1 1zm-2-1h-1 1zm-4-4zm2-1h1-1zm4-3zm-16-5h1-1zm0 0zm2 0v-1 1zm0-1zm26 0zm-14-5zm28-32zm-19-2zm0 0zm-30-2v1-1zm-6-5v1-1zm8-21zm-31 100h-1 1zm-35-22l-1 1v-1h1zm116-4v1h-1v-1h1zm-150-4zm146 0h1-1zm-3-21v1h-1v-1h1zm-62-5v1h-1v-1h1v-1 1zm29-4h1v1h-1v-1zm10-3zm-193-4h1l1 1h-2v-1zm38-3zm-1-1h1-1zm127-6v1-1zm12-18z" class="st0"/>
    <path d="M597 442h-1v-1h1v1h1-1zm-96-13h1v1l1 1v1h1l2 1v1h1l1 1v2l1 1v6h-1v1h1v5l1 1h1v1l1 1v1h1v2h1v3h-1v-1l-1-1v1h1l-1 1-1-1v1h-1l-1 1v-2h-1l-2-1v-1h-2v-1h-1l-1-1h-1l-1-1h-1v-1h-1v-1h-1v-1h-1v-3h-1v-1h-1v-1h-1v-1h-1v-1h1v-1h-1v-1h-1v-1h1v-1 1-1h-1 1-1v-1h1-1v-1h-1v-7h-1v-4h1v1h1v1h2v1h2-1v1h1-1v3h1v-1h1l1-1h1v1h2v-2h1v-1zm80 8h2l1-1v-1 1l-1-1h-1v-1h1l1-1v1-1 1h1v-1h1v-1h1v-2l1-1v-1h1v-1h1v-2h1v-1 1h1-1 1v1h-1v1h1v-1h1v-2l1 1v2h3v2h-1v1h1-1l1 1h-2 3v-1h1v2h-1v1h1v-1 1h1v-1h2v2-1h1l1 1h2v1h1-1v1l-1 1h-5l-1 1h1v1h2v1h1-1v1h-5v-1h-1v1h1-1v1h-1v-1h-5v-1 1h-5v1-1l-1 1v1h-1v1h1v2l-1 1v2h-2v3-1 2h-2v3h-1v2h-1 1l-1 1v-1h-1l-1 1v-1h-1l-1 1-1 1-1-1h-3v-1h-4l-1 1-1 1-1 1h-2v1-1h-4l-1 1h-2v-1h-1v-1h-2v-1h-1v-1h-1v-2h-1 1v-1 1h1l1 1h2v-1l1 1h1-1 1v1h1v1-1h1l1 1h2-2v-2h1-1v-1l1-1v-1h1-1v-2 1h2-1v-1h1-1v-1h1v-1h3l2-1h2l1-1h1v-1h1v-1h1v-1l1-1 1-1 2-2v-2h1v1h1v1h1v1l1 1 1-1v-4h1v-1 2l1 1v1h1v-2l-1-1v-1zm19-5zm-42 21h-1v-3h1v3zm-44-3v1h-1v-1h1zm89-10zm-1-1h-1 1zm-20-4h-1l1-1v1zm-92-1v1h-1v-1h1zm-4-5h1v1l-1-1zm1-1v1h-1v-1h1zm108-2h1l-1 1v-1zm-2-4v1h-1l1-1zm1 0v1h-1v1-2h1zm-98 27h-1 1zm0 0zM80 239v-1 1-1h-1 1-1 2-1v1h1-1v-1 1zm0-1z" class="st0"/>
    <path d="M80 239v-1 1zm0-1zm0 0v1h-1v1h-2v1h-5v-1h-1v-2h1v-1h2v1h1v-1h2v1-1h1v2-1h2zm1 0h1v1h-1v-1 1h-1v-1h1zM351 235h2l-1 1 1 1v2h1v2l1 1h2v1h1v2h-1v5h1v1h1v1h2v3h1v1h-1v1h-2v1h-1l-1-1v-1h-2v3h1v1l1 1v1h-1 1v4h1v-1h2v2h1v1-1 1h3v1h2v2h2v1-1 1h1l1 1h1l-1 1v-1 1h-1v1h-1v1h-1v2h-1v3h-1v2h1v1h1l1 1v-1h1v1h1v1h2v1h1v1h1v1h1l1 1 1-1v1h2v1h2v1h2v1h2l1-1 1 1h2-1 1l1-1v1h3v3h2v1h2v1l1-1h2v2h1v-1h2v1-1l1 1h1l1 1h1v-1h1v1h4v-1h1v1-1 1h1v-1h1v-3h-1v-4l1-1v-2h2v-1h1l1 1v3h-1 1v2h-1v1h1v1h1v1h4v1h2l1-1h1v-1h1v1h9v-1 1h1v-2h-1 1v-2l-1-1v1h-1v-1h-1v-2h1v1h2v-1h3v-1h1v-1h-1 1v-1 1h1v-1h1v-1h1v-1h1v-1h3v-1h2v-1h1v-2h3v1h4v-1h2v-1 1l1-1h1v1h1v1h-1v1l1-1v1h1v1h1v1h-1v2-1h2l1 1h1v1h1v1l1 1h-1v1-1 1h-1v1h-1l-1 1h1v1l1 1v1h-1l-1-1v-1h-1v1h-4v1l-1 1h-1v1h-1v1h-2v1h-1v2h1v2h-1v1l-1 1v1h-1v1l-1 1h1v3h-1v1h-1v2l-1 1v2h-2v-1h-3v-1 8h-1v-1 2h-1v2l1 1v1h-1 1-1v1h-1 1-1v1-1h-1v-1 1h-1v1-5l-1-1v-4h-1v-2h-2v2h-1v3h-1v-1h-1v-1 1h-1v-3h-1v-1h1v-2h1v-1h2v-1 1h1v-1h1v-2h1v-2h2-1v-1h-1v-1h-13l-1-1h-1v-5h-1v-1 1-1 1l-1 1-1-1v1-1h-1v-1h-1v-1h1-2 1v1h-2v-2h-2v-1 1h1v1h-1v1h-1v2h-1v1h2v1h1v1h2v1h1v1h-3v1h-1v1h-1v1h-1v1l1 1 1 1h3v1h-1v2h-1v2h1v1-1h1v1h-1v1h2v1h-1v2h1v4h1l-1 1v-1 2-1l-1 1h1v1h1v1h-2v-1 1-1 1h-1v-2l1-1h-1 1-1v1-2 2h-1v1h1v1h-1v-2 2h-1v-1 1-1h-1 1v1h-1v-4h-1v-1h-1l1 1h1v1h-1v2h-2v1h-3l-1 1-1 1v3h1-1v1h1-1 1-1l-1 1v1h1-1v1-1 1h-1v1h-1v1-1h-2 1v1h1-2v1h-3l-1 1v-1h1v-1h-1v1h-1v1h-1v1h1v-1h1v-1 1h-1l2-1v1h-2v1l-1 1h-1v1h-1v1h-1v1l-1 1v1h-1v1h-1v1l-2 1h-1v1h-1v1h-1v1h-1 1-1l-1 1h-1v1h-1l-1 1h-1v1h-1l1 1v-1 3h-2v1h-5v2l-1 1v1-1h-1v-1 2-1h-3v1h-1v2h-1v5h1v2h-1v1-1 1l1 1v3h1-1v-1h-1v1h1l1 1v-1 3h-1v3l-1 1v1h-1 1-1v2l-1 1v2h1-1v1-1l1 1v6h-2 1-3v2l-1 1-1 1v2h3v1h-1v-1h-1v1-1h-1v1h-3v1h-1l-1 1v1h1v-1 1h-1v2h-1l-1 1h-1v1h-2v-1h-1l-1-1-1-1v-1h-1v-1h-1 1v-1h-1v-1l-1-1v-3l-1-1h1v2-1 2h1v-1h-1v-3h-1v1-2 1-1l-1-1v-2h-1v-2l-1-1v-2h-1v-1l-1-1v-1h-1l1 1-1-1v-1h-1v-2l-1-1v-1l-1-1h1-1v-3 1-3h-1v-2l-1-1h1-1v-2 1-1h-1 1-1v-1h-1 1v-1l-1 1v-2h-1v-1 1-2h-1 1-1v-1h1-1v-1h1-1v1-1h-1v-2h-1v-1h1-1v-2h-1 1-1v-1h1-1 1-1v-5l-1-1h1-1v-3h-1v-1h1-1v-2h1-1v-2 1-1h1-1v-1 1-1h1-1v-1 1h-1v1-3 1-1h2v1-1h-2v-1l1-1h-1v1-1 1-2h-1v-1h1v-3l1-1v-3h-1 1l-1-1h-1 1v-1h-1v-1 1-1h1-1l1-1h1v-1h1-2v1-1h-1v1-2h1v-1 1h-2v-1h1v-1h2v-1 1h-2v-1 1h-1v-1h-1v1-1 1l-1-1v1h1v-1 2h-1v1-1 1-1 1h-1v1h2v2h-1v2h-1l-1 1h-2v1h-2v1-1 1h-3l-1-1h-1v-1l-1-1h-1v-1h-1v-1l-1-1h-1v-1h-1v-1h-1v-1h-1v-3 1h1v1l1-1h1v-1 1h1v-1l1 1v-1h2v-1h1v-2h1v-1h-1 1v1h-3l-1 1h-4v-1h-2l-1-1v-1h-1 1-1v-1h-1v-1h1-1 1v-1h1v-1h1-2v1h-1v1h-1v-3 1h1v-1h2v-2h6v1h2l1-1h1l1-1h1l-1 1h1l1 1v-1h1v-1h1-1v-1l1-1h-1v-2l-1-1-1-1v-2h-2l-1-1v-1h-1v-1h1v-3h-2v-1h-2v-4h1l1-1v-1h1l1-2v-1h2v-1 1h1v2h2v-1h4l1-1h1v-2h1v-1h1v-2l1-1h1v-1h2v-1l1-1v-1h1v-2l1-1v-1h1l1-1 1-1v-1l1-1v-1h1v-1h1v-1h1v-1h1-1v-5l1-1h1v-1h2v-1h1v-1h-1v-1h-3v-3 1h-2v-2h-1l-1-1v-1l1-1v-1h-1v-1h-1 1v-1h1v-1h-2v-1h1v-1h-1l-1-1h1v-2h2v-1h1l2 1h3l1 1h3l1-1h2v-1h3v-1h1v-1l3-2 2-1zm20 135h-1v-1l1 1zm-46 35v1-1zm1 0zm-7-3zm0-1zm7 0zm-6-2zm2-2zm-2-2zm130-3zm3-8v1l-1-1h1zm-3 40v2-1h-1v-2h1v1zm-1-2v1h-1v-1h1zm-2-3h1-1v-1 1zm1-1v1-1zm0 0l-1-1h1v1zm-126-2v1-1zm124 1h-1v-1 1h1zm2-2h1-1v1-1zm-4-4h-1v-1 1h1zm-2-10v2h-1v-3h1v1zm1-4h-1 1zm-3-1zm5-2h-1v-1h1v1zm0-2v1-1zm-2-5v1-1zm2-2v2h-1v2h1v1h-1l1 1h-1v2h-1 1-1v3-1 2-1h-1 1-1v-4h1v-4h1v-4h1v1zm0-2zm-26-51h1-1zm-5-1l1-1v2h-1v-1zm4-1v1l-1-1h1zm-4 0h1-1zm-98 71h1v-1 1h-1zm4-3v1-1z" class="st0"/>
    <path d="M351 235h-3v-1h-3v-1h-2v-1h-2v-1h-1l-1-1h1v-3l-1-1-1-1h-2v-1h-1v-1h-2v1-1h-2l-1-1h1v-1h1v1h1v-1h1v-1h1-1v-1h-1v-1l1-1h-1v-2l-1-1v-1h1v-1h-1v-1h-1l-1-1h-2v1h-2v-3h1-1v-1l-1-1v-2h2v-5h3l1-1 1-1h1v-1h2l2-1h1v2h3v-1h1v1l1-1v-1h1v-2h1v-1l1-1h1v1h1v-1l1 1h1l1-1h3v-2h1-1 1v-1h1v-1h2v-1h2v-1h2v-1h2v-1h2v-5h-1 1v-1h1v-1h1-1v-1l1-1h2-1v-3l-1-2v-2h-1v-6h1v-1h-3l-1-1 1-1h2v-1h4l1-1h2l1-1 1 1v1h1l1-1h1l1 1h1v-3h-2v-2l1-1v-3l1-1v-2h1v-2l1-2v-3h1v1h1l1 1 3 1h1v-1h2v1h2v1h1v-1h1v-1h3v-1l1-1v-1l-1-1v-6l1-2 2-1h3v-1l1-1v-3l1-1h5l1-1v3h-1 1v1h1v2l1 1h1v1h1v1h1v1h2v1h1v1l1-1h2v1h1v1h1v-1l1 1v1h1v1l1 1v2l2 2v1h1v3h1v1h-1v5l-1 2-1 2h1v2h1-1 2v1h3v1h1v-1l1 1v-1h1v1h8l1 1h1l1 2h2l1 1h1v1h1v1h2v1l2-1v3h1l1 1v2l1 2v1h1l2 3v1h10l2 1h5l3 1 3-1h2l3 1h5v1l1 1 1 1h2l3 1h2v1h2l2 1h5l-1 1h3v1h1l1-1v-1h2l2-1 3-2 2-1h3l3-1h11l1-1 2-1h1l2-1v-1h1v-1h1v-1l1-1v-1h1l2-1h1l1-1h1v-3h-1v-1h-1v-2h-1v-2h1v-1l1-3h1v-1h1v1l2-1v1h1v1h1l2 1h4l1-1h1l1-1 2-2v-1l1-1h1l1 1h2l1-1h1l1-1 1-1h1l1-1v-1l1-2 1-1 1-1h4v-2h1v1h2v-1h1v-1h6l2 1h3v-1 1-4h-1v-2h-1l-1-1v-1h-1v-1h-1v-1h-2v-1l-1-1v-1h-5v1l-1 1-1 1v1l-1-1-1-1h-1v-1h-1l-2 1h-2l-1 1h-1l-1-2v-1l-1-1 2-1v-3l1-2h1v-1l1-3 1-3 2-3 2 2h2l2 1h1l1-1h1v-1h1v-1h1v-1h4v-1h1v-3h-1v-1l1-1v-1h1v-3h1v-1h1l-1-1h1-1 1v-2h1v-2l1-1 1-1h1v-1h1v-2h1v-1l-1-1v-3h-4v-2h1l1-1v-1h1v-1h1v-1h1v-1h4l1-1h3v-1h7v-1h1v1-1h1v1-1l1 1h2v1h1v1h1v1h3v1-1h2l1 1h1v1-1h1v2h1v1h2l-1 1v1l1 1h1v2h1-1v1h1v2l1 3v1l1 1v1h1-1v1h1v1h-1l1 1v1l1 1v1h1v5h2v1l-1 1v3h1v1h1v1h1v-1 1h4v-1l1 1v1h1l1 1v-1h1v1h1v-1h1v1h1v1h1v2h1l1 1h3v1h-1v3h1v1h1v1h-1v2l1 1v2h10v-1h1v-1h1v-1h1v-1h4v-1h2v-1h4v1h1-1v4l1 1-1 1v1h-1v1-1 1h-2v2h1v1h-1v1l-1 1v3h-1l1 1h-1 1v1h-1v1-1 1h-1v2h-1v3h-1v1h-1v3h-1v1h-1l-3-1-2-1h-1v-1l-1 1h-1v1h1-1v1h-1l-1 1h-2v1h1v1l1 3v10h-1v2h-2v1h-2v1h1v1-1h-1v1-1h-1v-2h-1v-1h-1v1l-1 1v3h-3 1-1v1h-1l1 1h-1v1h-3l-1 1v-1h-2l-1 1 1 1v1h1v1l-1 1v1-1h-5v-1h-1v-1h-1 1-1v-1h-1v1h-1l-1 1v2h-1v1l-1 1v1h-1v1h-1v-1 1h-1v1h-1v-1 1h-1v1h-2v1h-1v1h-2v1l-1 1v1h-1v1h-4v-1 2-1h-1v1-1l-1 1v-1 1h-2v1h-1v1h-1v-1 1h-1v1h-1l-1 1v1h-1v1-1h-1v1h1-1v-1 1h-1v1h-3 1l-1 1v-2h1v-1h1v1-1h1v-1l1-1h1v-1 1h-2 1-2v-1h-1l-1-1h2v-1h1-1v-1h1v-1h2-1l1-1v-1h1v-1h1v-2h-1v-1l-1-1h-1v-1 1h-2v-1h-2v1h-1v1h-1v1h-1v1h-1v1h1-1v1h-1v1h-3v1h-2v1h-1v2h-1 1-1v1h1v1h-1l-1 1-1 1v-1h1-1l-1 1v-1h-1v1h-2l-1-1h-2v2l-1 1v2l1 1v1h1v1h2l1 1h1l1-1h1v1h1v1l1 1v1h-1v1l-1 1v1h1v1h5v-2h1l1-1h1v-1h-1 2v-1h3v1h1v1h1v-1h1v1h-1 1v1h3v-1h1v1h4-1v2h-1v1h1v1h-1l-1 1-1-1h1-1v-1 1h-1l1-1h-1v1h-1v1h-1v-1 1h-1 1v-1l-1 1h-1 1l-1 1v-1l-1 1h-2v1-1 1h1l-1 1h1-1v-1 1h-1v2h-1l-1 1v-2 1l-1-1h-1 1v1h-1 1v1h1-1v1-1 1h-1v1h-1 1-1v1-1 1h-1v1h-1v1h-1v2h-1v3-1h2v2h3v1h1l1 1v3h1v2l1 1v1h1-1l1 1h-1 1v1l1 1v1h-1v1h1l1 1h1l1 1v1h-1 1v1h2v1h1l-1 1h1v1h-1l-1-1h-1l-1-1-1 1h-1v-1h-1v-1h-3v1h-2v-1h-1v-2h-1v1h1-1 1v1h1v1h3v-1l1 1v-1l1 1v1h-1v-1 1h3v1h1v1h1v1h1l1 1 1 1v2h-3l-1 1h-1v1h-1v1h-1 1-1v1-1h-3v1h-1 2v-1h1v2h1-1v-1h1v1l1-1h1v-1h1l1 1 1 1v1h2v1h1v-1 1h-1v1-1l-1 1v1h-2v1-1 1h1v-1h1v1-2h1v3l-1 1v-2 1-1 2h-1v-1h-1v1-1 1h1-1v1h1-1l1-1v1-1 1h1-2l1 1v1h-2v-1h-1 1v1h1v1h1-1 1v2h-1v-1 1h-1v1-1l-1-1h1-1v1h-1 1v1h-1v1h-2v-1 1-1h-1 1v1h1v2h-1v-1 3h-1v1h-1v-1 1-1 1h-1 1v1h1-2 1-1l1 1h-2v1h1v1h-1v1h-1v-1h1v-1h-1 1l-1 1v-1h-1v1-1h-1v1h1-1v1h1v-1 1h1-1 1v1h-1v-1h-1v1h1v-1 1h2-1v1-1l-1 1h-1v2h-1v-1h-2 1v1h2v-1h1v1l-1 1v-1 1h1-1v2-1 1h1-1 1v1h-1v-1 1-1h-1 1-1v-1l-1 1h-1v1h1v1-1h1v1h-1 1-2 1-1v1-2l-1 1h1-1v1h1v1h-1 1-3v1h1v1-1 1h-1v1-1h-1v-1 1h-1v-1 1h-2 1v1h-2 2v2h-1v1h-1v1-1l-1 1v1-1h-1v-1 1h1-1v1-1 1h-1v-1 2-1 1h-1v-1h-1v1-1 2h-2v1-1h1v1h-1 1-1v1-1h-1 1v2h-2l-1 1v-1 1h-3v-1h1-1v1h-1l1-1h-1v1h1-1l1 1v-1 1h-2v-1h1-1v-1 1h-2v1-1h-1v1h1v1h-1v-2h-2v1h1-1 1-1v1h1-1v-1h-1v1h-3v-2h-1v-1 1-1 1l-1-1h1v-1 1-1 1h-1v-1h2-3 1v1h-2l1 1v-1 1h1-1l1 1 1 1h-1v1h1-1v1h-1v-1h-1v-1 1h1v1h-1v1-1h-1v1-1 2h-2v1h-1l-1-1h1-1v-1 2h-1v-1 1h-1v-1h-1v1h1-2v1h-1v1-1 1h-1v-1 1h-1v-1 1-1l-1 1h1-1v-1 1h-1 1-1 1-2v1h-1 1-1v-1h1-1v1h-1v1-2 1h-1 1v1h-1v1-1 1h-1v1h2v1-1h-1v1h1v1h1v1h-1v1h-2v-1 1h-1v-2 1-1 1-1h-1v-1h1-1v-1h-1v-1h1v-1h-1 1v-1h1v-1h-1v-1 1l-1-1v-1h-1v1h1v1h-4 1v-1h-1 1-1v-1l-1 1v-1h1-1v1h-1 1v-1h-1 1-1v-1h-1 1-1v2-1h1-1v1h-1 1v-1h-1v1l-1 1v-1h1-1 1-2 1-1v1h1-1v-1h-4v-1h-2v-1h-1v-1h-1v1-3h-1v-2h1v1-2h1-2v-1l-1 1h-1v-1h-3v-1h-1l-1-1v-1h-1v1h-2v1h-1l1 1h-1v1h-2v1h-1v-1h-1v1h-1v1l-1-1-1-1v1h-1v-1h-1v1h-1v1h-2v-1h-2v-1 1h-1v2h-1v-1h-2v1-1h-1v2h-1v1h1v1l1 1h-1 1v1h-1l1 1h-1v1h1v1h-2 1v-1h-2v1h-1v-4h-2v1h-1v1h-2v-1 1h-2v-1h1v-1h-2v-1h1l-1-1h-4v-2l1-1v-3h1v-1h-4v-2h-1v-1h1l-1-1v-2l1-1h-2v1-1h-3l-1 1h-1v1h-1l-1-1 2-1v-1h-1 1l-1-1h-1l1-1v-2h1v-2h1v-1h1v-2h1v1l1-1v-1h2v-1h-1v-1h1v-1h-1l1-1v-9h-1v1-1h-1v1h-1v-2h-1l1-1h-1v-2h-1v-1h-1v-1h-2v2h-2v-1h-1l-1-1h-2v1-2h1v-1h-1v-1h-1v-1l-1 1v-1h1v-1h-1v-1h-1l-1 1v-1 1h-2v1-1 1h-4v-1h-3v2h-1v1h-2v1h-3v1h-1v1h-1v1h-1v1h-1v-1 1h-1 1v1h-1v1h-3v1h-1l-1-1h-1v-1h-2v-1h-1v1h-1l-1-1h-2 1v-1h-2v-1h-1v1-1l-1 1h-1l-1 1h-1v1h-1v1h-1v1h-1v3-1l-1 1v-2h-1 1v-3l-1-1h-1v1h-3l1 1h-2v-1 1h-5v-1h-2v-1h-1v1h-2v-1h-1v2h-1v-2l-1-1v-1 1h-4v-3l-1 1h-2v-1h-1v-1h-1v-1l-1-1v-1h-3v1h-1v-2h-1v-1h-1v-1 1h-1v-1h-1l-1-1-1-1h-1v-1h-1v-1h-1 1l-1-1h-4v2h-1v1h-1v-2h-1l-1-1h-1v-1 1-1h-2v-2h-2v-1h-3v-1 1-1h-1v-2h-2v1h-1v-4h-1 1v-2h-1v-1h-1v-3h2v1l1 1h1v-1h2v-1h1v-1h-1v-3h-2v-1h-1v-1h-1v-5h1v-2h-1v-1h-2l-1-1v-2h-1v-2l-1-1 1-1h-2zm205 110h-2 1-1v1h-1l1 1h-1v1h-1 1v1h-1 1v1h-1 1-1v1h-1 1-1l-1 1v1h-1 1-2v1h-1 1-2 1-1l-1-1h-1v1-1h-2v-1h-1v-6 1h1v-1h1v-1h1v-1h1-1v-1h2v1-1h1-1 1-1 1v-1 1-1h1v1h2v-1 1-1h2v1-1h1v1-1 1-1l1-1v1h1v2h1v1zm5-13h1-1zm5-1v1h-1v-1h1zm1 0v1h-1v-1h1zm3-2zm0-1v1h-1 1v-1zm2-4h-1l-1-1h1v1h1zm21-4h-1 1zm2-2h1-1v1h-1 1v-1zm12-16v1h-1v-1h1zm12-14h-1v-1h1v1zm6-15h-1v-1h1v1zm1-1h-1v-1 1-1h1v1zm-4-7h1-1v1-1zm-12-5v-1h-1v-1h1v2zm15-54h1-1v1-1zm2 0h1-1zm0 0l-1-1h1v1zm-7-2v1h-1v-1 1-1h1zm9 0v-1h1v1h-1zm-76 132v1-1zm0 0h-2v-1 1-1h1v1-1h1v1zm0-1h-1 1-1 1zm46-23h1v1h-1v-1zm11-6h-1v1-1h1-1v-1h1v1zm13-25h-1 1zm1-4h-1 1v-1 1zm2-1h-1 1v-1h-1 1v1zm-3-2v1h-1v-1h1zm2 1h-2v-1h2v1zm-3-12l1 1-1 1v-1h-2v-1h-1l-1-1h2l1 1h1zm-65 107zm3-2zm-16-32v-1 1zm72-120h-1 1zm-1 0zm0 0zm1-2zm0-1zm1 0v-1 1zm14-6h-1 1zm-72 158zm7-1zm-2-1zm0-1zm-12-24v1-1zm18-8h-1 1zm3-1v1h-1v-1h1zm3 0h-1 1zm-5 0zm1-3v1-1zm-1-2v1h1-1v-1zm0-1v1-1zm21-4h1-1zm16-11zm-1-3v1-1zm2-3h-1 1zm4-6zm5-4v1h-1v-1h1zm0-2zm-1-1h1-1zm5-8zm3-5zm-2-1zm2-2h1-1zm2-3h-1v-1 1h1zm-5-5h-1v-1 1h1zm-19-58l-1 1v-1 1-1h1-1 1zm-43 158zM83 266h1v-1h-1 1v-1h1-1v-1h1v-2h1v-3l1-1v-3h1v-1h1v-1 1h1v-1h1v-1h1v-1h1l-1 1v1h1v2l-1 1-1 1v1-1 2h-1v-1h-2v1h-1 1v1h-1v2h1-1v1h2-1v1h-1v2h2l1-1v4h-1v2l-1 1v6h-1v1-1h-1v-3l-1-1v-2h-1v-3h-1v-2z" class="st0"/>
    <path d="M84 263v1h1-1v1h-1 1v1h-1v-1l1-1v-1zm7-5v5h-1v1l-1 1h-2v-2h1v-1h1-2v-1h1-1v-2h1v-1h-1 1v-1h2v1h1zM88 253v-1h1-1 1v-2l1-1v-3l1 1v-3h1v-1h1l-1-1h2v-1h-1 3v1h1v3h-1v1h-1v1h1-2v1h-1v1h1-1v1h-1v1h-1v1h-1v1h-1v-1 1-1 1h-1zM346 238v1h-1v1h-3v1h-2l-1 1h-3l-1-1h-3l-2-1h-1v1h-2v2h-1l1 1h1v1h-1v1h2v1h-1v1h-1 1v1h1v1l-1 1v1l1 1h1v2h2v-1 3h3v1h1v1h-1v1h-2v1h-1l-1 1v5h1-1v1h-1v1h-1v1h-1v1l-1 1v1l-1 1-1 1h-1v1l-1 1v2h-1v1l-1 1v1h-2v1h-1l-1 1v2h-1v1h-1v2h-1l-1 1h-4v1h-2v-2h-1v-1 1h-2v1l-1 2h-1v1l-1 1h-1v3l1 1h1v1l1-1 1 1v3h-1v1h1v1l1 1h2v2h1v1l1 1v2h1l-1 1v1h1-1v1h-3v-1h1-1l-1 1h-1l-1 1h-2v-1h-6v2h-2v1h-1v-1 2h-1v-2 2-1h-3 1v-1l-1 1v-1 1-1h-1 1-1v-1h-1v-1h1-1v-2h-1 1v-1h-2v-1 1-1h-2 1v-3h-1v-1h-1v-1h-2v1h2l1 1h-1v-1h-3l-1 1h-7v1-1h-1v1l-1-1h-1v-1h-1v1-1 1-1 1h1-4v1h-7v1h-1 1v-1h-2v1h-2v-1h-1v-1l1-1v-4h1v-1h1v-1h1l1-1h2v-1h3v-1h1v-1h-1v-1h1v-1h-4 1v-1h-1 1v-3l-1-1v-2h-1v-1h-2v-1h-2v-1h-1l-1-1v-1h-1l1-1h-1v-2h-1v-1h-1v-1h-1v-1h2v1h3v1h3v1h6l1-1h1l2 1h2v-1h7v-1h4v-1h2v-1h1-1v-4l1-3h1v-1l1-1h1v-1h1v1h3l1-1h-1v-1h1l1-1h1v-1h3-1 2v1h2v-1h1v-1h1v-1h-1v-1l1-1h-1v-1h1v-1h1l-1-1 1-1v-1h1v-1h1v1l1-1h1l1-1v-1h-1v-2h-1v-1h-1v-1h7l1-1v-2h-1v-1h1v-2h1v-1h1v-1l1-1v-1h-1 1v-2h-1v-2h-1v-1h-1v-1h1v-1h1v-1h1v-1l1 1v-1h1l1-1v-1h5v-1h6v1h1v-1h1l1-1h1v1-1h2v1-1h2v1h1v1h2l1 1 1 1v3h-1l1 1h1v1h2v1h2v1l1 2v2zm-59 78h1-1z" class="st0"/>
    <path d="M92 255l1-1v-2h-1 1-1v-1l1-1v-1h1-1v-1h1v-1h2-1v-1h1v-1 1l1-1v-3h-1v-1h-3v-6h-1v-2h1v-1h-1 1v-1h1v1h1v-1h1v-2h2v-1h-1v-3h3v1h3v-1h3l1-1h2v1h1v1h5l2-1h1l1-1h1l1-1h1l1-1h1l1 1h2l3-1h1v-1h2v2h-1v1l-2 1v1h-1l-2 1-1 1v3l1 1v2h-1v6l-1 2-1 1h-1l-1 1h-1l-1 1h-1v1h-1l-1 1h-1v1h-2l-1 1-1 1h-1l-2 1-1 1-1 1h-1v1h-2l-1 1-1 1h-1v1h-1l-1 1h-3l-1-1h-1v-1h-1v-1h-1zM662 211h1v1l1 1v2l2 1v2h1v2h1v1h1v10l1-1v2l-1 1v2-1 2h-1v1h-1v1-1 1h-1v-1 1-1 1h-1v-1h-1v1-1 1h-1v1-1 2-1h-2v-1h-1v1-1 1h-1l-1-1v1h1-1v1h1l-1 1v-1 1h-1 1v-1h-1v-1 1h-1 1-1 1-1l1 1v1-1h-1v1h1-1v1-1h-1v-1 1h1v-2l-1 1h-1v2l-1-1v1-2 1h-1 1-1v2h-1v-2h-1v-2 1h1v1-1h-1 2-1v-1h-1 2-1v-1h1-1v1h-1v-1h1-1 1-1v-1l-1-1h1v1-1 1h1-1v-2h1l-1-1h1v-1h1-1v-1h1v-1l1 1v-1h-1 1-1v-1h-1 2v-1 1h-1v-1h-1 1v-1h-1 1-1v-1h1-1v-1h1-1v1-3 1h-1v-1 1-1h-1v1-1 1-2h1v1-1 1-2h1v1h1-1v-1h1v1-1h1v2-1h1v-1 1h-1v-1h1-1v-1 1-1h-1v-1h1v1-1h-1v-2h-1v-2h1v1h1-1v-2h1v-1l1-1 1-1h6l1-1v-1zm-12 16v1h1-1v-1 1-2 1zm0-10h-1 1zm4 33h-1v1h-2v1-1h-1v1h-1v-2h2v-1h3v1zm1-8h1v1h-1v-1zm-5 0v1h-1v-1h1-1 1zm9-1v1-1zm-11 0h-1 1v-1 1zm0-1h-1v1-1h1zm0-1zm13 1v1h-1v-1 1h-1v-2h1v1h1zm4-1v1h-1v1-1h-1v-1h1v-1h1v1zm-16-1h-1 1v-1 1zm2-19h1-1v1h-1v-1h1zm27 0v1-1zm-28-1v-1 1zm1 1h-1v-2h1v2zm-11-3h-1 1zm16 30v-1 1zm1-3v-1 1zm2-1h-1 1zm-10-1v1h-1v-1h1zm-1 1v-1 1zm-4-1h1-1zm5-1v1-1 1-1h-1 1zm0 0h-1 1zm-1 0v-1l1 1v-1 1h-1zm13 0h-1v-1h1v1zm-12-1zm0-1zm16 0zm-15-4h-1 1-1 1zm-1-13l-1 1v-1h1v1-1zm2 0zm1 0l-1 1v-1h1zm-6-3zm-6-1zm3 28h-1 1zm9 0h-1 1zm0 0v-1 1zm2-1v1h-1v-1h1zm-2 0v1h-1v-1h1zm-4 0zm5 0v-1 1zm2-1h-1 1-1v1-1h1zm-2 1h-1v-1h1v1zm0-1zm9-2zm1-1h-1 1-1 1zm-1 0h-1 1zm-12-1v1-1 1h-1v-1h1zm-1-1h1-1zm35-17z" class="st0"/>
    <path d="M662 211v1l-1 1h-6l-1 1-1 1v1h-1v1h-1l-1-1v1h-1v1-1h-1v-1 1h-1v-1l-1-1h-1v1h1v1h-1v1h-1v-1h1v-1h-1l1 1h-2 1v-1h-1v1l-1-1h1-1v-1h1-2v-1 1h-1v-1h2-1v-2h1v-1h1l-1-1h1v1-1h2v1h1v-1h-1v-1h-1v1h-1v-1 1-3h1v-2h1-1v-2h1-1v1h-1v-1h-1l-1-1v1-1h-1v-1 2h-1v-1h1-1v-1h-1v-1h1l-1-1 1-1v-1h2v-1h1v-1h2v-1h1v-1 1h1v-1h1v-1 1h1v-1h1v-1h1v-2h1v-2l1-1h1v-1h1v1h1-1 1v1h1v1h5v1-1 1-1l1-1v-1h-1v-1l-1-1 1-1h2v1l1-1h3v-1h1l-1-1h1v-1h1-1 3v-3l1-1v-1h1v1h1v2h1v1l1-1v2h1v1h-2v1h-1v1h-1v1-1 1h-1 1-1v1h-1v2h-1v1h1v5h-2v1h-1v1h-1v1h-1v1h-2v2h-2v1-1 1l-1-1v1l-1-1v2h-2l-1 1v1h1-1v1l1 1h-1v-1 1h-1 1-1 1-1v1h1v1l1-1v1h1v1h1v1h1l1 1v1zm-21-8v1-1zm0 8v1-1 1l-1-1h1zm3 6v1h-1v-1h1zm-1 0zm-1 0zm-2-13v-1 1zm0-1h-1 1zm-1 1zm-2-3zM436 290v2h1v1h1v-1l1 1v2h-1 1v2h-1v-1 1h-9v-1h-1v1h-1l-1 1h-2v-1h-3l-1-1h-1v-1h-1v-1h1l1-1v1-3h1v-1h1v-1h1v-1h1l1-1h1l1-1v1-1h1v1h2v1h-1 2l1 1h1v-1h1v1h2v1zM218 307h1v1h-1v-1zm0 1h1v-1h-1v1zm-1-6l1-1h1v-1h1l-1 1h1-1 1-1 1v1-1h-1v1h1-1v1h1-1v2h-1 1-1v-3h-1zm2 7v1l1 1 1 2 1 1v1h1v1h1l1 1h2v1l1-1v1h3v1h1v-1h1v1h1v1h1v2h1v1h1v1l1 1h1v1h-1 3l-1 1v2h-1v1l-1 1v1l-1 1-1 1-1 1h-1v2h-1v1-1h1v1h-1v1h-1v1h-2v-1 1h1v-2h-1v1h-1v1l-1 1v2l-1 1v2h1v3h-2l-2 1h-2v1l-1 1v1l-1 1v1h-1v1h-6v1l-1 1v1h1l-1 1v1h-1v1h-7v1h-3l-1 1h-1v-1l-1-1-1-1v-1l-1-1v-1l-1-1v-2l-1-1v-1l-1-1v-2h-1v-1h1l1-1h2l1-1h2l1-1h1l1-1h2l1-1h3l1-1h1l1-1v-2l1-1v-2l1-1v-2l1-1v-3l1-1h-1v-1l-1-1v-1l-1-1v-3l1-1v-2l1-1v-1l-1-1h4v-1h-1v-1 1h-1v-1h1v-1h-1v-1h1v-3h1v2h1v-1h1v-1zm-3 50zm1-1v1-1zm18-20v1l-1 1v1h-1v-1h1v-2h1zM314 200v1-1h-1 1zm-5-2h-2l-1-1h-1v-1h1v-1h1v-1h1-1v-1l-1-1v-1h-1v2h-1l-1 1h-2v1-1h-1v-1h-1v2h-1v1h1v1h-1v1h1-5v1h3-2 1v2-1h-1l1 1h-1l-1 1v1h-1v1-1h-5v1h-1v2h1v1h1v1h3v1h-1v3h1v1l1 1v1h-1v1h-1v2h-1v1l-1 1 1 1-1 1v-1h-1v1-1h-1v1h-1v-1h-1v-1h-2v1h-1v-1h-1 1v-1h-1l1-1v-3h-2v-1h-2v-1h-1v1h-1l-1-1h-1v-1l-1-1h-1v-1h-2l-1-1-1-1h-1l-1-1h-1l-1-1-1-1v-1h-1l-2-2h-1l-1-1h-1v-1l-1-1v-3h-1v-1l-1-1v-2l-1-1-1-1-1-1h-1v1h-6v-1h-1l-1-1v-3h1-1v-1h-1v-2h1-1v-1h-4v-1l-1-1h-2l-1-2v1h-3v1h1v1l1 1-1-1h-1v-1h-1v2h-1v1h-3l-1 1v1h-1v4l1 1h-1v1l-1-1h-5v-31h1l1-1h2l1-1h3v-1h2l1-1h3l1-1h1v1h1l1 1h1v1h1l1 1 1 1 2 1h1l1 1 1 1 1 1h1l1 1h1v2h1v1h1v1l1 1 1 1 1 1 1 1h3v-1h11v1h1v-1h1l1-1h1l1 1v1h1v1h1v1l1 1 1 1v1h1l1-1v5h-1v3h3v1h1v5l1 1v1l1-1h6l1 1h1-1v3h1l1 1h2-1 1v-1h-1v-2h1v-1h1v-1h1v-2h2v-1h1v-1h3v-1h1v-1h1v-1h2v-1h2v-1h1l1 1h-1l-1 1h-1v1h-1l-1 1v1h-1l-1 1v1h3l1 1v1h2v1-1h1v1-1l1 1v-2h1v-2 1h1v1h1v1h1v2h1v-1h1v1h1v1h3v1h-2v1h-1v1-1h-2 1v2h-1v-1h-1v1h-1v1h1-2v1h-1v-1h-1l-1-1-1 1h-1zm-2-6h-1 1zm3 7h1l-1 1h1v1h-1v-1 1h-1v-1h1-1v-2 1h1z" class="st0"/>
    <path d="M410 121h-3v1h-1v3l-1 1v1h-3l-2 1-1 2v6l1 1v1l-1 1v1h-3v1h-1v1h-1v-1h-2v-1h-2v1h-1l-3-1-1-1h-1v-1h-1v3l-1 2v2h-1v2l-1 1v3l-1 1v2h2v3h-1l-1-1h-1l-1 1h-1v-1l-1-1-1 1h-2l-1 1h-4v1h-2l-1 1 1 1h3v1h-1v6h1v2l1 2v3h1-2v1h-1v1h1-1v1h-1v1h-1 1v4l-1-1-1-1h-3v-1l-1-1v-1h-4v-1h-9v-1h-2v1h-7v1h-1l-1-1h-2l-1-1h-2v-1h-1v-1h-1v1h-1v-1h-1v1h-1l-1 1v2h-1v2l1 1h-2v-1h-3v-1h-2v-1h-7v1h-1v1h-1 1v1h-1v1h-1 1v1h-2v1h-2v1h-1v1h-1v1h-3v1h-1v1h-2v2h-1v1h-1v1h-1v2h1v1h-1 1-2l-1-1h-1v-3h1-1l-1-1h-6l-1 1v-1l-1-1v-5h-3l-1-1v-3h1v-5l-1 1h-1v-1l-1-1-1-1v-1h-1v-1h-1v-1l-1-1h-1l-1 1h-1v1h-1v-1h-10l-1 1h-3l-1-1-1-1-1-1-1-1v-1h-1v-1h-1v-2h-1l-1-1h-1l-1-1-1-1-1-1h-1l-2-1-1-1-1-1h-1v-1h-1l-1-1h-1v-1h-1l-1 1h-3l-1 1h-2v1h-3l-1 1h-2l-1 1h-1v31h-2v1h-1l-1-1-1-1v-1l-1-1-1-1v-1l-1-1h-1v-1l-1-1h-6l-1 1h-2l-1 2h-1l-1 1v1-5h1v-4 1l1 1v-2h-3l-1-1h-1v1-1h-1v-1h-1v-1h-2v-4h-1l-1-2v-1h-1v-2l-1-1h-3v-2h1v-1h3l1 1 1 1v-1h3-1v-1l-1 1v-1h-1v-1h-1v-2h2v-3h2l1-1v1h9-1v-1h-2v-3h1v-1h1v-5h-1l1-1h1v-1h-1v-2h-3v-1h-1v1h-1v1l-1-1v1h1-1l-1-1h-1 1-2v-1 1-1h-2v-1h-1v1h-2v1h-1 1-1v1h-1v-1 1-1h-1v1l-1 1h-1v1h-1v1-1h-1v1-1 1-1 1h-1v-1 1l-1-1v1-1 1h-1 1v1-1h-1v1h1-2l-1-1h-1v-1h-1l-1-1h1v-1l1 1h1l1-1-2-3-1-2h-1v-1l-1-2h-1v-1h-4v1l-2-1v-2h1-1v-2h-1l-1-1h-2l1-3 1-2v-1h1l1-1v-1h-1l-1-1v-2l1-3 1-1h1v-3l1-1 1-1 1 1v1h1v1h1v2h1v1h3v-1h1v-1h-1v-5h-1v-1l1 1h1l1-1v-1h2v-3h3v-1h1l1-1h1v-1h1v-2h2l-1-1 1-1v1h3v2h-1 3v1-1h1v-2h1v1h1v-1h1v-1 1h1v2h3v1-1h3v1h1v2h2l1 1v1h1v1h2v1h-1v3h1v-1h1v-1h-1l1-1h-1l1-1h-1v-1h2v1h1v1l2 1h1v1l1 1v-1l1-1h1v-1l1-1h1v-2h1l1 1v-1h3v1h1v1h3v-1h-1l1-1h3v-1 1h2v3h1v1h3v1h2-1v1h2v-1h1v-3h1v1h1v1h5l2-1v-2l1-2 1-1h-1v-1h-1v-1 1l-1-1h-2v-1h-3v-2h-1v-1h-1v1-1h-1v-1h2l1-1h2v-1h1v-1h1l-1-1v-1h-1v-3h1l1-1-1-1h4v1l1-1h1v1h1v-1l1-1h-1l-1-1h-1v-1l-1 1-1-1h-1l-1-1h1v-1h1v1-1h1v-1h-4v-1h1v-1h1v-1h-2v-1h2v1-2h1v1h4v-1h3v1h-1l1 1v-2h4v-1h2v-1h2v1l1-1v-1h5l1-1v1h2l-1-1h1-1v-1h2v-1h2l1-1v1h1l2-1h4v-1h3l1-1h1v-1l1 1h1v-1h1v-1h-1v-1h3-1l1-1v-1h1v1h1v-1h-1v-1h1l1 1v1-1h3l1 1v1h1l1 1 1-1 1-1h2v1l1 1v4h2v1h-1v3h-1v1h1v1h-1 1v1l1-1h1v1-1h1v1-1h1v-1h1l1 1h1-1v-2h1v2h1v3l1-1h1v-1h-2 1v-1h2v1h1v1h3v-1h1v2h-2v1l-1 1v1l1 1v1-1h1v-1h1l1-1h1v1h1v1h1v-2h2v-2h1l1 1 1-1h1l1-1-1-1h2v-1h1l1-1h1v-1h3v-1h2-1v3h-3l1 1v1h1l1 1 1 1 1 1 1 1 1 1h1l1 1v1l1 1 1 1v1l1 1 1 2v1l1 1 1 2 1 2 1 1v1l1 2 1 1v1l1 1v1l1 2 1 1v2h1v-1 1h1v-1h1v-3h1v-1h2v1h2v1l-1 1v1h1v-1h1v1l1 1h-1l1 1h1v-1h2v1h1l1-1h1v1l1-1v-1h2l1-1h2l1 1h1v1h1v1h1v3h1v2h1v-1 1h2v1h2v1h-1v1h1v1h1v2-1h1v1h1v-1 1h2v1l1-1 1 1v-1l1-1h1v-1h-1 2v1h-1v1h2v2h1v1h2v1zm-148 32h2l1-1v-1h1v-3h-1v-1l-1-1h-4v1h-1v5h1v1h2zm-81 5h1v-1 1h-1zm0 2h-1v-3h1v1h-1v1h1v1zm3-1h1-1v-1 1-1 1zm12-5h1v1h-1v-2 1zm-17-7h-1v-1h1v1z" class="st0"/>
    <path d="M307 192h-1 1zm2 6h-1v1h-1v1h-1v1-2h-2l-1-1-3 1v1l-1 1v-1l-1 1v1h1v2-1 1l1-1h4v1h1v-1h2v2h1v-1h1v1-1h2v-1h1v1h2v2-1h2v1h1v-1h7v-1h1v2l1 1v1h1-1v3h2v-1h2l1 1h1v1h1v1h-1v1l1 1v2h1l-1 1v1h1v1h1-1v1h-1l-1-1h-3v1h-3v1-1 1-1h-1 1v-1h-4v1h-2v2h-3v1h-1l-2 2h-1v-1l-1-1v-6h1l-1-1h1v-1h-2v-3h-1v-1h-3v1h-1v2h-1v1h-1v1h1v1h-1v1h-1v-1h-1v1h-3v2h1v1h-3v-1h-2v1h-2l-1 1h1-2v1l-1-1-1-1 1-1-1-1h1v-2h1v-2h1v-1h1v-1l-1-1v-1h-1v-3h1v-1h-3v-1h-1v-1h-1v-2h1v-1h5v1-1h1v-1l1-1h1l-1-1h1v1-2h-1 2-3v-1h5-1v-1h1v-1h-1v-1h1v-2h1v1h1v1-1h2l1-1h1v-2h1v1l1 1v1h1-1v1h-1v1h-1v1h1l1 1h2zm-3 3h1v1l-1-1zM591 114l-2 3-1 3-1 3v1l-2 2v3l-2 1 1 1v1l1 2h1l1-1h2l2-1h1v1h1l1 1 1 1v-1l1-1 1-1v-1h5v1l1 1v1h2v1h1v1h1v1l1 1h1v2h1v4-1 1h-3l-2-1h-6v1h-1v1h-2v-1h-1v2h-4l-1 1-1 1-1 2v1l-1 1h-1l-1 1-1 1h-1l-1 1h-2l-1-1h-1l-1 1v1l-2 2-1 1h-1l-1 1h-4l-2-1h-1v-1h-1v-1l-2 1v-1h-1v1h-1l-1 3v1h-1v2h1v2h1v1h1v3h-1l-1 1h-1l-2 1h-1v1l-1 1v1h-1v1h-1v1l-2 1h-1l-2 1-1 1h-11l-3 1h-3l-2 1-3 2-2 1h-2v1l-1 1h-1v-1h-3l1-1h-5l-2-1h-2v-1h-2l-3-1h-2l-1-1-1-1v-1h-5l-3-1h-2l-3 1-3-1h-5l-2-1h-10v-1l-2-3h-1v-1l-1-2v-2l-1-1h-1v-3l-2 1v-1h-2v-1h-1v-1h-1l-1-1h-2l-1-2h-1l-1-1h-8v-1h-1v1l-1-1v1h-1v-1h-3v-1h-2 1-1v-2h-1l1-2 1-2v-5h1v-1h-1v-3h-1v-1l-2-2v-2l-1-1v-1h-1v-1l-1-1v1h-1v-1h-1v-1h-2l-1 1v-1h-1v-1h-2v-1h-1v-1h-1v-1h-1l-1-1v-2h-1v-1h-1 1v-3 1l1-1h1v-2h2l1-1v1h1v-1h1v1l1-1v-1h1v1l1-1h1v-3h2v-1h1l1-1h1v-1l1 1 1-1 1-1 1-1h2v-1h1v-1h4v-2h1v1h1v1h1v-1h2v2h8v4h1v1h3v1h3v1-1h2v-1 1h3v1h1v-1 1h1v-1l2 1h1v1h2l1-1v-1h2l1-1 1-2v-3h-1v-1h-1v-2h-1v-1l1-1v-3h1v-1h1v-1l1-1 1-1h1v-2h1v-1h1v1h1v1h3v1h1v1h5l2 2h2v1l1-1 1 1h3v4h1l-1 1h1-1v1h1v2l1 1 1 1h1l1 1h2v1h6v-1h2v-1h3l1-1h1l2 1v-1l1 1h2v1l1-1h2v1h1l1 1v1h1v1h1v-1 1h4v3l1 1h1v1l1 1h6v1h3l1 1 1-1h2v1h2v-1l1-1h3v-1h3l2-1h4v-1l1-1v-1l1-1h1v-1h2l1-1 1-1h4l1 1v1h1v1l1 1h3l2-1v-1h1v1h2v1h1zM534 376v-2h1-1 1v-2h-1v-1h-2v-2h1v-1h1-1l-1-1-1-1h-1v-1h-1v1-2h-1v-2h-1v-2h-1l-1-1h-1v-1h-1v-1l-1-1v-2h-2v-1h-1v-1h1v-1h-2v-1h-2v-1h-2v-1h-1v-1h-2 1v-1h1v-1h-1 1v-1h1v1h1v-1 1h1v-1h1v-1h1v-2h-2 1v-1h-2v-1h1v-1h-1v-1h-1v-1h-1l-1 1h-1v1h-2v-1h-2v-1h-1v-2h-1 1v-1h-1 1v-2h-1v-1 2h-1v-2h-1v-1l-1-1h-1v-1h1v-2h1v-1 1h2v1h2v-1h1v-1h1v1h1v-1l1 1 1 1v-1h1v-1h1v1h1v-1h2v-1h1l-1-1h1v-1h2v-1h1v1h1v1h1v1h3v1h1l1-1v1h2-1v2-1h-1v2h1v3-1l1 1h1v1h2v1h4v1-1h-1v1-1 1-1 1-1 1h-1v1h-2 1-1v2h-2 1-2l1 1h-1v-1 1-1h-1 1-1v2h1-2 1v1h-1v1-1 2-1 1-1 1h-1v1h-1v1h-1v-1 1-1 1h-1v2h-1 1v1h-1v1h1-1 1-1v2h-1v1h1v1h1v2h1v1h2v1l1 1h-1 1-1l1 1h-1 1v1l1 1v1l2 1h1v2-1 1h1l1 1h1v1-1h-1v1h1v-1 1h1v1h1l1 1h-1 1v1h1-1 1v-1h-1 1v2h1-1 1v1l1 1v1-1 1-1 1h1v1-1h1l-1 1h1v1h-1 1v2h1v4h1-1 1v4-1 2-1 2-1 2h1v1h-1 1v2-1h-1 1-1v-1 1h-1v1h1v1h-1 1v1h-1 1-1 1-1 1v2-1h-1 1v1h-1v1-1 1h1-1v1h-1v2h-1v1h-1v-1 1h-1v1h-2l-1 1v1-1h-1v1h-2v1h-1v1h-1v-1h-1v-1 1-1 1-1h-2v1h-1 2v1h-3 1l1 1h1l-1 1v-1 1h-1l-1-1v-1 1l1 1h1v1h-1v-1h-1l-1-2h-1l1 1v1h1l1 1v2h-1v-1h-1l-1-1v-1h-1l1 1v1l1 1v1h-1l-1 1h-2l-1 1v1h-1v1h-1l-1 1h-1v-1 1-1h1-1 1v-1l-1 1v-3l1-1v-3h1v-1 1-2h-2v-1 1h-1v-1h-1 1v-1h-1v1-1h3v-1h1v-2h1v1h1v-1h3v1-1l1 1h1v-1h-1 1-1 1v-1h-1l-1-1v-2h-1 1v-1h3v1-2h2v-1h2v-1h1l1-1v1h1v-7h1v-1l-1-1v-2h-1v-3h1v-2zm-8 32h1v1h-1v-1 1-1h-1v-1l1 1zm3-4v1-1h-1 1zm3-1v1h-1v-1h1zm-1 0h-1v1-1h1-1 1zm-1 0v-1 1-1 1zm15-11zm-16 22h-1 1zm-1-7l-1-1 1 1zm-15-3v2h-1v-2h-1 1v-1h1-1l1 1zm17-1h-1v-1h1-1 1v1zm1-66v1-1h-1 2-1zm-1 0h-1 1v-1 1zm4 0v-1 1zm1-1h1-1 1-1zm-1 0v1h-1l1-1zm1-1v1h-1 1v-1zm-1 0l1-1v1h-1l-1 1v-1h1v-1 1zm2-1h-1 1zm0-1h1v1-1l-1 1v-1 1-1zm7 69v1-1zm3-12h-1v-1 1h1zm-13-53zm0 0zm3-1z" class="st0"/>
    <path d="M534 376v2h-1v3h1v2l1 1v1h-1v7h-1v-1l-1 1h-1v1h-2v1h-2v2-1h-3v1h-1 1v2l1 1h1v1h-1 1-1 1v1h-1l-1-1v1-1h-3v1h-1v-1h-1v2h-1v1h-4v-1h-3v1-1 1h-1v-1h-1 1v-1h1-1 1v-1h-1v-1h-1v1h-2v1-4 1-2h-1 1-1v-1 1-1h1-1v1-1l-1-1v-1h-1v-1l1-1-1-1v-1h-1v-2l-1-1v-2h1l1-1h-1 1v-1h1v-1l1-1v-1h3v-1 1-1h2v1h2v-1 1-1h1l1 1h1v-1h2v1h1v1-1h1v1h3v1h3v-1h-1v-1h1v-1h2v-1 1h1v1h2v-1h1v-1h2v-1zm-23 27zm-3-2v1-1h-1 1zm-2-4l1 1h-1v-1zm0 0h1-1v-1 1zm2 5v1-1zM219 305v5h-1v1h-1v-1l-1-1v3h-1v1h1v1h-1v1h1v-1 1h1v1h-4l1 1v1l-1 1v2l-1 1v3h-6l-1-1h-7v-1h-3v-1l-1-1-1-1v-1h-1v-1h-1v-1l-1-1v-3 2-1 1l1-1h-1 1v2h4v-1h7v1h2v-1h2v-1h1l1-1h-1 1-1v-1h1v1-1h1v-1h-1 1v-1h2v-1h1v-1h1v-1h1v-1 1-2 1h1v-1h1v-1h1-1 1v-2h1v3h1zm-1 2v1h1v-1h-1zm0 1v-1h1v1h-1zm-16 7h1v-1 1-1h1v1h-2zm4 0v-1h-1 1v1zm-10-1zm4 0h-1 2v-1 1h-1zm7-1zm-1 1zm1 0h-1v-1l1 1zm-13-2v1-1zM118 172l1-1v-1h1l1 1h3l1 1h2v1h3v1h1l1-1h2v1h3v1l1 1h2v1h2v1h-1v1h2v-1h2l1-1h1v1h1v-1l1 1h1l1 1h2l1 1-1 2 1 1h2v1h2v1h-1v1-1l-1 1v1h1v1h2v1h1-1v2h-2v-1h-3l-1-1h1-1l-1-1h-1l-1 1h-1v1l-1-1v1h-6v1h-3 1l-1-1h-2l1-1h-1v-1h-2v-1h1-2v1h-6v-1l1-1v-4h-1v-4h-1v-1h-2v-2h-1l-1-1h-3v-2h-2z" class="st0"/>
    <path d="M149 191zm0-2h1l1-1h1l1 1h1-1l1 1h3v1h2v-2h1-1v-1h-2v-1h-1v-1l1-1v1-1h1v-1l1 1h1v1h1v1h1v1h1v1h1v1h3v-1h1v-1h1v-1h1v-1l1-1h1v1l1 1v1h1v1h1v3l1 1h1v2h3l1 1h1v2-1h-3v1h-2v1h-1v1h1-1v3l-1 1h1v1h-1v3h-1v-1h1-1v-1h-1v6h-2v-1h-2v-1l-1-1v-1h1v-1l-1-1v-1h2v-1h-1l-1-1v-1h-2v1h-1v1h-2v1h-1v1h-2v1l-1 1v1h-1v-3h1l-1-1-1-1h1v-1h-2v-1h-1v-1h-1v-1h-1 2v-2h-1v-1h-1l-1-1v-1h-1v-1h1l1-1h-1v-1h-2v-1h-1 1v-1h-1v-1zm3 6h1l-1-1v1zm4 14l-1-1h-3v-1h-1v-1h-1v-1h-1v-1l-1-1v-1h2v1h1v1h1l1-1h1v2h1v2l1 1v1zm-6-17zm34 5h-1 1zm-2 0v-1 1zM139 191h1v1h1v4h-1 1v1h-1 1v2h1v1h1v-1h1v1-1h1v1h1v1h1l1 1v1l-1-1h-1v1h-1v2l-1-1v1h-1v1h1v3h1l-1 1h1-1 1v3h1-1v2h-1v2l1-1v1h1l1 1h-1v1h1-1v1h1v1h1v1h-2v1h-2v-2h-2v1l-1-1v1l-1-1h-2v-1h-1v1h-1v-1h-1v1l-1 1h-1v-1h-2v1h-1l-3 1h-2l-1-1h-1l-1 1h-1l-1 1h-1l-1 1h-1l-2 1h-5v-1h-1v-1h-2l-1 1h-3v1h-3v-1h-3v3h1v1h-2v2h-1v1h-1v-1h-1v1-1h1l-1-1v-1h-1v-1h1v-1h1l1-1v-1l-1-1h-1v1h-2v1-1 1-1h1v1h-1 1v-1 1h-2 1-1v1h-1l-1-1-1-1h-3v1h-1v1h-1v2h-1v-1l-1 1-1 1v-1 1h-1 1-5v1h-1v-1h-2v-2h-1v-1h-2v-1h-1l-2-1-3-1h-2v5h-4v1h-1 1-2 1l-1-1h-2v-1h-1v-2l-1-1v1h-1 1-2v-1 1-1h-1v-1 1-1 1h-1v-1 2h-1v1l-1-1v1-1h1-1 1v-1h-3v1h-2 1-1v-1l1 1v-1h4-1 1v-1h-1 2v-1h-6v1-2h1v1-1h1-1 1v-1h-1v-1h-1v1-1l-1 1v-1h1-1v-1h1-1v-1h-1 2v-2h-1v-1h-2v-1h-1v1-1 1h-1v-1h-1 1l-1-1v1-1h1v-1h-1 1l-1-1v-1h1v1h1v2-1h1v1h1v-1h1-2v-1 1h1v-1h-1v-1h1v-1h1-1l1-1h-2v-1h1-1v-1h-1v-1h1v-1h1v-1h-2l-1 1h-2v-4h1v-1h1v-1h1v-1l1-1v1l1-1v1-1h2v1h4-1v-1h-1 1v-1 1-1 1h2-1v1h1l2-1v1h2v-1 1h2v-1h-2v-1h1l2-1h4-1v-1h-2v1-1h-1l-1-1v-2h8l2 1h4v-2h1l1-1h1l1-1h1v-1h1v-1 1h1v-1h2l1-1h1l1-1h2v1h8v-1h2-1v2h1v1h2v1-1h3v2h1v1h1v1h1v-1h3v1h1l1 1h3v1h6v-1h5v1h4l1-1h2v-1h2v-1h2v-1h1v-1 1h6v-1h2-1v1h2v1h1l-1 1h2l1 1h-1zm-95-7h1-1v1h1v2h1l1 1 1 1h2l1 1v1h-1v1h1-3v-1 1l-1-1h-3v1h-3v1l-1 1h-1v1h-1l-1 1h-1v1h-1v1h-1v1h-1l1-1v-1h-1 1-1 1v-1h2v-1h1v-1h-1v1h-4v-1h1v-2 1h1v-3h1v-1h1v-2h-1v-1h-1v-1h1v-1h1-1 3v-1 1-1h3v1h3zm-12 17h1-1zm0-3v1h-2v-1h2v1-1zm10-4h1v1h-2l1-1v1-1zm0 2zM501 327v1h1l1 1v1h1v2h1v-2 1h1v2h-1 1v1h-1 1v2h1v1h2v1h2v-1h1l1-1h1v1h1v1h1v1h-1v1h2v1h-1 2v2h-1v1h-1v1h-1v-1 1h-1v-1h-1v1h-1 1v1h-1v1h-1 1v1-1h1v1h1v1h2v1h2v1h2v1h-1v1h1v1h2v2l1 1v1h1v1h1l1 1h1v2h1v2h1v2-1h1v1h1l1 1 1 1h1-1v1h-1v2h2v1h1v2h-1 1-1v3h-2v1h-1v1h-2v-1h-1v-1 1h-2v1h-1v1h1v1h-3v-1h-3v-2h2v-4h-1v-1h1v-2h1v-1h-2v-2h-2v-2h-1v-1h-1v-7h-2v-1l-1-1v-1h-1v-2h-1v1h-1v-1h-3v1h-1v1h-1v1-1l-1 1h-1v1-1h-1v-1h-2v-1h-1v1h-1l-1 1h-1v1h-1l-1 1v1h-1v-1h-1 1v-2h1v-3h-1v-1h1v-2l1-1v-1h-1v-2h1v-1h-3l-1 1v-1l-1 1v-1h-1v-2h1v-2 1-1h-1v-1h-1v1h-1v-1h1v-2l1-1h2-1v-1h1v-2h1l1-1h1v-1 3h1v-1h2v1h-1 2v-1h-1v-1h1l-1-1h1v-1h-1 1l-1-1v-1h-1v-1h1v-2h1v1l1-1h1v1zM366 182v1h-2v1h-1v1-1l-1 1h-2v1h-2v1h-2v1h-1v1h-1 1-1v2h-3l-1 1h-1l-1-1v1h-1l-1-1-1 1v1h-1v2h-1v1l-1 1v-1h-1v1h-3v-2h-1l-2 1h-2v1h-1l-1 1-1 1h-3v5h-3v1h-7v1h-1v-1h-2v1-2h-2v-1h-1v1h-2v1-1h-1v1h-1v-2h-2v1h-1v-1h-4l-1 1v-1 1-2h-1v-1l1-1v1l1-1v-1l3-1 1 1h2v2-1h1v-1h1v-1h2l1-1 1 1h1v1h1v-1h2-1v-1h1v-1h1v1h1v-2h1v1-1h1v-1h2v-1h-3v-1h-1v-1h-1v1h-1v-1h1-1v-1h-1v-1h-1v-1h-1v-1 2h-1v2l-1-1v1-1h-1v1-1h-2v-1l-1-1h-3v-1l1-1h1v-1l1-1h1v-1h1l1-1h1l-1-1h-2 1v-1h1v-1h-1 1v-1h1v-1h7v1h2v1h3v1h2l-1-1v-2h1v-2l1-1h1v-1h1v1h1v-1h1v1h1v1h2l1 1h2l1 1h1v-1h7v-1h2v1h9v1h4v1l1 1v1h3l1 1 1 1zm-52 18h-1 1v1-1zm-4-1h-1v-1 2h1-1v1h1v-1 1h1v-1h-1l1-1h-1zm-4 2l1 1v-1h-1z" class="st0"/>
    <path d="M149 189v1h1v1h-1 1v1h2v1h1l-1 1h-1v1h1v1l1 1h1v1h1v2h-2 1v1h1v1h1v1h2v1h-1l1 1 1 1h-1v3-1h-1v1h-1v-1l-1-1v-2h-1v-2h-1l-1 1h-1v-1h-1v-1h-2l-1-1h-1v-1h-1v-1h-1v1-1h-1v1h-1v-1h-1v-2h-1 1v-1h-1 1v-4h-1v-1h-1 3v-1h6v-1l1 1v-1zm0 2zm1 1zm2 3v-1l1 1h-1zM148 222v3h1v3h2v3h2v1h4v1h-2v3h1v2h-2v2h-1v2h-1v-1 2l1 1h-1v2h-1 1l1 1v1h1v1h1-1v1h1l1 1v1h-1v1h1v1l1-1 1 1h1v1h1l2 2h2v2h1-1 1v1h1v2h1l-1 3v3h2v4h1v1-1 1h1v2h1-2v-1h-1l-1 1v-1 1l-1-1h-2l-1 1h-1v1l-1 1v2h-1v1l-1 1h-11v-1h-2v-1h-1l-1-1-1-1-1-1-1-1h-1l-1-1-1-1-1-1-1-1h-1v-1h-1v-1h-1v-1h-1l-1-1-1-1h-1l-1-1h-1l-1-1h-1v-1h-1l-1-1h-1l-1-1-3-1h-5l1-1v-1h-2v-5l-1-1v-2h1l1-1 1-1h2v-1h1l1-1h1v-1h1l1-1h1l1-1h1l1-1 1-2v-6h1v-2l-1-1v-3l1-1 2-1h1v-1l2-1v-1h1v-1h1l1-1v-1h1v1h1v-1h1v1h3l1 1v-1h2v2h2v-1h2z" class="st0"/>
    <path d="M148 203l1 1v1h1v1h1v1h1v1h3l1 1h1v-1h1v1h1v-1l1-1v-1h2v-1h1v-1h2v-1h1v-1h2v1l1 1h1v1h-2v1l1 1v1h-1v1l1 1v1h2v1h2v4l1 1v1h1v1h1l3 1h1-1 2v1h1v1l1 1 1 1h1l1 1h1l1 1h7l1-1h3l2-1h4-3v1h3v-2h-1 1-1v-2h3v-1h2v-2h1v-1h1v-1h1v-1h7v-1h2v-1l1 1h2v-1 1h1v2h3v1h2v1h6v1h1v1h1-1l1 1v1h2l1 1h1v1l1 1v1h6v5h-1 1v5h-1v2h1-1v2h-1v2h-1v1h1l-1 1h-1l-1 1 1 1v2h-1l1 1h2v1h-1v1l-1 1v3h1v3l1 1-1 1v3l1 1h1l1 1h3v2h1v2h-1l-1 1-1 1v1l-1 1-1 1-1 1v2h1v1h1v1h1v2h1v2l1 1h1v1h2v1h2v1h2l-1 1v1l1 1v3h-1 1v1h-1 4v1h-1v1h1v1h-1v1h-3v1h-2l-1 1h-1v1h-1v1l-1 1v3l-1 1v2h-2v-1h-3l-1-1v-1h-1v1h-5l-1-1h-1l-1 1h-1v-1h-1l-1-1h-2l-1 1-1-1h-1v-1h-3v-1h-1v-3h-1v-1h1v-1l-1-1v-1h-1v-1 1-1h-2v-1h-2v1h-1l-1 1h-2v1h-2v1h-1l-1 1h-2v-1l-1 1v-1h-2v-1h-1v1h-1l-1-1h-1v-1l-2-1h-1v-1h-1l-1-1v-1l-1-1h-2v-1h-4v-1h-1v-2h-1v-2h-1v-2h-1v-1h1v-1h-2v-3 1-1h-1v-1h-1v-1h-1v-2h-1v-1h-1l-2 2v-1h-2v-1h-1v-1h-1 2v-1h-2 1v1h-1v3h-1v-1 1h-2v-2h-1v-1 1-1h-1v-4h-2v-3l1-3h-1v-2h-1v-1h-1 1-1v-2h-2l-2-2h-1l-1-1h-2v-1h-1v-1h1v-1h-1v-1h-1v-1h1-1l-1-1v-1l-1-1h-1 1v-2h1l-1-1v-2 1h1v-2h1v-2h2v-2h-1v-3h2v-1h-4v-1h-2v-3h-2v-3h-1v-4h-1v-1h-1v-1h1-1v-1h1l-1-1h-1v-1l-1 1v-2h1v-2h1-1v-3h-1 1-1l1-1h-1v-3h-1v-1h1v-1l1 1v-2h1v-1h1l1 1zm60 97v1-1zm-3-1h-1 1zm-5-2h-1 2-1zm19 0v-1 1zm-1-1h1-1v1h-1v1h-1v-1 1h-2l-1 1h-1v-1h2v-1h2l-1-1h3zm2-1zm-38-15zm26 23zm8-5zm-14 0zm9 5v1-1zM185 311v-6 1-1h1-1v-1h1v-2h1l1-1v2h2v1h-1 1v1h-1v2h1v3h-1v2h-4v-1z" class="st0"/>
    <path d="M185 311v1h3v1-1h1v1h-1v1h2v2l1 1v1h1v1h1v1l1 1 1 1v1h3v1h7l1 1h6l1 1v1l1 1v1h1l-1 1v2l-1 1v3l-1 1v2l-1 1v2l-1 1h-1l-2 1h-2l-1 1h-2l-1 1h-1l-1 1h-2l-1 1h-2l-1 1h-4l-1 1h-6l-1 1h-6l-1 1h-1l-1 1h-1l-2 1-1 1v1l-1 1-1 1-1 1v1l-1 1-1 1h-2v-1h-1v-1h-9l-1-1h-6v1h-1v-1 1h-2v-1h-1l-1-1v1h-1v2h-1 1v1h-1l1 1v1h-1v1h-1v1h-1v-3h-1v-1h-1v-1 1-3h-1v-1h-1v-1h-1l-1-1v-1h-1v-1h-1 1-1v-2h-1v-2h-1v-1h1l-1-1v-1h-1v-2h-1v-1h-1v-1h-1v-1h-1v-1h-2v-1 1l-1-1h-1v-1l-1-1v-1 1-1h-1v-2h-1v-3 1-2h-1v-3 1-1h1v-3h-1v-1l-1-1 1 1v-1h-1v-2h-1v-2h-1 1-1v-2h-1v-1h-2v-1h-1 1-1l-1-1h-2v-1h1l-1-1-1-1v-1h1v-1h-1v-2h-1v-2h-1v-1h-1v-2h-1l-1-1v-2l-1-1h-1v-2h-1v-1h-1v-1h1-1v-1h-1v-2h-1v-1h-1v-2h-4v1-2h1-1 1v-4h1-1 1-1l1-1v-3h1l1 1h6v-1h1l1-1v-1h1v-1h1v-1h4v-1l1-1v-1h1l1-1-1-1-1-1v-1h-1l-1-1-1-1-1-1v-1h1l2-1h2l1-1h2l2-1h2v-1h6v1h3l1 1h1v1h2v1h1l1 1h1l1 1h1l1 1 1 1h1v1h1v1h1v1h1l1 1 1 1 1 1 1 1h1l1 1 1 1 1 1 1 1h1v1h2v1h13l1 1h2l1 1v2h6v1h-1 1v2h1v1h1v2-1l-1 1h1v1-1 1-1h1v1h2v1l-1-1h1-1v1h-1 2v2h1v-1 1l1 1h1v1h1v1h1-1v-1 2l1 1v2h-1v-1 2-1 1h1v2-1 1l1 1h1v3h1v2h1zm-53 53h-2v-1h-1v-1 1h1v1h1v-1l1 1zm-2-1v-1 1h1-1 1-1zm47-70h1v1-1h-1v1-1 1-1zm-77 13v1-1h-1 1zm-1 0h1v1h-1v-1h-1 1v1-1zm0 0v-1 1zm0 0h-1v-1 1h1zm0 0v-1 1zm-1-1v1l-1-1h1zm-1-1v-1 2-1 1-1zM506 396v-1l-1-1v-1l-1-1v1h-1 1-1l-1-1v-1h-1 1v1-1h-1v-1h-1 1-1 1-1v1-1h-1 1-1v-1h-2v1h-1v-1h-2v1h-1l1-1h-1v-2h1-1v-1h1l-1-1h1v-1h-3v-1 1h-3v9l-1 1v1h-1v2h-1v2-1 3-1h-1v2h-1v7l1 1h-1v1h2v-1h2v3l1 1v2h1v-1 1l1 2v1l1 3v1h-1v-2h-1 1v-1h-1v2h1v1l1 1v-1h1l1 2h4v1l1 1 1 1h1v1h1v1h-1v1l-1 1h-1v-1h-1l-1 1h-1v1h-1v-2l1-1h-1l1-1h-2v-1h-2v-1h-1v-1h-1v2h-1v-1 1-1h-1v-1l-1-1v-2 1h-1v-2 1-1 1h-1v-2h-1 1-1v-1h-1v-1h-1v-1h-1v-2l-1 1v-1h1-2v1h-1v-5h1v-1h-1 1v-2h1-1v-1h1v-1 1-3h1v-4h2v-2h1v-1h1v-2h1v-1h1-1v-2h-1v-1h1-1v-3h-1v-2h-1v-1h1v-3l-1-1v-1h-1v-1h-1v-1h-1l-1-1v-1l-1-1v-2h-1 1v-1h1v-1h1v-4l1-1v1l1-1v-2h-1v1h-1v-2h-1v-1h1-1 1v-1h-1l-1-1v-1h-1v-1h-1v-1l-1-1h-1l1-1v-2h-1v-1 1h-1v-2h-1 3v-2h-1v-1h1v-3h1l-1-1h2v-1h1v1-1h1v1-1h1v1-1h3v-2h3v-2h-1 4v1h1v-1h1v1h1v2h-1v2h1v1l1-1v1l1-1h3v1h-1v2h1v1l-1 1v2h-1v1h1v3h-1v2h-1 1v1h1v-1l1-1h1v-1h1l1-1h1v-1h1v1h2v1h1v1-1h1l1-1v1l1-1v-1h1v-1h3l1 1v-1h1v2h1v1l1 1v1h2v7h1v1h1v2h2v2h2v1h-1v2-1 1h-1v1h1v3l-1 1h-1v1h-1v1-1h-1v-1h-2v1h-1l-1-1-1 1v-1 1h-2v-1h-2v1-1 1h-3v2h-1v1h-1v1h-1 1l-1 1h-1v2l1 1v2h1v1l1 1-1 1v1h1v1l1 1v1zm-31 14h-1l1-1v1zm11-1zm0-1zm-3 19zm3 0v1-1h-1 1v-1 1zm-2-4zm-2-2v1-2zm0-1v1-1zm-3-2v1-1zm-1 1v1h-1v-3h1v2zm1-2v1-1zm-2-6v1-1zm11-3v2h-1v-1h1v-1zm-10-1v1-1zm10 0v1-1zm16-12v1h-1v-1h1zm-1-2v1l-1-1v1-2 1h1zm-28 16zm2 3v1-1z" class="st0"/>
    <path d="M167 275v1h1v1l1 1h-2l-1 1h1-1l1 1v-1h1v2l1 1v1h1v2h-5v-2l-1-1h-2l-1-1h-2l1-1v-1h1v-2l1-1v-1h1l1-1h2l1 1zm3 4h-1v-1l1 1zm0-2h-1v1-1h-1v-1h1v-1h-1 1l1 1v1zm-2-2zM638 524v2h-1v-1h-1 1v-1h1zm3-2h1v-1l1-1h3l1-1 1 1h1l1-1h1v1l1-1h1l1-1v1h2l-1 1-1 1h-2l-1 1-2 1h-1l-1 1v-1 1h-3v1h-2v1-2h-1 2v-1h-2v-1zm4-4v-1h1v1h-1zM581 437v1l1 1v2h-1v-1l-1-1v-1h1v-1zm-1 0v1h-1v4l-1 1-1-1v-1h-1v-1h-1v-1h-1 3v-1h1l1-1h1l1-1v1h-1zM442 329h1v-1 1h1v1-1h1-1 1v-1h1-1 1v-1l-1-1v-2h1v-2 1h1v-8 1h3v1h2v-2l1-1v-2h1v-1h1v-3h-1l1-1v-1h1v-1l1-1v-1h1v-1l-1-1h1-1v-2h1v-1h2v-1h1v-1h1v-1h1v-1h4v-1h1v1l1 1h1v-1l-1-1v-1h-1l1-1h1v-1h1v-1 1-1h1l-1-1v-1h1v-2h2v1h1v1h1v2h1l-1 1h1v2h1v-1h1v1-1l1 1v8l-1 1h1v1h-1v1h1v1h-2v1l-1 1v-1h-1v2h-1v1h-1v2h-1v2l-1 1h1l1 1h-1 1v1l-1 1v1h1v-1h1l1-1h3v1-1h2l-1 1v2l1 1h-1v1h1v2h4v1h-1v3l-1 1v2h4l1 1h-1v1h2v1h-1v1h2v-1 1h2v-1h1v-1h2v2h-1l-1 1h-1v2h-1v1h1-3v3h-5 1v2h-3v2h-3v1-1h-1v1-1h-1v1-1h-1v1h-2l1 1h-1v3h-1v1h1v2h-3 1v2h1v-1 1h1v2l-1 1h1l1 1v1h1v1h1v1l1 1h1v1h-1 1-1v1h1v2h1v-1h1v2l-1 1v-1l-1 1v4h-1v1h-1v1h-1 1v2l1 1v1l1 1h1v1h1v1h1v1l1 1v3h-1v1h1v2h1v3h1-1v1h1v2h1-1v1h-1v2h-1v1h-1v2h-2v4h-1v1-1h-1l1-1v-2h-1v-1h1v1-2h1v-5h1-1 1l-1-1h1l-1 1h-1l1-1h-1 1v-1h-1v-1h1-1l1-1h-1v-1h1-1 1v-1h-1 1-1v-4h-1v-2h-1v-3 4h-1v-1h1-1v-4h-1v-3 1h1-1v-1h-1v-7h-1v-4h1-2l-1-1v-2h-1 1-1v-1h1-1v-1h-1v-1h-1v1h1-1v1h1v1h-1v2h-1v1h-2v-2h-1v1h1v2h-2 1l-1 1h-2 1l-1 1v1h-1v1h-1v-3 2h-1 1v-1l-1 1v1-3 1h-1v2h-1v-2h1-1v-1h1-1v2h-1v-1h1v-1l-1 1v1h-1v-1h1v-3 2h-1l1-1h-1v2h-2v-2l1-1h-1 1v-3h1v-2h1-1v-2h1-1 1-1v-4h-1v-1 1-1 1-2h-1v-1h1-1v-1h-1v-4 2h-1 1v2h-1v-1h-1v-1h-1v-2l1 1h2v-1h-1v-1h-1 1v-1l-1 1v-1h-1l1-1h-1v-1 1h-1v-1h-2 1v2-2h-1v1h1v1l-1-1v-1h-1 1v-3 2h-1v1l-1-1 1-1v-1h-1v-1h-1 1v3-1h-1v-2h-1v-1l-1-1v-3h1v1h1v-5zm34 78zm1-4zm1-3zm-6-5zm2-6v-1h1v1h-1zm3 17v1h-1v-1h1zm0-1v1-1zm-2-2zm4-3v1l-1-1h1zm-4 0v1-1zm2 1v1-2h-1 1v1zm2-1h-1 1v-1 1zm-2-2zm0-3v2h-1 1v-2zm2 0v1h-1v-1h1zm-3 0v1-1l-1-1h1v1zm-3-1zm4 0zm0 0zm2 0h1-2v-1h1v1zm-3-2v1-1zm0-1v1h-1v-1h1-1 1zm3-1v1h-1v-1h1zm-2 0zm-3 0h1-1zm4 0v1h-1 1l-1-1h1-1v-1h1v1zm-1-3h1-1v1-2 1zm-2-5zm-28-2zm2-5zm24-4zm-17-2v1l-1-1h1zm-1-2v1h-1v1h-1v-1h1v-1h1zm18-1v1h-1v-2h1v1zm-24-16v1h-1v-1h1zm2-4v1h-2v-2 1h2zm-3-2h-1v-1h1v1zm-4-2l1 1v1-1l-1-1z" class="st0"/>
    <path d="M442 329v5h-1v-1h-1v4h1v1h-1v-2h-1v-2l-1-1h1l-1-1h1v-1 1h-1v-4 1l-1-1h1-1v-1h1-1v1-2l-1-1h-1v-2 1h-1 1-1v1h-1 1-1 1v1h-1v-1h-1 1l-1 1v-1h-1v-2l-1-1v-3h1-1 1-2 1v1h-2 1v1h1v1h-1v1h1-1v1-1 1h-1 1v2-1l1 1v2h-1v1-2 1l-1 1v2h-1v-1h-1 1v-1h1v-1h-1v1h-1v-1h1-1v2-2h-1v-1h1v-1 1h-1 1-1v3h1-2v1h-1v-1h1v-3 1h-1 1v1h-1v-2 2-1 3h-1v-1 2h-1v-3h-1v-1h1-1v-3h-1v-1h1-1v-2h1v-1h-2v-1h1v-1h-1v1-1h-1v-2h1v-2h1-1v-1h-2l-1-1h-1v-2h1v-1h1v-1h1v-1h3-1 1v-1h-1v-1h-2v-1h-1v-1h-2v-1h1v-2h1v-1h1v-1h-1v-1 1h2v2h2v-1h-1 2-1v1h1v1h1v1-1l1 1v-1h1v-1 1h1v5h1l1 1h13v1h1v1h1-2v2h-1v2h-1v1h-1v-1 1h-2v1h-1v2h-1v1h1v3h1v-1 1h1v1h1v-3h1v-2h2v2h1v5h1v4zm-4 2v2-2zm-17 0h-1v-1l1 1zm17-1v1h-1l1-1h-1 1zm-8-1v1h-1l1-1zm-2 1v-1h1l-1 1zm1-1h-1v1-1h1zm0 0v1-1zm1 0h-1l1-1v1-1 1h-1 1zm2-1v1-1zm0 0zm0 0v-1 1zm1-1v1h1-1v1h-1l1-1v-1zm-3 0v-1 1zm0 0v-1 1zm3-1h1-1zm2-1l1 1v1h-1v-2zm-4 1v3h-1v-5 1h1v1zm-1-2h-1v1-1h1zm0-1h-1 1v-1 1zm-1-1v1-1zm0-1v-1h1v1l-1-1v1zM331 223v1-1h-1l-1 1h-1v1h-1v-1h-6v1h-5v1l-1 1h-1v1l-1-1v1h-1v1h-1v1h-1v1h1v1h1v2h1v2h-1 1v1l-1 1v1h-1v1h-1v2h-1v1h1v2l-1 1h-7v1h1v1h1v2h1v1l-1 1h-1l-1 1v-1h-1v1h-1v1l-1 1 1 1h-1v1h-1v1h1l-1 1v1h1v1h-1v1h-1v1h-2v-1h-2 1-3v1h-1l-1 1h-1v1h1l-1 1h-3v-1h-1v1h-1l-1 1v1h-1l-1 2v6h-2l-1 1h-3v1h-7v1h-2l-2-1h-1l-1 1h-6v-1h-3v-1h-3v-1h-2v-1l1-1 1-1 1-1v-1l1-1 1-1h1v-2h-1v-2h-3l-1-1h-1l-1-1v-3l1-1-1-1v-3h-1v-3l1-1v-1h1v-1h-2l-1-1 1-1v-1l-1-1 1-1h1l1-1h-1v-1h1v-2h1v-2h1-1v-2h1v-2h1l1 1h3l1 1v1h1v-1h1v1h1v-1h1v-1h1l1-1h-1 1v-2h-1 3v-1h3v-1h2v-1h1l1-1v-2l1-2v-2h1l1-1h3v-2h2l1 1h1v1h1v-1h1v1h1v-1h2v1h1v1h1v-1h1v1-1h1v1l1 1 1 1v-1h1v-1h3v-1h2v1h3v-1h-1v-2h3v-1h1v1h1v-1h1v-1h-1v-1h1v-1h1v-2h1v-1h3v1h1v3h2v1h-1l1 1h-1v6l1 1v1h1l2-2h1v-1h2l1-1v-1h2v-1h4v1h-1 1v1-1 1-1h3v-1h3l1 1v1h-1v-1h-1v1h-1l1 1z" class="st0"/>
    <path d="M249 234v-3h-1 1v-5h-6v-1l-1-1v-1h-1l-1-1h-2v-1l-1-1h1-1v-1h-1v-1h-6v-1h-2v-1h-3v-2h-1v-1 1h-2l-1-1v1h-2v1h-7v1h-1v1h-1v1h-1v2h-2v1h-3v-2l-1-1v-3l1-1v-2h-1v-1l1-1v-3h-1v-1h-1 1v1h-1v-2h-3 1-1v1-2l1-1v-1 2l1-1v1h2v-1h-1v-1 1l-1-1v1-2h1v-1h-4v1l1 1-1-1v1h1-1v-2h-1v-2h-1l1-1v-3h1-1 1v-1h-1 1v-2 1h1v2l1-1v1-1h1v1h1v-1 1h1v1h1v-1h3-1v-2h1v1h2v-2h-1v-1l-1-1h-1v-1h-1v-3h-1v-2l-1-1-2 1h-2l-1 1-1 1v1h1v1l-1 1v2l1 1h-1v-3h-1v-2h-1v-1l1-1h1l1-2h2l1-1h6l1 1v1h1l1 1v1l1 1 1 1v1l1 1h1v1h1v-1h7l1 1v-1h1l-1-1v-4h1v-1l1-1h3v-1h1v-2h1v1h2v1l-1-1v-1h-1v-1h3v-1l1 2h2l1 1v1h4v1h1-1v2h1v1h1-1v3l1 1h1v1h6v-1h1l1 1 1 1 1 1v2l1 1v1h1v3l1 1v1h1l1 1h1l2 2h1v1l1 1 1 1h1l1 1h1l1 1 1 1h2v1h1l1 1v1h1l1 1h1v-1h1v1h2v1h2v3l-1 1h1v1h-1 1l-1 1h-1v-1h-1l-1-1h-2v2h-3l-1 1h-1v2l-1 2v2l-1 1h-1v1h-2v1h-3v1h-3 1v2h-1 1l-1 1-1 1h-1v1h-1v-1h-1v1h-1v-1l-1-1h-3l-1-1h-1zm-50-27v3-3zm2-4h1v1h-1v-1zM92 255h1v1h1v1h1l1 1h3l1-1h1v-1h1l1-1 1-1h2v-1h1l1-1 1-1 2-1v2l1 1v5h2v1l-1 1h-1v1h-2l-2 1h-2l-1 1h-2l-2 1h-1v1l1 1 1 1 1 1h1v1l1 1 1 1-1 1h-1v1l-1 1v1h-4v1h-1v1h-1v1l-1 1h-1v1h-6l-1-1h-1v-2h1v-5h1-1v-1l1-1v-2h1v-5h1v-7 1-1l1-1zM415 290v1l-1 1v4h1v3h-1v1h-1v-1 1-1 1-1h-1v1h-4v-1h-1v1h-1v-1 1l-1-1h-2v-1 1-1h-2v1h-1v-2h-4l-1-1h-1l-1-1v-2h-3v-1l-1 1h-1 1-2l-1-1h-1v1h-2l-1-1h-1v-1h-2v-1h-2v-1l-1 1-1-1h-1v-1h-2 1v-1h-1v-1h-2v-1h-1v-1h-1v1l-1-1h-1v-1h-1v-2h1v-3h1v-2h1v-1h1v-1h1v-1h1v2h1v-1h1v-2h4l1 1h-1 1v1h1v1h1l1 1 1 1h1v1h1v-1 1h1v1h1v2h1v-1h3v1l1 1v1h1v1h1v1h2l1-1v3h4v-1 2h1v2h1v-2h1v1h2v-1h1v1h2v1h5v-1l1 1v-1 1h1zM192 349l1 1v2l1 1v1l1 1v2l1 1v1l1 1v1l1 1 1 1v1h-1v1h-3v1h-1v2h-1v1h1v2h-3v1h-1l-1 1h-1l-2 1h-3v1h-2v1h-4v1h-2v1h-1v1h-1v1h-1v1h-6v1h-1l-1 1h-2l-1 1h-2v1h-2v-1l-1 1h-3l-1 1v1h-2v1h-1v1-1h-1v1h1-2v-1h-1v1h-2v1-1l-1 1h-1v-1h-2v-1h-1v-2h-1v-2h1v-1h-1 1-1v-2h-1v-5h-1v-1 1-3h-2 1v-1 1h1-1 1v-1h-1v-3h1v-3h-1 1v-1h1v-1h1v-1l-1-1h1v-1h-1 1v-2h1v-1l1 1h1v1h2v-1 1h1v-1h6l1 1h9v1h1v1h2l1-1 1-1v-1l1-1 1-1 1-1v-1l1-1 2-1h1l1-1h1l1-1h6l1-1h6l1-1h3zm8 44zm-1-1v1l-1-1h1zm-5 0h1-1 1v1l-1-1v1-1h-1 1zm-55-3h1-1zm68 1h1-1v1h-3l-1 1h-1v-1h-1l-1-1h1v-1h2v1h1v-1h2v1h1zm-72-7v-1h1-1v1zm0-3l1 1h-1v-1zm0-8h-1v1-1h1zM575 326h1-1v1-1h1v1-1 1-1 2-1h-3 1-1 1v-1h1zm0 2zm0-1v1-1 1h1-1v-1zm-2 1v-1h1v1h-1zM81 238h-3v-1h-3v1h-1v-1h-1 2v-2 1h4l1-1h2v-1h2l1-1v1h-1l-2 1v1h-1v2zm-8-1z" class="st0"/>
    <path d="M81 238zm-2 0h1-1 1v1-1h-2v1-2h-1v1-1h-2v1h-1v-1h-1 1v1h1v-1h3v1h1zm-6-1zM346 238v-2l-1-2h3v1h3l-2 1-3 2zM262 153h-2v-1h-1v-5h1v-1h4l1 1v1h1v3h-1v1l-1 1h-2zM75 241v1-1h-1 1zM616 433h1v1h-1v-1zm7-3v1h-1v-1h1zm24-5h-1v-2 1h1v1zm-18-3v1h-1v-1h1zm-10-14l-1 1v-1h1zm29 0v1-1h-1 1-1 1-1l1-1v1zm3 15h1-1v2h-1v-1 2-1h-1v4-1l-1-1 1-1h-1v-2h-1v-2l-1 1v1h-1v1h-1v2h1v1h1v3h-1v1l-1 1v-1h-1v-2l-1 1h-3v-1h-1l-1-1-1-1v-2h-1v-1l1-1v-1h1v-1h-1v-1l-1-1h-1v-1h-2v1h1-1v2h-1v-1 1l-1-1h1l-1-1v1h-1 1l-1 1v-1 1h-1v-2h-2v1l-1 1h1-1v2l-1 1h-1v-2h1v-1h-1 1v-3h1v-1h2v-1h1v1l1-1h1-1v-1h1v-1h2v-1h1v1-1h1v1h1v2l-1 1v1-1h1v-1h2v-2h1v-1l1 1h1v1-4h1l1 1h1v-1h2v-3h-1v-1l1-1v1h1v1h2-1v1h1v1h1v-1 2h1v2h-1 1-1v1h1v2h1v2h-1 1v2h1v1h-1 1-1v1zm-7-17h-1v-1 1h1zm-6-4h-1 1v-1 1zm0-1l1 1h-1v-1zm9 0v1h-1v-1h1zm-38-2v1l-1-1h1zm0-1v1h-1v-1h1zm30-2v1h-1v-2h1v1zm2 0h-1v-1 1h1zm-16-43v1l-1 1v4h1v1h1v1h1-1v3h-1v2h-1 1v1h-1v1h-1v-1h1-2v1h-1v3h-1v1h-1v1h1v1l1 1v1h1-1v2l1 1v1l1 1h2-1 1v-1h-1 1v-1 1-1h3-1 2v1h1v3h1v-2h1-1v-1 1-1h1-1 1v1h1v1h1v-1 1h1v1h-2v1h1v1l1 1h-1v1l1-1v1h2-1v3h-1v-2h-1 2v-1h-1v1h-2v-1h-2v-2l-1-1h-1v-1h-1 1l-1-1h-1v-1h-1v2h1v2h1v1h-2v-2h-1v-1h-1v-1h-2v-1h-1v1h-1v1h-3v-1 1h-1l1-1-1-1h-1v1-2h-1 1v-1h1v-1h1v-2h-2v-1 1-1l-1 1 1 1h-1 1v1h-2v-2h-1 1-1 1-1v-1 1h-1 1-1v-4h-1 1v-1h-1v-3 1h-1v-1l1-1h-1l1-1h1l-1 1h2v1h1v-5l1-1v-1h-1v-1h1v-1h-1v-2h1-1 1v-3l1-1h-1v-1h2v-1 1h1v-1h1v1h2v1h1l1 1h1l1-1v-1h1v1zm-12 82l-1 1v-1 1h-2 1v-1h2zm2-7v1h-1v-1h1zm10-1l-1 1h-1v-1h-1l1-1h1l1 1zm-23-3v1h-1v-1h1zm-9-6v2l-1-1v-1h1zm0 0h-1 1v-1 1zm1-1h-1 1zm0-1h1v1h-1v-1zm0 0v1-1zm46-5h1v1h-1v-1zm-6 0h-1v1-1h-1 1v-1h1v1zm15-4h-1v-1h1v1zm-10 0v1-1l-1 1h-4v-1h1v-1h1v-1h3v2zm7-1v1-1h-1 1l-1-1v1-2h1v-1 3zm-35-4v1h-1v-1 1h-1l1-1h1zm17-1v2h-2 1v-2h1zm5 0v1l-1 1v1l-1 1v1l-1 1v1h1l-1 1v-1 1h1v2l-1 1h-1v-2h-2v-1h-1v-3h2v-1 1l1-1v-2h-1 1v-3h4v1zm3 0v3h-2v1h-1v3l-1 1v1h-1v-1l1-2v-2h1v-1l1-1v-1l1-1v-3h1v3zm-2-2v-1 1zm-25 3v1h-1v1h-1l-1 1v1h-3v2-1 2h-1v1h-1v1h-2v2h-1v1h-2v1h-1l-1 1v-2h1v-1h1v-1h1v-1h1v-1 1l1-1v1-1h1v-1h1v-1l1-1v-1h1v-1 1h1v-1l1-1h-1 1v-1h2-1v-1 1l1-1v-1h-1v-1h1-1 1v1h1-1v-3h1v-1 4h1-1 1l-1 1h1zm1-6v1h-1 1v-1zm33 8v1h-1v-1 2-1h-2v-3h1v-1h-1v-1h-2v-3l-1-1h1v1h1v1h1v-1h2v5h1v2-1 1zm-13-7h1-1v2h-1v1-1 1h-1v1h-1v1h-3v1h-1v-3h1v-5h-2 1v-1h1v1h2v1h1v1-1h2v1l1-1v1zm-19-3v2-1h-1v-1h1zm2-1v1h-1v-1 1-1h-1l-1-1v-1h1v1h1v1-1h1v1zm15-2h-1v1-1h-1v-1h1v1h1zm18 8h1l-1 1v-1h-3v-1h-1v-1h-1v-1h1v-1h-1v-1h-1 1-1 1-1v-1h-1l-1-1v-1l-1-1h6l1 1v1-1 1h1v2h-1 1v3h1v1h-1v1l1-1v1zm-10-4h-1v-1h-1v-1h-1 1-1v-1h-1v1h-1v1h-1v-1h1v-3h1l-1 1h1v-1 1h2v1h1v1h1v1-1 2zm-11-5zm-1-1v3h-1v1-3h1v-1zm10 2l-1-1v-1l1 1v1zm-3-3l1 1-1-1h-1v-1h-1v-1h1v2h1zm-11 1v2h-1 1-1 1v1h-1v-1 1h-1v-1 1-1 1-1h-1v-2h-1v-2h-1v-1h-1v-2 1h-1v-1h4v1h1v-1 1h1v1h2l-1 1v2zm4-4v1h-1v-1h-1v-1h2v1zm-11-2h-1v-1h-1 2v1zm25-1v2l-1-1v1h-1v-4h1v1h1v1zm-14-2v1l-1-1v-1 1h1zm1-4h-1 1-1 1zm-2-2v1h1-1v2-2h-1v-1h1zm-3-24h-1 1zm3-1v1h-1 1l-1-1h1-1 1zm-5-1h1v1h-1v-1zm2-1h-1v-1h1v1zm3-2v1-1zm-1-5h1v1h-1v-1zm1-1v1-1zm0-2l-1 1v-1h1zm-15 101v1-1l-1-1h1v1zm10-6h1-1zm1-1h1-1v1-1h-3 1v-1h1v1h1v-1 1zm2-4v-1 1zm-3-27v1h-1v-1h1zm-5-6v1-1h-1 1zm7-1h-1 1zm-9 20zm0 0zm0 0zm0 0zm11-25h-1v-1l1 1zm-4-4h-1 1zm5-49v1-1zm0 0zm-13 103zm0 0v-1 1zm0-2v1h-1v-1h1zm34-2v1-1 1-1zm-28-2v1-1zm1 0h-1 1zm18-24l-1 1v-1h1zm4-3v1-1zm-19-11v1-1zm17-1h-1 1zm-19-1h-1 1zm19-1h-1 1zm0-5h-1 1zm-1 0h-1v-1h1v1-1 1zm-1-1v1-1zm-1 0h1-1zm-8-9v1h-1v-1h1zm-15-9v-1h-1 1v1zM376 424v3l-1 1h-1l-1 1-1 1h-2l-1 1h-3v-1h-1v-2h-1v-4l-1-1h1v1-1l-1-2v-4 1-2 2h1-1l1-1h-1 1v-5h1v-3h1-1v-1 1h3-1l-1-1h-2v-1h2v1h1v1-1l-1-1h-1 1l1 1 1 1 1 1h1-1l1 1v-1 2h1-1v1l1-1v1h1v2-1 1h1v2l1 1h-1v-1 1h1v1h1v1h-1 1v1h1-1 1v3zm-1-4h1v2-1l-1-1zm-12-8v-1 1h1-1zm0-3zm1-1v-1 1zM623 310h-1v2h1-1v2h-1v3l-1 1v4h-1v1l-1 1v1h-1v2h-1v3h-1v-3h-1v-1h-1v-1h-1 1-1v-3 1-1h-1 1-1 1-1v-1h1v-1 1-4h1v-2h1v-2h1v-1h1v-1h1v-2h1l1-1h1v-1h1v1h1l1 1v1zm-2 19h-1 1zm-20-16v-1 1h1-2 1zm8 6h-1 1zm-1 0v-1 1zm0 0v-1 1zm12 6zm-9-5v-1h1-1v1zM671 262v1h-1 1v-1zm12-5v1h-1v3h-1v1h1l-1 1h1-1v2h-1v-1h-1v2h1-1v1h-2v1-4h-1v-1h1v1-1h1-1v-1 1h-1v3h1-1v1-1h-2v-1h-1 1v-1h1v-1h-1v-4 1h1v-2h1v-2h1-2 1v-2h-1v-2h-2v1h1v1h-1 2v2h-2v-1 1-1h1-2v1h-1v-1 1-1h1-1v-1h-1v-1l1-1v2h2-1v-1h-1v-1h-1 1-1v-2 1l1-1v1h1v-1h-1 1v-1 1h1v-1h1-1 1v-1 1h1v-1h-1 1v-1h2v-1h1v1-1h1v1h-1 1v2h3v-1h1v2h-1v1h2v2h1-1 1v2h-1v1-1 1h-1v1zm18-10h1-1v1h-1l-1 1h1-1v1h-1v1l-1-1h-1v-1h-1v1h-2v1-1 2h-1v1h-1v2h-2v-1h-1v-1h-1 1v-1h-1 1v-1h-1v-1 1-1h-1v1l-1-1h1l-1 1v-1h2v-1h1l1-1v-1h1v-2h1-1 1v1h4v-2h-1 2v-1h3v1h2v3h1-1zm-9-17v1-1zm0 0zm-1 0h1-1v1-1zm3 13h-2v1h-1v-1h1v1-1h-1l-1 1h-2v-1h-1l-1 1v3h-1 1-1v-1h-2 1l-1-1v1-1 1h-4v-1 1h-1v-3h1-1 3v-1h1-1 1v-1h2v-1h1v-1h1v-1h1v-1h1v-1h1v-1h1-1 2v-1h2v1h1v-1h1l1 1h1v-1 1l1-1h2v-1h2v1-1h1v1-1h2v1h-1 1v1-1 1h1-1v-1h1v1h1v-1 1h1v-1h1-1 1v-1h1v-1h-1v-1l1-1v-1h1v-1h1l1-2 1-1v-5h2v-1h2v1h-1v1h-1v1h-1v-1 2h1v-1 3h2v-1h1v-1h2l1-1h1l1-1h1v-1h1v-1l1-1v-1l1-1h1v-1h1v-1h1v-2l1-1v-1l1-1v-3h1v-5h-2v-1h2v-5h-1 1v-1h1v-1h1v-2 1-1h1-1v-2 1h2v3h1v-1h2v1-1h1v-2l-1-1v1h-2v1-3h1v-1 1h1v1h2v-1 7h1v1h1v2h1v1h-1 1v4h1v1h-1 1-1v2h-1l1 1h-1 1-1 1-1v1h-1 1-1v1h-1l1 1h-1l1 1h-1 1v1h-1 1v1-1h-1v1h1-1l-1-1v1h-1l-1 1v4l1 2v1h-1v3h-1v1l-1 1v5l1 1v1h1-2v1h-1v3h-1v1h-1v-1 1h-1v1h-1v-1 1-3h1v-1l1-1h-1v-1 1h-1v-1 2h-1v1l1 1h-1l-1-1h-2v2h-1 1-1l1 1v1h-1v1h-2v-1h1-1v-1h1-1l1-1v-1h-1v1h-1v1h-1v1h-1v1h-7v1-1h1v-1 1h1v-1h-3v-1h1-1v2-3h-1v1h-1 1-1v3h2v2h-1 1-1v-1l-1 1h1-2l-1 1v1h-1v2h-1v1h-1v1h-1l-1-1v-1h-1 1-1v-1h-1v-4h1v-1h1v-1h-3l-1-1h-3v1-1h-1v1h1-1v1l-1-1v1-1 2l-1-1v1-1h-2v1-1 1zm64-78h1l-1 1v-1zm12 7h-1v1h-1v1h-2v1h-3v1h1-3v-1h-1l-1 1h-1l-1 1v1h-1l-1 2v3h-1v1l-1-1h-1l-1-1-1-1h-1l-1-1h-1l-1-1h-1v-1h-1l-1 1-1 1h-1l-1 1v-1l-1-1h-3v3h1v1h1v-1h1v1l1 1h1v1h1-1v1h-1v-1h-1v1h-1v-1h1-1v1h-1v1l-1 1h-2v-2l1-1v-2h-1v-1h-1v-4h1l1-1h1v-1h1v-2h-1v-2h1l1 1h1v1l1-1v1h2v-1h1v-2h-1 1v-1l-1-1 1-1h1v-4l1-1v-5l-1-1v-3h1v1-1h2v1h1l2 3v1h1v1l1 1v1h1l1 1h1v1l1 1h1v1h3-1l1 1v-1h1v1h3l1-1 1-1v-1h1v2l-1 1v1h-1v1h1v2h1v2-1 1h1l1-1h1zM634 313h1v1h-1v-1zm-5 0h1-1zm9-1h-1v2h-1v-1h1v-1h1zm104-1h1-1zm-98 0h1-2v-1h1v1zm36-8v1-1zm-27-3h-1 1zm95-2h-1 1zm-86-1v1h-1v1h-2v1h1-1v2h-1v-1h1v-2h1v-1h-1 2v-1h1v-1 1zm86-2zm-83-2h-2 2zm1-3h1l-1 1v-2 1zm2-2h1-1l-1-1h1v1zm5-2v1h-1v-1h1zm-2 0h-1v1h-1v1h-1v-1h-1 1v-1h2v-1 1l1-1h-1 1v1zm0-9v1-1zm1-1zm5-4v1h-2v-1h1v-1 1h1zm2-3v2h-1 1l-1 1h1-1v-2h1v-1zm-6-10h1v1h-1v-1zm2-2v1-1l-1 1v-1h1zm-1 0v1h-1v1h-1l1-1h-1 1-1l1-1v-1l1 1zm-8-1h-2v-1h1l1 1zm67-4v1-1zm-66 1h1-1v2-1h-1v-1h1v-1 1zm3-3v1h-1v1h-1 1v-1l1-1zm16-3l1 1h-1v-1zm-15 1h-1 1l-1-1h1v1zm15-1v-1h1v1-1h1v1h-2zm45-2h1-1v1-1zm-43 0zm3-1zm-23 0h1-1v1h-1v-1h1v-1 1-1 1zm62-1zm-27-2h1v1h-1v2h-2v-1h1v-1h1v-1zm-34 0v3h-1v-1h1-1v-1 1-2h1zm62-1v1h-1v-1h1zm-40-9h1-1zm2-2v1l-1-1 1-1v1zm32-14v1l-1 1h-1 1v-1h-1v-1l1-1 1-1v2zm6-34v2-1h-1 1v-1zm36-11v1-1h-1 1zm-5-3zm-20-10h-1v-1h1v1zm-1-3v2h-1 1l-1-1v-1h1zm-2 140h1-1zm-80 3v1-1zm1-2v1-1zm14-24v1-1 1-1h-1 1zm25-29v1-1 1-1h-1 1zm44 73zm-1-9zm-62-3h1-1zm-25-5h1v1h-1v-1zm8-3v1-1zm85 0v-1 1zm0-3v-1 1zm-1-1zm-85-1zm8-11v-1 1zm0-4v1-1zm2 0zm64-4zm-67-2zm3 0zm62-5zm0 0zm-1-7zm-3-9zm2-1zm-2-60v1-1zm-87 123v1-1zm13-9zm91-10zm-75-30v1-1 1h-1v-1h1v1-1zm2-3v1-1zm1-2v1-1zm13-1zm-22 0h-1v-1h1v1-1 1zm0-1v1-1zm1 0h-1 1zm0-3zm3-1h-1 1v-1 1zm19-4h-1 1zm3-1h-1v-1 1h1zm-3-1h1v1h-1v-1zm2 0h-1 1zm-4 0zm8-1zm10 0v-1 1zm-8-1h1-1zm18 0zm0 0zm-1-3h1v1h-1v-1zm2-17h-1v1-1h1zm-83 82zm0 0zm1-1zM468 542l1 1h-1v-1 1-1zm1 1v-1 1zm54-11h-1 1zM512 459v1h-1v-1h-1 2zM183 301h1v3h-1v-3h1-1zM582 404zm-6 4zm-2-2zm2-1zm1-1zm-1 0zm1 0v-1 1zm8-3zm0 0zm-9-2zm4 0zm-4 8zM571 328v1-1zm0 0zM597 374z" class="st0"/>
  </g>
</svg>
