<svg xmlns="http://www.w3.org/2000/svg" version="1.0" viewBox="0 0 468 199">
  <defs/>
  <g fill="currentColor">
    <path d="M233 65l-2 1c0-1 0 0 0 0h-1c0-1 0-1 0 0h-1-1-3l-3 1h-1v1h-3-1l-2-1-1 1c0 2-1 2-2 3l-2 1v1l-1 2v2h-1l-1 1-1 1-1 1-1 1-1 2-1 2-1 1-1 1v2 1c0-1 0 0 0 0l1 1-1 1v4l-1 2v1l1 1-1 1 1 1v1l1 1v-1l1 1 1 1 1 2v2s1 0 0 0h1l3 3c3 2 3 2 5 1h6l3-1v-1h5l1 2h1l1 1h1l1-1 1 1v1h1l-1 3v3 2l1 1a11 11 0 013 5v1l1 2v3l1 2-1 1-1 3-1 2v4h1l1 4 1 1 1 2v4l2 4 1 2 1 2v4h1l1 1h2l1-1h5l4-3 1-1 1-2 2-2 1-2v-2c-1 1 0 0 0 0l2-1 1-1v-1-1-2s0-1 0 0v-1-1l2-2v-1l2-2h2l2-3v-1l-1-3v-3l-1-1v-2l1-1h-1v-1l-1-1 1-2 1-3h1l1-2 5-5a17 17 0 005-6 10 10 0 011-3v-1l1-1v-1-1-1h-1-2-1v1h-6v-1h-1 1l-1-2-1-1v-1l-1-1h-1v-1h-1v-1l-2-3-1-3v-1l-1-1-1-1v-2h-1v-2a33 33 0 00-2-2v-1-1l-1-1-1-1v-2-1h-4v1l-1-1h-4v-1h-1l-2-1h-1-2l-1 2c1 1 0 1-1 1l-3-1-1-1-1-1h-1-1l-2-1-1-1h-1l1-1h0v-1-1-1s0-1 0 0h-1v-1h-1zm32 55v2l-1 1c1 1 1 1 0 0h-1c-1 1-1 0-1-1l1-2h2zm-6 7h1v2 1l1 1v1h-1v-1-1l-1-1v-1a39 39 0 010-2v1zm6 8l1 1v5c0-1 0 0 0 0v-1l-1-2v-3-1 1zM284 138v1h-1v2h-1v1c0-1 0 0 0 0l-2 1-1 1h-1v1 3l-1 2v1l-1 3 1 1v1l1 1h2l1-1v-1l1-1v-2l1-1 1-2 1-3v-1-2l1 1v-1-1-1-1l-1-2h-1z"/>
  </g>
  <g fill="currentColor">
    <path d="M301 8h-1v1c0 1 0 1 0 0h2l1 1h5l-1-1h-2l-1-1h-3zM312 11l-1 1v1h-1-1-4-1l-2 1h-1v1h-1c0-1 0-1 0 0h0c-1 0-1 0 0 0l-2 1h-2 1l1 1h1l1 1h-1l-4-1c-1 0-1 0 0 0l-1 1h1v1l-1-1-1-1-1-1v1h1l-1 1 1 1v1l1 1h2l-1 1 1 1-1 1-1 1-1-1h1v-1-1l-1-1v-1l-1-1h-1v-1-1h-2v-1h-1l-1 1v1 2l1 1 1 1h-2l1 1-4 2-1 1 1 2 1 6 1 2v2l-1 1c-1 0-1 0 0 0l1 2h3v2l1 1 1 1v1h-1-1-1c0-1 0-1 0 0l-2-1h-4-1-1l-1 1 1 2 1 2v1h2l1 1v2h-2l-1 1 1 1v1h2v2l1 1 1 2v1l1 1v1l-1 1-3-1h-1l-1-1v-1-1l1-1-6-3-1-1h-3l-1-1h-1l-1-1-1 1h1l1 1 1 1c1 1 0 2-2 2h-2l-1-1h-2l-2-1-3 1-1 1h-1l-2 1h-2v1h1v1c0 1 0 1 0 0v1h1v2c1 0 1 0 0 0h1l1 1h1l1-1 2 1h2l2-1c0 1 0 1 0 0h1l-1 1c1 0 1 0 0 0v1l1 1-1 4-2 1h-1v1l1 2v1l1 1h2v1l1 1 1 1v1l1 1v1h1v2c1 0 1 0 0 0l1 1v1l1 1 1 1v1l1 1 1 1v1l1 1-1-1s-1 0 0 0h-1l1 1 1 1v1l1 2 1 2v-1h2l1-1h2l1-1 2-1 2-1 1-1 2-1 1-1h1l1-1 1-1v-1l1-1c0 1 0 1 0 0 0 0 0-1 0 0v-1l1-2-1-1-1-1c-2 0-2-1-2-3h-1l-3 2v1l-1-1-1 1v-1h-1v-2h-1v1-1-1l-1-1h-1v-1l-1-2h-1l1-1h2l1 1v1l2 1 1 1v1h3l1-1h1v1c0 1 1 2 3 2h10v1l1 1 1 1 2 1c0-1 0-1 0 0h-1l2 3c1 0 3-1 2-2v-1 1h1v3a73 73 0 012 6 70 70 0 014 9l1 2 1-1h2l-1-1v-1h1v-3-3l1-2 1-1 1-1 2-3 2-1 1-1v-1l1-1h3l1-1h1v1l1 2 1 1h1v1c-1 0-1 0 0 0 0 1 0 1 0 0l1 1v4h2l1-1v-1l2 3v2l1 1s0 1 0 0v2h-1 1v6h1l1 1v1h1v3l1 1v1l2 1 1 1h1v1h1l-1-1v-1-1l-1-2v-1l-2-2v-1h-1l-1-1v-2l-1-1h-1l1-3v-2l1-1v1l1 1h1l1 1v1l1 1v-1 1h2v2l1-1 1-1 2-1 1-1v-1s0-1 0 0v-1-1l-1-1v-1-1l-1-1a10 10 0 01-3-3l-1-1v-1l1-1 1-1 2-1v1h1l1 1v-1h1v-1h2v-1h1s0 1 0 0h2l1-1 1-1 1-1v-1h1l1-1h-1v-1h1v-1-1h1l-1-2h1v-1-1l-1 1h-1l1-1v-1h-1v-1 1l1-1-2-1-3-3v-1-1h1c-1 0 0 0 0 0l1-1-1-1h-1-1-1l-1-1-1-1 1-1 1-1 1-1 1 1v2c-1 0-1 0 0 0h1l1-1h2v1l1 1 1 1h1v1l1 2v1l1 1 1-1h1l1-1-2-3-1-1-1-1-1-1v-1h1v-2-1h1v-1h2l2-1 1-3v-2-1-2l-1-1-1-3 2 2v1l1 1 1 1 1 1v1h1v2h1v-1h1c0 1 0 1 0 0l-1-1-1-1-1-1v-1h1l1 1v-1l-2-1a66 66 0 00-4-4l-1-1-2-1h1v1l1 2-1-1-1-1-2-1h-2v1l-1-1v-1h-2 2v1h-1l-1-1-1-1 1-1 1-2v-1l1-1h6v-1l2 1c1 0 1 0 0 0l1 1 2-1h0v-2-1h3l1 1h1l1-1s1 0 0 0v-1h-1 1l1 1v3s-1 0 0 0l-1 2h-1l1 1 3 4 1 1a36 36 0 003 2l1 1v1-1-2h1l-1-1v-1h1v-1h-1v-2l-1-1-1-1h-1l-1-1v-2h6v-1l1-1 1-1h3v-1h-1l-3-2v-2h-1 1l2 1h2l2 1h3l-1-1h1l-1-1c0 1 0 1 0 0l-5-1-2-1a99 99 0 00-19-3h1v1h2l-1 1-1-1h-1-1v-1h1-2l-1 1h-4l-2-1-2-1h-7l-2-1h-1l-4-1v1l-4-1h-3v1h2-1-1-3-1-1l-1 1-2-1-1-1h-1l-3-1h-1-2-3-1-4l-2-1h-2l-1 1c1 0 1 0 0 0h-1 1l1-1 1-1-1-1h-1l-3-1h-2c0 1 0 1 0 0h-1-1l-3-1zm13 4v1l-1-1h1zm-27 7c1 0 0 0 0 0h-1 1zm106 2s-1 0 0 0zm-3 3h-1 1zm-59 12v4h-1v1l-1 1h-1v-1h1v-1h1v-1-3h1zm-33 13l-1 1c0 1 0 1 0 0v-1h1zm1 0zm2 0c1 0 1 0 0 0 0 0-1 0 0 0zm1 0zm-20 0zm-1 1c-1 0-1 0 0 0v1h1v1h-1l-1-1v-1h1zm-1 1s0 1 0 0v-1 1zm0 1l-1-1h1v1zm-5 4l1 1h-1l-1-1h1zm-21 19v0zm65 13zm-55 5zm80 8zm3 2c1 0 1 0 0 0v-1 1z"/>
    <path d="M349 15l1 1c0-1 0 0 0 0h3l-2-1h-1-1zM387 54h-1l2 2s0 1 0 0l-1 1v1l1 1h1v-1h-1 3s1 0 0 0l1 1v-2h1v-1c0 1 0 0 0 0v-1h-1-2l-2-1-1-1v1zM389 59v3h1v2l-1 1v1h-1v0l-1 1v1h-3l-2 1v1l-1 1v1h1v1l1 1 1 1v-1-1-2l1 1h1v-1h1v-1l2 1v-1-1h2v-1 1h2v-1-1-1-1h-1v-1h1l-1-1-1-2-1-2h-1zm1 1h-1 1zm-3 9l-1 1v-1h1zm-1 1h-1 1zm-2 0zm1 0l-1 1h-1v-1h2zM264 68h-2v1h1l1-1c-1 0 0 0 0 0zM375 93v4l1 2v-1 2h0c-1 0 0 0 0 0l1 1 1 1-1-2h1c0 1 0 1 0 0l1 1v-1l1 1v0h-1 1v1s0 1 0 0v1l1-1v-1-1h-1 1v-1h-1-1-1v-1c0 1 0 0 0 0l-1-1h1v-2-2h-1-1-1zM381 102h1v1l-1 1h1v1l1 1v1h-1v-1 2h-1l-1-1v1h-1v2l1-1s0 1 0 0h1v1l1 1h1v1h1v-2 1l1-1v-1l-1-3v-1h-1v-1c-1 0-1 0 0 0h1l-1-1v-1l-1-1-1 1z"/>
    <path d="M378 103v1l1 1c0-1 0-1 0 0 1 0 1 0 0 0v1h1v0h2v-1l-1-1v-1l-1 1v-1h-2zm3 1zm0 1h-1 1zm0 0c0 1 0 0 0 0zm-1 1v-1 1zM375 104v1l-1 1-1 1v1l1-1 1-1 1-1v-1h-1l1-1h-1v1zM324 106h1l-1 1v1l1 3h1l1-1-1-3-1-1h-1zM372 109v2h-1v1h-1v1h-1l-1 2-2 1h-1v1l-1 1v-1h-1l-1 1v2l1 2h1v2h1l1 1h3v1h1l1-1v1h1v-1-1-1l1-1 1-1v-1c-1-1 0-1 1-1v-1l-1-1v-1-1-1c-1 0 0 0 0 0l1-1c-1 0-1 0 0 0l1-1h-1l-1-1h-1v-1l-1-1z"/>
    <path d="M344 112l3 3 1 1v1l1 1 1 2 2 3 1 2 1 1 1 1 2 2h1l-1 1c0-1 0 0 0 0h1l1 1h2l3 1h3l1 1h1v-1l1 1h10l1-1h-1l-1 1-2-1h-1v1l-1-1h-1-2-1v1-1h-1-1l-1-1h-1l2-1h-2-2-3l-1-1h-1-1-1v-1-2l1-1 1-1c-1 0-1 0 0 0h-1v-1h-1c-1 0-1 0 0 0h-1v-1l-1-1h-1v-2l-1-1h-1v-1h-1l-1-1-1-1-1-1h-1v-1l-1-1h-2-1zm30 21h-1v-1l1 1zM315 114v2h0l1 1v-1l-1-1v-1zm1 3v-1 1zM387 117l-1 1v2h0v1h1c0 1 1 0 0 0 0-1 0-2 1-1v-1c-1 0-1 0 0 0v-1h-1v-1zM382 118v1l-2-1h-1-1l-1 1-1 1v2l-1 2v1l1 1v1 1h1v-4l1 1v1s1 0 0 0l1 1h1v1h1v-1-1h-1v-1l-1-1v-1-1h2v-1h-1-1l-1 1h-1v-1-1l2-1h4v-1h-1zM388 124h-1c0 1 0 1 0 0v1c0 1 0 1 0 0h4l-3-1zM385 132h-1l-1 1h-1l-1 1-1 1 2-1 2-1 2-1h-1z"/>
  </g>
  <g fill="currentColor">
    <path d="M392 121h-1-1l1 1 1 1h2s1 0 0 0v1h-1-1l1 1v1h3l1 1 3 1v3l-1 1h2l2 1 1 1h2v-1h1l1-2 1 1h1v1h1v1l1 1h2l2 1v-1h-1v-1h-1v-1h-1l-1-2-1-1h2l-1-1-1-1h-1v-1h-1v-1h-1l-1-1h-1l-1-1h-1l-1-1h-2l-2-1v1h-1l-1 1-1 1v-1l-1-1c0 1 0 1 0 0v-1-1h-3zM405 136l-1 1v1l-1 1v2l-1 4-1 1-2-1h-1v-1l-1-1h-1l-1-1v-1h1v-1 1h1v-1h-1l1-1v-1-1 1l-1-1v1h-1-1v-1h-1-1v-1h-1l1 1v1h-2l-1 1-1 1v1h-1v1h-1v-1h-1v-1h-1v1l-1-1v1h-1v1l-1 1v1h-1s-1 0 0 0h-1v1c1 0 1 0 0 0v-1l-1 1-1 1v1l-1 1-2 1h-1l-1 1h-1-1-1v1l-2 1-1 1v-1l-1 2v1 3l-1-1v1c0-1 0-1 0 0v3l1 1v4l-1 2-1 1v2l2 1 2-1h1v-1h5l1-1 1-1h2l1-1h3l2-1 2 1h1l1 1v3h1c0 1 0 1 0 0l2-1 1-1 1-1v1h-1v1h-1v1l-1 1h1l1-1v-1 2c-1 0-1 1 0 0l1 1-1 1v1l1 1h1l1 1h1l1-1 1 1h1c0 1 0 1 0 0l4-1 2-2 1-1v-1l2-1 3-3v-1h1l1-2a10 10 0 002-5s0-1 0 0v-2l1-1v-1l-1 1v-1l-1-1v-1h-1v-1h-1v-1-1-1l-2-1v-1l-1-1v-2-3l-1-1c1 0 1 0 0 0v-1 1h-1v-1s0-1 0 0v-1-1c1 0 1 0 0 0v-1h-1v-1zm-40 23h-1v-1l1 1zm32 17h-1 1zM394 180v2l-1 1 1 1 2-1 1-1h1v-1c1-1 1-1-1-1h-2v-1l-1 1z"/>
  </g>
  <g fill="currentColor">
    <path d="M272 7h-1l-3 1v1h1V8h1v0h1v1h3l1-1h0l-2-1c-1 0-1 0 0 0h-1zm2 1h-2 2zm-5 0zM266 8h-1-2c-1 0-1 0 0 0l1 1h-1 2l1-1v1h2-2l1-1h-1zM240 9h-1-1-1-1-1s-1 0 0 0v1h1-1v1h1 1l1 1h3l1-1v-1l1 1c1 0 1 0 0 0l1 1h2v-1h-1s0-1 0 0l-1-1h-2 2l3-1h1-3-5zm2 0v1l-1-1h1zm-4 2v-1 1zm-1 0zM282 12h-1l-2 1h-3l-2 1-1 1v1l-1 1c1 0 1 0 0 0v1h1v1h4l-1-1-1-1h1l2-2v-1l4-1 2-1h-2zm-8 4h-1 1zM248 19h-1-1-1l-1 1h-2l-1 1v1h-1v-1c0 1 0 1 0 0h-1l-1 1-1 1h1v-1h1v1l-1 1-1 1h-1l-1 1v1l-1 1h-2v1h-1l-1 1h-1v5h5l1-1v1l1 1 1 1v1l-2 1h-1 1v-2-1h-1v1h-1l-1 2v1h1v1c-1 0-1 0 0 0l-1 1h-2l-2 1-2 2-1 1-1 1h-1l-1 1-1-1v1l-1 1h-1-2v1h1l1 1h1v1h1v4h-1a47 47 0 00-6 0h-2v3l-1 3v3l1 1h2l1 1 3-1h2l1-1v-1h1v-1-1l2-2 1-1 1-1v-1h3l1-1h1l1-1 2 1v1h1v1h1l2 2h1l1 1 1 1v1l-3 1h-1l2 2h1v-1l1-1 1-1v-1-1h2c0 1 0 1 0 0l-2-1-1-1v-1h-2v-1l-1-1-1-2v-1h1v1h1v1l1-1v1l1 1 1 1h1l1 1 1 1v1l1 1v1l1 1v1c-1 0-1 0 0 0v1l1 1h2v-1s1 0 0 0h1v-1h1v0l-1-1h-1v-1l-1-1h1c0 1 1 1 0 0h1v-1c1 0 1 0 0 0h1l1 1 2-1h2l-1-1-1-2 1-1 1-2v-1l1-1h1l2 1-1 1h1l1 1 1-1h3v1h3l1 1h1l1 1h3l1 1 6 3v-1l-2-1-2-3-1-1v-1l2-1 2-1 1-1h-1v-1l-1-2-1-2 1-1h6l2 1c0-1 0-1 0 0h3v-1l-1-1-1-1v-1-1h-3l-1-2c-1 0-1 0 0 0l1-1v-2l-1-2-1-6-1-2 1-1 4-2-1-1-4-2h-3-1 1l2 1v1h-1l-1-1-1 1h-2-1v-1l-1 1h-3l-1 1h-1v1h-2l1-1v-1h-3v1l1 1v1h-1v-1l-1 1h-1l-1 1v1l-2-1h-1v1h1l1 1-2-1h-1v-1h-1c1-1 0-1-1-1h7v-2l-2-1c0 1 0 0 0 0h-1-1l-3-1h-1l-2-1h-1 1l-3-1h-1-1-1zm1 0zm2 0h-1 1zm-8 2zm-2 0zm-1 1h-1 1zm1 0c-1 0-1 0 0 0zm7 4h1-1l-1 2-1 1h-1c1 0 1 0 0 0v1h1v2s0 1 0 0v1h5l1-1 1 1c1 0 1 0 0 0v1h-3c-1-1-3 0-2 1v-1h-1v1c-1 0-1 0 0 0v1l1-1h1v2h-1l-1-1-1 2-1 2-1 1v-1l-3 1h-3-2-1l1-1h1c-1 0-1 0 0 0v-1h2l1-1h1l1-1h-1v-2h2v-1-1l-1-1v-1-1l1-1 1-1h1v-1l1-1h2zm-13 1l-1 1 1-1zm-3 2zm4 11h-1 1zm10 0s0-1 0 0zm-11 0c1 1 0 1-1 1l1-1zm-6 3zm38 8l-1 1c1 0 1 0 0 0v1h-2-1v-1h1l1-1h2zm-19 13h-1c0-1 0-1 0 0h1zm3-1v1l-1-1h1zm-1 1h-1 1zm0 1v-1 1zM202 25h-1l-1 1h1c1 0 2 0 0 0l-1 1h2v1h-1 8l2-2-1-1h-1-1-2-1c0 1 0 1 0 0h-1v1c0-1 0 0 0 0v-1h-2zM217 30c-1 0-1 1 0 0v0z"/>
    <path d="M220 34v1h-2l-1 1-1 1h1l-1 1h1l-1 1h1s0 1 0 0l1 1s0 1 0 0h1v2h-1v2 1h1l-2 1-1 1h2l1-1h3l3-1h-1v-1l1-1h-2v-1-1l-1-1-1-2c-1 0-1 0 0 0v-1-1h-2 1v-1s1 0 0 0h1v-1h-1zm-3 2v0z"/>
    <path d="M215 39l-1 2h-2v2 2l2-1h2v-1-1l1-1v-1l-2-1zM233 57l-1 1 1 1v1h-1v3h1l1-2v-1l-1-1v-2zM251 68l1 1h1l1-1h-1-1-1z"/>
  </g>
  <g fill="currentColor">
    <path d="M129 102h-1v1h-1-1l-1 1-2 2v1h-1v1l-1-1-2-1v1l1 1v1l1 1v4l-1 2-1 1v1h-1l-1 1v2h-1v2l1 1v1l-1 1v3h1l1 2 1 1 1 2 1 2v1h1v1l1 2 1 2 4 3h1l1 1h1l1 2v7a39 39 0 010 8l1 1v4l1 1-1 4v1s0 1 0 0v2l1 1v1l1 3v2h1v-2 2l1 1v1h-1v-1 1h-1v1h1v2l-1 1h2v3l1 1v1h1v1s0 1 0 0l1 1 1 1h0l1 1c0-1 0 0 0 0l1 1h0v-1l1 1 1 1h2l1 1h3v-1h1v-1l-4-1-1-2-1-2v-1-1l1-1 1-1h-1v-1l-2-1c-1-1 0-2 1-2v-3h1v-1h-1l-1-1v-1h3v-1-1c-1-1-1-1 0 0v-1h1l4-1v-1-2l-1-1-1-1-1-1h1v1h3l2-1v-1l1-1 1-1v-1l-1 1 1-1v-1h1l1-3 1-2v-3l1-1 1-1h1l3-1 1-1h1v-1l2-3v-1-2-3-2l1-2 1-1 1-2 2-3v-4l-1-1-1-1-2-1-2-2h-2-1-1l-2-1v1l-1-1v-1l-2-1h-1l-2 1v-1-1h-1v-2l-1-1-1-2-1-1-1-1-1-1h-1l-2-1-2-1h-1v-1h-1l-2-2s-1 0 0 0l-1-1-1-1s0 1 0 0c-1 0 0 0 0 0v-1h-3v1h-2l-1-1-2 1v-1l-1-1h-1v-1 1h-1l-1 1v-1l1-1h-1zm0 4v1l-1-1 1-1v1zm3 37l1 1h-1v-1zm33 11zm-6 11zm-12 18h-1 1zm-10 2v0s1 0 0 0zm0 1c0 1 0 1 0 0zm1 1h-1 1zm8 10v1h1l-1 1v-1h-1v-1h1zm-2 0v0s1 0 0 0zM156 195h-1v1h2v-1 1h1l1-1h-3z"/>
  </g>
  <g fill="currentColor">
    <path d="M198 6a414 414 0 01-9 0l1 1h-1V6h-1-1v1h-2-6l-1-1h-1-15l-1 1h-2-5l1 1c1 0 1 0 0 0v0h-1l-2-1v1h-1-1-1l-1 1 1 1c-1 0-1 0 0 0l2 1h1v1h-2-1-1 1v1l-1-1h-1-1-1-2l1 1h-2l-1 1 1-1v-1h-1c0 1 0 1 0 0h-2l-1 1-1-1-1 1 1 1h4v1h1l2-1v-1h2l-1 1v1a34 34 0 007 0h3l1-1-4-1-2 1-1-1s-1 0 0 0h9l2-1h-1l1-1h4v-1h1l3-1h2l4-1h1V7h3l-1 1-5 1h1l-2 1-6 1h1c1 0 0 0 0 0l-1 1 2 1h6l2 1c-1 0-1 0 0 0v2h-1 1v1c-1 0-1 0 0 0l-1 1 1 1h1v-1 1h1c0 1 0 1 0 0h-3v1c1 0 0 0 0 0l-1 1h2l1-1h-1 1v1l-1 1h-1l-1 1v1l-1 1v1h1v1 1 2l1 1v1h1l2 1h2l1-1 1-1v-1h1l1-1v-1h1v-1s0-1 0 0l1-1h2c0-1 0-1 0 0h1l1-1h1l2-1 1-1h1c0-1 0-1 0 0h1a30 30 0 008-2l1-1h-3v-1h2l2 1v-1l-1-1s0-1 0 0l1-1 1-1c1 0 2 0 1-1h1l1-1h1-1-1v-1l1-1v1h1v-1l-1-1h0l-1-1h2V9h3V8h3c1-1 1-1-1-1h-3s-1 0 0 0h-1-2 1l-1-1h-11zm-7 1c-1 0-1 0 0 0zm16 0c1 0 1 0 0 0zm-51 0zm1 1l-1 1 1-1c1 0 1 0 0 0zm3 0v1h-1V8h1zm-3 1v1l-1-1h1zm0 1h-1 1zm-4 0v0c1 0 1 0 0 0zm17 1h-1 1zm-3 1zm-28 1c1 0 0 0 0 0zm-2 0h-1 1zm67 3zm-1 0v1c1 0 1 0 0 0v-1c-1 0-1 0 0 0s1 0 0 0zm2 0h-1 1zm0 1zm-32 10z"/>
    <path d="M140 9v1h-1v1h4v-1h-1l-1-1h-1zM133 10l-1 1h0-1l1 1 2-1s1 0 0 0h1v-1h-2zM126 12h-4l-1 1h-1 1c0 1 0 1 0 0h1c1 0 1 0 0 0l1 1 1-1-1 1h1l1 1h3l3-1h3v-1h-1v-1h-1l-1 1s-1 0 0 0l-1 1-1-1h-1l-1-1s1 0 0 0h-1zm0 1h-1c-1 0 0 0 0 0h-1 0c-1 0-1 0 0 0h2zm0 0zm0 1c-1 0-1 0 0 0zM116 15h-1v1h-1l-1 1h-1-1v1l1 1h1l1-1h1l3-1-1 1h-1v1l2 1 2-1 1 1h-6l2 1s1 0 0 0v1h6l-2 1h-1l1-1h-1l-4 1h-1l1-1c1 0 1 0 0 0l-1-1h-2-4-1v-1 1h1v-1h-1l-1 1v-1l-1-1-1 1h-1c1 0 0 0 0 0l-4 1h1-3-3-1l-2-1h-4-2l-2-1h-2-6l-1 1-3 1h-3l-2 1h-1l1 1v1l-1 1h-1-4l-1 1c-1 1 0 1 1 1h3l-1 1h-1-1l-1 1h-2l-1 1h-2v1l-1 1-1 1h2c1 0 1 0 0 0v1h-1v1h1c-1 0 0 0 0 0h3l-1 1h-1l-1 1-2 1-2 1h-3l-2 1-2 1h1l1-1h5v-1h1l2-1h2v-1h1l2-1a26 26 0 002 0v-1h2v-1h2v-1h1v1h-1 3l1-1h2l1-1v1l-1-1h2l-1 1h5l1 1c0-1 1-1 0 0h1v4h0v1h1-1v1h2v-1 1l1 1h-1l-1 1v1h1-1l1 1-1 1c1 0 1 0 0 0l1 1h-2 1-1v1h1v1l1 1c1 0 1 0 0 0l-1 2a13 13 0 01-2 4l-1 1-2 2-1 2v2 7l1 1h1v1l1 1a25 25 0 000 4l1 1 1 1v1h-2l2 2 1 1v2l2 2s0 1 0 0h1v-1-1 1l-1-1v-1-1l-1-1v-3h-1v-1c0 1 0 1 0 0s0-1 0 0l-1-1v-1l1-1 1 1v2l1 1v1h1v2h1v1l1 1 1 1v1l1 1v5l1 1 1 1 2 1 3 2h1l1 1h3l1-1 2 2 2 2h2l2 1c1 0 1 0 0 0l1 1c1 1 2 2 1 3l1 1h1c0-1 0-1 0 0l1 1v1h2v1h1c-1 0 0 0 0 0h1v-1h1v-1l1-1h-2l-1 1h-1v-1l-1-1-1-1v-1-1h1v-1-1-1l1-1h-1l-1-1h-2-2-1v-1-1l1-1v-1l1-1v-1-1c1 0 1 0 0 0h1v-1l-1-1-2 1h-2v2l-2 2h-3-1l-1-1-1-1v-1-1-1l-1-1 2-4v-2l3-3c2-2 3-2 4-1h4c0 1 0 1 0 0 1 0 1 0 0 0v-1h7l1 1v4l1 1v1h1c0 1 0 1 0 0l1-1v-2-2-1c-1-2 0-4 2-5l1-1 2-1 2-1h1v-1h1-1 1v-1-1-1-1 1c0 1 0 1 0 0h1c0-1 0-1 0 0v-1l1-1v-1 1l1-1 1-1 1-1h2v-1h2v-1c0 1 0 1 0 0v-1l3-1 1-1h1l1-1h2s0-1 0 0h-1l-1 1v1h2l1-1 3-1h1v-1l2-1h-1v-1l-1 1-1 1h-2 1l1-1h-1l-1-1s0 1 0 0v1l-1-1 1-1v-1-1l-5 1c-1 1-1 1 0 0l2-1h1l1-1h8v-1h1l2-1h1l-1 1-2 2h-1v1h-1 0c-1 1-1 1 2 1l4 1-1 1 1-1v1l1-2c1 0 0 0 0 0h-1l1-1c1 0 0 0 0 0v-1-1l-1 1v-1l-1 1v-1c1 0 0 0 0 0h-1l1-1h1v-1s-1 0 0 0h-1l1-1 1-1-1-1v-1l-1-1h-1l-1-1c0 1 0 0 0 0v-1-1-1-1-1l-1-1v-1 1l-2 1-1 1h-1-1l-1-1 1-2-1-1-2-1v-1 1h-4l-1 1-1 1h1l-1 1-1 1-1 1 1 1-1 2-3 2h-1v2h-1v2l-1 1h-1-1v-1-1h1v-1h-1v-1h1v-1l-1-1h-2-1l-1-1-1-1h-1-1v-2h-1v-1l1-2h1l2-1v-1h3l1-1 1-1h1l4-2 1-1-1 1-1 1v1c-1 0-1 0 0 0v1h1l1-1h4l-1-1-1-1v-1l1 1v-1c0-1 0-1 0 0h1l1-1h1v-1l1-1 1-1c-1 0-1 0 0 0h2c1 0 1 0 0 0v1l-1 1 1-1 2-2-1 1v-1h1s0 1 0 0l1 1h-1v1h0l-2 2 3-1c0-1 0-1 0 0h1v-1h1v2h-1l-1 1h-1v1h-1-2-1l-1 1h4v1h1v1l1 1h2l1 1h1v-1l-1-1v-1 1h2v1h1v-1h1v-1-1h-1v-2l1 1h4v-1h1v-1h-1v-1h-1-1l-1-1 1-1c1-1 0-2-1-2h-1v-1h-2c0 1 0 1 0 0l-1-1h-1 1l-2-1h-2-4 1-1c-1-1-4 0-5 1l-1 1v1h1-1v1h1 1l-1 1v1h-1-1v1h-1-1l1-1-1-1v-2l-1-1h1l1-1h1l3-2h-1-1l-2 1h-1-1v1l-1 1h-1l-1 1-1 1-1 1v-1h-1l-1 1h-1v1h0l-3 1h-2v-1h-1c1 0 1 0 0 0v-1h-1v1h-1l1-1h1l2 1h1l1-1h1l1-1-2-1 1-1 1-2h-1l-2 1-1 1v-1h-1-3v-1h-1l-2-1h-4zm33 1l-1 1-1 1v-1l1-1h1zm4 1h1c1 0 1 0 0 0h-1c-1 0-1 0 0 0v-1 1zm-6 1v-1 1zm10 0c-1 0-1 0 0 0zm2 1c1 0 1 0 0 0zm2 1h0-1 1zm-17 0zm16 0zm-57 0zm44 0v0zm3 0h-1 1zm-48 1h-1 1c0-1 0-1 0 0zm37 0v-1 1zm-3 0v1l-2 1h-1s0 1 0 0c-1 0-1 0 0 0v-1h2l-1-1c0 1 0 0 0 0h2zm-38 0c-1 0-1 0 0 0s1 0 0 0zm64 0h-1 1zm-22 1h-1v-1l1 1zm13 0h-1l1-1v1zm-5 0h-1 1zm6 0h-1 1zm-12 1c0-1 0-1 0 0zm-11 0zm23 0c-1 0 0 0 0 0zm-33 1h-1 1zm11 0zm-23 0h-1v1h2-1-1l-1 1h-1-1 0-1c-1 0-1 0 0 0h1v-1h0-1 1a87 87 0 004-1zm47 0h1l-1 1h-1l1-1zm9 0h-1 1zm-96 1h-1l1-1v1zm72 0s0 1 0 0c-1 0 0 0 0 0zm-4 1c1 0 1 0 0 0 0-1 0-1 0 0zm-72 1zm85 0zm2 1zm-44 2h2l-2 1h-1l-3 1h1l1-1h1v-1h1zm50 1h-1 1zm-88 1v-1 1zm-1 0h-1 1zm-1 0h-1 1zm-5 2h-1 1zm1 0h-1 1zm17 1zm0 0v0zm-1 1c1 0 1 0 0 0zm-21 0h-1 1zm23 1h-1l1-1v1zm0 0h-1v0h1zm-2 1zm1 1v-1 1zm1-1zm-2 2v-1 1zm36 2l-1 2h-1v-1h1v-1h1zm42 0h-1 1zm-77 0h-1 1zm34 3v1h-1l1-1zm-33 2l1 1v1l-1-1v-1zm42 2h1v1h1-1v2h-1-1l-1-1c-1 0-1 0 0 0v-1l-1 1h-1l-1 1-1-1c1 0 1 0 0 0h-1l3-1h2v-1h-1 3zm-41 0l-1 1v-1h1zm65 1c-1 0-1 0 0 0zm2 2h-1 1zm-23 0v1l-1-1h1zm-3 1l-1 1-1 1-1 2-1 1h-1l2-4c1 0 1-1 0 0l1-1h2zm3 0h2c1 1 0 2-1 1 0-1 0-1 0 0l-1 1v1l-1 1v-1l-1-1v1h-1l1-1 1-1-1-1h2zm1 0h-1 1zm5 3h-2-1c-1 1-1 0 0 0h2l1-1v1zm-4 1l-2 1-3 1 2-1h2v-1h1zm-4 1h-1 1zm5 6h-1 1zm0 3h-1 1zm-20 9h-1v-1l1 1zm2 27l-1 1v-1c0-1 0-1 0 0h1z"/>
    <path d="M138 15h-2l-1 1-1 1h-1v1h3l2-1 1-1v-1h-1zm0 1v0zM63 35l-1 1h-1-1l-1 1h3l1-1 1-1h-1zM117 86a97 97 0 01-3 1v1c-1 0-1 0 0 0h1l1-1h2-1l2 1h2v1h1v2h5v-1h-1l-1-1-2-2h-2l-4-1zm6 4h-1 1zM128 91v1h1l-2 1h-1 1c0 1 0 1 0 0h1l2 1 1-1h3v-1h-1l-1-1h-3-1z"/>
  </g>
</svg>
