<svg viewBox="0 0 1010 666" xmlns="http://www.w3.org/2000/svg"><g><path d="m531 334v-1zm-154-57v-3h1v1h1v-3h-1 2v-3h1l-1-1h7l1 1 1 1v1h1v1h1v1h-1v-1h-7v1h-1v1l-1 1-1 1-2 1v1-1zm0-1h1zm9-3h-1zm-2-1h1l-1 1zm-59 42h1v1-1h1-1 1v-1h6v-1h1l1-1h1v-1h-1v-2l-1-1h1v-1h1v-3h3v-1l-1-1h1v-1h1l1-1v-3h1v-1l1 1h2v-1h1-1v-1h3l1-1v-2l1-1h-1 1v-1h5v-1h1l1 1 3-1 1 1h3l1 1-1 1h-1v1l-1 1v2h3v6l-1 1h2v2h-1v1h-1v3h-1v1h1-1v-1h-2v-1h-1v1-1 1h-2v2h-2v1h-2v3h-3v2-1h-4v-1l-1 1v-1h-1v-1h-1v1h-1v1h-1l-1-1v1l-1 1h-2v2h-1v1h-1l-1-1v-5h-1v-1 1h-1l-1 1h-1v1h-2v-1h-1v1h-3zm387-60h1zm-233 80v-1h-1v-5h-1v-1h-1l1-1v-1h1v-1l1-1v1h1l1 1v9zm-74-13h1v1h1v1h2v1h1l1 1h2v4h-3l-1 1v-1h-1v-1h-1l1-1v-1h-2v-1h1v-1h-1v-1h-1zm94-131 1-1v-2h1v1l1 1h-1v1zm-31-18v-6h6v-9l-1-1-1-1v-1h-1l-1-1h1l1-1h11v1h1v1h13l1 1h1l1-1h2v6l-1 2v1l-1 1v1l-1 1v1h-1v1h-1v6h1v3h1v1l-1 1 1 2v2l1 1 1 1v1h-12l-1-1h1l-1-1v-2h-1v-1l-1-1h-2v1h-1l-1-1-1 1v2h-3v-1h-4v-6l-1-1v-4 1zm243-33h-1v-2h-1v-1h-1v-1h-1l-1-1h-3v-1h-1v-1l-2-1h-2v-1h-1v-1l1-1v-1h1v-2h1v-1h-2l-2-1h-3v1h-1v-1l-1 1v1h-1l-1 1v3h-2v-1h-1v-4h2v-1h1l1-1h1v-1h1v-1h1v-1l1-1v-1h1v-1h1v-1h1v-1l1-1v-4h1v-5l1-1-1-1v-1h1l-1-1-1-1-1-1h-1v-4h-1l-1-2h1l1-2v-1l1-1v-1l2-1h2l2-1h3l1-1 1 1v-1l1 1h1v-4l1-1v-1l-1-1h1l1-1h4l1 1h1v-5h-1v-1h-1 1-2 1v1h-2v-3h1l1 1h2l-1-1h-1v-1h2v-1l1-1-1-1 1-1v-1l1-1v-1h2v-1h1l1-1 1-1v-3l-2-2h-1l-1-1h-1v-2h1v-1h-1l1-1 1-1 1-1h1v-1h1v-2l1-2v-1h2v1-1h1-1l-1-1h1l1-1v-2h1l-1-1v-2h1-1l-1-2v-1h-1 2l1 1h7v1h1v1h1l-1 1v1h1-1v2h3v2l1 1v3h-1v1h-1v1h-1v2h-1v1l1 1v1h-1v2h-1v5h-1 1v2h-1v2h2v1h-3v1h2v5h1v4h-1v8h-1 1v1h-1v3h-1l-1 1h1v7l-1 1-1 1v5h-1v1h-1v1h1v1l-1 1h1v3h1v6h-1v1h-1v1h1v3h-1v3h-1v1h-1v2h-2v1l1 1v1h-1l1 1v2h-1v1h1v1h-1v1h-2l-1 1v2l-1 1h1v1h-1v1h-1v1h-1v1-1h-3l-1-1h-1v-2 1l-1 1v1h-3zm-2-55h1zm19-65v10l-1-1v-1 1-1h1v-1h-1l-1-1-1-1v-1h-1v-1h-1v-1h-1l-1-1h-3l1-1 1-1v1l1-1h2l1 1zm-11 0h-3zm-713 143h1zm484 196v-2h-1v-1h1v-1h1v-3h2v-1h3v-1h3l1 1h3v2h1v-1h3v-1 1h3v1h1-1 1l-1 1h1v1h-1l-1-1v-1 1h-1v1h-1v-1h-2v1h-3l-1-1v2l1 1h-1v1h-1v1h-1v1h-1v-1h-2v1l-1 1v-1 1h-1v-1h-4zm-319-187h1-4v-1h1l1-1 1 1zm-18-13v1zm-6-2h-2 2v-1zm-9 18v1l1-1zm16-3v1zm12 1-1-1v1h1-1zm-11-2-1 1zm-16 3h-1zm14-10h1v1h-1 2v-1zm-40-28h1zm-5-7v1l-1 2v1-1h1-1l1-1zm-1-5v-1l-1 1zm10 16v1zm10 12v-1zm-8-6v1l1-1zm27 10v-1zm-17-68h1zm-8-6h1v1-1h1-1v-1h-1zm0-2h1zm9 7h-1zm-39-65 1-1v-1 1h-1zm30 59h1v-1h-1zm0-7v5h2v-1h6v1h2v-3l-1-1v-1h-1v-1l1 1v-2l-1-1v-1h-1l-1-1h1-2v-1h-1v2h-1v1h-1v-1h-1v4l-1 1v-1h1-1v-1zm-15 48h1v2l1 1v5l1 1v1h1v1h1v1l1 1h1v1h1v3l1 1v-1l1 1h1l-1-1h1v1h1v3h1v1l1 1v1l1 1h1l1 1 1 1h2v1h1v1l1 1-1 1v1l1 1v1l1 1v2l1 1v2h1v1h1v1h1v-1h1v2h1l-1 1h1v3h1v3h1v2h1v-2l1-1v-1l1-1h-1v-1h1v-8l1-1v-2l1-1v-1l1-1h2l1 1h1v1h2v1h1l1 1h1v1h2v1-1 1h1l1 1 1 1v1l-1 1v2l-1 1h-1v1l-1 1h1v1h1v-1h1v1-1l1 1h-1v1-1h2v-1 1h3l1 1h2v1h3-1l-1-1v-1h1v-1 1-1h3v1h1v-1h1v-1h1v-2h1v-2h1v-1h-1 1l-1-1h1v-1 1h1v-1 1h3v-1h-1 1v2l1 1h1v1h2v-1h1v1l1-1h-1 1v-1h1v1-1h1v-2 1l1-1h-1v-1h1v1-1h1v-2h-1v-1 1l1-1v1l1-1v1h1v-1h1-1v-2 1h1v-1h-1l1-1v2h1v1h1v-1h1v-1h1v-1h-1v-2h1v-1h1v-1l1-1v-1h1l1-1h4l1-1h2l1-1h3l2-1v-1h1v-1h2v-1h1v-1h1v-1 2h1v-4l1-1v-3l-1-1v-1l-1-1v-3 1h1v1-1 1l1 1v-2h-1v-1h1v1h1l-1-1-1-1-1-2v-2l-1-1v-1l-1-1v-4l-1-1v-1l-1-1v-8h2v-2h-1l-1-1-1-1h-2l-1-1h-3v1h-1l-1 1h-1l-1 1v1h-12v1l-1 1v1h-1l-1 1h-1l-1 1-1 1h-1l-1-1-1 1h-3l-1 1h-1l-1 1h-7l-2-2-1 1-1-1h-2v-1h-1v-2h-1l-1-1v-1h-1v-2h-1v-1h1l-1-1h-1v1h-1v2h-1l-1 1h-1v2h-1v2l-1-1v-1h1l-1-1v-1h1v-1l1-1v-2h1v-1h-2l-1 1v2l-1-1v-3l1-1h-1l-1 1h-2v-1h1v1-1l-1-1-1-1v-4l-1-1-1-1h-1l-1-1h-3l-1-1h-1l-1-1h-1v1h-1l-1 1h-1 1v1h-2v-1h1v-1l-1 1h-1v-1h-1v-1h-1v-1h-1v1h1v1-1h-1l-1 1-1 1-1 1h-1v1h-5v1l-1 1h1v1l-1 1v3h-1v2h-1 1-1v3h-1v2h-1v2l-1 1h-1v1h-1v2l-1 1v3l-1 1v4l-1 1zm66 49h-1v1h1zm48-42v1h1l-1-1v-1zm-6 15-1 1h1zm-26 16v1zm-64-90v-1h1-1zm26 27h4v-1h-4zm-17-14h1v-2h-1zm601 155v1zm-253 179v-2h1v2zm1-1v-1h1v1z"/><path d="m399 332v-1h-1v-1l-1-1v-1l-1-1h-1l-1-1h2l1-1v-4h1v1-3h1l1 1 1 1h-1v2l1 1 1-1h1v-1h1l1-1v2h1v1h1v1h-1v1h2v1l-1 1h1v1h1v1h-2v-1h-3v1h1l1 1h-1v1-1l-1 1v-1h-1v-1l-1-1h-1v1h-1v1h-1zm7-11h2v1h1v1h1v1h-1v-1h-2v-1h-1zm82 23h-5v-1h-2v-1h1v-1l-1-1h-1v-1h1v-1h1v-1h1v-1h1v-1l-1-1h2v1h1v1h1v1h1v1l1 1v1h1v1l1 1v2h-1v-1 1zm214-105h1v1zm-426 27v-2h-1 2v-1h-1v-1h1v3l1 1v1l1 1h1l1 1v2-1h1-1v-1h1-1v-1h1-1v-2h1v-1h1v1h-1 1v1-2h1v2-2h1v2h1v3h1v1l-1 1v1h2v2h-2v1h1v1h1v2h-1v1-1h-2v-1h-1v1-1h-1v-2h-1v-1h-6v-1 1l1-1v-1l1-1h1v-1h1l-1-1v-1h-1v1h-1v1l-1-1zm5 0v2l-1-1v-1zm-3 1h1v1-1zm2-1v1zm-2-1v1zm-1-1h1v1h-1zm245 106h-1v1-1h-1v-1h-1v-1h1l-1-1v1-1h-1v-2h1v-3h1l1 1h1v2-1h2v1l1 1v-1 1h1v1h2v2l-1 1h-2v-1l-1 1h-1v1-1h-1v1zm13-126v-1h-1v-2h-1v-1h-1 1v-1h-1v-1h-3v-1h1l-1-1v-1l1-1h2v-1h3l1 1v-1h7l1-1h-1v-3h1v1h3l1-1v1h1l1 1h1v2l-1 1v2h-2v2h-1v1h1-1v1h-1l-1-1v2h-1v1h-1v1h-1l-1-1v1h-1v1h-2v1h-3zm-80 94v-1h2v-3h1v-1h-1v-1h1v-1 1h3v-1h1v-2h4v1h3v-1h2v3h1l1 1h-1v2h-1v2h1v1h1v1h-1v1h-1v-1h-3l-1-1v1l-1-1h-3v1h-1l-1 1h-2l-1-1h-1l-1-1zm-62-61h1v1h-1 1-1zm57-81v-2h-1v-1h1-1 1v-1h1v-2h2v4h1v1h-1v-1l-1 1-1 1z"/><path d="m525 235h1v-1h-1v-4h1v-1h1v-1h1v-8h3-1 1v8l1 1v2h1v2h-1v1h-2l-1 1v2h-2v-1h-1v-1zm-312-19v-2h1v1h1v1h-2v1zm0 0h-1v-1zm486-71v1h1v1l1 1 2-1h5l1-1v-1l1-1v-2l1-1v-2h4v-1h1v-1 1h1v1h3l1 1 1-1h1v-1h1v-1h2v2h1v3l1 1v5h1v3h1-1 1v1l1 1v1h-1v1h-1v1l1 1v4l-1 1v5h-1l1 1v1l1 1v1l1 1h-1l-1-1h-2v1h-1l-1 1h-1v1h-1l-1 1h-3v-5h-1v-1h-1v-1h-1v-1h-4v-1h-1l-1-1h-1v-1h-4v-5l-1-1v-2h-5l1-1v-1h-1v-1h-1v-1l-1-1v-2h1-1v-1h1v-1l1-1h-1v-1zm18 153v-1z"/><path d="m694 208h-2v1h1v1h-4v-1h-6v2h-1v1l-1 1v1h-1v1h-1v-4l-1-1v-1h-1v-1h-1v-1h-1v-1h1l1-1v-1l1-1h1v-1h1v-1l1-1v-1h2v-1h-2l-1 1h-1v1h-1v-2h-1v-1h-1v1h-1v-1 1h-1v-2h1v-1l-1 1v1l-1 1-1 1v-1h-1v3h-3 1-2v-1h-3v-1h-1v-1h-1v1l-1-1-1-1h1v-1 1h-1v-1h1v-2l-1 1v1h-1v-1h1-1v1h-4v-1h-8v-1h-1l-1-1h-1l-1-1-1-1h-1v-1h-1v-1h-5v-1l-1-1v-2l-1-1v-4l1-1v-1l1-1v-1h1v-1h1v-1l1-1h1v-1h1v-1l1-1v-1l1-1v-1h1v-1l1 1v-1l1-1v-12l1-1 1-1v-4h1v-2h1v-1l1-1v-1l1-1-1-1h1l1-1 1-1v-1h3v1h1v-1h2-1 3v-1h-1 2v-1h1v-1l1 1v-1h2l1-1 1-1 1-1h1v-1h1v-1h1v1-1h-1l1-1v-8l1-1h1v-1l1-1 1-1 1-2v-2h1v-1l1-1h1l1-1v-1h1l-1 1h1-2v1h-1v2l-1-1v3h-1 2v1-2h1v-2h1v-1h1v-3l1-1v-2h1l1-1h1v2h-1v1h-1 1v1h1v1l1 1h1v1h1v1h2v1h2v1l1 1h1v1h1v-1h1v1h-1v1h-1v1h-1v1l-1 1v1h-1v1h-1v1h-2v1h-1v1h-2v4h1v1h2l-1 1v4h3v3h1l-1 1h1v1h2v1-1h3v1l1-1v6h1-1v1l1 1h-1v2h-1 1l-1 1v2l1 1 1 1v3h5v2l1 1v4h1v1h3l1 1h2v1h1l1 1h2l1 1h1v1l1 1v5-1h4l1-1h1v-1h2v-1h7v3h-1v1h1-1 1l1-1h3v1h3v1h-1v1h1v1h1v2h1v1h-1v1h1-1v1h-1v2l-1 1v2h-2v1h-2l-1 1h-3v1l-1 1v4l-1 1v2h1v2h1v2h-1v1h-2 1-1 1v1h1v2h-6v1h-1v-3h-2v-1h-2v1l-1-1-1 1h-1v1h-2v1l-1 1h-1v1h2v1l1 1v1l1 1v1-1h-4v-1h-1l-1 1h-1l-1 1h-2l-1 1-1 1h1-1l-1 1v-3h-1v-3l1-1v-1l-1-1v-1h-1v-1h-1v-1h-1v1h-2v1zm-17 0v1zm-1-4h1-1v1zm1-1v1zm-2 1v-1h2-1zm-1-1 1-1v1zm4-1h1v1h-1zm-3 0h-4v-1h1v-2h1v-1h1v1-1h3l1 1v1h-1 1v2zm6-3-1 1v1h-1v-1l1-1zm-20 0h1zm-1-4 1-1-1 1h1zm-16-29v1zm15-30h1v1h-1zm3-2h1v1h-1zm10-8v1zm-1-4h1v1h-1l1-1zm81 156h1-1v2l1 1h1-1v-1h-1zm4 2h-2 3zm-5-4h-1l-1-1v-1h1-1v2h2v1zm3-2v-1h1l1 1h-1v1h-1zm-2 1h1zm-5-3v1h1v1l-1-1zm6 1v-1h1-1v-1h1v2zm-9-1h1zm4-2 1 1zm-3-2 1 1h1-1v1h1v1l-1-1v-1h-1zm-2 0h1zm1-2-1 1v1-1zm-4 1h1zm0-4h2-1l-1 1zm-462 20v-1h-1v-2h9v2h-1v2h-1l-1 1h-1v-1h-4zm248-263v1zm-61 132v-1h-1v-1l-1-1v-1l-1-1-1-1-1-1h-1v-1h-1v-2h-1v-1h-1l-1-1h-1v-1h-1 1v-1h2v-1h1v-1h1v-1h1l1-1v-2h1v-1h2v-2l1-1h4l1 1h2v-1h1v-1l1-1v-1h5v1h-1v2l1 1v1l1 1v8h-2v11h-1l-1 1h-5l-1-1-1 1h-1l-1 1zm-9 241v-1h-3v-2l-1 1h-2v-1h-1v-4h-1v-2l-1-1-1-1v-1h-2v-2l1-1h3v-1h-1v-3l-1-1h3v-1h1v-2h-1 2v1l1-1h1v1h2v-1 1h4v1h3l1 1h2l1-1h1l1-1h1v3h1v1l-1 1h-1v2l1 1v1l1 2h-4v1h-2v1-1h-1v1h1l-1 1v2h-1v1h-2l1 1v1h-1v1h-2v1h-1v1zm327-138v-5l1-1 1-1h1v6h-2v1zm-1-3v1zm-52 399h-3v-1h-5v-2l1-1 4-3 1-1h-3v1l-2 1h-1l-1 2h-2l-1 1v1l-1-1v-1l-1-1-1 1h-1v-3l-1-1-1-2 1-2-2 1h-2l-1-1-1-1v-3l1-2 1-1 1-2h1l3-4 1-1 1-1h3v-1h1l1-1h1l1-1v-2l5-3v-1h-1l-7 5h-3v-1l2-3 3-3 1-2 3-3 2-3 1-2 1-3h2l1 1 1 1-2-4 1-1h2l1-1h2v-1h-2l-2 1v-1h-1l1-2 2-1h-1v-2h1l1-1h2l3 2h1v1l1-1h1l-2-1h-1l-1-1v-3h2v-1h2l2-1 1 1h1l1 1h1v-1l-1-1-1-1-1-1-1-1h-1l-1 1h-1l1-3h3v1h2v-1h6-1v-1h-1v-1h-1v1h-4v-1l-1-1h-2l-1-1-1-1 1-1 1-1 1-1h3-1l-2-1v-1h-1l1-2 1-3h2l1-1h3l1-1v-1l-1-2 1-1v-2h1v-1h6v1l2 1v1h1v-1l-1-1v-1h2l-1-1h-3l-1-1h-1l-1 1-1-1v-3h-2v1h-1v-1l-1-1v-1l1-1v-1l2-2 1-1h1l1-1 2-1h1v1l-1 1v1l1 1h2l1 1v1h1v1-1l-1-1v-1l3-1h2v1l1 2v-4h4l1 1 1 1v1-1l1-2 1 1h1v2-2h2l1 2v2-4h1l1 1h1v4l-2 2-1 1h-1v1h-4v1l1 1h1v2h1v2l1 1-1 1v1h-1l-1 1-1-1-1-1h-1l-1-2v-2l-2-1h-4v2l-1 1-1 1v2l-1 1v1h1l1-4 1-1 1-1h2l1-1v1h1v6l-1 1-1 2-1-1v1h2l-1 4 1-3 1-1v-1h1l1-1v4-1l1-1 1-1h2v5l-1 1-1 1v2l-2 1h-1l-1 1h-1l-1-1h-2l-1-1h-1l-1 1h-2l-1 1v1h1v-1h5l1 1 1 1v1h-2v-1h-1l1 2h1v2l1 1v2l1 1 1 1v1h2l1 2v8l-4-1h-3l-1-1-1-1-1-2-1-1v-1l-1-2-1-1-1-1-1-1h-2v1h-1 2l1 1 1 1 1 2v1l1 2 1 1 1 2v1l-1 1-4 1-3 1-1 2-4 3-2 1h-2l1 1h4v4l-1 1-2 2-1 2h-1l3-1 1-2 1-2h2v-3l1-1v-1l1-2 3-2h1l3-1h1v1l-2 2h2l1-1h1l1-1v-1l1-1h3l1 1h1l1 1v2l-1 1-1 2-1 1-2 1-4 1v1l4-1 3-1h1v-1l3-4v-1l2-1v1h1l1 1 1 1v1h1v1l-2 2-3-1-2 1h-1l-2 2-2 2v1h1l1-1 3-2 1-1h5l1-1h1v1l1 1v1l-1 1h-1l1 1v1l-1 1-1 1-1 1h-3l2 1h2l4-3h1v1l-2 3h-1 2l1 1v-1h1l1-1 1 1v1l-1 1-1 1v1l-2 1h-2l-1 1v1l-1 1-1 1h-3l-1-1v-1l-1 1v1l-1-1h-1l-1-1h-2v1h1l3 3v1l-1 1-1 1-1 1v1l-1 1h-1v-1l-1-1h-1l-1-1-1-3-1-1v-1h-2l1 2 1 1-1 1-1-1-2-2-3-2-1-1v-1l-1-1h-1l1 1 1 2 4 3 2 2v1l1 2-1 1v1h-1v1l1 1v1h-2l-1-1-1-1v1l1 3v1h-1l-2-2h-4 1l1 1 1 1v1l1 1v2h-2l-2-1h-3v-1l-1-1-2-3v-1l-1-1v-1l-1 1h-1l1 1 1 2v1l1 1 1 2 1 1v1l-4 1-4-1-1-1v-1l-1-1-1-2-2-1 1 1 1 2 1 1v1l-1 1-1 2-2 1-1-1-1-3-1-1h-1l1 1 1 1v1l-1 1h-1l-2 1h-1v-2zm63-38v-2l-1-3-1-1-1-2v-2h-1l-1-1h-2v-4l-1-1v-1h-2v-1 2l1 1v3h-1l-1-1h-1v-3l1-1v-1h-1l-1-1v-1l-1-1 1-2v-3h-1v1h-2v-3l-1 2-1-1-1-2v-2l1-1 2-1 1-1 1-1 1-1v-2l1-1v-1l1 1v5-1h1v-5h-1v-2h1l1 1v-5h1l1 2 1 1 1 2v-1l-1-2v-3 1h1v1l1 1 1-1h-1v-2h2l1 1h1l2 1 1 1v2h-2l-1 1h3v1l1-1v1l1 1v1h-1l2 1 1 1v1l-1 1-2 1h-1v1l-1 1-2 1h-1v1h2l1 1h1l1-1 1-1 1-1v1h1-1v1h1l2-1v-1l1 1 1 1v2l-1 1-2 1v1h-1 1l1-1h2l1 1 1 2v1l1 1v3l-3-1-1-1h-2v2h-1v1h1l2-1 1 1h1v1h1v1l-1 1h-1l1 1v5h-1l-1-1-1-1v-1h-3l1 1h1v2l2 1v4h-2l-1 1h-3v2h2l1 1v2h-3l-2-1-1-1v-1zm20-20v-4l1 1v1l1 1h1v3l-1 1h-1l-1-1zm13-10h-1l-1-1-1-2v-1l1-1-1-1v-1 2l-1 1h-1l-1-1h-1v-3h-2l-1-1-1-1v-2l1-1-1-1v-1l-1-2-1-1v-1l1-2h1l1-1 1 1 1 1v2l1 1v1h1l1 1h1l1-1 1 1v1l2-1h3v1l1 1v2h-1l-1-1h-2v2h1l-1 1v1h2l-1 2 1 1v-1l1-1 1-1v1l-1 2v1h3v3l-1 1zm-21-12h-2l-1-1v-2h1v-1l-1-1v-2h1l1-1h1l1-1h1v-1h1v2l1 1v1h-1v1h-1 1l1 1h1v1h1v7h-3l-1-1h-1v-2zm39 2-1-1-1-1v-2l1-1h3l1 1h1v-1h1l1 1h1l2-1v2h-1v1l-2 1h-2v1l-1 1-1 1h-1v-1zm-20-7h1v1l-1 1zm21-1h-2v-2h2l1-1h1l-1-1h-2v-2l1-1v-1h1l1-1v1l1-1 2-1 1 1 1 1 1 1v5h-1l-1 1-4 1zm10-4 1-1 1 1 1 2v1h-1v1h-1v-1l-1-1-1-1zm-34-1h2v2l-1 1h-1l-1-1h-1v-2zm-18 1h-6v-2l1-2h7l1 2-1 1-1 1zm26-8h2v1l1 2v2l1 1v2l-1-1h-1v-1l-1-1v-2h-1zm-41 1h1l2 1v4h-3v-2h-1v-2zm72 2-1-1h1v-1l2-1v-1l-1-1-1-1h2v-1l-1-1v-1l1-1 2-1v-3h1l1 1 1 1v1l-1 1v3l1-1 1-1v-2h1v-1h-1v-1l1-1v-1l1-1v2h1v1-5l1-1h1v1l1 1v2h1v-2h4v-1 1h1-1v2h1v1l-1 1v1h-2l-1 2-1 1-1 1-1 1v1l-1 2-1 1-1 1v1h-1l-2 1-2-1h-1v1-1h-1v1l1 1-1 1h-1l-1-1zm-60-6h-1l-1-1-1-1v-2l1-1v-1 1l-2 1h-2l-1 1h-2l-1-1v-1h2v-1h-2l-4-1v-2h4l2 1v-1h-1l-1-1h-1l-1-1-1-1v-1h-1v-2l1-1h-1l-1-1v2h-1l-1-2-1 1h-1v-1 1l-1 1-1-2h-1l-1-1-1 1h1v1h-2l-1 1h-1l-1 1h-1v1h-1l-1-1-2 1h-2l-2-1v-1h-2l-1-1 1-1h-2v-3l1-1 1-1h-2l-1-1h1l1-1v1h1v-1h-1v-1h1v-2h3l1-1h1l1 1h1v1l1 1v2h1v-1h-1v-2l1-1h4v1-1h1v1-1l1-1h1v1h2v-1h1l1 1v-1h3v2l-1 1v1h1l1-1v-1 2-1h1v-2h2l1 1h1v1h1l-1 1 1-1v-1h1l1 1v1l1 1v3h1v3l-1 2v3l1 1 1 1v2l1 1h1v-1h2l1 1v-1h2v1l1 1h1v1h-1v1h1l2 1v2-1h-1v1h1v2h-1l-1 1h-1l-2-1h-1zm54-2 1-1 2 1h1v1h-1v1h-2v-1h-1zm-67-3h1l1 1v1l1 1h-1v1h-1l-1-1zm52-5h-1v-3h1-1v1h-2v-2l-1-1v4l-1 1-1-1h-1v-1l-1-2 1-1v-3l1-2v-1l2-1 1-1h1l1 1h1v-1h1l1 1h-1l1 1v-1l2-1 2-1 1-1v-1h1l1-1h1l2-1 2-1 1 1h1l1 1v2l-1 1h-2l-1 2h-4v1l-1 1v1l1-1h1l1-1 1 1h1v-1h3v2l-1 1h1v1-1h1v-2 1h1l-1-1v-1h1l1-1h1v1h1v-2l1 1 1 2 1-1 1 1h1v3h-4l-2 2-1 1 3-1 1-1h2v2h-1l-1 1h-3l-1 1h5v1h-1l1 1-1 1h-4l2 1v2l-2 1h-2v-2l-1-1v-1l-1 1h-2v-1l-1-1-2-2 1-1h-2v-2l-1-1h-2l-3-1h-1v3l3 1v1l-1 1-1 1h1v2h2v2l-1 1-1 2-1 1v1h-1l-1-1v-4h-1v-3l1-1zm-20 6h2-1l-1 1v1h-2l1-1zm-9-1v-2l-1-1v-5h1v-1l-1-1v-3 1l1-1v-2l-1-1h1l1 1v-1h-1v-1h7v2h-1v1h2v1l-1 1-1 1-1 1h-1v1l2-1h3v-1l1 1 3-2 1 1v1l-1 1h-1v2h-1v-1h-1v-1h-1v1h1v2h1v2l-1 1h2v2h-2l-1-1v-2l-2-2h-1v-1h-1v1h1v2h-1 2v1h-1v1h1l1 1 1 1h-1v1h-1l-1 1-1-1-1-1v-1l-1 1v2h-1l-1-1zm17 1h-1v-1h-1v-2h3l1 2v2h-2zm-5-7v-1h1v-2h2v3l2-1v2h1v1l-1 1h-1l-1 1h-1l-1-1v-2zm-65-1v-1 1l1-1h1v2h-1v1l-1 1zm110-4h3v2h-1l-1 2v1h-1l-1 1h-1l1-1v-2l1-2zm-66 2v1h1v1l-1 1-1-1v-2zm74 0h1l-1 1v1zm-70-3h2v-1h1v1l-1 1h-1v1h-1zm-7-5v-4h3l1 1 1 1h1l1 1h1v1h1-1v2h-1v3h-1v1l-2 1h-1l-1-1-1-2-1-1zm30 0h1l1 1v1l-1 1v1l-1 1-1-1v-1l-1-1v-1h1zm-25-5v-1 1h1v1h-1zm6 0v-1h1v1l-1 1-1-1zm62-5v1h-1v-2 1h-1v1l-1 1h-3l-1-1v-1h-1l-2-3-1-1v-1h-1v-1l1-1h1l1-1 2-2h1l2-2 2-2h1l1-3 1-1h1v-5l1-1 1-1h2l1-1 1-1 1-1h1v1h1v2l1 1v1l3 2h1v1h2-1v3l-1 1v1h-1v3l-1 1v1h1v1h-1v3l-1 1-1 1v2h1v1l1 3v1l-3 1h-2l-3 1h-1l-1-1-1-1-2-1h-1zm-74 1-1-1h-1l-1-1h-1v1l-2-1h-1l-1-1v-1l1-1v-1h1v-3h1v-1l1-1v-2l1-1h1l2 1h1l2-1h-1v-1l-1-1v-1l1-2v-2h1l1 1v-1h2l-1 2 1 1v2l1 2v10h-1l-1-1h-1 1v4h-1l-2 1zm14-3h2v-1l1 1v1h-1v1h-4 1v-1zm5 1-2-2h-3l-1 1h-2v-3h1v-1h-1v-1h1l1-1 1-1v-1h1v-1h-1v1h-2v-1h-1v-1h1-1v-2h-1v1h-1v-3l1-1v-1h-1 1v-4h1v-1h3v2h1v-1l-1-2v-1l1-1h2v2l1 1v1l1 1 1 1 1 1v1h1v1h2v1l1 1 1 1 1 1v1l-1 1v1h-2v-1l-1-1v-1h-3v2-1l-1 1 1 1v1h1l-1 1-1-1v1l1 1v-1h2l1 2v1h-2v-1h-1 1v1l1 1v1l-2 1v-1h-1v1h1zm-38-28-1 1h-1v1h-2v-2l-1 1v5h2v1l1 1v1h1-1v1h-1v1h-1l-1-1h-1l1 1 1 1h-1v1h2v1h1v3l-1 1h-1l-2-1 2 1 1 1-1 3h-1l-1 1h-1v-1 2h-1l-1 1h-1l-1 1h-2l-1-1v-1l-1-1v-2l-1-1v-2l-1-1v-2l1-1 1-1v-1l-1 1v-2h1-1v-1h1v-2h-1v1l-1 1-1 1v2h-1v-1h-1v1-1h-1v-3l-1-1v1h1v3h-2l-1-1h-1l1 1h1l1 1v1h-1v1h-1v1h-3l-1-1-1-1h-2l-1-1v-2l1-2h1v-2 1l-1 1-1 1h-2v-2l1-1h1v-1h-1v-1h1l-1-1 1-1v-1l-1 1v2l-1 1h-1v1h-1l1-1 1-2h-1v1h-1v-1h-1v-1 2l-1 1h-2v-1h-2v-1l-1-1v-1h1v-1h2v-1l1-1h-1v1h-1v1l-1-1h-1v1h-1v-3l1-1h1l1-1v-1l-1 1h-1v-1l1-2v1l-1 2v1h-1l-1 1-1 1h-1v-1h-2l-1-1h-1v-1l1-1 1-1h1l1-1 1-1h-1v1h-1l-1 1h-1v-1h1v-2h-1v1h-1v2h-2l-1-2v-2h3v-1h2v-1h1-4v-1 1h-2v-1h-1v-2h3v1l1-1v1l1-1h1v-1l-2 1-1-1v-2l1 1h1v-1l2 1-1-1h-2v-1l-1-1h-3v-1h1l-1-1v-2h-1v2h-1v-1l1-2-1 1v1h-1v-1h1-2v-2 2h-1v1-1h-1 1v-1h-2v-1l-1-1v1-3h2-3v1-1h-2l1-1v-1l1-1h-1l-1 1v-1l-1 1v-1h-1v1h-1v-1l-1-1-1-1h2v1l1-1-2-1v-1h2v1h1v-2h-1l-1-1h2v-1h-1 1v-2h2v2h1l-1-1h1v-1h-1v-3l1-1 1 1h1v2-1l1-1v1l1 1v1l1 1v1h-1v1h-1v2h-1 1v-1l1-1h2v1h1l1 1 1 1v1h1v-2l1 1h1v-1h-1v-1l-1-1v-1h1l1 1 1 1 1 1v-1l-1-1v-1l-1-1v-1h-2v-2l-1-1v-2l-1 1v-1h-1v-1 1h-1v-1h-1v-1h-1v-1h1v-1l-1-1h-1v-1l-1-1h1v-1l-1-1v-1h1v2h1v1-4h-1v-1h1v-2l1 1 1 1h1v1-1h1v2-1h1v1h1l1 1v1l1 1v-2h-1 1l1 1 1 1h1l-1-1v-1l-1-1v-1h-2v-1h-1v-1l-1-1h-1v-2h-1v-3h1v1h1l1 1h1l2 1h1l1 1 1 1 1 1h2l1 1h1v1h1l1 2h-1v1l1 1h1v1l1-1v2h1l1 1v1h1l-1 1h2v-1 2h2v1h1l-1-1v-1h3v-1h2v-1 1-1h2l1 1h1v1l1 1v2h-1v1h-1v2h-3l-1-1h-1v-1l-1-1h1v-1h-1v2l1 1h-2v1h-3v1l-1-1v2l1 1 1 1v1l-1 1-1 1-1 1v1h-1v2h-1v1h-1v1l1 3v1l1 1v1l1 1v1l1-1v1h1v1l-1 1h1v1-2h1v1l1 1h1l-1 1h1v1h-1 1v-1h1v1-1h1l1-1 1-1v3h-2v2l1 1h1v2h-1 2v-1 1h1l-1 1 1 1h1v1l1 1v1h2v2h1v1h1v-2h-1v-2h-1v-1h1v-1h2l1 1h2l1 1h2l-1-1h-1v-1l-1-1 2 1h3l1 1h5l1 1h1l1-1 1 1h1v3l1-1h1v-1l1 1v-1h1l1 1v1h2l1 2v3h-2l-1-1h-3l1 1 1 1h2l1 1h1l1 1 1 1v5l-1 1h1v2h-1v2l-1 2v2l-1 1v1l-1 1-1 2-1 1v1h-1l-2 1h-2l-3-1v-1l1-1 1-1 1-2 1-3 1-1v-1l-1-1v-6l-1-1v-1l-1-1-1-1-1-1v-1l1-1h2v-1h1zm-19 25h-5l-1-1-1-1v-1l-1-1h-1v-3h-1v-1h7l1-1h2v1h1v4h2v5h-1l-1-1zm72-7h1v1l1 1v1l1 1 1 1h1l-1 1v1h-1l-2 1h-2v-1h-1v-5l1-1v-1zm26-3v-1l-1 1h-2v2l-1 1h-2l-1-1-2-1v-2l1-1v-1h-1v1-1h-1v1l-1 1v1h-1v1l1 1v2-1h-2l-1-1-1-1-1-1v-1h-1v-4l-1-2v-2h-1v1h-1v2l1 1v5l1 4v1h-1v1h1v1h-1l-1-1-1-1v1h-1l-1-1-1-1h-1v-1l-1-1v-4l-1-4v-1h-1v-2l-1-1v-2l1-1v-1l-1-1-1-2-1-1h-1v-1h-1l1 1-1-1h-1v-1l-1-1h-1v-1h-2v-4h1v2-1h1v-1 1h1v1l1-1v-2h1l1 1h1l-1-1v-3 1l-1 1h-1v1h-1v-2h-1v-2h1l1-1h1v-1l1 1 1-1 1 1h3l1 1h-1l1 1h3v2h1l1-2 1-1h1l2-1h1v-1l2-1h4l1-1h5v1l1 1v3l2 1h5v1h1l1 1 1 2v3h-1l-3 1h-11v1l1 1 3 1h1l1 1 1-1h9l2 2 1 1-1 1h-1v1h-1l-2 1h-2v1h-2v1h1l3-1h4v1h-1v1h3v3l-1 2-1 1h1v2l-1 1-2 2-1 1-1 1-3 1-3 2h-1v-2l-1-1v-1h1v-2zm-50 3h1v2h-1zm-62-163h1v-1h1l1-1 1-1h2v-1h1l-1 1 1-1v1l1-1h-1v1-1h-1 1-1l1-1v1h4v-1 1-1h2v-1h1v-1h-2v-2l1 1 1-1h2v-1h-1 2v1h2v-1h1v-1h2v-1h2v1h-1v1h-1v2h-1v1h-1v4h-1v4h1-1v-1h-1v-1 1-1h-1l1-1h-1v1-1h-2v1h-1v1h1v1h1v1h1v2h3-1 2l1 1v-1l1 1h3v1h2l-1 1h1-1v1h1v2h1v2h3v2h1v1h2l1 1h2v-2h1l-1 1v1h1v-2h1v-1 1h1v-2h4v1h1v-1h2v1h2v1h1v1h1l1-1h1v1h2v1l1 1v1-2h78v1l1-1v1h-1v1h1v1h1v-1h1v1h1-2 1v2-1h2l1 1v3-1h4-1v1l1-1v2h1l1-1 1 1 1 1v1l-1 1h-2 2v-1h1v4h-2v-1h-1 1v3-1l1-1h1v-1l1-1v-1 1l1 1-1 1v1h-1 1v-1 3l1-1v2l1 1h1v1h-1l-1-1h-1l-1-1v1h2l1 1v1h-1 2v-2h1v-1 1h1v1h1v1l-1 1v1h-1 2v3l-1 1v1l-1 1h1v-2 2l1 1h-1v2h1l1 1h1v1h1l1 1v-1 1h1-1l1 1v1h1v2l1 1v1l1 1v1l1 1 1 1v1h1v1h1v1l1 1v1l1 1 1 1v-1h1l1-1v-1l1-1h1v-1h1v1h1v1l1 1h1v1l1 1 1 1v2h1l1-1h3v63h-3l-2-1-1-2h-1l-1-1h-1l-1-1-1-1h-3l-2-2v2h2v1h-1 1v1l-1 1v1l-1-1v2h-2v1h-1v-1h-1v-1h1v-1h-1v1h-2v1l-1 1h-1v1-1h-1v1l-1 1h-2v1l-1 1h-3v-1l3-2v-1h2v-1h2v-1l1-1h1v-1h1v-1l1-1v-1h-1 1v1l-2-1-1 1h1v1l-1 1h-1v1l-1 1v1l-1-1h-1v-2 1l-1 2-1 1v1h-2l-1 1h-1v1-1l1-1v-1l-1 1-1 2-1 1-1 1h1v3l-1-1-1-1-1-1v-2h-1v-2l-1-2h-1v-1h-2v3h-1v2l-1 1v-3h-1v-1l1-1v-1h-3v1h-1v2h-5l-1-1h-1l-1-2h-1l-3-1-1-1h-1v-1h-1l-1-1h-4l1 1h-2l-1-1h-1l-1-1-1-1v-2h-1v-1h3v-1h1v-2h-2v-1h-8l-1 1h-2l-1 1h-1v-1h-1v-1h-2v-2l-1 1v-1h-1l-1-1v-1l1-1 1 1v-1l-1-1h-1v-2l-1-1h-1l1 1 1 1v2h-1v-1 1-1h-1v1h1l-1 1h1v2h1-1l1 1v3l-1 1h-2v1h-1v1h-1v1h-1v1h2v-2h2v-1h1v1l1-1 1-1 1 1h1l-1 1-1 2h-2l-2 1-1 1h-2v-1l-1-1v-2l-1-1v1-1h-1v-1h-1v-1l-1 1h-2v-1l-1-1-1-1h-4l-1 1h-3l-1-1h-1l-1 1v2-1l-1-2h-1l-1-1-1 1v1h1v1h1l1-1v1l1 1v2h-2v1h-2v-2h-1l-1 1v-1l1-1v-1l-1 1-1 1v-4l1-1-1-1v-1h-1v-1h-1v-1h3l-2-2v-1 1l1 1v1l-1-1h-1v5l1 1-1 2v1h-2v1h-1l-1 1v1h-1v3l1 1v-2h2v2h-1l-1 1h1v2h-2l1-1h-1v2h1v-1h1v1h1v1-1h1l1 1v1h2v1l1 1v4h-1v1l-1-1 1 1v1-1h1v6l-1 1-1-1-1 1v1h1v1l-1 1v1l-1 1h-1v-1l-1-1h-2 1v-1l-1-1-1-1-1-1v-4l-1-1v-1h-1v-3h-1v1-1l-1-1h2v1h1v-1h-1v-2l2-1v-1h-2l-1-1-1 1h-1l1-1h-3v-1h1v-1h1l-1-1v-2h-1v-1h1l-1-1 1-1-1-1v-1h-1v3l-1 1v3l-1 1h-1v-1l-1-1h-1v-1l-1-1v-4h1v1-5l-1-1-1-2v-1h-1v1h-1v1h-1v3l-1 2-1 2v3h-2v3h1v6l-1-1-1 1h-1l-1-1-1-1h-3v-1h1l-1-1h-1v-1h-1l-1-1v-1h1v-1h-1l-1-1v-1h1v-1h3v-2l-1-1v1-2l-1-1v-1h-1v-2h-1l1-1v-2h1l1-1v-1h1v-1h1l1-1v-1h1v2l1 1h1v1l1 1h1v-1h-1l-1-1v-1h-1v-3l1 1v-1h1l1 1 1 1v1h1l1-1 2 1v-2h-1l-1-1v-1l2-2v-1l1-1v-1h2l1 1v1h1v1h1l1 1h4v1h2v-1h-4v-1h-1v-1l-1-1-1-1h-5v-3l2-3v-1h1v-1h3l-1-1h1v1h1v1l1-1v-2l1-1h2l1 1h3l1 1 2 1v1-2h-1 1-1l-2-1h-1v-1h1-1l-1 1v-1h-1v-1h-1l-1-1v-2h1l1-1h3-1v-1h-1l1-1v1h1v-1h1v-1h-1v-1l1 1h1-1l1-1h-1 1v-1h1v-1h-1l1-1 1-1v-2l1-1v-1l1-1v-7l1-1v-1h-1v-1h-1v-3 3h-3v-2l-1-1v-2l-1-2v-2l1-1h-1v1h-1l1-1-1 1-3 1h-1l-1-1h-1l-1-1h-2l-1-1-1-1-1-1-1-1-1-1h-1l-1-1h-2v-1h-1v-2 1h-7v-1h-2v-1l1-2v-1l-1-1v-6l-1-1-1-1h1v-1 1l-1-1h-1v-1l-1-1-1-1v-1h1v-1 1h-3v-1l-1-1v1h1v2l-1 1v-1h-1v-1 1h-1l1 1v1l-1 1v4h1v5h1v2h1v1l-2 1-1 1h-1l-1 1h-1l-1 1v1l-1 1v1h-1v6l1 1v2l1 1 1 1 1 1 1 1h1v2h-1v1h-1v3h-1v-1h-1 1v1l-1 1h1l-1 1h1v3h1v1h-1 2v1h-1v3h-1v1h1v1l1 1v2h-1v1h-1v1h-1l-1-1h-1l-2-1v-1l-1 1h-1l-1-1-1 1h-1v1h-1l-1-1-1-1h-1v-1l1-1h-1v1h-1v-2h-2 1v-1h-1 1v-1h-1v-1h-4v-1h-1v1h-1v-2h1v-4h3l-1-1v1l-2-1v-3h-1v-2l1-1v1-1h1l-1-1v1h-1v1h-2v-1h-1v-3l1-1h1v-1l-1 1h-1v2h-1v-1 1l-1-1v-1 1l-1 1h-1l-1 1v1h-1v-2l-1 1 1 1h-1v1h-1v1h1-1v2l-1-1v1h1v2h-1v-1 3h-1v1l-1-1v-1h1-1l-1-1 1-1-1 1v-2h-1 1v-1h-1l-1-1h1v-1h1-1l-1 1v-2h-1v-1h1v-1h1-3v-1h1v-1h1-1l-1 1-1-1-1-1v-1l1-1h1-2v-1h-1v-3h2v1h1v-1h-1l-1-1v-1h-1 1-1v-1h-1 1v-1h-3v-1 1-2h-1l1-1v-1h1-1l-1 1h-1v-1l-1 1v-1l1-1-1 1v1l-1-1v-1h-1v-1h-1v1h-1v-1h-1v-1h1l1-1 1-1h1l1-1h2v-1h1l-1-1h1-1l1-1h-1v1h-1v1h-1l-1 1-1 1h-2 1v1h-2v-1l-1-1v-1h1-1v-1l-1 1v1h-1v-1h-1l-1-1v-4h1-1v-1h1-1v-1l1-1v-1h1l1-1h3v-1h2l1-2 1-1h1v-1h2l1-1v1-1h3v1h12v-1h2v-1l1-1v-1h1l1-1h1l1-1 1-1 1-1 1-1h1l1 1h2-1v-1h-3v-1l1-1 1-1 1-2h1v-1h2l1-1 1-1h1v-1h1v-1h1l1-1h1-1v-1h1zm72 141h1v1h-1zm-38-3h-1v-1h2v1zm30-4h-1v-1h-1l-1-1-1-1v-2l-1-1h-1v-1h1v-1h1l1-1h3l1 1 1 1v1l1-1h1v1h1-1 1l1 1v1h-2l-1 1v2h-1v-1 4h-1l-1-1zm-51 1v-1h2v-1h1v1-1 1h1v1zm-4 0v-1l1-1h2l-1 1h-1v1zm-28-2h1v1h-1zm200 0v1h-1zm-123 0v-1h1v1-1h1v1l-1 1zm16-1h1l-1 1h1-1zm-68-2h1l1 1-1 1h-1zm38 2h-1l1-1zm-31-4v2h-1v1h-1v1h-1v-1l1-1v-2zm31 3h1v1zm27-2v-1 1h1v1h-1zm1-2h1v2h-1zm4-1h2l-1 1h-1zm-75-2 1 1v1h-1v-1h-1v-1zm83 0 1 1v1h-1zm-72-1h1v1h-1zm-9 1-2-1v-6h1l1-1h4v5l-1 1v1h-1v1zm30-5h1v5l-1-1zm64 2 1 1h-1zm-100-1h3v2h-2v-1h-2v-1zm100 1h-1v-1zm-4-4v-1l1 1v2l-1-1zm-127-3h1v1h-1zm128 0h-1v-1h1zm-70-5h-1v-1h1zm1-4h-1v-1h1v1h1-1 1l1 1v2l-1-1-1-1zm3-1h1v3-1h-1zm1-2h-1v1h-1v-1h-1v-1h-2v-1l-1-1h-1l-1-1-1-1v-3h-3v-1h-1v-2h1l1-1 1 1h1l1 1h1v1l1 1 1 1v-1h1v-2l1-1h1l1-1v-1h1l1-1 1 1v3l2-1h2v1l-1 1-1 1h-1v1h1v3l-1 1v6l-1 1h-1v-1h-1v-1h1l-1-1zm-21-8 1-1v1zm-2-4h1l1 1-1 1-1-1zm3 0h-1v-2h1l1 1 1 1zm12-3h-1v-1h1v-1l1-1 1-2h1v1l1-1v1l1 1-1 1-1 2zm-33-2h1l1 1v1-1h-2zm10 0h1l1 1h-1v-1zm-26 0h-1v-1h2-1zm42-1h-1v-3l1-1v-1h1v1h1v2h-1v2zm-41-4v1-1h-1 1v1zm79 0v1h-1v-1zm-80-3 1 1 1 1h-2zm39-3h-1zm-29-3v2h-1v-2zm-11 1v-1h1v2-1zm44-4v1zm1 0h-1zm-32-4h1v1zm30-8v1zm-50 0h-1 1v1zm51-4v1h-1zm-1 0v1-1h-1zm-2-2v-1l1-1v1h-1 1v1-2h1v1h-1 1v-1h1l-1 1v1l-1 1v-1h1v-1l-1 1v2-1h-1zm3 0v-1 1h-1v1-1zm-3-1v1l-1 1v-2zm-50 0h-1zm195-7v1h-1v1-1zm1-1v1h-1v-1zm5-2h-2v-1l1-1h-1v2h-1v-1l1-1v-2h2v1h-1 1v1l1 1v1zm-7 0v-1h1v1zm-1-4 1 1 1 1h-1l-1-1zm-140 0v1zm138 0v1zm-2-1v-3h1v2-1 1h1v2h-2zm9 1v-2l1 1v-1h-2l1-1-1-1h-1v-1h1v1h1v1l1 1h1v1h-1 1v1zm-143-2h2l1 1h1l-1 1h-2l-1-1zm136 1h1v1zm-1-2h1v1zm-1-1v2h-1v-1h1zm7-2v1zm-145 0h1l-1 1zm136-2h1v1h-1zm-203 0h1v-1h1-1v-2h1v-1l1-1v-1h1v-2l-1 1-1 1v-1l-1 1v-1l-1 1v-1h1l1-1h-1l1-1h-3v-1h1-1v1-1 1h-4v-2h1v-1h-1v-1h1-2v1h-1v-1h1v-1h1v-1h1-1l1-1h-1l-1 1h-1v1-2h1v-1h-1v1h-1v-1l1-2v-2h1v1l1-1v2h1v-1 4h1v-1l1-1-1 1h1v-1h1v-1l1-1v1-1h1v1h-1v1l-1 1h-1v1-1h1v1h1v-1h2-1v1h1l1-1h3l1 1h2v-1h2v2l-1 1h-1v1h-1 2v1h-1 1l-1-1v2l-1 1v-1h-1v1h1v1h-1v1-1 1l-1 2v2h-1v1l-1 1v1h-1v1h-2v1h-1zm201-4h-2l-1-1h-2v-1l-1-1v-2h-1l-1-1h-1v-1l-1-1v-1 1l-1-1h1v-1l1 1h2l1 1h1l-1 1v1-1h2l1 1h-1 1v1h2v1h-2 2v1h1v1h2v1h1-1v1h-1v-1 1h2l1 1h-2zm-201 1h1zm196-3v1h-1v-1zm-178-4h3l2 1v1h1l1 1h-4v-1h-1l-1-1zm182 2h1v1h-1zm-7-1v1h1v1-1h-1zm-197 1h1zm2 0v-1 1h-1zm200-1v-1h1v1zm-165-18v1-1l1 1v2h1v6h3v1h1v-1l1-1v-1h1v-2h1v-2l1-1v-1h2v-1h9l-1 1h-2v1l-1 1v1h-1v1h-2v1h-1l-1 1h-1l-2 1-1 1v1h-1v1l-1 1-1 1v1h-2v1h-1l-1 1h-1l-2 1h-5l-1-1v-1 1-2l1-1h1v-1h2v1h1v-1h2-3v-1h-3v-1l1-1 1-1h-2l1-1h-1v-2h-2v-1l-1-1h-3l1-1h-1l-1 1h-1v-1h-1v1-1h-1l1-1h-1 1v-1h2l1-1h2v-1h1v1-1h2v-1l1-1v-1h2v-1h1v1h1v2l-1 1h1-1v1h-1 1l-2 1h-1l-1 1v-1h-1 1l-1 1h-2 5l-1 1-1 1h1v1-2h2v-1h2l1-1zm158 16 1 1zm0-1v1zm-100 0h1v1h-1zm-1 0h1v1zm-65-3h1zm0 0 1-1zm60-1h1zm-88-1h-1v1-1zm21-1v1h-1v1-1h1zm5-3h-1v-1l-1 1h-2l-1-1h2v-1h1v1h1v-1l1 1h1v1h1v1l-1 1v-2zm-7-2h-1l1-1h-1l-1 1h1-1v1h-1l-1-1h1-1l1-1 1-1h3v2l-1 1v1l-1 1v1h-1v-4zm28 3v1h-1zm36-3v1zm-2-1h1v1h-1zm-1 1v-1h-1v1-1 1h-1v-1 1h-1v-1h-1l1-1v1l1-1v1h3v1zm-26-2h1-1v1zm0 0h1-1v1zm-36 0h1zm54-3h1zm-37 0v-1zm-2-2h1zm29-1v1h-1 1zm1 0v1h-1zm-48 0 1-1v1zm64-9v1zm-308-114-1-1v-1h-1l-1-1-1 1h-3v-1h-1v-1h-1v-1h-1v-3h-1v-1l1-1 1-1 1-1v-1l1-1v-5h2v-4h-1v-7h-1v-1h1v-1l-1-1-1-1-1-1v-1l-1-1v-1h5v-1l1-1h1v-1h-1v-4l1-1v-2h-1v-1h-1l-1-1v1h-1v-4 1h2l1 1v1h1l1 1h1v1h1v1h1v-1h4v2h2v-1h1v1h1v1l1-1v1h1v-1h3v4h1v7h4v1h2l1-1v-2h6v2h1v2h1v2h12-1v2h1-1v1h-3v1h-2v-1h-1l-1 1h-1v1h-1v1l-1 1v3l-1 1v1h-1v1h-1v1h-1v2l-1 1v5l-1 1v1l-1 1v4l-1 1h-1v1h-1v-1h-1l-1-1h-1l-1-1h-4v1l-1 1-1-1h-1v1h-5v1h-3l-1-1v1z"/><path d="m471 233v-1h-1v-1l-1-1v-2h1l-1-1h-1l-1-1h1-1v-1h-2v-2h-1l-1-1h-1v-1h-1l1-1h-1v-1h-1l-1-1v-1h1v-1l1 1h3v-1h5v-1h1l1 1 1-1v-1h4l1 1h1l1 1h1v1h1v-1h1l1-1v-3h2l1 1h1v-1h2v-2l1-1v1l1 1 1 1 1 1v1l1 1v2h1v1h-1v1h1v1h-1v1h-1v2h-2l-1 1h-1l-1-1v1h-2v1h-3l-1 1v2h-5v1l-1 1h-1v1h-1v1h1-1v1z"/><path d="m483 212v-1l1-1v-1l1-1v-5l1-1v-2h1v-1h1v-1h1v-1l1-1v-3l1-1v-1h1v-1h1l1-1h1v1h2v-1h2v1h1l1-1h1v-1 2h1v1h1v1l-1 1v-1h-1v1h1v1h-1 1v2h-3v1h1-2v-1h-3 1l-1-1v1l-1 1v4h1v1h1l-1 1v1h-1v2h3v1h1-1v1h-7v-1h-1v2l-1 1v2h-2v1h-1l-1-1zm26 142v-1h-1l1-1h-1v-1h-2v-2l1 1v-2 1h1v-1h1v1-1h1v-1h1v1h1v1l1-1v-1h3v2h2v-1h1-1v2h-1v2h-1v1h-2v1h-3 1v1h-1v-1zm42-122h-1v-1h-1v-1h-2l-1 1h-2v-1l-1-1v-2l-1-1h1v-1l1-1v-2l1-1h-1v-2h-1v-2h1v1l1-1h1l1 1h1v-1l-1 1v-1h5l2-1h1l1-1h1v2h-1v2h1v1h2v1h1l-1 1v2h-1v2h1l-1 1h-1v-1 1h1v1h-1l1 1v2l-1 1h-1v-1h-1v1h-1v1-1h-1v1-2h-1v1zm-7-15h1zm180-80h-1l1-1v-2l1-1h2v-1h1v-1h-1v-1h1v-2l-1-1h1v-1l-1-1v-1h2v-2h1v-1h1v-3h1v-3h-1v-1h1v-1h1v-6h-1v-3h-1l1-1v-1h-1v-1h1v-1h1v-5l1-1 1-1v-7h-1l1-1h1v-3h1v-1h-1 1v-8h1v-4h-1v-5h-2v-1h3v-1h-2v-2h1v-2h-1 1v-5h1v-2h1v-1l-1-1v-1h1v-2h1v-1h1v-1h1v-3l-1-1v-2h-3v-2h1-1v-1l1-1h-1v-1h-1v-1h-7l-1-1h-2 3l1-1h1l1-1h1v-1l1-1v-4l1 1h1l1 1h1v1h-1l-1 1v-2 2h-2v2h1l1-1 1-1 1-1v-1l1 1v3h-1v-1l-1 1h-2l1 1h1l1-1v1h1v-3h1l1 1-1 1-1 1h1v-1 1l1-1h1v2-1l1 1v1h-1v-1h-1v1l-1-1v1h-2v-2 4h1l1 1v-1h-2v-1h1l1-1h1v1h1v1h1-1v2h2l1 1v1h-1v2-1h-1v-1h-1v-1l-1 1v1l1-1h1v1h-1 1v1h1l-1 1h-1l1 1v1h-1v2-1h1v-1 5h-1 1l1 1v1h-1v-1h-3 1v2l1-1h1v1h1-2 1v4-1h1v1h1v1-1h1v-1h1v1l-1 1-1 1v1l-1 1v-1l-1 1h-1v1-3h1-1v2h-1v-1l1-2h-1v4h-2l1 1h1-1v1h-1v1h-1v1h1v1h1v1h-1v1l1 1h-1v4l-1-1v1h1l-1 1v-1 2-1h1v1h-1l-1 1h2l1-1h1v1h1v3l-1 1v2l-1 1v2l1 2v5h-1v2h-1v2h-1v3h-1v2l-1 1v2h-1l1 1v1h-1v5l1 1-1 1 1 1v1l-1 1v4l-1 1v3h-1v6h-1v6l1 1h-1v2l-1 1v8l1 1v3h-1l-1 1v1h-1v-1h-1v-3l-1-1v-5h-1v-3h-1v-3zm118-13h1zm-85-21h-1zm-15-35h2v5h-1v1h-1v-1h-1l1-1v-2h-1 1zm3-1v1zm-2-1h-1 1v1zm-1-2h1v-2h-1 1-1v-1h1v-1 1h1v2h1-1v1h-1v1h-1zm-2-1 1-1v1h1-1v1h-1zm2 0h1l-1 1zm4-1v1zm-2-3h1v1h-1v1zm2-9 1 1h-1zm-1-3h1v2h1v1h-2zm2-1h1v1l-1 1v2-1l-1-1v-1h1zm-3-1v-1l1-1h-1v-1l1-1v1h1l-1 1v1l1-1v-1h1v2h-1v3h-1v-1zm2 1 1-1v-1h1v1h-1l1 1zm0-6 1-1v2h-1l-1-1zm1-2v1h-1 1zm-2-3h1v-1h1v1h-1l-1 1zm0-1v-3l1 1v2zm-2-1 1-1v1zm-15-4v-10h3v1-1h3l1 1h2v1h-4v-1 1l1 1v3h-1v-2h1l-1-1v-1h-3v-1 1h-1 1l2 1v2l-1 1h-1v1h3v2h-1 1v1h-1v-1 1h-1v1h-1v-1h-1l-1 1zm16-1h-1l-1-1-1-1h1v1h2v1h1v1zm-4-3h-1v-1h-1v-1h1l1-1v2l1-1h-1 1v1h1v1h1l-1 1-1-1v1h-1zm-4-2-1-1v-1h1v1h1v-1 1h1v1zm-1-4v-1h-2v1-2 1h2v1h1v-1 1zm-4 0-2-1h-2l1-1h-1v-1h-1v-1h1v1h2v1h1v-1h1v1h1v2zm-7-2h3v1h-3zm0-3h1v1h-1zm1 0h1z"/><path d="m492 223h1v-2h1v-1h1v-1h-1v-1h1v-1h-1v-2l-1-1v-1l-1-1-1-1-1-1v-3h1v1h7v1h6v-1h3l1 1v4h1-1v1h1v-1l1 1v1h2l-1 1v2h-1v2h-1l-1 1-1 1h-2v-1h-1v-1l-1 1v1h-1v2l-1 1v1h-1v1l-1 1v1h-1v2l-1 1v1l-1 1h-1v1l-1 1 1 1h1v2h-1v-1h-1v-1l-1-1v-5h-1v-1h4v-1l-1-1-1-1h-1v-1l-1-1v-1zm-268 37v-2h1v-2h1l1-1h-1 4v1h1v1l-1 1-1 1h-1v1zm2 3h-1zm-7 2h1zm0 0v-1zm-20 11v1zm-4 9v-1zm-3 5 1 1h-1zm1 5h1v1h1-2zm-4 85-1 1v-1h-1l-1-1h-2l-1-1h-1v-2h-1v-2h-1v-3h-1v-2l-1-1v-2l-1-1h1v-1h-1v-1h-3v-1h-2v-1h-1l-1-1h-1v-2h-1v-1h1l-1-1v-1h-5v1h-2v1h-2v1h-1v-1h-1l1-1v-1h-1v-1h2v-4h1v-3h1v-1h1v-2h2v1h2v-1h1v-1h1v-1h-1v-6h1v-1h1v-1l1 1v1h1v-2h2v-2h3v-1h-1v-1h3l1 1h1v-1h1v-1h1v-1h1v-1h2v-1l1-1h1v-1h3v-1h2v-1h1v-1h1l1-1v1h1-1l-1 1v1h1l-1 1v-1 2h-1l-1 1v1h1v1h3v-1l1-1h1l1-1 1-1h1v-2h2v-1l1 1h1v-3l-1-1h-2l-1-1v-1h1v-1h-3l-1 1v1h-2l-1-1h-4v-1h1v-1h2l1-1h1v-1h1v-1h1v-1h1v-1h1v-1l1-1v-1h-1l-1-1h-1v-1l-1-1v-2l-1-1v-1h-1v-1h-1v-1h-1v-1h1l1 1h4-3v-1h-1v-1h-1v-1h-1l1-1h1l1-1h2v-1l-1 1v-1h-1l-1 1v-1h-1v-1h-1l1-1h-1v-1h2-1v-3h2v-1h1-1l1-1v-1h1v-2h1v1-1h1-1v-1l1-1h1-1v-2h1l1-1v-1h2v-1h1-1v-1h1v-1h2v-1h1v-1h1v-1h5v-1 1l1-1h1v1h1v1-3h1v-1h1v1-1h1v1-1h2v-1h3v-1 1h1v-2l-1-1h2v1h1v1h-1v1h1v1-1h1v1h2l1-1h1v1h2v1-1 1h1v2h1v1h2l1 1 1-1v-1h3v-1l1 1h1v-1h1v1h1v-1h2v-4h1v1h1v1l1-1h1v1h1v1h2v2h-1v1h2v3h3v-1l1 1h-1v1h1v1h-1v2h-1v1h-1v1h-1v4l1 1h1v2h1v1h1v-1h2v1h1v-1 1l-1 1h1v1-1h1v1h-1l1 1 1-1h4v-1h1l1-1h1v-1h1v-1h2v-1h1v1h4v1h2v-1h1v-1h1v-1 2l1 1v-1h5v1-1h1l1 1v-1 1h3v1h-1 2v1h1v1h2v1h1l1 1h1l1 1v1h2v-1h1v1h2v1h1v1h2v1h1v1h1l-1 1h1v2h-1v-1h-1v3h1v4l1 1h1v3h4v1h2v3h2v1h2l1 1h-2v3h1v1h-1 1v1h2l1 1h-1l1 1v1h-1v2h-1l-1 1h-1v1-1l-1 1h-1v-1h-2v1h-1v2h-1l-1-1-1 1h-1v1h-1l-1 1h-1l-1 1h-2v3l-1 1h1-1v3l1 1v3h1v1h-3l-1 1h-1l-1-1v1h-1v-1 4l-1 1v3h-1v1l-1-1h-3v-1h-1v1h-2v6h-3v3h-3v-2h-1 1v-1h-2v-1l-1-1h-2v-1h-1v1-1h-1v-1h-1v-2h-1v-5h1v-2h-1l-1-1h-6v-1h-1l-1-1h-1v-1h-2v-1h-1v-1l-1-2v-1h-1v-1h-7l-2-1-1 1h-2v-1h-3l-1-1h-1l-1-1h-2l-1-1-1 1h-1v-1h-2l-1 1h-1l-1 1h-2l-1 1h-6l-1 1h-2v1l-1 1-1 1h-1v1h-1l1 1v1h1v1h-1v2h-2l-1-1h-3l-1 1-1 1h-3v1h-1v1h-1v1l-1 1h-2v1h-2v1h-3v-1h-2v2l1 1 1 1v1h1l1 1h2v-1h6v2h-1v3h-1v2l-1 1v1l-1-1h-2v-1l-1 1-1 1h-2v1l-1 1h1v1h-1v2h-1v2l-1 1-1 1v3h1l1 1h-1l-1 1v1h-2l-1 1h-4v1h-1zm547-144h1v-1l1-1h1v-1h1v-3h1v-2 1h-1v-1l-1-1v-1h-1v-1h1v-1l-1-1-1-1h-2l-1 1-1-1h-1l-1-1v-1h-6v-2h1v-3l-1-1v-1l-1-1h1l1-1h-1v-1h-1v-2h-1v-2h1v3h1v-1h6v-2h-1v-1h-1 1-1 2v-1h1v-2h-1v-2h-1v-2l1-1v-4l1-1v-1 1h2v1l-1 1-1 1 1 1h1v1h1v-1h1v1h1v-1h4v2h1v1h1v1h1v1l1 1h1v1h2l1 1h1v-1l1 1v-1 1h2v1h1l1 1h1v1h1v1h-1v2h-2v1h-1v1h-1v2h1v1h-1v1l1 1h-1l1 1-1 1v1h1v2l1 1v1h-2 1l-1 1v1h1v1h-1v-1h-1v-1 2l-2 1v1h-1v2h-1v1l1-1-1 1v1h-1v1h-2v-1h1-1v1l-1 1-1-1-1 1-2 1h-1v1h-1v1h-1l-1-1v-1zm34-3v-1l-1-1v-1h-1v-1h-1 1v-4l1 1v1h1v-1h-1 1v2h1l1 1h1v1l1 1h1l-1-1v-1l1 1h1v3h1-1v1l-1-1h-4v-1zm-5 36h-5v-1h-1v-1h-3l-1-1h-1v-1h-2 1l-1-1v1l-1-1h-1l-1-1h-1v-1h-2l-1-1h-1l-1-1h3v-1 1h1v-1l1 1h3l1-1h2l-1 1-1 1v1h3v1h1v2h1l1-1 2 1h1v1h2v1-1h2v1h1-1v1h3v-1h1v-1h3v-1h1v1-1h1l-1 1h-1v1l-1 1-2 1zm-7-1h1zm-2-1h-1zm-2 0h1zm0-1v1zm-1 0h1zm14-2h2v1-1h-1v1h1l-1 1v-1h-1zm-161-13h1zm-1-1h1v1h-1zm-2 0h1v-1 1zm-3-1h-1v-1h1zm1-4h1v1h-1zm-1 1h1zm128-10h1l1 1h-1v-1zm-289 73 1-1v-1h1v-1h2v-1 1l1-1v1l1 1h-2v1h-3l-1 1h-1zm55 59h-2v-1h-3v-1h1l-1-1v-1 1h-1v1h-1v-1h-1v-1h-3v-2h1v-1h1v-2h3v-1 1h4v1h1v-1 1l1-1v-1h2v1h1v1h2v1h1v2h1-1v1h1v1h1-1v1h-3v1h-2v1h-1v1-1z"/><path d="m512 387v-1 2-1h-1zm-4 0v-1h-1v-1h1-2l-1-1v1h-1v-1h1v-1h-1l-1-1v1h-1l-1 1-1 1h-1l-1-1v-1h-1l-1-1-1-1v-3h1v-1h-1v-1h-1l1-1h-1v-4h-1v-2h1v-1 1h1v-1h2l1-1h1v-1h2v-1 1-1l-1-1 1-1h-1v-1h-1v-1h-1v-1h-1v-2h1v-1h1l1-1h-1v-2h1-1 1v1-1 1h1v-1h3v-1h1v1h1v-1h1v1h2l1 1h2-1v-1h3v4l-1 1v1h1v1h3v1h1l-1 1v1h1v3l1 1h-1l1 1-1 1v2h1v1h-3l1 1h-1v2h1-1v1h-1v3h1l-1 1h-3l1-1h-1v1-1l-1 1h1l-1 1h-2l-1-1 1 1h1v2h1v1h-1v1h1v1zm3-1h1zm-14-1v-1h1v2zm-1-3v1h1-1zm-82-147v-1h1v-1h3v3h-1v1h-1v1-1h-1v1h-1v-2h1v-1h1z"/><path d="m508 387h3v3h2l-1 2 1 1v1l-1 2v-1h-1v1h-1v1-1 1l-1 1h1v-1l1-1h1v1l-1 1h-2v1l-1 1-1 1h-1v-3l1-1-1-1h1l-1-1h-1v-1l1-1v1l1-1v-1h1-1v-1h1v-2l1-1h-1zm-4 12h1zm-4-8h1v-3h1v-2 1l1 1v1h1v2h1-1l-1 1v-1h-1v2h-2zm6 0v1h-1 1zm-6-1v1zm6 1-1-1v-2h2v1h1v1h-1v1l-1-1zm-13-3h1v1zm12-2 1 1h-1v1zm2 1h1v1zm-7 0h1v1h-1zm6 0h1zm-2 0h-2v-1h2zm203-142h1v1h-1zm30 8v2h1-1v4h-4v-1h-1l-1-1h-1 1-1v-1h-2v-1h-1 1v-1h1v1h3v-1h3v-1l1-1v1zm-226 60h1v-8h1l1-1v-3h-1v-1h-1v-2h-1v-1h-1v-2l-1-1v-5h-1v-10h1v-2l-1-1-1-1v-2h-3l-1-1-1-1v-1l1-1 2-1 1-1 2-1 1-1 2-1 1-1 1-1h1l1-1h1l1-1v-1h1v-1h1l1-1h4l1-1h1l1 1h-1v2h3v1h2v1h1v2h2v1l1 1h1l1 1 1 1h1l1 1 1 1h1l1 1 1 1h1l1 1v1h1l1 1h1l1 1 1 1h1v1h1l1 1h1l1 1h1v1h1l1 1h1v5h-1v1h-1l-1 1h-1v1h-2v1h-4v1l-1 1h-1l-1 1h-1v3h-2v1h-5v1h-1 1v1h1v6h1v1h-1 1v1h1-2v1h-1v1h-1l-1 1h-1v-1 1h-1v1h-2v1h-5l-1 1h-6v-1h-1l-1 1h-1v1h-1l-1-1h-1v1h-1v-1h-1zm236-110v-1h1-1v-3l1-1 1-1 1-1h1v-1h3v-1h1v-2h1v-2h1v-1h1v1h1l1 1h1v-1 2h-1 1v1l-1 1-1 1v2h1v-1l1-1v1h1l1 1h-1v3h-1v3h-1v2h-1v1h-2v1h-1v-1h-1l-1-1h-1v-1h-2l-1-1v1h-1l-1-1zm10 3v1zm35-3h-1v-2h-1l1-1h1v1h-1v1h1zm0-1v-1l1 1zm-3-1h1zm-3-1h1v1h-1zm-26-5v-1h1v1zm-321 99v-2l-1-1v-2l-1-1h1v-2l1-1v-2h1l1 1v1h1v2h1v1l1 1v1-1h1l-1-1v-1l-1-1v-1l-1-1h-1v-3h-1v-2l-1-1-1-1v-2l-1-2-1-1h-1v-1h1v-2l-1-1v-1h-1l-1-1h-1v-1h15v1l1-1h17v23h1v4h-1v1l1 1-1 1v1-1h-6l-1-1h-3v-1h-3l-1 1-1 1h-1 1-4l-1-1 1 1v-1h-6zm18 117-1-1h1v-2h1v-6h-1 1v-1h1v-1l1 1 1-1 1 1v1h2v1h2l1-1v3-1h1l1 1v2l1 1h-1 1v1h-1v1h-1l-1 1h-3v1h-1l-2-1h-2l-2-1zm14-4h1v-1 1l1 1h-1v1-1h-1zm-1-1h1zm2 0h-1l-1-1h1v-1h2v-2h1v1h-1v1h1v2-1h-1v1-1 1zm88-125v-4h9v-7l1-1h2v-6h11v-1 4h-1l-1 1v2l-1 1v1-1 1l-1 1-1 1-1 1v2l-1 1v1l-1 1h-1v1h-1v2l-1 1h-12v-1zm-146-42 1-1h2v1h1v1h1v1h1l1 1v1h2v1h3l1-1h1v1h1v1-1h1v-1h1v1-1h2v3l-1 1v4h-2v1h-1v1l-1-1v1l-1 1-1-2v-2l-1-1v-2h-1v-2 1h-1v-1h-2v-1h-1l-1-1-1-1-1-1-1-1-1-1zm9 8h-1 1v1zm117 91v-1h-1v-1h1-3v-1h-5l-1-1h-3v-1 1h-2v-1h1-1v-1h1v-1l2-1h1l1-1h1l1-1v-1h1v-1l1-1 1-1v-3h-1v-1h1v-1h1v-2h1l-1-1h2l1-1 1-1v-1h7l1-1h1v-1h2l1 1v2-1l1 1 1 1h1v3h-1l1 1v1l-1 1v1h1v1l1 1h-2v5h-1v1h-1v1h1v1h4v-1 2h1v-1h1v3l1-1v1h-1 1v2h-2v1h-1v1h-2v-1h-11l-1-1v1h-1l-1-1h-1v1zm-17-14 1 1h1-2zm4 0h-1v-1l1-1v1h2l-1 1h-1v1h-1 1v-1h-1zm4-3h1l-1 1zm43-34v1h-1v-1zm11-1h1v1h-1zm-10-1 1-1v1h-1v2h-1v-2zm6 0 1-1 1 1h-1v1h-1zm3-1v1h-1v-1zm-5 1v-2 1h1zm7-1v-1z"/><path d="m428 243h-2v1-1h-4v-1h-1l-1-1-1-1-1-1-1-1v-2h1v-3h-3l1-1-1-1v-1h-1v-1h-1v-1h-1v-1h-3v-1h-2l-1-1h-5v-1l1-1 1-1h1v-1l1-1h1l1-1v-1h1l1-1v-1h5v-1h1v-1h3v-1h2v1h2l1-1h1v-1h4l1 1h1l1 1 1 1h3v2h1v1h1v1l1 1v1l1 1 1 1 1 1h2v1h-1v1h-2v4l-1 1v2h-1v-1 1h-1v3h-1v2h-2v2h-1v3h-2l-1-1v1l-1 1h-1zm26 230h1v-1h1-1v-5l-1-1h-1v-1l-1-2h-1v-1l1-1v-1l1-1 1-1v-1l-1-1v-1l-1-1v-2l-1-1v-2h1v-6h-1v-3l-1-1v-2l1-1-1-2h-1l-1-1v-1h-1v-3h1v-1l1-1 1-1v-1l1-1 1-1v-1h1v-1l1-1h1v-1h1v-1l1-1 1-1 1 1 1-1h1v1-1h2-1 1v-1 1l1-1h2v-1h2l1-1 1 1v-1h1-1v1h1v1-1h1v2h2v1h1v8h1v1l-1 1h1v3l-1 1v2h-2v1l-1 1v1h-1l-1 1-1 1-1 1v1l-1 1v1l-1 1h-2v1h1-1v1h1l-1 1v1l1 1 1 1v-1 2h1v-1 1l1-1v3h1v2l-1 1v2l1 1v3h1v1h-1v3h1v1l1 1v1l2 1h1v1h1v1h1v1h1v1h1-2v2h-1l-1-1v-1h-1v-2h-1l-1-1h-1l-1 1h-2v-1h-2v1l-1 1h-1v6h-1v1l-1 1h-2v1h-2l-1-1v-1h-1l-1-1-1-1v-1l1-1zm12-29v1l-1-1zm10-11h-1l1-1zm-1-16v-1h1v1zm-2-1-1-1h1zm1-2h1l-1 1zm1 0v1zm-437-246h1zm-13-16h1zm2 0h1zm-1-4v1zm4 9h1v-2 1h-1 1l-1-1h2v1l1-1h1v1h-2v1zm0-1v-1h1-1zm8-2v1zm-3 0v-1h-1v-2h4v1l-1 1h1-1l-1 1zm-1-1h-1zm-2-2v1zm2-2h1v-1h1v1zm667-113-1-1h-1 1v-1h-1v1h-1v-2h2v-1h2l-1-1h1l1 1h-1l1 1h-1l-1 1zm3-1h1l-1 1zm1 0h-3v-1h1v-1l1-1h1v-1h1v1h-1v1h-1l1 1v-1 1h-1 1zm2-2h-1v-1h1zm-8-1h1zm4-1v1zm-555 198v1zm-57-7h1zm462 205 1-1v1zm1 0v-1h1l-1-1h1v1l1 1zm2-1h-1v-1h1zm-2-2h1v1h-1zm0-2h1v1h-1zm-27-54h-1v-1h-1v-1h-1v-2h-1l-1 1v-1h-1v-1h-1v-1l-1 1v-1h-2v-1h-3v-1h-1v-1l1-1v-4h2v-1l1-1v-1h1v-2h1v-1h-1v1l-1 1-1-1v-3l-1-1h1v-1h1l-1-1v-2h-1v-1l-1 1v-2h1l1-1 1-1h1v-1h1v1h2v1h1v-1l1 1h2l1-1 1-1v-2h-1 2v-1 1h3v1-1l1 1h5v1h3-1v1h1v1l-1 2v2l-1 1h1v-1 3l-1 1v-1l-1-1v1l1 1 1 1h-1l1 2 1 1 1 1v1l1 1h-2 2v1h2v1h4v1h1-1v1h-1 1v1-1l1 1-1 1h-3l-1 1v-1h-1v-1l-1 1h-1v-1 1h-2 1v3l1 1h-2v-1h-2l-1-1-1 1h-1 1v1l-1 1h-1l-1 1h-1v3l-1 1h-2v-1zm12-21v1zm-30-12v-5h1l1 1h-1 1v4h-2v1zm-11-127v-1h1-1v-1h-3v-2h1v-1l1-1h-1v-1h-1v-4l1-1v-1l1 1h-1 3v1h2-1v-1h3v-2h-1 1v-1h-1v-1h1v1l1-1v-1 1h1l1 1v1l1 1h1-1 1v1h1v2h1v1l-1-1v1-1h1v1l1 1v1-1h-1v1h-1v2h-1v-1 1h-1 2v1h-1v1h1-5v4h-6zm40 160 1-1h1v1zm9 12v-1h1v1zm6 9-1-1v-1h-1v-1h1-1v-2h1v-1h2v1h1v1-1h1-1 1v-1h1v1h1v1h-1v1h1-1l-1 1v1h-2v1zm-3 1 1 1h-1zm3 2-1-1h2v1zm-1 0v1h-1 1zm0 2h1v2h-1zm2 1v1zm2 2h1v1h-1zm-3 0v1zm3 1v2zm-3 2v-1h-2l1-1v1l1-1v1h1v1l-1 1zm3 1h-1l1-1zm-3 4v-1l1-1h-1l1-1h1v-1 3h-1v1zm-9 1v-2h1l1-1h1v-1h-1l1-1h-6l-1-1h1v-2l1-1v-1l1-1h1v-1h1-2l1-1h2l-2-1-1 1-2-1v-1h-1v-2l-1-1v-2l-1-1h-1l-1-1v-2l-1-1h2-1l-1-1-1-1 1-1v-1h-1v1h-2l-1-1v-1h-1l1-1v-2h1v-1l1 1v-2h1-3v-1h1v-1h1v-1h8v-1h2v1h1l1-1v-1h4v-1h2l-1 1-1 1-1 1v1h-1v1h-3l-1 1v1h-1 1l1-1h2v1h1v-1 1h3v1l-1 1h-1l-1 1v3h1v-1h1l-1 1-1 1h-2v1l-1-1v1-1h-1v1h1v3h-1v1h1v-1l1 1v3h-1 2l1-1v1-1 1h1v-1 1h1v-1h1v2-1l-1 1v4h-1 1v1l1-1v1l-1 1 1-1h1v-1h-1l1-1v-2h1v1l-1 1v1-1 4h-1v1l1-1h1v1h1-1l-1 1h1l-1 1v1l1 1h-1v1h1l-1 1h-1l1 1-1 1h-1 1v2h-1v-1 1zm0 1h1v1zm0 1h-1 2v1h-1zm-1 1v1h-1zm0 0 1 1h-1zm-4 8v-1h-1l1-1v-2 2h1l-1 1h1v1zm-1 0v-1l1 1-1 1zm-133-86h1v-1h-1v-1h-1 1v-1l1 1h1l1 1h1v-1h3l1-1h1v1h1v1h4l-1 1v1h1v3h1l1 1h1l1 1v1h-1v-1l-1 1v-1h-2v-1h-4v-1h-2v-1h-2v1h-1v-1 1l-1-1h-2v-2h-1zm304-95v1h-1v-1zm-29-22h1v-1l1-1v-1h1v-2h1v-1h1v1h2v-1h1v1h1-1v1l-1 1h1l-1 1v1h1v4h-1v1h-2l-1-1-1-1h-1v-1h-1v-1 1-1zm-144 20-1-1h1v-1h-1v-1h-1v-1h1v-1h-1 1-1v-8h-1v-1h-1v-1h1v-1h3l1-1h1l2-1h4v1h-1v1h1v2h1v1l-1 1v2h-1v1h-1l1 1v6h1l-1 1h-7zm83 431-2-2-2-2h-2l-2-1-3-2v-1l1-1h4l7-1 4-2h1v-2h-1l-3 2-2 1-2-1h-8l-3 2-1-4-1-3-1 1v-1l-1-1h-1l-2-1-2-1-1-1v-3l1-2 1-2 2-1 2-1 16-2 1-1v-3l-1-1-1 1-3 2-3-1h-5l-2-3v-3h-2l-1 1v3l-1 1v1l-1 1h-4v-9l1-3v-2l1-1 1-3 1-1 1-3v-1l1-1h-1v1l-1 1-2 2-1 3-1 1-1 1-2 5-2 1h-1v-2h-2l-1-1-1-1h-1v1l-1 2-1 1-1 2v1h-1l-1 1h-4l-1-1-2-1-2-1-1-2-1-1-1-1 1-1 2-2v-1l2-3 1-1h2l1-1v-1l-1-1 1-1v-1h2l1-2h2l1-1v-1l-2-1v-1l1-1 1-1 1-1h1l1-1h1l2 1 1 1h1v-1l1-1 1-1v-5h-1v-1l-1 1v-7h-1v-3l2-1v-3h2v-1l2-2-1-1 1-3v-4l1-1v-5l-1 1v2l-1 1h-1l-1-1v-1h-1l-1-1v-2l1 2h2v-3l-1-1-1-1h-1v-1h-1l-1 1-1-1v-6h1l1 1h1l1 1h3v-1l2-2 1 1h2v-1l-1-1h-1l-1-2v-2h-1l-1 1v-1h-2l-1-2v-2l-1-1v-7l1-1v1l1 1h1l1-1 1-1 1-1h1l1 1h-1v-1l-1-1v1l-1 1h-1v-5l-1 1v3h-2v-2l-1-2v-1l-1-1v-1l1-1h2v-1h1l2-1 1 1 1 1v1l-1 1 1 1v-2h1v-4h-4l-1-1-1-1 1-1v-2h3l1-1 1-1 2 1h1l1 2 1 2 1-1v-1h1v1l1 1h1v1-1h-1l-1-2v-1h1l1-1v-1h3l1 1 1 1v-1l-2-1v-1h3v-1h-1v1h-4l-1 1-1 1-2 1-1-1h-1l-1-1v-1h-1v-1l-2-1h-1v-5l1-1v-2l1 1 2 1 1 1 1 1 1 1v3l1 1h1v-1l2-1 1-1h1v-1h-1v1l-2 1h-2v-4h1v-1l-1 1h-1v-1h-1l-1-1v-1h-1l-1-1-1-1-1-1h-1v-1l1-1h1v-1h-1v-2 2l-1 1-1-1v-8h2v3h1v-4l1 1h2l1 1v4l1 1 1 1h1v1h1v1h3l1 1h1l-1-1h-2l-1-1v-1h-1l1-1v-1h1l1-1h5-1v-3h1v-1h2-2l-1-1h-1l-3 1v-1l1-1h1l1-1v-1h-1v1l-1 1h-2l-2 1-2-1-2-1h-5v-1l1-1h1v-1h2v-2h1v1l1-1h-1l1-1 1-1h1v-1l1-1v-1h1v-1h1l1-1h2l2-1h1l1-1h1v-1h1l1 1v-1h3l-1-1h3v1l2 1v1-5l2-1v-1l1-1v-1l1-1v-2l1-1v-1h1v-1h1l1-1h2v1-1l-1-1h1v-1h1v-1h1v1-2h1v1l1-1v-1h2v2h-1 1l-1 1v1l-1 1h1l1 1v-1h-1l1-1v-2l1 1h1l-1-1v-1l1-1h4l-1-1-1-1h1v-1h1v-1l2 1h1v-1l-1-1v1l-1-1v-1l-1-1v-1h2v-1h2-1v-1l-1 1-1-1v-2l1-1v-1h1v-2h3v1-1h-1l-1-1 1-1v-1h1v1h2v-1h-2v-5h1l-1-1v-1l1-1v-3l1-1h3-1v-1h-1v-1l-1-1h1v-1h1l1 1-1-1h2v2h-1 1v-1h1l2 1v1h-1l-1 1h1v-1h1v1h2v2l-1 1v1-1h1v-1h2v-1h3-1 2v1h-2 2v2h2v2h1-1l1 1v1h-1l-1 1h1l1-1h1v1l-1 1h2v1h1l-1 1 1 1h-1v1l-1 1 1-1 1-1v1l1 1 1 1v1l1 1v3h-2v1h-2 1v1l1-1h1v-1h1v1h1l-1 1v1h-2v1h-2v-2 2l1 1h1v2-3h1v1-1h1v-2l1-1 1 1v5h1v2h-1l-1 1v1h-2 2v-1l1-1h1v1h2v1l-1 2h1l-1 1-1 1-1 1h-1v1l-1 1-1 1h1v-1h1l2-2v-1h1v-1h2v2l-1 1v1h-1v1h-2 3l1 1 1 1-1 1v2h-1l-1 1h-5l-1-1h-1 1l1 1-1 1h1l1-1h1l1 1h2v-1l1-1h1v2l-1 1v2h-1l-1-1h-3v1h-1v1h1v-1h3l1 1h1v-1 1l-1 2-1 1h-1l-1-2h-1l-1 1h-1v1h1v3h-2v1h1v-1l1 1-1 1v3h-1v2h5v1h1v1h1l1 1h2v1l1 1v1l-1 1h-1v-1h-4l-1-2h-1v-1h-2v1h1v3h1v1h1-2v1h3v1h2v2l-1 1-2 1h3l1-1v4l1 1v2h1v-1h-1v-2l-1-1 1-1v-1h1v-2h1l1-1v1h2v1l1 1v1h-1v3l-1 2h-1v1l2-2h1v1h-1v2h-1l-1 1v3l1 1v-1h2v2h-1v3l1-1v1l1 1v1l-1 1v1l1 1v2h3-1v1h-1v1l1 1h-1l-1 1 1 1h1v2h1v1l2 1v2l1 1 1 1-1 1v2h1v1h1l1 1 1 1 1 1 2 1 1 1h1l2 1h2v1h1l1-1h1v-1 1l1 1 1-1 1-1h2v1h1l1-1 1 1 1-1-1-1v-1l4 1 1 1 1 1 1 1v1l-1 2h-2v1h3l1 1 1 1-1 1v1l1-2h2v1l1 1v2h-1v1h-5l-1 1-1 1h-4v-1h-1v2l-1 1 1 1 1 1 1-1 1-1h2l1 1v-1h1v-1h1l2 1v1l1 1v1l-1 1h1l1-1h1v1h1v1h2v1l1 1 1 1v1l-1 1v3l-1 1-2 1h-2v1h-1l-1 1-3 1v2l-2 1h-2v1h-4l-1 1-1 1v3l-1 2v5l-1 1v1l-1 1v1h1v-1h2v-1h2v1h2l1 1v4h-1l-1 2v1l-1 1-1 1-1 1-1 2-1 2-1 1-1 1h-1v-1h-1l-1-2 1 3v1l-1 1v1l-1-1h-1l-1-1h-1l-1 1v12l-1 1-1 1h-2l-1-1-1-1-2-3-1-1-1-1-1-3h-1v-1h-1v1l1 1 1 1 2 3 1 2 1 2v1l2 1v1l-2 1-3 2-3 1h-1l-2 1v1l-2 1h-1v-1l-1-1v-1l-1-1v-10h-1v3l-1 1v9l-3-5-1-1-2-3-1 1-2-1v1h-1l1 1 2 3 1 2v3l1 2h-3l-3-1-5-5-2-1-3-6-2-1v1l-1 1 1 2v3l-1 3v4l1 2 2 4v1h-1l-7-1h-2v-1h-2l1 1v1l8 2h5l1 2-1 3h-1l-1-2-1 2-1 1-2 1-2 2h-2l-1-1h-1v-1l-1-1-1-1-1 2v3l-1 1-2-1v-1l-1-1-1-1-2-4h-1v4l2 2v4h-2v2h-1l-1-1h-1l-1 1v1h-4l-1 1-1-1h-2l-1 1zm42-34h1l1 2 2 2 2 2 1 4v2l-1 1h-1l-3-2-2-2zm-73-5h1l1 2v4l-1-1-1-2zm-3-35 1-2h2l1 1v3l-2 1h-3v-1zm4-27v-1 2l1 2v2l-1 1v-3l-1-1zm-3-5 1 1h-1v2h-1v-2zm151-4h1l1 1v1h-2l-1-1zm-149-15v-1l1 5v3h-1zm-2-8v-2l-1-1-1-1h4v4l-1-1v1zm104-27 1-1v-1h1v1h1v1h-2l-1 1zm-4-15h1v1l-1 1v-1h-1v-1zm-79-1v-3h1l1-1h5v1h-1v3l-1-1h-2l-1 1-1 1zm73-1h2v1h-1zm3-8h-1l-1-1v-2h1l1-1h1l2-1h1v1l-1 1h2l1 1 1 1-1 1v1l-1-1 1 1v2h-4l-1-1zm-4-3v2l1 1h-2v-3zm-40-29h1v1h-1zm26-30 1-1v1h1l-1 1h-1zm-82-179v1h-4 3v1h-6v-1h-2 6v-1h2zm-16-2h1l-1-1v1h-1v-1h-1v1h-1v-1h-1l-1 1h-1l-1-1v-1l-1-1 1-1h-1v-1l-1-1v-3h-1 1v-1h-1v-1h2v-1h-1v-1l1-1v1-1 1h1v-1h2v3h4-1v2h1-1l1 1v1h5v-2h2v1h1v1h1v1h1v2l1-1v1h1-1v2h-3v1l1 1h-1v1h-2v-1 1l-1-1h-3zm141 12h-1zm0-1h1v1h-1z"/><path d="m511 213h-1l1-1h1-1zm-7-4v-3h3l1-1v1h1v1h-1v2zm-42 122h-1v-1l1-1h-1v-1h1v-1 1h5l1-1v1h1v-1h-1 1l-1-1h-1v-1 1h2l-1-1h1v1h1v-1h-1 1v1h1v1h1v-2l-1-1v-1l-1-1h1-1 1v-1h1l-1-1h-1v-1h-2v-3 1h1v1h1v-1h1-1v-1h-1l1-1h1v1h1v-1h-1v-2l-1-1h1v1h1v-1h1v2h1v-1 1h1v2h1v2h-1l-1 1-1-1h-2v-1 1h-1 1v1h5v1h1v1h-1 1l1 1 1 1v1h-1v1h-1v2h-1l1 1h-3v1h-2v1h-5v1l-1-1h-1v-1h-1v1h-2zm4-4h1l-1 1zm-3-1h1v1h-1zm1-1v-1h1v1zm15-2h1v1h-1 1v-1zm-18-1v-1h1v1h1-1v1h-1zm8 0v-1zm1-1h-1v-1h-2v-1h1-1v-1h-1 2v1h1v1h1v1h1zm-4-1h1l-1 1h1-1zm11 0h1l-1 1zm-15-2h1v1h-1 1v1h-1zm15 1h1zm1 0-1-1h1zm-9-2h1v1h-1zm-4 0h1v1-1zm12 0h-1 1v-1 1h1zm-17 0h-1 1v-1 1h1zm2-1h-1zm3 0v-1l1 1zm2-1v1zm0 0v-1zm-3-1v1zm0 0h1v1h-1zm-1-1v1h-1zm-3 0-1 1v-1zm4 0h1zm-7 0v-1zm4 0v-1l1 1zm-4-3h1l-1 1h1-1v1h-1v-1h1zm14 1v1zm-12-2v1zm9 0h-1 1-1v-1l-1 1h-1v-1h-3v-1h4v1h3v1zm172-286-1-1v1-1h-1v-1 1h-1v-2h-1v-1h1v1h1v1h1l1 1h1v1h1zm-31-22v-1l1 1zm177 252v-6h-3v-1h1l1-1h1v-2h1v-1h1v-1h1l1 1h3l1 1v4h-1v1h-4v1h1v1h1v1h1-1v2zm-657-13v1zm445-2v-1h1-1v-1h1l1-1h1v-1h2v1h-1 1-1v1l1-1v1h-1 3v1h1v1zm6-2h1zm0-2v1h-1v-1zm1 0h-1zm115-16v-2h2v-3l-1-1h-1v-2h-1v-2h-1 3v-1h2v-1h3v1h1v2h1v2h-1v4h1v2h2l1 1 1 1h-1v2h-2v1h1v2h-1l-1 1h-1v1h1-1l-1-1-1-1h-1v-4 1h-1v1-1h-1l-1-1h-1zm-481 49h1zm0-1h1v1h-1zm0 0v1zm114-239v-1l1 1h-2z"/><path d="m776 249h1l-1 1zm2 0h1-2zm-9-4h2v-1 1-1h2v1h1v-1l1-1h-1 1l1-1h3v-2l1-1h1l-1 1h2v2h2l1 1h1v2l-1 1h-1v1h-2v1h-1v-1 1h-1l-1-1h-1l-1 1h-4v-1h-1v1h1-1l-1-2h-1l1 1v-1h-2zm-280 105-1-1-1-1h-1v-1h-4 1-1v-2h-1v-1l1 1v-2h1v1h4l1 1h1v-1h1v1h1v-2l-1-1v-2h-1v-1h-1l-1-1v-1l-1-1h1v1l1 1h3v1l1 1 1 1h-1 1v1l1 1v2h1v-1h1v-1h1v3l-1-1v1h-4 1-1l1 1h-2v1h1v1h-2v1zm5-6h1v1zm1-2v2zm-2-1v1h1v1-1h-1zm0-1v-1 1h1v1zm-1 0v-1 1h1zm-4-3h1zm-1-1h2v1h-1zm-1 0h-1v-1l-1-1h-1 1v1h2l1 1h1-1l-1-1zm3 0h-2zm-3-1h1zm253-75h1zm-2-1v-1l-1-1h1v-3l1 1h1v-1h2v1h1v-1h1l1 1v1h-2v-1h-3v1h-1 1l1 1v1h-1 1v1h2-1l-1 1-1-1zm3-3h1v1h-1z"/><path d="m473 357-1-1h-1v-1h1v-1 1l1-1h1v-2h1v-2h1v-2h5v-1h2v-1h2l1 1h1v1h1v1h1v1h1v1h-1v3h-1v1h-1v1-1h-4l-1 1h-3l-1 1v1h-3v-1zm-283-185h1v1h-2 1zm3 1h1l-1 1zm6 4-1-1h-1v-1h-1v-1h2l1 1h1l1 1h1-1v1zm-14 0-1 1v-1h1-1v-1h1v-1h1v-1h3-1v1h1-1v1l-1 1v-1h-1v1h-1v1zm26 1v1zm-21 1h1zm10-1v1zm-11 1h1v1h-1zm19 0v-1h2v1l-1 1h-1zm-21 1v-1h1-1v1-1zm1 0v-1h2-1v1zm-42-1 1 1h-1zm59 0h1v1h-1zm-19 1h-2v-1h2zm-9 0h-1zm14-1 1-1h7v1h-1v1h-2v-1h-5v1h-1 1-1v-1zm-23 1v-1 1h-1zm36 0-1-1v1h-1v-1 1l-1-1v-1h2v1l1-1h2l1-1 1 1v1h-3v-1h-1v1h1v1zm7 0v-1h1v-1 1h2v1zm-40 1v-1l1 1zm9 0h-1 3v-1 1h-1l-1 1zm-2 1v-1zm-31-2v-1h2v2h-1v1h-3v-1h1v-1zm20 0v1h1-1v1h-1v1-2h1zm-2 3h1zm49 0h1zm-40 0h1zm22 0h1zm20 0h3v1h-3l-1-1zm-4 0v1h-1v-1zm-55 1h1zm83 0v1zm-83 1v-1l1 1zm1 0v-1h1v2-1zm76 1-1-1h-2v-1h-4v-1l-1 1v-1h-1v2h-1l-1-1h-3v-1h-1v-1l-1-1h-4v-3l1 1h1l2 1 1-1h1l1 1h4l2 1h6v1h4v1h-1 1l1 1h2-1v1l-1 1zm-37-1v2zm22 2v-1zm-56-1v1zm-6 1v-2h1l1 1h-1v1h1-1v1-1h-1 1zm5-1h1l-1 1v1zm86 2h1zm-60 0h1zm5 0h1-1v1zm-2 0h1v2h-1zm-1 2v-1 1-3h1v3h-1v1zm-29 1h-1zm29 0v1zm-15 2v-1h1v1-1 1zm-1 0h1zm3 1v-1 1h1zm32-2h1v2h-1zm-30 2-1-1h1v-1h2v1h1v1zm-3 1v-1h1zm59-1h1v1h-1zm-64 1-1-1v1l-1-1v-1h-1v-1h1l1 1h1v1h1v-1h1v1h1v-1h1v1h1v-1 1h1l-1 1zm83-1h-1 1v1l-1-1zm-22 0h1v1h1-1v1h-1v-1h-1zm22 1h1v1zm1 1h1v1h-1zm-73 0v1zm6 1v1zm-6 1h-1l1-1v1l1-1v1h1zm-12 0h-1v-1h2v1zm15 0h-1l1-1v1l1-1v1zm-30 0h-4zm75 0v1zm8 0h-1v-2h-1v-2h1v1h1v1l1 1h1v1h-1v1-1 1h-1zm-49 0v1-1h-1zm-13 0h2v1h-2zm14 2v-1h-1l1-1v1l1-1v1zm37 0 1-1v1zm30-2h1v1h1l-1 1-1-1zm-89 1v1h1-1zm0 2v-1h1v1-1 1zm-13 0h-1v-1h-1v-1l1 1v1l1-1zm23 0h1zm-9 0v1zm24 1v-1h1v1zm-32-1h-2v-5h-1v-1 1-1h-1v-1h-1v-1h-1v1h-1v1l-1 1-1 1h-2l1 1h-2v1h-1v-1h-2v-1h-2l-1-1h-3v-19 1h1v1l1 1h1-1v1-1h4l-1 1v1h1v1h-1 1v1l1 1v2h1-1 1v1h1l1 1h2l1 1h3l1 1v1h3v2-1h1v-2h1v1h1v2l1 1h1-3v1h-2v1h2v-1h1v1h2v1l1 1h2-1v1l-1 1h-1v1h-2l-1-1zm81 1v-1h1v1zm-65 0v-2 1h1v1zm1-1h1v1h-1zm66 1h1zm-76 1-1-1h1l1 1v-1h-1 2v1zm91-2v2zm-18 1h1v1zm-69 0v1zm74 2v1zm0 1h2v1h-1v-1zm0 0 1 1h-1zm-3 1h1zm-1 0v-1 1h1zm6 0v-1 2zm14 1-1-1v-2 1h1v1l1 1zm-14 0h1zm-63-1v-1h1v-1h12v-1h1v-1l-1-1v-1h-1v-1h-2v1h-1v1-1h-1v1h-4v-1h2l1-1v-1h3v-1h-1l-1-1v-1h-1v-3h-1v-1 1-1h-1 1v-1 1l1-1h1v-1h1v3h1l1 1v2h2v-2l-1-1h1v-1l-1-1 1-1v-1h-1v-1h3v6h2v3h-1v1l-1 1h1v1h-1v2h-1v-1 4l-1 1v1-1h-1v1h-1v1l-1-1h-4v-1h-3l-1 1h-1v1h-1v1h-1v-1zm65 3v-1h1v1zm-73-4h-1v2h-2v-1h1v-1l-1-1v-1l1 1h1v-3h-1v-1l1 1v1h1v3h1v1l-1 1v1l-1 1v-3h1zm85 4h1zm-87 0v-1 1h1l-1 1h-1v-1zm8 1h1l-1 1zm82-1v1h2v1h-1v-1h-1zm-26 2h-1zm-2 1v-1zm-32 0h1zm-22 0v1zm-4 1h1v1zm26 2-1-1h1zm26-2h1v2-1h-1zm-23 2h-2v-1h-1 1-1v-1h2l-1-1v-1h-1v-1l-1-1h1v-1h-1v-1h-2v-1h-1l1-1h2v1-1h1v-1l1-1v-1l-1-1h1v-1h1v-1l1 1v-2h1v-1h-1v-1h1v-2l1-1 2-1 2-1v2h1l-1 1h1v-1 1l1-1v1h1l1 1v-1h1v-1h1v1l1-1h1v2h1l1-1v1l1-1v1h1v2l1 1v2h2v1h-1 1v3h1v2h-1v2h-1v-1h-1v-1h-1v-1h-1l-1 1h-3v1h-4v-1h-1v1h-2v1h-1v1l-1 1v1h-1v4zm-29-1h1l-1 1h1v1-1h-1zm86 3h-1v1h-1v-1h-2v-1h-1v-1l-1-1h-1v-1h-1l-1-1h-1v-1l-1-1v-1h-1l-1-1v1h-1v-1l-1-1h-1v-1h-1v-1h-2v-1h1l1-1-1 1h-3v-1h1v-2l-1-1h-2v-3h-1v-1h1-3l-1-1v-8h4v-1 1h1v1l1 1h1v1h2l1 1v1l1 1h1v1l1 1 1 1v1l1 2 1 1v1l1 1 1 1h1v2l1 1v2h1l1 1h1v2h1v1h1v1h2v1l1 1 1 1h1v3h-1v-1h-2zm291 171v-1l1-1h1-1v-1h1v-1h-1v-1h-1v1h-1 1-1v1-1h-1v-1h-1v-4h-1v-2h1v-2h1-1v-1h2v1-1h2v-1h2v-1h1l1-1h2v1h-1 2-1v1h-1l2-1v1-1l1 1h-1v1h-1 2-1v1h-1v-1 2h-2l-1 1h1v-1h2l-1 1v1h-1v1h-1 2v1h2v1h-1v1h-1 1v2l1-1v1h-5 1l-1 1h-1v1h2-1v2h-1l-1 1v-1 1-2 1h-1 1l-1 1h-1v-1zm7-6h1v1h-1zm-128-83h1v-1h1v-3h1-2v-2l1-1v-4l1 1v2l1 1v3l-1 1v1l-1 2v1h-1v1h-1zm113 84h1l-1 1zm-276-161h1v1h-1zm0 1h1l-1 1zm1 2h1zm0 0v1zm2 3v1zm1 4v1zm-1 3h1zm-1 2v-1l1 1zm1-2 1 1h-1v5h-1v-1h1v-1h-1v-1h1zm39 62h1-1l1-1h-1v-1h-1v-1h-2v-1h-1v-1h-2v-1h1v-1h1v-2h1v-1h-1v-1h-2v-1h-1v-1h-2l-1-1h-1l-1-1h-1v1l-1-1v1h-1v-1h-1v-1h-2v-1l-1 1v-1h-2l-1-1-1 1v-1h-3v5h-1v1l-1-1v-3h-1l-1-1h-2v1l-1-1h-2v1-1h-1v1h-1v2l1-1v1h-1v1h-2v1h-1v1h-1l-1 1h-1v1h-4l-1 1-1-1h1v-1h-1v1-1h-1l1-1v-1 1h-1v-1h-2v-1h1v-1h1-1v-2l1 1h2v-1h1v-1h2v-1l-1-1h1v-2h1v-3h1v-2l1 1h2l-1-1v-2h1v-3h2v4l1 1v-1h1v-1h1v1l1 1h-1v1h-1l-1 1v2h-1v-1 1h6v1h1v2h1v1-1h1v1h2v1-1h1v-2h-1v-1h-1v-1h2v-2h-2v-1l1-1v-1h-1v-3h-1v-1h1v-1h-1 1v-1 2h1v-1h1v2h1l-1-1 1-1 2-1 1-1-1-1 1-1 1-1v-1h3v-1l1-1h1v-1l1-1 2-1v-1h1l1-1h1v-2h1v-1h2l1-1v-1h1v1l1-1 1-1v-1l-1-1v-1h1l-1-1v-1h1-1v-3l1-1v-1h1v-1h-1 1-1v-3h2v-1l1-1v-1h-1 1l1-1h1v-2h2v-1 1h1l1 2h1v3-2 2h1v2l1 1v2h1v1l1 1v1l1 1v3h1v2h1v2h1v1l1 1v5h1v9l1 1h-1 1-1v1h-1 2v1h-1 1-1v1h1v-1 1h1v-1h-1 1v-3h2v-1h3l1 1 1 1v1h1v1h1v1h-4v2h-1 2v-1h2l1 1h1v2h-1 2v1h-1v1h-3v-1h-1v1h-3v2l1 1v1h1l1 1v1h-1l1 1h1v2l-1 1v1h-2v-1h-1v1h-2l-1 1v1l-1 1-1 1-1 1v1h-1v1h-1v1l-1 1v1h-1v3h-1l-1 1 1 1h1v1h1v1h1l-1 1h1v1h-1v1h1v2h-4l-1-1-1 1h-2v1h-1v1h-1l-1 1h-1v-3h-1l-1-1v-4h-1v-3h1v1h1v-2zm96 17-1-1v-2h-1v-1h-2v-3h1v-2h1v-2l-1-1h-1v-2h-1v-1h-1l-1-1h-1v-2h-1v-1h1v-2h-1v-1l-1-1v-1h-1 4l1-1v-1l1-1h4l1 1h1l1 1 1 1h1v1l1 1h1l1 1v1h2l1 1 1 1h1l1 1h3-1v1h1v2l1 1-1 1h-1l-1 1h-1l-1 1h-1v1h-1v4h-1l1 1v1l-1 1h-1v1h-1v1h-1v1h-2l-1-1h-1v1l-1-1z"/><path d="m410 324v-1h-1v-1h-1v-1h-4v1h-1v1h-1l-1 1-1-1v-2h1l-1-1-1-1h-1v-3h-3v-1h-1v-1l-2-1h-3l-3 1h-2 1l-1-1v2h-1v1h-1l-1 1-1 1h-3l-1 1v-1h-2v-1h-2v-1h-1v1-1h-2v-1h-1l-1-1v-1h-3v-3h-1 1v-1h-1 1v-3h1v-1l1-1v-1l-1-1h-1 1v-7h-3v-2h1v-1l1-1 1-1h-1v-1h-1v-2h-1v-1h-2v-1h-1v-3h-1v-2h2l1-1h1v-3l1-1h1l1 1h5v1h4l1 1v3h1l1 1h1v-1h2v-1h5v1h1l1 1h1v1h1v1h2v1l1 1v1h1v2h1v1h1v1h2l1 1h-1 1v-1h1v-1 1h1v1h1v2h1v1l-1 1v1h1v2h2l1 1h1v2h1v1-1 1l1 1v2h-1v1h-1v3h1l1 1v1h1v1l1 1v3h1v5h1v1h-1v1zm-32-43v-1h2-1v1h-2zm201 171h-1l-1 1h-1 1v-1h1v-1h-1v-2h-1v-2 1h-2v-4h-1 1v-1l1-1h1v-2h1v-1h2l1-1h1v-1h1v-1h1l2-1h1v-1h1l1-1 1 1h3l1 1v1-1l1 1h1v1-1h4v2-1h-1l-1 1v1h-1v1l1-1v1l-1 1h2v1h5v1h-2v1h-1v-1 1h-3v1-1l1 1h1l-1 1h-1v1h5v-1h1v1h1v1h-1v-1h-1l1 1v1l-1-1h-1v1h1v1h-1 1v1h-1 1-1v1l-1-1v-1h-1v1-2 1h-1v1h1l1 1h-1v1h1-2v-1h-1l-1-1v-1h-1v-1l1-1v-1l-1 1v-1h1-1v-2 1h-1v2h-1v-1 4h-1l-1-1v-1h-1v2h-1v1h-1v-1l-1-1-1-1v1l1 1h-2v-1h-1v2h-1v-1h-1v3h-2v-2zm-82-102v-1h1-1v-1h1-1v-2h-1 1v1h2v-1h2-1 1v-2h-1v-1h1v-2l-1-1h-1l-1-1-1-1v-1l-1-2v-1l-1-1-1-1h-4v-1h1v-1h-1l-1-1h-2v-1h-1l-1-1-1-1v-2l1 1v1h2v1h1v-1l1-1v-2h-2v-2h1l1-1v-1l1-1v-1h1v3h-1v2l1 1v2h1l1 1h1-1v1h2v1h1v1h1l1 1 1-1v1h1l1 2h1v1h1v1h1l1 1v1h1v2l1 1v1h1l1 1h1l1 1v-1l1-1h1v-1h1v2l1-1v1h1v2l1 1h-1v1h-1l1 1v1h-1l-1 1v-1l-1 1v1h-1v1-1l-1-1-1-1v2h-1v1-1h-2v1h-1v1h-2v1h-3v-1l-1-1zm3-11v1h1v-1zm6-4h1zm2-7v-6h2v-1h1l1 1v2h-1 1v4h-1l-1 1h-2v-1h1zm4 1v-1zm-16-2h1l-1 1zm16-6v1zm-20-3 1-1v-2l-1-1h1v-1h2v1h1l1 1h1v1h2v2h-8v1zm10-5v1zm39 48v-1 1h1v-1 1zm211-106h-1v-1h-1l-1-1h5v1h1v1h-2zm-326 42 1-1h2l1-1h2-1v-1l-1-1-1-1 1-1v-1h2l1-1v-1h4v4l-1 1v6h-1l-1-1h-3v1h-2v1h-1l-1 1-1-1v-2h-1v-1zm-294 43h-3l-1 1h-1l1-1v-3h-1l-1 1v-1h2v-1h3l1-1v-1h1v-2h1v1h1l2 1h5v-1h-2v-1h-1v-1h1l1 1v-2h1l1 1h-1v2h1v2h-1l-1 1v1h-2v1l-1 1v3l-1 1 1 1v1h-1v1l-1-1v-1l-1-1-1-1-1-1h-1zm7 5h1v1zm0-1v1zm0-14h-1l1-1v-1l-1-1-1-1v-5h1v-2h1l1-1v-5l1-1v-1l-1-1 1-1v-1h1v-1h1v2h-1 1v-1h2v-2h1v2-1h1v-1h4-1 1v1-1 1h1v-1l-1-1h1l1-1 1-1v-1h1v1h1v2h-1v1h4l1-1h4v-1l1-1 1 1h2v1h-1l-1 1h-1v1h-1v1h-1v1h-6l-1 1v-1h-2v1h-1 1v1h-1v1l-1 1v2h-1v1h-1v-1h1v-2h-1v1h-2v1h-1l-1 1v1l-1 1h-1v2h-1v2h-1v2h1v1l-1 1h1v1l-1 1v1h-1v-1h-2v1h1v1zm8-13v2-1h-1zm14-6h1v1h-1zm11-6h1l-1 1zm-15 0v-1 2zm1 0h1v1h-1zm0 0v-1h-1v-1h1v-1h1v-1 1h2v-1h1v-1h2v1h-1 1v1h1-1l-1 1v1h-3v1zm15-1v1h-1zm-10 0h1zm1 0v-1 1-1zm3-2-1 1v-2h-1v-1l1-1v-3l1-1h1-1l1-1h1-1v1l1 1h-1 1v-2l1 1v3h-1v3h1v-2 1h1v-1 1h1l-1 1v-1 1h1v1h-2v1h-1v1h-1v-1zm5-1v1zm1-1v1zm1 0v-1zm-4-2h1l-1 1h1-1zm-1 1h1zm-1-7v1zm1-1v1zm3-6h1-1v1h-1 1zm0 0v-1l1 1zm1-2h1v1h-1zm2-3h1v-1h1-1 1v-1 1l-1 1-1 1zm-39 0h1zm47-6h1zm4-1v1h-1zm228-119h1zm3 60v-1h1v-1l1-1v-12h-1v-1l1-1h1v-1h1v-1h1v-2h1v-2l1-1h1v1h2v1h1v1h1v1l1 1h1v1h2v1h1l1 1h1l1 1h1l1 1v5h-1v1h-1v1h-1v2l1 1h-1 1v1l1 1v1h1l-1 1h1v1h-1v1h-1v1l-1 1h-2v-2l-1-1h-3l-1-1h-1v-1h-4v-1l-1 1v1h-2l-1 1-1-1zm-108 119v-1h2l1-1h1l1-1h1v-1h1l1-1 1 1h1v-2h1v-1h2v1h1l1-1v1-1h1l1-1h1v-2h2v-1h1l1 1v-1h2v1h7v2-1l-1 1-1 1v-1h-3v1h-2v-1 1h-2v1h-1l-1 1h2v1h2v1h1v-1h2v1h1v1l-1 1h-1v1h-1 1v2h-5v-1h-2v2l-1 1h-1l-1-1h-1l-1-1h-1v1h-6l-1-1-1 1v-1h-2v-1h-2v-1zm26-9v1h-1 1zm-2 1v-1zm3-1h1zm-95-92h1l1 1v-1h1v1h-1v1h1v-1h1v3h1v2h1v3h-1v2h-8v-1h-1v1h-1v1h-1v-1h-1v1h-1v-3h-1l1-1v-3h2v-1h2v-2h-1l1-1h-1 1l1 1h1v-1h1v-1zm4 2v1zm-1-1h1zm738-19h-1v-1h1l-1 1zm-933-2v-1zm0-1h1zm927-3h1zm-927-1h-1zm0-1v-1zm-5-7v1zm925-8v1zm-557-22 1 1v1-1h-1zm-2 0-1-1h1zm2-1h-1zm298 84h1zm0-1v1zm-542 83v-1h1v-1h1v-4l1-1h1l1-1 1-1h1l1-1v-1h1v-1h-1v-1h-1v-1h-1v-1h4v-1h1v-1h2v1l1-1h2l-1 1h1v1l-1 1h-1 1v1l-1 1 1 1 1 1v-1h1v2l-1 1v1h-2v1h-1v1h-1v1h-1v1h-1l-1-1h-3v1h1v1h-3v2h-2v2h-1v-1z"/><path d="m180 317v1h-1v1h-4v1l-1-2v-1l-1-1-1-1v-7h3v-1h2v-1l1 1v-2 1h1v-1h1v1-1l1 1h-1v1h1v1l-1 1v4h1v1h-2v-1 1h1zm0 0v-1h1v1zm1-5v1zm-7-6 1 1h-1zm2 1v-1h1v1zm5-1h1v1h-1zm0-1v1zm0-4v1h-2l1-1zm294 32 1-1h1v-1h1v2h1v2h-1v1h-1 1-1v1-1h-1v-1h-1v-1h-1zm-74-42v-1h-1v-1h1l-1-1v-2h-1 3v1h1l1 1h1-1v2h-1v1zm-1-2v2zm359-30h1zm5-1h-1zm-474 103h2v-3h3v-6h2v-1h1v1h3l1 1v-1h1v-3l1-1v-4 1h1v-1l1 1h1l1-1h3v-1h-1v-3l-1-1v-3h1-1l1-1v-2h1v1h2v1h2v1l1-1 1 1h6v-1h1l1 1h1l1 1h1l1-1v-2h2v1h5v-2h1v-1l1 1v-1h1v-1h2v-1h1v-1l1-1v-1h1v2h4v1l1 1v1h1v4h1v1h1v1h1v1h1v-1h8v1h1v1l1 1 1 1h1v1h1l1 1h1v1h1v1h3l1-1h2l1-1h1v-14h1l1-1v1l1 1v1l1 1h5v-1h1v-1 4h1v1-1h1v1l1 1v1h1v2l1 1h1v1h-3l1 1v1l-1 1h-5l1 1v2l-1 1v2h1v1h1l1-1h1v1h3v-1h2v-1h2v-1 1-1l1 1h1v1h-1v1h1v1l1 1v1h3v2h1v1h1l-1 1v1l-1 1h1v3h-1v2h-2v-1l-1-1h-2v1l1 1v1h-1v1h-1v1h-1v1h-2v1l-1 1h-1l-1-1h-1l-1 1h-1v-1h-3v-1h-1v-1h-1v-2h-1v2h-1v-1h-1v-1h-2v1l-1 1h-2l-1-1v1h-3v-1h-1v-1h-2l-1 1h-1v-1h-1l-1 1h-1v3h1l1 1h1v1h1l-1 1h-1l-1 1 1 1v1h-1v1h-3v1h3v1h-1v1h1v2h-1l-1-1-1 1h-3v1h-3l-1 1v-1l-1 1v-1l-1 1v1h-4l-1 1h-3v1h-1v1h-4v-1h-1v1h-1l-1-1v-4l-1-1-1 1h-2v-2 1h-3v-1l1-1v-1h-1v1h-2v-1 1h-1v1h-2v1h-1l-1 1h-1l-1 1v-2h1l-1-1-1-1-1-1h-1v-1l-1-1-1-2-1-1v-1l-1-1-1-2v-1l-1-1v-1l-1 1v1h-2v-1h-1v-1h-5v1h-1l-1-1v-1h-1v-1l-1-1h-1v-1l-1-1h-2v-1l-1 1-1 1v-2h-1v-1zm105-18v1zm-146-77h-1v-1h-1v-1 1-2l-1-1h-1v-1h-1v1h-1l-1-1h1-1v-1h-1v-1l1-1h2-1 1v-1h-1l-1-1h-1l-1-1h1-1v-1h-1v-2h-1l-1-1v-1h-1v-1h-1v-1h-1v-1h1l-1-1h-1v-1h1v-2h4v-1h2v1h-1v4h1v1h1v3l1 1 1 1v1h2v1h1v-2h2v1h2v-1h1v-1h1v3l-1 1v2h3v1h-1v1h1v2h-1v1h-1v1h-1l1-1h-2v3h1-1v1-1l-1 1zm186 35h1v-1h1v1l-1 1v1l-1 1v1h-1v1h-1v-1h1-1v-2h1-1 1v-1h1-1 1zm271-60h1v1h-1zm-197 111h-1zm-198-122h-1l-1-1-1-1v-1h-1v-1l-1-1v-4l1-1h2v-1l1 1h1v4l1 1v1-1h-1v5h-1v-1 1zm0-2h1zm248-5v-2h1v-1h-2l-1-1h-1v-2h1v-3 1h2l2 1 1 1 1 1 1 1 1 1h1v1h1l1 1h-1v1h-1l-1 1v1l-1 1h-2v-3h-2v1h-1zm-104-109h1v-1h1v-1 1h2v2l1 1h-1l-1 1v1h-1l-1 1h-1l-1-1-1-1v-1h1v-2zm6 277v-2h-1 1v-1h1v-1h1v-2h1v-1h-1v-1h1v1h1v-1h1l1-1h2l1 1h-1 1v1h1v1l1-1v2l-1 1h1v1h3v1h1v4l-1 1h-1v1h-1v-1h-7v1-1h-1v-1h-2v-1h-1v-1zm16-2-1 1v1-2zm41-24v-2h-1v-1h2v3z"/><path d="m459 400h-1v-1h-1v-1h1v-2h-1v-1l-1-1v-1h1v-1h1v-1h2v-1h1v1h1v1h1v1h2v1h1l1-1h1l1 1h6l1-1v-1 5l-1 1v1l-1 1-1 1h-1v-1l-1-1-1-1-1-1h-1l-1 1v4h-1l-1 1v-1l-1 1v-1h-1v-1h-1v-1zm6-104v-1l1-1-1-1v-1h1v-4h-1v-29h3v-1h1l2 1 1 1 2 1h1l1 1 2 1h1l1 1 2 1 1 1h1l2 1 1 1h1l2 1 1 1 1-1 1-1h2l1-1 1 1v1h3l2 1v1l1 1 1 1h3v2l1 1 1 1v2h-1v10h1v2h-1l-1 1v4h-1l-1 1h-1v1h-1v3-1h-1l-1-1h-1l-1 1h-1l-1-1h-2v-1h-2l-1-1v-2h-1l-1-1h-3l-2-1h-1l-1-2h-3v1l-1 1v2l1 1-1 1-1 1v1h-3v1h-2l-1-1h-1v-1l-1-1h-4zm77 11h-1v-1h-1 1v-1h-1v-6h-1v-1h-1 1v-1h5v-1h2v-3h1l1-1h1l1-1v-1h4v-1h2v-1h1l1-1h1v-1h1v-3h12l-1 1h-2l-1 1h-1v1l-2 1-1 1v1l-1 1-1 1 1 1v4l-1 1-1 1v1l-1 1v1h-1l-2 1-1 1h-1l-1 1-1 2-1 3-1 1h-1v-2h-1l-1-1-1 1h-1v-1h-1l-1 1v-1zm-86 38 1 1h-1l1 1v1l-1 1v1l1 1v1h1v2h1v2h1v1h1-4l-1-1h-1l-1-1h-1v-1h1v-1h-1v-1h-1v-1l-1-1v-1h3v-2h1v-2zm-60-177v-1l-1-1v-3l-1-1v-4h1v1h1v-4l1-1-1-1 1-1v-3l1-1v-2l1-1v-2l1-1v-2l1-1v-3l1-1v-2h1v-2h1v-1h3v-1h2l1 1h1l1 1v1l1 1v4h1v4h-1v1h-1v2l-1 1v5h1v4l-1 2v1h-2v1h-4v1h-1v1l-1-1v2h-1v-1 1h-1v1-1 4l-1-1v1h-2v3l-1 1v-1zm4-3v1zm-5-10 1-1-1 1v1zm87 183v-1h-1v-1h-2v-1h-1 1v-1h2v-3l1 1v1h1l1 1h-1l1 1v1h-1v1h-1zm230-84h1zm-657-31h-1zm-1 0v-1h-1 1zm5-4v1zm414 114-1-1h-1v-3h1v-1h1v1l1-1h1l1-1h1v1h1v3h-1v1h-1l-1 1zm51-76v-10h1v-1h5l1-1h4v-1 1h3v-1h2v-1h1v-1l1 1h1v-1h1v-1h1v-2l1 1h1v-1h1-1v-1h1v-2h2v-2l1-1v-1l1-1h1v1h1-1 1v-1h2v1h1v-1h1l1 1v1h1l-1 1 1 1v1l1 1h1l1-1h1v1h1v-1h1v1h1v-1l1 1h-1l1 1h-1v1h1v1h1v3h1v1h-1v2h-2l-1-1v1h-4v1-1h-11v2h-1l1 1v2l1 1v8l1 1v9l1 1v3h-6l-1-1h-1v-1l-1-1h-1l-1-1-1-1h-1l-1-1-1-1h-1l-1-1-1-1h-1l-1-1v-1h-2v-2h-1v-1h-2v-1h-3v-2h1l-1-1h-1zm-272 7h1v-2h1v-1h2v-1h2v-1h3v-3l1-1h-1v-3h-1v-1h-1v-2h-1l1-1v-2h1v-1l-1-1v-1h-1v-1h-1v-4h-1v-3h1v-2h1v-2h1v2l-1 1v2h1-1v1h1l-1 1h1-1l1 1v2h1v1-1 3h1-1 1v4h1-1v2h1l1 1v1h1-1 1l-1-1h1v-1h1v-1 1-1h2v-1l1-1v1h1v-1 2-1h1v2-2h1v2l-1 1v3l1 1v3h1v-1h1v1h-1v1h1-1 1v1h1v-1 2l1-1v1l1 1v1h1v1h-2 1v2h-2v3h-1v2l1 1h-2l-1-1v2h-1v3h-1v2h-1l1 1v1h-2v1h-1v1h-2l-1-1v2h1-1v1h-1v2h-1v-1h-1v-2h-1l-1-1v-3l1-1v-1h1v-1h1v-2h1v-1h-1v-1h1l-1-1v1h-3v-3h-2v-1h1v-2h-2v-1h-1v-1h-1l-1 1zm22-4v-1l1 1zm-1-1v1zm-1-1h1zm0-2h1zm-10-7h-1zm8-1v1zm-1 0v-1h1v1zm-10-8v-1h1v1zm0-2v-1 1h1zm1 0v-1l1 1zm-1-2v1zm1 0v-1zm-1 0v-1zm1-1v1zm0-1v-1zm0-3v-1zm-52 132 1-2v-1l1-1v-2h1v-2l-1-1v1h-3v-1h-1v1h-2v1-1h-2v-1h-1v-1h-1v-1h-1v-2h6v-1 1h1v-1h2v-1h1v-2h1v-1h4v-1h1v-1h1v-1h2v1h2v1h1l1-1v-1l1-1v-1h-1v-1h-1v-1h1v-1h2v-1h1v-1h1v-1h2v-1h9v-1h1l1-1h1v-1h2v1h4v1h3v1h1v1h10l1 1h3l1-1v1l1 1v1l1 1v1h1v1h1v1h2v1h1v1h5v1h3l1 1v2h-1v4h1v2h1v1h1v1h1v1h1v-1l1 1h1v1h1v1h1-1v1h1v2h-1v1h-3l-1 1v1h-1l-1 1h-1l-1 1h-1l-1 1h-1l-1 1v-1h-5v-2h-1v-1h-5l-1-1v1h-1v-1h-1v1h-2v3h1v3h-1v1l-1 1h-1v1h-2v-1h-3v-1h-2v-1 1h-1v-1h-1v-3h-1v-1h-1v-1h-5v1h-4v-1h-3v-1h-2v-1h-1v-1l-1-1h-4l-1-1v1h-1v-1h-1l-1 1h-2v1h-3v1h-1v1h-1l-1 1h-2l-1-1h-4zm-82-107h1zm0-7h1zm0-3v-1h1zm580-3h1v1h-1z"/><path d="m549 275h5v-4l-1-1v-8l-1-1v-8l-1-1v-3h-1l1-1v-1h11v-1h5v1h1v-1h1v-2l1 1h1v1h1v1h1v1h1v1-1 1h1l1 1h3v-1h1l1 1v-1h1v-1 2l-1 1v2l-1 1v1h1v2l1 1h-1 1l-1 1v3h1l1 1v-1 2h-11v5h-1v1h-2v8h-9v4h-1v-1h-1l-1-1h-1v-1h-2v-1h-1v-1h-1l-1-1h-1v-1zm32-16h1zm-86 52h1zm0-1v1zm-121-166h1-1v1h-1v-1zm-45 70v1zm108-44h1l1-1v-3h-1v-1h-1v-1h-1v-1l-1-1v-5h1l1-1-1-1v-1h1v1l1 1v1h1v2l-1 1v1h1v1h2l1 1v1l1-1v1l1 1h-1v2l-1 1h-1 1v5h-1v1h1v2h1v1l-1-1h-3v-1l-1-1v-3h-1zm371 108v-1l1-1v-1l1-2v-7l-1-1v-1 1l1 1-1-1v-2l-1-1-1-2-1-1v-1l-1-1v-1h-1 1-3l-1-1v-1h-1l-1 1h-3v1h-3v-1h-1v2-1l-1 1-1 1v1h-1v4h-1l-1 1h-4v1h-1v-1h-2 1-1v1l-1-1v-2h1v-1l1-1v-1h1l-1-1v1-3h1v-1h1l-1 1h1v-1h1v-1h2v-1h5v-1h1l-1-1-1-1v-1h-1v-1h4v-1h1v-3l1 1 1 1h1l1 1v1h1l1 1v-1h-1l2 1h1-1 1l1-1h1l1-1h2l1 1h2l1 1h1l1 1h2l1 1h1l1 1h2v1h1v1h4l1 1v1h1v1h2l1 1 1 1v1h1v1h-1v1h1-1v3h1v3h1l1 1v1l1 1h1v1l2 1h-1 1v1h1v1h1v1h1v1-1l1 1h-1 1l1 1h-1v2h2v1l1 1h1v2h1l1 1 1 1v1h1v1h1v2h1v2l1 1v2h1v1h3l1 1v-3h-1v-3l-1-1v-1h-1l-1-1v-1h-1v-1h-1v-2l-1-1v-1h-1v-1h-1v-1 1-1h-1v-3h-1v-2h-1v-3h-1v1l-1-1-1-1-1-1 1-1h1v-1 1l1 1v1h1l1 1 1 1h1v1-1 1h1v4l1 1h1l1 1v1-1h1l1 1h1v1h1v1h1v1h-2v-1 2l-1 1h1v1l1 1h1v1h1l1 1v2h1v1l1 1v1h1v2l1 1v1h-7 1l-2-1h-1l-1-1h-2l-1-1h-1l-2-1h-9v1h-5l-1-1h-1v-1l-1-1h-1v-1l-1-1v-1l-1-1-1-1h-1l-1-1v1h-1v1l-1 1h-3v-1h-1v-1h-1v-1l-1-1v-1h-1v-1l-1-1v-1h-1l1-1h-1v-2h-2l-1-1zm49 18h1zm-4-8h1v1-1zm-3-1h1v1h-1zm17 0 1 1h-1zm-8-3v1zm-12-6v-1h1zm3-5v1h1l-1 1v1zm-1 0h1zm-5-1v1zm-10-7v-1h1v1zm-55-2v1zm0-2h1zm14-5h-1zm-586-33h-1zm-2-9h1v1h5v-4h1v-1l1-1v-1h1v-1h2v-1h1v1h4v-1h3l1-1h1v1h1v1h1v1h-2l-1-1h-2 1v1h-1v2-1 1h-1v1h-3l-1 1-1 1-1 1v1h-1l1 1h-1v-1h-1v-1h-1v2l-1-1v2h-1v1h-1v2h-1l-1 1v1h-1 1v-1h-1v1h-1v-1h-1v-2h1-1l-1 1v-1h-1v-1h-2v-1h3v-1h-1v-1h2zm44 6h-1v-1h-1v-1h-1l-1-2v-5l-1-1v-1l-1-1v-1h2l2 1 1 1h1v1h1l1 1v1l1 1 1 1v3l1 1v4-1h-2v-2h-3zm6 1v-1l1 1zm-50-6v-1zm38-5v1zm-20 0v1z"/><path d="m443 125h2v3h1v7h1v3h1v1h-1l-1 1v1h-1v1h-1 1l-1 1v1l-1 1v4h1l-1 1v6h3v1h1l1 1h2v2h1v1h-3l-1 1h-2l-1 1h-2l-1-1h-2v-1h-1v-1l1-1v-2h-1v-1l-1-1v-1h-1v1l1 1-1 1h-1v5l1 1v1h1v1h1v1h1v3l-1 1h-3v1l-1-1h-4l-1 1h-4v1h-2v1h-2 1l-1-1h1v-7h-1 1v-1h-1v-4l1-1v-1h1v-1h1v-1l1-1h2v-1h2l1-1h1v-1h1v-1l1-1v-1l1 1v-1h1v-1l1-1 1-1h1v1-3l-1-1v-1l-1-1v-2 1-6 1-2l1-1 1-1h2l1-1h1l1-1 1-1v-1h-1zm27 27h-1v1h-4v-1h1l1-1h1l1-1 1 1h5l1-1h1v-11h2v-20l1 1v-1h1v-1h5v1h1v2h1v-2h2l1 1v1l1 2h1v3l1 1v5l1 1v6l1 1v1h1l1 2v2h1l1 4h1l1 1v1l1 1v1h-1v1h-5v-1h-14v-1h-5v-1h-3l-1 1h-3zm-384-4h1l-1 1zm-11-3h-2l-1-1v-1h-1v-1h-1l-1-1h-1v-1h-1v-1h2v1h1v1h2v1h1v1h1v1h1zm-7-1v1zm-2-2v1h1-1v1h1-1zm-2 0v-1zm1-4h1zm428 130v-5l-1-1v-1h-1v-4l1-1v-6l1-1 1-1 1-1 1-1 1-1v-1l1-1v-1l-1-1h1l1-1h1v-1h2l1 1h4v-1h1v-1h2l1 1h1l1 1h1l1-1h1l1 1 1 1h5l1-1v-2h1v-3h1v1h1v1h2v-1l1 1h-1v1h3v1h1v1h-1 1v1h1v2h1v2h-4l-1 1h-5v1h-1v10h-4l-1 1h-1v1h-1v1l-1 1h-1l-1 1h-1l-1 1-1 1-2 1-1 1-2 1-1 1-2 1-1 1-2-1h-3v-1l-1-1-1 1zm-429-150v-1 1-1z"/><path d="m497 241-1-1v-2h-1v-1h-1v-1h1l-1-1h1l1-1 1-1 1-1v-2l1-1v-1h1v-1h1v-2l1-1v-1l1-1v-1h1v1h1l1 1v-1h2v-1h1v-1h1v-1l1-1v-2h1v1-1h1l1-1v1h2-1v-1h1v1-1h3l1 1v2h1-1v1h1v-1 1l1 1 1 1h3-1 3v7h-1v1l-1 1-1 1v3l1 1h-1v3l-1 1v2h-2v1h-3l-1-1h-1v-1h-1v-1h-1v1h-3l-1-1h-3v1h-8l-1 1zm272 4v-1h1-1v-2h1v-5 1l1-1h-1v-1h1-1v-1h1v-2h-1l1-1v1h4l1 1v-1 1h1l1 1 1 1v1h1l1 1v1h-2v2h-2v1l-1-1v1h-1v1h-1v1h-4v1zm-248 135h-1zm-2 0h1zm2-1h1zm-5 2h1zm8-10v-1l1 1h1v-1h-2zm-9 8h1v1h3l1-1v-1h2v-1l1-2v-1h1v-3h-1 1l1 1 1-1h-5v-1h-2v-1l1-1h-2l1 1-1 1v2h1v1h-3l1 1h-1v2h1-1v1h-1zm10-7h-1zm-3 6v1zm-58 112h-2v-1h2zm-15-11v-2h1l1 1v-2h1l1-1v-1l1-1v2l-1 1v1l1 1 1 1h1v1l1 1h2v-1h2l1-1v-1h1v-6h1l1-1v-1h2v1h2l1-1h1l1 1h1v2h1v1l1 1h1v-2h3l-1-1v-1l1-1v-2h1l1 1h3v-2l1-1v-1l1 1h1v-1l1-1 1-2h1v-2h-1v-2h1l1-2 1-1v-2l1-1h2l-1-2v-1l1-1v-3l1-1v-1l1-2h-1v-3h3l1-1 1-2v-1l1-1-1-1v-9h-1v-1l-1-1 1-1 1-1-1-1v-4h1v-1h1v-1l1-1-1-1v-1l1-1v1h2v1h1v2-2l1-2h1v1h1-1v-1h1v-1h1v-1l1-2h2v-1h3v1-1h1v1l1 1h1v1h1v2h-1l-1-1v1h1v2h-1v1h-1 1l1-1h1v-1h1v3h-2l-1 1h1v1h-1v2h-1v-1 1h-1v1-1h2v-1h1v-1l1-1v-1h1v2h-2l1 1h1v1l-1 1v1-1h1v3h-5v-1 1h-2v1h1l-1 1h1v-2h1l1 1v-1h4v2h-1 1v1l1 1-1 1h-1l-1-1h-2v1-1h1l2 1h1v1h-1v1h-1v1l-1-1-1 1h1v1h-3l-1-1v1l-1 1h3v-1 2h-1l-1 1h-1l-1-1-1-1v1l1 1h1l-1 1h-1v1h1v1h-2v-1l-1 1h-1v-1h-3v2h-2l1 1-1 1h1l1-1h-1l1-1 1-1 1-1 1 1v1h1-1v1l-1 1v1l-1 1-1 1-1 1h-1v1l1-1v1l-1 1-2 1h-1v1h-1 1v-1h1v3l-1 2-1 1v-1 1l1 1h-3l-1 1h2v-1h1v3h-1v1h-2v1h1v1h-1v1h-4v1h3l-1 1v1h-1l-1-1v-1 1l-1 1h2v1h-1 2v1l-1 1h-1v1h-1v1h-1v-3 1l-1 1h1v2h-4v1h3v1h-2v1l-1 1v2h-1v1l-1 1v1-1l-1-1h-1v1h1v1h-1v2h-2v-3 3h-1v1h-1v-3l1-1v-1 1l-1 1h-1l1 1v2h-2v1h-1v-1h-1v-1 2l1 1v1h-2l-1 1h-1v-2l-1-1v2l-1 1-1 1-1 1v2l-1 1h-1v-1h-1v1-1h-1v-1l1-1v-1h1v-3l-1 1v1l-2 2v1l-1 2-1-1 1-1v-3l-1 1-1 1v2h-1 1v1l-1 1h-2v-2l1-1v-1l-1 1v-4 2l-1 1v2h-2v-1h-1v-1l-1 1v-2h-1l-1-1v-1l1-1h5l-3-1v-2h-1v1h-1v-1zm21 9v-1l1-1v-1l1 1v-1h1v1h1-1l-1 1h-1zm-2-2 1-1v2h-1zm1-1v-1h1v-1h1v2h-1l-1 1zm11-2-1-1v-1h1zm1-2h-1l1-1v-1h1v-1h1v-1h2v1h-1v1h-1v2h-1v2h-1zm-4 1v-1h1v1-1 2h-1zm-26-3h1v1h-1zm35-1v-1h-1v-3h2v-1h1v3h-1v1h-1zm5-9v1h-1v2h-1v-2h1v-1l1-1h2v-1l1 1v-1h1v1h-1l-1 1-1 1v3l-1 1v1h-1l1-1zm2 3h-1v-2h3v1h-1v1h-1v1zm3-5v-1h2v-1 1l-1 1zm3-3v2zm2-13v1h-1v-1zm-1-1h1l-1 1zm2-2v1zm2-5h1v1h-1zm8-8v1h-1zm1-2v1zm8-13h1v1zm0-5h1v1h-1zm-233-132v-1l1-1-1-1v-1h7v1h2l1 1v1h5v1h3v1h1l1 1h1v1h2v1h-1v2l-1 1v1h-1v-1h-1v1h-2v-1h-1l-1-1h-1v-1h-1v-1 1h-2v-2h-2v-1 1h-1l1-1h-2v-1h-1v-1 1h-3v-1zm-268-216v-1 1-2h1v1h-1 1v1zm-1-2 1-1v1zm30 34-1-1h-1v-1h-1v1-2h-1 1v-1h-1v-3h-2v-1 2l-1-1v-1l-1-1v-1 1-1h-1l-1-1h-2v1h-1v1h-1v-1h-1 1v-3h1v-2h2l1-1v-1h-1l1-1v-1h1v-2h1v-2h1l1-1h1v1h1v1l-1 1v3h1v1h2v1h1v1h-1l-1 1h-1v4h-1 1v2h-1l1 1h1v1h1-1v1l1 1v-1l2 3h-1 1v1h1-1l1 1v1h1-1zm-6-5v1zm7-18h-1v1h-2v-1h1-1v1h-1 1v-1l-1 1v-1h1v-1h-1v-1l1-1 1-1v-1l1-1 1-1h1v-2h-1v-1l1 1v-1 1h1v-1 1h1l-1-1h1v-1h2v-3l1-1v-3h2v-1h1v-1l1-1h1l1 1v-1h1v1h1l1 1h3l-1 1h1-1 1v1h-1v2-1h-1v1h1l-1 1v-1 2l-1-1v1h-1v1l-1 1v1h-2v1h-2v1h-1v1h-1v1h-1v1h-1v-1 3h-1v1h-1v2h-1v2l-1 1h-1 1v-1h-1zm-3 2 1-1v1zm20-19h1zm-3-5h-1 1-1v-1h2v1h-1l1 1h-1zm5-16v-1 1h1-1v1zm-8-8h-1zm316 247h1v2h-1zm0-1h1zm9-26h1v2h1v2h1v2l1 1h-2l-1 1h-2l-1 1h-2l-1 1v1l-1 1v3h-1v1h1v2h1-1v4h-2 1v3h-1v-1h-1v1-1l-1-1v-1h-1l-1-1h-3l-1-1v-1h-1v-1l-1-1h-1l1-1v-1l1-1h1v-1l1-1v-1h1v1-1h1v-4h2l1-1 1-2h2l1-1v-1l1-1h3l1-1zm-15 10v1h-1v1-1zm382-33v-1h-1v-1l1-1h-1 2v-1l1 1v2h-1l1 1v-1 1-1h1v1l1 1h2v-1l1-1h1v-1l-1-1h1v-1h1v1h1v1-1h1l1 1v1h3v-1 5l-1-1v1-1h-1v-1h-2v-1h-1l-1 1h-1l-1 1h-1v1h-2v-1h-2l-1-1h-1zm11-4h1v1zm-32-32v-1h1v1h1v-1h3l1-1h1v-1h1v-1l1-1v-2h1v-1h1v-1h-1 1v-1h-1v-1h1-1v-1h-1v-2h-1l1-1h-3v-2h-3v1h-1v1h-1 1v-5 1h-1v-1l-1 1h-1l-1-1v-1l-1-1v-1l-1-1h1v-5l1-1v-4l-1-1v-1h1v-1h1v-3h1v-1h1l1 1h1v1h1v1l1 1h1v1h2v1h1l1 1h2v1h1l1 1 1 1 1 1h1v1l1 1h-1v2h1v1l1 1v1h1v2l1 1 1 1 1 2v1l1 1v2l1 1 1 1 1 2v1h1v1l2 1h1v1h-1v1h1v2h1v1l-1 1-1 1-1 1v-1h-1l1-1v-1h-2v-1h-1v-1h-1v1l-1 1v2h-1v1l-1 1h-1l-1 1h-1l-1 1h-1l-1 1v1l-1 1v3h1-3v-1h-1v-1l-1-1h-1v-2h-1v-1h-7l-1-1h-1v-1h1v-1l1-1h-1v-1zm197-13h-1zm0-2v1h-1zm-3 0h-1v-1h1zm-1-3v1h-1v-1zm17-15h1zm-7-1v1zm25-1h1zm-22 0h1zm22-1h1zm-6-2v-1l1 1zm-23-1v1h-1zm0-1v1zm-1 0h1zm-6-8v1zm-819 28-1-1h1v1-1zm-3 0h1zm9 4v-1l1 1v1-1zm2 2v-1h-1 1zm0-1h1v1h-1zm-6 2h-1v-1h1zm25 1h1zm-21-1v1h1-1zm21 1h1zm-12 8h1zm-22-3h2v1l1 1v2-1h-1v-1h-1v-1h-1zm24 4h1zm-21 0h1v1h-1zm8 3h-1v-2h1v-1h-1 1v-1h2v-1h2v-1h3v1h2v1h1v1l-1-1v1-1l-1 1v-1h-2v1h-1v1-2l-1 1v-1h-1v1h-1v1h-1v2zm-5 0v1zm5 4v-1zm22-3h-2v-1h-1l-2-2v-2h-1l-2-1h-2v-1h-1v-1h3v-1l-1-1-1-1h-1v-1l-1-1v-1l-1-1-1 1v-1h-1 1v-1h-3l1-1h-1v-1h-2 1v-1h2v1h4l1 1v-1 1h1l1 1h1v1l1 1v1h1v1h1v1h3v1h1v-1h2v1l-1-1h1v-1h1-1 4v-1l-1 1v-1h-2v-1l1-1h6v19h-1v-1h-2l-1-1h-2v-1h-2zm-25-2v-1 1h1v2l1 1h1v1h1l1 1h1v1-1h-2v-1h-1l-1-1-2-2zm7 5h1v1h1-2zm7 1h1v1h-1zm3 1h-1 2zm-8 1 1 1h-1zm78 64h1zm1-4h1zm-1-2v1zm3 0h-1l-1-1h-2v-1h1v-1l-1-1v-3h1v-1h1v-1l1-1-1-1v-2l-1-1h-1v1h-2v-1h-2v-1h1-1v-1l-1-1v-1h1v1h1v1h1v1h1v1h1v-1h-1v-1h1v1l1 1h2v-1h1v1h1v1l-1 1h1v1-1h1v1h1v4l-1-1v2l-1 1v1h1v1l-1 1v1zm-3-11v-1 1h1zm0-3v1zm-7-1h1v1h-1zm12 1v-1zm-5-1v-1l1 1zm4 0h-1l-1-1v1-1h-1v-2h1v-1h1v2l1 1v1h1zm-8-2h1v1-1zm-1-1h1zm5 0v-1zm-5-1-1-1h1v1h1l1-1v1l-1 1h1-1zm-4 1v-1h-1v-3h-1 2v1h1v2h1v1h1zm7-1 1 1h-1zm7 0h1zm1-1h-1zm-7-1h-2v-1h1v-1h1l1-1v4h-1zm-7 0v1zm1 0v1zm0 0h-1v-1h-1l1-1h-1v-2 1h1v-1 2l1 1v-1 2h1zm20-9v2h-1v1h-1l-1 1-1 1-1 1v2h-1v1-3h-1 2v-1h1v-1l1-1 1-1 1-1h1zm-17 3v3h-1v2h-1v-2h1v-1l1-1zm1-1 1 1 1 1v1h-1v1l-1 1v1h-1v-3h1v-1l-1-1zm1 4h1l-1 1zm-4 1h-1zm12-1v1zm-16-1v1zm3-1h2v1h-2zm-4 0v1h-1v-1zm0-1h-1v-3h-1l1-1h-1v-2l1-1v-2 1l1 1v1h1v-1h1l-1-1v-2l1-1v2-1h1l1 1h1v4h1v1h1v-1h2v1l1-1v-1l1-1v3h-2v1h-1v1h-2v-2 1h-1l-1 1h-1v1h-2v2zm6 0v-1h1v1zm-3-1h1v1h-1zm5-4v-1h1v1zm-8-2h1v1h-1zm11-1h1-1v1l-1-1zm2-1v-1h1v1zm3-3h1l-1 1zm127 97v-1 1l-1-1h-1v-1h-1v-3h-1v1-1h-2v-1h-2 1l1-1 1-1h2v-1h3l1 1h2v-3h-1 1v-1h-1v-1h1v-1h-1v-1h-1v-1h-2v-1h1l1-1v-3h1l1-1v-2h2v-2l1-1h1v-1h1v-1l1-1v-1h3v1h1v-1h1v-1h1v-3h-1v-2h-1v-1l-1 1v-2l-1-1v-2h1v1h1v-1h5v-1h3v1h1v2h1v1l1 1h1-1 2v-1l1 1 1-1h2v1h1v-1l1 1v-1h6l-1 1v2h-1v1h-3v2h1v4l1-1v1h2v1h1v2l1 1 1 1-1-1h-3l-1-1-3 1-1-1h-1v1h-5v1h-1 1l-1 1v2l-1 1h-3v1h1-1v1h-2l-1-1v1h-1v3l-1 1h-1v1h-1l1 1v1h-3v3h-1v1h-1l1 1v2h1v1h-1l-1 1h-1v1h-6v1h-1zm155 70h-10v-2l-1-2v-1l-1-1v-2h1l1-1v-1h-1v-4l-1-1v-3h1v-1h1v-1h1v-1l1-1v-2h-1 2l1 1h1l1 1v-1 1l1-1h2v-1l1 1v1h1l1-1v1h1v2h3v1h1v1h1v-1h1v-1 1l1 1h-1v1h3v1h2l-1 1v1h1v4h1v1h-1l1 1v1h1l-1 1v4h1-2l-1 1h-3v1h-1v1h-1l-1 1h-4v-1l1 1-1-1v-1h-2zm213-33h1-1v1h1-1zm202-219h1zm-174 123h-1v-1h4v1zm-282 40v1zm-3 2v-2h2l-1 1v3h-1zm148 3h-2v-1h1zm23 17h-1 2zm7 2h2l-1 1zm2 0v1zm-3 1h2zm-2 0h1zm12 3v-1zm-65 9h-4v-1h-1v-1h1v-1h1v-5h2l-1-1v-1h-1v-1l1-1v-1l-1-1h1v-3l1-1h2l1 1v-1h1l-1 1v4h1v2h-1 1v-1h1v3h-1v1l-1 1v7h-1v1h-1zm-400-109v1h-1 1zm541-78-1-1v-5h-5l-1-1v-2h-1v-3h-1v1h-2v-4l1-1v-4h1v-1h1v-1h2l1-1v1h6v1h-1v3h-1v1h-1v1l1 1h1v1h1l2 1 1 1h2l1 1h1v1h1l1 1 1 1v1h1v3l-1 1v2l-1 1v1l-1 1h-5l-2 1-1-1v-1h-1zm-307 128h1v4h-1v1h-1v-5zm-13-132h1v2h-1v-1zm77 204v-1h-1v1l-1-1v1h-2v-2h1l1-1v1-1h1-1v-1h1v-3h1l1 1h1l1 1h2l1-1h1v-1h3l1 1v-1l1 1h3v1h1v2h1v-1l1 1h1l1 1h-1 1-1v1h1v1h1v1l1 1 1 1h-3v2h-1v2h-1v2h-1l-1 1v-1 1h-1v1h-1v-1h-4v-1h-1v1h-3v1h-1v1h-1v-1h-1v-2h-1v-2h-1v-1l-1-1v-1l1-1v-1l-1-1h1z"/><path d="m480 348h-1l-1-1-1-1v-1h-1v-1h-1v-1h1-1 1l-1-1h-1l-1-1v1h-1v-3h1v-1h-1v-1h-1v-2h1v-2h3l-1 1h1v1h1v1h1v1-1h1-1 1v-1h1v1h2v1h1v1h-1v1h-1v1h1l1 1v1h-1v1h1v1h-1l1 1v1l1 1h-2v1zm-97 252 1 1v3l-1-1zm8-101v-5h-1v-1l-1 1h-4l1-1v-1h-1l-1-1-1-1h2v-2h1-1l-2-1h-2v-1h-1l-1 1v-1h-2v1l-1-1h-2v1l1 1 1 1 1 1 1 2 1 2v2l1 1v6l-1 1v1h-1v3l-1 1v1h3l1 1h1l1-1h3v-3h1v-1l1-1v-1h-1v-2l1-1v-1h1v-1l1 1v-1zm-3 98v-1h-1l-2 1h-1v1l1 1 1 1h1v-1h1v-1h1zm-9 17-1 1-1-1h-1v1l-1-1-1-1-1 1v3l-1 1h-1v1h2v2h1v-1l1 1 1-1v-2h1l1-2 1 1 1-1-1-1zm4-7h-1v-1h-1l-1-1-1-1h-2l-1 1-2 1-1 1h1l2 2 1 1 1 1h2l2 2 1-3v-1l1-1v-1zm-10 17h-1l-3 1v2l3-1 1-1zm25-22h1v1h1l1-1h1v-1l2-3v-2h-1v1h-1v1l-1-1v-1l1-1h-2v1-1h-1v2l-1-1v2h1l-1 1v1h-2v2h-4v2l-2 1 1 1 1 3h3l1-1 1-1v-4zm-4 10v-1h-1v1h-1l1 1v1l1-1zm4-135 1-1h1v-4l-1-1h-2l-1 1v1h-1v1-1h-1v1l1 1 2 2zm10 126-1-1-1 1v-2h-1v1l-1 1h-1v1l-1 1v1h-1v-1l-2-1v3h2l1 1h1v-1l1-1h1l4-2v-1zm-16-11h-1v1h1v2l1-1h1l1-1-1-1zm3 3-1 1v1h1l1-1-1-2zm-37 15 1-1 1-1v-1l-1-1v-1h-1l-4 1-1 1-1 2v4l1 1h2v-3l1-1zm21-15h-4v4l1 1v-1h2v-3zm1 2v2l1-1v-1zm-10 19h-1v1l1 1 1-1v-1zm2-4v1l2-2h1l-1-2h-1v-2l-1-1h-1l-1 1v3l1 1v1zm-3-8v-2l-1-1h-1l-1 1-1-1-1-1-1 2-1 1v1h-1v4h1l1 1v-1l2-1h1v1h2v-2l1-1zm-1-125v-1h-1v1l-1-1v3h1v1h1v1h1v1h1v1-1h1v-3l-1-1h-2zm-16 66h1l1-1v-1h3l2-1h3l1 1 1-1v-2h3v-1l1-1h2v-1l1-1 1-1v-1l1-1 1-1h2v-2l1-1v1h1l1-1v-1h-2v-1h1v-1l1-2v-1h-1v-1h2l1-3 1-1v-1h1v-1h1v-1h1l-1-1-1-1v-2l-1 1h-1l-1-1h-2v-1h-2v1l-1 1-1 1v2h1v1h-1v-1h-1v2l-2 2v3h-1v1h-1v2l-1-1v1h-1l-1 1v2h-1v1l-1 1v1h-2l-1 2-3 1-1 1h-1l-1 1-1 1h-2l-1 1-2 1-1 1h-1l-1 1-1 1h-1v1l-1 1-1 2v2l1 1v1l2 1h2l1-1 1-1 1-1v-1l1-1zm23 57v-5l-1-1-1-1v1l-1 1v2h-3v1h1l1 1h3zm-10 7-1 1-1 1v1h2l2-1v-1h-1zm-5 14v-1h-3l-1 1h1l2 1h2v-1zm10-30h-1v-1l-1 1h-1l1 2 2-1zm102-207-1 1h1v1h3v1h1v-2h2l-1 1v1-1h1v-1h1v-1h1v-1h-5l-2-1h-1zm-86 105 1 1v1-1l1 1 1-1-1-1h-1v-2h-1l1 1h-1zm-124 105h1l2-1h3v-1l1 1v-1h1l1-1v-3l1-1 1-1 1-2v-1h-2l-1-1v-1l-1-2v-1l-1-1h-1v1h-1v-2h-3l-1-1-1-1h-1v-1h-3l-2 1-1 2v2h1l1 1v2l-1-1v4h-1v6h1v1h1v1h2v-2l1-1v1l1-1v-1h1l-1 1v3h-1l1 1v1zm2-54 1 1 1-1h2l-1-1h-1l-1-1v2zm0 1v-2l-1 1v1zm-9 45v-1h-1v1l1 1zm7-41v-1zm-29 8h1v-1h-1zm21 18v-3l1-1 1-2v-2h1l-1-1-1-1v1l-2 1-1 1-1 1h-4l-1 1h-2l-1 1h-2l-1 2v4l1 1h1v2h1l1 1v1h1l1-1 1-1v-2h1l-1 4v2h-1v1l1 1 1 1 1-1v-1l-1-1h1v1l1 1v-2h1v-1l1-1v-5h2zm-17-6-1 1v1h1v-1h1v-1zm36 24-1 1 1 1h3l1 1h2l1-1v-1l-1-1-1-1-1-2h-1l-1 1h-1l-1 1zm19-65h-1v2l1-1v1l1-1v-1zm-163-166h1v2h1v2l1 2v1l1 3v3h1v2l-1 1v3l1 1v3l1 2v-1h1v-1h-1v-3h2v-4l1-1v-2l-1-1h1-1v-1l-1-1v-2h1v-1l-1-1v-3l1-1v-4l-1-1v-1l1-1v-8l-1 1v2l-1 1v-1h-2v-2 1h-1l1 1v1h1v2l1 1v3l-1 3v1h-1l-1 1-1-1h-1v-2h-1zm169 161v1l-1 1h1v-1h1-1zm3-3v1h2v-1zm-23 80-1-1v-1l-3-1-1-1h-1l-1 1-1 1h-4l-3 1-1 1v1l1 3v2l-2 1v2l1 1 2 2v2h1v2h1v1l1 1 1-1 1-1v-1h1l1-1h1l1-1 1-1 1-1v-2h1l-1-1-1 1v-2l1-1 1-2h1v-1l1-1 1-1zm-41-32-2-1h-2v2h1l2-1zm30-15h-2v1l-1 1v1l2-2h2v-1zm16 62-4-1-1 1 1 1h4zm-129-81v2l-1 1 1 1v1h1v-5zm-3-2-1-1v-1h-1l-1-2-2-1-1-1h-1v3h-2v-1h-1v1h-3v1h-1v-1h-1v-1h-1l-1 1v1l1 1 1 3v1l1 2h-1l-1 1h-1v-2h1v-3l-1-1v-1h-2l-1-1-1 1-1 2v1l-1 1-1 1h1l4 3h3l1 1 1 2h1v1l1-1 1-1v-4h1v2h1l1 1 1 1 1 1v1h2l1-1v-1h1l1-1-1-1v-1l1 1v-5h1zm-66-42h-1 1v1zm32 59-1 1h2l1-1zm6-19h-1l-1-1-1-1h-1l-2-1h-1l-1 1h-2v1l-1 3 1-1 1 1h1l2 1 1-1 1 1v1l2 1h1l1-1 1 1v1l1-1v-3l-1-1zm-17 12v1h1v-1zm-72-52h-3v1h-5l-1 1h-1l-1 1v1h1l1 1 1 1h5v-1l1-1 1-1h1zm49-14v-1h-1v-1 2l1 1v1h-1v2l1-1zm-19 5-1-1-2-1-1 1v2l3 1h1v-1h1zm157 67-1-1v-1h-1v2h1v1-1l1 1zm-66-27v-1l-1-1-1-1v1l1 1 1 2zm31-3v1zm-43-4v-1h-1l-1 1h-1l-1-1-1-1h-5v3l2 2 1 1h4v-1l1-1v-2zm56-4h-1v1h2zm-58 9v-1l-1 1v1l-1 1 1 1h2v-3zm163 1h-1l1 1zm-155-24h2l-1-1h-1l-1 1zm136 59h-1v2h1zm-217-166v1h1v1h1v-1h-1v-1h-1v-1zm33-25v-1 2zm-3 6v-2h2v-1h-2v1h-1v2zm-1 0v-1h-1v1zm209 163h-1v3-1h1l-1-1h1v1l1-1zm-207-163v1zm9-16h1v-1h1-1zm-5 8v-1zm23-22h-1zm-1 0v1zm0 4 1-1v-1h1v-1l-1 1-1 1h-1v1zm-7 4 1-1h2v-1h1v-2h1v-1 1h-1v1h-1v1h-1l-1 1h-1zm-4 3 1-1v-1l1-1h-1v1h-1v1l-1 1zm9-10h1zm-10 70v-1l-1 1zm-39 0h1l1-1v-2h1v-1l-1 1-1 1h-1l-1 1v1zm248 178-1-1h-1v-1l-2 1 3 2v-1 1h1zm0-74-1-1h-1l1 1zm1-1h-1v1h1l1-1zm3-5v-1 2h-1 1v1h1v-2zm-13 100-2 1h-1v2h3v-1l1-1zm26-99h-2l-1 1h-2v1l1 1v1h4zm-25-3h-2v2h1v1l2-2zm-250-119h1v1-1l-1-1zm254 117h1v-1l1-1h-3l-1 1-1 1h1l1 1h1zm-167-115 1-1h-1l-1 1zm-3 0 1 1v-1h1v-1h-1v-1h-1zm-146 64h1v1h1-1 1l1 2 1 1 1 1 1 1h3-2v-1h1l1 1v-1h1l-1 1 1 1h3v-1h-1v-1h-1v-1h1v-1l-1-1v-2h1l-1 2h1v-1h1v2h1v6h1v-1 3l5 3v1h2-1l1 1 1 1h1-1l-1-1v-1h1v2h2v1h-1 1v1h1v1h2v1h1l1 2h1v1h2l1 1 2 1h1l1 1 1 1h8v-1l1 1 1 1h4l1 1h1v-3l1-1-1-1-1-1v-1l-1-1v-1l2-2h2l1 1v1l1 1 1 1h1v2l1 1v1h1l2-2h3l4 1 1 1 1-1h1v1l1-1h2l1-1 1-1v-4l1-1v-2h1v1h-1v4l1 1v3l2 1h1v3l-1 1v1l1 1v1l1 1 2 2 2 1h8l2-1 2-1h3l2 1v2l1 1 1 1h1v-1h2v-1l-1 1v2h2v1h2v1l-1 1h-2v1h1v1l1 1h1l2 1h3l1-1 2-3v-1h1l2-1v2h-1l-1 1 1 1-1 1v-1h-1l1-1h-1l-1 1-1 1v1h1l4-1h3l-1 1-1 1h-1l-1-1h-2v1l1 1h2l2 1h2l1 1h5l1 1h2l-1-1v-1h-1l2-1h3v-1l1-1v-1h-3l1-1 1-1v-1h-1v-3h1v-1h1v1l1 1 1-1v1-1h1v-2h-1 1l1-1h-1v-1l1 1 1 1 1 1 2 1v1h2l1-1 1-1h3l1 1 1 1 1 1v1l1-1v-1l1-2v-2l1-1v-2h1v-1h1v2l1-1 1 1v1h1l1 3 1 1 1 1-1 1h-1l1 1v1-2h1l1 3 1 1 1 1v1l-1-1-1-1-1-1h-1l-1 1v1l1 1v1h2-1v1h-1v2h1v1l-1 1v1-1h1v2h1v1h1v1h1l2 1v-1l1-1h1v2-1h2l2 2 1 1 1-1h2v-4l-1-1h1v-2h1l1 1h1v-1h-1v-1h2v1h6l1 1 2 1 1 1v2h-1v1h4l2 1h4l1-1h3l1-1-1-1v-1h1v-4h1l-1-1-1-1h1l1 1v1l-1 1v4l1 1-1 1v1l1 2v1h1l-1-1 1-1 1-1h1l1 1 1 1v1l-1 1h2v-1h3v-1l1-1h-1l-1-1v1h-2l1-1 2-2h2v-1h2v-1h1l1-1h4v-2h1l1-1 1-1v1l-1 1-2 3-1 1-1 2h-1l-1 1h-1l-3 4h-1l-1 1v2h-1v1l-2 1-1 1-2 1v1l-3 2-1 3-1 2h1v1l1 1v-1l1 2 1 1h-1l-1-1-1-1v-1l-1 2v2h1v4h1v-2h1v4h2v-1 3h1l1 1 1 1h1l2-1 1 1h4v-1l1-1v-1h4v1h-1l-1 2v1l-1 1v1h2l1 1h1v-1h1v1h4v1h-2l-1 1-1 1-1 1v1l1 1h1l1 1 2 1 2-1h1l1-1 3-4 1-2v-1h1v-6h-2v-1l1 1h7v-1h-1l-1-2-1-1v-3l1-1v2h-1l1 1 1 1h1v1h1v-1h1l1-1v-1h2l1-1h1-1v1h1l1-1h1l-1 1v1l1 1h1l1-1 1 1v-1h4v-1 1l1-1v-1h-1v1l-1-1v1l-1-1-1 1v-1l2-1 3-1h2l1-1h1l2-1 2-1h1l1-1 1-1 2-2 2 1v-1l-1-1v-1l1-2h1v-1l1 2 1-1 1-1h-1l-1-1h-1v-1l-1-1h1v1h2v-2h-2v-1l-1-3h-1v-2l1-1h3v-3l-2-1v-1l1 1 1 1 1 1v1l-1 1h-1l-1 1-1 2h4l1-1 1-1 1 1 3-1h6l2-1v-1l1-1v-2l-1-1v-5l-1-1-1-1h-2v-1l-1-1-1-2h-1l-1-2v-2l1-1v-3l-1-2v-1l-1-1 1-1h1v-2h1v2l-1 2v2l1 1 1-1v-1l1-2v-1 3l-1 1 1 1v1h-1v2l-1 1-1 1v2h2l1-1 1 1h1l1 2 1 1h1l1 1 1 2h4l1-1v-1h1v-1h-2v-2h2l1 1h2l1-1-1-2v-1l-1-1h-1l-1-1h-2l-1-2v-1h-2 3l2 2h1v-1l1 1h2l1 1h1v2l-1 1 1 1v2l-1 2v3l1 1v2h2l-1-1v-6l1-1h1l1-1h1l1-4-1-1v-1l-1-1-1-4v-1l1-2v-1l1-3v-1l-1-1v-3h-3l-1 1h-2l-2-1-2-1v-1h-1v-4l-1-1h1l1-2v-2h-3l-1-1h3l1 1 1 1v6l1 1v1l1 1h1l1-1h2l1-1v-1l1-2-1-1v-4l2-2v-3l1-1 1-1 2-1v-2h6l1 1h2v2h1v1h-3v-1h-2 1v-1h-1v-1l-1 1-1 1v2l-1-1v1l-2 4-1 1h-1v4l-1 1v2l1 1h1v1l1 1v11h-1v5l1 2 1 1 1 1v1l-1 1-1 1v3l-1 2v3l1 1 1 1h1l1 1 2-1h3v1h1l1-3v-2l1-4v-1l1-2 1-1 1-1 1-1h1v-4h-1v-7h1v-4 1h-1l-1-1h-1l-1-1v-3h-1v-1h-1v1l-1-1 1-1v-2l1-1h1l1 1 1 1 1 1v1h2v1h2v1h1l1 1 1 1 1 1 3 1 2 1h2l2 1 1-1v-1h2l-1-2-1-2-1-1 1-1v-1h2v-3h2l1 1-1 1v2l1 1 2-1 2-2 1-1h1v1h3l1-1h1v-2h5v1h-2v1l1 1-1 1v1l-1 1h-1 2l1-1 3-1v-2h-1l1-1h1v1h2v-1h2l1-1 1-1 2-2h2l-1-1h2l1-1v-4h1v-1h3v-1 1h2v1l1 1 1 1v1l-1 2-2 1h-2v1l1 1 1 1 1 2h1l1 1 2-1h1l1 1h1l-3-2v-3l1-2v-3h1l-1-1h-1v-5l1-2v-1 1h1v1l1 1h3l1-1 1-1 1-1h1l1-1v-1l2-1v-2h-1v-2h-1v-2l1 1 1-1v-1l2 1 1 1h2l1 2h2v-1h1v-2h-1l-1-1v-1h-2v-3h1v-1h1l1 1 1 1h1v1l1 1h2l1 1v1h-1l1 1v3l1 1h-1v4l1 1h1l1 1h1-1v1h1v2h1l1 1v1h1v1h1-2l-1-1v-1h-1l-1-1h-1l-1-1h-1l-2-1-3-1h-1l-1-1h-1l-1-1h-2l-2 1-2 1-1 1-2 3-1 2h1v4h1v1h1l1 1v1h1l2 2h2l2 2 3 3 2 1 1 1h5l1-1v-1 2l-1 1h2v1-1l1 1h1v1h-2v1h1v1h2-1l1-1h1v-1l1 1h1v-2h1l1 1v-2h1l1-1v-1l1-1h1v-1h1-1v-5l-1-1h-1v-1l-1-2h-1v-1l1-1v-1l1-1 1-1v-1l-1-1v-1l-1-1v-2l-1-1v-2h1v-6h-1v-3l-1-1v-2l1-1-1-2h-1l-1-1v-1h-1v-3h1v-1l1-1 1-1v-1l1-1v-1h1v-1h1v-1l1-1h1v-1h1v-1l1-1h-2v-1 1-1l-1-1h-2v-1h-1v-1h1l2 1v-1h2v-1h1v-1l-1-1h1v-2h1v-6h-1 1v-1h1v-1h-1v-1h-1v-1h1v-1h-1v-2l-1-1v-1h-1v-1h-1v1l-1-1v-1h-1v1h-1l-1-1h-1v-1 1-3h-1l1-1v-1h-1v-2h-1v-1h-1v-1h-1l-1-1v-2h1v-1h1v1h1l1-1h-1v-3l-1-1h-1v1h-5v-2l-1-1h1l-1-1v-1h-2v-1h-1v-3h-3v-1l-1 1h-2v-1l-1-1h-1v1l-1-1h-2v-1h-2v-3h1-1v-1h1v-1h-1v-1h1-1l1-1v-1h3v-1h1v-2l-1 1v-1l-1 1h-1v-1h1l1-1h1-1v-1l1 1 1-1v-1h-1l-1-1h2v-1l1-1v-1h3v-1h-2v-1h-1v-1l-1 1-1-2h-1l-2-2h-1l-1-1h-3v-1h-5v-1h-1l-1-1h-1 1v-1h-1v1h-3l-1-1h-1v-2h-2v-1l-1 1v-1h-1v-1l-1-1h-1v1h-1v1h-1v1h1v2l1 1h1v4-1 2h1v1h1v2h-1v2h-1v2-1 1l-1-1v1h-1l-1 1v-1 1h-1v1h-1l1 1h1v1h-1v1h1v1l1 1v1h3v2h1v1h1l-1 1v1l-1 1h1v3h-1v2h-2v-1l-1-1h-2v1l1 1v1h-1v1h-1v1h-1l-1 1h-1v1l-1 1h-1l-1-1h-1l-1 1h-1v-1h-3v-1h-1v-1h-1v-2h-1v2h-1v-1h-1v-1h-2v1l-1 1h-2l-1-1v1h-3v-1h-1v-1h-2l-1 1h-1v-1h-1l-1 1h-1v3h1l1 1h1v1h1l-1 1h-1l-1 1 1 1v1h-1v1h-3v1h3v1h-1v1h1v2h-1l-1-1h-1v1h-3v1h-3l-1 1v-1l-1 1v-1l-1 1v1h-4l-1 1h-3v1h-1v1h-4v-1h-1v1h-1l-1-1v-4l-1-1-1 1h-2v-2 1h-3v-1l1-1v-1h-1v1h-2v-1 1h-1v1h-2v1h-1l-1 1h-1l-1 1v-2h1l-1-1-1-1-1-1h-1v-1l-1-1-1-2-1-1v-1l-1-1-1-2v-1l-1-1v-1l-1 1v1h-2v-1h-1v-1h-5v1h-1l-1-1v-1h-1v-1l-1-1h-1v-1l-1-1h-2v-1l-1 1-1 1v-2h-1v-1h-3v1h-2v1-1h-1v1h-1v1h-1v1h-2v1h-2v1h-1v1h-4v-1h-3v-2h-2v-1h-2v1h-1v-1 1-1h-3v-1h-1v1h-1l-1 1v3h1v2l-1 1v1h-1v1h-1v1h-1v-1h-2v-1h-3v-1h-3v-3h-1v-1l-1-1h-1l-1-1h-2v1h-3v1l-1-1h-3l-1-1-1-1h-2v-2h-3l-1-1h-4l-1 1h-4v1h-1v1h-1v1h-2v1h-2v-1h-1v-1h-2l-1 1v-1h-1l-1-1h-2v-1l-1 1-1 1h-1l-1 1-1 1h1v1h-1v2h-1v2l-1 1-1 1v3h1l1 1h-1l-1 1v1h-2l-1 1h-4v1h-1v-1 1l-1-1h-1l-1-1h-2l-1-1h-1v-2h-1v-2h-1v-3h-1v-2l-1-1v-2l-1-1h1v-1h-1v-1h-3v-1h-2v-1h-1l-1-1h-1v-2h-1v-1h1v-1h-1v-1h-5v1h-2v1h-1l-1 1h-1v-1h-1l1-1v-1h-1v-1h2v-4h1v-3h1v-1h1v-2h2v1h2v-1h1v-1h1v-1h-1v-6h1v-1h1v-2l-1 1 1 1h-2l-1 1v1h-1v-1l-1 1v-1h-1v-1h-3l-1 1-2 1v1h-1v1h-1v1l-1 1v1h-1l-1 1v1h-1v1l-1 1-1 1-1 2v1h-1v2h-1l-1 1v1l-1 2h-1v1l-1 1v1l-1 1h1v1h-1v9l-1 1v1h-1v2h-1 1v4h1-1v2h1l1 1 1 1v1l1 1h3v-2l1-1v-1 3-2h3-1v2h1-1v1h2v-1h-1v-1h2v2l-1 1v1h5v1l-1 1h-1l-1 1v1h-1l-1 1-1 1-1 1-1 2v1l-2 1-1 1v1h-1v1h-1l-1 1-1 1v2h-1v1l-1 1h-1v1l-1 1-1 1h-1l-1 1h-8v-1h-1l-1 1v1l-1-1h-6 1v1h-1v1h-3l-1-1h-3l-1-1h-1v-1h3v-2h-1l-1 1h-3v1h-6v2h3l-1 1v2l-2 2-1 1-1 1-1 1v1l-1 1v1h-1v1l-1 1h-4l-1 1h-1v-1h-1l-1 1-1-1 1-1v-1l1-1v-2h-1v1l-1-1 1-1v-1l-1 1h-1v1h-1l-3 3v1h-1v1l-1-1h-1v1h1v2l-1 1v2h-4l-1-1h-1 1v-1 1h1l1-1h1v-4h1v-1h-1v-1l1-1v-1l1-1h1l1-1h1l1-1v-1l1-1 1-1 1-1v-1h1v-1l2-1 1-2v-1h1v-1l1-1h1v-1h2l1-1h1v-3l1-1 1-2h1v-3l1-2v-4l-1-2v-3l-1-4v-3l-1-2v-4h-1l-1 1-1 1-1 1v1l-1 1v2l-1 1v1h1-2v1h-3l1 1-1 1h1v2h-1v1l-1 1h-1l-1 1v-1h-1l-1 1h-1l1 1v2h1v1l-1 1v2h-1l-1 1v1h-1v-1h1l-1-1h-1v3h1l1 1-1 1 1 1-1 1-1 1v1h2v1-1l1-1v1h1v2l-1 1-1 2-1 1v1l-1 1v3h-1v1h-1v-1l-1 1h-1v-1h-1v1l-1 1-1 1h-1v-3h-1l-1 2-1 1h-1v1h-5l-1-1v-2h-1l-1-1v3h-1v1l-2 1h-1v1h-1v1h-1v1h-1v1l-1 1-1 1v-1l-1 1h-2v1h-1v1h-1l-2 1-1 1h-1l-1 1h1v1h-1v-1h-2l-3-2v1h-1v1h-1v1h1v2l1 1v1l1 1v-1 1h1-1v2l1 1v2-1h1l1 1 1 1-1 1v1h1l1-1h1l1-1v1h-1l1 1h1l1-1h3l-2 1h-2l-1 1-1-1h-2v1h3l-1 1v-1l-1 1-1-1-1-1v-1h-2l-1-1v1l-1 1h-1l-1 1-1 1h-1v2l-1 1 1 1v1h1v2h-2v1-1h-1l-1 1v1-2h1v-3h-1v-2h-3l-1 1h-1l-2-1v-3h-1v-1h-2l-1-1h-1v-1l-1-1h-1v1h-1v-1h1l-1-1-1 1v1-1h-1v1h1v2h1-2v1h-1v1h1v1h1-1l-1 1h1v1l1 1h-1v-1h-1v-1l-1 1h-1v-1h-1v1l1 1v1-1h-1v-1h-1v2h-1v1h-2zm219 71v-2h1v-1h-1v-1l-2-1-1 1v1l-1 1v1h1zm128-36v-2zm-10-31h1v-1l-1-1zm8 20-1 1h1zm103-277h-1v-3h2l1-1 1-1v1h1v3h-2v1-1h-1v1zm-45 89h-1l-1-1h-1v-1h-3v-2h-1v-1h-1v-1h-1v-1h-1v-2h-1l1-1v-1h-1v-2h-1v-1h-2v-2h-1v-1h-1v-1l-1-1-1-1h-7v-2h-1v-1h1v-3l1-1v-1l1-1h2l1-1h2l1-1h3l1-1h6v-1h2v-1h1v-1h1v-2h2v1h10v-2h1v-1 1h1v1l1 1v1l1 1 1 1 1 1v1l1 1v1l1 1 1 1h1l1 1v1l1 1v5h1v2l1 1h1l1 1 1 1v2l1 1v1h1l1 2v1h1v1h1v1l1 1 1 1v-1 3l-1 2v-1h-3v1h-1v1h-2l-1 1v1h-1v1h1v1h1v1h1l-1 1h-3v1h-2v1l-1-1h-3l-1-1h-1v-1h-2l-1-1-1-1-1-1h-1l-1-1v-1l-1-1h-1l-1-1zm28-11v1zm-1-1v1h1-1zm-14-26h-1 1v1zm-325-68h1l1 1 1 1h-1l-1-1v-1zm-6-3 1 1h1l1 1 1 1h-1v-1h-2v-1h-1zm9 2v1-1h-1zm-2-1h1v1h-1zm2 0v1zm-3 0h-1v-1h1v1h1l-1 1zm-9 0v-2h-1v-2h-1 1v1h1v1l1 1h-1 1v1-1zm3-1h1zm7-1v1zm-2 1v-1zm-1-1h1l-1 1zm2 0h1zm-4-1v1zm-3 1-1-1h1zm1-1-1-1h-2v-1h3zm-5-1v-1 1l1 1h-1zm0-2h-1v-1l-1 1v-2 1-1l1 1h1v1h1zm-13-1h1v-1 1zm16-3h1v1zm295 19v1zm67 77v-1h-15v-1l-1-1v-1 1-6l-1-1v-1h-1l-1-1h-1v-1h1v-1h2v-1h2v-4h1v-7h1v-2h2v-2h1v-3h1v-1 1h1v-2l1-1v-1 2l2 1v1l1 2h-1v2h2v-1h1v-2h-1v-1h1l1-1v-1h1l1-1h2l1 1h1v-1h1l1-1h1v-1h2v1h4l1 1v1h1v1l1-1h1v-1h1v-2h1v-1h2l1 1h-1v2l1 1v1h1v2h1v3h1v1h1v1l-1 1v2h-1v1h1l-1 1v1h-1v2h-3v12h-3v6h-17zm21 184v-1l1 1h1v-1h1l1 1v-1 1h1v-2h1v-1h1v-3h1v-2l-1-1v-1l1-1 1-2v-1h1l1-1h1v-1h1v-1h2-1 1v-1h1v-1h-1 1v-1h1v1-3h2l-1-1v-2h1v-1l-1-1h1v1-7h-2l-1-1-1-1v-1h-1v-2h1v-1h1v-1h2l-1 1 1 1v-1h4-1l-1-1v1-1h-5 1v-1l1-1h1v-1h1l1-1h2-2v-1h1l-1-1h1v-7l1-1v-1l1-1v-1h4v-1h1v-1h-1v-1l1-1 1 1 1-1 1 1v2l1 1v1h-1 1v1h-1v1h1v1h1v2l1 1v2l1 1v2h1v4l-1-1-1 1v1l1 1-1 1v1h-1v1h-1v4l1 1-1 1-1 1 1 1v1h1v9l1 1-1 1v1l-1 2v1h-4v3h1l-1 2v1l-1 1v3l-1 1v1l1 2h-2l-1 1v2l-1 1-1 2h-1v2h1v2h-1l-1 2-1 1v1h-1l-1-1v1l-1 1v2h-3l-1-1h-1v2l-1 1v1l1 1h-2v-1h-1v-1h-1v-1h-1v-1h-1l-2-1v-1l-1-1v-1h-1v-3h1v-1h-1v-3l-1-1v-2l1-1v-2h-1zm16-42v1zm-2-6v1h-1zm0 0v-1h1v-1h-1 1v-1l1-1v-1 2h1-1l1 1h-1v1l-1 1zm7-8v3h-1v2h-1 1v-2zm-245-188h1zm307-48h1zm-62 191h2v-1h1l-1-1h1v-1h1-1 1v-1h-1 2v1h1v-1h2v2h1l-1 1h1v1h-4v1h-3v1h-1v-1h-1zm72 139v1l-2 1-1 1v-1l1-1h1zm-80 33h1v1h1l-1 1-1-1zm-6 51h-1l-1-2v-3h-3v-2l1-1-1-1-1-1h-1l-1 1-1-1v-1l2-2v-2h1v-1h2v-1l1-1v4h1v-1h4v1l-1 1v2l-1 1v1l1 1v1l1 1v1l1 1v2l1 1h-1l-2 1zm-15 1 1 1v1l-1-1zm44-1v-1l-1 1v-1l-1-1v-2l-1-1h1v2h1v1h1l1 3v1l1 1v2l-1-1-1-1zm-50 5h-2l1-1h4l-1 1v1h-2zm34 15v1h-1l-1-1v-1l-1-1v-2l1-1v-3l-1 1-1 2h-1v-5h-1v-2l-1 1-1-1v-1h-1v1h-1l-1-1 1-1-1-1-1-1v-1h-1v-1h1v-1h4v-1l1-1 1-2v-4h1l1-1v-7h1l1-1v-2l1-1v-3l1-1v-3h1l1 1v1l2 2 1 2 1 1 1 1v1h1v3h-2v2l-4 1h-2v2l1-1h3l1-1h3l1 1v3h-1l-1-1v1l-2 1-1 1h-1v2h-3l-1 1h1v-1 1h1v3h-1 1l1-2h2l1 1-1 1v2l1-1v-1h1v1l1-1v-3h-1l1-1v-1h1l1-1h1l1 1v1h1v2l1 1 1 1v3h1l1 1-1 1-2-1v1h1v3l-1 1h2v-2h1v2l1 1v7h-1v-1 1l-1 1-2-2v2l-1-1-1 1h-3v-1l1-1h2l1-2h-2v-2h-1v-1l-1-1v4l-1 2-1 1-1-2v-2l-1-2-1-2v-2l-1-2v5l1 3v5l-1 1v2h-1zm-44 3h3l-4 2h-2zm39 3h1v1h-1zm-6 0-1-1h-1v-1h-1l-1-2v1l-1 2v3l-1 1h-1v-2l1-2-1-1-1 1v1l-1 1v-1h-1v1-1h-2l-1-1h-1v-1h-3l-1-2v-3l3-3v-1h1v-3l2-1 1 1 1-1v-1l1-1h1l2 1 1 1-1 1h6v1h2l1 1v2h-2v1h-1l1 1h1l1-1h2l1 1 1 1v1l-1 1-1 1h2l1 1v1l-2 1-1-1-1-1v2l1 1v1h-1l-1-1v-1 4h-1l-1-1zm-5-238v-1h1v-2h2v1h3v-1l1-1h3l1-1h4v1h1v3h-3v2h-1v1h-2v-1l-1 1h-1v-1l-1-1v1h-2l-1 1v-1 1l-1-1h-1l-1-1zm92-133v-1h1v-2h2v-1l1-1v1h2v1h1l-1 1h1v-1 1h1v1h1v1h-1v-1 1h1l-1 1h1-1v1h-1v1h-1v1h-3v-1h-1v-1h-1l1-1h-1v-2 1zm7-3h1-2zm-71 115h1zm70-95v-1h-1v-3h-1v-1h-1v-1h1l-1-1h4l1 1v-1 1h7v-1h4l-1 1h1-1l1 1h-1 1-3v1h-6 2v1h7l-1 1h1v1l1 1h1-1l-1 1-1 2v1h-1v1h-3v1h-1v-1h-2v-1h-2v-2h-1v-1h-2zm-151-46 1 1v12h-1v1l-1 1v1h-3v1h-1v1h-5v1l-1 1h-1v1l-1 1h-1l-1 1v1h-1l-1 1-1 1v1h5l1 1h2v1h3v1h1v1h1v1h1v1l1 1-1 1v1h-1v1-1l-1-1h-1v-1h-4l-1 1h-1l-1-1-1 1h-1l-1 1h-6l-1 1h-1v1h-2v-4h-1v-1h1v1-1h1v-3l1-1v-1l1-1h1v-2l1-1v-1l1-1 1-2 1-2 1-1 1-2 2-2 2-2h1l2-2 2-1 1-1h1v-1l3-2v-1l1-1h1v-2zm268 19h1v-4h-1v-1l1-1h-1l1-1v-1h2v1-1h3v-1h-1 1v-1 1h2v2h1v2h1l1 1v3h-2v3h-4v-1 1h-5v-1z"/><path d="m440 230v-4h2v-1h1v-1h-2l-1-1-1-1-1-1v-1l-1-1v-1h-1l1-1h1v-1l1-1h1v-1l1-1h4v-1h1v1h2l1-1h1v1h1v1h1v1h3l1-1 1 1h1v1l1 1v1l1 1h1v1h1l-1 1h1v1h1l1 1h1v2h2v1h1-1l1 1h-1v1h-1v2h-1v1h-1l-1 1v-1h-1v-1l-1-1h-4v-1h-2v1h-1l-1 1h-1v1h-1l-1-1h-2l-1 1h-1v1l-1 1h-1v1h1v2h-1v1h-2v-2h1l-1-2v-1l-2-1zm75-23v1l-1-1zm2-4v1h-1zm269 40h-1v-1h-1v-1l-1 1v-1h-1v-2h1l1 1v-1l1 1h2l1 1v1h-1v1zm-73 11h-1v-1h1zm-296 60v-1h1v-1h1l1-1v-1l-1-1h1v-4h1v-1h1l1-1h1l1-1h1l1-1 1-1h1v-1h2v-1h3l1 1v3h-1 1-1v1h-1 1-1v2h1-1v1h1v-1l1 1v4h-2v3h-1l-1-1h-1v1h-4v-1h-1v1h-2l-1 1h-5v1zm29-187h-1l1-1h-1v-1h1v-2h2v1h1v3h-1v1h-1zm291 138h1l-1 1zm0 0h-1zm-269-7v-11h3v-2h1v-1l1-1h-1v-1h1v-2l1-1v-1h-1v-1h-1v-3h-1v-1h3v-1h1-1v-1h1v-1h1l1-1v-1h5v-2l1-1h3v-1h2v-1l1 1h1l1-1h1v2l1 1v1h1l1 1 1 1v1h-4v1h1v5l1 1v1h1v1h1v1h1v1l1 1v1l-1 1v1l-1 1-1 1-1 1-1 1-1 1v6l-1 1v4h1v1l1 1v5l-1 1-1 1-1-1-2-1h-1l-1-1-2-1h-1l-1-1-2-1-1-1h-1l-2-1-1-1h-1l-2-1-1-1-2-1zm-78-202v1zm-49-11-1 1v-1h1l-1-1h-1v1h-2v-1h3v-1h-2l1-1v1h3v-1 5h-1l1-1h-1l1-1zm0 0v1zm192 188v-2h-1v-2l-1-1v-8h-1 1l1-1v1h1v1h1v8h1-1 1v1h-1v1h1v1h1v1h-1l1 1-1-1h-1zm-279 28v-1 1-1h-1v-1h1l-1-1h-1v1l-1-1v-2l1-1v-3h-1v1h-1v1h-3v-1 1h-1v1h-2l-1-1v-1h-1l-1-1v-4h-1l-1-1v-3h1v-1h7v-2h1v-3h-1v-2 1h1v1-1l1 1h1v1l1-1h1v3h2l1-1h-1l1-1v-3h1v-3l1-1v-3h-2v-2l-1-1v1-1l-1-2v-1h1v2-2h-1v-1h-3v-1l-1-1v-1h3v2h2v1-1l1 1h1v1h1v2h1v1h2v1l-1 1v2l-1 1v2h-1v2h-1v3h1v4h1v1h1v1l1 1v1h-1v2l-1 1h1v2h1v1h1v3h1l-1 1v3h-3l-1 1h-1v1zm-6-25v1zm-1 0v-1h1v1zm8-6v-1zm4-2h1zm0-3h1v1h-1zm0 0v1zm-3-4v1zm80 105v-1h3v1l1-1 1-1v1-2h-7v-1h-2v1l-1-1h-1v1h-1v-1l-1-1h1l-1-1h-2v-1h-1 1v-1h-1v-3h1l1 1v-1h2-1l1 1h1l1-1v-1h2v-1h1l1 1v5h2v-1h1v-2h3v-2 1h2l1-1h1v3h-1v4h1v1h1v1h-3v1h-1v1h1l-1 1h-1v-1 3h-1v-1l-1 1h-1v1l-1-1v-1l1-1zm1 2v1zm0-4h1zm-153-148v1h1-1v1l1-1v1h-1v1h-5v1-1h-1 1v-1h3v-1h1zm3 1h-1v-1h1zm162 138 1 1h1v-1h2l1-1v-2l1-1h2v-1h1v-1h1v-1h2v1h3v1h-1 1v3h3v1l1 1h1v1h2v1-1h1v1h2v1h2v1l1-1h3l1-1 1-1h1v-1h1v6l1 1h1v1h-1v2h2v-1 5-1h-2v-1h-2v1h-1v1l1 1h1v3h2v-1h1v-3 1h1v2h-1v1h-5l-1-1v-1l-1-1v-1l-1 1h-3v-1h-1v2l1 1h-1v1h-2v1h-1v-1h-1v1h1v1h-1l-1-1h-1v-1h-2v-1h-1v-1h1v-1h-1v-1h-3v1l-1-1-1-1v-1l-1-1v-2h-1l-1-1h-1v-1h-1v-1h-2v-1h-1l-1-1-1-1v1l-1-1h-2v-1h1zm37 5 1 1v1h-1zm117-19v-3h2v-1h1v-1h1v-4h1l1-1v3l1 1v2l1 1 1 1v1l1 1h1v4h-1v1h-1v7l-1 1-1 1h-3v-1h-1l1-1h-1v1h-2l1-1v-1h1v-2h-1v-1h-1v-1l1-1v-1h1l1-1v-2h-2v-1 1l-1-1v-1zm1 5v1zm1-3h-1zm-492-153h1zm4-8-1 1v-1h1v1z"/><path d="m457 332v-1h-1v-1l-2-1 1-1 1 1h1v-1l1 1v-1l1-1h1l1-1 1-1v1h-1l-1 1h2v1h-1v1h1l-1 1v1h1-1v1h-1l-1 1v-1zm-38-2h-3v1h-1v-1h-1v-1h-1v-4h-2l-1-1h1v-1h1v-1h-1v-1h1-1v-4h-1v-2l1-1v1h5l1-1v1h1l1-1h3l1-1h4l1 1 1-1h4v-2h1v-1h1l-1 1h1v1h-1v2h1v-1h4l1-1 1-1h4v1h1v1h2l1 1 1-1v-2 1h1v-1h1l1 1h1v1h4-1v1h-1 3v1h-1 1v3h2l1 1h-1v1-1h-2 1v3h1-1v1h2v2l-1 1h-4l1 1h-1v-1h-3v1h1-2l-1 1h2v1h-7v1l-2 1h-1l-1 1h-6v-1h-3v-1l-1-1v1h-1v-1h-3v-1h-2l-1 1h-1l-1-1h-2l-1 1h-1zm44-5v1l-1-1zm243-91-1 1v-1zm1-3h2-1v2h-2 1zm-675-53 1 1h-1zm164 90v-2h1v1h1v4l-1 2-1 1v1h-1v1h-1v-1h-1l1-1h-1v-1h1v-3l1-1v-1zm228-87v-1 1h-1zm1 5-1-1h1v2zm-1 3v-1zm25 11h-9l-1-1h-1l-1-1h-1l-1-1h-1v-1h-2v-1h-1l-1-1v-1h-1v-1h-1v-1h-2v-1h-1v-1h1v-4l-1-1-1-1h1v-5l-1-1v-2h-1v-1h-1v-1h1v-1h2v-1h4l1-1h4l1 1v-1h2v1h1v3l1 1v1h3l1 1v-1 1h3v1h1v1h2v2h1v2h1v1h1v1l1 1-1 1 1 1v2h-1l-1 1v1h-1v1h-1v2h1v1h-1v3h1v1zm-21 152h3v-1h2l1-1h1l1-1 1-1v1h-1l1 1v-1h1v-1l-1-1-1-1v-1h-2v1h-1v-2h3l1-1h2v-1h1v-1h1v1h1-1v2l1 1v-1 1h2l-1 1-1 1h-1v1h4v1h1v1h1-3 1l1 1v2-3h1v1-1h2v-1l1-1 1-1h1v-2h4v1h-1v2h-1v2h-1v-1 1l-1-1v1-1h-1v2h1v1h1l-1 1h1v1h1l-1 1 1 1h1v1l1-1v1h1v1h3l1-1h1v-1h2l1-1h1v1h6v1h1v3h-1v1-1h-1v1h1v2l-1 1-1 1-1 1h-1v3l1 1v2h-2v1h-6l-1-1h-2v-1h-1v1-1l-1 1v-1h-2v1l-1-1h-3v-1l-1 1h1v1h-1v1l-1 1h-3v1h-5v-2l-1-1h1l-1-1v-1h-2v-1h-1v-3h-3v-1l-1 1h-2v-1l-1-1h-1v1l-1-1h-2v-1h-2v-3h1-1v-1h1v-1h-1l1-1h-1l1-1v-1h3v-1h1zm18-3-1-1h1v1h1z"/><path d="m440 200h9v-1h2v-1h1v1-1 5l-1 1v1l-1 1-1 1-1 1v1h1v3l-1 1h-2v-1h-1v1h-4l-1 1v-1h-1v-2l-1-1-1-1h1-1v-2h1v-1l1-1v-1h1zm491 278v-63h-3l-1 1h-1v-2l-1-1-1-1v-1h-1l-1-1v-1h-1v-1h-1v1h-1l-1 1v1l-1 1h-1v1l-1-1-1-1v-2h-1v-1h-1v-1h-1v-1l-1-1-1-1v-1l-1-1v-1l-1-1v-2h-1v-1l-1-1h1-1v-1 1l-1-1h-1v-1h-1l-1-1h-1v-1l1-1v-1h-1v-1l1-1v-1h1v-1 1h1v2h-1 1v4h1l1-1v-1l1-1v2l-1 1v1h1v1h1v1l1 1v1h2v3l-1-1 1 1v1h-1 2v1h1v1l-1 1v1-1h1v-1l1 1h1v2h1v3h1l-1-1h1-1v-4h-1v-1h1l1 1h1v3-1 1h1-1v-1h1l1 1h1v-1h-2v-1l-1-1h1l1-1 1 1 1 1h1v1h1v1l1 1h1l1 1 1 1h1-1v2h-1v-2 2h-1 1l1 1 1-1 1-1h2l1 1v1h1v-1l1 1h6v1h2v2h-1 1l1-1h2v1h-1 2v1h1-1 1v2h-1 1l1-1h3l-1 2v-1h2v-1 1h-1l1-1v-1l-1-1h1l1-1-1 1h-1v-3h1v-1h1l1 1h1v-2 1h1v-1l1-1h1v-1h1v-1 1h1v-1h1l1 1-1 1h-1v1h-1 3l-1 1v1l-1 1v3h-1v1h-5 1l1 1h1-1v1l-1 1h-1 2v-1h2l1-1h1v-1h1v-1h1l1-1v-1l1-1h1-1v-2h1v-1h2v-1l1-1v-1h-1v-1h-1v-1l1-1 1-1v-1h1v-1h1l1-1h1v-1h1v-1h1v-1h1-1l1-1 1-1h1v-1h1l1-1h1v-2h1v-1h2v-1h1-1l1 1v-1h2v-1h2v-1h1v1h-1v1h1v-2h1v-1h1v1h1v-2l1 1v-1h1v1h-1v1-1l-1 1-1 1-1 1v1h-1l-1 1v-1h-1v-1 1h-1l-1-1v1h1v1l-1 1v1h-1l-2 1v1h-1v-1 2h-1v1h-1v1h-2 1v4h-1v2l-1 1v1l-1 1 1-1v-1h2l1-1h1v2h-1l1 1v-1h1v-3h1l1 2 1 1v-1l1 1h1l1-1h1v-1h2v1h-1v2h1v5l1 1v1l-1 1v1l1-1v-1l1-1-1-1h1l1-1h3v1h1l1 1v1h1v2l-1 1-1-1h-1l1-1-1 1h-1v-1h-1v1h1v1h4l-1 1h1v1h1v-1 1h1v2l1-1v1h-1v1h-1v1h1l-1 1v1l-1 1h-1v1h-1v1l1-1v2l-1 1v-1 2h-1l-1-1v-1 1h-2l-1 1-1 1v1h-1v-1h-2v1h-1v4l1 1h1l-1 1h-1v2l1 1 1-1 1-1h1l1-2 1 1v1l1-1h-1v-1l1 1h8v1h1v1h-1v1h1l1 1h-1v1h-1 1l2 1 2 1v1h-1l-1 1h-1v1h-1v1h-3l1 1-1 1h-1l-1 1h-3v-2h1v-1l-1-1h-2v1l-1-1h-2l-1 2h-1v-1 1l-1-1v1h1l1 1 1-1v1l1 2h1v1h-1v1-1l-1-1v-1l-1-1h-2l-1-1-1 1v1h1l1 1v-1h2l1 1-1 1v1h2v1l1-1h1l1 1h1v2l1 1 4 4h1l1 1v1h1-1v4h-5l-1 1h-1l-1 1v2h-1v3l-2 3-1 1v1-1h-1 1v-1h-1v1h-2l-1 1v1l-1 1h-1l1-1h-1l1-1h-1v-1 2h-1 1v1h1l-1 1-1 1h-1l1-1h-1v1h-3l-1 1-1 1-1 1-1 1v1h-1 1v-1l-2-1h-1v-1l1-1h1l-1-1h-1l-1 1v1h-1l-1-1h1v-1h-4l-1 1-1-1h-1v-2l-1-1-1 1v-1h1l-2-1v1h-3v-1 1h-3l-1-1-1-1-1 1v-1h-1l-2-1h-3l-1-1h-4l-1 1h-2l-1-1-1-1-2-1-1-1zm71-26-1 1zm-51-34v1zm11-2v1zm-12 0v-1zm-4 0h-1 1v-1h1v1zm-3 0v-1zm59 0h-1v-1h-1v-2h2v-1 1h1l1 1h1v1h-2v1zm-52-3v1h-1v1l-1 1v-1l1-1v-1zm1 1h1-1v1zm-10-1v1h-1zm46-7h1-1v1h-1zm-24-1h1v1h-1zm0 0h-1v-1h1v-1h1v1-1h2l-1 1h-1v1zm-50-1h-1v-1l-1-1v-1 1h1v1-2h-1v-2h1v-1h1v3l1 2v2-1zm-1 0h1v1-1zm4 0v-1h-2v-1h1v-1h-1v-1h1v1h1v-1h1v1l1 1 1 1h-1v1l-1-1v1zm49-2h-2v-2h2-1v-1h2v-1h1v-1l1-1v1l-1 1h2-1v-1h1v2h1l-1 1v1h-1v-1h-1v-1 3h-1v-1 1h-1v1-1h-1zm0 0h1v1-1zm-51-3v-1l-1-1v-3h1v2h1v3h1v-1h1-1l1 1h-1v1h-2zm51-1h1v1zm-55 0v-1l-1 1v-2 1h1v-1h-1v-1h2v3zm1-1v-4h1v3h1v1zm-3-2h1l-1 1v1-1l-1-1zm60 0h1l-1 1zm2 0h-1v1-1zm-64-2v-1h1v1h1v1h-1v1l-1-1zm2 1h1l-1 1zm2 0h-1v-1l-1-1h-1v-2h-1 2-1v-1h-1v-3l1 1 1 1 1 1v2-1 1h2v1h-1v-1 1h-1v1h1v-1h1l-1 1zm-7-4v-1h1v1-1h1v-1 4h-2zm69 2v-1zm-62-2h-1 1v-1 1h1zm76-1v-1h1v1l-1 1zm-1 0h1zm-77-2v-1l1 1v1h1v1h-1v-1zm76 1h1v-1 1l-1 1zm-80 0v-1 1h1v1h-1zm79 0v1zm0-1v1zm11 0v-1h-1 3v-1h2v1l-1 1h-1l-1 1h-1zm6-4v1zm1 0h1v1h-1v-1h-1zm2-1-1 1v-1h1v-1h-1 1v-1h2v-1h1v1h-2v1h-1l1 1v1h-1zm-1-1v1zm5-1 1-1v-1h1l1-1v1h-1v1h-1v1l-1 1-1-1zm-210-21h-1v-1h-1v-1h-2v-1h-2v1h-1v-1h-3l1-1h2v-1h1l1-1 1-1 1-1h-3v1h-1v-1l1-1h-1v1-1h-2v1h-2v1h-1l-1 1v-2h-1v1l-1-1h-1v-1h-4v1h-3v-1h-2v-1l-1-1h2v-1l1 1h4v-2h1v1h-1 2-1 1v-1l1-1v-1h1v-2 1h-1v-3h1v-7l-1-1v-1h-2v1h-1v2h-1v2l1 1v4l-1 1v2h-1v1-2h-1 1v1h-1v-1h1-1v2h-1v2h-1l-1-1h-1l-1-1h-1v-1h1l-1-1v-2h1v-1h1v-1l-1-1v1h-1v1h-1l-1-1v-5h1v-1h1v-1l1-1h-2v-1 1l-1-1h1-3v1h-2l-1 1h-1l-1 1h-1v1h-1l-1 1v2h-1l-1 1-1-1h-3v1h-2v2h1l-1 1h-1v1l-1 1h-1v1h-10v1h-2v1l-1 1v2h-1v2h-1v1l-1 1v1h-1v-1h-3v-7h-1v-1l-1-1v1-2h-1l1-1v1l1-1h1v-1l1 1h1v-1h1-1v1h1v-2h1v-1h1v1-1 1-1h2l-1-1h1v-1h1v-3l1-1h-1v-1h-1v-1h-1v1h1v1h-1v-2h1l1-1v1h1v-1 1h1v-1h3v-1h1v1-1h2v-1h1v1-2h1v-1h-1v-2 1l1-1v-2h1v-1h1v1h1v2h-1v1-1h1l1-1h-1v-2h-1v-3h1l1-2v-1h1l-1 1v3h2l-1 1h1v1h-1 1-1v1-1 1l-1 1h1-1 1v-1l1 1v-4l1 1-1-1v-1l1 1h1v2-2l-1-1h-1v-1h-1 1v-1l1 1v1h1-1v-1h-1v-1h-1v-1h1l1 1-1-1v-1h-1 1v1h2-1l-1-1h-1v-1h-1v-2l-1-1h1v3h1v-1h-1v-1h1v1-1h2v-1h-2v1-1h-1v-1h1v-1l1 1h2-1l-1-1v-1h1l1 1-1-1h-1v-1h3v-1h1v-2h3v-1l1-1v1-1h1v-1h1v-1h2-1v-1h1v1-2h1v-2h1v-4l-1-1v-1l-1-1-1-2h1v-1l-1-1 1 1v1-1 2-2l-1-3-1-1v-4 1l1-1v-1l1-1h1v2h1v1h1v2h1v1h1v1l1 1h-1v1-1h1v2l-1 1v1l1 1 1 1 1 1 1 1h1v-1h3v1h1v1-1l1 1h1-1 3-1 2v-1h1v2l1-1h3v-1h2v1h1v-1h-2v-1 1h-1v-1h1v-1l-1-1h-1 1v-1 1-1 1h1v1h1v-1h4-1v1h1-1 1l1 1h1v-1h2v1h3v1-1l2-1v1h1v-2l1-1h1v-1h2v1h1v-1h-1v-1h1v1-1h1v-1 1-1h1l-1-1 1-1h1v1-1h-1v-3l-1-1h3v1h3v2h1l-1 1h1v1l1 1v1h1v1l1 1v1h1v1h1v1h3l1-1v-1h1v-1l1 1h1l1 1 1 1v1l1 1v1h1l1 1v1h1l1 1h5v-1h9l2 1h1l1 1h2l1 1h1l2 1h-1 7l1 1h-1l1 1 1 1v1h2v1h2v1h4v3h1v1h1v1l1 1v1h1v1h-1v1h1l1 1v2-1h-1v1h1v1h-3 3v-1h1v1h1-1l1 1v1h1l1 1v3l1 1v3-1 6h1v3l-1 1v6l-1 2v4h-1v-1h-1l1 1h2v1h-1v1h1l-1 1h1v3h1v3-1h-2l-2-1v1-1h-1v1-2l1-1v-1l-1 1 1-1v1h-1v1h-1v1-1h1v-1h-1v-1h2v-1h-1l-1 1v3h-1 1v1-1 2h1-1v1h1v1h-78v2-1l-1-1v-1h-2v-1h-1zm83 0v-1l1 1zm1-1v1zm-2-1v-1 1h1v1h-1v-1h1zm-94-1v-1h1v1h-2v1-1zm94-2v1zm0-1v1zm-96 0v-1h1v1-1 1h-1v1h-1v-1zm7-1v-1 1h-1zm-18-3v1zm-1 0h1zm-1-1h1zm3-1h-1zm2-1h1v1h-1zm5-1v-2h1v1h-1zm-53-4v1zm8-11h1v1h-1zm1 0v1zm-3 0h1zm-1-1 1 1h-1zm7-1-1 1h-1l1-1h2l1-1h2v1h-4v1h-1 1zm5-1h-1zm-1-3 1-1zm4-7v1h-1v1-1zm0-9h1-1v2zm1 0h1zm2-2-1 1h1zm0 0h1zm122-2h-1zm0 0v-1l1 1zm-4-2-1-1 1 1v-1zm0-2v1zm-104-6v-1zm21-4v1zm-11-1v1h-1zm19 0h1zm9-1h-1zm5-3h-1zm1-1-1 1v-1zm-48-2h1v2-1zm49 0-1 1v1-1zm-1-4v1l1 2v1-2l-1-1zm-42 2v-1zm0-1v1zm-5-4h1-1v1zm4-2v1zm218-7v-1 1h1-2zm2-1v1zm-7-1h2l-1 1zm-1-1h-2zm-2 0v-1l-1 1v-1h-1 2zm1-1v1-1h-1zm-4-5h1v4l-1-1h-1v-1h-1v-1h1zm-287-155h1v-2h1v-1h1l2-1 1 1h1l1-1h1v1h1l1 1h2l1 1v3l-1 1 1 1v2l-1 1v4h-1v1h-2l-1-1h-1v-2h-1v1h-1v-1l-1-1h-2v-1l-1-1h-1v-2h-1v-1l1-1v-2zm-349 231h-1 1v-1h1l1-1v-1h-1v-1h-2v1h-1v-1h-2v-1h-2l1-1h1v-1h2v-1 1h4l-1 1v1l1 1v-1h1l1-1v1h1v-3 1h1l1-1h-1v-1h1v-1h3v-1h-1v-1h-1v-4h1v-2h4v2h-1v1h2l1 1v-1l1 1 1 1h1v1h2v1h1v1h1l1 1h1v2l1 1v1l1 1 1 1v-1h3v1h1v1h-1v1h1v1h2v1h1l1 1h1v-1h-1v-1h1v1h1v-1h2v-1h1l-1-1v-2h1v1h2v14h-1l-1 1h-2l-1 1h-3v-1h-1v-1h-1l-1-1h-1v-1h-1l-1-1-1-1v-1h-1v-1h-8v1h-1v-1h-1v-1h-1v-1h-1v-4h-1v-1l-1-1v-1h-4v-2h-1v1l-1 1v1h-1v1h-2v1h-1v1l-1-1v1zm1-5v1zm-1-4v1h-1 1zm-2 1v-1zm373-86v1zm1 0h-1zm-4-12-1-1h1v-1h1l1-1v-1h-1 1-1v-1h2v-2l1-1h-1l-1-1v-1h-1l1-1h1v-1h2l1-1h1l1-1h1v1h4v1-1l-1-1v-1l-1-1v-1h-2v-1h1l1-1v-1h2v-1h1l1-1 1 1v-1h2v1h1v2h1v2h1v1h1l-1 1h-1l1 1v1h1v4h-1v2h6v1l1 1h1v1h1l1-1h2l1 1v1h1v1h-1l1 1v1l1 1v1h1v-1 2h-1v3h-1v1h-1v1l-1 1h-1l1-1v-1h-1 1v-1h-1l1-1v-1l1-1h-1v-2h-2v3l1 1v2h-3v1h-2v1h1v-1 1h1v1h-2v-2h-3l-1-1v-2h-3l-1 1h-2v-1h-1v-1h-3l-1 1h-2 2v1h-7 1v-1h2-1v-1l-1-1v1-1 1h-1v-1h-1v1-1h-1l-1-1h1v-2h1l-1-1v1zm11 7v-1 1h1zm3-1h1v1zm-12-5v1zm1 0h-1zm10 27h1zm0-2h1zm-485 11h2v-1h2v-2l1-1h1v-2h1-1l1-1v-1h-1v-1h-1v-2h-1v-1h-1v-1l-1-1h-1v-1h-1v-1h-1v-1h-1v-2h-1v-5l-1-1v-1l1 1v-3 1-2h1v-1h1l1-1h1l1-1h1v1-1h2l-1-1v-1l1 1h1-1l-1-1h1l1 1v-1h-1v-1l2-1h1v-1h1v3l-1 1h2v1h-1v1h-1v1h-1l-1-1h-1 1l-1 1h1v2h-2v1h-2v3l-1 1h1v4h-1v1h1v1h1v1h-1l1 1 1 1v-1 2h1v1h1l1 1v1h1v2h2v1h2v1h-1v1h-2v1h1v2h1v1l1-1h2l1 1v1h-1v1h2v1l1 1h-1v1h-1v-1h-1v1h-1l-1-1v1h-3v1l-1 1-1-1h-2v-1h-1v-2h-1v-1 1-1h-2v-1zm1-1h1v1-1zm1 0v-1zm1-1h1v1-1zm8-30v-1l1 1zm-178-68h1zm0-1v-1l1 1zm2-2v-1 1-1h-1v-1h2v3-1zm-4-1v-1l1 1v1zm1-1h1l-1 1zm-1-1 1 1h-1zm3 0v1zm0-1h-1l-1-1h2v2zm-3 0h1zm0-2 1 1h-1zm0-2h-1v-1h1zm-3-4h1v1h-1l1-1zm0-2v1zm-41 18h1l-1 1zm6-3v1zm-16 3h-1v-1h2v1zm-3-2h2v1h-2zm380 87 2-1h1v-2h1v-1h2l2-1h1l1-1h2v-1l1-1h3v-1h5v-1h1l1-1h1l1-1h1l1 1 1 1v3h1v3h1-1l1 1-1 1v2h-1v2h-10v-1h-2v2h-1v1h-1v1h-2v1h-6v1h-2l-1-1v-2h-1v-2h-1v-2zm29-8h1zm0-1h1l-1 1zm-30-3h-3 1l2-1v1h1-1v1zm24-72v1zm39-27v-1h-1v-3h-1v-7h2v-1h1v-2l-1-1h-2v1h-3v-1l1-1v-2l1-1v-1h1v-1l1-1 1-1v-1h1v-1l1-1v-1l1-1 1-1h1l1-1v-1l2-2 1-1 2-1v-1h4v-1h3v-1l2 1h5l1-1h1v-1h1v1h1v-1h1l1-1h1l1 1h1v1h1v1-1h1v3l1 1v1h-1v4l1 1 1 1 1 2v1l1 2v1l1 1v1h-1v1h-1v-2h-4l-1-1-1 1v1h-2v11h-1v-2h-1v-2l1-1-1-1h-3v1h-1l-1 1v1l-1 1v1h-2v-1h-2v-1h-3v1h-1v3h-2v1h-1v2h-1v1h-2v1l-1 1h-2v1zm7-24h-1v1h-1v2h1v1h1v1-1h2l1-1v-1h1v-3h-1v-1h-2v2zm-26-61h1v1zm14 122v-1h-1v-1h-1v-1l1-1v-4h-1v-1h2v-3h1-1v-1h-1 1l1-1h2v-1h3l1-1h1v-1h-1v-1h3l1-1v-1h1l1-1h1l1-1v-1l1-1 1-1h1l1 1v-1h1v1h2v1h4v-1h1v1h1l1 1v1h1l1 1v10h-6v6-1h-1v-1h-1v1h-2v-2h-4v1h-1v-1h-1v-1h-1l-1-1h-1v-1l-1-1h-2v-1 4h1v-1l1 1h1v1h1v2l-1 1v4h1v1h-1l-1 1v1h-5v-1h-2v-1h-3v-1z"/><path d="m448 138 1 1 1-1 1 1h3v1h1l1 1h1v1h1v2h1v1h1l1 1 1 1 1 1v1l1 1v1h1v1h-2v-1h-1v1l-1-1h-1l-1 1-1 1v1l-1 1h-1l-1 1h-1v1l-1 1h-3v-1h-3l-1-1h-2v-1h-1v-6h1v-1h-1v-4h1v-1l1-1h-1v-1h1l1-1v-1h1z"/></g></svg>