<svg xmlns="http://www.w3.org/2000/svg" viewBox="0 0 1010 666">
  <defs/>
  <g fill="#000" fill-rule="nonzero">
    <path d="M531 334v-1 1zM377 277v-3h1v1h1v-3h-1 2v-3h1l-1-1h7l1 1 1 1v1h1v1h1v1h-1v-1h-7v1h-1v1l-1 1-1 1-2 1v1-1h-1zm0-1h1-1zm6-3zm3 0h-1 1zm2 0zm-4-1h1l-1 1v-1zM325 314h1v1-1h1-1 1v-1h6v-1h1l1-1h1v-1h-1v-2l-1-1h1v-1h1v-3h3v-1l-1-1h1v-1h1l1-1v-3h1v-1l1 1h2v-1h1-1v-1h3l1-1v-2l1-1h-1 1v-1h5v-1h1l1 1 3-1 1 1h3l1 1-1 1h-1v1l-1 1v2h3v6l-1 1h2v2h-1v1h-1v3h-1v1h1-1v-1h-2v-1h-1v1-1 1h-2v2h-2v1h-2v3h-3v2-1h-4v-1l-1 1v-1h-1v-1h-1v1h-1v1h-1l-1-1v1l-1 1h-2v2h-1v1h-1l-1-1v-5h-1v-1 1h-1l-1 1h-1v1h-2v-1h-1v1h-3v-1zM709 251zm0 2zM712 254h1-1zM479 334v-1h-1v-5h-1v-1h-1l1-1v-1h1v-1l1-1v1h1l1 1v9h-2zM405 321h1v1h1v1h2v1h1l1 1h2v4h-3l-1 1v-1h-1v-1h-1l1-1v-1h-2v-1h1v-1h-1v-1h-1v-2zm4 8zm-1-2zM499 190l1-1v-2h1v1l1 1h-1v1h-2zm-31-18v-6h6v-9l-1-1-1-1v-1h-1l-1-1h1l1-1h11v1h1v1h13l1 1h1l1-1h2v6l-1 2v1l-1 1v1l-1 1v1h-1v1h-1v6h1v3h1v1l-1 1 1 2v2l1 1 1 1v1h-12l-1-1h1l-1-1v-2h-1v-1l-1-1h-2v1h-1l-1-1-1 1v2h-3v-1h-4v-6l-1-1v-4 1h-5zM711 139h-1v-2h-1v-1h-1v-1h-1l-1-1h-3v-1h-1v-1l-2-1h-2v-1h-1v-1l1-1v-1h1v-2h1v-1h-2l-2-1h-3v1h-1v-1l-1 1v1h-1l-1 1v3h-2v-1h-1v-4h2v-1h1l1-1h1v-1h1v-1h1v-1l1-1v-1h1v-1h1v-1h1v-1l1-1v-4h1v-5l1-1-1-1v-1h1l-1-1-1-1-1-1h-1v-4h-1l-1-2h1l1-2v-1l1-1v-1l2-1h2l2-1h3l1-1 1 1v-1l1 1h1v-4l1-1v-1l-1-1h1l1-1h4l1 1h1v-5h-1v-1h-1 1-2 1v1h-2v-3h1l1 1h2l-1-1h-1v-1h2v-1l1-1-1-1 1-1v-1l1-1v-1h2v-1h1l1-1 1-1v-3l-2-2h-1l-1-1h-1v-2h1v-1h-1l1-1 1-1 1-1h1v-1h1v-2l1-2v-1h2v1-1h1-1l-1-1h1l1-1v-2h1l-1-1v-2h1-1l-1-2v-1h-1 2l1 1h7v1h1v1h1l-1 1v1h1-1v2h3v2l1 1v3h-1v1h-1v1h-1v2h-1v1l1 1v1h-1v2h-1v5h-1 1v2h-1v2h2v1h-3v1h2v5h1v4h-1v8h-1 1v1h-1v3h-1l-1 1h1v7l-1 1-1 1v5h-1v1h-1v1h1v1l-1 1h1v3h1v6h-1v1h-1v1h1v3h-1v3h-1v1h-1v2h-2v1l1 1v1h-1l1 1v2h-1v1h1v1h-1v1h-2l-1 1v2l-1 1h1v1h-1v1h-1v1h-1v1-1h-3l-1-1h-1v-2 1l-1 1v1h-3l-1-1zm-2-55h1-1zm19-65v10l-1-1v-1 1-1h1v-1h-1l-1-1-1-1v-1h-1v-1h-1v-1h-1l-1-1h-3l1-1 1-1v1l1-1h2l1 1h4zm-11 0h-3 3zM4 162h1-1zM488 358v-2h-1v-1h1v-1h1v-3h2v-1h3v-1h3l1 1h3v2h1v-1h3v-1 1h3v1h1-1 1l-1 1h1v1h-1l-1-1v-1 1h-1v1h-1v-1h-2v1h-3l-1-1v2l1 1h-1v1h-1v1h-1v1h-1v-1h-2v1l-1 1v-1 1h-1v-1h-4v-1zM169 171h1-4v-1h1l1-1 1 1v1zm-18-13v1-1zm-6-2h-2 2v-1 1zm-9 18v1l1-1h-1zm16-3v1-1zm12 1l-1-1v1h1-1 1zm-11-2l-1 1 1-1zm-2-11zm-14 14h-1 1zm15-14zm-1 4h1v1h-1 2v-1h-2zm-40-28h1-1zm-5-7v1l-1 2v1-1h1-1l1-1v-2zm-1-4zm0-1v-1l-1 1h1zm8 16zm2 0v1-1zm10 12v-1 1zm11 23zm-19-29v1l1-1h-1zm0 0zm27 10v-1 1zm-17-68h1-1zm-8-6h1v1-1h1-1v-1h-1v1zm0-2h1-1zm9 7h-1 1zm1-7zm24 85zM89 21l1-1v-1 1h-1v1zm30 59h1v-1h-1v1zm0-7v5h2v-1h6v1h2v-3l-1-1v-1h-1v-1l1 1v-2l-1-1v-1h-1l-1-1h1-2v-1h-1v2h-1v1h-1v-1h-1v4l-1 1v-1h1-1v-1 1zm-15 48h1v2l1 1v5l1 1v1h1v1h1v1l1 1h1v1h1v3l1 1v-1l1 1h1l-1-1h1v1h1v3h1v1l1 1v1l1 1h1l1 1 1 1h2v1h1v1l1 1-1 1v1l1 1v1l1 1v2l1 1v2h1v1h1v1h1v-1h1v2h1l-1 1h1v3h1v3h1v2h1v-2l1-1v-1l1-1h-1v-1h1v-8l1-1v-2l1-1v-1l1-1h2l1 1h1v1h2v1h1l1 1h1v1h2v1-1 1h1l1 1 1 1v1l-1 1v2l-1 1h-1v1l-1 1h1v1h1v-1h1v1-1l1 1h-1v1-1h2v-1 1h3l1 1h2v1h3-1l-1-1v-1h1v-1 1-1h3v1h1v-1h1v-1h1v-2h1v-2h1v-1h-1 1l-1-1h1v-1 1h1v-1 1h3v-1h-1 1v2l1 1h1v1h2v-1h1v1l1-1h-1 1v-1h1v1-1h1v-2 1l1-1h-1v-1h1v1-1h1v-2h-1v-1 1l1-1v1l1-1v1h1v-1h1-1v-2 1h1v-1h-1l1-1v2h1v1h1v-1h1v-1h1v-1h-1v-2h1v-1h1v-1l1-1v-1h1l1-1h4l1-1h2l1-1h3l2-1v-1h1v-1h2v-1h1v-1h1v-1 2h1v-4l1-1v-3l-1-1v-1l-1-1v-3 1h1v1-1 1l1 1v-2h-1v-1h1v1h1l-1-1-1-1-1-2v-2l-1-1v-1l-1-1v-4l-1-1v-1l-1-1v-8h2v-2h-1l-1-1-1-1h-2l-1-1h-3v1h-1l-1 1h-1l-1 1v1h-12v1l-1 1v1h-1l-1 1h-1l-1 1-1 1h-1l-1-1-1 1h-3l-1 1h-1l-1 1h-7l-2-2-1 1-1-1h-2v-1h-1v-2h-1l-1-1v-1h-1v-2h-1v-1h1l-1-1h-1v1h-1v2h-1l-1 1h-1v2h-1v2l-1-1v-1h1l-1-1v-1h1v-1l1-1v-2h1v-1h-2l-1 1v2l-1-1v-3l1-1h-1l-1 1h-2v-1h1v1-1l-1-1-1-1v-4l-1-1-1-1h-1l-1-1h-3l-1-1h-1l-1-1h-1v1h-1l-1 1h-1 1v1h-2v-1h1v-1l-1 1h-1v-1h-1v-1h-1v-1h-1v1h1v1-1h-1l-1 1-1 1-1 1h-1v1h-5v1l-1 1h1v1l-1 1v3h-1v2h-1 1-1v3h-1v2h-1v2l-1 1h-1v1h-1v2l-1 1v3l-1 1v4l-1 1v2zm66 49h-1v1h1v-1zm48-42v1h1l-1-1v-1 1zm-6 15l-1 1h1v-1zm-26 16v1-1zm-2 3zm-62-93zm0 0v-1h1-1v1zm-2 2zm28 25h4v-1h-4v1zm-17-14h1v-2h-1v2zM732 237v1-1zM479 416v-2h1v2h-1zm1-1v-1h1v1h-1zm-2-1z"/>
    <path d="M399 332v-1h-1v-1l-1-1v-1l-1-1h-1l-1-1h2l1-1v-4h1v1-3h1l1 1 1 1h-1v2l1 1 1-1h1v-1h1l1-1v2h1v1h1v1h-1v1h2v1l-1 1h1v1h1v1h-2v-1h-3v1h1l1 1h-1v1-1l-1 1v-1h-1v-1l-1-1h-1v1h-1v1h-1v1zm9-5zm1 2zm-3-8h2v1h1v1h1v1h-1v-1h-2v-1h-1v-1zM488 344h-5v-1h-2v-1h1v-1l-1-1h-1v-1h1v-1h1v-1h1v-1h1v-1l-1-1h2v1h1v1h1v1h1v1l1 1v1h1v1l1 1v2h-1v-1 1h-2zM702 239h1v1l-1-1zM276 266v-2h-1 2v-1h-1v-1h1v3l1 1v1l1 1h1l1 1v2-1h1-1v-1h1-1v-1h1-1v-2h1v-1h1v1h-1 1v1-2h1v2-2h1v2h1v3h1v1l-1 1v1h2v2h-2v1h1v1h1v2h-1v1-1h-2v-1h-1v1-1h-1v-2h-1v-1h-6v-1 1l1-1v-1l1-1h1v-1h1l-1-1v-1h-1v1h-1v1l-1-1v-4zm5 3zm0-3v2l-1-1v-1h1zm-3 1h1v1-1h-1zm2-1v1-1zm-2-1v1-1zm-1-1h1v1h-1v-1zM522 370h-1v1-1h-1v-1h-1v-1h1l-1-1v1-1h-1v-2h1v-3h1l1 1h1v2-1h2v1l1 1v-1 1h1v1h2v2l-1 1h-2v-1l-1 1h-1v1-1h-1v1-1zM535 244v-1h-1v-2h-1v-1h-1 1v-1h-1v-1h-3v-1h1l-1-1v-1l1-1h2v-1h3l1 1v-1h7l1-1h-1v-3h1v1h3l1-1v1h1l1 1h1v2l-1 1v2h-2v2h-1v1h1-1v1h-1l-1-1v2h-1v1h-1v1h-1l-1-1v1h-1v1h-2v1h-3zM455 338v-1h2v-3h1v-1h-1v-1h1v-1 1h3v-1h1v-2h4v1h3v-1h2v3h1l1 1h-1v2h-1v2h1v1h1v1h-1v1h-1v-1h-3l-1-1v1l-1-1h-3v1h-1l-1 1h-2l-1-1h-1l-1-1zM393 277h1v1h-1 1-1v-1zM450 196v-2h-1v-1h1-1 1v-1h1v-2h2v4h1v1h-1v-1l-1 1-1 1h-1z"/>
    <path d="M525 235h1v-1h-1v-4h1v-1h1v-1h1v-8h3-1 1v8l1 1v2h1v2h-1v1h-2l-1 1v2h-2v-1h-1v-1zM712 253zM213 216v-2h1v1h1v1h-2v1-1zm0 0h-1v-1l1 1zM699 145v1h1v1l1 1 2-1h5l1-1v-1l1-1v-2l1-1v-2h4v-1h1v-1 1h1v1h3l1 1 1-1h1v-1h1v-1h2v2h1v3l1 1v5h1v3h1-1 1v1l1 1v1h-1v1h-1v1l1 1v4l-1 1v5h-1l1 1v1l1 1v1l1 1h-1l-1-1h-2v1h-1l-1 1h-1v1h-1l-1 1h-3v-5h-1v-1h-1v-1h-1v-1h-4v-1h-1l-1-1h-1v-1h-4v-5l-1-1v-2h-5l1-1v-1h-1v-1h-1v-1l-1-1v-2h1-1v-1h1v-1l1-1h-1v-1zM717 298v-1 1zM727 237zm-15 15z"/>
    <path d="M694 208h-2v1h1v1h-4v-1h-6v2h-1v1l-1 1v1h-1v1h-1v-4l-1-1v-1h-1v-1h-1v-1h-1v-1h1l1-1v-1l1-1h1v-1h1v-1l1-1v-1h2v-1h-2l-1 1h-1v1h-1v-2h-1v-1h-1v1h-1v-1 1h-1v-2h1v-1l-1 1v1l-1 1-1 1v-1h-1v3h-3 1-2v-1h-3v-1h-1v-1h-1v1l-1-1-1-1h1v-1 1h-1v-1h1v-2l-1 1v1h-1v-1h1-1v1h-4v-1h-8v-1h-1l-1-1h-1l-1-1-1-1h-1v-1h-1v-1h-5v-1l-1-1v-2l-1-1v-4l1-1v-1l1-1v-1h1v-1h1v-1l1-1h1v-1h1v-1l1-1v-1l1-1v-1h1v-1l1 1v-1l1-1v-12l1-1 1-1v-4h1v-2h1v-1l1-1v-1l1-1-1-1h1l1-1 1-1v-1h3v1h1v-1h2-1 3v-1h-1 2v-1h1v-1l1 1v-1h2l1-1 1-1 1-1h1v-1h1v-1h1v1-1h-1l1-1v-8l1-1h1v-1l1-1 1-1 1-2v-2h1v-1l1-1h1l1-1v-1h1l-1 1h1-2v1h-1v2l-1-1v3h-1 2v1-2h1v-2h1v-1h1v-3l1-1v-2h1l1-1h1v2h-1v1h-1 1v1h1v1l1 1h1v1h1v1h2v1h2v1l1 1h1v1h1v-1h1v1h-1v1h-1v1h-1v1l-1 1v1h-1v1h-1v1h-2v1h-1v1h-2v4h1v1h2l-1 1v4h3v3h1l-1 1h1v1h2v1-1h3v1l1-1v6h1-1v1l1 1h-1v2h-1 1l-1 1v2l1 1 1 1v3h5v2l1 1v4h1v1h3l1 1h2v1h1l1 1h2l1 1h1v1l1 1v5-1h4l1-1h1v-1h2v-1h7v3h-1v1h1-1 1l1-1h3v1h3v1h-1v1h1v1h1v2h1v1h-1v1h1-1v1h-1v2l-1 1v2h-2v1h-2l-1 1h-3v1l-1 1v4l-1 1v2h1v2h1v2h-1v1h-2 1-1 1v1h1v2h-6v1h-1v-3h-2v-1h-2v1l-1-1-1 1h-1v1h-2v1l-1 1h-1v1h2v1l1 1v1l1 1v1-1h-4v-1h-1l-1 1h-1l-1 1h-2l-1 1-1 1h1-1l-1 1v-3h-1v-3l1-1v-1l-1-1v-1h-1v-1h-1v-1h-1v1h-2v1h-4zm-17 0v1-1zm-1-4h1-1v1-1zm1-1v1-1zm-2 1v-1h2-1l-1 1zm-1-1l1-1v1h-1zm4-1h1v1h-1v-1zm-3 0h-4v-1h1v-2h1v-1h1v1-1h3l1 1v1h-1 1v2h-3zm6-3l-1 1v1h-1v-1l1-1h1zm-20 0h1-1zm-1-4l1-1-1 1h1-1zm-16-29v1-1zm1-1zm14-29h1v1h-1v-1zm3-2h1v1h-1v-1zm10-8v1-1zm-1-4h1v1h-1l1-1h-1zM752 278h1-1v2l1 1h1-1v-1h-1v-2zm4 2h-2 3-1zm-5-4h-1l-1-1v-1h1-1v2h2v1-1zm3-2v-1h1l1 1h-1v1h-1v-1zm-2 1h1-1zm-5-3v1h1v1l-1-1v-1zm6 1v-1h1-1v-1h1v2h-1zm-9-1h1-1zm4-2l1 1-1-1zm-3-2l1 1h1-1v1h1v1l-1-1v-1h-1v-1zm-2 0h1-1zm1-2l-1 1v1-1l1-1zm-4 1h1-1zm0-3zm0-1h2-1l-1 1v-1zM278 283v-1h-1v-2h9v2h-1v2h-1l-1 1h-1v-1h-4v-1zM526 20v1-1zM465 152v-1h-1v-1l-1-1v-1l-1-1-1-1-1-1h-1v-1h-1v-2h-1v-1h-1l-1-1h-1v-1h-1 1v-1h2v-1h1v-1h1v-1h1l1-1v-2h1v-1h2v-2l1-1h4l1 1h2v-1h1v-1l1-1v-1h5v1h-1v2l1 1v1l1 1v8h-2v11h-1l-1 1h-5l-1-1-1 1h-1l-1 1h-1zM456 393v-1h-3v-2l-1 1h-2v-1h-1v-4h-1v-2l-1-1-1-1v-1h-2v-2l1-1h3v-1h-1v-3l-1-1h3v-1h1v-2h-1 2v1l1-1h1v1h2v-1 1h4v1h3l1 1h2l1-1h1l1-1h1v3h1v1l-1 1h-1v2l1 1v1l1 2h-4v1h-2v1-1h-1v1h1l-1 1v2h-1v1h-2l1 1v1h-1v1h-2v1h-1v1zM783 255v-5l1-1 1-1h1v6h-2v1h-1zm-1-1zm0-2v1-1zM730 651h-3v-1h-5v-2l1-1 4-3 1-1h-3v1l-2 1h-1l-1 2h-2l-1 1v1l-1-1v-1l-1-1-1 1h-1v-3l-1-1-1-2 1-2-2 1h-2l-1-1-1-1v-3l1-2 1-1 1-2h1l3-4 1-1 1-1h3v-1h1l1-1h1l1-1v-2l5-3v-1h-1l-7 5h-3v-1l2-3 3-3 1-2 3-3 2-3 1-2 1-3h2l1 1 1 1-2-4 1-1h2l1-1h2v-1h-2l-2 1v-1h-1l1-2 2-1h-1v-2h1l1-1h2l3 2h1v1l1-1h1l-2-1h-1l-1-1v-3h2v-1h2l2-1 1 1h1l1 1h1v-1l-1-1-1-1-1-1-1-1h-1l-1 1h-1l1-3h3v1h2v-1h6-1v-1h-1v-1h-1v1h-4v-1l-1-1h-2l-1-1-1-1 1-1 1-1 1-1h3-1l-2-1v-1h-1l1-2 1-3h2l1-1h3l1-1v-1l-1-2 1-1v-2h1v-1h6v1l2 1v1h1v-1l-1-1v-1h2l-1-1h-3l-1-1h-1l-1 1-1-1v-3h-2v1h-1v-1l-1-1v-1l1-1v-1l2-2 1-1h1l1-1 2-1h1v1l-1 1v1l1 1h2l1 1v1h1v1-1l-1-1v-1l3-1h2v1l1 2v-4h4l1 1 1 1v1-1l1-2 1 1h1v2-2h2l1 2v2-4h1l1 1h1v4l-2 2-1 1h-1v1h-4v1l1 1h1v2h1v2l1 1-1 1v1h-1l-1 1-1-1-1-1h-1l-1-2v-2l-2-1h-4v2l-1 1-1 1v2l-1 1v1h1l1-4 1-1 1-1h2l1-1v1h1v6l-1 1-1 2-1-1v1h2l-1 4 1-3 1-1v-1h1l1-1v4-1l1-1 1-1h2v5l-1 1-1 1v2l-2 1h-1l-1 1h-1l-1-1h-2l-1-1h-1l-1 1h-2l-1 1v1h1v-1h5l1 1 1 1v1h-2v-1h-1l1 2h1v2l1 1v2l1 1 1 1v1h2l1 2v8l-4-1h-3l-1-1-1-1-1-2-1-1v-1l-1-2-1-1-1-1-1-1h-2v1h-1 2l1 1 1 1 1 2v1l1 2 1 1 1 2v1l-1 1-4 1-3 1-1 2-4 3-2 1h-2l1 1h4v4l-1 1-2 2-1 2h-1l3-1 1-2 1-2h2v-3l1-1v-1l1-2 3-2h1l3-1h1v1l-2 2h2l1-1h1l1-1v-1l1-1h3l1 1h1l1 1v2l-1 1-1 2-1 1-2 1-4 1v1l4-1 3-1h1v-1l3-4v-1l2-1v1h1l1 1 1 1v1h1v1l-2 2-3-1-2 1h-1l-2 2-2 2v1h1l1-1 3-2 1-1h5l1-1h1v1l1 1v1l-1 1h-1l1 1v1l-1 1-1 1-1 1h-3l2 1h2l4-3h1v1l-2 3h-1 2l1 1v-1h1l1-1 1 1v1l-1 1-1 1v1l-2 1h-2l-1 1v1l-1 1-1 1h-3l-1-1v-1l-1 1v1l-1-1h-1l-1-1h-2v1h1l3 3v1l-1 1-1 1-1 1v1l-1 1h-1v-1l-1-1h-1l-1-1-1-3-1-1v-1h-2l1 2 1 1-1 1-1-1-2-2-3-2-1-1v-1l-1-1h-1l1 1 1 2 4 3 2 2v1l1 2-1 1v1h-1v1l1 1v1h-2l-1-1-1-1v1l1 3v1h-1l-2-2h-4 1l1 1 1 1v1l1 1v2h-2l-2-1h-3v-1l-1-1-2-3v-1l-1-1v-1l-1 1h-1l1 1 1 2v1l1 1 1 2 1 1v1l-4 1-4-1-1-1v-1l-1-1-1-2-2-1 1 1 1 2 1 1v1l-1 1-1 2-2 1-1-1-1-3-1-1h-1l1 1 1 1v1l-1 1h-1l-2 1h-1v-2l-1-1zm63-38v-2l-1-3-1-1-1-2v-2h-1l-1-1h-2v-4l-1-1v-1h-2v-1 2l1 1v3h-1l-1-1h-1v-3l1-1v-1h-1l-1-1v-1l-1-1 1-2v-3h-1v1h-2v-3l-1 2-1-1-1-2v-2l1-1 2-1 1-1 1-1 1-1v-2l1-1v-1l1 1v5-1h1v-5h-1v-2h1l1 1v-5h1l1 2 1 1 1 2v-1l-1-2v-3 1h1v1l1 1 1-1h-1v-2h2l1 1h1l2 1 1 1v2h-2l-1 1h3v1l1-1v1l1 1v1h-1l2 1 1 1v1l-1 1-2 1h-1v1l-1 1-2 1h-1v1h2l1 1h1l1-1 1-1 1-1v1h1-1v1h1l2-1v-1l1 1 1 1v2l-1 1-2 1v1h-1 1l1-1h2l1 1 1 2v1l1 1v3l-3-1-1-1h-2v2h-1v1h1l2-1 1 1h1v1h1v1l-1 1h-1l1 1v5h-1l-1-1-1-1v-1h-3l1 1h1v2l2 1v4h-2l-1 1h-3v2h2l1 1v2h-3l-2-1-1-1v-1l-1-1zm20-20v-4l1 1v1l1 1h1v3l-1 1h-1l-1-1v-2zm13-10h-1l-1-1-1-2v-1l1-1-1-1v-1 2l-1 1h-1l-1-1h-1v-3h-2l-1-1-1-1v-2l1-1-1-1v-1l-1-2-1-1v-1l1-2h1l1-1 1 1 1 1v2l1 1v1h1l1 1h1l1-1 1 1v1l2-1h3v1l1 1v2h-1l-1-1h-2v2h1l-1 1v1h2l-1 2 1 1v-1l1-1 1-1v1l-1 2v1h3v3l-1 1h-5zm-21-12h-2l-1-1v-2h1v-1l-1-1v-2h1l1-1h1l1-1h1v-1h1v2l1 1v1h-1v1h-1 1l1 1h1v1h1v7h-3l-1-1h-1v-2l-1-1zm39 2l-1-1-1-1v-2l1-1h3l1 1h1v-1h1l1 1h1l2-1v2h-1v1l-2 1h-2v1l-1 1-1 1h-1v-1l-1-1zm-20-7h1v1l-1 1v-2zm21-1h-2v-2h2l1-1h1l-1-1h-2v-2l1-1v-1h1l1-1v1l1-1 2-1 1 1 1 1 1 1v5h-1l-1 1-4 1h-2zm10-4l1-1 1 1 1 2v1h-1v1h-1v-1l-1-1-1-1 1-1zm-34-1h2v2l-1 1h-1l-1-1h-1v-2h2zm-18 1h-6v-2l1-2h7l1 2-1 1-1 1h-1zm26-8h2v1l1 2v2l1 1v2l-1-1h-1v-1l-1-1v-2h-1v-3zm-41 1h1l2 1v4h-3v-2h-1v-2l1-1zm72 2l-1-1h1v-1l2-1v-1l-1-1-1-1h2v-1l-1-1v-1l1-1 2-1v-3h1l1 1 1 1v1l-1 1v3l1-1 1-1v-2h1v-1h-1v-1l1-1v-1l1-1v2h1v1-5l1-1h1v1l1 1v2h1v-2h4v-1 1h1-1v2h1v1l-1 1v1h-2l-1 2-1 1-1 1-1 1v1l-1 2-1 1-1 1v1h-1l-2 1-2-1h-1v1-1h-1v1l1 1-1 1h-1l-1-1-1-1zm-60-6h-1l-1-1-1-1v-2l1-1v-1 1l-2 1h-2l-1 1h-2l-1-1v-1h2v-1h-2l-4-1v-2h4l2 1v-1h-1l-1-1h-1l-1-1-1-1v-1h-1v-2l1-1h-1l-1-1v2h-1l-1-2-1 1h-1v-1 1l-1 1-1-2h-1l-1-1-1 1h1v1h-2l-1 1h-1l-1 1h-1v1h-1l-1-1-2 1h-2l-2-1v-1h-2l-1-1 1-1h-2v-3l1-1 1-1h-2l-1-1h1l1-1v1h1v-1h-1v-1h1v-2h3l1-1h1l1 1h1v1l1 1v2h1v-1h-1v-2l1-1h4v1-1h1v1-1l1-1h1v1h2v-1h1l1 1v-1h3v2l-1 1v1h1l1-1v-1 2-1h1v-2h2l1 1h1v1h1l-1 1 1-1v-1h1l1 1v1l1 1v3h1v3l-1 2v3l1 1 1 1v2l1 1h1v-1h2l1 1v-1h2v1l1 1h1v1h-1v1h1l2 1v2-1h-1v1h1v2h-1l-1 1h-1l-2-1h-1l-1-1zm54-2l1-1 2 1h1v1h-1v1h-2v-1h-1v-1zm-67-3h1l1 1v1l1 1h-1v1h-1l-1-1v-3zm52-5h-1v-3h1-1v1h-2v-2l-1-1v4l-1 1-1-1h-1v-1l-1-2 1-1v-3l1-2v-1l2-1 1-1h1l1 1h1v-1h1l1 1h-1l1 1v-1l2-1 2-1 1-1v-1h1l1-1h1l2-1 2-1 1 1h1l1 1v2l-1 1h-2l-1 2h-4v1l-1 1v1l1-1h1l1-1 1 1h1v-1h3v2l-1 1h1v1-1h1v-2 1h1l-1-1v-1h1l1-1h1v1h1v-2l1 1 1 2 1-1 1 1h1v3h-4l-2 2-1 1 3-1 1-1h2v2h-1l-1 1h-3l-1 1h5v1h-1l1 1-1 1h-4l2 1v2l-2 1h-2v-2l-1-1v-1l-1 1h-2v-1l-1-1-2-2 1-1h-2v-2l-1-1h-2l-3-1h-1v3l3 1v1l-1 1-1 1h1v2h2v2l-1 1-1 2-1 1v1h-1l-1-1v-4h-1v-3l1-1h-1zm-20 6h2-1l-1 1v1h-2l1-1 1-1zm-9-1v-2l-1-1v-5h1v-1l-1-1v-3 1l1-1v-2l-1-1h1l1 1v-1h-1v-1h7v2h-1v1h2v1l-1 1-1 1-1 1h-1v1l2-1h3v-1l1 1 3-2 1 1v1l-1 1h-1v2h-1v-1h-1v-1h-1v1h1v2h1v2l-1 1h2v2h-2l-1-1v-2l-2-2h-1v-1h-1v1h1v2h-1 2v1h-1v1h1l1 1 1 1h-1v1h-1l-1 1-1-1-1-1v-1l-1 1v2h-1l-1-1-1-1zm17 1h-1v-1h-1v-2h3l1 2v2h-2v-1zm-5-7v-1h1v-2h2v3l2-1v2h1v1l-1 1h-1l-1 1h-1l-1-1v-2l-1-1zm-65-1v-1 1l1-1h1v2h-1v1l-1 1v-3zm110-4h3v2h-1l-1 2v1h-1l-1 1h-1l1-1v-2l1-2v-1zm-66 2v1h1v1l-1 1-1-1v-2h1zm74 0h1l-1 1v1-2zm-70-3h2v-1h1v1l-1 1h-1v1h-1v-2zm-7-5v-4h3l1 1 1 1h1l1 1h1v1h1-1v2h-1v3h-1v1l-2 1h-1l-1-1-1-2-1-1v-3zm30 0h1l1 1v1l-1 1v1l-1 1-1-1v-1l-1-1v-1h1l1-1zm-25-5v-1 1h1v1h-1v-1zm6 0v-1h1v1l-1 1-1-1h1zm62-5v1h-1v-2 1h-1v1l-1 1h-3l-1-1v-1h-1l-2-3-1-1v-1h-1v-1l1-1h1l1-1 2-2h1l2-2 2-2h1l1-3 1-1h1v-5l1-1 1-1h2l1-1 1-1 1-1h1v1h1v2l1 1v1l3 2h1v1h2-1v3l-1 1v1h-1v3l-1 1v1h1v1h-1v3l-1 1-1 1v2h1v1l1 3v1l-3 1h-2l-3 1h-1l-1-1-1-1-2-1h-1v-2zm-74 1l-1-1h-1l-1-1h-1v1l-2-1h-1l-1-1v-1l1-1v-1h1v-3h1v-1l1-1v-2l1-1h1l2 1h1l2-1h-1v-1l-1-1v-1l1-2v-2h1l1 1v-1h2l-1 2 1 1v2l1 2v10h-1l-1-1h-1 1v4h-1l-2 1h-2zm14-3h2v-1l1 1v1h-1v1h-4 1v-1l1-1zm5 1l-2-2h-3l-1 1h-2v-3h1v-1h-1v-1h1l1-1 1-1v-1h1v-1h-1v1h-2v-1h-1v-1h1-1v-2h-1v1h-1v-3l1-1v-1h-1 1v-4h1v-1h3v2h1v-1l-1-2v-1l1-1h2v2l1 1v1l1 1 1 1 1 1v1h1v1h2v1l1 1 1 1 1 1v1l-1 1v1h-2v-1l-1-1v-1h-3v2-1l-1 1 1 1v1h1l-1 1-1-1v1l1 1v-1h2l1 2v1h-2v-1h-1 1v1l1 1v1l-2 1v-1h-1v1h1l-1 1zm-38-28l-1 1h-1v1h-2v-2l-1 1v5h2v1l1 1v1h1-1v1h-1v1h-1l-1-1h-1l1 1 1 1h-1v1h2v1h1v3l-1 1h-1l-2-1 2 1 1 1-1 3h-1l-1 1h-1v-1 2h-1l-1 1h-1l-1 1h-2l-1-1v-1l-1-1v-2l-1-1v-2l-1-1v-2l1-1 1-1v-1l-1 1v-2h1-1v-1h1v-2h-1v1l-1 1-1 1v2h-1v-1h-1v1-1h-1v-3l-1-1v1h1v3h-2l-1-1h-1l1 1h1l1 1v1h-1v1h-1v1h-3l-1-1-1-1h-2l-1-1v-2l1-2h1v-2 1l-1 1-1 1h-2v-2l1-1h1v-1h-1v-1h1l-1-1 1-1v-1l-1 1v2l-1 1h-1v1h-1l1-1 1-2h-1v1h-1v-1h-1v-1 2l-1 1h-2v-1h-2v-1l-1-1v-1h1v-1h2v-1l1-1h-1v1h-1v1l-1-1h-1v1h-1v-3l1-1h1l1-1v-1l-1 1h-1v-1l1-2v1l-1 2v1h-1l-1 1-1 1h-1v-1h-2l-1-1h-1v-1l1-1 1-1h1l1-1 1-1h-1v1h-1l-1 1h-1v-1h1v-2h-1v1h-1v2h-2l-1-2v-2h3v-1h2v-1h1-4v-1 1h-2v-1h-1v-2h3v1l1-1v1l1-1h1v-1l-2 1-1-1v-2l1 1h1v-1l2 1-1-1h-2v-1l-1-1h-3v-1h1l-1-1v-2h-1v2h-1v-1l1-2-1 1v1h-1v-1h1-2v-2 2h-1v1-1h-1 1v-1h-2v-1l-1-1v1-3h2-3v1-1h-2l1-1v-1l1-1h-1l-1 1v-1l-1 1v-1h-1v1h-1v-1l-1-1-1-1h2v1l1-1-2-1v-1h2v1h1v-2h-1l-1-1h2v-1h-1 1v-2h2v2h1l-1-1h1v-1h-1v-3l1-1 1 1h1v2-1l1-1v1l1 1v1l1 1v1h-1v1h-1v2h-1 1v-1l1-1h2v1h1l1 1 1 1v1h1v-2l1 1h1v-1h-1v-1l-1-1v-1h1l1 1 1 1 1 1v-1l-1-1v-1l-1-1v-1h-2v-2l-1-1v-2l-1 1v-1h-1v-1 1h-1v-1h-1v-1h-1v-1h1v-1l-1-1h-1v-1l-1-1h1v-1l-1-1v-1h1v2h1v1-4h-1v-1h1v-2l1 1 1 1h1v1-1h1v2-1h1v1h1l1 1v1l1 1v-2h-1 1l1 1 1 1h1l-1-1v-1l-1-1v-1h-2v-1h-1v-1l-1-1h-1v-2h-1v-3h1v1h1l1 1h1l2 1h1l1 1 1 1 1 1h2l1 1h1v1h1l1 2h-1v1l1 1h1v1l1-1v2h1l1 1v1h1l-1 1h2v-1 2h2v1h1l-1-1v-1h3v-1h2v-1 1-1h2l1 1h1v1l1 1v2h-1v1h-1v2h-3l-1-1h-1v-1l-1-1h1v-1h-1v2l1 1h-2v1h-3v1l-1-1v2l1 1 1 1v1l-1 1-1 1-1 1v1h-1v2h-1v1h-1v1l1 3v1l1 1v1l1 1v1l1-1v1h1v1l-1 1h1v1-2h1v1l1 1h1l-1 1h1v1h-1 1v-1h1v1-1h1l1-1 1-1v3h-2v2l1 1h1v2h-1 2v-1 1h1l-1 1 1 1h1v1l1 1v1h2v2h1v1h1v-2h-1v-2h-1v-1h1v-1h2l1 1h2l1 1h2l-1-1h-1v-1l-1-1 2 1h3l1 1h5l1 1h1l1-1 1 1h1v3l1-1h1v-1l1 1v-1h1l1 1v1h2l1 2v3h-2l-1-1h-3l1 1 1 1h2l1 1h1l1 1 1 1v5l-1 1h1v2h-1v2l-1 2v2l-1 1v1l-1 1-1 2-1 1v1h-1l-2 1h-2l-3-1v-1l1-1 1-1 1-2 1-3 1-1v-1l-1-1v-6l-1-1v-1l-1-1-1-1-1-1v-1l1-1h2v-1h1v-1zm-19 25h-5l-1-1-1-1v-1l-1-1h-1v-3h-1v-1h7l1-1h2v1h1v4h2v5h-1l-1-1h-1zm72-7h1v1l1 1v1l1 1 1 1h1l-1 1v1h-1l-2 1h-2v-1h-1v-5l1-1v-1h1zm26-3v-1l-1 1h-2v2l-1 1h-2l-1-1-2-1v-2l1-1v-1h-1v1-1h-1v1l-1 1v1h-1v1l1 1v2-1h-2l-1-1-1-1-1-1v-1h-1v-4l-1-2v-2h-1v1h-1v2l1 1v5l1 4v1h-1v1h1v1h-1l-1-1-1-1v1h-1l-1-1-1-1h-1v-1l-1-1v-4l-1-4v-1h-1v-2l-1-1v-2l1-1v-1l-1-1-1-2-1-1h-1v-1h-1l1 1-1-1h-1v-1l-1-1h-1v-1h-2v-4h1v2-1h1v-1 1h1v1l1-1v-2h1l1 1h1l-1-1v-3 1l-1 1h-1v1h-1v-2h-1v-2h1l1-1h1v-1l1 1 1-1 1 1h3l1 1h-1l1 1h3v2h1l1-2 1-1h1l2-1h1v-1l2-1h4l1-1h5v1l1 1v3l2 1h5v1h1l1 1 1 2v3h-1l-3 1h-11v1l1 1 3 1h1l1 1 1-1h9l2 2 1 1-1 1h-1v1h-1l-2 1h-2v1h-2v1h1l3-1h4v1h-1v1h3v3l-1 2-1 1h1v2l-1 1-2 2-1 1-1 1-3 1-3 2h-1v-2l-1-1v-1h1v-2l1-1zm-50 3h1v2h-1v-2zm-62-163h1v-1h1l1-1 1-1h2v-1h1l-1 1 1-1v1l1-1h-1v1-1h-1 1-1l1-1v1h4v-1 1-1h2v-1h1v-1h-2v-2l1 1 1-1h2v-1h-1 2v1h2v-1h1v-1h2v-1h2v1h-1v1h-1v2h-1v1h-1v4h-1v4h1-1v-1h-1v-1 1-1h-1l1-1h-1v1-1h-2v1h-1v1h1v1h1v1h1v2h3-1 2l1 1v-1l1 1h3v1h2l-1 1h1-1v1h1v2h1v2h3v2h1v1h2l1 1h2v-2h1l-1 1v1h1v-2h1v-1 1h1v-2h4v1h1v-1h2v1h2v1h1v1h1l1-1h1v1h2v1l1 1v1-2h78v1l1-1v1h-1v1h1v1h1v-1h1v1h1-2 1v2-1h2l1 1v3-1h4-1v1l1-1v2h1l1-1 1 1 1 1v1l-1 1h-2 2v-1h1v4h-2v-1h-1 1v3-1l1-1h1v-1l1-1v-1 1l1 1-1 1v1h-1 1v-1 3l1-1v2l1 1h1v1h-1l-1-1h-1l-1-1v1h2l1 1v1h-1 2v-2h1v-1 1h1v1h1v1l-1 1v1h-1 2v3l-1 1v1l-1 1h1v-2 2l1 1h-1v2h1l1 1h1v1h1l1 1v-1 1h1-1l1 1v1h1v2l1 1v1l1 1v1l1 1 1 1v1h1v1h1v1l1 1v1l1 1 1 1v-1h1l1-1v-1l1-1h1v-1h1v1h1v1l1 1h1v1l1 1 1 1v2h1l1-1h3v63h-3l-2-1-1-2h-1l-1-1h-1l-1-1-1-1h-3l-2-2v2h2v1h-1 1v1l-1 1v1l-1-1v2h-2v1h-1v-1h-1v-1h1v-1h-1v1h-2v1l-1 1h-1v1-1h-1v1l-1 1h-2v1l-1 1h-3v-1l3-2v-1h2v-1h2v-1l1-1h1v-1h1v-1l1-1v-1h-1 1v1l-2-1-1 1h1v1l-1 1h-1v1l-1 1v1l-1-1h-1v-2 1l-1 2-1 1v1h-2l-1 1h-1v1-1l1-1v-1l-1 1-1 2-1 1-1 1h1v3l-1-1-1-1-1-1v-2h-1v-2l-1-2h-1v-1h-2v3h-1v2l-1 1v-3h-1v-1l1-1v-1h-3v1h-1v2h-5l-1-1h-1l-1-2h-1l-3-1-1-1h-1v-1h-1l-1-1h-4l1 1h-2l-1-1h-1l-1-1-1-1v-2h-1v-1h3v-1h1v-2h-2v-1h-8l-1 1h-2l-1 1h-1v-1h-1v-1h-2v-2l-1 1v-1h-1l-1-1v-1l1-1 1 1v-1l-1-1h-1v-2l-1-1h-1l1 1 1 1v2h-1v-1 1-1h-1v1h1l-1 1h1v2h1-1l1 1v3l-1 1h-2v1h-1v1h-1v1h-1v1h2v-2h2v-1h1v1l1-1 1-1 1 1h1l-1 1-1 2h-2l-2 1-1 1h-2v-1l-1-1v-2l-1-1v1-1h-1v-1h-1v-1l-1 1h-2v-1l-1-1-1-1h-4l-1 1h-3l-1-1h-1l-1 1v2-1l-1-2h-1l-1-1-1 1v1h1v1h1l1-1v1l1 1v2h-2v1h-2v-2h-1l-1 1v-1l1-1v-1l-1 1-1 1v-4l1-1-1-1v-1h-1v-1h-1v-1h3l-2-2v-1 1l1 1v1l-1-1h-1v5l1 1-1 2v1h-2v1h-1l-1 1v1h-1v3l1 1v-2h2v2h-1l-1 1h1v2h-2l1-1h-1v2h1v-1h1v1h1v1-1h1l1 1v1h2v1l1 1v4h-1v1l-1-1 1 1v1-1h1v6l-1 1-1-1-1 1v1h1v1l-1 1v1l-1 1h-1v-1l-1-1h-2 1v-1l-1-1-1-1-1-1v-4l-1-1v-1h-1v-3h-1v1-1l-1-1h2v1h1v-1h-1v-2l2-1v-1h-2l-1-1-1 1h-1l1-1h-3v-1h1v-1h1l-1-1v-2h-1v-1h1l-1-1 1-1-1-1v-1h-1v3l-1 1v3l-1 1h-1v-1l-1-1h-1v-1l-1-1v-4h1v1-5l-1-1-1-2v-1h-1v1h-1v1h-1v3l-1 2-1 2v3h-2v3h1v6l-1-1-1 1h-1l-1-1-1-1h-3v-1h1l-1-1h-1v-1h-1l-1-1v-1h1v-1h-1l-1-1v-1h1v-1h3v-2l-1-1v1-2l-1-1v-1h-1v-2h-1l1-1v-2h1l1-1v-1h1v-1h1l1-1v-1h1v2l1 1h1v1l1 1h1v-1h-1l-1-1v-1h-1v-3l1 1v-1h1l1 1 1 1v1h1l1-1 2 1v-2h-1l-1-1v-1l2-2v-1l1-1v-1h2l1 1v1h1v1h1l1 1h4v1h2v-1h-4v-1h-1v-1l-1-1-1-1h-5v-3l2-3v-1h1v-1h3l-1-1h1v1h1v1l1-1v-2l1-1h2l1 1h3l1 1 2 1v1-2h-1 1-1l-2-1h-1v-1h1-1l-1 1v-1h-1v-1h-1l-1-1v-2h1l1-1h3-1v-1h-1l1-1v1h1v-1h1v-1h-1v-1l1 1h1-1l1-1h-1 1v-1h1v-1h-1l1-1 1-1v-2l1-1v-1l1-1v-7l1-1v-1h-1v-1h-1v-3 3h-3v-2l-1-1v-2l-1-2v-2l1-1h-1v1h-1l1-1-1 1-3 1h-1l-1-1h-1l-1-1h-2l-1-1-1-1-1-1-1-1-1-1h-1l-1-1h-2v-1h-1v-2 1h-7v-1h-2v-1l1-2v-1l-1-1v-6l-1-1-1-1h1v-1 1l-1-1h-1v-1l-1-1-1-1v-1h1v-1 1h-3v-1l-1-1v1h1v2l-1 1v-1h-1v-1 1h-1l1 1v1l-1 1v4h1v5h1v2h1v1l-2 1-1 1h-1l-1 1h-1l-1 1v1l-1 1v1h-1v6l1 1v2l1 1 1 1 1 1 1 1h1v2h-1v1h-1v3h-1v-1h-1 1v1l-1 1h1l-1 1h1v3h1v1h-1 2v1h-1v3h-1v1h1v1l1 1v2h-1v1h-1v1h-1l-1-1h-1l-2-1v-1l-1 1h-1l-1-1-1 1h-1v1h-1l-1-1-1-1h-1v-1l1-1h-1v1h-1v-2h-2 1v-1h-1 1v-1h-1v-1h-4v-1h-1v1h-1v-2h1v-4h3l-1-1v1l-2-1v-3h-1v-2l1-1v1-1h1l-1-1v1h-1v1h-2v-1h-1v-3l1-1h1v-1l-1 1h-1v2h-1v-1 1l-1-1v-1 1l-1 1h-1l-1 1v1h-1v-2l-1 1 1 1h-1v1h-1v1h1-1v2l-1-1v1h1v2h-1v-1 3h-1v1l-1-1v-1h1-1l-1-1 1-1-1 1v-2h-1 1v-1h-1l-1-1h1v-1h1-1l-1 1v-2h-1v-1h1v-1h1-3v-1h1v-1h1-1l-1 1-1-1-1-1v-1l1-1h1-2v-1h-1v-3h2v1h1v-1h-1l-1-1v-1h-1 1-1v-1h-1 1v-1h-3v-1 1-2h-1l1-1v-1h1-1l-1 1h-1v-1l-1 1v-1l1-1-1 1v1l-1-1v-1h-1v-1h-1v1h-1v-1h-1v-1h1l1-1 1-1h1l1-1h2v-1h1l-1-1h1-1l1-1h-1v1h-1v1h-1l-1 1-1 1h-2 1v1h-2v-1l-1-1v-1h1-1v-1l-1 1v1h-1v-1h-1l-1-1v-4h1-1v-1h1-1v-1l1-1v-1h1l1-1h3v-1h2l1-2 1-1h1v-1h2l1-1v1-1h3v1h12v-1h2v-1l1-1v-1h1l1-1h1l1-1 1-1 1-1 1-1h1l1 1h2-1v-1h-3v-1l1-1 1-1 1-2h1v-1h2l1-1 1-1h1v-1h1v-1h1l1-1h1-1v-1h1l1-1zm72 141h1v1h-1v-1zm-38-3h-1v-1h2v1h-1zm30-4h-1v-1h-1l-1-1-1-1v-2l-1-1h-1v-1h1v-1h1l1-1h3l1 1 1 1v1l1-1h1v1h1-1 1l1 1v1h-2l-1 1v2h-1v-1 4h-1l-1-1v-1zm-51 1v-1h2v-1h1v1-1 1h1v1h-4zm-4 0v-1l1-1h2l-1 1h-1v1h-1zm-28-2h1v1h-1v-1zm200 0v1h-1l1-1zm-123 0v-1h1v1-1h1v1l-1 1-1-1zm16-1h1l-1 1h1-1v-1zm-68-2h1l1 1-1 1h-1v-2zm38 2h-1l1-1v1zm-31-4v2h-1v1h-1v1h-1v-1l1-1v-2h2zm31 3h1v1l-1-1zm27-2v-1 1h1v1h-1v-1zm1-2h1v2h-1v-2zm4-1h2l-1 1h-1v-1zm-75-2l1 1v1h-1v-1h-1v-1h1zm83 0l1 1v1h-1v-2zm-72-1h1v1h-1v-1zm-9 1l-2-1v-6h1l1-1h4v5l-1 1v1h-1v1h-2zm30-5h1v5l-1-1v-4zm64 2l1 1h-1v-1zm-100-1h3v2h-2v-1h-2v-1h1zm100 1h-1v-1l1 1zm-4-4v-1l1 1v2l-1-1v-1zm-127-3h1v1h-1v-1zm128 0h-1v-1h1v1zm-70-5h-1v-1h1v1zm1-4h-1v-1h1v1h1-1 1l1 1v2l-1-1-1-1v-1zm3-1h1v3-1h-1v-2zm1-2h-1v1h-1v-1h-1v-1h-2v-1l-1-1h-1l-1-1-1-1v-3h-3v-1h-1v-2h1l1-1 1 1h1l1 1h1v1l1 1 1 1v-1h1v-2l1-1h1l1-1v-1h1l1-1 1 1v3l2-1h2v1l-1 1-1 1h-1v1h1v3l-1 1v6l-1 1h-1v-1h-1v-1h1l-1-1v-1zm-21-8l1-1v1h-1zm-2-4h1l1 1-1 1-1-1v-1zm3 0h-1v-2h1l1 1 1 1h-2zm12-3h-1v-1h1v-1l1-1 1-2h1v1l1-1v1l1 1-1 1-1 2h-3zm-33-2h1l1 1v1-1h-2v-1zm10 0h1l1 1h-1v-1h-1zm-26 0h-1v-1h2-1v1zm42-1h-1v-3l1-1v-1h1v1h1v2h-1v2h-1zm-41-4v1-1h-1 1v1-1zm79 0v1h-1v-1h1zm-80-3l1 1 1 1h-2v-2zm39-3h-1 1zm-29-3v2h-1v-2h1zm-11 1v-1h1v2-1h-1zm44-4v1-1zm1 0h-1 1zm-32-4h1v1l-1-1zm30-8v1-1zm-50 0h-1 1v1-1zm51-4v1h-1l1-1zm-1 0v1-1h-1 1zm-2-2v-1l1-1v1h-1 1v1-2h1v1h-1 1v-1h1l-1 1v1l-1 1v-1h1v-1l-1 1v2-1h-1v-1zm3 0v-1 1h-1v1-1h1zm-3-1v1l-1 1v-2h1zm-50 0h-1 1zm195-7v1h-1v1-1l1-1zm1-1v1h-1v-1h1zm5-2h-2v-1l1-1h-1v2h-1v-1l1-1v-2h2v1h-1 1v1l1 1v1h-1zm-7 0v-1h1v1h-1zm-1-4l1 1 1 1h-1l-1-1v-1zm-140 0v1-1zm138 0v1-1zm-2-1v-3h1v2-1 1h1v2h-2v-1zm9 1v-2l1 1v-1h-2l1-1-1-1h-1v-1h1v1h1v1l1 1h1v1h-1 1v1h-2zm-143-2h2l1 1h1l-1 1h-2l-1-1v-1zm136 1h1v1l-1-1zm-1-2h1v1l-1-1zm-1-1v2h-1v-1h1v-1zm7-2v1-1zm-145 0h1l-1 1v-1zm-67 0zm203-2h1v1h-1v-1zm-203 0h1v-1h1-1v-2h1v-1l1-1v-1h1v-2l-1 1-1 1v-1l-1 1v-1l-1 1v-1h1l1-1h-1l1-1h-3v-1h1-1v1-1 1h-4v-2h1v-1h-1v-1h1-2v1h-1v-1h1v-1h1v-1h1-1l1-1h-1l-1 1h-1v1-2h1v-1h-1v1h-1v-1l1-2v-2h1v1l1-1v2h1v-1 4h1v-1l1-1-1 1h1v-1h1v-1l1-1v1-1h1v1h-1v1l-1 1h-1v1-1h1v1h1v-1h2-1v1h1l1-1h3l1 1h2v-1h2v2l-1 1h-1v1h-1 2v1h-1 1l-1-1v2l-1 1v-1h-1v1h1v1h-1v1-1 1l-1 2v2h-1v1l-1 1v1h-1v1h-2v1h-1v-1zm201-4h-2l-1-1h-2v-1l-1-1v-2h-1l-1-1h-1v-1l-1-1v-1 1l-1-1h1v-1l1 1h2l1 1h1l-1 1v1-1h2l1 1h-1 1v1h2v1h-2 2v1h1v1h2v1h1-1v1h-1v-1 1h2l1 1h-2l-2-1zm-201 1h1-1zm196-3v1h-1v-1h1zm-1 0zm-177-4h3l2 1v1h1l1 1h-4v-1h-1l-1-1-1-1zm182 2h1v1h-1v-1zm-7-1v1h1v1-1h-1v-1zm-197 1h1-1zm2 0v-1 1h-1 1zm200-1v-1h1v1h-1zm-165-18v1-1l1 1v2h1v6h3v1h1v-1l1-1v-1h1v-2h1v-2l1-1v-1h2v-1h9l-1 1h-2v1l-1 1v1h-1v1h-2v1h-1l-1 1h-1l-2 1-1 1v1h-1v1l-1 1-1 1v1h-2v1h-1l-1 1h-1l-2 1h-5l-1-1v-1 1-2l1-1h1v-1h2v1h1v-1h2-3v-1h-3v-1l1-1 1-1h-2l1-1h-1v-2h-2v-1l-1-1h-3l1-1h-1l-1 1h-1v-1h-1v1-1h-1l1-1h-1 1v-1h2l1-1h2v-1h1v1-1h2v-1l1-1v-1h2v-1h1v1h1v2l-1 1h1-1v1h-1 1l-2 1h-1l-1 1v-1h-1 1l-1 1h-2 5l-1 1-1 1h1v1-2h2v-1h2l1-1h2zm158 16l1 1-1-1zm0-1v1-1zm-100 0h1v1h-1v-1zm-1 0h1v1l-1-1zm-65-3h1-1zm0 0l1-1-1 1zm60-1h1-1zm-88-1h-1v1-1h1zm21-1v1h-1v1-1h1v-1zm5-3h-1v-1l-1 1h-2l-1-1h2v-1h1v1h1v-1l1 1h1v1h1v1l-1 1v-2h-1zm-7-2h-1l1-1h-1l-1 1h1-1v1h-1l-1-1h1-1l1-1 1-1h3v2l-1 1v1l-1 1v1h-1v-4h2zm28 3v1h-1l1-1zm36-3v1-1zm-2-1h1v1h-1v-1zm-1 1v-1h-1v1-1 1h-1v-1 1h-1v-1h-1l1-1v1l1-1v1h3v1h-1zm-26-2h1-1v1-1zm0 0h1-1v1-1zm-36 0h1-1zm59 0zm-5-3h1-1zm-37 0v-1 1zm-2-2h1-1zm29-1v1h-1 1v-1zm1 0v1h-1l1-1zm-48 0l1-1v1h-1zm64-9v1-1zM264 169zm-1 0zM459 217l-1-1v-1h-1l-1-1-1 1h-3v-1h-1v-1h-1v-1h-1v-3h-1v-1l1-1 1-1 1-1v-1l1-1v-5h2v-4h-1v-7h-1v-1h1v-1l-1-1-1-1-1-1v-1l-1-1v-1h5v-1l1-1h1v-1h-1v-4l1-1v-2h-1v-1h-1l-1-1v1h-1v-4 1h2l1 1v1h1l1 1h1v1h1v1h1v-1h4v2h2v-1h1v1h1v1l1-1v1h1v-1h3v4h1v7h4v1h2l1-1v-2h6v2h1v2h1v2h12-1v2h1-1v1h-3v1h-2v-1h-1l-1 1h-1v1h-1v1l-1 1v3l-1 1v1h-1v1h-1v1h-1v2l-1 1v5l-1 1v1l-1 1v4l-1 1h-1v1h-1v-1h-1l-1-1h-1l-1-1h-4v1l-1 1-1-1h-1v1h-5v1h-3l-1-1v1h-1z"/>
    <path d="M471 233v-1h-1v-1l-1-1v-2h1l-1-1h-1l-1-1h1-1v-1h-2v-2h-1l-1-1h-1v-1h-1l1-1h-1v-1h-1l-1-1v-1h1v-1l1 1h3v-1h5v-1h1l1 1 1-1v-1h4l1 1h1l1 1h1v1h1v-1h1l1-1v-3h2l1 1h1v-1h2v-2l1-1v1l1 1 1 1 1 1v1l1 1v2h1v1h-1v1h1v1h-1v1h-1v2h-2l-1 1h-1l-1-1v1h-2v1h-3l-1 1v2h-5v1l-1 1h-1v1h-1v1h1-1v1h-3z"/>
    <path d="M483 212v-1l1-1v-1l1-1v-5l1-1v-2h1v-1h1v-1h1v-1l1-1v-3l1-1v-1h1v-1h1l1-1h1v1h2v-1h2v1h1l1-1h1v-1 2h1v1h1v1l-1 1v-1h-1v1h1v1h-1 1v2h-3v1h1-2v-1h-3 1l-1-1v1l-1 1v4h1v1h1l-1 1v1h-1v2h3v1h1-1v1h-7v-1h-1v2l-1 1v2h-2v1h-1l-1-1h-2zM509 354v-1h-1l1-1h-1v-1h-2v-2l1 1v-2 1h1v-1h1v1-1h1v-1h1v1h1v1l1-1v-1h3v2h2v-1h1-1v2h-1v2h-1v1h-2v1h-3 1v1h-1v-1h-2zM551 232h-1v-1h-1v-1h-2l-1 1h-2v-1l-1-1v-2l-1-1h1v-1l1-1v-2l1-1h-1v-2h-1v-2h1v1l1-1h1l1 1h1v-1l-1 1v-1h5l2-1h1l1-1h1v2h-1v2h1v1h2v1h1l-1 1v2h-1v2h1l-1 1h-1v-1 1h1v1h-1l1 1v2l-1 1h-1v-1h-1v1h-1v1-1h-1v1-2h-1v1h-1zm-7-15h1-1zM984 142zM724 137h-1l1-1v-2l1-1h2v-1h1v-1h-1v-1h1v-2l-1-1h1v-1l-1-1v-1h2v-2h1v-1h1v-3h1v-3h-1v-1h1v-1h1v-6h-1v-3h-1l1-1v-1h-1v-1h1v-1h1v-5l1-1 1-1v-7h-1l1-1h1v-3h1v-1h-1 1v-8h1v-4h-1v-5h-2v-1h3v-1h-2v-2h1v-2h-1 1v-5h1v-2h1v-1l-1-1v-1h1v-2h1v-1h1v-1h1v-3l-1-1v-2h-3v-2h1-1v-1l1-1h-1v-1h-1v-1h-7l-1-1h-2 3l1-1h1l1-1h1v-1l1-1v-4l1 1h1l1 1h1v1h-1l-1 1v-2 2h-2v2h1l1-1 1-1 1-1v-1l1 1v3h-1v-1l-1 1h-2l1 1h1l1-1v1h1v-3h1l1 1-1 1-1 1h1v-1 1l1-1h1v2-1l1 1v1h-1v-1h-1v1l-1-1v1h-2v-2 4h1l1 1v-1h-2v-1h1l1-1h1v1h1v1h1-1v2h2l1 1v1h-1v2-1h-1v-1h-1v-1l-1 1v1l1-1h1v1h-1 1v1h1l-1 1h-1l1 1v1h-1v2-1h1v-1 5h-1 1l1 1v1h-1v-1h-3 1v2l1-1h1v1h1-2 1v4-1h1v1h1v1-1h1v-1h1v1l-1 1-1 1v1l-1 1v-1l-1 1h-1v1-3h1-1v2h-1v-1l1-2h-1v4h-2l1 1h1-1v1h-1v1h-1v1h1v1h1v1h-1v1l1 1h-1v4l-1-1v1h1l-1 1v-1 2-1h1v1h-1l-1 1h2l1-1h1v1h1v3l-1 1v2l-1 1v2l1 2v5h-1v2h-1v2h-1v3h-1v2l-1 1v2h-1l1 1v1h-1v5l1 1-1 1 1 1v1l-1 1v4l-1 1v3h-1v6h-1v6l1 1h-1v2l-1 1v8l1 1v3h-1l-1 1v1h-1v-1h-1v-3l-1-1v-5h-1v-3h-1v-3h-2zm118-13h1-1zm-85-21h-1 1zm-15-35h2v5h-1v1h-1v-1h-1l1-1v-2h-1 1v-2zm3-1v1-1zm-2-1h-1 1v1-1zm-1-2h1v-2h-1 1-1v-1h1v-1 1h1v2h1-1v1h-1v1h-1v-1zm-2-1l1-1v1h1-1v1h-1v-1zm2 0h1l-1 1v-1zm4-1v1-1zm-2-3h1v1h-1v1-2zm2-9l1 1h-1v-1zm-1-3h1v2h1v1h-2v-3zm2-1h1v1l-1 1v2-1l-1-1v-1h1v-1zm-3-1v-1l1-1h-1v-1l1-1v1h1l-1 1v1l1-1v-1h1v2h-1v3h-1v-1l-1-1zm2 1l1-1v-1h1v1h-1l1 1h-2zm0-6l1-1v2h-1l-1-1h1zm1-2v1h-1 1v-1zm-2-3h1v-1h1v1h-1l-1 1v-1zm0-1v-3l1 1v2h-1zm-2-1l1-1v1h-1zm-15-4V19h3v1-1h3l1 1h2v1h-4v-1 1l1 1v3h-1v-2h1l-1-1v-1h-3v-1 1h-1 1l2 1v2l-1 1h-1v1h3v2h-1 1v1h-1v-1 1h-1v1h-1v-1h-1l-1 1v-1zm16-1h-1l-1-1-1-1h1v1h2v1h1v1l-1-1zm-4-3h-1v-1h-1v-1h1l1-1v2l1-1h-1 1v1h1v1h1l-1 1-1-1v1h-1v-1zm-4-2l-1-1v-1h1v1h1v-1 1h1v1h-2zm-1-4v-1h-2v1-2 1h2v1h1v-1 1h-1zm-4 0l-2-1h-2l1-1h-1v-1h-1v-1h1v1h2v1h1v-1h1v1h1v2h-1zm-7-2h3v1h-3v-1zm-2 0zm2-3h1v1h-1v-1zm1 0h1-1z"/>
    <path d="M492 223h1v-2h1v-1h1v-1h-1v-1h1v-1h-1v-2l-1-1v-1l-1-1-1-1-1-1v-3h1v1h7v1h6v-1h3l1 1v4h1-1v1h1v-1l1 1v1h2l-1 1v2h-1v2h-1l-1 1-1 1h-2v-1h-1v-1l-1 1v1h-1v2l-1 1v1h-1v1l-1 1v1h-1v2l-1 1v1l-1 1h-1v1l-1 1 1 1h1v2h-1v-1h-1v-1l-1-1v-5h-1v-1h4v-1l-1-1-1-1h-1v-1l-1-1v-1zM224 260v-2h1v-2h1l1-1h-1 4v1h1v1l-1 1-1 1h-1v1h-4zm2 3h-1 1zm-7 2h1-1zm0 0v-1 1zm-2 3zm-13 5zm-5 3v1-1zm-4 9v-1 1zm-2 5zm-1 0zm0 0l1 1h-1v-1zm1 5h1v1h1-2v-1zm-4 85l-1 1v-1h-1l-1-1h-2l-1-1h-1v-2h-1v-2h-1v-3h-1v-2l-1-1v-2l-1-1h1v-1h-1v-1h-3v-1h-2v-1h-1l-1-1h-1v-2h-1v-1h1l-1-1v-1h-5v1h-2v1h-2v1h-1v-1h-1l1-1v-1h-1v-1h2v-4h1v-3h1v-1h1v-2h2v1h2v-1h1v-1h1v-1h-1v-6h1v-1h1v-1l1 1v1h1v-2h2v-2h3v-1h-1v-1h3l1 1h1v-1h1v-1h1v-1h1v-1h2v-1l1-1h1v-1h3v-1h2v-1h1v-1h1l1-1v1h1-1l-1 1v1h1l-1 1v-1 2h-1l-1 1v1h1v1h3v-1l1-1h1l1-1 1-1h1v-2h2v-1l1 1h1v-3l-1-1h-2l-1-1v-1h1v-1h-3l-1 1v1h-2l-1-1h-4v-1h1v-1h2l1-1h1v-1h1v-1h1v-1h1v-1h1v-1l1-1v-1h-1l-1-1h-1v-1l-1-1v-2l-1-1v-1h-1v-1h-1v-1h-1v-1h1l1 1h4-3v-1h-1v-1h-1v-1h-1l1-1h1l1-1h2v-1l-1 1v-1h-1l-1 1v-1h-1v-1h-1l1-1h-1v-1h2-1v-3h2v-1h1-1l1-1v-1h1v-2h1v1-1h1-1v-1l1-1h1-1v-2h1l1-1v-1h2v-1h1-1v-1h1v-1h2v-1h1v-1h1v-1h5v-1 1l1-1h1v1h1v1-3h1v-1h1v1-1h1v1-1h2v-1h3v-1 1h1v-2l-1-1h2v1h1v1h-1v1h1v1-1h1v1h2l1-1h1v1h2v1-1 1h1v2h1v1h2l1 1 1-1v-1h3v-1l1 1h1v-1h1v1h1v-1h2v-4h1v1h1v1l1-1h1v1h1v1h2v2h-1v1h2v3h3v-1l1 1h-1v1h1v1h-1v2h-1v1h-1v1h-1v4l1 1h1v2h1v1h1v-1h2v1h1v-1 1l-1 1h1v1-1h1v1h-1l1 1 1-1h4v-1h1l1-1h1v-1h1v-1h2v-1h1v1h4v1h2v-1h1v-1h1v-1 2l1 1v-1h5v1-1h1l1 1v-1 1h3v1h-1 2v1h1v1h2v1h1l1 1h1l1 1v1h2v-1h1v1h2v1h1v1h2v1h1v1h1l-1 1h1v2h-1v-1h-1v3h1v4l1 1h1v3h4v1h2v3h2v1h2l1 1h-2v3h1v1h-1 1v1h2l1 1h-1l1 1v1h-1v2h-1l-1 1h-1v1-1l-1 1h-1v-1h-2v1h-1v2h-1l-1-1-1 1h-1v1h-1l-1 1h-1l-1 1h-2v3l-1 1h1-1v3l1 1v3h1v1h-3l-1 1h-1l-1-1v1h-1v-1 4l-1 1v3h-1v1l-1-1h-3v-1h-1v1h-2v6h-3v3h-3v-2h-1 1v-1h-2v-1l-1-1h-2v-1h-1v1-1h-1v-1h-1v-2h-1v-5h1v-2h-1l-1-1h-6v-1h-1l-1-1h-1v-1h-2v-1h-1v-1l-1-2v-1h-1v-1h-7l-2-1-1 1h-2v-1h-3l-1-1h-1l-1-1h-2l-1-1-1 1h-1v-1h-2l-1 1h-1l-1 1h-2l-1 1h-6l-1 1h-2v1l-1 1-1 1h-1v1h-1l1 1v1h1v1h-1v2h-2l-1-1h-3l-1 1-1 1h-3v1h-1v1h-1v1l-1 1h-2v1h-2v1h-3v-1h-2v2l1 1 1 1v1h1l1 1h2v-1h6v2h-1v3h-1v2l-1 1v1l-1-1h-2v-1l-1 1-1 1h-2v1l-1 1h1v1h-1v2h-1v2l-1 1-1 1v3h1l1 1h-1l-1 1v1h-2l-1 1h-4v1h-1v-1zM736 236h1v-1l1-1h1v-1h1v-3h1v-2 1h-1v-1l-1-1v-1h-1v-1h1v-1l-1-1-1-1h-2l-1 1-1-1h-1l-1-1v-1h-6v-2h1v-3l-1-1v-1l-1-1h1l1-1h-1v-1h-1v-2h-1v-2h1v3h1v-1h6v-2h-1v-1h-1 1-1 2v-1h1v-2h-1v-2h-1v-2l1-1v-4l1-1v-1 1h2v1l-1 1-1 1 1 1h1v1h1v-1h1v1h1v-1h4v2h1v1h1v1h1v1l1 1h1v1h2l1 1h1v-1l1 1v-1 1h2v1h1l1 1h1v1h1v1h-1v2h-2v1h-1v1h-1v2h1v1h-1v1l1 1h-1l1 1-1 1v1h1v2l1 1v1h-2 1l-1 1v1h1v1h-1v-1h-1v-1 2l-2 1v1h-1v2h-1v1l1-1-1 1v1h-1v1h-2v-1h1-1v1l-1 1-1-1-1 1-2 1h-1v1h-1v1h-1l-1-1v-1h1zm19-26zM770 233v-1l-1-1v-1h-1v-1h-1 1v-4l1 1v1h1v-1h-1 1v2h1l1 1h1v1l1 1h1l-1-1v-1l1 1h1v3h1-1v1l-1-1h-4v-1l-1 1zM765 269h-5v-1h-1v-1h-3l-1-1h-1v-1h-2 1l-1-1v1l-1-1h-1l-1-1h-1v-1h-2l-1-1h-1l-1-1h3v-1 1h1v-1l1 1h3l1-1h2l-1 1-1 1v1h3v1h1v2h1l1-1 2 1h1v1h2v1-1h2v1h1-1v1h3v-1h1v-1h3v-1h1v1-1h1l-1 1h-1v1l-1 1-2 1h-4zm-7-1h1-1zm-2-1h-1 1zm-2 0h1-1zm0-1v1-1zm-1 0h1-1zm14-2h2v1-1h-1v1h1l-1 1v-1h-1v-1zM606 251h1-1zm-1-1h1v1h-1v-1zm-5 0zm3 0h1v-1 1h-1zm-3-1h-1v-1h1v1zm1-4h1v1h-1v-1zm-1 1h1-1zm4-1zM728 236h1l1 1h-1v-1zM239 173zM439 309l1-1v-1h1v-1h2v-1 1l1-1v1l1 1h-2v1h-3l-1 1h-1zM494 368h-2v-1h-3v-1h1l-1-1v-1 1h-1v1h-1v-1h-1v-1h-3v-2h1v-1h1v-2h3v-1 1h4v1h1v-1 1l1-1v-1h2v1h1v1h2v1h1v2h1-1v1h1v1h1-1v1h-3v1h-2v1h-1v1-1h-1z"/>
    <path d="M512 387v-1 2-1h-1 1zm-4 0v-1h-1v-1h1-2l-1-1v1h-1v-1h1v-1h-1l-1-1v1h-1l-1 1-1 1h-1l-1-1v-1h-1l-1-1-1-1v-3h1v-1h-1v-1h-1l1-1h-1v-4h-1v-2h1v-1 1h1v-1h2l1-1h1v-1h2v-1 1-1l-1-1 1-1h-1v-1h-1v-1h-1v-1h-1v-2h1v-1h1l1-1h-1v-2h1-1 1v1-1 1h1v-1h3v-1h1v1h1v-1h1v1h2l1 1h2-1v-1h3v4l-1 1v1h1v1h3v1h1l-1 1v1h1v3l1 1h-1l1 1-1 1v2h1v1h-3l1 1h-1v2h1-1v1h-1v3h1l-1 1h-3l1-1h-1v1-1l-1 1h1l-1 1h-2l-1-1 1 1h1v2h1v1h-1v1h1v1h-3zm3-1h1-1zm-14-1v-1h1v2l-1-1zm7 0zm-8-3v1h1-1v-1zM414 235v-1h1v-1h3v3h-1v1h-1v1-1h-1v1h-1v-2h1v-1h1-2z"/>
    <path d="M508 387h3v3h2l-1 2 1 1v1l-1 2v-1h-1v1h-1v1-1 1l-1 1h1v-1l1-1h1v1l-1 1h-2v1l-1 1-1 1h-1v-3l1-1-1-1h1l-1-1h-1v-1l1-1v1l1-1v-1h1-1v-1h1v-2l1-1h-1v-1zm-4 12h1-1zm-4-8h1v-3h1v-2 1l1 1v1h1v2h1-1l-1 1v-1h-1v2h-2v-2zm6 0v1h-1 1v-1zm-6-1v1-1zm6 1l-1-1v-2h2v1h1v1h-1v1l-1-1v1zm-13-3h1v1l-1-1zm12-2l1 1h-1v1-2zm2 1h1v1l-1-1zm-7 0h1v1h-1v-1zm6 0h1-1zm-2 0h-2v-1h2v1zM707 245h1v1h-1zM737 253v2h1-1v4h-4v-1h-1l-1-1h-1 1-1v-1h-2v-1h-1 1v-1h1v1h3v-1h3v-1l1-1v1h1zM511 313h1v-8h1l1-1v-3h-1v-1h-1v-2h-1v-1h-1v-2l-1-1v-5h-1v-10h1v-2l-1-1-1-1v-2h-3l-1-1-1-1v-1l1-1 2-1 1-1 2-1 1-1 2-1 1-1 1-1h1l1-1h1l1-1v-1h1v-1h1l1-1h4l1-1h1l1 1h-1v2h3v1h2v1h1v2h2v1l1 1h1l1 1 1 1h1l1 1 1 1h1l1 1 1 1h1l1 1v1h1l1 1h1l1 1 1 1h1v1h1l1 1h1l1 1h1v1h1l1 1h1v5h-1v1h-1l-1 1h-1v1h-2v1h-4v1l-1 1h-1l-1 1h-1v3h-2v1h-5v1h-1 1v1h1v6h1v1h-1 1v1h1-2v1h-1v1h-1l-1 1h-1v-1 1h-1v1h-2v1h-5l-1 1h-6v-1h-1l-1 1h-1v1h-1l-1-1h-1v1h-1v-1h-1zM747 203v-1h1-1v-3l1-1 1-1 1-1h1v-1h3v-1h1v-2h1v-2h1v-1h1v1h1l1 1h1v-1 2h-1 1v1l-1 1-1 1v2h1v-1l1-1v1h1l1 1h-1v3h-1v3h-1v2h-1v1h-2v1h-1v-1h-1l-1-1h-1v-1h-2l-1-1v1h-1l-1-1h-1zm10 3v1-1zm35-3h-1v-2h-1l1-1h1v1h-1v1h1v1zm-2-1zm2 0v-1l1 1h-1zm-3-1h1-1zm-3-1h1v1h-1v-1zm3-1zm-29-4v-1h1v1h-1zM439 294v-2l-1-1v-2l-1-1h1v-2l1-1v-2h1l1 1v1h1v2h1v1l1 1v1-1h1l-1-1v-1l-1-1v-1l-1-1h-1v-3h-1v-2l-1-1-1-1v-2l-1-2-1-1h-1v-1h1v-2l-1-1v-1h-1l-1-1h-1v-1h15v1l1-1h17v23h1v4h-1v1l1 1-1 1v1-1h-6l-1-1h-3v-1h-3l-1 1-1 1h-1 1-4l-1-1 1 1v-1h-6zM457 411l-1-1h1v-2h1v-6h-1 1v-1h1v-1l1 1 1-1 1 1v1h2v1h2l1-1v3-1h1l1 1v2l1 1h-1 1v1h-1v1h-1l-1 1h-3v1h-1l-2-1h-2l-2-1v1zm14-4h1v-1 1l1 1h-1v1-1h-1v-1zm-1-1h1-1zm2 0h-1l-1-1h1v-1h2v-2h1v1h-1v1h1v2-1h-1v1-1 1h-1zM560 281v-4h9v-7l1-1h2v-6h11v-1 4h-1l-1 1v2l-1 1v1-1 1l-1 1-1 1-1 1v2l-1 1v1l-1 1h-1v1h-1v2l-1 1h-12v-1zM414 239l1-1h2v1h1v1h1v1h1l1 1v1h2v1h3l1-1h1v1h1v1-1h1v-1h1v1-1h2v3l-1 1v4h-2v1h-1v1l-1-1v1l-1 1-1-2v-2l-1-1v-2h-1v-2 1h-1v-1h-2v-1h-1l-1-1-1-1-1-1-1-1-1-1h-1zm9 9zm0-1h-1 1v1-1zM540 338v-1h-1v-1h1-3v-1h-5l-1-1h-3v-1 1h-2v-1h1-1v-1h1v-1l2-1h1l1-1h1l1-1v-1h1v-1l1-1 1-1v-3h-1v-1h1v-1h1v-2h1l-1-1h2l1-1 1-1v-1h7l1-1h1v-1h2l1 1v2-1l1 1 1 1h1v3h-1l1 1v1l-1 1v1h1v1l1 1h-2v5h-1v1h-1v1h1v1h4v-1 2h1v-1h1v3l1-1v1h-1 1v2h-2v1h-1v1h-2v-1h-11l-1-1v1h-1l-1-1h-1v1h-1zm-17-14l1 1h1-2v-1zm4 0h-1v-1l1-1v1h2l-1 1h-1v1h-1 1v-1h-1 1zm4-3h1l-1 1v-1zm0-1zm43-33v1h-1v-1h1zm11-1h1v1h-1v-1zm-10-1l1-1v1h-1v2h-1v-2h1zm6 0l1-1 1 1h-1v1h-1v-1zm3-1v1h-1v-1h1zm-5 1v-2 1h1l-1 1zm7-1v-1 1z"/>
    <path d="M428 243h-2v1-1h-4v-1h-1l-1-1-1-1-1-1-1-1v-2h1v-3h-3l1-1-1-1v-1h-1v-1h-1v-1h-1v-1h-3v-1h-2l-1-1h-5v-1l1-1 1-1h1v-1l1-1h1l1-1v-1h1l1-1v-1h5v-1h1v-1h3v-1h2v1h2l1-1h1v-1h4l1 1h1l1 1 1 1h3v2h1v1h1v1l1 1v1l1 1 1 1 1 1h2v1h-1v1h-2v4l-1 1v2h-1v-1 1h-1v3h-1v2h-2v2h-1v3h-2l-1-1v1l-1 1h-1v-1zM454 473h1v-1h1-1v-5l-1-1h-1v-1l-1-2h-1v-1l1-1v-1l1-1 1-1v-1l-1-1v-1l-1-1v-2l-1-1v-2h1v-6h-1v-3l-1-1v-2l1-1-1-2h-1l-1-1v-1h-1v-3h1v-1l1-1 1-1v-1l1-1 1-1v-1h1v-1l1-1h1v-1h1v-1l1-1 1-1 1 1 1-1h1v1-1h2-1 1v-1 1l1-1h2v-1h2l1-1 1 1v-1h1-1v1h1v1-1h1v2h2v1h1v8h1v1l-1 1h1v3l-1 1v2h-2v1l-1 1v1h-1l-1 1-1 1-1 1v1l-1 1v1l-1 1h-2v1h1-1v1h1l-1 1v1l1 1 1 1v-1 2h1v-1 1l1-1v3h1v2l-1 1v2l1 1v3h1v1h-1v3h1v1l1 1v1l2 1h1v1h1v1h1v1h1v1h1-2v2h-1l-1-1v-1h-1v-2h-1l-1-1h-1l-1 1h-2v-1h-2v1l-1 1h-1v6h-1v1l-1 1h-2v1h-2l-1-1v-1h-1l-1-1-1-1v-1l1-1v-2zm12-29v1l-1-1h1zm10-11h-1l1-1v1zm-1-16v-1h1v1h-1zm-1-1zm-1 0l-1-1h1v1zm1-2h1l-1 1v-1zm1 0v1-1zM38 168h1-1zm-8-11zm0-1zm-3-2zm-2-2h1-1zm2 0h1-1zm0-1zm3-2zm-4-1v1-1zm4 9h1v-2 1h-1 1l-1-1h2v1l1-1h1v1h-2v1h-2zm0-1zm0 0v-1h1-1v1zm8-2v1-1zm-6 0zm3 0v-1h-1v-2h4v1l-1 1h1-1l-1 1h-1zm-1-1h-1 1zm-2-2v1-1zm2-2h1v-1h1v1h-2zm11-8zM701 36l-1-1h-1 1v-1h-1v1h-1v-2h2v-1h2l-1-1h1l1 1h-1l1 1h-1l-1 1v2zm3-1h1l-1 1v-1zm1 0h-3v-1h1v-1l1-1h1v-1h1v1h-1v1h-1l1 1v-1 1h-1 1v1zm2-2h-1v-1h1v1zm-8-1h1-1zm4-1v1-1zM148 229v1-1zm-39-5zm1-1zm-19-1h1-1zm-13-4zM553 427l1-1v1h-1zm1 0v-1h1l-1-1h1v1l1 1h-2zm2-1h-1v-1h1v1zm-2-2h1v1h-1v-1zm0-2h1v1h-1v-1zM527 368h-1v-1h-1v-1h-1v-2h-1l-1 1v-1h-1v-1h-1v-1l-1 1v-1h-2v-1h-3v-1h-1v-1l1-1v-4h2v-1l1-1v-1h1v-2h1v-1h-1v1l-1 1-1-1v-3l-1-1h1v-1h1l-1-1v-2h-1v-1l-1 1v-2h1l1-1 1-1h1v-1h1v1h2v1h1v-1l1 1h2l1-1 1-1v-2h-1 2v-1 1h3v1-1l1 1h5v1h3-1v1h1v1l-1 2v2l-1 1h1v-1 3l-1 1v-1l-1-1v1l1 1 1 1h-1l1 2 1 1 1 1v1l1 1h-2 2v1h2v1h4v1h1-1v1h-1 1v1-1l1 1-1 1h-3l-1 1v-1h-1v-1l-1 1h-1v-1 1h-2 1v3l1 1h-2v-1h-2l-1-1-1 1h-1 1v1l-1 1h-1l-1 1h-1v3l-1 1h-2v-1h-1zm12-21v1-1zm-30-12v-5h1l1 1h-1 1v4h-2v1-1zM498 208v-1h1-1v-1h-3v-2h1v-1l1-1h-1v-1h-1v-4l1-1v-1l1 1h-1 3v1h2-1v-1h3v-2h-1 1v-1h-1v-1h1v1l1-1v-1 1h1l1 1v1l1 1h1-1 1v1h1v2h1v1l-1-1v1-1h1v1l1 1v1-1h-1v1h-1v2h-1v-1 1h-1 2v1h-1v1h1-5v4h-6zM538 368l1-1h1v1h-2zm9 12v-1h1v1h-1zm6 9l-1-1v-1h-1v-1h1-1v-2h1v-1h2v1h1v1-1h1-1 1v-1h1v1h1v1h-1v1h1-1l-1 1v1h-2v1h-1zm-3 1l1 1h-1v-1zm3 2l-1-1h2v1h-1zm-1 0v1h-1 1v-1zm0 2h1v2h-1v-2zm2 1v1-1zm2 2h1v1h-1v-1zm-3 0v1-1zm3 1v2-2zm-3 2v-1h-2l1-1v1l1-1v1h1v1l-1 1v-1zm3 1h-1l1-1v1zm-3 4v-1l1-1h-1l1-1h1v-1 3h-1v1h-1zm-9 1v-2h1l1-1h1v-1h-1l1-1h-6l-1-1h1v-2l1-1v-1l1-1h1v-1h1-2l1-1h2l-2-1-1 1-2-1v-1h-1v-2l-1-1v-2l-1-1h-1l-1-1v-2l-1-1h2-1l-1-1-1-1 1-1v-1h-1v1h-2l-1-1v-1h-1l1-1v-2h1v-1l1 1v-2h1-3v-1h1v-1h1v-1h8v-1h2v1h1l1-1v-1h4v-1h2l-1 1-1 1-1 1v1h-1v1h-3l-1 1v1h-1 1l1-1h2v1h1v-1 1h3v1l-1 1h-1l-1 1v3h1v-1h1l-1 1-1 1h-2v1l-1-1v1-1h-1v1h1v3h-1v1h1v-1l1 1v3h-1 2l1-1v1-1 1h1v-1 1h1v-1h1v2-1l-1 1v4h-1 1v1l1-1v1l-1 1 1-1h1v-1h-1l1-1v-2h1v1l-1 1v1-1 4h-1v1l1-1h1v1h1-1l-1 1h1l-1 1v1l1 1h-1v1h1l-1 1h-1l1 1-1 1h-1 1v2h-1v-1 1h-5zm0 1zm0 0h1v1l-1-1zm0 1h-1 2v1h-1v-1zm-1 1v1h-1l1-1zm0 0l1 1h-1v-1zm-4 8v-1h-1l1-1v-2 2h1l-1 1h1v1h-1zm-1 0v-1l1 1-1 1v-1zm0 1zM405 331h1v-1h-1v-1h-1 1v-1l1 1h1l1 1h1v-1h3l1-1h1v1h1v1h4l-1 1v1h1v3h1l1 1h1l1 1v1h-1v-1l-1 1v-1h-2v-1h-4v-1h-2v-1h-2v1h-1v-1 1l-1-1h-2v-2h-1l-1-1zM709 236v1h-1v-1zM680 214h1v-1l1-1v-1h1v-2h1v-1h1v1h2v-1h1v1h1-1v1l-1 1h1l-1 1v1h1v4h-1v1h-2l-1-1-1-1h-1v-1h-1v-1 1-1h-1zM543 362zM536 234l-1-1h1v-1h-1v-1h-1v-1h1v-1h-1 1-1v-8h-1v-1h-1v-1h1v-1h3l1-1h1l2-1h4v1h-1v1h1v2h1v1l-1 1v2h-1v1h-1l1 1v6h1l-1 1h-7v1zM550 311zM619 665l-2-2-2-2h-2l-2-1-3-2v-1l1-1h4l7-1 4-2h1v-2h-1l-3 2-2 1-2-1h-8l-3 2-1-4-1-3-1 1v-1l-1-1h-1l-2-1-2-1-1-1v-3l1-2 1-2 2-1 2-1 16-2 1-1v-3l-1-1-1 1-3 2-3-1h-5l-2-3v-3h-2l-1 1v3l-1 1v1l-1 1h-4v-9l1-3v-2l1-1 1-3 1-1 1-3v-1l1-1h-1v1l-1 1-2 2-1 3-1 1-1 1-2 5-2 1h-1v-2h-2l-1-1-1-1h-1v1l-1 2-1 1-1 2v1h-1l-1 1h-4l-1-1-2-1-2-1-1-2-1-1-1-1 1-1 2-2v-1l2-3 1-1h2l1-1v-1l-1-1 1-1v-1h2l1-2h2l1-1v-1l-2-1v-1l1-1 1-1 1-1h1l1-1h1l2 1 1 1h1v-1l1-1 1-1v-5h-1v-1l-1 1v-7h-1v-3l2-1v-3h2v-1l2-2-1-1 1-3v-4l1-1v-5l-1 1v2l-1 1h-1l-1-1v-1h-1l-1-1v-2l1 2h2v-3l-1-1-1-1h-1v-1h-1l-1 1-1-1v-6h1l1 1h1l1 1h3v-1l2-2 1 1h2v-1l-1-1h-1l-1-2v-2h-1l-1 1v-1h-2l-1-2v-2l-1-1v-7l1-1v1l1 1h1l1-1 1-1 1-1h1l1 1h-1v-1l-1-1v1l-1 1h-1v-5l-1 1v3h-2v-2l-1-2v-1l-1-1v-1l1-1h2v-1h1l2-1 1 1 1 1v1l-1 1 1 1v-2h1v-4h-4l-1-1-1-1 1-1v-2h3l1-1 1-1 2 1h1l1 2 1 2 1-1v-1h1v1l1 1h1v1-1h-1l-1-2v-1h1l1-1v-1h3l1 1 1 1v-1l-2-1v-1h3v-1h-1v1h-4l-1 1-1 1-2 1-1-1h-1l-1-1v-1h-1v-1l-2-1h-1v-5l1-1v-2l1 1 2 1 1 1 1 1 1 1v3l1 1h1v-1l2-1 1-1h1v-1h-1v1l-2 1h-2v-4h1v-1l-1 1h-1v-1h-1l-1-1v-1h-1l-1-1-1-1-1-1h-1v-1l1-1h1v-1h-1v-2 2l-1 1-1-1v-8h2v3h1v-4l1 1h2l1 1v4l1 1 1 1h1v1h1v1h3l1 1h1l-1-1h-2l-1-1v-1h-1l1-1v-1h1l1-1h5-1v-3h1v-1h2-2l-1-1h-1l-3 1v-1l1-1h1l1-1v-1h-1v1l-1 1h-2l-2 1-2-1-2-1h-5v-1l1-1h1v-1h2v-2h1v1l1-1h-1l1-1 1-1h1v-1l1-1v-1h1v-1h1l1-1h2l2-1h1l1-1h1v-1h1l1 1v-1h3l-1-1h3v1l2 1v1-5l2-1v-1l1-1v-1l1-1v-2l1-1v-1h1v-1h1l1-1h2v1-1l-1-1h1v-1h1v-1h1v1-2h1v1l1-1v-1h2v2h-1 1l-1 1v1l-1 1h1l1 1v-1h-1l1-1v-2l1 1h1l-1-1v-1l1-1h4l-1-1-1-1h1v-1h1v-1l2 1h1v-1l-1-1v1l-1-1v-1l-1-1v-1h2v-1h2-1v-1l-1 1-1-1v-2l1-1v-1h1v-2h3v1-1h-1l-1-1 1-1v-1h1v1h2v-1h-2v-5h1l-1-1v-1l1-1v-3l1-1h3-1v-1h-1v-1l-1-1h1v-1h1l1 1-1-1h2v2h-1 1v-1h1l2 1v1h-1l-1 1h1v-1h1v1h2v2l-1 1v1-1h1v-1h2v-1h3-1 2v1h-2 2v2h2v2h1-1l1 1v1h-1l-1 1h1l1-1h1v1l-1 1h2v1h1l-1 1 1 1h-1v1l-1 1 1-1 1-1v1l1 1 1 1v1l1 1v3h-2v1h-2 1v1l1-1h1v-1h1v1h1l-1 1v1h-2v1h-2v-2 2l1 1h1v2-3h1v1-1h1v-2l1-1 1 1v5h1v2h-1l-1 1v1h-2 2v-1l1-1h1v1h2v1l-1 2h1l-1 1-1 1-1 1h-1v1l-1 1-1 1h1v-1h1l2-2v-1h1v-1h2v2l-1 1v1h-1v1h-2 3l1 1 1 1-1 1v2h-1l-1 1h-5l-1-1h-1 1l1 1-1 1h1l1-1h1l1 1h2v-1l1-1h1v2l-1 1v2h-1l-1-1h-3v1h-1v1h1v-1h3l1 1h1v-1 1l-1 2-1 1h-1l-1-2h-1l-1 1h-1v1h1v3h-2v1h1v-1l1 1-1 1v3h-1v2h5v1h1v1h1l1 1h2v1l1 1v1l-1 1h-1v-1h-4l-1-2h-1v-1h-2v1h1v3h1v1h1-2v1h3v1h2v2l-1 1-2 1h3l1-1v4l1 1v2h1v-1h-1v-2l-1-1 1-1v-1h1v-2h1l1-1v1h2v1l1 1v1h-1v3l-1 2h-1v1l2-2h1v1h-1v2h-1l-1 1v3l1 1v-1h2v2h-1v3l1-1v1l1 1v1l-1 1v1l1 1v2h3-1v1h-1v1l1 1h-1l-1 1 1 1h1v2h1v1l2 1v2l1 1 1 1-1 1v2h1v1h1l1 1 1 1 1 1 2 1 1 1h1l2 1h2v1h1l1-1h1v-1 1l1 1 1-1 1-1h2v1h1l1-1 1 1 1-1-1-1v-1l4 1 1 1 1 1 1 1v1l-1 2h-2v1h3l1 1 1 1-1 1v1l1-2h2v1l1 1v2h-1v1h-5l-1 1-1 1h-4v-1h-1v2l-1 1 1 1 1 1 1-1 1-1h2l1 1v-1h1v-1h1l2 1v1l1 1v1l-1 1h1l1-1h1v1h1v1h2v1l1 1 1 1v1l-1 1v3l-1 1-2 1h-2v1h-1l-1 1-3 1v2l-2 1h-2v1h-4l-1 1-1 1v3l-1 2v5l-1 1v1l-1 1v1h1v-1h2v-1h2v1h2l1 1v4h-1l-1 2v1l-1 1-1 1-1 1-1 2-1 2-1 1-1 1h-1v-1h-1l-1-2 1 3v1l-1 1v1l-1-1h-1l-1-1h-1l-1 1v12l-1 1-1 1h-2l-1-1-1-1-2-3-1-1-1-1-1-3h-1v-1h-1v1l1 1 1 1 2 3 1 2 1 2v1l2 1v1l-2 1-3 2-3 1h-1l-2 1v1l-2 1h-1v-1l-1-1v-1l-1-1v-10h-1v3l-1 1v9l-3-5-1-1-2-3-1 1-2-1v1h-1l1 1 2 3 1 2v3l1 2h-3l-3-1-5-5-2-1-3-6-2-1v1l-1 1 1 2v3l-1 3v4l1 2 2 4v1h-1l-7-1h-2v-1h-2l1 1v1l8 2h5l1 2-1 3h-1l-1-2-1 2-1 1-2 1-2 2h-2l-1-1h-1v-1l-1-1-1-1-1 2v3l-1 1-2-1v-1l-1-1-1-1-2-4h-1v4l2 2v4h-2v2h-1l-1-1h-1l-1 1v1h-4l-1 1-1-1h-2l-1 1h-10zm42-34h1l1 2 2 2 2 2 1 4v2l-1 1h-1l-3-2-2-2v-9zm-73-5h1l1 2v4l-1-1-1-2v-3zm-3-35l1-2h2l1 1v3l-2 1h-3v-1l1-2zm4-27v-1 2l1 2v2l-1 1v-3l-1-1 1-2zm-3-5l1 1h-1v2h-1v-2l1-1zm151-4h1l1 1v1h-2l-1-1 1-1zm-149-15v-1l1 5v3h-1v-7zm-2-8v-2l-1-1-1-1h4v4l-1-1v1h-1zm104-27l1-1v-1h1v1h1v1h-2l-1 1v-1zm-4-15h1v1l-1 1v-1h-1v-1h1zm-79-1v-3h1l1-1h5v1h-1v3l-1-1h-2l-1 1-1 1-1-1zm73-1h2v1h-1l-1-1zm3-8h-1l-1-1v-2h1l1-1h1l2-1h1v1l-1 1h2l1 1 1 1-1 1v1l-1-1 1 1v2h-4l-1-1-1-2zm-4-3v2l1 1h-2v-3h1zm-40-29h1v1h-1v-1zm26-30l1-1v1h1l-1 1h-1v-1zM583 239v1h-4 3v1h-6v-1h-2 6v-1h2zM567 237h1l-1-1v1h-1v-1h-1v1h-1v-1h-1l-1 1h-1l-1-1v-1l-1-1 1-1h-1v-1l-1-1v-3h-1 1v-1h-1v-1h2v-1h-1v-1l1-1v1-1 1h1v-1h2v3h4-1v2h1-1l1 1v1h5v-2h2v1h1v1h1v1h1v2l1-1v1h1-1v2h-3v1l1 1h-1v1h-2v-1 1l-1-1h-3zM403 170zM708 249h-1 1zm0-1h1v1h-1v-1zm-1 0z"/>
    <path d="M511 213h-1l1-1h1-1v1zm-7-4v-3h3l1-1v1h1v1h-1v2h-4zM462 331h-1v-1l1-1h-1v-1h1v-1 1h5l1-1v1h1v-1h-1 1l-1-1h-1v-1 1h2l-1-1h1v1h1v-1h-1 1v1h1v1h1v-2l-1-1v-1l-1-1h1-1 1v-1h1l-1-1h-1v-1h-2v-3 1h1v1h1v-1h1-1v-1h-1l1-1h1v1h1v-1h-1v-2l-1-1h1v1h1v-1h1v2h1v-1 1h1v2h1v2h-1l-1 1-1-1h-2v-1 1h-1 1v1h5v1h1v1h-1 1l1 1 1 1v1h-1v1h-1v2h-1l1 1h-3v1h-2v1h-5v1l-1-1h-1v-1h-1v1h-2v1zm4-4h1l-1 1v-1zm-3-1h1v1h-1v-1zm1-1v-1h1v1h-1zm15-2h1v1h-1 1v-1h-1zm-18-1v-1h1v1h1-1v1h-1v-1zm7 0zm1 0v-1 1zm1-1h-1v-1h-2v-1h1-1v-1h-1 2v1h1v1h1v1h1-1zm-4-1h1l-1 1h1-1v-1zm11 0h1l-1 1v-1zm-15-2h1v1h-1 1v1h-1v-2zm15 1h1-1zm1 0l-1-1h1v1zm-9-2h1v1h-1v-1zm-4 0h1v1-1h-1zm12 0h-1 1v-1 1h1-1zm-17 0h-1 1v-1 1h1-1zm7-1zm-2 0zm-3 0h-1 1zm2 0zm1 0v-1l1 1h-1zm2-1v1-1zm0 0v-1 1zm-3-1v1-1zm0 0h1v1h-1v-1zm-4 0zm6 0zm-3-1v1h-1l1-1zm-3 0l-1 1v-1h1zm4 0h1-1zm3 0zm-10 0v-1 1zm4 0v-1l1 1h-1zm3-1zm-7-2h1l-1 1h1-1v1h-1v-1h1v-1zm14 1v1-1zm-12-2v1-1zm9 0h-1 1-1v-1l-1 1h-1v-1h-3v-1h4v1h3v1h-1zM640 23l-1-1v1-1h-1v-1 1h-1v-2h-1v-1h1v1h1v1h1l1 1h1v1h1-2zM609 1V0l1 1h-1zM786 253v-6h-3v-1h1l1-1h1v-2h1v-1h1v-1h1l1 1h3l1 1v4h-1v1h-4v1h1v1h1v1h1-1v2h-5zM129 240v1-1zM574 238v-1h1-1v-1h1l1-1h1v-1h2v1h-1 1-1v1l1-1v1h-1 3v1h1v1h-8zm6-2h1-1zm-1-1zm1 0zm0-1v1h-1v-1h1zm1 0h-1 1zm-1 0zM696 218v-2h2v-3l-1-1h-1v-2h-1v-2h-1 3v-1h2v-1h3v1h1v2h1v2h-1v4h1v2h2l1 1 1 1h-1v2h-2v1h1v2h-1l-1 1h-1v1h1-1l-1-1-1-1h-1v-4 1h-1v1-1h-1l-1-1h-1v-2zM215 267h1-1zm0-1h1v1h-1v-1zm0 0v1-1zM329 27v-1l1 1h-2z"/>
    <path d="M776 249h1l-1 1v-1zm2 0h1-2 1zm-9-4h2v-1 1-1h2v1h1v-1l1-1h-1 1l1-1h3v-2l1-1h1l-1 1h2v2h2l1 1h1v2l-1 1h-1v1h-2v1h-1v-1 1h-1l-1-1h-1l-1 1h-4v-1h-1v1h1-1l-1-2h-1l1 1v-1h-2v-1zM489 350l-1-1-1-1h-1v-1h-4 1-1v-2h-1v-1l1 1v-2h1v1h4l1 1h1v-1h1v1h1v-2l-1-1v-2h-1v-1h-1l-1-1v-1l-1-1h1v1l1 1h3v1l1 1 1 1h-1 1v1l1 1v2h1v-1h1v-1h1v3l-1-1v1h-4 1-1l1 1h-2v1h1v1h-2v1h-1zm5-6h1v1l-1-1zm1-2v2-2zm-1 1zm-1-2v1h1v1-1h-1v-1zm0-1v-1 1h1v1l-1-1zm0 0zm-1 0v-1 1h1-1zm-4-3h1-1zm-1-1h2v1h-1l-1-1zm-1 0h-1v-1l-1-1h-1 1v1h2l1 1h1-1l-1-1v1zm3 0h-2 2zm-3-1h1-1zM739 260h1-1zm-2-1v-1l-1-1h1v-3l1 1h1v-1h2v1h1v-1h1l1 1v1h-2v-1h-3v1h-1 1l1 1v1h-1 1v1h2-1l-1 1-1-1h-2zm3-3h1v1h-1v-1z"/>
    <path d="M473 357l-1-1h-1v-1h1v-1 1l1-1h1v-2h1v-2h1v-2h5v-1h2v-1h2l1 1h1v1h1v1h1v1h1v1h-1v3h-1v1h-1v1-1h-4l-1 1h-3l-1 1v1h-3v-1h-2zM190 172h1v1h-2 1v-1zm3 1h1l-1 1v-1zm-4 1zm10 3l-1-1h-1v-1h-1v-1h2l1 1h1l1 1h1-1v1h-2zm-14 0l-1 1v-1h1-1v-1h1v-1h1v-1h3-1v1h1-1v1l-1 1v-1h-1v1h-1v1-1zm26 1v1-1zm-21 1h1-1zm10-1v1-1zm-11 1h1v1h-1v-1zm19 0v-1h2v1l-1 1h-1v-1zm-21 1v-1h1-1v1-1 1zm1 0v-1h2-1v1h-1zm-42-1l1 1h-1v-1zm59 0h1v1h-1v-1zm-4 1zm-15 0h-2v-1h2v1zm-9 0h-1 1zm14-1l1-1h7v1h-1v1h-2v-1h-5v1h-1 1-1v-1h1zm-23 1v-1 1h-1 1zm36 0l-1-1v1h-1v-1 1l-1-1v-1h2v1l1-1h2l1-1 1 1v1h-3v-1h-1v1h1v1h-1zm7 0v-1h1v-1 1h2v1h-3zm-40 1v-1l1 1h-1zm9 0h-1 3v-1 1h-1l-1 1v-1zm-2 1v-1 1zm-31-2v-1h2v2h-1v1h-3v-1h1v-1h1zm20 0v1h1-1v1h-1v1-2h1v-1zm-2 3h1-1zm49 0h1-1zm-40 0h1-1zm22 0h1-1zm20 0h3v1h-3l-1-1h1zm-4 0v1h-1v-1h1zm-55 1h1-1zm83 0v1-1zm-83 1v-1l1 1h-1zm0 0zm1 0v-1h1v2-1h-1zm76 1l-1-1h-2v-1h-4v-1l-1 1v-1h-1v2h-1l-1-1h-3v-1h-1v-1l-1-1h-4v-3l1 1h1l2 1 1-1h1l1 1h4l2 1h6v1h4v1h-1 1l1 1h2-1v1l-1 1h-4zm-47 0zm10-1v2-2zm22 2v-1 1zm-56-1v1-1zm-6 1v-2h1l1 1h-1v1h1-1v1-1h-1 1-1zm5-1h1l-1 1v1-2zm86 2h1-1zm-60 0h1-1zm5 0h1-1v1-1zm-2 0h1v2h-1v-2zm-1 2v-1 1-3h1v3h-1v1-1zm-29 1h-1 1zm29 0v1-1zm-15 2zm0 0v-1h1v1-1 1h-1zm-1 0h1-1zm35 0zm-32 1v-1 1h1-1zm32-2h1v2h-1v-2zm-30 2l-1-1h1v-1h2v1h1v1h-3zm-3 1v-1h1l-1 1zm59-1h1v1h-1v-1zm-1 1zm-63 0l-1-1v1l-1-1v-1h-1v-1h1l1 1h1v1h1v-1h1v1h1v-1h1v1h1v-1 1h1l-1 1h-5zm83-1h-1 1v1l-1-1h1zm-22 0h1v1h1-1v1h-1v-1h-1l1-1zm22 1h1v1l-1-1zm-96 2zm97-1h1v1h-1v-1zm-73 0v1-1zm6 1v1-1zm-6 1h-1l1-1v1l1-1v1h1-2zm8 0zm-20 0h-1v-1h2v1h-1zm15 0h-1l1-1v1l1-1v1h-1zm-30 0h-4 4zm75 0v1-1zm8 0h-1v-2h-1v-2h1v1h1v1l1 1h1v1h-1v1-1 1h-1v-1zm-49 0v1-1h-1 1zm-13 0h2v1h-2v-1zm14 2v-1h-1l1-1v1l1-1v1l-1 1zm37 0l1-1v1h-1zm-70 0zm100-2h1v1h1l-1 1-1-1v-1zm-89 1v1h1-1v-1zm0 2v-1h1v1-1 1h-1zm-13 0h-1v-1h-1v-1l1 1v1l1-1v1zm23 0h1-1zm-9 0v1-1zm24 1v-1h1v1h-1zm-32-1h-2v-5h-1v-1 1-1h-1v-1h-1v-1h-1v1h-1v1l-1 1-1 1h-2l1 1h-2v1h-1v-1h-2v-1h-2l-1-1h-3v-19 1h1v1l1 1h1-1v1-1h4l-1 1v1h1v1h-1 1v1l1 1v2h1-1 1v1h1l1 1h2l1 1h3l1 1v1h3v2-1h1v-2h1v1h1v2l1 1h1-3v1h-2v1h2v-1h1v1h2v1l1 1h2-1v1l-1 1h-1v1h-2l-1-1h-1zm81 1v-1h1v1h-1zm-65 0v-2 1h1v1h-1zm1-1h1v1h-1v-1zm66 1h1-1zm-76 1l-1-1h1l1 1v-1h-1 2v1h-2zm91-2v2-2zm-18 1h1v1l-1-1zm-69 0v1-1zm6 1zm64 0zm4 1v1-1zm-68 1zm0 0zm67 0zm-1 0zm-1 0zm3 0h2v1h-1v-1h-1zm-1 1zm1-1l1 1h-1v-1zm-3 1h1-1zm-1 0v-1 1h1-1zm6 0v-1 2-1zm14 1l-1-1v-2 1h1v1l1 1h-1zm-14 0h1-1zm-63-1v-1h1v-1h12v-1h1v-1l-1-1v-1h-1v-1h-2v1h-1v1-1h-1v1h-4v-1h2l1-1v-1h3v-1h-1l-1-1v-1h-1v-3h-1v-1 1-1h-1 1v-1 1l1-1h1v-1h1v3h1l1 1v2h2v-2l-1-1h1v-1l-1-1 1-1v-1h-1v-1h3v6h2v3h-1v1l-1 1h1v1h-1v2h-1v-1 4l-1 1v1-1h-1v1h-1v1l-1-1h-4v-1h-3l-1 1h-1v1h-1v1h-1v-1l1-1zm65 3v-1h1v1h-1zm-73-4h-1v2h-2v-1h1v-1l-1-1v-1l1 1h1v-3h-1v-1l1 1v1h1v3h1v1l-1 1v1l-1 1v-3h1v-1zm85 4h1-1zm-87 0v-1 1h1l-1 1h-1v-1h1zm8 1h1l-1 1v-1zm82-1v1h2v1h-1v-1h-1v-1zm-35 2zm9 0h-1 1zm-2 1v-1 1zm-32 0h1-1zm-22 0v1-1zm-4 1h1v1l-1-1zm1 1zm25 1l-1-1h1v1zm26-2h1v2-1h-1v-1zm-23 2h-2v-1h-1 1-1v-1h2l-1-1v-1h-1v-1l-1-1h1v-1h-1v-1h-2v-1h-1l1-1h2v1-1h1v-1l1-1v-1l-1-1h1v-1h1v-1l1 1v-2h1v-1h-1v-1h1v-2l1-1 2-1 2-1v2h1l-1 1h1v-1 1l1-1v1h1l1 1v-1h1v-1h1v1l1-1h1v2h1l1-1v1l1-1v1h1v2l1 1v2h2v1h-1 1v3h1v2h-1v2h-1v-1h-1v-1h-1v-1h-1l-1 1h-3v1h-4v-1h-1v1h-2v1h-1v1l-1 1v1h-1v4h-3zm-29-1h1l-1 1h1v1-1h-1v-1zm86 3h-1v1h-1v-1h-2v-1h-1v-1l-1-1h-1v-1h-1l-1-1h-1v-1l-1-1v-1h-1l-1-1v1h-1v-1l-1-1h-1v-1h-1v-1h-2v-1h1l1-1-1 1h-3v-1h1v-2l-1-1h-2v-3h-1v-1h1-3l-1-1v-8h4v-1 1h1v1l1 1h1v1h2l1 1v1l1 1h1v1l1 1 1 1v1l1 2 1 1v1l1 1 1 1h1v2l1 1v2h1l1 1h1v2h1v1h1v1h2v1l1 1 1 1h1v3h-1v-1h-2v-1zm3 2zM556 388v-1l1-1h1-1v-1h1v-1h-1v-1h-1v1h-1 1-1v1-1h-1v-1h-1v-4h-1v-2h1v-2h1-1v-1h2v1-1h2v-1h2v-1h1l1-1h2v1h-1 2-1v1h-1l2-1v1-1l1 1h-1v1h-1 2-1v1h-1v-1 2h-2l-1 1h1v-1h2l-1 1v1h-1v1h-1 2v1h2v1h-1v1h-1 1v2l1-1v1h-5 1l-1 1h-1v1h2-1v2h-1l-1 1v-1 1-2 1h-1 1l-1 1h-1v-1h1zm7-6h1v1h-1v-1zM435 299h1v-1h1v-3h1-2v-2l1-1v-4l1 1v2l1 1v3l-1 1v1l-1 2v1h-1v1h-1v-2zM548 383h1l-1 1v-1zM272 222h1v1h-1v-1zm0 1h1l-1 1v-1zm1 2h1-1zm0 0v1-1zm57 1zm-56 0zm1 2v1-1zm1 4v1-1zm55 2zm-56 1h1-1zm-1 2v-1l1 1h-1zm1 2zm0-4l1 1h-1v5h-1v-1h1v-1h-1v-1h1v-3zm39 62h1-1l1-1h-1v-1h-1v-1h-2v-1h-1v-1h-2v-1h1v-1h1v-2h1v-1h-1v-1h-2v-1h-1v-1h-2l-1-1h-1l-1-1h-1v1l-1-1v1h-1v-1h-1v-1h-2v-1l-1 1v-1h-2l-1-1-1 1v-1h-3v5h-1v1l-1-1v-3h-1l-1-1h-2v1l-1-1h-2v1-1h-1v1h-1v2l1-1v1h-1v1h-2v1h-1v1h-1l-1 1h-1v1h-4l-1 1-1-1h1v-1h-1v1-1h-1l1-1v-1 1h-1v-1h-2v-1h1v-1h1-1v-2l1 1h2v-1h1v-1h2v-1l-1-1h1v-2h1v-3h1v-2l1 1h2l-1-1v-2h1v-3h2v4l1 1v-1h1v-1h1v1l1 1h-1v1h-1l-1 1v2h-1v-1 1h6v1h1v2h1v1-1h1v1h2v1-1h1v-2h-1v-1h-1v-1h2v-2h-2v-1l1-1v-1h-1v-3h-1v-1h1v-1h-1 1v-1 2h1v-1h1v2h1l-1-1 1-1 2-1 1-1-1-1 1-1 1-1v-1h3v-1l1-1h1v-1l1-1 2-1v-1h1l1-1h1v-2h1v-1h2l1-1v-1h1v1l1-1 1-1v-1l-1-1v-1h1l-1-1v-1h1-1v-3l1-1v-1h1v-1h-1 1-1v-3h2v-1l1-1v-1h-1 1l1-1h1v-2h2v-1 1h1l1 2h1v3-2 2h1v2l1 1v2h1v1l1 1v1l1 1v3h1v2h1v2h1v1l1 1v5h1v9l1 1h-1 1-1v1h-1 2v1h-1 1-1v1h1v-1 1h1v-1h-1 1v-3h2v-1h3l1 1 1 1v1h1v1h1v1h-4v2h-1 2v-1h2l1 1h1v2h-1 2v1h-1v1h-3v-1h-1v1h-3v2l1 1v1h1l1 1v1h-1l1 1h1v2l-1 1v1h-2v-1h-1v1h-2l-1 1v1l-1 1-1 1-1 1v1h-1v1h-1v1l-1 1v1h-1v3h-1l-1 1 1 1h1v1h1v1h1l-1 1h1v1h-1v1h1v2h-4l-1-1-1 1h-2v1h-1v1h-1l-1 1h-1v-3h-1l-1-1v-4h-1v-3h1v1h1v-2h-1zM332 182zM410 314l-1-1v-2h-1v-1h-2v-3h1v-2h1v-2l-1-1h-1v-2h-1v-1h-1l-1-1h-1v-2h-1v-1h1v-2h-1v-1l-1-1v-1h-1 4l1-1v-1l1-1h4l1 1h1l1 1 1 1h1v1l1 1h1l1 1v1h2l1 1 1 1h1l1 1h3-1v1h1v2l1 1-1 1h-1l-1 1h-1l-1 1h-1v1h-1v4h-1l1 1v1l-1 1h-1v1h-1v1h-1v1h-2l-1-1h-1v1l-1-1h-1z"/>
    <path d="M410 324v-1h-1v-1h-1v-1h-4v1h-1v1h-1l-1 1-1-1v-2h1l-1-1-1-1h-1v-3h-3v-1h-1v-1l-2-1h-3l-3 1h-2 1l-1-1v2h-1v1h-1l-1 1-1 1h-3l-1 1v-1h-2v-1h-2v-1h-1v1-1h-2v-1h-1l-1-1v-1h-3v-3h-1 1v-1h-1 1v-3h1v-1l1-1v-1l-1-1h-1 1v-7h-3v-2h1v-1l1-1 1-1h-1v-1h-1v-2h-1v-1h-2v-1h-1v-3h-1v-2h2l1-1h1v-3l1-1h1l1 1h5v1h4l1 1v3h1l1 1h1v-1h2v-1h5v1h1l1 1h1v1h1v1h2v1l1 1v1h1v2h1v1h1v1h2l1 1h-1 1v-1h1v-1 1h1v1h1v2h1v1l-1 1v1h1v2h2l1 1h1v2h1v1-1 1l1 1v2h-1v1h-1v3h1l1 1v1h1v1l1 1v3h1v5h1v1h-1v1h-1zm-32-43v-1h2-1v1h-2 1zM579 452h-1l-1 1h-1 1v-1h1v-1h-1v-2h-1v-2 1h-2v-4h-1 1v-1l1-1h1v-2h1v-1h2l1-1h1v-1h1v-1h1l2-1h1v-1h1l1-1 1 1h3l1 1v1-1l1 1h1v1-1h4v2-1h-1l-1 1v1h-1v1l1-1v1l-1 1h2v1h5v1h-2v1h-1v-1 1h-3v1-1l1 1h1l-1 1h-1v1h5v-1h1v1h1v1h-1v-1h-1l1 1v1l-1-1h-1v1h1v1h-1 1v1h-1 1-1v1l-1-1v-1h-1v1-2 1h-1v1h1l1 1h-1v1h1-2v-1h-1l-1-1v-1h-1v-1l1-1v-1l-1 1v-1h1-1v-2 1h-1v2h-1v-1 4h-1l-1-1v-1h-1v2h-1v1h-1v-1l-1-1-1-1v1l1 1h-2v-1h-1v2h-1v-1h-1v3h-2v-2h-1zM497 350v-1h1-1v-1h1-1v-2h-1 1v1h2v-1h2-1 1v-2h-1v-1h1v-2l-1-1h-1l-1-1-1-1v-1l-1-2v-1l-1-1-1-1h-4v-1h1v-1h-1l-1-1h-2v-1h-1l-1-1-1-1v-2l1 1v1h2v1h1v-1l1-1v-2h-2v-2h1l1-1v-1l1-1v-1h1v3h-1v2l1 1v2h1l1 1h1-1v1h2v1h1v1h1l1 1 1-1v1h1l1 2h1v1h1v1h1l1 1v1h1v2l1 1v1h1l1 1h1l1 1v-1l1-1h1v-1h1v2l1-1v1h1v2l1 1h-1v1h-1l1 1v1h-1l-1 1v-1l-1 1v1h-1v1-1l-1-1-1-1v2h-1v1-1h-2v1h-1v1h-2v1h-3v-1l-1-1h-3zm3-11v1h1v-1h-1zm6-4h1-1zm2-7v-6h2v-1h1l1 1v2h-1 1v4h-1l-1 1h-2v-1h1-1zm4 1v-1 1zm-16-2h1l-1 1v-1zm16-6v1-1zm-20-3l1-1v-2l-1-1h1v-1h2v1h1l1 1h1v1h2v2h-8v1-1zm10-5v1-1zM541 361v-1 1h1v-1 1h-1zM752 255h-1v-1h-1l-1-1h5v1h1v1h-2zM426 297l1-1h2l1-1h2-1v-1l-1-1-1-1 1-1v-1h2l1-1v-1h4v4l-1 1v6h-1l-1-1h-3v1h-2v1h-1l-1 1-1-1v-2h-1v-1zM132 340h-3l-1 1h-1l1-1v-3h-1l-1 1v-1h2v-1h3l1-1v-1h1v-2h1v1h1l2 1h5v-1h-2v-1h-1v-1h1l1 1v-2h1l1 1h-1v2h1v2h-1l-1 1v1h-2v1l-1 1v3l-1 1 1 1v1h-1v1l-1-1v-1l-1-1-1-1-1-1h-1v-1zm7 5h1v1l-1-1zm0-1v1-1zm5-11zm-5-3h-1l1-1v-1l-1-1-1-1v-5h1v-2h1l1-1v-5l1-1v-1l-1-1 1-1v-1h1v-1h1v2h-1 1v-1h2v-2h1v2-1h1v-1h4-1 1v1-1 1h1v-1l-1-1h1l1-1 1-1v-1h1v1h1v2h-1v1h4l1-1h4v-1l1-1 1 1h2v1h-1l-1 1h-1v1h-1v1h-1v1h-6l-1 1v-1h-2v1h-1 1v1h-1v1l-1 1v2h-1v1h-1v-1h1v-2h-1v1h-2v1h-1l-1 1v1l-1 1h-1v2h-1v2h-1v2h1v1l-1 1h1v1l-1 1v1h-1v-1h-2v1h1v1h-1zm8-13v2-1h-1l1-1zm14-6h1v1h-1v-1zm-17-5zm28-1h1l-1 1v-1zm-15 0v-1 2-1zm1 0h1v1h-1v-1zm0 0v-1h-1v-1h1v-1h1v-1 1h2v-1h1v-1h2v1h-1 1v1h1-1l-1 1v1h-3v1h-2zm15-1v1h-1l1-1zm-10 0h1-1zm1 0v-1 1-1 1zm3-2l-1 1v-2h-1v-1l1-1v-3l1-1h1-1l1-1h1-1v1l1 1h-1 1v-2l1 1v3h-1v3h1v-2 1h1v-1 1h1l-1 1v-1 1h1v1h-2v1h-1v1h-1v-1l-1-1zm4 1zm1-2v1-1zm1-1v1-1zm-30 1zm31-1v-1 1zm-4-2h1l-1 1h1-1v-1zm-1 1h1-1zm2-3zm-3-4v1-1zm1-1v1-1zm3-6h1-1v1h-1 1v-1zm0 0v-1l1 1h-1zm1-2h1v1h-1v-1zm2-3h1v-1h1-1 1v-1 1l-1 1-1 1v-1zm-39 0h1-1zm47-6h1-1zm4-1v1h-1l1-1zm1 0zM415 154h1-1zM418 214v-1h1v-1l1-1v-12h-1v-1l1-1h1v-1h1v-1h1v-2h1v-2l1-1h1v1h2v1h1v1h1v1l1 1h1v1h2v1h1l1 1h1l1 1h1l1 1v5h-1v1h-1v1h-1v2l1 1h-1 1v1l1 1v1h1l-1 1h1v1h-1v1h-1v1l-1 1h-2v-2l-1-1h-3l-1-1h-1v-1h-4v-1l-1 1v1h-2l-1 1-1-1h-2zm2-17zM310 333v-1h2l1-1h1l1-1h1v-1h1l1-1 1 1h1v-2h1v-1h2v1h1l1-1v1-1h1l1-1h1v-2h2v-1h1l1 1v-1h2v1h7v2-1l-1 1-1 1v-1h-3v1h-2v-1 1h-2v1h-1l-1 1h2v1h2v1h1v-1h2v1h1v1l-1 1h-1v1h-1 1v2h-5v-1h-2v2l-1 1h-1l-1-1h-1l-1-1h-1v1h-6l-1-1-1 1v-1h-2v-1h-2v-1h-1zm26-9v1h-1 1v-1zm-2 1v-1 1zm3-1h1-1zM242 232h1l1 1v-1h1v1h-1v1h1v-1h1v3h1v2h1v3h-1v2h-8v-1h-1v1h-1v1h-1v-1h-1v1h-1v-3h-1l1-1v-3h2v-1h2v-2h-1l1-1h-1 1l1 1h1v-1h1v-1h1zm4 2v1-1zm-1-1h1-1zM7 195zm1-5zm7 0zm968 24h-1v-1h1l-1 1h1zm-933-2v-1 1zm0-1h1-1zm927-3h1-1zm-927 0zm0 0zm0-1h-1 1zm0-1v-1 1zm-4-5zm-1-2v1-1zm925-8v1-1zm3-4zm-12-16zM413 169l1 1v1-1h-1v-1zm-2 0l-1-1h1v1zm2-1h-1 1zM711 252h1-1zm0-1v1-1zM169 334v-1h1v-1h1v-4l1-1h1l1-1 1-1h1l1-1v-1h1v-1h-1v-1h-1v-1h-1v-1h4v-1h1v-1h2v1l1-1h2l-1 1h1v1l-1 1h-1 1v1l-1 1 1 1 1 1v-1h1v2l-1 1v1h-2v1h-1v1h-1v1h-1v1h-1l-1-1h-3v1h1v1h-3v2h-2v2h-1v-1l-1-1zm16-11z"/>
    <path d="M180 317v1h-1v1h-4v1l-1-2v-1l-1-1-1-1v-7h3v-1h2v-1l1 1v-2 1h1v-1h1v1-1l1 1h-1v1h1v1l-1 1v4h1v1h-2v-1 1h1v3zm0 0v-1h1v1h-1zm-12-1zm13-4v1-1zm-7-6l1 1h-1v-1zm2 1v-1h1v1h-1zm5-1h1v1h-1v-1zm-4 0zm4-1v1-1zm-1 0zm1-4v1h-2l1-1h1zM475 333l1-1h1v-1h1v2h1v2h-1v1h-1 1-1v1-1h-1v-1h-1v-1h-1l1-1zM401 291v-1h-1v-1h1l-1-1v-2h-1 3v1h1l1 1h1-1v2h-1v1h-2zm-1-2v2-2zM759 259h1-1zm1 0zm4-1h-1 1zM290 361h2v-3h3v-6h2v-1h1v1h3l1 1v-1h1v-3l1-1v-4 1h1v-1l1 1h1l1-1h3v-1h-1v-3l-1-1v-3h1-1l1-1v-2h1v1h2v1h2v1l1-1 1 1h6v-1h1l1 1h1l1 1h1l1-1v-2h2v1h5v-2h1v-1l1 1v-1h1v-1h2v-1h1v-1l1-1v-1h1v2h4v1l1 1v1h1v4h1v1h1v1h1v1h1v-1h8v1h1v1l1 1 1 1h1v1h1l1 1h1v1h1v1h3l1-1h2l1-1h1v-14h1l1-1v1l1 1v1l1 1h5v-1h1v-1 4h1v1-1h1v1l1 1v1h1v2l1 1h1v1h-3l1 1v1l-1 1h-5l1 1v2l-1 1v2h1v1h1l1-1h1v1h3v-1h2v-1h2v-1 1-1l1 1h1v1h-1v1h1v1l1 1v1h3v2h1v1h1l-1 1v1l-1 1h1v3h-1v2h-2v-1l-1-1h-2v1l1 1v1h-1v1h-1v1h-1v1h-2v1l-1 1h-1l-1-1h-1l-1 1h-1v-1h-3v-1h-1v-1h-1v-2h-1v2h-1v-1h-1v-1h-2v1l-1 1h-2l-1-1v1h-3v-1h-1v-1h-2l-1 1h-1v-1h-1l-1 1h-1v3h1l1 1h1v1h1l-1 1h-1l-1 1 1 1v1h-1v1h-3v1h3v1h-1v1h1v2h-1l-1-1-1 1h-3v1h-3l-1 1v-1l-1 1v-1l-1 1v1h-4l-1 1h-3v1h-1v1h-4v-1h-1v1h-1l-1-1v-4l-1-1-1 1h-2v-2 1h-3v-1l1-1v-1h-1v1h-2v-1 1h-1v1h-2v1h-1l-1 1h-1l-1 1v-2h1l-1-1-1-1-1-1h-1v-1l-1-1-1-2-1-1v-1l-1-1-1-2v-1l-1-1v-1l-1 1v1h-2v-1h-1v-1h-5v1h-1l-1-1v-1h-1v-1l-1-1h-1v-1l-1-1h-2v-1l-1 1-1 1v-2h-1v-1h-1zm104-17zm1-1v1-1zM249 266h-1v-1h-1v-1 1-2l-1-1h-1v-1h-1v1h-1l-1-1h1-1v-1h-1v-1l1-1h2-1 1v-1h-1l-1-1h-1l-1-1h1-1v-1h-1v-2h-1l-1-1v-1h-1v-1h-1v-1h-1v-1h1l-1-1h-1v-1h1v-2h4v-1h2v1h-1v4h1v1h1v3l1 1 1 1v1h2v1h1v-2h2v1h2v-1h1v-1h1v3l-1 1v2h3v1h-1v1h1v2h-1v1h-1v1h-1l1-1h-2v3h1-1v1-1l-1 1v-1zM435 301h1v-1h1v1l-1 1v1l-1 1v1h-1v1h-1v-1h1-1v-2h1-1 1v-1h1-1 1zM706 241h1v1h-1zM509 352h-1 1zM311 230h-1l-1-1-1-1v-1h-1v-1l-1-1v-4l1-1h2v-1l1 1h1v4l1 1v1-1h-1v5h-1v-1 1h1zm0 0zm0-2h1-1zM559 223v-2h1v-1h-2l-1-1h-1v-2h1v-3 1h2l2 1 1 1 1 1 1 1 1 1h1v1h1l1 1h-1v1h-1l-1 1v1l-1 1h-2v-3h-2v1h-1zM455 114h1v-1h1v-1 1h2v2l1 1h-1l-1 1v1h-1l-1 1h-1l-1-1-1-1v-1h1v-2zM461 391v-2h-1 1v-1h1v-1h1v-2h1v-1h-1v-1h1v1h1v-1h1l1-1h2l1 1h-1 1v1h1v1l1-1v2l-1 1h1v1h3v1h1v4l-1 1h-1v1h-1v-1h-7v1-1h-1v-1h-2v-1h-1v-1h-1zm16-2l-1 1v1-2h1zM518 365v-2h-1v-1h2v3h-1z"/>
    <path d="M459 400h-1v-1h-1v-1h1v-2h-1v-1l-1-1v-1h1v-1h1v-1h2v-1h1v1h1v1h1v1h2v1h1l1-1h1l1 1h6l1-1v-1 5l-1 1v1l-1 1-1 1h-1v-1l-1-1-1-1-1-1h-1l-1 1v4h-1l-1 1v-1l-1 1v-1h-1v-1h-1v-1h-3zM465 296v-1l1-1-1-1v-1h1v-4h-1v-29h3v-1h1l2 1 1 1 2 1h1l1 1 2 1h1l1 1 2 1 1 1h1l2 1 1 1h1l2 1 1 1 1-1 1-1h2l1-1 1 1v1h3l2 1v1l1 1 1 1h3v2l1 1 1 1v2h-1v10h1v2h-1l-1 1v4h-1l-1 1h-1v1h-1v3-1h-1l-1-1h-1l-1 1h-1l-1-1h-2v-1h-2l-1-1v-2h-1l-1-1h-3l-2-1h-1l-1-2h-3v1l-1 1v2l1 1-1 1-1 1v1h-3v1h-2l-1-1h-1v-1l-1-1h-4l-1-1zM542 307h-1v-1h-1 1v-1h-1v-6h-1v-1h-1 1v-1h5v-1h2v-3h1l1-1h1l1-1v-1h4v-1h2v-1h1l1-1h1v-1h1v-3h12l-1 1h-2l-1 1h-1v1l-2 1-1 1v1l-1 1-1 1 1 1v4l-1 1-1 1v1l-1 1v1h-1l-2 1-1 1h-1l-1 1-1 2-1 3-1 1h-1v-2h-1l-1-1-1 1h-1v-1h-1l-1 1v-1h-2zM515 338zM456 345l1 1h-1l1 1v1l-1 1v1l1 1v1h1v2h1v2h1v1h1-4l-1-1h-1l-1-1h-1v-1h1v-1h-1v-1h-1v-1l-1-1v-1h3v-2h1v-2h1zM396 168v-1l-1-1v-3l-1-1v-4h1v1h1v-4l1-1-1-1 1-1v-3l1-1v-2l1-1v-2l1-1v-2l1-1v-3l1-1v-2h1v-2h1v-1h3v-1h2l1 1h1l1 1v1l1 1v4h1v4h-1v1h-1v2l-1 1v5h1v4l-1 2v1h-2v1h-4v1h-1v1l-1-1v2h-1v-1 1h-1v1-1 4l-1-1v1h-2v3l-1 1v-1h-1zm4-3v1-1zm-5-10l1-1-1 1v1-1zM482 338v-1h-1v-1h-2v-1h-1 1v-1h2v-3l1 1v1h1l1 1h-1l1 1v1h-1v1h-1v1zM712 254h1-1zM67 234zm-5-11zm-7 0h-1 1zm-1 0v-1h-1 1v1zm5-4v1-1zM473 333l-1-1h-1v-3h1v-1h1v1l1-1h1l1-1h1v1h1v3h-1v1h-1l-1 1h-2zM524 257v-10h1v-1h5l1-1h4v-1 1h3v-1h2v-1h1v-1l1 1h1v-1h1v-1h1v-2l1 1h1v-1h1-1v-1h1v-2h2v-2l1-1v-1l1-1h1v1h1-1 1v-1h2v1h1v-1h1l1 1v1h1l-1 1 1 1v1l1 1h1l1-1h1v1h1v-1h1v1h1v-1l1 1h-1l1 1h-1v1h1v1h1v3h1v1h-1v2h-2l-1-1v1h-4v1-1h-11v2h-1l1 1v2l1 1v8l1 1v9l1 1v3h-6l-1-1h-1v-1l-1-1h-1l-1-1-1-1h-1l-1-1-1-1h-1l-1-1-1-1h-1l-1-1v-1h-2v-2h-1v-1h-2v-1h-3v-2h1l-1-1h-1l-1 1zM217 266zM252 264h1v-2h1v-1h2v-1h2v-1h3v-3l1-1h-1v-3h-1v-1h-1v-2h-1l1-1v-2h1v-1l-1-1v-1h-1v-1h-1v-4h-1v-3h1v-2h1v-2h1v2l-1 1v2h1-1v1h1l-1 1h1-1l1 1v2h1v1-1 3h1-1 1v4h1-1v2h1l1 1v1h1-1 1l-1-1h1v-1h1v-1 1-1h2v-1l1-1v1h1v-1 2-1h1v2-2h1v2l-1 1v3l1 1v3h1v-1h1v1h-1v1h1-1 1v1h1v-1 2l1-1v1l1 1v1h1v1h-2 1v2h-2v3h-1v2l1 1h-2l-1-1v2h-1v3h-1v2h-1l1 1v1h-2v1h-1v1h-2l-1-1v2h1-1v1h-1v2h-1v-1h-1v-2h-1l-1-1v-3l1-1v-1h1v-1h1v-2h1v-1h-1v-1h1l-1-1v1h-3v-3h-2v-1h1v-2h-2v-1h-1v-1h-1l-1 1v-1zm22-4v-1l1 1h-1zm-1-1v1-1zm-1-1h1-1zm0-2h1-1zm-10-7h-1 1zm8-1v1-1zm-1 0v-1h1v1h-1zm-10-8v-1h1v1h-1zm0-2v-1 1h1-1zm1 0v-1l1 1h-1zm0-1zm-1-1v1-1zm1 0v-1 1zm-1 0v-1 1zm1-1v1-1zm-1-1zm1 0v-1 1zm0-3v-1 1zM208 363l1-2v-1l1-1v-2h1v-2l-1-1v1h-3v-1h-1v1h-2v1-1h-2v-1h-1v-1h-1v-1h-1v-2h6v-1 1h1v-1h2v-1h1v-2h1v-1h4v-1h1v-1h1v-1h2v1h2v1h1l1-1v-1l1-1v-1h-1v-1h-1v-1h1v-1h2v-1h1v-1h1v-1h2v-1h9v-1h1l1-1h1v-1h2v1h4v1h3v1h1v1h10l1 1h3l1-1v1l1 1v1l1 1v1h1v1h1v1h2v1h1v1h5v1h3l1 1v2h-1v4h1v2h1v1h1v1h1v1h1v-1l1 1h1v1h1v1h1-1v1h1v2h-1v1h-3l-1 1v1h-1l-1 1h-1l-1 1h-1l-1 1h-1l-1 1v-1h-5v-2h-1v-1h-5l-1-1v1h-1v-1h-1v1h-2v3h1v3h-1v1l-1 1h-1v1h-2v-1h-3v-1h-2v-1 1h-1v-1h-1v-3h-1v-1h-1v-1h-5v1h-4v-1h-3v-1h-2v-1h-1v-1l-1-1h-4l-1-1v1h-1v-1h-1l-1 1h-2v1h-3v1h-1v1h-1l-1 1h-2l-1-1h-4v-1zM126 256h1-1zm0-2zm0-5h1-1zm0-3v-1h1l-1 1zm1-1zm1-2zM706 243h1v1h-1z"/>
    <path d="M549 275h5v-4l-1-1v-8l-1-1v-8l-1-1v-3h-1l1-1v-1h11v-1h5v1h1v-1h1v-2l1 1h1v1h1v1h1v1h1v1-1 1h1l1 1h3v-1h1l1 1v-1h1v-1 2l-1 1v2l-1 1v1h1v2l1 1h-1 1l-1 1v3h1l1 1v-1 2h-11v5h-1v1h-2v8h-9v4h-1v-1h-1l-1-1h-1v-1h-2v-1h-1v-1h-1l-1-1h-1v-1h-1zm32-16h1-1zM710 250zM495 311h1-1zm0-1v1-1zM374 144h1-1v1h-1v-1h1zM329 214v1-1zm0-2zM437 170h1l1-1v-3h-1v-1h-1v-1h-1v-1l-1-1v-5h1l1-1-1-1v-1h1v1l1 1v1h1v2l-1 1v1h1v1h2l1 1v1l1-1v1l1 1h-1v2l-1 1h-1 1v5h-1v1h1v2h1v1l-1-1h-3v-1l-1-1v-3h-1v-1zm1-1zm0 0zM808 278v-1l1-1v-1l1-2v-7l-1-1v-1 1l1 1-1-1v-2l-1-1-1-2-1-1v-1l-1-1v-1h-1 1-3l-1-1v-1h-1l-1 1h-3v1h-3v-1h-1v2-1l-1 1-1 1v1h-1v4h-1l-1 1h-4v1h-1v-1h-2 1-1v1l-1-1v-2h1v-1l1-1v-1h1l-1-1v1-3h1v-1h1l-1 1h1v-1h1v-1h2v-1h5v-1h1l-1-1-1-1v-1h-1v-1h4v-1h1v-3l1 1 1 1h1l1 1v1h1l1 1v-1h-1l2 1h1-1 1l1-1h1l1-1h2l1 1h2l1 1h1l1 1h2l1 1h1l1 1h2v1h1v1h4l1 1v1h1v1h2l1 1 1 1v1h1v1h-1v1h1-1v3h1v3h1l1 1v1l1 1h1v1l2 1h-1 1v1h1v1h1v1h1v1-1l1 1h-1 1l1 1h-1v2h2v1l1 1h1v2h1l1 1 1 1v1h1v1h1v2h1v2l1 1v2h1v1h3l1 1v-3h-1v-3l-1-1v-1h-1l-1-1v-1h-1v-1h-1v-2l-1-1v-1h-1v-1h-1v-1 1-1h-1v-3h-1v-2h-1v-3h-1v1l-1-1-1-1-1-1 1-1h1v-1 1l1 1v1h1l1 1 1 1h1v1-1 1h1v4l1 1h1l1 1v1-1h1l1 1h1v1h1v1h1v1h-2v-1 2l-1 1h1v1l1 1h1v1h1l1 1v2h1v1l1 1v1h1v2l1 1v1h-7 1l-2-1h-1l-1-1h-2l-1-1h-1l-2-1h-9v1h-5l-1-1h-1v-1l-1-1h-1v-1l-1-1v-1l-1-1-1-1h-1l-1-1v1h-1v1l-1 1h-3v-1h-1v-1h-1v-1l-1-1v-1h-1v-1l-1-1v-1h-1l1-1h-1v-2h-2l-1-1h-3zm49 18h1-1zm-4-8h1v1-1h-1zm-3-1h1v1h-1v-1zm17 0l1 1h-1v-1zm-8-3v1-1zm-12-6v-1h1l-1 1zm3-5v1h1l-1 1v1-3zm-4 2zm3-2h1-1zm-5-1v1-1zm-10-7v-1h1v1h-1zm-55-2v1-1zm0-2h1-1zm68-5zm-54 0h-1 1zM207 223h-1 1zm-2-9h1v1h5v-4h1v-1l1-1v-1h1v-1h2v-1h1v1h4v-1h3l1-1h1v1h1v1h1v1h-2l-1-1h-2 1v1h-1v2-1 1h-1v1h-3l-1 1-1 1-1 1v1h-1l1 1h-1v-1h-1v-1h-1v2l-1-1v2h-1v1h-1v2h-1l-1 1v1h-1 1v-1h-1v1h-1v-1h-1v-2h1-1l-1 1v-1h-1v-1h-2v-1h3v-1h-1v-1h2v-1zm44 6h-1v-1h-1v-1h-1l-1-2v-5l-1-1v-1l-1-1v-1h2l2 1 1 1h1v1h1l1 1v1l1 1 1 1v3l1 1v4-1h-2v-2h-3v1zm6 1v-1l1 1h-1zm-1-3zm-49-3v-1 1zm46-4zm-8-1v1-1zm-20 0v1-1z"/>
    <path d="M443 125h2v3h1v7h1v3h1v1h-1l-1 1v1h-1v1h-1 1l-1 1v1l-1 1v4h1l-1 1v6h3v1h1l1 1h2v2h1v1h-3l-1 1h-2l-1 1h-2l-1-1h-2v-1h-1v-1l1-1v-2h-1v-1l-1-1v-1h-1v1l1 1-1 1h-1v5l1 1v1h1v1h1v1h1v3l-1 1h-3v1l-1-1h-4l-1 1h-4v1h-2v1h-2 1l-1-1h1v-7h-1 1v-1h-1v-4l1-1v-1h1v-1h1v-1l1-1h2v-1h2l1-1h1v-1h1v-1l1-1v-1l1 1v-1h1v-1l1-1 1-1h1v1-3l-1-1v-1l-1-1v-2 1-6 1-2l1-1 1-1h2l1-1h1l1-1 1-1v-1h-1v-2zm-5 44zm0 0zM470 152h-1v1h-4v-1h1l1-1h1l1-1 1 1h5l1-1h1v-11h2v-20l1 1v-1h1v-1h5v1h1v2h1v-2h2l1 1v1l1 2h1v3l1 1v5l1 1v6l1 1v1h1l1 2v2h1l1 4h1l1 1v1l1 1v1h-1v1h-5v-1h-14v-1h-5v-1h-3l-1 1h-3zM86 148h1l-1 1v-1zm-11-3h-2l-1-1v-1h-1v-1h-1l-1-1h-1v-1h-1v-1h2v1h1v1h2v1h1v1h1v1h1v1zm-7-1v1-1zm-2-2v1h1-1v1h1-1v-2zm-2 0v-1 1zm1-4h1-1zM493 268v-5l-1-1v-1h-1v-4l1-1v-6l1-1 1-1 1-1 1-1 1-1v-1l1-1v-1l-1-1h1l1-1h1v-1h2l1 1h4v-1h1v-1h2l1 1h1l1 1h1l1-1h1l1 1 1 1h5l1-1v-2h1v-3h1v1h1v1h2v-1l1 1h-1v1h3v1h1v1h-1 1v1h1v2h1v2h-4l-1 1h-5v1h-1v10h-4l-1 1h-1v1h-1v1l-1 1h-1l-1 1h-1l-1 1-1 1-2 1-1 1-2 1-1 1-2 1-1 1-2-1h-3v-1l-1-1-1 1h-2zM64 118v-1 1-1 1z"/>
    <path d="M497 241l-1-1v-2h-1v-1h-1v-1h1l-1-1h1l1-1 1-1 1-1v-2l1-1v-1h1v-1h1v-2l1-1v-1l1-1v-1h1v1h1l1 1v-1h2v-1h1v-1h1v-1l1-1v-2h1v1-1h1l1-1v1h2-1v-1h1v1-1h3l1 1v2h1-1v1h1v-1 1l1 1 1 1h3-1 3v7h-1v1l-1 1-1 1v3l1 1h-1v3l-1 1v2h-2v1h-3l-1-1h-1v-1h-1v-1h-1v1h-3l-1-1h-3v1h-8l-1 1h-2zm18-26zM769 245v-1h1-1v-2h1v-5 1l1-1h-1v-1h1-1v-1h1v-2h-1l1-1v1h4l1 1v-1 1h1l1 1 1 1v1h1l1 1v1h-2v2h-2v1l-1-1v1h-1v1h-1v1h-4v1zM521 380h-1 1zm-2 0h1-1zm-1 0zm3-1h1-1zm-5 2h1-1zm8-10v-1l1 1h1v-1h-2v1zm-9 8h1v1h3l1-1v-1h2v-1l1-2v-1h1v-3h-1 1l1 1 1-1h-5v-1h-2v-1l1-1h-2l1 1-1 1v2h1v1h-3l1 1h-1v2h1-1v1h-1v2zm10-7h-1 1zm-3 6v1-1zM464 490h-2v-1h2v1zm-15-11v-2h1l1 1v-2h1l1-1v-1l1-1v2l-1 1v1l1 1 1 1h1v1l1 1h2v-1h2l1-1v-1h1v-6h1l1-1v-1h2v1h2l1-1h1l1 1h1v2h1v1l1 1h1v-2h3l-1-1v-1l1-1v-2h1l1 1h3v-2l1-1v-1l1 1h1v-1l1-1 1-2h1v-2h-1v-2h1l1-2 1-1v-2l1-1h2l-1-2v-1l1-1v-3l1-1v-1l1-2h-1v-3h3l1-1 1-2v-1l1-1-1-1v-9h-1v-1l-1-1 1-1 1-1-1-1v-4h1v-1h1v-1l1-1-1-1v-1l1-1v1h2v1h1v2-2l1-2h1v1h1-1v-1h1v-1h1v-1l1-2h2v-1h3v1-1h1v1l1 1h1v1h1v2h-1l-1-1v1h1v2h-1v1h-1 1l1-1h1v-1h1v3h-2l-1 1h1v1h-1v2h-1v-1 1h-1v1-1h2v-1h1v-1l1-1v-1h1v2h-2l1 1h1v1l-1 1v1-1h1v3h-5v-1 1h-2v1h1l-1 1h1v-2h1l1 1v-1h4v2h-1 1v1l1 1-1 1h-1l-1-1h-2v1-1h1l2 1h1v1h-1v1h-1v1l-1-1-1 1h1v1h-3l-1-1v1l-1 1h3v-1 2h-1l-1 1h-1l-1-1-1-1v1l1 1h1l-1 1h-1v1h1v1h-2v-1l-1 1h-1v-1h-3v2h-2l1 1-1 1h1l1-1h-1l1-1 1-1 1-1 1 1v1h1-1v1l-1 1v1l-1 1-1 1-1 1h-1v1l1-1v1l-1 1-2 1h-1v1h-1 1v-1h1v3l-1 2-1 1v-1 1l1 1h-3l-1 1h2v-1h1v3h-1v1h-2v1h1v1h-1v1h-4v1h3l-1 1v1h-1l-1-1v-1 1l-1 1h2v1h-1 2v1l-1 1h-1v1h-1v1h-1v-3 1l-1 1h1v2h-4v1h3v1h-2v1l-1 1v2h-1v1l-1 1v1-1l-1-1h-1v1h1v1h-1v2h-2v-3 3h-1v1h-1v-3l1-1v-1 1l-1 1h-1l1 1v2h-2v1h-1v-1h-1v-1 2l1 1v1h-2l-1 1h-1v-2l-1-1v2l-1 1-1 1-1 1v2l-1 1h-1v-1h-1v1-1h-1v-1l1-1v-1h1v-3l-1 1v1l-2 2v1l-1 2-1-1 1-1v-3l-1 1-1 1v2h-1 1v1l-1 1h-2v-2l1-1v-1l-1 1v-4 2l-1 1v2h-2v-1h-1v-1l-1 1v-2h-1l-1-1v-1l1-1h5l-3-1v-2h-1v1h-1v-1h-1zm21 9v-1l1-1v-1l1 1v-1h1v1h1-1l-1 1h-1l-1 1zm-2-2l1-1v2h-1v-1zm1-1v-1h1v-1h1v2h-1l-1 1v-1zm11-2l-1-1v-1h1v2zm1-2h-1l1-1v-1h1v-1h1v-1h2v1h-1v1h-1v2h-1v2h-1v-2zm-4 1v-1h1v1-1 2h-1v-1zm-26-3h1v1h-1v-1zm35-1v-1h-1v-3h2v-1h1v3h-1v1h-1v1zm5-9v1h-1v2h-1v-2h1v-1l1-1h2v-1l1 1v-1h1v1h-1l-1 1-1 1v3l-1 1v1h-1l1-1v-5zm2 3h-1v-2h3v1h-1v1h-1v1-1zm3-5v-1h2v-1 1l-1 1h-1zm3-3v2-2zm2-13v1h-1v-1h1zm-1-1h1l-1 1v-1zm2-2v1-1zm2-5h1v1h-1v-1zm8-8v1h-1l1-1zm1-2v1-1zm8-13h1v1l-1-1zm0-5h1v1h-1v-1zM288 283v-1l1-1-1-1v-1h7v1h2l1 1v1h5v1h3v1h1l1 1h1v1h2v1h-1v2l-1 1v1h-1v-1h-1v1h-2v-1h-1l-1-1h-1v-1h-1v-1 1h-2v-2h-2v-1 1h-1l1-1h-2v-1h-1v-1 1h-3v-1h-3zM67 201zM2 148zM20 67v-1 1-2h1v1h-1 1v1h-1zm-1-2l1-1v1h-1zm30 34l-1-1h-1v-1h-1v1-2h-1 1v-1h-1v-3h-2v-1 2l-1-1v-1l-1-1v-1 1-1h-1l-1-1h-2v1h-1v1h-1v-1h-1 1v-3h1v-2h2l1-1v-1h-1l1-1v-1h1v-2h1v-2h1l1-1h1v1h1v1l-1 1v3h1v1h2v1h1v1h-1l-1 1h-1v4h-1 1v2h-1l1 1h1v1h1-1v1l1 1v-1l2 3h-1 1v1h1-1l1 1v1h1-1l-1-1zm-6-5v1-1zm7-18h-1v1h-2v-1h1-1v1h-1 1v-1l-1 1v-1h1v-1h-1v-1l1-1 1-1v-1l1-1 1-1h1v-2h-1v-1l1 1v-1 1h1v-1 1h1l-1-1h1v-1h2v-3l1-1v-3h2v-1h1v-1l1-1h1l1 1v-1h1v1h1l1 1h3l-1 1h1-1 1v1h-1v2-1h-1v1h1l-1 1v-1 2l-1-1v1h-1v1l-1 1v1h-2v1h-2v1h-1v1h-1v1h-1v1h-1v-1 3h-1v1h-1v2h-1v2l-1 1h-1 1v-1h-1v-2zm-3 2l1-1v1h-1zm20-17zm0-2h1-1zm-3-5h-1 1-1v-1h2v1h-1l1 1h-1v-1zm5-16v-1 1h1-1v1-1zm-8-8h-1 1zM377 277h1v2h-1v-2zm0-1h1-1zm9-26h1v2h1v2h1v2l1 1h-2l-1 1h-2l-1 1h-2l-1 1v1l-1 1v3h-1v1h1v2h1-1v4h-2 1v3h-1v-1h-1v1-1l-1-1v-1h-1l-1-1h-3l-1-1v-1h-1v-1l-1-1h-1l1-1v-1l1-1h1v-1l1-1v-1h1v1-1h1v-4h2l1-1 1-2h2l1-1v-1l1-1h3l1-1h1zm-15 10v1h-1v1-1l1-1zM753 227v-1h-1v-1l1-1h-1 2v-1l1 1v2h-1l1 1v-1 1-1h1v1l1 1h2v-1l1-1h1v-1l-1-1h1v-1h1v1h1v1-1h1l1 1v1h3v-1 5l-1-1v1-1h-1v-1h-2v-1h-1l-1 1h-1l-1 1h-1v1h-2v-1h-2l-1-1h-1v-1zm13 2zm-9-3zm0 0zm7-3h1v1l-1-1zM732 191v-1h1v1h1v-1h3l1-1h1v-1h1v-1l1-1v-2h1v-1h1v-1h-1 1v-1h-1v-1h1-1v-1h-1v-2h-1l1-1h-3v-2h-3v1h-1v1h-1 1v-5 1h-1v-1l-1 1h-1l-1-1v-1l-1-1v-1l-1-1h1v-5l1-1v-4l-1-1v-1h1v-1h1v-3h1v-1h1l1 1h1v1h1v1l1 1h1v1h2v1h1l1 1h2v1h1l1 1 1 1 1 1h1v1l1 1h-1v2h1v1l1 1v1h1v2l1 1 1 1 1 2v1l1 1v2l1 1 1 1 1 2v1h1v1l2 1h1v1h-1v1h1v2h1v1l-1 1-1 1-1 1v-1h-1l1-1v-1h-2v-1h-1v-1h-1v1l-1 1v2h-1v1l-1 1h-1l-1 1h-1l-1 1h-1l-1 1v1l-1 1v3h1-3v-1h-1v-1l-1-1h-1v-2h-1v-1h-7l-1-1h-1v-1h1v-1l1-1h-1v-1h-1zM929 178h-1 1zm-2 0zm2-2v1h-1l1-1zm-3 0h-1v-1h1v1zm0-1zm-1-2v1h-1v-1h1zm17-15h1-1zm-7-1v1-1zm9 0zm16-1h1-1zm-22 0h1-1zm0 0zm22-1h1-1zm-4-2zm-2 0v-1l1 1h-1zm-23-1v1h-1l1-1zm0-1v1-1zm-11 0zm10 0h1-1zm-12-1zm6-7v1-1zM105 171l-1-1h1v1-1 1zm-3 0h1-1zm10 2zm-1 2v-1l1 1v1-1h-1zm2 2v-1h-1 1v1zm0-1h1v1h-1v-1zm-6 2h-1v-1h1v1zm25 1h1-1zm-21-1v1h1-1v-1zm21 1h1-1zm-12 8h1-1zm-22-3h2v1l1 1v2-1h-1v-1h-1v-1h-1v-1zm24 4h1-1zm-21 0h1v1h-1v-1zm25 2zm-17 1h-1v-2h1v-1h-1 1v-1h2v-1h2v-1h3v1h2v1h1v1l-1-1v1-1l-1 1v-1h-2v1h-1v1-2l-1 1v-1h-1v1h-1v1h-1v2h-1zm-5 0v1-1zm3 3zm2 1v-1 1zm0 0zm22-3h-2v-1h-1l-2-2v-2h-1l-2-1h-2v-1h-1v-1h3v-1l-1-1-1-1h-1v-1l-1-1v-1l-1-1-1 1v-1h-1 1v-1h-3l1-1h-1v-1h-2 1v-1h2v1h4l1 1v-1 1h1l1 1h1v1l1 1v1h1v1h1v1h3v1h1v-1h2v1l-1-1h1v-1h1-1 4v-1l-1 1v-1h-2v-1l1-1h6v19h-1v-1h-2l-1-1h-2v-1h-2l-1-1zm-25-2v-1 1h1v2l1 1h1v1h1l1 1h1v1-1h-2v-1h-1l-1-1-2-2v-1zm7 5h1v1h1-2v-1zm7 1h1v1h-1v-1zm3 1h-1 2-1zm-8 1l1 1h-1v-1zM193 262h1-1zm0-1zm1-3h1-1zm1-1zm-2-1v1-1zm3 0h-1l-1-1h-2v-1h1v-1l-1-1v-3h1v-1h1v-1l1-1-1-1v-2l-1-1h-1v1h-2v-1h-2v-1h1-1v-1l-1-1v-1h1v1h1v1h1v1h1v1h1v-1h-1v-1h1v1l1 1h2v-1h1v1h1v1l-1 1h1v1-1h1v1h1v4l-1-1v2l-1 1v1h1v1l-1 1v1l-1 1zm-3-11v-1 1h1-1zm0-3v1-1zm-7-1h1v1h-1v-1zm12 1v-1 1zm-5-1v-1l1 1h-1zm4 0h-1l-1-1v1-1h-1v-2h1v-1h1v2l1 1v1h1-1zm-8-2h1v1-1h-1zm-1-1h1-1zm5 0v-1 1zm-1 0zm-4-1l-1-1h1v1h1l1-1v1l-1 1h1-1l-1-1zm-4 1v-1h-1v-3h-1 2v1h1v2h1v1h1-3zm7-1l1 1h-1v-1zm7 0h1-1zm1-1h-1 1zm-7-1h-2v-1h1v-1h1l1-1v4h-1v-1zm-7 0v1-1zm1 0v1-1zm0 0h-1v-1h-1l1-1h-1v-2 1h1v-1 2l1 1v-1 2h1-1zm13 0zm7-9v2h-1v1h-1l-1 1-1 1-1 1v2h-1v1-3h-1 2v-1h1v-1l1-1 1-1 1-1h1v-1zm-18 8zm1-5v3h-1v2h-1v-2h1v-1l1-1v-1zm1-1l1 1 1 1v1h-1v1l-1 1v1h-1v-3h1v-1l-1-1 1-1zm1 4h1l-1 1v-1zm-4 1h-1 1zm12-1v1-1zm-16-1v1-1zm3-1h2v1h-2v-1zm-2 1zm-2-1v1h-1v-1h1zm0-1h-1v-3h-1l1-1h-1v-2l1-1v-2 1l1 1v1h1v-1h1l-1-1v-2l1-1v2-1h1l1 1h1v4h1v1h1v-1h2v1l1-1v-1l1-1v3h-2v1h-1v1h-2v-2 1h-1l-1 1h-1v1h-2v2l-1-1zm0 1zm6-1v-1h1v1h-1zm-3-1h1v1h-1v-1zm21-2zm1-1zm-17-1v-1h1v1h-1zm-8-2h1v1h-1v-1zm11-1h1-1v1l-1-1h1zm2-1v-1h1v1h-1zm3-3h1l-1 1v-1zM325 314v-1 1l-1-1h-1v-1h-1v-3h-1v1-1h-2v-1h-2 1l1-1 1-1h2v-1h3l1 1h2v-3h-1 1v-1h-1v-1h1v-1h-1v-1h-1v-1h-2v-1h1l1-1v-3h1l1-1v-2h2v-2l1-1h1v-1h1v-1l1-1v-1h3v1h1v-1h1v-1h1v-3h-1v-2h-1v-1l-1 1v-2l-1-1v-2h1v1h1v-1h5v-1h3v1h1v2h1v1l1 1h1-1 2v-1l1 1 1-1h2v1h1v-1l1 1v-1h6l-1 1v2h-1v1h-3v2h1v4l1-1v1h2v1h1v2l1 1 1 1-1-1h-3l-1-1-3 1-1-1h-1v1h-5v1h-1 1l-1 1v2l-1 1h-3v1h1-1v1h-2l-1-1v1h-1v3l-1 1h-1v1h-1l1 1v1h-3v3h-1v1h-1l1 1v2h1v1h-1l-1 1h-1v1h-6v1h-1zM480 384h-10v-2l-1-2v-1l-1-1v-2h1l1-1v-1h-1v-4l-1-1v-3h1v-1h1v-1h1v-1l1-1v-2h-1 2l1 1h1l1 1v-1 1l1-1h2v-1l1 1v1h1l1-1v1h1v2h3v1h1v1h1v-1h1v-1 1l1 1h-1v1h3v1h2l-1 1v1h1v4h1v1h-1l1 1v1h1l-1 1v4h1-2l-1 1h-3v1h-1v1h-1l-1 1h-4v-1l1 1-1-1v-1h-2zM693 351h1-1v1h1-1v-1zm0 0zM895 132h1zM721 255h-1v-1h4v1h-3zm-2-1zm7 0zM439 295v1-1zm-3 2v-2h2l-1 1v3h-1v-2zM584 300h-2v-1h1l1 1zm22 14zm1 3h-1 2-1zm7 2h2l-1 1-1-1zm2 0v1-1zm-3 1h2-2zm-2 0h1-1zm12 3v-1 1zm-65 9h-4v-1h-1v-1h1v-1h1v-5h2l-1-1v-1h-1v-1l1-1v-1l-1-1h1v-3l1-1h2l1 1v-1h1l-1 1v4h1v2h-1 1v-1h1v3h-1v1l-1 1v7h-1v1h-1v-1zM158 223v1h-1 1v-1zm9-12zM699 145l-1-1v-5h-5l-1-1v-2h-1v-3h-1v1h-2v-4l1-1v-4h1v-1h1v-1h2l1-1v1h6v1h-1v3h-1v1h-1v1l1 1h1v1h1l2 1 1 1h2l1 1h1v1h1l1 1 1 1v1h1v3l-1 1v2l-1 1v1l-1 1h-5l-2 1-1-1v-1h-1v-1zM392 273h1v4h-1v1h-1v-5zM379 141h1v2h-1v-1zM456 345v-1h-1v1l-1-1v1h-2v-2h1l1-1v1-1h1-1v-1h1v-3h1l1 1h1l1 1h2l1-1h1v-1h3l1 1v-1l1 1h3v1h1v2h1v-1l1 1h1l1 1h-1 1-1v1h1v1h1v1l1 1 1 1h-3v2h-1v2h-1v2h-1l-1 1v-1 1h-1v1h-1v-1h-4v-1h-1v1h-3v1h-1v1h-1v-1h-1v-2h-1v-2h-1v-1l-1-1v-1l1-1v-1l-1-1h1l-1-1z"/>
    <path d="M480 348h-1l-1-1-1-1v-1h-1v-1h-1v-1h1-1 1l-1-1h-1l-1-1v1h-1v-3h1v-1h-1v-1h-1v-2h1v-2h3l-1 1h1v1h1v1h1v1-1h1-1 1v-1h1v1h2v1h1v1h-1v1h-1v1h1l1 1v1h-1v1h1v1h-1l1 1v1l1 1h-2v1h-1zM383 600l1 1v3l-1-1v-3zm8-101v-5h-1v-1l-1 1h-4l1-1v-1h-1l-1-1-1-1h2v-2h1-1l-2-1h-2v-1h-1l-1 1v-1h-2v1l-1-1h-2v1l1 1 1 1 1 1 1 2 1 2v2l1 1v6l-1 1v1h-1v3l-1 1v1h3l1 1h1l1-1h3v-3h1v-1l1-1v-1h-1v-2l1-1v-1h1v-1l1 1v-1h1zm-3 98v-1h-1l-2 1h-1v1l1 1 1 1h1v-1h1v-1h1l-1-1zm-9 17l-1 1-1-1h-1v1l-1-1-1-1-1 1v3l-1 1h-1v1h2v2h1v-1l1 1 1-1v-2h1l1-2 1 1 1-1-1-1v-1zm4-7h-1v-1h-1l-1-1-1-1h-2l-1 1-2 1-1 1h1l2 2 1 1 1 1h2l2 2 1-3v-1l1-1v-1h-1zm-10 17h-1l-3 1v2l3-1 1-1v-1zm25-22h1v1h1l1-1h1v-1l2-3v-2h-1v1h-1v1l-1-1v-1l1-1h-2v1-1h-1v2l-1-1v2h1l-1 1v1h-2v2h-4v2l-2 1 1 1 1 3h3l1-1 1-1v-4l1-1zm-4 10v-1h-1v1h-1l1 1v1l1-1v-1zm4-135l1-1h1v-4l-1-1h-2l-1 1v1h-1v1-1h-1v1l1 1 2 2h1zm10 126l-1-1-1 1v-2h-1v1l-1 1h-1v1l-1 1v1h-1v-1l-2-1v3h2l1 1h1v-1l1-1h1l4-2v-1h-1zm-16-11h-1v1h1v2l1-1h1l1-1-1-1h-2zm3 3l-1 1v1h1l1-1-1-2v1zm-37 15l1-1 1-1v-1l-1-1v-1h-1l-4 1-1 1-1 2v4l1 1h2v-3l1-1h2zm21-15h-4v4l1 1v-1h2v-3l1-1zm1 2v2l1-1v-1h-1zm-10 19h-1v1l1 1 1-1v-1h-1zm2-4v1l2-2h1l-1-2h-1v-2l-1-1h-1l-1 1v3l1 1v1h1zm-3-8v-2l-1-1h-1l-1 1-1-1-1-1-1 2-1 1v1h-1v4h1l1 1v-1l2-1h1v1h2v-2l1-1v-1zm-1-125v-1h-1v1l-1-1v3h1v1h1v1h1v1h1v1-1h1v-3l-1-1h-2v-1zm-16 66h1l1-1v-1h3l2-1h3l1 1 1-1v-2h3v-1l1-1h2v-1l1-1 1-1v-1l1-1 1-1h2v-2l1-1v1h1l1-1v-1h-2v-1h1v-1l1-2v-1h-1v-1h2l1-3 1-1v-1h1v-1h1v-1h1l-1-1-1-1v-2l-1 1h-1l-1-1h-2v-1h-2v1l-1 1-1 1v2h1v1h-1v-1h-1v2l-2 2v3h-1v1h-1v2l-1-1v1h-1l-1 1v2h-1v1l-1 1v1h-2l-1 2-3 1-1 1h-1l-1 1-1 1h-2l-1 1-2 1-1 1h-1l-1 1-1 1h-1v1l-1 1-1 2v2l1 1v1l2 1h2l1-1 1-1 1-1v-1l1-1 1-1zm23 57v-5l-1-1-1-1v1l-1 1v2h-3v1h1l1 1h3l1 1zm-10 7l-1 1-1 1v1h2l2-1v-1h-1l-1-1zm-5 14v-1h-3l-1 1h1l2 1h2v-1h-1zm10-30h-1v-1l-1 1h-1l1 2 2-1v-1zm102-207l-1 1h1v1h3v1h1v-2h2l-1 1v1-1h1v-1h1v-1h1v-1h-5l-2-1h-1v2zm-86 105l1 1v1-1l1 1 1-1-1-1h-1v-2h-1l1 1h-1v1zM262 596h1l2-1h3v-1l1 1v-1h1l1-1v-3l1-1 1-1 1-2v-1h-2l-1-1v-1l-1-2v-1l-1-1h-1v1h-1v-2h-3l-1-1-1-1h-1v-1h-3l-2 1-1 2v2h1l1 1v2l-1-1v4h-1v6h1v1h1v1h2v-2l1-1v1l1-1v-1h1l-1 1v3h-1l1 1v1h1zm2-54l1 1 1-1h2l-1-1h-1l-1-1v2h-1zm0 1v-2l-1 1v1h1zm-9 45v-1h-1v1l1 1v-1zm7-41v-1 1zm-29 8h1v-1h-1v1zm21 18v-3l1-1 1-2v-2h1l-1-1-1-1v1l-2 1-1 1-1 1h-4l-1 1h-2l-1 1h-2l-1 2v4l1 1h1v2h1l1 1v1h1l1-1 1-1v-2h1l-1 4v2h-1v1l1 1 1 1 1-1v-1l-1-1h1v1l1 1v-2h1v-1l1-1v-5h2v-2zm-17-6l-1 1v1h1v-1h1v-1h-1zm36 24l-1 1 1 1h3l1 1h2l1-1v-1l-1-1-1-1-1-2h-1l-1 1h-1l-1 1v1zm19-65h-1v2l1-1v1l1-1v-1h-1zM129 360h1v2h1v2l1 2v1l1 3v3h1v2l-1 1v3l1 1v3l1 2v-1h1v-1h-1v-3h2v-4l1-1v-2l-1-1h1-1v-1l-1-1v-2h1v-1l-1-1v-3l1-1v-4l-1-1v-1l1-1v-8l-1 1v2l-1 1v-1h-2v-2 1h-1l1 1v1h1v2l1 1v3l-1 3v1h-1l-1 1-1-1h-1v-2h-1v1zm169 161v1l-1 1h1v-1h1-1v-1zm3-3v1h2v-1h-2zm-23 80l-1-1v-1l-3-1-1-1h-1l-1 1-1 1h-4l-3 1-1 1v1l1 3v2l-2 1v2l1 1 2 2v2h1v2h1v1l1 1 1-1 1-1v-1h1l1-1h1l1-1 1-1 1-1v-2h1l-1-1-1 1v-2l1-1 1-2h1v-1l1-1 1-1-1-1zm-41-32l-2-1h-2v2h1l2-1h1zm30-15h-2v1l-1 1v1l2-2h2v-1h-1zm16 62l-4-1-1 1 1 1h4v-1zm-129-81v2l-1 1 1 1v1h1v-5h-1zm-3-2l-1-1v-1h-1l-1-2-2-1-1-1h-1v3h-2v-1h-1v1h-3v1h-1v-1h-1v-1h-1l-1 1v1l1 1 1 3v1l1 2h-1l-1 1h-1v-2h1v-3l-1-1v-1h-2l-1-1-1 1-1 2v1l-1 1-1 1h1l4 3h3l1 1 1 2h1v1l1-1 1-1v-4h1v2h1l1 1 1 1 1 1v1h2l1-1v-1h1l1-1-1-1v-1l1 1v-5h1v-2zm-66-42h-1 1v1-1zm32 59l-1 1h2l1-1h-2zm6-19h-1l-1-1-1-1h-1l-2-1h-1l-1 1h-2v1l-1 3 1-1 1 1h1l2 1 1-1 1 1v1l2 1h1l1-1 1 1v1l1-1v-3l-1-1-1-1zm-17 12v1h1v-1h-1zm-72-52h-3v1h-5l-1 1h-1l-1 1v1h1l1 1 1 1h5v-1l1-1 1-1h1v-3zm49-14v-1h-1v-1 2l1 1v1h-1v2l1-1v-3zm-19 5l-1-1-2-1-1 1v2l3 1h1v-1h1l-1-1zm157 67l-1-1v-1h-1v2h1v1-1l1 1v-1zm-66-27v-1l-1-1-1-1v1l1 1 1 2v-1zm31-3v1-1zm-43-4v-1h-1l-1 1h-1l-1-1-1-1h-5v3l2 2 1 1h4v-1l1-1v-2h2zm56-4h-1v1h2l-1-1zm-58 9v-1l-1 1v1l-1 1 1 1h2v-3h-1zm163 1h-1l1 1v-1zm-155-24h2l-1-1h-1l-1 1h1zm136 59h-1v2h1v-2zM68 387v1h1v1h1v-1h-1v-1h-1v-1 1zm33-25v-1 2-1zm5-7zm-8 13v-2h2v-1h-2v1h-1v2h1zm-1 0v-1h-1v1h1zm209 163h-1v3-1h1l-1-1h1v1l1-1-1-1zM99 368v1-1zm9-16h1v-1h1-1l-1 1zm-5 8v-1 1zm23-22h-1 1zm-1 0v1-1zm0 4l1-1v-1h1v-1l-1 1-1 1h-1v1h1zm1-4zm-8 8l1-1h2v-1h1v-2h1v-1 1h-1v1h-1v1h-1l-1 1h-1v1zm-4 3l1-1v-1l1-1h-1v1h-1v1l-1 1h1zm9-10h1-1zm-10 70v-1l-1 1h1zm-39 0h1l1-1v-2h1v-1l-1 1-1 1h-1l-1 1v1h1zm248 178l-1-1h-1v-1l-2 1 3 2v-1 1h1v-1zm0-74l-1-1h-1l1 1h1zm1-1h-1v1h1l1-1h-1zm3-5v-1 2h-1 1v1h1v-2h-1zm-13 100l-2 1h-1v2h3v-1l1-1-1-1zm26-99h-2l-1 1h-2v1l1 1v1h4v-4zm-25-3h-2v2h1v1l2-2-1-1zM64 386h1v1-1l-1-1v1zm254 117h1v-1l1-1h-3l-1 1-1 1h1l1 1h1v-1zM151 388l1-1h-1l-1 1h1zm-3 0l1 1v-1h1v-1h-1v-1h-1v2zM2 452h1v1h1-1 1l1 2 1 1 1 1 1 1h3-2v-1h1l1 1v-1h1l-1 1 1 1h3v-1h-1v-1h-1v-1h1v-1l-1-1v-2h1l-1 2h1v-1h1v2h1v6h1v-1 3l5 3v1h2-1l1 1 1 1h1-1l-1-1v-1h1v2h2v1h-1 1v1h1v1h2v1h1l1 2h1v1h2l1 1 2 1h1l1 1 1 1h8v-1l1 1 1 1h4l1 1h1v-3l1-1-1-1-1-1v-1l-1-1v-1l2-2h2l1 1v1l1 1 1 1h1v2l1 1v1h1l2-2h3l4 1 1 1 1-1h1v1l1-1h2l1-1 1-1v-4l1-1v-2h1v1h-1v4l1 1v3l2 1h1v3l-1 1v1l1 1v1l1 1 2 2 2 1h8l2-1 2-1h3l2 1v2l1 1 1 1h1v-1h2v-1l-1 1v2h2v1h2v1l-1 1h-2v1h1v1l1 1h1l2 1h3l1-1 2-3v-1h1l2-1v2h-1l-1 1 1 1-1 1v-1h-1l1-1h-1l-1 1-1 1v1h1l4-1h3l-1 1-1 1h-1l-1-1h-2v1l1 1h2l2 1h2l1 1h5l1 1h2l-1-1v-1h-1l2-1h3v-1l1-1v-1h-3l1-1 1-1v-1h-1v-3h1v-1h1v1l1 1 1-1v1-1h1v-2h-1 1l1-1h-1v-1l1 1 1 1 1 1 2 1v1h2l1-1 1-1h3l1 1 1 1 1 1v1l1-1v-1l1-2v-2l1-1v-2h1v-1h1v2l1-1 1 1v1h1l1 3 1 1 1 1-1 1h-1l1 1v1-2h1l1 3 1 1 1 1v1l-1-1-1-1-1-1h-1l-1 1v1l1 1v1h2-1v1h-1v2h1v1l-1 1v1-1h1v2h1v1h1v1h1l2 1v-1l1-1h1v2-1h2l2 2 1 1 1-1h2v-4l-1-1h1v-2h1l1 1h1v-1h-1v-1h2v1h6l1 1 2 1 1 1v2h-1v1h4l2 1h4l1-1h3l1-1-1-1v-1h1v-4h1l-1-1-1-1h1l1 1v1l-1 1v4l1 1-1 1v1l1 2v1h1l-1-1 1-1 1-1h1l1 1 1 1v1l-1 1h2v-1h3v-1l1-1h-1l-1-1v1h-2l1-1 2-2h2v-1h2v-1h1l1-1h4v-2h1l1-1 1-1v1l-1 1-2 3-1 1-1 2h-1l-1 1h-1l-3 4h-1l-1 1v2h-1v1l-2 1-1 1-2 1v1l-3 2-1 3-1 2h1v1l1 1v-1l1 2 1 1h-1l-1-1-1-1v-1l-1 2v2h1v4h1v-2h1v4h2v-1 3h1l1 1 1 1h1l2-1 1 1h4v-1l1-1v-1h4v1h-1l-1 2v1l-1 1v1h2l1 1h1v-1h1v1h4v1h-2l-1 1-1 1-1 1v1l1 1h1l1 1 2 1 2-1h1l1-1 3-4 1-2v-1h1v-6h-2v-1l1 1h7v-1h-1l-1-2-1-1v-3l1-1v2h-1l1 1 1 1h1v1h1v-1h1l1-1v-1h2l1-1h1-1v1h1l1-1h1l-1 1v1l1 1h1l1-1 1 1v-1h4v-1 1l1-1v-1h-1v1l-1-1v1l-1-1-1 1v-1l2-1 3-1h2l1-1h1l2-1 2-1h1l1-1 1-1 2-2 2 1v-1l-1-1v-1l1-2h1v-1l1 2 1-1 1-1h-1l-1-1h-1v-1l-1-1h1v1h2v-2h-2v-1l-1-3h-1v-2l1-1h3v-3l-2-1v-1l1 1 1 1 1 1v1l-1 1h-1l-1 1-1 2h4l1-1 1-1 1 1 3-1h6l2-1v-1l1-1v-2l-1-1v-5l-1-1-1-1h-2v-1l-1-1-1-2h-1l-1-2v-2l1-1v-3l-1-2v-1l-1-1 1-1h1v-2h1v2l-1 2v2l1 1 1-1v-1l1-2v-1 3l-1 1 1 1v1h-1v2l-1 1-1 1v2h2l1-1 1 1h1l1 2 1 1h1l1 1 1 2h4l1-1v-1h1v-1h-2v-2h2l1 1h2l1-1-1-2v-1l-1-1h-1l-1-1h-2l-1-2v-1h-2 3l2 2h1v-1l1 1h2l1 1h1v2l-1 1 1 1v2l-1 2v3l1 1v2h2l-1-1v-6l1-1h1l1-1h1l1-4-1-1v-1l-1-1-1-4v-1l1-2v-1l1-3v-1l-1-1v-3h-3l-1 1h-2l-2-1-2-1v-1h-1v-4l-1-1h1l1-2v-2h-3l-1-1h3l1 1 1 1v6l1 1v1l1 1h1l1-1h2l1-1v-1l1-2-1-1v-4l2-2v-3l1-1 1-1 2-1v-2h6l1 1h2v2h1v1h-3v-1h-2 1v-1h-1v-1l-1 1-1 1v2l-1-1v1l-2 4-1 1h-1v4l-1 1v2l1 1h1v1l1 1v11h-1v5l1 2 1 1 1 1v1l-1 1-1 1v3l-1 2v3l1 1 1 1h1l1 1 2-1h3v1h1l1-3v-2l1-4v-1l1-2 1-1 1-1 1-1h1v-4h-1v-7h1v-4 1h-1l-1-1h-1l-1-1v-3h-1v-1h-1v1l-1-1 1-1v-2l1-1h1l1 1 1 1 1 1v1h2v1h2v1h1l1 1 1 1 1 1 3 1 2 1h2l2 1 1-1v-1h2l-1-2-1-2-1-1 1-1v-1h2v-3h2l1 1-1 1v2l1 1 2-1 2-2 1-1h1v1h3l1-1h1v-2h5v1h-2v1l1 1-1 1v1l-1 1h-1 2l1-1 3-1v-2h-1l1-1h1v1h2v-1h2l1-1 1-1 2-2h2l-1-1h2l1-1v-4h1v-1h3v-1 1h2v1l1 1 1 1v1l-1 2-2 1h-2v1l1 1 1 1 1 2h1l1 1 2-1h1l1 1h1l-3-2v-3l1-2v-3h1l-1-1h-1v-5l1-2v-1 1h1v1l1 1h3l1-1 1-1 1-1h1l1-1v-1l2-1v-2h-1v-2h-1v-2l1 1 1-1v-1l2 1 1 1h2l1 2h2v-1h1v-2h-1l-1-1v-1h-2v-3h1v-1h1l1 1 1 1h1v1l1 1h2l1 1v1h-1l1 1v3l1 1h-1v4l1 1h1l1 1h1-1v1h1v2h1l1 1v1h1v1h1-2l-1-1v-1h-1l-1-1h-1l-1-1h-1l-2-1-3-1h-1l-1-1h-1l-1-1h-2l-2 1-2 1-1 1-2 3-1 2h1v4h1v1h1l1 1v1h1l2 2h2l2 2 3 3 2 1 1 1h5l1-1v-1 2l-1 1h2v1-1l1 1h1v1h-2v1h1v1h2-1l1-1h1v-1l1 1h1v-2h1l1 1v-2h1l1-1v-1l1-1h1v-1h1-1v-5l-1-1h-1v-1l-1-2h-1v-1l1-1v-1l1-1 1-1v-1l-1-1v-1l-1-1v-2l-1-1v-2h1v-6h-1v-3l-1-1v-2l1-1-1-2h-1l-1-1v-1h-1v-3h1v-1l1-1 1-1v-1l1-1v-1h1v-1h1v-1l1-1h1v-1h1v-1l1-1h-2v-1 1-1l-1-1h-2v-1h-1v-1h1l2 1v-1h2v-1h1v-1l-1-1h1v-2h1v-6h-1 1v-1h1v-1h-1v-1h-1v-1h1v-1h-1v-2l-1-1v-1h-1v-1h-1v1l-1-1v-1h-1v1h-1l-1-1h-1v-1 1-3h-1l1-1v-1h-1v-2h-1v-1h-1v-1h-1l-1-1v-2h1v-1h1v1h1l1-1h-1v-3l-1-1h-1v1h-5v-2l-1-1h1l-1-1v-1h-2v-1h-1v-3h-3v-1l-1 1h-2v-1l-1-1h-1v1l-1-1h-2v-1h-2v-3h1-1v-1h1v-1h-1v-1h1-1l1-1v-1h3v-1h1v-2l-1 1v-1l-1 1h-1v-1h1l1-1h1-1v-1l1 1 1-1v-1h-1l-1-1h2v-1l1-1v-1h3v-1h-2v-1h-1v-1l-1 1-1-2h-1l-2-2h-1l-1-1h-3v-1h-5v-1h-1l-1-1h-1 1v-1h-1v1h-3l-1-1h-1v-2h-2v-1l-1 1v-1h-1v-1l-1-1h-1v1h-1v1h-1v1h1v2l1 1h1v4-1 2h1v1h1v2h-1v2h-1v2-1 1l-1-1v1h-1l-1 1v-1 1h-1v1h-1l1 1h1v1h-1v1h1v1l1 1v1h3v2h1v1h1l-1 1v1l-1 1h1v3h-1v2h-2v-1l-1-1h-2v1l1 1v1h-1v1h-1v1h-1l-1 1h-1v1l-1 1h-1l-1-1h-1l-1 1h-1v-1h-3v-1h-1v-1h-1v-2h-1v2h-1v-1h-1v-1h-2v1l-1 1h-2l-1-1v1h-3v-1h-1v-1h-2l-1 1h-1v-1h-1l-1 1h-1v3h1l1 1h1v1h1l-1 1h-1l-1 1 1 1v1h-1v1h-3v1h3v1h-1v1h1v2h-1l-1-1h-1v1h-3v1h-3l-1 1v-1l-1 1v-1l-1 1v1h-4l-1 1h-3v1h-1v1h-4v-1h-1v1h-1l-1-1v-4l-1-1-1 1h-2v-2 1h-3v-1l1-1v-1h-1v1h-2v-1 1h-1v1h-2v1h-1l-1 1h-1l-1 1v-2h1l-1-1-1-1-1-1h-1v-1l-1-1-1-2-1-1v-1l-1-1-1-2v-1l-1-1v-1l-1 1v1h-2v-1h-1v-1h-5v1h-1l-1-1v-1h-1v-1l-1-1h-1v-1l-1-1h-2v-1l-1 1-1 1v-2h-1v-1h-3v1h-2v1-1h-1v1h-1v1h-1v1h-2v1h-2v1h-1v1h-4v-1h-3v-2h-2v-1h-2v1h-1v-1 1-1h-3v-1h-1v1h-1l-1 1v3h1v2l-1 1v1h-1v1h-1v1h-1v-1h-2v-1h-3v-1h-3v-3h-1v-1l-1-1h-1l-1-1h-2v1h-3v1l-1-1h-3l-1-1-1-1h-2v-2h-3l-1-1h-4l-1 1h-4v1h-1v1h-1v1h-2v1h-2v-1h-1v-1h-2l-1 1v-1h-1l-1-1h-2v-1l-1 1-1 1h-1l-1 1-1 1h1v1h-1v2h-1v2l-1 1-1 1v3h1l1 1h-1l-1 1v1h-2l-1 1h-4v1h-1v-1 1l-1-1h-1l-1-1h-2l-1-1h-1v-2h-1v-2h-1v-3h-1v-2l-1-1v-2l-1-1h1v-1h-1v-1h-3v-1h-2v-1h-1l-1-1h-1v-2h-1v-1h1v-1h-1v-1h-5v1h-2v1h-1l-1 1h-1v-1h-1l1-1v-1h-1v-1h2v-4h1v-3h1v-1h1v-2h2v1h2v-1h1v-1h1v-1h-1v-6h1v-1h1v-2l-1 1 1 1h-2l-1 1v1h-1v-1l-1 1v-1h-1v-1h-3l-1 1-2 1v1h-1v1h-1v1l-1 1v1h-1l-1 1v1h-1v1l-1 1-1 1-1 2v1h-1v2h-1l-1 1v1l-1 2h-1v1l-1 1v1l-1 1h1v1h-1v9l-1 1v1h-1v2h-1 1v4h1-1v2h1l1 1 1 1v1l1 1h3v-2l1-1v-1 3-2h3-1v2h1-1v1h2v-1h-1v-1h2v2l-1 1v1h5v1l-1 1h-1l-1 1v1h-1l-1 1-1 1-1 1-1 2v1l-2 1-1 1v1h-1v1h-1l-1 1-1 1v2h-1v1l-1 1h-1v1l-1 1-1 1h-1l-1 1h-8v-1h-1l-1 1v1l-1-1h-6 1v1h-1v1h-3l-1-1h-3l-1-1h-1v-1h3v-2h-1l-1 1h-3v1h-6v2h3l-1 1v2l-2 2-1 1-1 1-1 1v1l-1 1v1h-1v1l-1 1h-4l-1 1h-1v-1h-1l-1 1-1-1 1-1v-1l1-1v-2h-1v1l-1-1 1-1v-1l-1 1h-1v1h-1l-3 3v1h-1v1l-1-1h-1v1h1v2l-1 1v2h-4l-1-1h-1 1v-1 1h1l1-1h1v-4h1v-1h-1v-1l1-1v-1l1-1h1l1-1h1l1-1v-1l1-1 1-1 1-1v-1h1v-1l2-1 1-2v-1h1v-1l1-1h1v-1h2l1-1h1v-3l1-1 1-2h1v-3l1-2v-4l-1-2v-3l-1-4v-3l-1-2v-4h-1l-1 1-1 1-1 1v1l-1 1v2l-1 1v1h1-2v1h-3l1 1-1 1h1v2h-1v1l-1 1h-1l-1 1v-1h-1l-1 1h-1l1 1v2h1v1l-1 1v2h-1l-1 1v1h-1v-1h1l-1-1h-1v3h1l1 1-1 1 1 1-1 1-1 1v1h2v1-1l1-1v1h1v2l-1 1-1 2-1 1v1l-1 1v3h-1v1h-1v-1l-1 1h-1v-1h-1v1l-1 1-1 1h-1v-3h-1l-1 2-1 1h-1v1h-5l-1-1v-2h-1l-1-1v3h-1v1l-2 1h-1v1h-1v1h-1v1h-1v1l-1 1-1 1v-1l-1 1h-2v1h-1v1h-1l-2 1-1 1h-1l-1 1h1v1h-1v-1h-2l-3-2v1h-1v1h-1v1h1v2l1 1v1l1 1v-1 1h1-1v2l1 1v2-1h1l1 1 1 1-1 1v1h1l1-1h1l1-1v1h-1l1 1h1l1-1h3l-2 1h-2l-1 1-1-1h-2v1h3l-1 1v-1l-1 1-1-1-1-1v-1h-2l-1-1v1l-1 1h-1l-1 1-1 1h-1v2l-1 1 1 1v1h1v2h-2v1-1h-1l-1 1v1-2h1v-3h-1v-2h-3l-1 1h-1l-2-1v-3h-1v-1h-2l-1-1h-1v-1l-1-1h-1v1h-1v-1h1l-1-1-1 1v1-1H9v1h1v2h1-2v1H8v1h1v1h1-1l-1 1h1v1l1 1H9v-1H8v-1l-1 1H6v-1H5v1l1 1v1-1H5v-1H4v2H3v1H1l1 1zm219 71v-2h1v-1h-1v-1l-2-1-1 1v1l-1 1v1h1l3 1zm128-36v-2 2zm-10-31h1v-1l-1-1v2zm8 20l-1 1h1v-1zM450 199h-1v-3h2l1-1 1-1v1h1v3h-2v1-1h-1v1h-1zM405 288h-1l-1-1h-1v-1h-3v-2h-1v-1h-1v-1h-1v-1h-1v-2h-1l1-1v-1h-1v-2h-1v-1h-2v-2h-1v-1h-1v-1l-1-1-1-1h-7v-2h-1v-1h1v-3l1-1v-1l1-1h2l1-1h2l1-1h3l1-1h6v-1h2v-1h1v-1h1v-2h2v1h10v-2h1v-1 1h1v1l1 1v1l1 1 1 1 1 1v1l1 1v1l1 1 1 1h1l1 1v1l1 1v5h1v2l1 1h1l1 1 1 1v2l1 1v1h1l1 2v1h1v1h1v1l1 1 1 1v-1 3l-1 2v-1h-3v1h-1v1h-2l-1 1v1h-1v1h1v1h1v1h1l-1 1h-3v1h-2v1l-1-1h-3l-1-1h-1v-1h-2l-1-1-1-1-1-1h-1l-1-1v-1l-1-1h-1l-1-1h-5zm28-11v1-1zm-1-1v1h1-1v-1zm-14-26h-1 1v1-1zM93 182h1l1 1 1 1h-1l-1-1v-1h-1zm5 1zm-11-4l1 1h1l1 1 1 1h-1v-1h-2v-1h-1v-1zm9 2v1-1h-1 1zm-2-1h1v1h-1v-1zm2 0v1-1zm-3 0h-1v-1h1v1h1l-1 1v-1zm-9 0v-2h-1v-2h-1 1v1h1v1l1 1h-1 1v1-1l-1 1zm3-1h1-1zm7-1v1-1zm-2 1v-1 1zm-1-1h1l-1 1v-1zm2 0h1-1zm-4-1v1-1zm-3 1l-1-1h1v1zm1-1l-1-1h-2v-1h3v2zm-5-1v-1 1l1 1h-1v-1zm0-2h-1v-1l-1 1v-2 1-1l1 1h1v1h1-1zm-13-1h1v-1 1h-1zm16-3h1v1l-1-1zm-18 0zM380 189v1zM447 266v-1h-15v-1l-1-1v-1 1-6l-1-1v-1h-1l-1-1h-1v-1h1v-1h2v-1h2v-4h1v-7h1v-2h2v-2h1v-3h1v-1 1h1v-2l1-1v-1 2l2 1v1l1 2h-1v2h2v-1h1v-2h-1v-1h1l1-1v-1h1l1-1h2l1 1h1v-1h1l1-1h1v-1h2v1h4l1 1v1h1v1l1-1h1v-1h1v-2h1v-1h2l1 1h-1v2l1 1v1h1v2h1v3h1v1h1v1l-1 1v2h-1v1h1l-1 1v1h-1v2h-3v12h-3v6h-17l-1 1zM468 450v-1l1 1h1v-1h1l1 1v-1 1h1v-2h1v-1h1v-3h1v-2l-1-1v-1l1-1 1-2v-1h1l1-1h1v-1h1v-1h2-1 1v-1h1v-1h-1 1v-1h1v1-3h2l-1-1v-2h1v-1l-1-1h1v1-7h-2l-1-1-1-1v-1h-1v-2h1v-1h1v-1h2l-1 1 1 1v-1h4-1l-1-1v1-1h-5 1v-1l1-1h1v-1h1l1-1h2-2v-1h1l-1-1h1v-7l1-1v-1l1-1v-1h4v-1h1v-1h-1v-1l1-1 1 1 1-1 1 1v2l1 1v1h-1 1v1h-1v1h1v1h1v2l1 1v2l1 1v2h1v4l-1-1-1 1v1l1 1-1 1v1h-1v1h-1v4l1 1-1 1-1 1 1 1v1h1v9l1 1-1 1v1l-1 2v1h-4v3h1l-1 2v1l-1 1v3l-1 1v1l1 2h-2l-1 1v2l-1 1-1 2h-1v2h1v2h-1l-1 2-1 1v1h-1l-1-1v1l-1 1v2h-3l-1-1h-1v2l-1 1v1l1 1h-2v-1h-1v-1h-1v-1h-1v-1h-1l-2-1v-1l-1-1v-1h-1v-3h1v-1h-1v-3l-1-1v-2l1-1v-2h-1v-2zm15-39zm1-3v1-1zm-2-6v1h-1l1-1zm0 0v-1h1v-1h-1 1v-1l1-1v-1 2h1-1l1 1h-1v1l-1 1h-1zm7-8v3h-1v2h-1 1v-2l1-3zM244 206h1-1zM576 181zm-25-23h1-1zM489 349h2v-1h1l-1-1h1v-1h1-1 1v-1h-1 2v1h1v-1h2v2h1l-1 1h1v1h-4v1h-3v1h-1v-1h-1v-1zM561 488v1l-2 1-1 1v-1l1-1h1l1-1zm-80 33h1v1h1l-1 1-1-1v-1zm-6 51h-1l-1-2v-3h-3v-2l1-1-1-1-1-1h-1l-1 1-1-1v-1l2-2v-2h1v-1h2v-1l1-1v4h1v-1h4v1l-1 1v2l-1 1v1l1 1v1l1 1v1l1 1v2l1 1h-1l-2 1h-1zm-15 1l1 1v1l-1-1v-1zm44-1v-1l-1 1v-1l-1-1v-2l-1-1h1v2h1v1h1l1 3v1l1 1v2l-1-1-1-1v-3zm-50 5h-2l1-1h4l-1 1v1h-2v-1zm34 15v1h-1l-1-1v-1l-1-1v-2l1-1v-3l-1 1-1 2h-1v-5h-1v-2l-1 1-1-1v-1h-1v1h-1l-1-1 1-1-1-1-1-1v-1h-1v-1h1v-1h4v-1l1-1 1-2v-4h1l1-1v-7h1l1-1v-2l1-1v-3l1-1v-3h1l1 1v1l2 2 1 2 1 1 1 1v1h1v3h-2v2l-4 1h-2v2l1-1h3l1-1h3l1 1v3h-1l-1-1v1l-2 1-1 1h-1v2h-3l-1 1h1v-1 1h1v3h-1 1l1-2h2l1 1-1 1v2l1-1v-1h1v1l1-1v-3h-1l1-1v-1h1l1-1h1l1 1v1h1v2l1 1 1 1v3h1l1 1-1 1-2-1v1h1v3l-1 1h2v-2h1v2l1 1v7h-1v-1 1l-1 1-2-2v2l-1-1-1 1h-3v-1l1-1h2l1-2h-2v-2h-1v-1l-1-1v4l-1 2-1 1-1-2v-2l-1-2-1-2v-2l-1-2v5l1 3v5l-1 1v2h-1l-1-2zm-44 3h3l-4 2h-2l3-2zm39 3h1v1h-1v-1zm-6 0l-1-1h-1v-1h-1l-1-2v1l-1 2v3l-1 1h-1v-2l1-2-1-1-1 1v1l-1 1v-1h-1v1-1h-2l-1-1h-1v-1h-3l-1-2v-3l3-3v-1h1v-3l2-1 1 1 1-1v-1l1-1h1l2 1 1 1-1 1h6v1h2l1 1v2h-2v1h-1l1 1h1l1-1h2l1 1 1 1v1l-1 1-1 1h2l1 1v1l-2 1-1-1-1-1v2l1 1v1h-1l-1-1v-1 4h-1l-1-1-1-2zM472 360v-1h1v-2h2v1h3v-1l1-1h3l1-1h4v1h1v3h-3v2h-1v1h-2v-1l-1 1h-1v-1l-1-1v1h-2l-1 1v-1 1l-1-1h-1l-1-1h-1zM564 227v-1h1v-2h2v-1l1-1v1h2v1h1l-1 1h1v-1 1h1v1h1v1h-1v-1 1h1l-1 1h1-1v1h-1v1h-1v1h-3v-1h-1v-1h-1l1-1h-1v-2 1h-1zm7-3h1-2 1zM500 339h1-1zM570 244v-1h-1v-3h-1v-1h-1v-1h1l-1-1h4l1 1v-1 1h7v-1h4l-1 1h1-1l1 1h-1 1-3v1h-6 2v1h7l-1 1h1v1l1 1h1-1l-1 1-1 2v1h-1v1h-3v1h-1v-1h-2v-1h-2v-2h-1v-1h-2v-1zM419 198l1 1v12h-1v1l-1 1v1h-3v1h-1v1h-5v1l-1 1h-1v1l-1 1h-1l-1 1v1h-1l-1 1-1 1v1h5l1 1h2v1h3v1h1v1h1v1h1v1l1 1-1 1v1h-1v1-1l-1-1h-1v-1h-4l-1 1h-1l-1-1-1 1h-1l-1 1h-6l-1 1h-1v1h-2v-4h-1v-1h1v1-1h1v-3l1-1v-1l1-1h1v-2l1-1v-1l1-1 1-2 1-2 1-1 1-2 2-2 2-2h1l2-2 2-1 1-1h1v-1l3-2v-1l1-1h1v-2h1zM687 217h1v-4h-1v-1l1-1h-1l1-1v-1h2v1-1h3v-1h-1 1v-1 1h2v2h1v2h1l1 1v3h-2v3h-4v-1 1h-5v-1z"/>
    <path d="M440 230v-4h2v-1h1v-1h-2l-1-1-1-1-1-1v-1l-1-1v-1h-1l1-1h1v-1l1-1h1v-1l1-1h4v-1h1v1h2l1-1h1v1h1v1h1v1h3l1-1 1 1h1v1l1 1v1l1 1h1v1h1l-1 1h1v1h1l1 1h1v2h2v1h1-1l1 1h-1v1h-1v2h-1v1h-1l-1 1v-1h-1v-1l-1-1h-4v-1h-2v1h-1l-1 1h-1v1h-1l-1-1h-2l-1 1h-1v1l-1 1h-1v1h1v2h-1v1h-2v-2h1l-1-2v-1l-2-1v-1zM515 207v1l-1-1h1zm2-4v1h-1l1-1zM786 243h-1v-1h-1v-1l-1 1v-1h-1v-2h1l1 1v-1l1 1h2l1 1v1h-1v1h-1zM713 254h-1v-1h1v1zM417 314v-1h1v-1h1l1-1v-1l-1-1h1v-4h1v-1h1l1-1h1l1-1h1l1-1 1-1h1v-1h2v-1h3l1 1v3h-1 1-1v1h-1 1-1v2h1-1v1h1v-1l1 1v4h-2v3h-1l-1-1h-1v1h-4v-1h-1v1h-2l-1 1h-5v1-1zM446 127h-1l1-1h-1v-1h1v-2h2v1h1v3h-1v1h-1l-1-1zM737 265h1l-1 1v-1zm0 0h-1 1zm1 0zM468 258v-11h3v-2h1v-1l1-1h-1v-1h1v-2l1-1v-1h-1v-1h-1v-3h-1v-1h3v-1h1-1v-1h1v-1h1l1-1v-1h5v-2l1-1h3v-1h2v-1l1 1h1l1-1h1v2l1 1v1h1l1 1 1 1v1h-4v1h1v5l1 1v1h1v1h1v1h1v1l1 1v1l-1 1v1l-1 1-1 1-1 1-1 1-1 1v6l-1 1v4h1v1l1 1v5l-1 1-1 1-1-1-2-1h-1l-1-1-2-1h-1l-1-1-2-1-1-1h-1l-2-1-1-1h-1l-2-1-1-1-2-1zM390 56v1-1zm-49-11l-1 1v-1h1l-1-1h-1v1h-2v-1h3v-1h-2l1-1v1h3v-1 5h-1l1-1h-1l1-1h-1zm0 0v1-1zM533 233v-2h-1v-2l-1-1v-8h-1 1l1-1v1h1v1h1v8h1-1 1v1h-1v1h1v1h1v1h-1l1 1-1-1h-1zM254 261v-1 1-1h-1v-1h1l-1-1h-1v1l-1-1v-2l1-1v-3h-1v1h-1v1h-3v-1 1h-1v1h-2l-1-1v-1h-1l-1-1v-4h-1l-1-1v-3h1v-1h7v-2h1v-3h-1v-2 1h1v1-1l1 1h1v1l1-1h1v3h2l1-1h-1l1-1v-3h1v-3l1-1v-3h-2v-2l-1-1v1-1l-1-2v-1h1v2-2h-1v-1h-3v-1l-1-1v-1h3v2h2v1-1l1 1h1v1h1v2h1v1h2v1l-1 1v2l-1 1v2h-1v2h-1v3h1v4h1v1h1v1l1 1v1h-1v2l-1 1h1v2h1v1h1v3h1l-1 1v3h-3l-1 1h-1v1h-2zm-6-25v1-1zm-1 0v-1h1v1h-1zm8-6zm0 0v-1 1zm4-2h1-1zm0-3h1v1h-1v-1zm0 0v1-1zm-2-1zm-1-3v1-1zM336 326v-1h3v1l1-1 1-1v1-2h-7v-1h-2v1l-1-1h-1v1h-1v-1l-1-1h1l-1-1h-2v-1h-1 1v-1h-1v-3h1l1 1v-1h2-1l1 1h1l1-1v-1h2v-1h1l1 1v5h2v-1h1v-2h3v-2 1h2l1-1h1v3h-1v4h1v1h1v1h-3v1h-1v1h1l-1 1h-1v-1 3h-1v-1l-1 1h-1v1l-1-1v-1l1-1h-2zm1 2v1-1zm0-4h1-1zM9 178zM183 180zm1-4v1h1-1v1l1-1v1h-1v1h-5v1-1h-1 1v-1h3v-1h1l1-1zm3 1h-1v-1h1v1zM349 315l1 1h1v-1h2l1-1v-2l1-1h2v-1h1v-1h1v-1h2v1h3v1h-1 1v3h3v1l1 1h1v1h2v1-1h1v1h2v1h2v1l1-1h3l1-1 1-1h1v-1h1v6l1 1h1v1h-1v2h2v-1 5-1h-2v-1h-2v1h-1v1l1 1h1v3h2v-1h1v-3 1h1v2h-1v1h-5l-1-1v-1l-1-1v-1l-1 1h-3v-1h-1v2l1 1h-1v1h-2v1h-1v-1h-1v1h1v1h-1l-1-1h-1v-1h-2v-1h-1v-1h1v-1h-1v-1h-3v1l-1-1-1-1v-1l-1-1v-2h-1l-1-1h-1v-1h-1v-1h-2v-1h-1l-1-1-1-1v1l-1-1h-2v-1h1v-2zm37 5l1 1v1h-1v-2zM503 301v-3h2v-1h1v-1h1v-4h1l1-1v3l1 1v2l1 1 1 1v1l1 1h1v4h-1v1h-1v7l-1 1-1 1h-3v-1h-1l1-1h-1v1h-2l1-1v-1h1v-2h-1v-1h-1v-1l1-1v-1h1l1-1v-2h-2v-1 1l-1-1v-1h-1zm1 5v1-1zm1-3h-1 1zM13 150h1-1zm4-8l-1 1v-1h1v1-1zm-1 0z"/>
    <path d="M457 332v-1h-1v-1l-2-1 1-1 1 1h1v-1l1 1v-1l1-1h1l1-1 1-1v1h-1l-1 1h2v1h-1v1h1l-1 1v1h1-1v1h-1l-1 1v-1h-2zm-38-2h-3v1h-1v-1h-1v-1h-1v-4h-2l-1-1h1v-1h1v-1h-1v-1h1-1v-4h-1v-2l1-1v1h5l1-1v1h1l1-1h3l1-1h4l1 1 1-1h4v-2h1v-1h1l-1 1h1v1h-1v2h1v-1h4l1-1 1-1h4v1h1v1h2l1 1 1-1v-2 1h1v-1h1l1 1h1v1h4-1v1h-1 3v1h-1 1v3h2l1 1h-1v1-1h-2 1v3h1-1v1h2v2l-1 1h-4l1 1h-1v-1h-3v1h1-2l-1 1h2v1h-7v1l-2 1h-1l-1 1h-6v-1h-3v-1l-1-1v1h-1v-1h-3v-1h-2l-1 1h-1l-1-1h-2l-1 1h-1l-1 1zm44-5v1l-1-1h1zM706 234l-1 1v-1h1zm1-3h2-1v2h-2 1v-2zM32 178l1 1h-1v-1zM196 268v-2h1v1h1v4l-1 2-1 1v1h-1v1h-1v-1h-1l1-1h-1v-1h1v-3l1-1v-1h1zm7 5zM424 181v-1 1h-1 1zm1 5l-1-1h1v2-1zm-1 3v-1 1zm25 11h-9l-1-1h-1l-1-1h-1l-1-1h-1v-1h-2v-1h-1l-1-1v-1h-1v-1h-1v-1h-2v-1h-1v-1h1v-4l-1-1-1-1h1v-5l-1-1v-2h-1v-1h-1v-1h1v-1h2v-1h4l1-1h4l1 1v-1h2v1h1v3l1 1v1h3l1 1v-1 1h3v1h1v1h2v2h1v2h1v1h1v1l1 1-1 1 1 1v2h-1l-1 1v1h-1v1h-1v2h1v1h-1v3h1v1h-1zM428 352h3v-1h2l1-1h1l1-1 1-1v1h-1l1 1v-1h1v-1l-1-1-1-1v-1h-2v1h-1v-2h3l1-1h2v-1h1v-1h1v1h1-1v2l1 1v-1 1h2l-1 1-1 1h-1v1h4v1h1v1h1-3 1l1 1v2-3h1v1-1h2v-1l1-1 1-1h1v-2h4v1h-1v2h-1v2h-1v-1 1l-1-1v1-1h-1v2h1v1h1l-1 1h1v1h1l-1 1 1 1h1v1l1-1v1h1v1h3l1-1h1v-1h2l1-1h1v1h6v1h1v3h-1v1-1h-1v1h1v2l-1 1-1 1-1 1h-1v3l1 1v2h-2v1h-6l-1-1h-2v-1h-1v1-1l-1 1v-1h-2v1l-1-1h-3v-1l-1 1h1v1h-1v1l-1 1h-3v1h-5v-2l-1-1h1l-1-1v-1h-2v-1h-1v-3h-3v-1l-1 1h-2v-1l-1-1h-1v1l-1-1h-2v-1h-2v-3h1-1v-1h1v-1h-1l1-1h-1l1-1v-1h3v-1h1v-2zm18-3l-1-1h1v1h1-1z"/>
    <path d="M440 200h9v-1h2v-1h1v1-1 5l-1 1v1l-1 1-1 1-1 1v1h1v3l-1 1h-2v-1h-1v1h-4l-1 1v-1h-1v-2l-1-1-1-1h1-1v-2h1v-1l1-1v-1h1v-4zM985 201zM20 203zM21 205zM1 250zM23 284zM68 257zM931 478v-63h-3l-1 1h-1v-2l-1-1-1-1v-1h-1l-1-1v-1h-1v-1h-1v1h-1l-1 1v1l-1 1h-1v1l-1-1-1-1v-2h-1v-1h-1v-1h-1v-1l-1-1-1-1v-1l-1-1v-1l-1-1v-2h-1v-1l-1-1h1-1v-1 1l-1-1h-1v-1h-1l-1-1h-1v-1l1-1v-1h-1v-1l1-1v-1h1v-1 1h1v2h-1 1v4h1l1-1v-1l1-1v2l-1 1v1h1v1h1v1l1 1v1h2v3l-1-1 1 1v1h-1 2v1h1v1l-1 1v1-1h1v-1l1 1h1v2h1v3h1l-1-1h1-1v-4h-1v-1h1l1 1h1v3-1 1h1-1v-1h1l1 1h1v-1h-2v-1l-1-1h1l1-1 1 1 1 1h1v1h1v1l1 1h1l1 1 1 1h1-1v2h-1v-2 2h-1 1l1 1 1-1 1-1h2l1 1v1h1v-1l1 1h6v1h2v2h-1 1l1-1h2v1h-1 2v1h1-1 1v2h-1 1l1-1h3l-1 2v-1h2v-1 1h-1l1-1v-1l-1-1h1l1-1-1 1h-1v-3h1v-1h1l1 1h1v-2 1h1v-1l1-1h1v-1h1v-1 1h1v-1h1l1 1-1 1h-1v1h-1 3l-1 1v1l-1 1v3h-1v1h-5 1l1 1h1-1v1l-1 1h-1 2v-1h2l1-1h1v-1h1v-1h1l1-1v-1l1-1h1-1v-2h1v-1h2v-1l1-1v-1h-1v-1h-1v-1l1-1 1-1v-1h1v-1h1l1-1h1v-1h1v-1h1v-1h1-1l1-1 1-1h1v-1h1l1-1h1v-2h1v-1h2v-1h1-1l1 1v-1h2v-1h2v-1h1v1h-1v1h1v-2h1v-1h1v1h1v-2l1 1v-1h1v1h-1v1-1l-1 1-1 1-1 1v1h-1l-1 1v-1h-1v-1 1h-1l-1-1v1h1v1l-1 1v1h-1l-2 1v1h-1v-1 2h-1v1h-1v1h-2 1v4h-1v2l-1 1v1l-1 1 1-1v-1h2l1-1h1v2h-1l1 1v-1h1v-3h1l1 2 1 1v-1l1 1h1l1-1h1v-1h2v1h-1v2h1v5l1 1v1l-1 1v1l1-1v-1l1-1-1-1h1l1-1h3v1h1l1 1v1h1v2l-1 1-1-1h-1l1-1-1 1h-1v-1h-1v1h1v1h4l-1 1h1v1h1v-1 1h1v2l1-1v1h-1v1h-1v1h1l-1 1v1l-1 1h-1v1h-1v1l1-1v2l-1 1v-1 2h-1l-1-1v-1 1h-2l-1 1-1 1v1h-1v-1h-2v1h-1v4l1 1h1l-1 1h-1v2l1 1 1-1 1-1h1l1-2 1 1v1l1-1h-1v-1l1 1h8v1h1v1h-1v1h1l1 1h-1v1h-1 1l2 1 2 1v1h-1l-1 1h-1v1h-1v1h-3l1 1-1 1h-1l-1 1h-3v-2h1v-1l-1-1h-2v1l-1-1h-2l-1 2h-1v-1 1l-1-1v1h1l1 1 1-1v1l1 2h1v1h-1v1-1l-1-1v-1l-1-1h-2l-1-1-1 1v1h1l1 1v-1h2l1 1-1 1v1h2v1l1-1h1l1 1h1v2l1 1 4 4h1l1 1v1h1-1v4h-5l-1 1h-1l-1 1v2h-1v3l-2 3-1 1v1-1h-1 1v-1h-1v1h-2l-1 1v1l-1 1h-1l1-1h-1l1-1h-1v-1 2h-1 1v1h1l-1 1-1 1h-1l1-1h-1v1h-3l-1 1-1 1-1 1-1 1v1h-1 1v-1l-2-1h-1v-1l1-1h1l-1-1h-1l-1 1v1h-1l-1-1h1v-1h-4l-1 1-1-1h-1v-2l-1-1-1 1v-1h1l-2-1v1h-3v-1 1h-3l-1-1-1-1-1 1v-1h-1l-2-1h-3l-1-1h-4l-1 1h-2l-1-1-1-1-2-1-1-1h-1zm71-26l-1 1 1-1zm-51-34v1-1zm11-2v1-1zm-12 0v-1 1zm-4 0h-1 1v-1h1v1h-1zm-3 0v-1 1zm59 0h-1v-1h-1v-2h2v-1 1h1l1 1h1v1h-2v1h-1zm-52-3v1h-1v1l-1 1v-1l1-1v-1h1zm1 1h1-1v1-1zm-10-1v1h-1l1-1zm46-7h1-1v1h-1l1-1zm-24-1h1v1h-1v-1zm0 0h-1v-1h1v-1h1v1-1h2l-1 1h-1v1h-1zm-50-1h-1v-1l-1-1v-1 1h1v1-2h-1v-2h1v-1h1v3l1 2v2-1h-1zm-1 0h1v1-1h-1zm4 0v-1h-2v-1h1v-1h-1v-1h1v1h1v-1h1v1l1 1 1 1h-1v1l-1-1v1h-1zm49-2h-2v-2h2-1v-1h2v-1h1v-1l1-1v1l-1 1h2-1v-1h1v2h1l-1 1v1h-1v-1h-1v-1 3h-1v-1 1h-1v1-1h-1 1zm0 0h1v1-1h-1zm-51-3v-1l-1-1v-3h1v2h1v3h1v-1h1-1l1 1h-1v1h-2v-1zm51-1h1v1l-1-1zm-55 0v-1l-1 1v-2 1h1v-1h-1v-1h2v3h-1zm1-1v-4h1v3h1v1h-2zm-3-2h1l-1 1v1-1l-1-1h1zm60 0h1l-1 1v-1zm2 0h-1v1-1h1zm-64-2v-1h1v1h1v1h-1v1l-1-1v-1zm2 1h1l-1 1v-1zm2 0h-1v-1l-1-1h-1v-2h-1 2-1v-1h-1v-3l1 1 1 1 1 1v2-1 1h2v1h-1v-1 1h-1v1h1v-1h1l-1 1v1zm-7-4v-1h1v1-1h1v-1 4h-2v-2zm69 2v-1 1zm-62-2h-1 1v-1 1h1-1zm76-1v-1h1v1l-1 1v-1zm-1 0h1-1zm-77-2v-1l1 1v1h1v1h-1v-1l-1-1zm76 1h1v-1 1l-1 1v-1zm-80 0v-1 1h1v1h-1v-1zm79 0v1-1zm0-1v1-1zm11 0v-1h-1 3v-1h2v1l-1 1h-1l-1 1h-1v-1zm-3 0zm1-2zm8-2v1-1zm1 0h1v1h-1v-1h-1 1zm2-1l-1 1v-1h1v-1h-1 1v-1h2v-1h1v1h-2v1h-1l1 1v1h-1v-1zm-1-1v1-1zm5-1l1-1v-1h1l1-1v1h-1v1h-1v1l-1 1-1-1h1zm-210-21h-1v-1h-1v-1h-2v-1h-2v1h-1v-1h-3l1-1h2v-1h1l1-1 1-1 1-1h-3v1h-1v-1l1-1h-1v1-1h-2v1h-2v1h-1l-1 1v-2h-1v1l-1-1h-1v-1h-4v1h-3v-1h-2v-1l-1-1h2v-1l1 1h4v-2h1v1h-1 2-1 1v-1l1-1v-1h1v-2 1h-1v-3h1v-7l-1-1v-1h-2v1h-1v2h-1v2l1 1v4l-1 1v2h-1v1-2h-1 1v1h-1v-1h1-1v2h-1v2h-1l-1-1h-1l-1-1h-1v-1h1l-1-1v-2h1v-1h1v-1l-1-1v1h-1v1h-1l-1-1v-5h1v-1h1v-1l1-1h-2v-1 1l-1-1h1-3v1h-2l-1 1h-1l-1 1h-1v1h-1l-1 1v2h-1l-1 1-1-1h-3v1h-2v2h1l-1 1h-1v1l-1 1h-1v1h-10v1h-2v1l-1 1v2h-1v2h-1v1l-1 1v1h-1v-1h-3v-7h-1v-1l-1-1v1-2h-1l1-1v1l1-1h1v-1l1 1h1v-1h1-1v1h1v-2h1v-1h1v1-1 1-1h2l-1-1h1v-1h1v-3l1-1h-1v-1h-1v-1h-1v1h1v1h-1v-2h1l1-1v1h1v-1 1h1v-1h3v-1h1v1-1h2v-1h1v1-2h1v-1h-1v-2 1l1-1v-2h1v-1h1v1h1v2h-1v1-1h1l1-1h-1v-2h-1v-3h1l1-2v-1h1l-1 1v3h2l-1 1h1v1h-1 1-1v1-1 1l-1 1h1-1 1v-1l1 1v-4l1 1-1-1v-1l1 1h1v2-2l-1-1h-1v-1h-1 1v-1l1 1v1h1-1v-1h-1v-1h-1v-1h1l1 1-1-1v-1h-1 1v1h2-1l-1-1h-1v-1h-1v-2l-1-1h1v3h1v-1h-1v-1h1v1-1h2v-1h-2v1-1h-1v-1h1v-1l1 1h2-1l-1-1v-1h1l1 1-1-1h-1v-1h3v-1h1v-2h3v-1l1-1v1-1h1v-1h1v-1h2-1v-1h1v1-2h1v-2h1v-4l-1-1v-1l-1-1-1-2h1v-1l-1-1 1 1v1-1 2-2l-1-3-1-1v-4 1l1-1v-1l1-1h1v2h1v1h1v2h1v1h1v1l1 1h-1v1-1h1v2l-1 1v1l1 1 1 1 1 1 1 1h1v-1h3v1h1v1-1l1 1h1-1 3-1 2v-1h1v2l1-1h3v-1h2v1h1v-1h-2v-1 1h-1v-1h1v-1l-1-1h-1 1v-1 1-1 1h1v1h1v-1h4-1v1h1-1 1l1 1h1v-1h2v1h3v1-1l2-1v1h1v-2l1-1h1v-1h2v1h1v-1h-1v-1h1v1-1h1v-1 1-1h1l-1-1 1-1h1v1-1h-1v-3l-1-1h3v1h3v2h1l-1 1h1v1l1 1v1h1v1l1 1v1h1v1h1v1h3l1-1v-1h1v-1l1 1h1l1 1 1 1v1l1 1v1h1l1 1v1h1l1 1h5v-1h9l2 1h1l1 1h2l1 1h1l2 1h-1 7l1 1h-1l1 1 1 1v1h2v1h2v1h4v3h1v1h1v1l1 1v1h1v1h-1v1h1l1 1v2-1h-1v1h1v1h-3 3v-1h1v1h1-1l1 1v1h1l1 1v3l1 1v3-1 6h1v3l-1 1v6l-1 2v4h-1v-1h-1l1 1h2v1h-1v1h1l-1 1h1v3h1v3-1h-2l-2-1v1-1h-1v1-2l1-1v-1l-1 1 1-1v1h-1v1h-1v1-1h1v-1h-1v-1h2v-1h-1l-1 1v3h-1 1v1-1 2h1-1v1h1v1h-78v2-1l-1-1v-1h-2v-1h-1l-1 1zm83 0v-1l1 1h-1zm1-1v1-1zm-1 0zm-1-1v-1 1h1v1h-1v-1h1-1zm-94-1v-1h1v1h-2v1-1h1zm94-2v1-1zm0-1v1-1zm-96 0v-1h1v1-1 1h-1v1h-1v-1h1zm97 0zm-91-1zm1 0zm0 0v-1 1h-1 1zm0-1zm-18-2v1-1zm-1 0h1-1zm-1-1h1-1zm3-1h-1 1zm2-1h1v1h-1v-1zm4-1zm1 0v-2h1v1h-1v1zm-3-1zm-50-3v1-1zm22 0zm-21 0zm21-1zm8-4zm-22-6h1v1h-1v-1zm1 0v1-1zm-3 0h1-1zm-1-1l1 1h-1v-1zm7-1l-1 1h-1l1-1h2l1-1h2v1h-4v1h-1 1v-1zm5-1h-1 1zm-1-3l1-1-1 1zm4-7v1h-1v1-1l1-1zm1-7zm-1-2h1-1v2-2zm1 0h1-1zm2-2l-1 1h1v-1zm0 0h1-1zm122-2h-1 1zm1 0zm-1 0v-1l1 1h-1zm-4-2l-1-1 1 1v-1 1zm3-1zm-3-1v1-1zm-104-6v-1 1zm19-3zm1 0zm2 0zm-1-1v1-1zm0 0zm-11-1v1h-1l1-1zm19 0h1-1zm9-1h-1 1zm5-3h-1 1zm1-1l-1 1v-1h1zm-48-2h1v2-1l-1-1zm49 0l-1 1v1-1l1-1zm-1-4v1l1 2v1-2l-1-1v-1zm-42 2v-1 1zm0-1v1-1zm-5-4h1-1v1-1zm1 0zm0-1zm1 0zm1 0zm0 0zm1-1v1-1zm218-7v-1 1h1-2 1zm2-1v1-1zm-7-1h2l-1 1-1-1zm-1-1h-2 2zm-2 0v-1l-1 1v-1h-1 2v1zm1-1v1-1h-1 1zm-4-5h1v4l-1-1h-1v-1h-1v-1h1l1-1zM685 102h1v-2h1v-1h1l2-1 1 1h1l1-1h1v1h1l1 1h2l1 1v3l-1 1 1 1v2l-1 1v4h-1v1h-2l-1-1h-1v-2h-1v1h-1v-1l-1-1h-2v-1l-1-1h-1v-2h-1v-1l1-1v-2h-1zM336 333h-1 1v-1h1l1-1v-1h-1v-1h-2v1h-1v-1h-2v-1h-2l1-1h1v-1h2v-1 1h4l-1 1v1l1 1v-1h1l1-1v1h1v-3 1h1l1-1h-1v-1h1v-1h3v-1h-1v-1h-1v-4h1v-2h4v2h-1v1h2l1 1v-1l1 1 1 1h1v1h2v1h1v1h1l1 1h1v2l1 1v1l1 1 1 1v-1h3v1h1v1h-1v1h1v1h2v1h1l1 1h1v-1h-1v-1h1v1h1v-1h2v-1h1l-1-1v-2h1v1h2v14h-1l-1 1h-2l-1 1h-3v-1h-1v-1h-1l-1-1h-1v-1h-1l-1-1-1-1v-1h-1v-1h-8v1h-1v-1h-1v-1h-1v-1h-1v-4h-1v-1l-1-1v-1h-4v-2h-1v1l-1 1v1h-1v1h-2v1h-1v1l-1-1v1h-1zm1-5v1-1zm-1-4v1h-1 1v-1zm-2 1v-1 1zM501 331zM707 240zm0-1v1-1zm1 0h-1 1zM704 227l-1-1h1v-1h1l1-1v-1h-1 1-1v-1h2v-2l1-1h-1l-1-1v-1h-1l1-1h1v-1h2l1-1h1l1-1h1v1h4v1-1l-1-1v-1l-1-1v-1h-2v-1h1l1-1v-1h2v-1h1l1-1 1 1v-1h2v1h1v2h1v2h1v1h1l-1 1h-1l1 1v1h1v4h-1v2h6v1l1 1h1v1h1l1-1h2l1 1v1h1v1h-1l1 1v1l1 1v1h1v-1 2h-1v3h-1v1h-1v1l-1 1h-1l1-1v-1h-1 1v-1h-1l1-1v-1l1-1h-1v-2h-2v3l1 1v2h-3v1h-2v1h1v-1 1h1v1h-2v-2h-3l-1-1v-2h-3l-1 1h-2v-1h-1v-1h-3l-1 1h-2 2v1h-7 1v-1h2-1v-1l-1-1v1-1 1h-1v-1h-1v1-1h-1l-1-1h1v-2h1l-1-1v1h-3zm11 7v-1 1h1-1zm3-1h1v1l-1-1zm-12-5v1-1zm1 0h-1 1zM716 256zm0-1zm1 0zM717 255h1-1zm0 0zm0-2h1-1zM232 264h2v-1h2v-2l1-1h1v-2h1-1l1-1v-1h-1v-1h-1v-2h-1v-1h-1v-1l-1-1h-1v-1h-1v-1h-1v-1h-1v-2h-1v-5l-1-1v-1l1 1v-3 1-2h1v-1h1l1-1h1l1-1h1v1-1h2l-1-1v-1l1 1h1-1l-1-1h1l1 1v-1h-1v-1l2-1h1v-1h1v3l-1 1h2v1h-1v1h-1v1h-1l-1-1h-1 1l-1 1h1v2h-2v1h-2v3l-1 1h1v4h-1v1h1v1h1v1h-1l1 1 1 1v-1 2h1v1h1l1 1v1h1v2h2v1h2v1h-1v1h-2v1h1v2h1v1l1-1h2l1 1v1h-1v1h2v1l1 1h-1v1h-1v-1h-1v1h-1l-1-1v1h-3v1l-1 1-1-1h-2v-1h-1v-2h-1v-1 1-1h-2v-1h-1zm1-1h1v1-1h-1zm1 0v-1 1zm1-1h1v1-1h-1zm0 0zm0-30zm8 0v-1l1 1h-1zm-7-5zM65 164h1-1zm0-1v-1l1 1h-1zm2-2v-1 1-1h-1v-1h2v3-1h-1zm-4-1v-1l1 1v1l-1-1zm1-1h1l-1 1v-1zm-1-1l1 1h-1v-1zm3 0v1-1zm0-1h-1l-1-1h2v2-1zm-3 0h1-1zm0-2l1 1h-1v-1zm0-2h-1v-1h1v1zm-3-4h1v1h-1l1-1h-1zm0-2v1-1zm-1-2zM19 165h1l-1 1v-1zm6-3v1-1zM9 165H8v-1h2v1H9zm-3-2h2v1H6v-1zM386 250l2-1h1v-2h1v-1h2l2-1h1l1-1h2v-1l1-1h3v-1h5v-1h1l1-1h1l1-1h1l1 1 1 1v3h1v3h1-1l1 1-1 1v2h-1v2h-10v-1h-2v2h-1v1h-1v1h-2v1h-6v1h-2l-1-1v-2h-1v-2h-1v-2h-1zm30-4zm-1-4h1-1zm0-1h1l-1 1v-1zm-30-3h-3 1l2-1v1h1-1v1-1zM409 166v1-1zM448 139v-1h-1v-3h-1v-7h2v-1h1v-2l-1-1h-2v1h-3v-1l1-1v-2l1-1v-1h1v-1l1-1 1-1v-1h1v-1l1-1v-1l1-1 1-1h1l1-1v-1l2-2 1-1 2-1v-1h4v-1h3v-1l2 1h5l1-1h1v-1h1v1h1v-1h1l1-1h1l1 1h1v1h1v1-1h1v3l1 1v1h-1v4l1 1 1 1 1 2v1l1 2v1l1 1v1h-1v1h-1v-2h-4l-1-1-1 1v1h-2v11h-1v-2h-1v-2l1-1-1-1h-3v1h-1l-1 1v1l-1 1v1h-2v-1h-2v-1h-3v1h-1v3h-2v1h-1v2h-1v1h-2v1l-1 1h-2v1h-6zm7-24h-1v1h-1v2h1v1h1v1-1h2l1-1v-1h1v-3h-1v-1h-2v2h-1zm-26-61h1v1l-1-1zM443 176v-1h-1v-1h-1v-1l1-1v-4h-1v-1h2v-3h1-1v-1h-1 1l1-1h2v-1h3l1-1h1v-1h-1v-1h3l1-1v-1h1l1-1h1l1-1v-1l1-1 1-1h1l1 1v-1h1v1h2v1h4v-1h1v1h1l1 1v1h1l1 1v10h-6v6-1h-1v-1h-1v1h-2v-2h-4v1h-1v-1h-1v-1h-1l-1-1h-1v-1l-1-1h-2v-1 4h1v-1l1 1h1v1h1v2l-1 1v4h1v1h-1l-1 1v1h-5v-1h-2v-1h-3v-1h-1z"/>
    <path d="M448 138l1 1 1-1 1 1h3v1h1l1 1h1v1h1v2h1v1h1l1 1 1 1 1 1v1l1 1v1h1v1h-2v-1h-1v1l-1-1h-1l-1 1-1 1v1l-1 1h-1l-1 1h-1v1l-1 1h-3v-1h-3l-1-1h-2v-1h-1v-6h1v-1h-1v-4h1v-1l1-1h-1v-1h1l1-1v-1h1z"/>
  </g>
</svg>
