<svg xmlns="http://www.w3.org/2000/svg" viewBox="0 0 454.2 449.7">
  <defs/>
  <path fill="currentColor" stroke="transparent" stroke-width="2" d="M-102-19s0 0 0 0c0 2-2 0-2 1v2h-4s-1-3-3-1l3 1-1 1h1l2 3-1-1-1 1-2-1 1 2-1-1-3-2c-1 2 4 1 4 4s-3 1-3 0c-2-1 1 2 1 3 1 1-1 0-1 1l-2 2c-1 1-1-3-2-3l-1 2 1 1v1c0 2-1 0-2 1-2 1 3 3-1 5 0 0 0 0 0 0V2h-2l-1-1-1-1-1-3v7c0 1-1-3-2-2 0 0 2 3 0 4l-1-2h-1s0 0 0 0l2 4h-3l1 2c0 2-2-1-1 1l1 2h-2l1 1h1l-3 1s4-1 3 1h-1l-1 2-1-1c-1 0-2 0-1 1h1v1l-1-1-1 1s-3-2-3 0l4 1h-1l1 1h-2-1c1 1 3-1 4 1 1 0 0 0 0 0h-2s0 0 0 0v1h1v2c0 1-3-2-5 0h2l3 1h-1l1 1h2s0 0 0 0c0 1-2 0-3 3h1l-1 1h1s0 0 0 0v1s0 0 0 0v1s0 0 0 0l1 1c-1 2 0 1 1 2l-1 2c1 1 2 0 1 2-1 1-2-2-3-1l1 2-1-1-2-3h-1l1 1-1-1s0 0 0 0l-6-5v-1l-1 1 2 2 2 2 2 1h-3l-1-3v1s0 0 0 0l-3-2c-1-1-1-3-3-3v1h-2v-2-3l1-1c-3-1-1 3-1 3v4l-3-1h-1c1 5 2 1 2 1v1h3l1 1 2 1 1 1h3l1 1 3 2v2c1 0 1 0 0 0l-1-4 2 2v1l1 1c1 2 0 2-1 3v1l-1 1-1 1-2-1s0-1 0 0v1l-1 1s0 0 0 0h4l2 3-2-1 1 4-1-1 1 2-1 1s0-1 0 0 2 2-2 3l-2-2v1s-1 0 0 0v3l-2-2v4l-1-1v-1-1 1h-1v1l-1-4v2l2 3c-1 1-1 2-2 1l-1-3 1 2-1 3v-1 1l-1 1-1-1h-1v1l-2-1h-1l-1-1h-1l-1-1h-1v-83h55v0h0zm-55 86l2 1 2 1 1 2v1c-1-1 0 1 0 0h-1s0 0 0 0l-2 1v-1l-1-2h-1 1l-1 1 1 1-1 2v-7h0zM85 99l-6-3 1-1v-1l1 2v-1l2 1c3-1-1-2 3-3l1 1-1-1h0-2 1v-1-1h-1l1-1-1-1c1-1 2-1 1-2h-1s0-1 0 0c0 0 0 0 0 0l-2-2h-1s0 0 0 0 0 0 0 0c-1-1-6-1-2-2 1-1 1 0 2 1l2-1v2l1-1h2l-1 1h1c0-1 6 3 4 0h-2l-1-2s0 0 0 0l3-1h2l-3-1 2-1c0-4-3 0-3 0v-2l-1 1v-1h-1s1 0 0 0v1l-1-1h-3l1-1-2-1c0-4 2 1 3 1 1-1-2-3 0-3s1 5 3 3l-1-1h2l-2-1-1-2c0-2 2 3 3 2 0 0-3-2-2-3l2 1s-2-3 1-2c2 1 0 4 2 6l1-2v-1l-1-2c1-1 2 0 3 1l-1-1s0 0 0 0 0 0 0 0c-1 0-1 2-2-1s1-1 1-1h1s-1 0 0 0v1h1v2h1v1s0 0 0 0l1 1-1 2h1l-1 1s4 2 0 2l-2-1v1l1 2-1 1 1 1-1 1v2c2 0 2-4 3-4 3-2 1 0 1 1-1 2 2-1 2-1l1-4c3 0 1 4 3 5v-2l1-1h1s0 0 0 0h2l1 1v6c1 3 1-6 2-6 2-1 1 3 1 4l1-1s0 0 0 0v0l3-2 1 3v-1c1-1 1 1 1 1v-1l1-1v-1-1h2c2 0 0 1 0 2h1c1 1-2 2 1 3v-1h1c1 0 2-2 3 0h-1l-3 2h1l-1 1h2c1 1-2 3-2 3h1l1 1s0 0 0 0v1s0 0 0 0l-2 1c1 1 2-1 2-1l1 1h1v3l-2 1-1 1c1 0 5 0 2 2-1 1-3-1-3-1-1-1 3 1 2 2h-2 1v1l-3 1v0h-2v2h-1l-2 1-1-3-1 2s0 0 0 0 0 0 0 0h-3l-3 2h-1l-1-1-1 1-1-1h-3c-1-1-1 1-2 2h-4l-4-4c-1-1-2 0-2-2l-1-1 2-2-2 2 1-2h-1l-1-1-1-1zm245 166v-2h2v1l3-4 2-1 3-1h3l3-1h8v1h1s0 0 0 0h2c3-1 0 0 1 1h1v-2h2l1-1s-2 1 1 1c0 0 0-2 1-1l2 2v-2c0-1 1-2 2-1l2 2c1 0 0-2 2-2h1c3 0-2-1 2-1 2 0 1 3 3 2 2 0-1-3-1-4v-3l2-3h1l1-1 3-1-1-1-1-1s0 0 0 0l-1-2s0 0 0 0l-1-2s0 0 0 0c1-1-2-2-3-3v-2h6l1-3s0 0 0 0l1-1v-2h-2l-1-2h-3l-1 1-1-3-3-1c-2-1-1-2-3-2v-2l-3-1 1-3c-1 0 0 0 0 0l-2-3v-3h-2l-2-1h-2-2l-1 3c-2 0-2-3-2-3-2-1-2 0-4 1l-1-1c-1-1-1 2-3 0l-2 2v3h-2s0 0 0 0h-1c-2 0-2 2-3 3v3l2 1h-1v1l-2 1v2c-2 2-1-1-2 2 0 0 0 0 0 0v6s2 0 1 1l-1 1v-1h-2c-1 1 1 1-1 2h-2l1 2h-2l-1 1h-2s-3 2-4 1c2 4 6 8 6 13 0 0 0 0 0 0-1 1-6 6-4 7l1-1 2 1c2 2 0 4 0 6l1 1h0zm175 192l-8-5h-1l-1-1 4-3c3-2 14-10 14-13s-2 1-2 0l-2-1 1-1-6-8-4 5-9 13h-8l-2-1c-2-1-2 3-3 0h0v1s0 0 0 0v1l1 2s0 0 0 0l-1 1 1-1 2 10h0v1h24zm81-190v9s0 0 0 0l-3-3h-1l-1-2h-2l-2 3-1 1v5h1l1 3 2 3-2-3h-2-1v-2h-2l2-6c0-2 4-7 6-8h5zm0-20l-3-6-7-8 3-4 7-11v-1 30h0zm0 49s0 0 0 0v1h0l-1-1-1-1-1-1-1-5-1-2v-1l2 1 2-1v-1l1 1v-2s0 0 0 0v12h0z"/>
  <path fill="currentColor" stroke="transparent" stroke-width="2" d="M586 71l-2 2 1 1c-1 2-2-1-2 1v2l-2-1v-1l-2-2c-1-1 1-1-1-1h-3l-1-2h-3l-1 3 1 1-4 1c-5 3 1 0-2 2h-1l-1 1 1 1h-1s0 0 0 0c-1 1 1 2 1 2l-2 2 1 1 1 1-1 2c0 3-1 1-2 3l1 1-3 4-1 3v1l-1-1v2l-1 1s0 0 0 0l-1 2 2 2h-2l-1 2s0 0 0 0l-2 4s2 0 0 1h-1l-1 3s0 0 0 0l-1 1s1 0 0 0c0 1-2 2-1 4l1 1h-2v-1l-2 2 1 1-1 1-1-1v2l-2-1c-2 1 0 3 0 3-1 0 0-2-1 0 0 2 2 0 2 1v1l1 1-1 1 3-2h-1c1-1 2-2 2 0v1h-1l1 2c1 1 2-1 2-2h4c1 2 0 2-1 2l-1 1h-1l-1 2-1 1h1v4h1l1 1 1-1 1 1v4l-1 1v2c-1 1-2 1-1 2l3-1c1-1 0 2 1 1l3-2 2 1c2-1 0-2 4-1h1l-1 1 3 4-5 6h-3c-1 0 3 4 0 6-1 2 1-3-1-1l-3 2h-2-1v-1 1h-1l-1-2-1 1-1-1v2l-2 1c-1 1 1 2 1 2l-1 1v1l-3-1-1 1-2 2h-1v3h-1l1 2-1 4h-2s0 0 0 0c-1 1-7-2-7 0v1h1l2 3-2 1v-2-1h-3l-3-1-2 1c-2 0 0-2-3-1-1 0-4 4-5 3l-3-2v2l-1 1v3h-1l-2 1v-1c-2-1-1 0-3 1h-1l1 1c-1 3-1-1-1 0v5l-2 2v2l-2 1c-1 2 1 2 1 3v1h-1v3l-2 1s0 0 0 0l4 3v1c1 1 1-1 1 1v1c-2 5-3 2-6 1l-4-1-1 3 1 1-1 4 2 6h3l-1 4 1 4v2l5-1 1 2s0-1 0 0v1s0 0 0 0l1 1c1 0 0 0 0 0v1h3l-1-2h2l3-2 8 5 3 1c1 1 0 2-1 3 0 0-1-2-2 0 0 2 5 1 7 1l-1-3h3l2-3v-2h1v-2c0-1 0 0 0 0l1-1v-1h1l1-4h5l1-1v1l2-1 1-3h1c1-1 2-3 3-2l1 1 2 1h-1v2h1s0 0 0 0c2 1 3 3 3 5v6l5-1c-1 2-4 3-5 3l-3 3h-2l-1 2-1 1c-1 3 1 1 1 3h-1l-1 2c0 2 3 1 3 1l2 1s0 0 0 0h1l-1 1v1h-3c-2 0 0 0-1 1s-4 0-3 2c1 5 4 0 6 1l1 2 6 4 2 3 3-2s0 0 0 0l2 1 1 1 2-2 1 1s1-3 3-2l1 2-2-1 1 1c1 0 2 1 2 3v2h-1l3 2v2l2-6c0-2 4-7 6-8h5v-20l-4-6-6-8 3-4 7-11V71h0zm-308 2h0m1 0s0 0 0 0m14 15h0m0 0h0m23-33v3h-2c1 1-2 3-3 4 0 0 2 4 0 4-3-2 1-4 0-6-2-3-5-2-7-4h0s0 0 0 0v-1 1c-2 0-2 2-3 2-1 1-1-1-2 1v1l-1 2v5l1 2c0 3-1 1-2 2v4l-2-1-3-1-1 1c-1 2-2 1-4 1h-1l-1-1-3-4c-4-2-2 3-2 3l-2-1v1s0 0 0 0h0-2l1 1 1 2-2 3c0 1 3 0 1 2-1 1-7-2-8-1v7l-3-2-2 4-1 3c-1 1-2 0-1 1 0 2 2 2 1 5l-4 6 1 2-2 2h-2l1 4-1 2v4s0 0 0 0l-3 7c0 2 3 1 3 5-1 4-3 0-7 3-1 0-3 3-3 5v1l-1 2c0 11 1-7 1 3v1 4l1 3-1 6 5 4-1 4-3 1c1 4 3 3 2 8v2l-4 3h1v1l-1 2v7h-2s0 0 0 0v-2c-2-3-1 2-4-1l1-1h-1v-2s0 0 0 0l-1-3v-1c-2 0 2 2 0 4l-1-1v-1l-1-1 1 2v1l1 3s0 0 0 0h-1v2l-1-1c-1 1 2 2-2 2v-1l-2-1 1 2-2 1 1 1h-2v1c0 4-1-1-1 1 0 0 0 0 0 0l-3 4s0 0 0 0l-2 1-1-1-1 2h-1s0 0 0 0h-2l-2 1 1-2-1 1h-2c-2-1 1-2 1-3h-1v1l-2-1-2-2h-1l-2-4 1-1v-2l1 2 1-1s0 0 0 0v-1l2-1h-1l1-1 2-1h-3c0 1 0 1 0 0l1-2h-2l-2 3v-2l-1-1v1s0 0 0 0v-1h-1 2l1-2 1 1v-1s0 1 0 0c1 0 0 0 0 0l3-2c-3 0-1 3-4 0h1v-1h1s0 0 0 0l1-1 1-1h-1v-1s0-1 0 0l-1 1-1 2v-1l-1-2 1-2c-1 0-1 4-2 2l-1-2h3v-1l-1-1 1-1h-1s0 0 0 0h-1 1l-1 1-1-1-1-2 2 1s0 0 0 0l1-1v-1l-2 1v-3l2 1s2-2 4-1l1 1c1 1 0-1 2-1 2-1-1 3 2 3 2 0 0-1 0-3 0-1 4 2 3-1h-1l-1-1s3-1 2-2c-2-1-2 3-2 4h-2s0 0 0 0l-2-1h0v1l-4-1s0 0 0 0l-3 1-1-2 1-1h-1c-2 0 0-1 1-1h3c1-1-3 0-3-1h1l-1-1c-2-1 0-3 2-3l2 1v0l2 1-1-1h4l-1-1c-3 0 2 1-1 1l-4-1h-3l2-1-2-2h1l1 1v-1l2 1v-1 2l1-2v1l2 1-2-1v-2l2-1v1l1 1v0c0-1-2-2 1-3l1 3v-1h0v-2l-4-1 1-1h1v1c1 0 2-2 3-1v0l2 2 1-1h-1l1-2-2 1c-5 0 0-1 0-2l-2-1c-1-1 0-1 2-1l1 1h2v-1l1-1v1l1 1v1h2l-1-1 1-1h-1 1l-1 1-1-2s0 0 0 0c1 0 0-1 0 0 0 0 4 1 4-1-1-3-3 3-3-1l3-2v2l1-1h0l1-1 2-2v2h1l-1 2 1-1 1 1-1-2 4 1 1-2h-1c0-2 3-2 3-3 0 0-2 0-1-1l2-1c0-3-3 1-4 1l-1 1 2 1s0 0 0 0l-2 1-3 2v-1l-1-1 2-1h-1s0-1 0 0l-2 1c-1-1 0-2 1-2l2-1h-1s0 0 0 0v-2h1s0 0 0 0v-1h1v-1l1-1-1-1 2 1-1-1 2-2 2 2h1l-1-1 2-1c0-1-3 2-2-1v-1l-1 1 2-2s0 0 0 0v0l-1-1h4v-1c1-1 3 0 3-3l-1 1h-2c0-1 3-1 2-3h-1v1l-1 1-1 1 1-3v-1l2-1s0 0 0 0l-1-1 1-2 2 1-1-1v-2l-2 1c-1-2 2-1 2-1l2-2 2 1-1-1v0s0 0 0 0h-1l-2 1c-3 0 2-1 2-1s0 0 0 0h-2l-1-3c1-3 2-1 4-2s-1-2-1-2h1c0-1-2-2 1-1h-1c0 2 1 0 1 0v-1 1l2-1-1-1 3-1v0h1-1l1-1-1 1h-3l1-1c1-1 1-4 2-3l-1 1h3l1 2-1-2 2-1h-4l1-1s0 0 0 0h2c1-1-2-2-2-2s0 0 0 0l-2 2-1-1 2-1h-1 1c1 0 0 0 0 0 2-1 4 0 4-2h-1v-1 1h-3c-1-2 3-1 3-1v-2l1 1s0 0 0 0v2l2 2c1-1-3-5-2-6l2 1s0 0 0 0l-2-1 2-1c4 0 1 1 3 3 2 0-2-3 0-3h2c-1-4-3 0-4 0l1-1h-1v1l-2-1v-1l-1 1-1 1v-1h-1l-1 1-1 1-1 1v0l1-2v-1l2-1c2-2-3-1 0-4 1-2 1 2 1 4v-1h1s-1-4 1-2l1 2h4c1-1-2 0-2-1l1-1h0s0 0 0 0l1-1s0 0 0 0l-1-2 2-1v-1l-1 1h-1l-2 2-1-1 1-1h-1l1-2h-1c1-1 3 0 2-1l-1-1 2 1 1-2 1 3v-2l1 2h2l-2-1 1-2 1 2 2 1v1c1-2-4-2-2-6l2-1v5l1-1v-1l1-1-1-1s0-4 2-2v5l-1 2c2 1 1-2 1-3h2v-1l-2-2c2-5 0 1 3-1v-2h1v1h1l2 1-1-1s0 0 0 0v-3c-1 0-3 2-4 0 0-2 2-2 3-2l1 1 1-1v1h2c1 0-1 2 2 2v-1s0 0 0 0h-1l1-1-1-3v1l-2-1c0-2 5-5 3-1h2c1-1-1-1-1-1l2-1c1-1-2-2-2-2h1v-2h5l-2 5s0 0 0 0 0 0 0 0h1c1 1-2 1 0 1l-1 2s0 2 2 1v-1-1-1l3-8v3l-1 1h1v2l2-1v-1-2l1-1s0 0 0 0l-2-1 2-1-1-1h4c1 1-2 5-2 5h1l1-2v1l-1 2 2-1v1h1l-1-1v-4c2-2 3 2 3 2 5 0-3-3 2-2 3 1 1 1 1 2s0 0 0 0h2s0 0 0 0h1v1l2 1h-1l-1 1-1 2c-2 1-4 0-6 2l1-1h1l1 1h2l-1 1 1-1v2h2v-2s0 0 0 0h3zm-37 18h0zm0 0h0zm0 0h0zm0 0h0zm0 0h0zm15-26c1 1-1 1-1 1-4-3 1-3 1-1zm-13 7h1v-1s0 0 0 0c1 0 0 0 0 0 1-1 1 2 2 0h-1l2-2s0 0 0 0l1 1-1 1-4 3 1-2h-1s0 0 0 0zm0 0h-1 1zm-5 6l1-1s0 0 0 0l-1 2v-1zm-2 2h0v0zm-5 2c1-2 8-2 2 1l-2-1zm-12 14c1 0 0 0 0 0 0 1 3 1 0 3l-2-1c3-2 1-2 1-2l-1 1-1 1c0-1 2-4 3-2zm-6 8v-2c3-1 0 2-1 3 0 0 0 0 0 0l1-1zm-22 49l1 1h-1-1c-3 1 1-1 1-1zm-16 16h2s0 0 0 0 0 0 0 0 0 0 0 0h0l-1 1-1-1zm-5 33s0 0 0 0v2-2zm1-7v0l1 1c0 3-2 1-1-1v0zm33-54h-1 1zm51-69h-1 1zm-15 19h0zm0 0h1-1zm1 0s0 0 0 0 0 0 0 0zm0 0h0zm168 208v0l-1-2h-1v-3l3-2v-3c1-1 5 0 6-2v-2h-1 1l-1-1 1-2s0 0 0 0h-1v-1l-1-2h-2c-1-3 0-2 1-3l1-1h-3c-1-1 1-1 1-1v-1-3l-1-1v-2c-2 0-1 2-2 2-5 1 1-1-3-1h-2l-1-1-1 2-2-1h-1l-1 1-1-1c-3 0 1 3-2 2l-1-1h-1c-2 0-2-2-4-3l-4 5-2-1-1 1-1-1c-2 0-2 3-4 2l-1-1-1-2s0 0 0 0l-2-3v-1s0 0 0 0l-1 1-1-2h-1l-2 2v-1h-2l-1 1v-1-1h-1v-1l-2-2c1 0 3 0 2-1l-3-2s0 0 0 0v-1l-2-1-1-1-2 1s0 0 0 0c-3-1-1 1-3 2h-4v4l-2 1-1-1s0 0 0 0l-3 1-1 1h-1l-2 3v3c0 1 3 4 1 4-2 1-1-2-3-2-4 0 1 1-2 1h-1c-2 0-1 2-2 2l-2-2c-1-1-2 0-2 1v2l-2-2c-1-1-1 1-1 1-3 0-1-1-1-1l-1 1h-2v2h-1c-1-1 2-2-1-1h-2s0 0 0 0h-1v-1h-7-1l-4 1h-1-1l-3 1-2 1-3 4v-1h-2v2h0v0l1 1v1c0 2 3 3 4 5l-1 1 2 2c0 3-1 1-3 2l-6 11 2 3-1 1c2 2 1-1 2 2 0 0 0 0 0 0h-2v-1l-1 3v2l-1 1v2c2 0 1 1 2 2h1l1 1h1s0 0 0 0c2 1 0 1 1 2l2-2v-1l3 1s0 0 0 0h5l2-1 4 2c1 1 1-2 2-2 1-2 5-2 6-3 3-2-1 0 1-2l2-1v-2 0h1s0 0 0 0l3-1c2-1 1-2 4-2l3 1v1l2-1v1c0 1 0 0 0 0l1 1 1-1c2-1 1 1 3 1h1c2 1 1 3 1 5l3 2c1 0 0-2 1-1 2 1 0 3 1 2v2l4 1v3l2 1h-1l-1 1-1-1-1 1-1-1-1 1s0 0 0 0l-1 1s0 0 0 0 0 0 0 0v-2l-2 2c-1 1 1 2 1 2v3h-1v2l-1 1v3h-1 0l-1 1s0 0 0 0h1v1h4s-1 0 0 0l2-1 2-2c2-1 3 0 3 2v-3s0 0 0 0 0 0 0 0h-1l-1-3v-1l1 2c3-1 1-1 1-2h1l-1-1h2l1-1 2-5-1-1h1c1-1-1-1-1-2 2-3 5-2 5-2v-2 1h3v-2-2s0 0 0 0c1 5 3 3 6 2h-1l-1 2-4 1h-2l2 1v-1h2l-1 2h4v1h2l2-1 1-1c1 0 0 0 0 0h1c1 0 0-2 1-1l2 1 1-2c1-1 0 2 1 3l1-1-4 4v-1 1l-2 2s0 0 0 0v1l-2 2h3l4 1h2c2 2 0 2 1 3l1 2-2 1h2l2 1c4 0 3-5 6-7l2-1h1v-2l1-1s0 0 0 0l1-2h1l2 1 1-1h1c2-1 1-3 1-4v-2l-3 1-1 1h-1s0 0 0 0l-1 2-1 1c-2 0-6-5-7-6l-1-2 1 1c2-1 2-5 2-6l1-1 1-1c1-2 2-2 3-2 0 1 0 0 0 0 1-1 0-2 2-2l2 1v-2l2-3 1 1 1-3 4-2v1l1-2zm34 175v1h-10l1-1v-8-4l1-1-1-3 4-1v-2s0 0 0 0h1l1 5-1-5 1 5v1s0 0 0 0v1l1 2s0 0 0 0l-1 1 1-1 2 10h0zm105-17l-9 4-4 1-8-2-16-4-7-2h-7l-11-2-11 2c-2 4-11 10-14 12l-4 3 1 1h1l8 5h81v-18h0z"/>
  <path fill="currentColor" stroke="transparent" stroke-width="2" d="M540 362s-1 0 0 0l1 1c2 1 0 1 0 2 1 1 2-1 3 1v1l2 1 1-1 2 4 2-1c2-1 1 3 5 0l2-1c1 1-2 2-2 3 0 2 4 3 4 5l-2 1 1 2-1 1s0 0 0 0v1 1s2 1 1 2h-2v2c1 3 1-1 2 1v4h2l3 2 1-1v2l1-1 3 2c1 2-2 2 0 2v1l3-1 8 2 2-2 3 3h1v38l-9 4-4 1-8-2-16-4-7-2h-7l-11-2-11 2h0v-1c0-3-2 1-2 0l-2-1 1-1-6-8s0 0 0 0h0l11-13c2-3 6-7 5-11l-2-5c0-2 1-5-1-7l-3-5c0-3 2-3 4-5l2-6v-1l1-1 1-1v-2h2l1-2 7-1c1-2-1-2 1-2 3-1 2 2 3 3l2-4h2zm-17-42l1 1s-2 0-1-1m-1-2l1 1s0 0 0 0c3 0 0 1 0 1 1 1 3-1 4-1v1h2c1 1-2 2-1 3 1 2 6 2 7 2v3l-2 1s-1 0 0 0h1l5 2 3-1c1 1-1 1-1 2s3-1 3 1l-1 1s0 0 0 0h1l1 3h0l1-4 2-2-1-1 2-3 3-5h2l2 1 1 1-2 2 3 1c0 2-3 2-1 3l2 1 1 1 1-1c1 0 2 2 3 1l1-1-2-4v-2l-1-2h2v1l1-1h-1v-1-2h1l-1-1-1-1v-2c0-2-3-5-2-6l2-2v-1s0 0 0 0h1v-1l2-1 1 1c0-2-3-3-4-2-2 1-2 2-5 1v-1h-2l-2-1-3-3-6-3v1l-1 6v3c-1 1-4 3-6 2-2-2 3-1-2-2 0 0 0 0 0 0l-3-1-2-1h0v1h0-1v0l-1 2v1l1 1h0c0 1 5 0 5 3-1 3-2 1-4 1-1 1 0 2-2 2h-2v-1s1 0 0 0h-3c-2 1-1 2-2 3zm20 20l-3-2v-1s0 0 0 0h-2s0-3-1-2l-2 2-2-1v1c-1 1 0-2-3-1l-1 2h1l1 2h2l1 1h2l1 1 4-1 2-1zm3-41h0zm0 0h0zm0 0h0zm-16 25v0zm16-25h0zm0 0h0zm0 0h0zm0 0h0zm0 0h0zm0 0h0z"/>
  <path fill="currentColor" stroke="transparent" stroke-width="2" d="M565 331l-1 1c-1 1-2-1-3-1l-1 1-1-1-2-1c-2-1 1-2 1-3l-3-1 2-2-1-1-2-1h-2l-3 5-2 3 1 1-2 2-1 4h-1c-2 1-1 2-4 2l-4 1-1-1h-2l-1-1h-2l-1-2h-1s0 0 0 0h0c-5-1-2 2-2 4l-3 2 3 2v1c1 3 1 1 2 1l2 5c1 1 1-2 2 0v5h1l3 1s-1 2 1 3 1-1 3 2c0 0 0 0 0 0s-1 0 0 0l1 1c2 1 0 1 0 2 1 1 2-1 3 1v1l2 1 1-1 2 4 2-1c2-1 1 3 5 0l2-1c1 1-2 2-2 3 0 2 4 3 4 5l-2 1 1 2-1 1s0 0 0 0v1 1s2 1 1 2h-2v2c1 3 1-1 2 1v4h2l3 2 1-1v2l1-1 3 2c1 2-2 2 0 2v1l3-1 8 2 2-2 3 3h1v-64h-1l-4-2-2 1-1-1v1c-2 2-6 3-8 1l-5-6zm-35-25l-1 2v1l1 1s0 0 0 0c1 0 0 0 0 0 0 1 5 0 5 3-1 3-2 1-4 1-1 1 0 2-2 2h-2v-1s1 0 0 0h-3c-2 1-1 3-2 4h-1v1l-5 2-5 4h0s0 0 0 0h-1-1-1s0 0 0 0v-1h-2l-1-1v1c-2 0 0-1-1-1h-1l-1 1v1l-1 1-3 1-1 1h-1-2l1-1v-3l-4-5-2-3h-2-1l-1-1h-5-1c-1 0 0 0 0 0-1 1-1-1-2-1h-2-1s0 0 0 0h1c0-4 1-2 3-3l2-1 3 1 3-1h2l3-1c3-2-2-1 3-2h2l3-1v1h7c1 0-1 2 1 2 3 0 2-4 5-5 1-1 1 1 2 1v-3l5 1 1-1h1l1 3s0 0 0 0h3v1l3-1h2v0h0zm-60 101l3 1v-2l1-1-1-2 3-1-2-2v-5h3c0 1 0 2 1 1 0 0 0 0 0 0l3-1c2-1 4-6 7-6l4 1 7-4 8-8 7-3 3-3c1 0 1-3 2-1l1 2-2 6c-2 2-4 2-4 5l3 5c2 2 1 5 1 7l2 5c1 4-3 8-5 11l-15 18-9 13h-8l-2-1c-2-1-2 3-3 0l-1-5h0s0 0 0 0l2-5c1 0-2 1-1-1l1-2 2-1h-1l2-4v-1l-1-2h-2v-1l-1-1-3 2-2-3c-1-1 1-3-1-5l-2-1v-2-1-2h0z"/>
  <path fill="currentColor" stroke="transparent" stroke-width="2" d="M520 372l1-1 1-1v-2h2l1-2 7-1c1-2-1-2 1-2 3-1 2 2 3 3l2-4h2c-2-3-1-1-3-2s-1-3-1-3l-3-1h-1v-4-1c-1-2-1 1-2 0l-2-5c-1 0-1 2-2-1v-1l-3-2 3-2c0-2-3-5 2-4h0l-3-2c-3-1-4 2-8 2v-1l-1-1-1-4c0-3-3-3-4-3v-1h-1-1-1s0 0 0 0v-1h-2l-1-1v1c-2 0 0-1-1-1h-1l-1 1v1l-1 1-3 1-1 1h-1-2l-3 6s0 0 0 0c-2 1-3 5-5 5h-1l-1 1h-1-1-2l-1 1h-1l-1 1-1 1-2 2-5 1c-4 0 0 0-2-1l-2 2h-2v-1l-2 1v-1h-2c-3 0-2 3-5 2-1-1-2-4-3-3h-1v-1c-1 0-2 4-5 2-3-1-1-2-1-3h-3v2c-1 2-10 3-12 4l-3 2-3 2-5 6-2 2h-1c0 2 1 2-1 3 0 0 0 0 0 0l-3 1h-5v1l-4 1h-5l-1 3 3 1s0 0 0 0v1h1s0 0 0 0l5-1-3 2-1-1-5 4c-1 1 4-1 3 1l-5 1c-3 0-5 2-5 2l1-2h-3s0 0 0 0l1 2-2 1c-2 1-2-1-3-1l-2 1-2 1-2 2s0 0 0 0v1l-1 2-1 1 1 3v2l6-2s1-1 0 0l-1 3s-1 0 0 0l2 2v2h2c0 1-3 2-2 3l2 2 1-1h1l-3 2-1-1v2l-2-4h-1v3h2l-2 1s0 0 0 0c-1 0 0 0 0 0l-1 1h2l2 1 1-1c1-1 1 1 1 1h1l3 1v2l-2 1 3 1v2l2-1 1 1h1c1 4-6 0-3 4l2-1 1 1v-1h2l3-1 2-1c1 2-3 2-3 2l1 2h-2l-4 2h3v-1l2-1c2 0 1-1 1-1 1 3 0 2-1 3h1l3-3v-1c2-1 1 1 2 1l2 1s0 0 0 0c1-1-1-2 1-2s2 3 2 4h5l1 1 4-3h2s0 1 0 0l1-1-1-1 1-1c0-2-2-3-1-4l5-1h8c4 1 3 4 8 4l2-1h1v-1l4-1 1-1s0 0 0 0l1-2h1c2 0 1-1 1-2 0-2 2-4 3-5 2-3 7 0 7 0l1-2c1 0 3 1 2-1l-1 1 1-1h-1c-1 0 0 0 0 0l2-1 1-3 2 3-2 5 3 3h-1 0l3 1v-2l1-1-1-2 3-1-2-2v-5h3c0 1 0 2 1 1 0 0 0 0 0 0l3-1c2-1 4-6 7-6l4 1 7-4 8-8 7-3 3-3c1 0 1-3 3-1v1zm-134-9h0-2l-2 1v1c-2-1-2-2-4-1l-2 1h-2v2c0 1-2 1-1 2 1 0 4 2 3 4-1 1-2 0-2 2v2l-2 3v1l1 1 6-2c0 2-4 3-4 5 0 0 0 0 0 0v3l3-6 5-4 1-2v-1c1-2 2 0 4-1v-1l2-1c2-1 3 2 2-1l1 2 3-2v-1-1c-1-1-5 0-8-2s-2-3-2-4z"/>
  <path fill="currentColor" stroke="transparent" stroke-width="2" d="M529 322v0m-6 12h1s0 0 0 0h1s0 0 0 0h0v1h0v0h1s0 0 0 0h1s0 0 0 0h0l1 1 1-2c3-1 2 2 3 1v-1l2 1 2-2c1-1 1 2 1 2h2s0 0 0 0v1l3 2 2-1h1v-1 1h0l-1-3h-1s0 0 0 0l1-1c0-2-3 0-3-1s2-1 1-2l-3 1-5-2h-1c-1 0 0 0 0 0l2-1v-3c-1 0-6 0-7-2-1-1 2-2 1-3h-2v-1c-1 0-3 2-4 1 0 0 3-1 0-1 0 0 0 0 0 0l-1-1v1h-1v1l-5 2-5 4h0s0 0 0 0v1c1 0 4 0 4 3l1 4 1 1v1l6-2zm0-14l1 1s-2 0-1-1zm-64 95l-4 6c-1 2 3 2 3 3h-2l-1 1h-1l-1 2-4 3v1c-1 1-1-1-2-1l-1 1h-3v-1l-2-3 1 1 1-2 3-1v-1-2h1l5-1 7-6zm-220-88v1l-1 1 1 1c-2 1-2-2-3-1v4h1l-1 1-1-2-3 1c-2-1-1-2-2-3v3c-1 1-3 2-3 4 0 1 2 0 0 1l-1-1-1-1 1-1s0 0 0 0c-1 0-3 0-3-2v-1-1s0 0 0 0l-2 1-1 1 1 1-3 3-2-1c-1 0-3 2-4 1l-1-2h-1l1-1h-1v-1-1-1c-1-1-3-1-4 1 0 0 0 0 0 0v1l-3 1h1c0-2 1-1 1-1v-4l2-2v-2l3-1 2-3h-1l1-2s0 1 0 0c0 0 0 0 0 0 2-1 1 2 4-1h1s0 0 0 0 0 0 0 0h7s-1 0 0 0v-1h-1s1-2 2-1v1h1s0 0 0 0l1 1 2-1 3 2v2s0 0 0 0l-1 3 3 1s0 0 0 0l2 2 2-2h1v2zm120-31l3 1 4 5c2 2 9 6 9 10l1 6 1 4v1h1v1l1-1h1v-3l1-1v-2h1v-1-2s-2-1-1-2l2-2v2s0 0 0 0h1v-1s0 0 0 0l1-1 1 1 1-1 1 1 1-1h1l-2-1v-3l-4-1v-2c-1 1 1-1-1-2-1-1 0 1-1 1l-3-2c0-2 1-4-1-5h-1c-2 0-1-2-3-1l-1 1v-1h-1v-1l-2 1v-1l-3-1-4 2-3 1v1l-1-1v1zm-30 91l1 3c-1 3-1 0-2 2v4l-3 2 1 1-1 1c0 2-1 1-2 1 0 0 0 0 0 0h-1s0 0 0 0v-2s0 0 0 0l-1-1-6-4h2l-2-3h1v-1-2h1l-1-1v-3l-1-1v-2l2-1h-1v-2h-2v-2-1l-1-1 3-6 1 3 2-2 2 3h2c2 2 1 4 1 6l1 1-1 1 1 2h-1l3 5 1-1 1 1s0 0 0 0zm143 53l4-1v-2s0 0 0 0c2-1 3-4 3-5 1 0-2 1-1-1l1-2 2-1h-1l2-4v-1l-1-2h-2v-1l-1-1-3 2v1c1 2 0 1-1 2 0 0 0 0 0 0v1l-1 1 1 3-1 2 1 1-1 4v3l-1 1zm-306-68c-4 1-2-2-2-2 3 0 3 1 2 2zm44-9l2-2-2-1-1 1 1 2c1 0 0 0 0 0z"/>
  <path fill="currentColor" d="M231 323l1 1v1l-1-1v-1z"/>
  <path fill="currentColor" stroke="transparent" stroke-width="2" d="M310 363l-2-1v-1 1l-1 3-2 1c0 3 3 3 1 5h0v1c-1-2-3-2-5-3l-1-1h-2l1-1-4-3v-2l-2-1-4-4-3-3h-1l1-1-1-1-2-3-2-1 1-5 4 2h0l1-2h2l1-1 2 1h1s0 0 0 0c1-1 4 1 5 1v-1l1-1 1 1 1-1h1l1 1v-1c2 0 2 3 3 3l4-1c0 2-2 4-1 6 0 2 1 0 2 1l1 2h1c0 2-2 0-3 1 0 0 4 3 3 5l-1-1-1 1-2 1c-1 1 1 1 1 3h-1 1zm14 13v2l1 1-1 1 1 2h-1l3 5 1-1 1 1s0 0 0 0l7-2c1-1 0-2 2-3h4l1-1s0 1 0 0c1 0-1-2 2-2h0v-5l-2-3h-2l-3-2c-1-1-3 2-5 2-1 0-2-1-3 1v1l-1-1-3 2c-1 0 1 4-2 2h0z"/>
  <path fill="currentColor" stroke="transparent" stroke-width="2" d="M306 372v-1l-5-2-1-1h-1s0 0 0 0v1l-3-2h-2-1s0 0 0 0h2l2 1s0 0 0 0c3 2 2-1 7 3l2 1zm1-28l1-1s0 0 0 0v-3s2 2 2 0l-4-1 1-1-1-1h-1v-4h-1-1v2h-6l-2-1h-2l-7-6h-2v2h-1l-1 1-3 1c-1 1 2 3 1 4-3 3-1-1-3 2l1 1h-1v2c-1 1-2-1-3-1s1 2-1 1l-1-2h-1v1c-1 2-3 0-4 1 0 0 0 0 0 0h-4l1 2s0 0 0 0v2s0 0 0 0l1 2 1 2 1-1 1-1h-1v-1c1 0 1 2 2 1v-2s0 0 0 0 0 0 0 0l1-2c2-1 1 0 3 2h1l1 6 3 2 2 1c-1 0-3-2-3 1l5 4h-1l3 1v2h3c2-1 0 0 3 1h2l2 2 3 1c0 1 0 0 0 0s0 0 0 0l1 1h1l-4-3v-2l-2-1-4-4-3-3h-1l1-1-1-1-2-3-2-1 1-5 4 2h0l1-2h2l1-1 2 1h1s0 0 0 0c1-1 4 1 5 1v-1l1-1 1 1 1-1h1l1 1v-1c2 0 2 3 3 3l1-1zm224-39v1h0-3l-3 1v-1h-3s0 0 0 0l-1-3h-1l-1 1-5-1v3c-1 0-1-2-2-1-3 1-2 5-5 5-2 0 0-2-1-2h-6-1v-1l-3 1h-2c-5 1 0 0-3 2l-3 1h-2l-3 1-3-1-2 1c-2 1-3-1-3 3h-1l-2-1h0l-5-2c-1-1-5-3-6-2h-4l-4-2 1 1h-3c-1 1-2-2-3-2h-6c-1-1 4-2 3-3l-2 1v-2h3v0h2v-1h2s0 0 0 0v-1l-2-2h1l-1-1 1-1v-3c1-2 1 0 2 1h-1l1-3h2v-1h-2l-2-1-4-2v-1l1 1 1-1 1-2 1 1 2-1h-2c-2-1 1-2 1-2l3-4v1l1-1c1-1 1-2-1-2h-1l-1 1c0 2-4 2-4 3 0 0 0 0 0 0v0l-1-2h-1v-3l3-2v-3c1-1 5 0 6-2v-2h-1 1l-1-1 1-2s0 0 0 0h-1v-1l-1-2h-2c-1-3 0-2 1-3l1-1h-3c-1-1 1-1 1-1v-1-3l-1-1v-2c-2 0-1 2-2 2-5 1 1-1-3-1h-2l-1-1-1 2-2-1h-1l-1 1-1-1c-3-1 1 3-2 2l-1-1h-1c-2 0-2-2-4-3l-4 5-2-1-1 1-1-1c-2 0-2 3-4 2l-1-1-1-2s0 0 0 0l-2-3v-1s0 0 0 0l-1 1-1-2h-1l-2 2v-1h-2l-1 1v-1-1h-1v-1l-2-2c1 0 3 0 2-1l-3-2s0 0 0 0v-1l-2-1-1-1-2 1s0 0 0 0c-3-1-1 1-3 2h-4v4l-2 1-1-1s0 0 0 0l-1-1-1-1s0 0 0 0l-1-2s0 0 0 0l-1-2s0 0 0 0c1-1-3-2-3-3v-2h6l1-3s0 0 0 0l1-1v-2h-2l-1-2h-3l-1 1-1-3-3-1c-2-1-1-2-3-2v-2l-3-1 1-3c-1 0 0 0 0 0l-2-3-1-3h-1l-2-1h-2-2l-1 3c-2 0-2-3-2-3-2-1-2 0-4 1l-1-1c-1-1-1 2-3 0 1-3-2-5-3-6l-1-2-1 1s0 0 0 0v-1-2h-1c0-1 2-2 0-3h-2v-1h-1v-2h1l-1-1s0 0 0 0l2-1-1-1-1-1-1-2v-2l-2-4 1-3v-2-1c1-2 2-1 0-2v-4s0 0 0 0l2 1-1-2h3c2 0-2-3 3-3 1 0 6 1 4-1h-2c-1-1-1-2-3-2-1 1-1 2-3 1 0 0 0 0 0 0l-1-1h-1l-1-4-2 2-2 1s0 0 0 0h0l3-6c3-7 7-15 8-23v-2c0-2-8-5-10-6 0-1 3-5 1-7l-3-1c-3-4 0-2-1-3-1-2-2 0-3-2v-2c1-1-1-1-1-2v-3c-2-2 0-1 1-2l-3-4-4-6-2-1c-2-3 3-9 1-10l-2-1-2-3h-3l-1-2c-2-3 0-3-1-5l-2-1h0l2-1h0l1-3s0 0 0 0v-2 1c0-1 3-3 2-4h2v-3h4l-1-1v-2l3 1h2v2c-1 1-3-2-4-1l1 2h1v1l5-1v2l1 1c0 1-3 1-1 2v-1l1-1v-1l1-2h3c2-1 3-2 5-1l10 2 1 1 2 1s0 0 0 0h1s0 0 0 0c1-1 6 2 6 1l-1-1h1l2 1h1l1 2 2-1 2 2c0 1 0 0 0 0l1 2h2l1 6-1 4c0 4-5 8-8 8h-5l-5 1-2 1c-1-1-3-2-4-1l-1 1-1-1h-1v-1l-1 1h-2l-4-2v-1l-4 1c-1 0 0 0 0 0 1 0 2-1 3 1v1c-1 0 0-1 0 0 0 0 0 0 0 0s0 0 0 0l2 1 4 1 1 1s-2 1-1 2l1-1 6 2 2 2h1-2l1 2c1 3 0 1-1 3h1l3 3v1l1 1v1l1-1-1 1 1 2 4 1s-1-2 3 0c7 3-4-2 2 2h6l1-2s0 0 0 0c2-1 0-3-1-4l-1-1s0 0 0 0h-1v1h-2l-6-4 2-1-1-2c0-3 6 1 6 1l2-1 1 1v-1l6 1v-2h4l-1-2s0 0 0 0c0-2-5-3-7-5-1-2 1-3 1-5v-3c1-1 3-2 3-4v-5h2l1 1c2-1 0-2 3-1h2v1l1-1 3 3-2-3c-2-2-1-4-1-6h-1l-1-1h1l-1-1-3-2h-2l-1-3v-2l-1-3v-1h-1c-1 0 1-2-4-3l-2-1h3l4-3 3-1v1l1 1c2 1 5 1 6 3l-2 2-3 2h1v1c0 1-2 2 0 4h4c1 0 2 3 3 2l2-1v1c1 1 0-1 1-1l2-3h1l-2-3v-3l-2-2h1v-1l1-1s0 0 0 0l2-1h-1l-1-1h0l1-1 1-4v1h1v-6h1l1-2s0 0 0 0v-1h1v-2c2-1 2 3 2 2l1-2s0 0 0 0l-2-1v-1 2h-1l4-9h1l-1 1-2 2 2-1v1l1 2 2 1c1 1-4 4-1 3l1-1h2v-2 2l1-2h2l-2-2 1-4v-1h1l2-2h1l1-1v-2l1-1-1-2 2 1-2-1 2-3v1l1-1c4 0 1 1 2 3s1 2 3 1h1c1-3-2-2-2-4l1-2V2l-8-3c-1-1 1-1 1-2l-1-2 2-1 6-5 7-2 1 1 1-1 2-1c1 0-2 1 0 1l1-1h3l2-2v1h4c1 0 0 0 0 0h1l1-1 1 1 1-2s0 0 0 0l-1-1-1-1h22l1 1-1 2c-1 0 0-1 0 0l3 1v1l-1-1 1 1h-1 1l-1 1s0 0 0 0v2l-2 1v-1s0 0 0 0v0h-3v1l-1 1h1c-1 2-2-2-2 2h1c2 0 1 2 3 1l4-3 2-3 3-2c2-2-2-3-2-4v-1h114v90l-2 2 1 1c-1 2-2-1-2 1v2l-2-1v-1l-2-2c-1-1 1-1-1-1h-3l-1-2h-3l-1 3 1 1-5 1c-4 3 2 0-1 2h-1l-1 1 1 1h-1s0 0 0 0c-1 1 1 2 1 2l-2 2 1 1 1 1-1 2c0 3-1 1-2 3l1 1-3 4-1 3v1l-1-1v2l-1 1c-1 0 0 0 0 0l-1 2 2 2h-2l-1 2s0 0 0 0l-2 4s2 0 0 1h-1l-1 3s0 0 0 0l-1 1s1 0 0 0c0 1-2 2-1 4l1 1h-2v-1l-2 2 1 1-1 1-1-1v2l-2-1c-2 1 0 3 0 3-1 0 0-2-1 0 0 2 2 0 2 1v1l1 1-1 1 3-2h-1c1-1 2-2 2 0v1h-1l1 2c1 1 2-1 2-2h4c1 2 0 2-1 2l-1 1h-1l-1 2-1 1h1v4h1l1 1 1-1 1 1v4l-1 1v2c-1 1-2 1-1 2l3-1c1-1 0 2 1 1l3-2 2 1c2-1 0-2 4-1h1l-1 1 3 4-5 6h-3c-1 0 3 4 0 6-1 2 1-3-1-1l-3 2h-2-1v-1 1h-1l-1-2-1 1-1-1h0v2h0l-2 1s0 0 0 0l2-1-2 1c-1 1 0 2 1 2h-1v1h1-1v1h0l-3-1s0 0 0 0h0l-1 1s0 0 0 0l-1 1v-1l-1 2h1-2s0 0 0 0h0s0 0 0 0v3s0 0 0 0 0 0 0 0 0 0 0 0 0 0 0 0h-1l1 2-1 4-1-1-1 1h0s0 0 0 0v0c-1 0-6-2-7 0h3-3v1h1l2 3v0h-1l-1-1v-1h-3s0 0 0 0l-3-1-2 1c-2 0 0-2-3-1-1 0-4 4-5 3l-3-2v2l-1 1v3h-1l-2 1v-1c-2-1-1 0-3 1h-1l1 1c-1 3-1-1-1 0v5l-2 2v2l-2 1c-1 2 1 2 1 3v1h-1l-1 3-1 1s0 0 0 0l4 3v1c0 1 1-1 1 1v1c-2 5-3 2-6 1l-4-1c-1 0-2 2-1 3l1 1-1 4 2 6h3l-1 4 1 4v2l5-1 1 2s0-1 0 0v1s0 0 0 0l1 1c1 0 0 0 0 0v1h3l-1-2h2l3-2 8 5 3 1c1 1 0 2-1 3 0 0-1-2-2 0 0 2 5 1 7 1v1h0s0 0 0 0h0v1h0s0 0 0 0h0v0h0v0h0v0h0v0h0v0h0v0h0c0 5-1 1-2 2l1 1h-1c-1 1 1 1 2 2l-2-1-1 3s0 0 0 0v1l-1 1-2 1 1 1c-1 1-2 0-2-1l-1 1 2 1s0 0 0 0h0-1-1v-1h-1l2 1v1h0s0 0 0 0h0v0h1v0h0v0h0v0h0v1h0v0h0v0h0v0h0v0h0v0l-1 1h1v2s0 0 0 0v3l-1 1 1 1-1-1c-1 1 1 1 1 2s-3 2-1 4 1 0 3 0l1 1h1l1 1 3 2 1 3s0 0 0 0l-1-4 1-1v2l1 2 1 3v-1l1 4h3l1 2h1l6 3 1 2 2-1h0v1l-1 6v3c-1 1-4 3-6 2-2-2 3-1-2-2 0 0 0 0 0 0l-3-1-2-1h0v0h0v0zM377-19h-8v0c0 2-3 2-2 4l1 2 1-1v1h1-2v3l3-1v3l1 1v2l1 1h-2c-1 1 1 4 1 5 1 1 5 4 5 0V0l1 1 2-1-1-2 1 2 1 1h1V0s0 0 0 0v1h2V0h1l-2 2 2 1v2l1-1h2s0 0 0 0V3h4c1-1-1-2-1-2l5-1-2-1s0 0 0 0c0-2 6-1 3-3h-2l-5-1-6-3-1-1h-1l-1-3-2-1-1-1-1 1 1-2v-2h-2c-1-1 3-1 1-2zm26 13c1-1 3 1 4 1s6-1 6 2l-2 2-2-1-1 1-5-1 1-1h-1v-1-2zm-19 32l4 1v2l-1-2v4l-1 4-1-1c-2 1-3 0-4-2-2-3-2-6 3-6zm-65 208c-2-2 0-5-1-6h-1s0 0 0 0l-1-1h-4s1 0 0 0l-4-1s0 0 0 0h-1v1s0-1 0 0l1 2c-1 2-5 1-5 1v-1l-3 2s0 0 0 0v2l-2 3c5 1 17 1 21-2 0 0 0 0 0 0zm-14-8h0v0zM78 417c0-4-1-5 2-7l1-2s4 0 3-2h-1l-1-1v-2h-1l1-2 1-1c1-1 3-1 3-3l-2-2v-3l-1-3s0 0 0 0l2 1c2 0 3 0 4-2s0-1-1-3c0-2 3-1 3-2l-1-1 1-1v-2l1-2-1-2h1l2-1c1-1 4-1 4-3 1-2-1-2-2-2v-3l-4-1-1-1v1h-3-1 1l-1-1h-2s0 0 0 0v-1s-1 2-2 1c-2-1 2-2 1-3h-1v-1l-5 1-1 2 1 1h-1v7l-1 3-1 2 1-2 1 1-2 1-2 3-1 1 1 2v-1l-1 2-3 4-1 1s0 0 0 0h-2v2c0 1-3 4-2 5l1 2v2h4v-1 2l2 1c-3 1-1-2-3-2v3l-1 3v3h1-1l-1 3-2 4h3s0 0 0 0l7 3 3-1h1z"/>
  <path fill="currentColor" stroke="transparent" stroke-width="2" d="M166 372l2 1 1 1 2-1s2 2 3 1c0 0 0 0 0 0h5v1l-2 1s2 2 1 4l-6 3-3 1-2 2c-3 1-8 0-10 2l-2 2 2 1-3 1-2 3-8 8 1 6 3 3-3 1v1s0 0 0 0l-3 1v1h-1v1l-1 1-1 1c0 2-2 0-2 3l1 1-2 1-1-1-5 2c-3 1-3 5-6 6-1 1-1-2-4-1l-1 1-3-2h-4-1c-1-1-6-2-7-1l-3 2-5-1-2 3h-1l-2 1s0 0 0 0l-1-1-1-1-1-1-2-4h1s0 0 0 0 0 0 0 0c0-2-2 0-1-2l2-2-2 1v-2l-1-1-3-2v0s0 0 0 0l-1-1h-3c0-4-1-5 2-7l1-2s4 0 3-2h-1l-1-1v-2h-1l1-2 1-1c1-1 3-1 3-3l-2-2v-3l-1-3s0 0 0 0l2 1c2 0 3 0 4-2s0-1-1-3c0-2 3-1 3-2l-1-1 1-1v-2l1-2-1-2h1l2-1c1-1 4-1 4-3 1-2-1-2-2-2v-3l-4-1-1-1v1h-3-1l1-1h-3s0 0 0 0v-1s-1 2-2 1c-2-1 2-2 1-3h-1v-1l-5 1v-2 0l2-1v-1l-1 1v-1l1-1h-1l-1-1 1 1v-1l1-2c1-4-3 1-3-3-1-3 2-2 2-2l-1-1s0 0 0 0h2l8-3 2-1v2l2-2c2 0 2 4 4 5l1-1 4 1h2l1 1 2-1 1 2h2v1h1c2 1 8 4 11 3v-1h1l3 1v1l3 2v-1l1-1c2 0 1 0 2 2h1l1 1h6l1 1s0 0 0 0l1 1v2l1-1v1l4 2 1 2h4l1 2 1-1 2 1s0 0 0 0h3v-2l4 3s0 0 0 0h1l1 1v0c0 1-1 3 2 2zm-75 63l1 3h2v-1l-1-1 1-1h-3 0zm22 11l2 1v-3l-2 2h0zm2 0h0s0 0 0 0v0zm61-45c-2 5 0 2 2 3 1 1-4 5-4 5l-1-1-2-1v-2l-1 1-2-1s0 0 0 0l8-4h0zm9 0c2 5-1 2-2 1h-2c-2-1 1-2 4-1zm-16 8l-1 1 1 1h1v-1l-1-1h0zm-2-2l-1 1v2l2-1 1-1-1-1h-1zm37-111v-1l-2 1-1-2s0 0 0 0 0 0 0 0v-1l-1 1-1-1-1-1v-1l-1-1 1-1v-1l-2 2h-3v-1-1-2l-4-1 1-1-3-1-1-3-2 1c-2 0-2-4-2-5h0l6-3v1c0 2 2 0 3 1v1l3-2 1 1v-1h1s-1-2 1-1c0 0 0 0 0 0h2l-1 1c2 1 1 0 2-1l1 3 5 1-1 1v2h-1c0 2 1 2 3 2h0l1 1v2h1c1 2-1 2-2 4-1-2-3 1-3 2s2 4 0 4v1zm81 125l-4 11 2 1h-1v1l2 1-1 1-1 1v3l-2-1c-2 0-1 1-4-1l-2-3h-5l-1-1-1-1h-1l-5-3-2 1-2-3v-1c1 0 0 0 0 0l1-1 1-1 1-1s0 2 1 1c3 0 0-2 4-2v1h2v1l2 1 2-1h3l4-2h3l1-1c0-1 0 0 0 0 2 0 2-2 3-1m-56-31c0 1 4 1 3 3h-1l2 1-1 1c1 3 1-1 2 3l-2 3c-1 1 1 1 1 2l-1 1-1 10v-1l-5-1h1l-1 1c0 2 1 2-1 3-4 2-1-1-3-2h0l-1-2c-1-1 0-2 1-4l-1-2c1 0 2 0 1-1h-1v-2s0 0 0 0h1l-2-6c-1-1-1 3-1-2l1-1v-1l2 1c1 1 6-3 7-4m35-60l-2 2c-1 1 1 1 2 1l-2 2c0 2 2 0 2 1v2s4 2 1 2v-1c-2-2-2-1-3 0 0 0 0 0 0 0l-2-1-1 2h-1l-4 2h-1v1l-1 1h1v1s0-1 0 0l1 1h-1 1l1 2c1 2-1 1-2 3l1 5 8 6 3 1 4 10 4 4 2 1v1c2 2 7 2 9 1h3c2 2-4 3-1 6 3 2 7 1 11 3l2 2 5 2v1c1 1 4 1 5 4l-1 1v3h-1c-3-1-2-3-3-5h-5c-2-1-2-3-4-1l-2 5s0 0 0 0c0 2-2 2-1 4h2l3 2h1v1l1 4c0 1-4 1-5 3v4l-2 1c-2 2-1 6-5 5-1 0-2-2-1-3l1-1 1-2v-1l-1-1c0-2 2-1 3-2s0-2-1-3l-1-3-1-2s0 0 0 0c-2-3 0-1-1-4-2-3-2-1-5-1v-1l-1-1h-2v-2l-1-2c-2-3-2 1-4 0v-2c-3-2 0 0-3 0v-1l-3-4c-2-1-1 1-1 1-1-1-2-2-3-1l-2 1-1-2-3-1-1-2-2-1-1-2-2-1s0 0 0 0l-2-3c-2-2-3-1-5-1l1-1-1-2h-1v-1l-2-1v-1h-2v-2-3c-2-3-1-5-3-7l-1-1s0 0 0 0h-1c-1 0 0 0 0 0l-2-1-3-2s0 0 0 0h-1l-3-1-3 1v2h-1l-2 3-4 1c-1-2 2-4 1-5l-1 1h-2l-3-3v-1-1l1-1h-1 1v-2l-3-3 1-1 1 1 3-4-2-1v-1c-1-2-3-1 1-3 1 1 3-1 4-1l2 1 3-3-1-1 1-1 2-1s0 0 0 0v2c0 2 2 2 3 2 0 0 0 0 0 0l-1 1 1 1 1 1c2-1 0 0 0-1 0-2 2-3 3-4v-3c1 1 0 2 2 3l3-1 1 2 1-1h-1v-1-3c1-1 1 2 3 1l-1-1 1-1v-1h1l3 1 1-3h5l3-1-1 1 2 1v1s0 0 0 0c2 1 2 2 5 2l6 1zm-9 29s0 0 0 0 0 0 0 0c1-1 1 2 0 0zm15-79c2 0-1-2 2-2l1 2 4 1v1s0 0 0 0h1v1l3-1c2 1-1 1-1 2l2 2 2 2v-1l2-1-1-2 3 1h3c0-1 0-1 0 0 1 2 0 0-1 1l1 1 1 1s0 0 0 0c3 0 0 0 1-1h1l1 1h2l1 3h1l1 2h1v1c1 1 2-3 3-3l1 2h1s0 0 0 0h1v2h2s1-3 3-3h1s0 0 0 0l2 1 1-1c1 0 0 0 0 0 0-2 1 0 1-1h6l1 1 1 1 3 1h2s0 0 0 0l-1-2v-1l-2-3 6-11c2-1 3 1 3-2l-2-2 1-1-4-5v-1l-2-2c0-2 2-4 0-6l-2-1-1 1c-2-1 3-6 4-7 0 0 0 0 0 0 0-5-4-9-6-13v-2c-2-2-1 0-3-1-1-1-1-2-2-1 0 0 0 0 0 0-4 3-16 3-21 2-1 2-4 3-6 2l-2-3v-1h1l-2-1c-3 0-6 3-9 4l-2 1c-2 1-2 3-2 3l-9 4-3 1h-1v2l2 5-2 5 4 3v3l1 1v2l-1 2 1 2v2h2v7zm-9-32h0m0 0h1-1zm1 0h0v0h0m0 0h0zm0 0h0s0 0 0 0zm0 0h0m0 0s0 0 0 0 0 0 0 0zm0 0h0m0 0h0zm1 0h0zm0 0h0zm29-13h1v1l-1-1zm94 204v4l-7 2-6 2c-2-2 1-2-4-2h-3-1-3c-2 0-1-1-1-2v-2c1-2 2 1 2 1l2-1h1v1h1l1 1 1-1 3-1h7l2-1c1 0-1 2 1 3l1-1 3-3m-17-65h0l3-1c2-1-4-3-1-4h1s0 0 0 0h1c1 0 4 2 3 4-1 1-2 0-2 2v2l-2 3v1c-1 0 2-1 0-2l-4 1c-3 0-3-2-5 0l-1 1c-3 2-2-1-4 0-1 1 0 2-2 3s-2-1-3 1c-1 0 0 0 0 0l2 3s0 0 0 0h1v-1 1c1 0 3 0 4 2 0 2-3-1-3-1h-4l3 2v2l-3-3h-1-1c-2 2 4 3 3 3h-3l-1-2-4-1c-2-2 0-2 0-3l-1 1-1 1v4l3 3 1 2c1 1 5 3 4 4l-3-1v1l-1 1s0 0 0 0l1 1s2 0 1 1l-4 2h1s0 0 0 0l1 1v-1h2l1 2 2-1 1 2 2-1 1 2c2 0 2-1 3 1v1l1 1v4h-1v-1h-1c0-1 0 0 0 0l-3-3-1 1-3 2 1 1c1 0 0 0 0 0v1l1 1 3 1c1 1-1 1-2 1h-3v-1s0 0 0 0h-2c-1 1 2 3 2 4v1h1l2 3-1 1c0 1 0 0 0 0v1l2 2h-1l-1-1s0 0 0 0c-2-1-2-4-5-1l1 3s0 1 0 0c-3 0-1-2-2-3 0 0 0 0 0 0l-2-2v-1c-5-1-1 3-2 4-3 1-2-2-2-3h-1l-1-2c0-1 1 1 1-1s-2-4-3-4h-1v-1c-1-1-3 0-2-2h1l1-3s0 0 0 0 0 0 0 0h2l2-2c1-1 2 0 3 1h4l2 2 1-1h-1c-1-2 2 1 3-2h-1v-1l-1 1h-2l-1-2-1 1c-2 0-1-3-2-1v1h-4l-3 2-2-2v1l-1 1h-1v-2l-1-2h-1l-1-1c-1-1-2 2-1-1v-1l-1-1-4-3v-1s-2 1-3-2h1s0 0 0 0c1 0 2 1 2-1l1-1-1-1 3-2v-4c1-2 1 1 2-2l-1-3 7-2c1-1 0-2 2-3h4l1-1s0 1 0 0c1 0-1-2 2-2h0s0 0 0 0v-1 1h2l1-1 3-1 5-3 1 1 1-1 1 1h1l1 1v-1l3 1s0 0 0 0l5-2h0zm-35 34c1-2-2 0-2 0 0-1-1-2-2-1l1 1h3zm-2 10l-1-1-1 1-1-2v1c-1 2-1-1 1-3v1l1 1s2 1 1 2zm30-7l-2-2c-1 0-3 2-4 0h1c-1-1-6-4-7-3l-1 1v-1l1-1 1-1 2-1 2 3h2l1 1 3-1v1s0 0 0 0l1 1 1 3c0 1 4-1 3 2-1 1-3 0-4-1 0 0 0 0 0 0v-1h-1 1zm-29-252l3-6c3-4 4-10 6-15l2-8v-2c0-2-8-5-10-6 0-1 3-5 1-7l-3-1c-3-4 0-2 0-3-2-2-3 0-4-2v-2c1-1-1-1-1-2v-3c-2-2 0-1 1-2l-3-3-4-7-2-1c-1-3 3-9 1-10l-2-1-2-3h-3l-1-2c-2-3 0-3-1-5 0-1-2 0-1-1l1-2c-3-1 1-3 0-5-2-3-5-2-7-4v-1 1c-2 0-2 2-3 2-1 1-1-1-2 1v1l-1 2v5l1 2c0 3 0 1-2 2v4l-2-1-3-1-1 1c-1 2-2 1-4 1h-1 0l-1-1-3-4c-2-2-2 0-2 1l-1 2h0l1 1c-1 0-1 0 0 0 1 1 3 4 5 4 2 1 3 0 5 2v1h1l1 1 1 1v5h0l2 1-1 2 3 4v5c0 3 2 4 3 6l2-1 1 2h2v1h1l1 4c0 1 3-1 2 2l-2 1-2 1v1s0-1 0 0l-1 2v1l-1 2v1l-1 2v1c0 2-2 2-2 3l-1 2h-1l-1 3v-1l1 1c0 3-1 1-2 2v2l-1-2-2 1c-1 2 2 1 2 2l-3 3c0 6 0 0 1 2v2h1v5h1l1 2s0 0 0 0l1 1s0 0 0 0c-1 0 0 0 0 0l1 2h-2l1 2v1h1l-1 1 1 1h-1l1 4s-1 0 0 0v1c2 3 1 0 2 0v1h2l1 1 1-1v1h1v-1 3l2-2 1-1h0c-1 2-2 3 0 4h2l-1 1 1-1v1l-2 1v1c3-1 2-3 3-4v1h2l1-1 3-1-1-1h3v-1s0 0 0 0l2-1 1-2s3 3 2 0l-1-1 2-1v1l1-3c1 1-1 3 1 2 4-1 1 0 2-2v1l1-1s-1 0 0 0l2 1 1-1v-1h0z"/>
  <path fill="currentColor" stroke="transparent" stroke-width="2" d="M263 248l2 5-2 5 4 3v3l1 1v2l-1 2 1 2v2h2c1 1 0 8-1 8s-3-5-4-2l1 1-3 2s0 0 0 0h-2l-1 2-1-1-1 2h-1v1h-2c-2 0-2 2-3 3l-1-1-1-1 3 4 1 1-1 2 2 3 2 2 2 2c1 1 5 2 5 4s-1 2-3 1v1l-1 2-4 3 2 3-1 1c1 1 2 0 1 3 0 0 0 0 0 0-3 0-1-2-2-2l-2 1v-1h-2v1h-4l-1 1h-1v1l-4 1v-1-1s0 0 0 0h-3v1l-3 2 1-1h-1s0 0 0 0v-1l-1-1h-1v-1l-2 1-3-2-2 1-1-1s0 0 0 0h-1v-1c-1-1-2 1-2 1h1v1c-1 0 0 0 0 0h-3-4s0 0 0 0c-1-1-1 2-1-1l1-4s0 0 0 0v-1l1-2 1-3c0-2 2-3 3-4l-5-2-1-1-3 1v-1c-2-2-1 1-2 0l-2-3h-1c-1-2 3-3 2-4s-3-1-3-3c-1-3 3-3 2-5h-1v-1-1l-2-2h1c0-2-2-2-1-3v1l2-2h-1l1-2c1-2-1-3-1-4v-1s0 0 0 0h1v-1l2 1 3-1c0-1-2-1-1-2s3-1 3-3c0-1-4-1-3-2h1v-1s0 0 0 0h2v-2c0-1 2-3 1-5h1c1-1 0-1-1-1h-1s0 0 0 0c-1-1 1-3 2-4l1 1c7-1-6-1 3-1h1c0 1 1 5 3 4 1 0-1-6 1-6l1 1h1l2-1 1 2c1 1 3 5 3 2l-2-1-2-3s-2 1-2-1v-4h-2s0 0 0 0v-1c1 0 2 1 3-1l-3-2v-2h2l3 1s0 0 0 0l1-1v1h3v1s0 0 0 0-1 0 0 0c0 1 0 0 0 0v2l-1 1h2v1c1 1 1-1 1-1l3 2s2-2 3-1c1 2-5 4-2 4h2c1 0 0 2 2 1l1-3c1 0 2-1 3 1v-1l2-2 1-2 2 1h1l1 1 1 1s0 2 1 1h2v1l1 2 1 1h1zm-7-6v-3l2 1-2-1 1-1v1h2v1l1 2-3 1-1-1zm-5-11l-1-1v-1c0 1 2 1 1 2 0 0 0 0 0 0zm-2-3h0zm2-1v-3-1-1l-3 1c0-2 2-1 3-1l-1-2h3l-2-2h2v-2h-1l-1-2-1-1-1-1-1-2v-1s0 0 0 0l-1-1-1-4h-1v-1c0-2 2-5 1-6-1-2 0 3-4 0l1-3-1-5 1 1h2c2-2-1-6 0-7l1-2v-1h-1l4-3v-2c1-5-1-4-2-8l3-1 1-4-5-4 1-6-1-3v-2-2-1c0-10-1 8-1-3l1-2v-1c0-2 2-5 3-5 4-3 6 1 7-3 0-4-3-3-3-5l3-7s0 0 0 0v-4l1-2-1-4h2l2-2-1-2 4-6c1-3-1-3-1-5-1-1 0 0 1-1l1-3 2-4 3 2v-7c1-1 7 2 8 1 2-2-1-1-1-2l2-3-1-2-1-1h3l1 1c1 1 3 4 5 4 2 1 3 0 5 2v1h1l1 1 1 1v5l2 1-1 2 3 4v5c0 3 2 4 3 6l-1 1-1-1v1l-2-1v2c-2 1-3-1-4-1v1s0 0 0 0v2s0 0 0 0l-2-1s0 0 0 0c-1 1 2 1 2 2h-2 1v1s0 0 0 0 0 0 0 0c-1 1-3 0-3 2h1l1 1c1 2-2 3-2 4 0 2 3 3 3 4l-2 3-1 6-1-1v1h-1 0v1l-1 1-1 1h-1v1h-1v1l-1 2h-1c-1 0 0 0 0 0v0h-1l1 1h-1s0 0 0 0 0 0 0 0v1l-2 1h2l-1 2h-1-1 0v4h-1-2c-1 1 1 2 2 3 0 0 0 0 0 0s0 0 0 0v2l-1 1v2h1v2l-2-1c-2 1 2 2 1 4 0 1 0 0 0 0v1s0 0 0 0v3h0s0 0 0 0l1 2v1s0 0 0 0l1 1h3v1l2 1s0 0 0 0v1s5-2 2 1l-1-1v1l1 1h1l1 1c1 1 2 1 2 3h-1l-1 1-3 2 1 1h-1l-2 1v-2l-1-1s0 0 0 0l-1-2-1 1h1v2s2 0 1 1c-1 2-3-2-4-1l-1 1-2-1v1s0 0 0 0h-2v1l2-1c1 0 2 2 3 1l-1-1 1 1h2v2l1-1h-1 3l1-1h1l2-1 1 1h-2s0 0 0 0l1 2h-1l-2 1v2l-1-1v1s1-3-1-3c0 0 1 4-1 5h-2l1 1h-1v1s0-1 0 0c0 0 0 0 0 0h-5 1s0 0 0 0h1s0 0 0 0l3 1h-1v1h-2 2l1 3h-2l2 3h-2v1l2 1c0 1-2 1-1 2l1 1h-1v2 3s0-1 0 0v3h-1l1 1c-1 3-1-2-1 1l-2 6h-1l1-1h-2s0 0 0 0l-1 1-1-1-1 1-1-1-1 1v1h-2l-1 1c-2 4 1 3 1 5l-1 2-2-1-4 1h-2-1l1-1v-1l1-1-3-4-1 1c0 2 2 1 0 3 0 0 0 0 0 0zm27-21h1l-2 9-1 4-1-4 3-7v-2zm12-2l-1 1-1 1-1 2-1 2v-2s0 0 0 0 0 0 0 0l-1-2v-2-1l3-5h1c1 1 0 1-1 3-1 3 2 2 2 3zm3-94v0zm-6 23s0 0 0 0 0 0 0 0zm-39 93v-1-1h0s0 0 0 0v2zm-120 7l1 1h-2l1 1-1 2 1 2-1 1 1 1h-1v1s0 0 0 0v3l-4 6s0 0 0 0v2s0 0 0 0h-2s0 0 0 0h-3v-1l-1 1-3-1 1 1-2 1-1-1-1 2c-2 1-1-2-3-2l1 2h-2v1h-1v-1l-1 1-3-1-1 1c-2 0 1-1-1-1h-3l4-2h-1-4l1-1s0 0 0 0 0 0 0 0h2s2 0 1-1l-4 1-1-3 1 1v-1l2-1h2l-1-1v1l-4-2h1s0 0 0 0h2l2 1v-2l1-1 1-1 6 1-1-1s0 0 0 0l-3 1 1-1-1 1-1-1s0 0 0 0h-3 1l2-1h1v-2h0l1-1 1-1h2l1-1h-4c-2-1 0-1 0-2-1-2-3-1-4-2-2-2 2-1 2-1v-1l1-1h2s0 0 0 0c2-3-2-1-2-1l1-1v-1-2l-1 1 1-1v-1l5 1v2l1-1c1-1 3 2 3 2v-2l2-1 2-1h-1-1v-1s0 0 0 0l-2-1c0-2 2 0 3 0l-1-1h1v-1s0 0 0 0c1-2-3 0 2-2 0 0 0 0 0 0l4 1-1 2 1-1v-1l2 1h0c-2 0-2 3-3 3h-2l1 2-4 1 4 4c4 0 0-2 3-2l1 2 1 1v2c3 1 1-1 2-1l1 1h-1z"/>
  <path fill="currentColor" stroke="transparent" stroke-width="2" d="M139 242c2 1 3 2 1 3m-1 0s0 0 0 0h0c-1-2-2-2 0-3m9-58l2 1-1 1 1-1 1 1c0 1 0 0 0 0h8l-1 1v2l-6 4c-2 2 0 0 1 1v1h-2s0 0 0 0h-1c-1 2 1 2 1 2v-1l1 1 4-1 1 1c2 0 7 0 7 2v1l-2 2v2l-5 6-4 1h1l1-1c2 0 1 1 1 1l1 2c0 2-2 0-3 0-2 1 3 2-3 1v1h1l2 1 1-1 4 2 2 4h1v1l-1 2 2 9s0 0 0 0h1l3 2v3l2 1-1 1 2 5c0 2-1-1-1 1 0 0 3 4 1 5-1 2-2 0-2 2-1 1 0 0 0 0l1 1 1 1c2-1 0-2 2-2 3 0 8 2 7 6 0 2-2 6-4 6h-1c-1 1 3 1 0 2h-1v-1l-2 1h1v2h-3l-1 1h1l1 1 1-1 1 1c1 1-3 0 0 1l3-1v3l-3 1-1 1h-1l-3 1-1 1-3-2h-5v0h-1v-1 1-1c-1-1-1 1-1 1l-2-2 1 1h-5v2h-1 0l-2-1-1 1 1-1-1-1c-2-1-5-2-6-1 0 0-1 4-3 5l-3-3v1l-4-1-1 1h-2l-1 2-1-1-2-1 3-1 1-1s0 0 0 0h1l1-2h1l1-1 1-1 1-2h1c2 0 0-3 5-2 1 1 3 3 5 2l1-2 4-4-2 2h-2s0 0 0 0c-2 0-2 2-4 1l-2-3h-3v-3l-1 1h-2l-1 1-2-1 2-1h-2v-2c0-2 3-1 3-1l1-1h2c1 0 4-2 4-4v-4c-2-2-3 4-4 0l3-1v-1-1h1l3-1s-1 0 0 0l1 1h2l2 1-1-2 3 1h-1l-1-3 1-1h1l-1-1c-1-3 2-1 2-2l-1-1 1-1c0-2-1 1-2 1v-3l-1 1v-2l-1-2 3-4v1l2-1h-2l-1-1-1 1h-2l-1 1s0 0 0 0v-1l-1 1s0 0 0 0l-1-2c-1-1 0 1-1 2l-1-1c-2-4 0 0-3-2h1l1-3 2-2 1-1-2-3h1v-2h2l-2-1 1-2v-1l-4 2v3h-1v2l-1 1v1h-2l1-1 1-2 1-2h-1l1-2h-1l1-1 1-3 1-1 1 1-1-1c-1-1 3-2 3-2h-1l1-1h-1l-1 1-3 1s0 0 0 0l1 1c-1 1-4 2-5 1v-1c2-1 0 2 3-1 1-2-5-1-1-2l1 1s0 0 0 0v-1h3c1 0-5 0-4-1h3c0-1-2-2 0-2h2c2-1-1-2-1-2h2v-2-2s-3-3-1-4l1 1c1 0 0-2 1-1l2 1-1-3h1v-2 1h2l-1-1c0-2 1-1 1-1s0 0 0 0h1l-1-1 1-1zm25-17l1 1h-1 1c1 0 0 0 0 0v1h-1 1l-1 1-2 4 1-1 1-3-2 1-1-2h3v-2zm-11 16c-1 2-6-3-3-3l1 1v1h1l1 1zm-38 37l1 1 2-2 1 1 2-1 1 1h1v3c1 4 1-1 2 2l-2 2c1 0 3-1 2 2 0 4-2 2-3 3-1 0 0 2-2 1h-1v-1h-2v-1l-1-1s0-3-1-2c-4 0 1 2-3 2l-4-5h3l-1-2h3c1-1 0-3 2-3h0zm17-35l-2 2-1 2-1-1-1 2v-1l-2 2-1-2h2l-1-1 1-1s0 0 0 0l-1-1c1-2 2 0 3 0v-1h1l1-1 1-1 1 2zm1 46h-1l-1 2c-4 3 2 2 2-2zm90 88v2s0 0 0 0l-1 2 1 1v1h2s0 0 0 0l2 2 2-2c2 0 0 1 1 2h1l3 1 1-3h5l3-1-1 1 2 1v1s0 0 0 0c2 1 2 2 5 2l7 1h5l1 1v-1l2-1v-1h5l1-1h3v-2h0c2-2 3-2 3-4l-1-3 2-1c0-2-2-2-2-2l5-1v-3l-3-4c0-1 2-3 0-4 0 0 0 0 0 0l-2-1-1 1h-2l-6-2-2 1v-1h-1v3h-1l-1 2-2-1v1c-2 1-3-1-4-2h0v1c0 2-1 2-3 1v1l-1 2-4 3 2 3-1 1c1 1 2 0 1 3 0 0 0 0 0 0-3 0-1-2-2-2l-2 1v-1h-2v1h-4l-1 1h-1v1l-4 1v-1-1s0 0 0 0h-3v1l-3 2 1-1h-1s0 0 0 0v-1l-1-1h-1v-1l-2 1s0 0 0 0v0h0z"/>
  <path fill="currentColor" stroke="transparent" stroke-width="2" d="M287 304c1-5 4-1 7-4v-1h1l1-3c0-2 2-3 4-3l-1-2h-1l-1-3h-2l-1-1h-1c-1 1 2 1-1 1 0 0 0 0 0 0l-1-1-1-1c1-1 2 1 1-1 0-1 0-1 0 0h-1-1-1l-3-1 1 2-2 1v1l-2-2-2-2c0-1 3-1 1-2l-3 1v-1h-1s0 0 0 0v-1l-4-1-1-2c-3 0 0 2-2 2l-1 1c-1 0-3-5-4-2l1 1-3 2s0 0 0 0h-2l-1 2-1-1-1 2h-1v1h-2c-2 0-2 2-3 3l-1-1-1-1 3 4 1 1-1 2 2 3 2 2 2 2 5 3h0c1 1 2 3 4 2v-1l2 1 1-2h1v-3h1v1l2-1 6 2h2l1-1 2 1s0 0 0 0l1 1z"/>
  <path fill="currentColor" stroke="transparent" stroke-width="2" d="M328 293l-1 3v2l-1 1v2l-2 1-1 1c-2-1 0-3-3-3l-2 2c-1 0-3-2-4 0l-2 3h-1c-1 1 1 2-1 2l-3-1v2l-5 1v3c1 0-7 2-8 1l-4-2h-1l-3-4 1-3c1-5 4-1 7-4v-1h1l1-3c0-2 2-3 4-3h1v1c1 1 2-3 3-3l1 2h1s0 0 0 0h1v2h2s1-3 3-3h1s0 0 0 0l2 1 1-1c1 0 0 0 0 0 0-2 1 0 1-1h6l1 1 1 1h3z"/>
  <path fill="currentColor" stroke="transparent" stroke-width="2" d="M284 324h0l2 5c3 1 5 2 7 5h2l2 1h6v-2l3-1h2l2-3c2-1 0 0 2 1l2-1h2l3-1c0-1-1-1 1-1h1c2-1 1-4 2-5h1l1-3v-1-1l1-4h1c0-1-1-3 1-4l3-1 1-2v-2h-2l-1-1h-1c-1-1 0-2-2-2l-2 1-1 1c-2-1 0-3-3-3l-2 2c-1 0-3-2-4 0l-2 3h-1c-1 1 1 2-1 2l-3-1v2l-5 1v3c1 0-7 2-8 1l-4-2h-1 0v3l-5 1s2 0 2 2l-2 1 1 3c0 2-1 2-3 4h0l1-1h1zm35-90s0 0 0 0c1-1 1 0 2 1 2 1 1-1 3 1v2c1 1 4-1 4-1h2l1-1h2l-1-2h2c2-1 0-1 1-2h2v1l1-1c1-1-1-1-1-1v-6s0 0 0 0c1-3 0 0 2-2v-2l2-1v-1h1l-2-1v-3 0h-1c-2-1-4-4-6-4h-3l-3-3-1 3h-2-1-3-3v1c-1 1-1-1-2-1l-1 1h-4l-4 3-1 2h-1 1v4l1 1 1 2v1s0 0 0 0v1h1s0 0 0 0l4 1c1 0 0 0 0 0h4l1 1s0-1 0 0h1c1 1-1 4 1 6zm-14-13s0 0 0 0l1 2-1 3h0l1-2v-2c0-1 0-2-1-1z"/>
  <path fill="currentColor" stroke="transparent" stroke-width="2" d="M304 217h1l1-2 4-3h4l1-1c1 0 1 2 2 1v-1h9l1-3c1 0 1 3 3 3h3c2 0 4 3 6 4 2 0 2-3 4-3h1s0 0 0 0h2v-3l2-2c1-3-2-5-3-6l-1-2-1 1s0 0 0 0v-1-2h-1c0-1 2-2 0-3h-2v-1h-1-3l-2 1-3-2v-1h-2s0 0 0 0h-1l-2-1c-1 0 0 0 0 0s0 0 0 0h-1l-5 3h0v1c1 2 3 4 2 6 0 2-2 4-3 4h-2l-1-1-1-3-4-1v-2c-1-1-2 1-2 1l-3 2c-2 2-1 4-1 7l-2 2v3s0 0 0 0h0l1 5zm82 125h-5l-1-1h-2l-2 1c-2 0-1-2-5-1l-5 4-4 4h-5l-4 1-1 1-8-1c-2 1-2 2-4 1-2 0 1-2 1-3-2 0-6-1-6-3l3-2c-10-4-1 0-5 2-1 1-1-1-2-1h-3v-1c0-1-4 0-2-1l1-1-1-1s2-1 0-2c-1-1-4 0-6-2v-3 0s0 0 0 0l-2-2h-1l-2-2h1l3-1c0-1-1-1 1-1h1c2-1 1-4 2-5h1l1-3v-1-1l1-4h1c0-1-1-3 1-4l3-1 1-2 2-2v-1l3 1s0 0 0 0h5l2-1 4 2c1 1 1-2 2-2 1-2 5-2 6-3 3-2-1 0 1-2l2-1v-2h0v1l3 1 4 5c2 2 9 6 9 10l1 6c0 1 2 3 1 4v1h1v1h1v1h4s-1 0 0 0l2-1 2-2c2-1 3 0 3 2 0 0 0 0 0 0s0 0 0 0 0 0 0 0l1 4-4 2-1 1v-4l-1 1c-1 1 1 2 1 2 0 1-2 1-1 2l1-1v1s0 0 0 0 0 0 0 0l-1 4 1 6h0v0z"/>
  <path fill="currentColor" stroke="transparent" stroke-width="2" d="M373 369h-2c-3 1 3 3 1 4l-3 1-5 2s0 0 0 0l-3-1v1l-1-1h-1l-1-1-1 1-1-1-5 3-3 1-1 1h-2s0 0 0 0v-5l-2-3h-2l-3-2 2-2-1-1s0 0 0 0v-1l-1-2c3-4 0 1 3-1 0 0 2-3 1-4l-4-2c-1-1-3-5-2-6l1-1 1-2 3 1c0 1-3 3-1 3 2 1 2 0 4-1l8 1 1-1 4-1h5l4-4 5-4c4-1 3 1 5 1l1-1h3l1 1h5v5l-1-1c-4 1-2 1-3 3v1s0 0 0 0l1 3v2h-2l1 1-1 1s0 0 0 0l-1 1c-2 2 2-1 3 2 0 0 0 0 0 0l2 2 1 1h0-2l-2 1v1c-2-1-2-2-4-1l-2 1h-2v2c0 1-2 1-1 2zm-53-176l5-3h1s0 0 0 0-1 0 0 0l2 1h1s0 0 0 0h2v1l3 2 2-1h3v-2h1l-1-1s0 0 0 0l2-1-1-1v-1l-2-2v-2l-2-4 1-3v-2-1c1-2 2-1 0-2l-1 1h-10-1c-1 0 3 1 0 1l-1-1v1l-1 1-3 1-1-1v1l-4 2 1 1-4 1c-1 4 1 2 2 3l-1 3 2 2 1 2h1l1 1c1-1 1-4 3-2l-1 1 1 2-1 2h0zm-9-6l2 1c1 1-1 0 0 0h-1v2l-1-1v1l-1 1-1 1h-1s0 0 0 0v3l-1 1v-3c0-1 0 0 0 0l-2-1 1-1c0-1-2-1-1-2l1 1v-2l1 1c1-2 2-2 4-2zm-3-5s0 0 0 0l1 1h1c3 1 0 1 0 1-1 2 2 1-2 2l-1-1-2-1h2l1-2zm-53 177s0 0 0 0c1-1 1 2 0 0zm-47-62l-1-1-2 1v-1h-1v-1c2 0 0-3 0-4s2-4 3-2v1c0 2 2 2 3 3s-3 2-2 4z"/>
  <path fill="currentColor" stroke="transparent" stroke-width="2" d="M182 276c0 1 0 5 2 5l2-1 1 3 3 1-1 1 4 1v4h3l2-2v1l-1 1 1 1-1 1 2 1 1 1 1-1v1s0 0 0 0 0 0 0 0l1 2 2-1v1h1v1l2-1 1 1h1l2 3c1 1 0-2 2 0v1l3-1 1 1 5 2c-1 1-3 2-3 4l-1 3-1 2v1s0 0 0 0l-1 4v1c-3 3-2 0-4 1 0 0 0 0 0 0 0 1 0 0 0 0l-1 2h2-1l-2 3-3 1v2l-2 2v4s-1-1-1 1h-1l3-1v-1s0 0 0 0c1-2 3-2 4-1v3h1l-1 1h1l1 2c-4 2-2 1-1 3v1l2 1-3 4-1-1-1 1 3 3v2h-1 1l-1 1v2l3 3h2l1-1c1 1-2 3-1 5l-2 1s0 0 0 0 0 0 0 0h-1l-1 1h-1l-1 2h-1s0 0 0 0l-1 1v1h-2l-2 2-2-1c-1 0 0 0 0 0s0 0 0 0h-1l-1-1h-1l-1-1-1-1c0-1 0 0 0 0h-2l2-1-2-2v2h-1c-2 0-1-2-2-2-1 2 2 2 1 3-3 1-1-1-1-1l-4-1c0-1-1-2-2-1l-3 3-4 1v1l-1 2v3l2 2h-5s0 0 0 0c-1 1-3-1-3-1l-2 1-1-1-2-1c1-1 1-2-2-2 0 0 0 0 0 0v0l-1-1h-1s0 0 0 0l-4-2v1h-3s0 0 0 0l-2-1-1 1-1-2h-4l-1-2-4-2v-1l-1 1v-2l-1-1s0 0 0 0l-1-1h1c2-2 3-10 4-12l1-2 1 1c1-1 0-2-1-2v1-2l2-7c1-1 2 1 2 2l1 3 1 2v-1l-1-1v-4l-2-2-1-1h2l-2-2 1-2v-1-2s0 0 0 0 0 1 0 0l-1-1h-1v-1c-2-1-1 2-3-1v-2h-1l-1-2 2-2-2-1v-2h0c-3 0 0-1 0-3h-4l2-2h-1s0 0 0 0h-1-2v-2l-2 1-2-2h-1c-1-1 1-2-1-2v1h-2l-1-2-2-1h4l-1-3v1h2l-2-1 1-1c1-1-5 3-3-2l4-1c1 0-1 1 1 1l1-1 1 2 1-1h1l1-1h2l1 1s0 0 0 0c1-1 2 3 2 4l1-1h1l2-1s0 3 2 2v-2l1 2h4l-2-3 1-1-1-1 1-2h-1v-2h-1v-2h1l-1-2s0 0 0 0l2 1h3v1s0 0 0 0v3h2l4 1 1 1 3-1h1c-1-1-2-1-1-3s7-2 8-3l2-1h2l-1-2v-1h0l1-5 4-1 3-1zm48 94c2 1 0 3 0 4l1 1-1-1 1 1v3l-1 4-1 4s0 0 0 0 1 0 0 0v1l-1 1c-1 2 0-1-1-1s-2 1-2-1v-1l-1-1 1-2h-2l1-1-1-2 1-1-1-1h1v-2h1l1-1h1l1-1 1 1v-2l1-2zm-20-7l2-2-2-1-1 1 1 2c1 0 0 0 0 0zm-7-108l-1 2c-1 3 3 1 1 2l-2 1 1 2-1 1h1s2-3 4-2l-1-1 1-2-2-1v-1-1h-1l-1 1h-2-1l-1 6-3 4-1 1h-1l1 2c-1 1-4 0-3 1l2 1h1v1h-1l2 1c-1 2-3-2-3-2l-3 1 3 1s0 0 0 0h1l2 1s0 0 0 0h1s-1-2 1-1c0 0 0 0 0 0h2l-1 1c2 1 1 0 2-1l1 3 5 1-1 1v2h-1c0 2 1 2 3 2h0l-1-1h1c0-2-2-2-1-3v1l2-2h-1l1-2c1-2-1-3-1-4v-1s0 0 0 0h1v-1l2 1 3-2s-2 0-1-1 3-1 3-3l-3-2h1v-1s0 0 0 0h2v-2c0-1 2-3 1-5-1 1-1-2-3-3l-9 3-1 1zm-15 19c0 2 2 0 3 1v1l3-2h-2l-2-1h-2v1zm98 55l-2-1v2h-1l-1 1-3 1c-1 1 2 3 1 4-3 3-1-1-3 2l1 1h-1v2c-1 1-2-1-3-1s1 2-1 1l-1-2h-1v1c-1 2-3 0-4 1 0 0 0 0 0 0h-3s0 0 0 0l1-1c3 0-1-2-1-2v-2c0-1-2 1-2-1l2-2c-1 0-3 0-2-1l2-2h6l1 1v-1l2-1v-1h5l1-1h3v-1c-1-1 0-2 2-2l2 5zm-55-92l-3-1h-2v-2l1-1-1-2v-1c-1-1-3 0-3-2v-3h1c2 2 0-2 0-2v-1l-1 1s0 0 0 0v-2-2h1v-3 1c1 2 5-3 5-3 2 0 0 3 0 3h2s0 0 0 0v-1h-1v-1c1-2-1-2 1-3h1v1l1-1h4v3h-1l1 1v1l1 1c1 0 3-2 3 0 0 1-2 5-3 4l-1-1c-1-1-1 4-1 4l-2 2h-2l2 1v0h0l1 1 3-2 1 1h1v1c0 1 2 5-1 5l-2-1h-1c-1 0 2 0 0-1s0 1 0 1l-1-3-2-1h1-2 1l-1 1 1 1v1l-2 2h1l2 2-1-1-2 2zm-85-87v0zm1-9c-1 2 1 0 1 1h-1l1 1v1-1c-1-1-3-2-1-2zm101 81v1l3-1v5l-1 1c-1 1 0 1 1 2v1l-3 1c1 1 3 2 0 2h-2 1l-1-2s0 0 0 0h-3c1-2-1-1-1-2h1c1-3 0-2-2-3v-1c1 0 5 0 4-2l-2-1h1l2 1c1 0 3-1 3 2-1 0-2 0-1 1v-3l-1-1 1-1zm1 14h0v1h-1v1h0v0h-2l-1 1-2-2h-1l1-2 5 2h0l-2-2h1l2 1s0 0 0 0zm-26-12v0s0-1 0 0zm15-17c1 1 0 6-2 5h-1-5s0 0 0 0h-2l-1 1c-1 0 0-3-1 1v3c-3 0-1-5 0-6l5-1 4-4 2-1 1-1c2 0 0 1 0 1v2zm8 29v1h1l-1-1z"/>
  <path fill="currentColor" stroke="transparent" d="M277 448c2 1 3 0 2 1s-2 0-2-1zm5 2c-2 1-6 0-2 1 3 1 4 3 3 1l-1-2z"/>
  <path fill="currentColor" stroke="transparent" stroke-width="2" d="M306 371v1h1v1c1 2 1 0 3 1 0 0 0 0 0 0l2 2v1l2 1v-2-1l-1-1 3-6 1 3 2-2v-2h1v-1l1-1-3-2v-2l-5-2-1-1-1 1-2 1c-1 1 1 1 1 3h-1 1l-2-1v-1 1l-1 3-2 1c0 3 3 3 1 5h0v0z"/>
  <path fill="currentColor" stroke="transparent" stroke-width="2" d="M319 369l2 3h2c2 2 1 3 1 4h0c3 2 1-2 2-2l3-2 1 1v-1c1-2 2-1 3-1 2 0 4-3 5-2l2-2-1-1s0 0 0 0v-1l-1-2c3-4 0 1 3-1 0 0 2-3 1-4l-4-2c-1-1-3-5-2-6l1-1 1-2c-2 0-3-1-3-2l3-2c-10-4-1 0-5 2-1 1-1-1-2-1h-3v-1c0-1-4 0-2-1l1-1-1-1s2-1 0-2c-1-1-4 0-6-2v-3 0s0 0 0 0l-2-2h-1l-2-2h-1l-2 1c-2-1 0-2-2-1l-2 3h-2l-2 1h1v4h1l1 1-1 1 4 1c0 2-2 0-2 0v3s0 0 0 0l-1 2 3-1c0 2-2 4-1 6 0 2 0 0 2 1l1 2h1c0 2-2 0-3 1 0 0 4 3 3 5l4 2 1 2 3 2c1 1-2 1-1 1 1 1-1 1-1 1v2z"/>
  <path fill="none" d="M50 40h415v411H50z"/>
</svg>
