<svg xmlns="http://www.w3.org/2000/svg" version="1.0" viewBox="0 0 1280 878">
  <defs/>
  <path d="M6 3l2 1V3L7 2v1zM3 5l1 2c2 0 1-2-1-3v1zM7 7c-2 2-2 5 1 10 2 4 17 18 19 18l5 4 6 7 3 6c0 3 1 5 5 5 4 1 12 7 12 9l2 9 3 9 4 3 6 5 4 7 4 5 4 8 4 9c0 2 2 5 5 8l4 6 5 5 7 7c1 2 5 6 11 10 4 3 12 9 16 14l8 8 2-3c1-1 2-2 4-1 3 0 3 0 3-2s0-2 4 1c2 2 3 3 4 2s3-19 2-22v-5-5c-1-1 0-2 1-4 3-3 3-6 0-7l-4-5c-2-3-3-4-6-4l-7-1v-1c1-1 1-1-1-3l-4-8-1-6-5-1c-4 0-6-1-7-2-3-2-3-3-1-5l3-2v-1h-3l-1 1c-1-1 2-5 4-5s1-4-2-6-4-2-7 0h-2c1-2 1-4-2-5l-1-1 4 2 3 2v-3l-2-2c1-1-3-5-5-5-3 0-2 2 1 3l2 2-4-3c-3-2-4-2-5-1v3l-1 1-1-4c-1-4-6-8-9-8-2 0-2 0 0-1s3-5 1-6l-4 1c-1 2-2 2-2 1 0-2-4-5-6-5l-1 3c0 2 0 2-1 1l-3-2-3-4-4-4-1-1-3-4-6-5-6-4-7-4-3-5-3-3-2-3-3-5c-4-3-4-3-14-3-9 0-10-1-15-4l-5-3-3 2zm111 79l-3 1h-2l2-1 3-1v1zm29 87v2h-1c-2-2 0-4 1-2zM472 23l-1 2-1 4v3c2 3 4 4 4 2l-1-1c-1 0-1-3 1-4l1-2c0-2-2-5-3-4zM309 27l-2 7c-1 9-2 10-5 11-3 2-4 7-2 7l-2 2-3 4-1 6c-2 3-2 3-5 3l-7 1c-4 2-5 2-11-1-4-2-5-2-9-1l-6 3c-1 3-3 4-12 5l-10 1c-2 1-4 0-8-4l-7-9-1-3-3 2c-3 3-6 8-6 10v1c-3 1-2 11 1 15 2 3 2 3 1 5v6l2 3 2 2c2 0 2 0 1 1-3 3 1 6 4 4 1-2 2-2 3 0 2 2 2 2 1 5s-2 4-1 5c2 1 4 9 4 13 0 3 0 3 3 2l3 1 16-1c1 0 2 5 1 7 0 2 2 3 5 0h5c2 2 6 0 8-4 1-2 1-2 3 0l4 2c1-1 2 0 2 1 1 2 1 2 5 2 6-1 10 1 10 6l1 4 8-2 9-4 2-3 1-1v4l1 5 3-1c1-2 1-9-1-12l1-3c2-1 2-3 2-4v-2c1 0 3-2 3-5l-2-2v-2-3l2-4c2-1 2-3 2-4h1c1 1 2 0 4-2l5-3c3-1 3-2 4-4 0-2-1-3-2-3l-1-5c1-6 4-13 6-13l2-1h3c4 2 12 1 12-2l-8-7c-9-7-9-7-7-9l1-3c0-2-8-13-10-13v-3l-1-3 3-1c5-1 6-3 2-4-3-1-4-2-2-4v-1l-3-1-12-1c-9 0-11 0-12 2z"/>
  <path d="M338 29l-1 1c1 1 5 0 5-1h-4zM456 35c0 3 1 5 3 5v-4c-1-2-3-3-3-1zM340 38l1 1 1-1-2-1-1 1zM336 39l1 2 1-2c0-1-1-2-2 0zM13 48c-1 1 7 7 10 7s2-1-3-5-6-5-7-2zM451 50l1 1 1-1-1-2-1 2zM495 53c-3 2-3 2-2 5l3 2c4 0 7-9 3-10l-4 2zM351 57l1 1v-1l-1-2v2zM34 58v2l1-1h1l1-1c-1-2-3-2-3 0zM26 58l1 1 1-1-2-1-1 1z"/>
  <path d="M486 60c-3 3-6 13-4 16v2c-2 2-2 2 0 3s2 3 3 7c0 5 1 6 5 10 6 7 8 7 4 0-3-4-4-6-4-10v-5l7 2 6 1c0-2-3-5-6-6l-3-2 3-2c3-1 4-3 4-5 1-5 1-5-2-5s-7 3-7 4c1 1-4 6-5 6l3-5c2-4 3-5 1-7-2-1-2-2 0-4 1-3 1-3-1-3l-4 3zM54 65l1 1 1-1-2-1-1 1zM444 65l-1 1-2 2-2 2-1 2-4 2c-2 2-4 2-14 2l-12-1-6-2-10-2-5-2c-2 0-6 5-6 7l-1 1c-2 0-3-1-2-3v-1c-1 0-6 6-6 8l-2 1-1 5c0 8-1 11-2 13-4 2-6 9-6 13 1 4 1 5-1 6l-1 3c0 1-1 4-3 5-2 3-3 4-2 5l1 5c0 6 1 6 6 4l2 1 2 5c1 4 1 9-2 18-1 4-1 4 1 6 2 3 5 4 7 2l4-1c4 1 4 1 3-2v-5c1-14 1-27-1-29l-1-2 9-5c2 0 2 1 2 3l-2 7c-1 2-1 2 3 6l5 4c2 0 2 1 1 6v4c2 3 11 4 10 0-1-2 2-3 6-3 3 0 4-1 5-2v-2l2-1 4-1c0-2-3-3-5-1-2 1-3 0-6-2-3-3-3-4-3-6l1-3 1-2-1-1-1-1-7-9c-6-6-7-8-5-7 1 0 3 0 4-2l6-3 7-6c4-4 7-5 7-3s3 1 4-1c2-3 0-5-6-5l-5 1-3 1-5 1c-2 2-7 2-7 1-1-1-3 0-6 3-5 6-8 6-10 1l-3-3c-2 0-5-5-5-8 0-5 3-11 5-12h17l24 1c2 2 4 2 9 2 8-1 10-3 15-9l6-8c3-3-1-6-5-4zM106 66c0 1 3 4 6 4 2 1 3-1 1-3l-7-1zM35 68c-2 0-1 1 3 7s6 7 7 6c2-2 1-7-3-11-4-3-4-3-7-2zM134 73l-2 3-2 2c1 1 5 0 4-1l1-1 3 2 1 2v-5h1l3 3c1 2 3 0 3-3l-2-2h-10zM125 74l2 1v-1l-1-1-1 1zM187 75l1 1 1-1-1-1-1 1zM126 77l2 4 1-3c0-2-2-3-3-1z"/>
  <path d="M480 77v1l1-1v-1l-1 1zM536 82v1c2-1 3-3 1-3l-1 2zM141 85v2l1 2c2-1 2-1 1 2l-3 3c-2 1-2 1-1 3 2 3 6 2 5-1 0-2 1-2 3-2 2 1 4 0 2-2v-2h-3c0-2-4-6-6-6l1 1zM481 85l1 1v-1l-1-1-1 1zM55 87l2 1c3 1 4 0 2-1h-4zM481 89l1 2 1-2-1-2-1 2zM51 90c0 2 4 6 5 5l-4-6-1 1zM366 90l1 1 1-1-1-1-1 1zM511 91l3 2-1-3c-3-2-5-1-2 1zM528 91c-3 1-4 2-1 3v3l1 1 2-1 2-1 1-1h4l3-1c0-4-7-6-12-3zM396 92l1 1v-1l-1-1-1 1zM404 93h-1l-2 1-3 1-2 2 1 1 9-5h-2zM476 94l1 2h2c1-2 0-3-1-3l-2 1zM52 95c-2 1-1 3 1 3 1 1 2 0 2-1s-2-3-3-2zM481 97c0 2 0 3-1 2l-2 1c-1 1-1 1 3 1l4 1h4c1-1 1-1-1-2-1 0-2-1-2-3s-1-3-3-3-2 0-2 3zM550 97l-8 3c-3 1-4 1-4 3l-1 4c-1 1-1 1-1-1 0-3-1-4-4-2-2 0-2 4 0 5l3 2c2 1 3 2 5 1 3 0 8 2 8 5 0 5 8 7 21 6l8 1c0 2-1 3-2 2l-5-1c-3 0-5 0-7 2s-3 2-7 2l-6 1c-1 2 0 4 2 4 3 0 11 8 9 8l-1 2c0 3 4 7 6 7 1-1 2 0 3 1l3 1c2 0 2 0 1-1l-3-2 1-3 2-4 8 5h9l-1 1v2c2 3 7 5 12 5 3 0 7 1 12 4l11 4 8 3 6 3 1 2 1 2v1l1 1 1 3c1 3 6 9 10 12h-2c-5 0-5 1-1 3l1 2h-3l1 1 4 2 1 2-2-1c-2-3-7-2-11 1-2 1-8 10-8 12l6 1c6 0 6 0 10-4s4-4 3-2c0 3 1 5 3 3l7-1 6-1c1-1 2-1 2 1-1 1 3 5 7 9l8 7h21c2 1 4 0 8-1 6-3 7-5 5-8h4c-2-2-2-2 0-2l1-2c-1-2 1-4 3-5s2-1 0-4l-1-2 3 1 3 1h3l1-1h3l10 4 9 2 8 12 2 2 4 4c0 2 2 3 3 4 2 0 4 2 4 3l4 4 14 3c13 1 19 2 18 4 0 1 8 3 11 1 3 0 3-3 0-3-2-1-2-1 1-1 4 0 5-2 1-2s-9-2-12-4l-2-1 3-2c3-1 2-2-6-3-5-1-5-2-4-6 1-2 0-2-5-2s-6 0-7-3l-3-5-1-4c-1-1-3-3-5-3l-3-3-3-3c-3-1-4-3-5-7l-2-5h6c8 0 9-2 5-7-2-4-3-5-7-5l-8-3-8-3-6-2v-5c-1-6-3-8-8-10l-3-3v-2l-1 1-2-1-4-3-4-1c-3 0-5-1-8-3-2-2-6-3-9-4-6-1-10-2-23-8l-10-3h-3c-1-2-8-4-12-3l-7-3a190 190 0 00-20-8c-4-3-7-2-12 1l-3 4c1 2-3 4-8 4l-4 2-3 4-3 4-4 5c-4 4-11 2-11-3l-1-2c-1 1-1 0-1-1 0-4-1-7-3-7l-1 3v2l-2-3c-2-3-3-6-1-9v-2c-2 1-2 0-1-2v-6l-2-6-5-1-10-3c-7-4-10-4-15 0zm172 111v1l-1-1v-1l1 1zm-18 3v1l-1-1v-1l1 1zm14 2h-2l-1 1c1 1 1 1 0 0-3 0-2-2 1-2l2 1z"/>
  <path d="M599 100l3 2c2 0 3 2 3 3 1 2 2 3 4 3 4 0 7-2 5-3l-4-3c-3-2-11-4-11-2zM529 101c-4 1-5 3-1 2l5-2h-4zM58 103c-4 1-3 8 3 12 6 5 7 1 2-7l-3-6-2 1zM591 104l2 2c1 0 1-2-1-3l-1 1zM415 107c-2 1-3 6 0 6 1 0 6-5 5-6h-5zM517 107v1l2-1v-1l-2 1zM211 108v1l2-1h-2zM420 110l-2 3h1l4-2 2-1c0-3-2-3-5 0zM483 108h2l-2-1v1zM480 110l1 2c1 3 2 3 7 3 6 0 7-2 2-4-2-2-10-3-10-1zM810 110c-1 1 2 4 3 3s-1-4-2-4l-1 1zM162 112v2l-1 1-1-1-1-2c-2 0-4 2-3 3l-2 2c-3 2-3 4 2 4s5 1 7 6c0 3 1 4 6 6 5 3 9 3 7 1h3l-2-2c-2 0-2-1-1-2l1-2-4-2c-4-2-4-2-5-7l-3-7h-4zM596 112l2 1 1-1-2-1-2 1zM206 114c-1 1 0 1 1 1l2-2c0-2-3-1-3 1zM436 116c-2 4-1 4 4 3 8-1 19-1 19 1-1 2 1 6 2 6 2 0 2-1 1-3l-1-4c-1-1 0-1 1-1l4-1c1-1-1-1-6-1l-9-1-8-2c-6 0-6 0-7 3zM600 114l18 4c4-1 5-3 2-3-5-2-20-2-20-1zM421 115v1l1-1v-1l-1 1zM519 115c-4 2-4 4 0 4 6 1 8 1 8-2 0-2-1-3-3-3l-5 1zM417 117h1l1-1-1-1-1 2zM426 118l2 2 2-1-2-2-2 1zM767 118l-3 3 6 1c5 0 8-1 8-3 0-1-8-2-11-1zM70 120c-1 2 1 5 3 5s3 0 0-3c-1-3-2-4-3-2zM584 121h1l1-1c-1-2-2-1-2 1zM783 123l1 1 1-1-1-1-1 1zM816 125c-1 2 2 4 5 4s4-1 1-3c-2-2-6-3-7-1zM75 128c0 2 2 4 3 3 1 0 2 0 1 2l2 4c2 2 2 2 3 1s0-2-2-5l-2-4-4-3-1 2zM189 129l-1 5c0 3 0 3 3 3h3c0 2 2 1 4-2l2-4-2-2c-3-3-8-3-9 0zM828 128c-1 2 0 3 2 3l7 4 10 6c4 2 8 7 9 13l2 5c1 2 2 2 3 0 3-3 3-8-1-11l-3-2-6-5c-4-4-11-9-22-14l-1 1zM845 129c-1 1 1 4 2 4v-2-3c0-2-2-1-2 1zM510 132h-4l-8-1c-7 1-9 1-10 3v1c2-1 2-1 1 1-1 3 1 4 3 2 1-2 1-2 2 0 2 3 5 3 7 1h5c3 2 7 2 7 1 0-2 2-1 11 3l8 4 1-4-1-3-2-3c-1-2-3-3-6-4l-8-2h-6zM180 132l1 1 1-1-1-1-1 1zM185 132l1 1 1-1-1-1-1 1z"/>
  <path d="M828 133l2 1 2-1-2-1-2 1zM466 135h-3l-2 3c0 3 4 7 8 8 5 0 11-2 11-5l-1-2-1-1c0-2-11-5-12-3zM853 134l2 2h1l-1-2h-2zM485 137l-1 1c-2 0-2 0-1 1h3v-3l-1 1zM319 140l-1 3c1 1 2-1 2-3h-2zM864 140v1l1-1v-1l-1 1zM489 141v2c0 2 4 3 6 1s1-3-2-3h-3-1zM559 141l1 1v-1l-1-1-1 1zM497 143l2 1 1-1-1-1-2 1zM537 148l2 2c1 1 1 1 0 0 0-2-2-3-2-2zM541 149l1 1v-1l-1-1-1 1zM847 151h-5c-4 0-4 0-3 2l1 5c0 4 0 4-3 4-2 0-3 1-5 4-3 4-3 4-8 4h-6v-4l-1-3-2 5c0 3-6 4-14 2-7-1-10-1-10 2 0 2 1 3 6 5l5 3h3c2-1 3-1 4 1 3 4 23 0 28-7 2-2 3-3 5-2l5-1c2-2 2-2 1-5l-1-2c3-2 4-3 5-7l-1-4-1-1c0-2-1-2-3-1zM415 155l-1 3h-5c-2 2-3 2-3 7s0 5 2 5c2-1 3 0 3 1 0 2 0 3 2 3 1 0 2 0 2-2 0-1 1-2 3-2 2-1 3-3 1-5l-2-3 2-1c1 1 2-3 0-5s-2-2-4-1zm-2 9c0 2-2 4-2 2l2-4v2zM543 156l1 1 1-1-1-1-1 1zM518 157h2l-2-1v1zM756 157c-2 2 0 3 2 2v-2h-3zM808 158l1 1 1-1-2-1v1zM310 160v1l1-1v-1l-1 1zM400 165v6c2 1 3-2 3-4-1-3-2-4-3-2zM772 168c1 2 4 2 4 0 0-1-1-2-3-2s-2 0-1 2zM108 168c-1 1 3 3 4 2v-2h-4zM424 168l1 1 1-1-1-1-1 1zM564 170l-1 4c-1 1-1 1-1-1s-1-3-3-1c-1 1 0 6 1 6l1-1h1c1 2 1 2 3-3 3-6 3-6 1-6l-2 2zM788 169v1l1-1v-1l-1 1zM585 172c-2 1-3 2-2 3v2l2 5 3 3 2-2c2-3 1-10-1-13-1-1-2 0-5 2zM427 171l1 1h1l-1-2-1 1zM783 171l4 5 1-2c0-3-3-5-5-3zM262 175l2 1 1-1-1-1-2 1zM379 175v10c1 1 2-1 2-5s-1-6-2-5zM164 177l-1 4-3 4-2 4c0 2 1 2 3 2l7 1c3 1 4 2 3 3-2 3 1 5 7 5l12 2c7 3 11 4 14 2 4-2 13 0 22 4 6 3 23 6 25 5h7l8 1c3-2 8-1 12 1l5 2 5 1c5 2 6 1 3-2-2-3-2-6 0-4l5 3 3 4 1 2 9-9c-2-2-8-4-10-3l-5 1c-4-1-4-1-3-3l-2-4h-10c-8 1-11 0-12-4 0-2 0-3 6-3 4 0 7 0 9-2 4-2 4-2 2-3-3-2-16-1-19 1-2 2-2 2-2 0l-3-1-8-2c-2-1-6-2-7-1-2 0-3 0-4-2-2-3-6-3-7 1-2 4-3 5-15 4s-15-2-15-3c0-3-4-6-8-6l-7-2c-4-3-9-4-10-3 0 1-9 1-12-1l-3 1zM430 177l1 1h1l-1-2-1 1zM581 179c-1 3-2 10-1 12s2 1 5-2l2-2-3-5-3-3zM590 184v1l2-1c1-1 0-2-2 0zM152 187v1l3-1-1-1-3 1zM588 189l1 1 1-1c1-1 0-2-1-2l-1 2zM543 189v1l1-1v-1l-1 1zM647 189l1 1 1-1-2-1v1zM154 190l2 1 1-1-2-1c-1 0-2 0-1 1zM303 191c-2 1-1 2 2 2l2-1c-1-2-3-2-4-1zM381 194l2 1 1-1-1-1-2 1z"/>
  <path d="M288 195l1 1 1-1-1-1-1 1zM499 195l1 1 1-1-2-1-1 1zM541 196c-4 5-6 11-4 12s7-5 8-9c1-5 0-6-4-3zM546 195c1 2 3 2 3 0l-2-1-1 1zM384 197c-1 1 2 2 5 2v-2h-5zM533 200l-1 1c1 1 5 0 5-1h-4zM481 201l-1 2 3-2h-2zM467 202l-5 1c-2 0-5 2-5 4l13-1c3-1 4-3 1-4h-4zM535 203v1l1-1v-1l-1 1zM514 206l2 3c2 0 3-2 2-4-2-2-4-1-4 1zM340 210l-2 2 4 3 4 2h-3l-6-2c-2-2-2-2-1-3l1-2c0-1-1-1-2 1l-6 3-4 2c-2 6-2 7 1 8 3 0 12-1 18-4h13l2-1 1-1-1-1v-6-1h-1v1l-1 1h-3-5l-3-1-2-2c-1-1-2-1-4 1zM478 209h1l1-1h-1l-1 1zM413 210v1l-2 3c-4 2-6 3-7 1h-9l-6-1c-9-4-21-2-20 4 0 2 1 3 6 3l11 1h6l4-1 6-1 8-2 8-3 2-2v1c-1 2-1 2 1 2 2 1 10-4 10-5l-2-1-3 2h-4c0-2-4-1-5 1-2 2-2 2 0-2 0-2-4-3-5-1zM438 210h-2l-4 2c-2 2-2 2-1 3 2 2 3 1 4-1l1-1c0 2 1 2 3 2 4 0 10-2 10-3 0-2-10-4-11-2zM454 210v2c2 1 2 1 2-2h-2zM486 210c-2 0-2 1-1 1h9l-1-1h-1-6zM532 211c-2 2-2 2 0 2l4-2 1-1c0-2-3-1-5 1zM503 211l2 1 1-1-2-1-2 1zM315 212l-1 3-2 3-2 1c0 1 5 3 8 3s4-1 5-5l1-5h-9zM647 212c-1 1 0 2 3 2 2 0 3-2 0-2h-3zM475 213l-11 1c-12 1-16 2-18 6l-10 5c-5 3-7 4-9 7l-2 5c1 1 0 2-1 3h-1l-1-1-1 2c0 2 8 2 11 0l5-1 7-6c6-6 10-8 17-10 5-1 15-6 18-9 2-1 2-2 1-2h-5zM832 214c-1 1 0 5 1 5l1-3c0-3-1-4-2-2zM273 215l1 1 1-1-2-1-1 1zM364 215c-1 1-1 2 1 2l1-1-2-1zM367 217l-1 3c1 1 2-1 2-3h-2zM305 219l1 1 1-1v-1l-2 1zM853 222c0 1 5 4 7 3 2 0 2 0 0-2-1-2-7-3-7-1zM818 227l2 3c2 0 2 0 2-2l-2-3c-2 0-2 0-2 2zM361 228c-7 0-6 6 1 6 3 0 5 1 9 4 6 6 8 6 12 3l2-3-2-3-5-3-2-2c-2-2-7-3-15-2zM823 228c0 2 10 12 11 12l2-2c0-2 0-2-2-2-2 1-5-2-4-4 1-1 0-1-1-3-3-2-6-3-6-1zM699 239h1l1-1-1-1-1 2zM702 239l-1 1h1l1-2-1 1zM160 244l1 1 1-1-2-1v1zM398 244v2h2c3-2 1-4-2-2zM417 246c-4 3-5 5-2 5s8-4 8-6c0-1-1-1-6 1zM702 245l-1 1-1 1c0 2 1 1 3-1 1-2 1-2-1-2l-1 1zM829 245l-1 2c1 1 2-1 2-2h-1zM855 247h4l-3-1c-2 0-2 0-1 1z"/>
  <path d="M702 249c-2 1-3 3-3 5 0 3-2 10-4 12l-3 5c-1 3-1 3 1 4v2c-2 5-3 24-2 30v8l-3 12-4 11-3 6c-1 2-3 3-7 5-5 2-7 2-6 1l-5-3c-6-3-9-7-7-9v-1c-6 1-13-1-17-5s-14-9-18-9l-5-4-8-6c-7-4-7-5-5-8l3-5c3-3 4-8 3-10-2-1-2-1 0-4 2-2 4-4 5-2s4-1 4-3v-3l4-4c2-3 2-3 1-5s-2-2-2-1c-1 1-2 0-3-1v-4-1l-2 2-2 3c-2 2-2 2-1 3l-1 2-2-2c1-1 0-2-2-1-1 0-2-1-1-2l1-3 1-2 1-1-2 1-7 5-3 1c-1 1-4 0-3-1l-5-1c-6 0-10-1-11-3l-4-1c-2 1-3 1-4-1h-1l-4-3c-2-2-3-2-4-1h-2v-3l-2-3v2c0 2 0 2-1 1-2-1-9-1-10 1v1l2 1c1 1 2 2 5 2 4 0 6 1 4 2v1c1 0 2 1 2 3s-1 3-2 2c-3-1-4 0-2 1l1 2h-1c-1-2-2-2-4-1s-8 1-14-1l-3 1c0 2-3 4-3 3-2-2-3-1-3 1v1l-2 1-3 4-2 5c0 3-1 3-2 3-2 0-3 1-3 4l-4 7c-2 2-3 3-2 5l3 1 2 1v2h-2c-2 0-2 0-1 1 2 2 1 3-1 2l-3-2-8-1c-5 0-5 0-4 2v1c-2-1-4 1-3 2l-1 2v-5c1-3 1-3-5-9l-8-6-3-2c-2-2-5-1-5 2 0 2-2 4-3 2h-2l-3 2-2 2c0 2-1 3-2 2l-3 1v-1-3c-1-1-2 0-2 1 0 3-5 5-5 3-1-2-2-1-2 1l-2 4-2 3v2c-1 0-1 1 1 1l2 2h-6c0-2 0-2-3-2-2 0-2 0 0 1v2c-2 2-1 6 1 7 2 0 2 3-1 3l-1 1c1 2-2 2-4 1h-4c0-2-1-2-3-1v2l1 3c-1 2 0 4 1 6l1 2c-2-2-4-1-4 2s0 3-3-2l-4-6v-2c1-3-3-3-4 0s-5 6-6 6c-3 0-5 11-2 15 1 1 1 2-1 4l-4 2-5 7-6 9c-5 4-16 7-25 7-6 1-7 1-9 3-1 2-3 2-7 3-2 0-6 1-8 3-4 2-5 2-10 2-6-1-7-1-11 1l-11 7-9 6c-4 1-9 5-10 10-3 5-4 4-4-3 1-5 1-5-1-4-3 2-7 12-6 14 2 3 1 9-1 12l-3 7c-1 4-1 5 1 9l2 4 5 8c4 5 4 7 4 10-1 4-2 4-3 0-1-2-1-2-2-1-2 2-3 1-2-1v-4c-3-4-5-4-5 0l3 6 3 5h-3c0-2-4-7-5-7l-2-4c-1-4-2-5-3-3-1 1 5 14 9 17 5 6 8 12 8 16 0 2 1 5 4 8l3 6 3 5c2 3 2 5 2 9 0 6 3 17 6 21 4 6 6 11 6 16l-1 6v5c1 3 1 4-1 6-1 3-2 3-5 3-4 0-4 0-4 7 0 4 2 6 4 6 2-1 6 1 9 4l4 3 4 1c3 2 27 4 24 2l4-3 8-4c1-2 3-2 4-2 2 1 4 0 7-3 4-4 5-4 26-6l10 1c1 2 2 2 4 1h13l5-1c5-2 7-4 9-9 2-3 3-4 6-5l14-6c8-4 9-4 17-4 11 0 18-1 29-6 8-3 9-3 26-4s19-1 25 4c2 2 4 3 8 2 2-1 4-1 6 1l9 2 5 1v2c-1 2-1 2 2 2l3 1-1 1c-2-1-2-1-1 3 2 4 3 4 6 4 2 0 4 2 4 4l3 5c4 3 7 11 4 10-1-1-2 1-2 2l11 6c1 1 2 0 2-1 1-2 1-3-1-3-1 0 0-2 4-6 6-5 10-8 14-9l4-5 4-5c2 0 2-1 2-3-1-3 0-3 1 1 2 2 2 3 0 3l-1 4c1 2 0 3-2 6l-3 4v6c0 5-1 5-4 6-2 0-3 1-4 3-2 4-2 4 3 2l7-1c2 0 3 0 3-4l2-5 1-4c0-2 2-1 4 4 4 7 3 10 0 13-4 3-4 4 0 4l11-3 2-1 2 1h-2l-1 1v2l4 5c6 5 7 9 6 14-1 3-1 4 7 11 4 4 7 6 9 6l7 3c3 2 4 2 5 1h9l10 3 9 4 5-3 9-5c4-1 5-3 2-3-1 0-1-1 1-2h4c2 1 0 4-2 5-3 0-3 2 0 2 1 1 3 1 4-1 2-1 2-1 4 1l4 3 3 1 2 2 3 2c2 2 5 2 5 0l2-3 6-4c13-9 14-9 25-10 8-1 11-1 15-3l4-2-1-5 1-8 2-7c0-5 6-15 9-15l1-2v-3l1-3 3-6 3-5c0-4 6-14 9-15s9-7 9-9l4-8 4-14 3-13 2-8 2-5c2-4 2-8-1-14v-4l1-3c0-3 0-3-2-2-1 2-1 2-3 0s-2-3-1-5v-18c-1 0 1-8 3-11v-4c-1-3-4-2-3 1l-2 3c-1 2-1 2-4 1-1-1-3-2-3-4l-3-4c-1 0-4-2-5-5-2-3-5-5-6-5-2 0-5-2-4-4l-2-3h-2c-1 2-3-2-4-8l-1-8c-1-2-1-2-3 0-1 1-1 1-4-2s-5-3-5 0l-2 2c-1 0-4-6-4-9 0-4-4-11-8-14-3-3-4-6-2-5h1c1-1-1-3-3-5-2-3-3-3-4-2h-1l-5-3c-4 0-5-1-6-4s-3-4-4-3c-2 0-11-3-13-6-2-1-2-3-2-4v-3l-3-2c-1-1-1-1 0 0l3 1v-2l-2-1c-1 0-2-2-2-6 0-10-1-14-4-16-4-1-5-5-5-7 1-1 0-4-1-7l-1-7-1-2-3-4-4-6-2-2c0-3-3-3-6-1s-6 2-7-1l-1-4-2-9-1-8-1-2c1 0 0-2-2-3l-2-5c1-1 0-3-1-3l-3-5-3-11-1-1c2-2-2-1-5 1zm-41 370l2 3-3-3-3-3 4 3zm103 43h-2c-1-1 0-1 1-1s2 0 1 1z"/>
  <path d="M618 254l-4 5-2 2 3-1 3-2 3-7-3 3zM526 256l-1 1-2 1c0 2-1 3-2 3-2 2 0 3 5 3h5c2 3 12-3 12-7 0-2-3-4-4-2h-10c-1-1-3-1-3 1zM862 255l3 3c2 2 3 3 5 3l3-1-3-2-5-3c-1-1-3-2-3 0zM876 257l2 1 2-1-2-1-2 1zM571 259h2l-2-1v1zM612 266v1l1-1v-1l-1 1zM610 287l1 1h1l-1-2-1 1zM611 291l2 2c1 0 1-2-1-3l-1 1zM617 293l-2 4c0 2 0 2 4 2 3 1 5 0 5-1h-1c-2 0-3-3-1-4s1-2-1-1c-2 0-2 0-1-1v-2l-3 2zM462 295l2 1 1-1-3-1-1 1zM605 309l1 1v-1l-1-1-1 1zM617 319l1 1c2-1 1-2-1-2l-1 1zM623 321c1 2 3 3 3 1l-2-3c-3-1-3-1-1 2zM619 321l1 1 1-1-1-1-1 1zM657 333l-2 2c0 2 5 1 6 0l3-2 1-1c-1-1-5-1-8 1zM424 333l1 1v-1l-1-1-1 1zM659 341l2 1 2-1-2-1-2 1zM769 371c-1 1 0 1 1 1l1-1-1-1-1 1zM800 386l1 2 1-2c0-1-1-2-2 0zM304 395l-1 2 3-2h-2zM820 409l1 1h1l-1-1h-1zM814 415h1l1-1h-1l-1 1zM823 418h1v-2l-1 2zM830 431l1 1 1-1-2-1v1zM271 455l-1 3c1 1 2-1 2-3h-2zM270 461v2l1-2c0-2-1-3-1 0zM866 489c-1 1 0 4 1 3v-4l-1 1zM586 587l1 1 1-1-1-1-1 1zM405 593l1 1 1-1-1-1-1 1zM629 599l1 1v-1l-1-1-1 1zM1127 604c1 1 1 1 0 0-3-2-3 0 0 4l3 5c-1 2 2 6 4 6 2-1 2-1 1 1-1 1 0 2 4 6 5 6 6 7 6 5h1l1-1v-2c2 0 2 2 1 5h-2l2 5 4 7 1 2 1 3c2 2 2 3 1 4v2c2 0 1 2 0 2l-2 2c0 5-2 8-8 11-4 1-5 2-5 4l1 3 16 7c2 1 3 3 3 5 0 3-1 5-4 9l-3 6 4 2c2 0 3 1 3 2h6c6-4 26-29 22-29l-1-2c0-4 8-8 11-4 3 2 4 1 4-3 0-3 1-4 3-5s2-3 3-5l2-7c1-2 1-2-1-4-3-2-8-1-12 2-4 4-7 4-14 1-3-1-4-2-3-3h-1l-2 1c-2 0-5-5-5-9-1-3-2-5-5-6l-3-3 1 8c1 3-1 4-2 1l-2-2c-2 0-7-4-7-6l2-1-2-5c-3-3-4-5-3-6 1-2 1-3-1-5l-4-2-2-1c1-2-9-5-10-4s-5-3-5-5l-1-3-1 1zM611 607l2 1-2-3v2zM625 615c-7 2-9 3-7 5s15 2 15 1l3-1 4-1c1-1-2-3-4-3-1 1-2 0-3-1l-2-1-6 1z"/>
  <path d="M1163 628l1 3c2 1 2 1 2-1s-2-4-3-2zM1169 635l1 1 1-1-1-1-1 1zM1159 638l1 1 1-1-2-1v1zM745 658l1 1 1-1-2-1-1 1zM726 674c-1 2-1 7 1 7 2 1 3-2 3-5-1-3-2-4-4-2zM784 676c-2 0-1 2 2 5l1 3v3c2 2 4 3 4 1l2-1c2 0 1-2-1-2v-2c1-3-4-8-8-7zM741 686l1 1v-1l-1-1-1 1zM738 688l1 1 1-2c-1-2-2-1-2 1zM738 691c-1 2-2 3-1 5 0 3 6 12 10 16l3 4-2-2c-3-3-4 1-1 5 4 7 10 12 14 13l7 1c3 1 3 1 4-2 2-3 3-4 5-3l2-1v-2l1-2 2-1c2 0 2 0 0 1v3l3 2c1 0 2-1 2-3l-1-3 1-2c2 0 3-2 2-2h-1l-1-3c1-3 3-6 3-3l1 2 1-3v-10c0-7 0-8-3-10h-3l-4 1-2 1-18 2c-5 0-22-4-20-5v-1l-4 2zm33 5l-1 1-1-1v-1l1 1zM1120 695c-5 2-6 4-6 7 0 4-1 5-6 8-3 2-4 4-5 7-2 5-5 9-11 12l-8 5c-5 4-18 10-21 10l-5 2-13 10c-4 4-5 5-4 6v2c-1 2-2 1-2-1l-1-2-1 1c1 1 0 2-1 2-1 1-1 4 1 4v1c0 2 0 2-1 0h-3c-2 2-3 6-1 6l3 2c2 2 7 2 11 1 1-1 2 0 3 1l6 1 4 2 4 1 5 1c3 2 13-1 19-6l6-4c3-1 4-3 2-3-1 0 1-5 5-9l2-5c0-5 2-8 8-10l7-4 3-1h3l4 1c4 0 4-3 1-4-4-2-3-5 1-8l6-4 7-9c6-6 6-6 4-9-1-2-1-2 2-5l2-3-2-1-6 1c-3 1-3 1-1-1l2-3c0-2-2-1-3 1-2 3-9 6-10 5l-1-3c0-2 0-3-2-3-3-1-3-3 0-3 2-1 2-1-1-1l-6 2z"/>
  <path d="M774 731l2 1c2-1 3-3 0-3l-2 2zM1104 786c1 1 1 2-1 4-3 2-3 3-1 3h2l4-1 4-1c2-3-1-6-6-6-3 0-3 0-2 1zM1268 829l1 1v-1l-1-1v1zM1079 844c-2 2-2 2-1 3 2 1 5 0 5-1l1-3c1-3-3-2-5 1zM1124 870v1h4c0-1-2-2-4-1z"/>
</svg>
