<svg height="588.58795" width="355.74203" xmlns="http://www.w3.org/2000/svg"><g fill="#ccc" transform="translate(-17.177661 -5.412072)"><path d="m17.177661 153.06863c.997-2.05901 1.546-3.46801 3.113-5.22202.7-.783 1.24-1.722 2.086-2.366.613-.467 1.945-1.09301 2.001-1.99301.994.284 2.042 4.34801 1.178 4.85602-.629.37-1.347.037-1.8.682-.517.735-.401 1.737.622 1.882-.845 1.12601-.467 2.83801.866 1.40101 1.17-1.26101 1.617-.663 2.728.279.952.808 2.042-.417 2.792.799.77 1.25001.795 3.32001 2.582 3.65701 1.509.285 1.671.47 2.178-1.177.405-1.31401 1.854-1.64201 1.92-2.98401.089-1.81601.373-3.46001 1.119-5.14502.383-.866.901-1.491.915-2.487.009-.632.743-2.38101 1.101-.68301.241-.39.288-.8.141-1.229-.058-.553.75-1.151 1.045-1.542.768-1.02101 1.729-1.77801 2.888-2.30901 2.522-1.156 5.474-1.58101 7.776-3.17901 4.842-3.36201 8.195-8.39503 9.248-14.13104.394.417.873.583 1.439.5-.713-1.66001.033-3.12901-.958-4.54601-.39-.55801-2.329-2.25501-2.209-2.94401.817.139 1.77.418 2.544-.041.767-.454.524-.60201 1.389-.281 1.492.553 2.596 1.145 3.626 2.386 1.339 1.61501 2.096 2.21101 2.737 4.27602.268.861-.065 1.565 1.122 1.668 1.151.1.85.56 1.646 1.271 1.544 1.38101 2.681.64601 3.219 3.00301.417 1.82601.339 2.26501 2.286 2.84801 2.098.628.117 3.07601 1.188 4.29602.581.661 1.487.886 2.335.851.529-.071 1.061-.118 1.595-.142.708003.002 1.535003.418 2.163003.396 1.443-.054 3.152-1.094 3.778-2.35301.661-1.329 2.487 1.212 3.277 1.27301 1.191.092 3.03-1.63101 3.878-1.01001.677.496 1.274 1.24801 1.926 1.69501.626.43 2.097996.313 2.482996.722 1.574 1.67 1.598 2.27201.368 4.22001-.985 1.56001-2.898996 4.22901-3.171996 6.04402-.327 2.17101 2.173996.471 3.112996 1.291.758.66101 1.349 1.54801 1.885 2.39001.616.965.199 2.51201-.684 1.058-.193.24001-.386.48001-.58.72001-1.122-1.52401-3.608996-2.51601-5.023996-.72901-1.613 2.03801-5.125 1.50001-7.443 2.11401-1.214.322-1.801 1.67001-3.004 2.04501-1.264.395-.853.902-1.695 1.66-2.018003 1.81901-3.416003 1.29701-3.446003 4.41502-.011 1.081.055 1.987-.578 2.928-.603.89501-1.323 1.79201-1.083 2.93901.249 1.19001 1.275 2.88201-.055 3.80001-1.119.77101-2.177 1.16501-3.094 2.24001-.669.784-1.017 1.67501-.803 2.70801.115.5.289.981.521 1.44-.559.243-1.14.548-1.561 1.00101-1.624 1.748 3.168 3.26501 1.201 4.46801 1.003.655 1.697 1.85101 1.909 3.01501.124.681.593.918 1.085 1.315.616.496.558 1.25201.965 1.87001.715 1.083 2.093 1.593 2.595 2.84701.599 1.495-.55 2.408-1.371 3.48301 1.777.93 4.389003.094 6.154003 1.267 1.146.761 2.204 2.73901 1.766 4.13301 2.387.3 5.447.81701 7.57-.636 1.34-.917 3.087-4.23201 4.890996-4.25401-.211.867-.885.911-.355 1.807.562.95101-.378 1.90001-.318 2.98601.154 2.82401.251 5.72002.593 8.52703.927-.813 1.554.849 2.52.755 1.332-.13 2.266-1.2 3.635-1.167 1.258.03 1.994-.035 2.632 1.152.969 1.80101 1.963 3.57901 2.957 5.36802 1.001 1.801 1.979 3.61601 3.028 5.39001.769 1.29901 1.419 2.63001.007 3.84401-1.227 1.05501-.9 2.43401-.763 3.90102.148 1.594-.377 3.97201.177 5.41601.336.87501 1.17 1.70001 1.211 2.67201.002.06-.833 2.36601-.9 2.42701-.876.792-1.539 2.085-1.946 3.19001-.744 2.019 1.39 2.333 1.395 3.90201.003 1.114-1.015 2.03701-1.223 3.11701-.183.95.482 2.13301.83 2.99301.324.8.856 2.326 1.859 2.50801.484.088 3.037.285 1.486 1.281-1.04.668-.093 2.28101-.75 2.64601-1.243.692-1.469 2.556-2.422 3.50301-.415.413-.981.637-1.318 1.134-.638.941.343.644.808 1.265 1.212 1.62201-1.255 1.98801-1.732 2.99301-.537 1.12901.683 2.47201-.073 3.76801-.651 1.11601-2.026 1.51101-3.241 1.51101-1.364 0-2.414-1.019-3.339-1.89101-1.091-1.027-2.285-1.508-3.465-2.344-2.094-1.48301-1.937-4.18102-4.446996-5.21102-2.971-1.22-4.973-4.12201-8.118-4.89601-1.472-.362-2.984-1.37901-4.263-2.17501-1.531-.952-3.187003-1.271-4.747003-2.11201-1.527-.825-2.823-2.085-4.354-2.95701-1.722-.98-3.437-1.941-5.176-2.894-1.469-.80501-2.354-2.65101-3.51-3.84002-1.532-1.576-3.691-2.404-4.762-4.36001-.604-1.104-1.373-2.43001-2.433-3.09501-.927-.582.304-2.80601-1.32-2.52601.019-.281.09-.548.216-.8.242.144.482.291.72.44.64-3.19801-.743-4.85601-2.346-7.47602-1.456-2.38001-2.445-4.89701-4.486-6.83202-.612-.581-1.237-.887-1.07-1.682.192-.91501-.344-1.94201-.781-2.70401-.429-.749-.948-1.55201-1.613-2.11701-.612-.521-1.657-.768-2.046-1.526-.048-.397-.012-.79101.107-1.18001-.121-.863-.668-1.851-1.061-2.615-.753-1.46501-1.781-2.76301-2.616-4.17902-.787-1.334-1.229-2.93201-1.786-4.36901-1.3-3.35601-3.396-5.94002-4.338-9.18503-1.287-4.42901-5.048-7.12502-6.755-11.50003-1.953-5.00402-5.991-8.57003-10.887-10.63403-.431-.18201-2.046-.57001-2.101-1.16701-.076-.832-.251-2.22.944-2.072 2.126.264 1.319-1.74601.631-2.79301-.971-1.47701-1.937-2.09401-1.988-3.93101.197-.23601.389-.47601.576-.72001-.036-.28-.885-1.054-1.074-1.268-.994-1.12-.386-1.78001-.802-3.04701"/><path d="m220.79666 94.097449c1.288-.06 2.316-2.268 2.755-3.23701.818-1.809.012-3.82201 1.246-5.47001 1.463-1.95301.119-3.39301-1.127-4.94802-1.292-1.613-1.24-4.49301-1.364-6.46102-.144-2.293.19-3.59601 1.863-5.19301.623-.595 1.399-1.25201 1.599-2.13101.259-1.139.553-2.56201 2.168-1.952 1.048.396 1.767 1.244 2.881 1.549 1.203.331 2.664.312 3.682 1.126 1.194.95701 2.781 4.60202 4.656 4.46902-.315.462-.531.966-.649 1.513.532-2.39601 4.637 1.71501 2.3 3.31201 1.132-.417.474-1.475 1.038-2.22901.856-1.146 1.521 1.52501 1.587 2.09401.312 2.69801-1.758 5.55402-3.161 7.70202-1.612 2.46801-2.733 4.55702-3.784 7.33803-.39 1.032-.893 1.905-1.76 2.607-.36.292-1.005.96401-1.479 1.08901-.781.207-1.396-.418-2.231-.024.344-.98101-.271-.98501-1.008-.75701-1.03.31901-1.91-.1-2.889-.431-.494-.167-2.415 1.22501-2.722 1.59001-.57.677-3.224-1.15901-3.601-1.55601"/><path d="m109.55666 208.9388c1.907.124 3.823.289 5.725.432.872.065.425.21.555.73.235.94 1.591-.023 1.972-.188.44-.191 1.315-.373 1.598-.819.435-.686.574-1.65601 1.226-2.19301 1.444-1.189 2.594.728 3.379-1.189.683-1.66901 2.805-1.74801 4.116-2.67301 1.221-.862 1.84-2.64301 3.356-3.08501 1.809-.527 3.83-1.384 5.75-1.117 2.125.296 1.655.488 3.064-.838 3.055 2.112-.221 6.13501.667 8.84902.222.68.784 1.069 1.02 1.67001.264.673-.384 1.367-.541 1.979-.467 1.82701 1.316 2.81101 1.72 4.17202.291.98.199.866 1.043 1.585.523.446.392 1.557.875 1.83701.65.377 1.138-.086 1.704.61.663.815 1.302.886 2.07 1.478.105.081.426 1.057.599 1.24601.514.565 1.146.666 1.863.834.974.229 1.511.627 2.468.095.785-.436 1.576-.23 2.289.267.579.403 1.061.93 1.659 1.309.826.522.985-.562 1.645-.37 1.245.362 1.281 2.69901 2.896 2.88001 1.411.158 2.392 1.276 3.791 1.352 1.94.105 2.224 2.98001 3.845 3.39701 1.333.34301 2.614.11801 3.927-.083 1.865-.285 3.751 1.19801 5.298 2.07401 2.533 1.43501.914 2.80001 1.828 4.87702 1.007 2.289 1.39 4.30801 1.885 6.74302-.625-.018-1.249.005-1.87.07.078 1.774 2.339 2.8 2.637 4.70701.223 1.425.068 3.09701.692 4.42401.791 1.68101 3.87 1.10901 5.384 1.25901 2.849.282 5.806.696 8.637.049.041 1.269-.701 2.044-.797 3.18901-.079.945.305 2.141.55 3.05401.388 1.442 2.072 3.68701 3.64 3.97901.799.149 1.219-.384 1.58.624.274.765.638 1.469.943 2.22501.803 1.986 1.844 3.09201 1.384 5.24601-.231 1.08301-1.139 2.94501-.765 4.05401.526 1.56101-.588 2.89001-1.192 4.39302-.815 2.026-.857 2.95401.791 4.34401 1.225 1.033-.74 1.67401-1.594 2.30301.591-1.95301-.693-3.29701-2.226-4.27502-1.609-1.027-3.714-2.879-5.563-3.29501-5.124-1.152-11.162 1.53701-16.126 2.41501-2.37.418-3.658.376-4.042 2.95601-.32 2.14401-2.154 3.57101-2.503 5.65102-.328 1.958.727 3.79501.327 5.81702-.567 2.868-.782 5.81201-1.476 8.65202-1.439-1.152-1.178-2.23501-3.185-2.15801-1.546.059-3.319-.11-4.764.46301-1.69.67-1.623-1.04601-2.54 1.288-.785 1.99701-1.173 3.78001-1.392 5.88802-2.188-3.04601-1.827-5.99502-6.033-6.66702-1.713-.274-4.219.543-5.744-.199-1.335-.65-2.108-2.26901-3.633-2.57401-.211 2.16801-.088 2.85101-2.267 3.64201-1.091.397-2.24 2.51801-2.889 3.52901-.989 1.54201-1.339 2.28601-3.339 2.49801-.685.072-1.481.084-2.117-.224-1.143-.554-.396-1.81801-.764-2.71901-.449-1.098-.474-2.42001-1.076-3.44501-.541-.921-1.137-1.53601-1.439-2.59801-.529-1.861-.974-4.33301-2.055-5.94602-.609-.909-1.558-1.318-2.195-2.146-.703-.91301.125-1.83501-.336-2.77101-.392-.794-1.467-.848-1.87-1.65201-.451-.9.611-1.512-.603-2.637 2.14-1.29301 1.964-1.09101.457-3.12401-.219-.296.615-1.56401.764-1.82101.751-1.301-.047-1.708-1.059-2.52601-1.985-1.605-2.836-3.04501-3.487-5.49301-.294-1.10801-1.999-3.94101-.924-4.96602-3.285-.659-2.456-5.90202-5.11-6.47902.121-.666.613-1.022 1.123-1.386.782-.557 1.03-1.46701 1.57-2.22901.468-.661.807-1.265 1.44-1.774.096-.077.032-1.27001.083-1.47101.161-.639 1.931-2.35901-.052-2.41101-1.463-.039-1.875-.391-2.53-1.834-.434-.955-1.284-2.48701-1.076-3.56701.198-1.03 1.645-2.46901 1.128-3.54201-.812-1.68801-2.081-1.99901-1.029-4.09101.678-1.35001 1.381-2.36301 1.835-3.70002.539-1.586.86-1.522-.072-3.201-.856-1.54301-.224-2.78301-.377-4.43802-.124-1.334-.937-4.07001.071-5.20301 1.001-1.12601 1.922-1.89201 1.059-3.36301-2.443-4.16602-5.041-8.38403-7.276-12.65504"/><g><path d="m74.273661 179.34871c.703-.721.385-1.223 1.421-1.71501 1.165-.553-.16-1.805.134-3.06101.567-2.418 3.182-2.105 4.173-3.76101.7-1.169.105-2.298-.174-3.49101-.255-1.094.313-2.08.925-2.94201 1.229-1.732-.076-4.24801 1.178-5.77001.646-.78501 2.022003-.83601 2.783003-1.58101.675-.661.75-1.394 1.686-1.718 1.205-.418 1.835-1.62501 2.995-2.10101 1.074-.44 2.735-.41 3.898-.652 1.382-.288 2.532-.222 3.551-1.303.164-.17301 1.632-1.78001 1.955-1.23901.302.506.891.376 1.480996.294.676-.094 1.404.939 1.787 1.45901.194-.24.387-.479.58-.72001 1.043 1.71901 1.562-1.71 1.652-2.318.413-2.77401.822-5.55002 1.104-8.34103.383-3.78801 1.021-7.53302 1.554-11.30103.225-1.59101 1.082-3.05301.704-4.68902-.363-1.573-1.372-2.558-1.422-4.24101-.052-1.739-1.095-2.167-2.385-3.01401-1.65-1.083-1.288-2.76601-1.288-4.47901 0-.996-.333-2.24801.202-3.16501.303-.52 2.25-1.134 2.792-.932.875.324 1.186-.80401 2.334-.195 1.177.625 1.588.271 1.495-1.08801-.146-2.131-3.402-3.48201-5.234-2.243.183-1.48301-.511-3.91602.145-5.25902.644-1.319001 2.978-.5 3.896-.5 2.195 0 4.378.012 6.569.102.388.016 1.653.144 1.77-.462.061-.314001.276-1.861011.772-1.822011.847.066.458 2.881011 1.994 1.849011.993-.667001 1.542-1.832011 2.386-2.653011 1.163-1.132 2.376.753 2.86 1.66601.917 1.728001.79 2.823001.599 4.688011-.045.439-.216 1.426.583 1.279 1.118-.206 1.272-.233 2.152.654 1.075 1.08301 2.079 2.37001 3.497 3.02501 1.905.87901 2.514-.978 3.964-1.74 2.73-1.43601 1.136 1.99 1.782 2.77201.71-.231 1.978-2.07601 2.409-2.69601.734-1.054 1.055-1.64101 2.337-2.13701 1.072-.415 1.853-.665 2.669-1.465.58-.569 1.794-1.59601 1.734-.035.856-1.42201 1.812-1.94201 2.23-3.600011.33-1.30401.863-1.38601 2.083-1.69701.414-.105 2.558-1.233 2.832-1.595 1.501-1.98701-.708-2.52301-2.337-2.43301-.799.044-1.516-.065-2.16-.588-.379-.307.272-1.39401.193-1.81301-.422-2.236-2.106-3.63401-1.621-6.13102.351-1.81-1.014-2.386-2.114-3.48501-.63-.63-2.645-2.906-1.696-3.85901.65.285.912 1.27701 1.616 1.34601.963.094 2.847-.62701 3.259.785.334 1.143.668 1.398 1.779.843 1.089-.545 2.304 1.21301 3.206.356 1.568-1.49 2.656 3.37801 4.695 2.85701 1.3-.332.088-2.91601.636-3.77501.401-.627 1.48-.308 2.066-1.009.853-1.02101 1.721.237 2.64.143 1.531-.159 4.425-1.00501 4.937-2.38401-.033.087 2.094-1.114 1.908-1.156.983.224 1.572.188 2.266-.68201 1.188-1.488 4.566-3.40901 1.872-5.24401 1.093-.165 2.024.079 3.128-.234.896-.255 1.883-.188 2.305.761.842 1.89001-.799 3.24101-.684 4.95202.062.909 2.325.948 2.92 1.542.249.249-.313.973-.1 1.471.346.80801.755 1.53701 1.203 2.27101.496.813-2.083 2.84301-2.263 3.51501-.18.669.084 1.46101-.092 2.18401-.323 1.326-1.11 2.58001-1.27 3.93901-.236 2.01601.573 3.28401 1.428 4.93401.396.76601-.154 3.83902 1.133 3.75602-.095.24-.192.48-.29.720001 1.449.194 2.431 1.949 3.229 2.97201.651.835 1.906.355 2.47 1.245.513.81.773.792 1.518.38.471-.261 2.2-.659 1.828-1.418-.689-1.40701 2.818-1.12101 3.306-1.28801.673-.23 1.199-1.034 1.864-1.367.94-.471 1.549.326 2.363-.656 1.077-1.299011 2.262-2.631011 3.849-1.469011 1.528 1.11901 2.832-.335 4.428.097 1.044.283 3.488 1.626011 3.878-.149.359-1.633-2.287-2.004-1.259-3.47201 1.239-1.768 1.84-.639 3.582-.723 1.133-.055 2.073-.237 3.005-.634 1.978-.838 1.521-.596 3.02.648.297.246.204-.567.563-.011.446.691 1.098 1.004 1.749 1.49701.842.638 1.678.645 2.553 1.122.991.541.6-.432 1.396-.592.706-.142.901-.87301 1.474-1.19101.49-.272 1.106.379 1.627.426.642.058 3.053-.486 2.589.83701.708-.334 1.833.5 2.417-.024.825-.74101 1.863-1.25401 2.483-2.20801.875-1.346 1.595-2.93801 2.003-4.49001 1.077-4.10102 3.959-7.06802 6.557-10.34203.091.577.335 1.082.73 1.513-.329-.936-1.115-2.09401-.29-3.02401 2.186 1.35401 2.469 3.53201 2.23 5.90402.124-.698.191-1.45901.79-1.94401-.083 3.13501.242 6.40702 1.349 9.35603.452 1.206 2.308 4.86402.951 5.97902 1.048-.346 1.223.786 1.553 1.473.643 1.338011 2.162.80101 3.277 1.26301 2.544 1.055001 2.054 4.055011-.15 5.040011.573-.162 1.216-.06 1.66.359-.969.96901-2.651 1.83901-3.042 3.24801-.202.72501-1.027 1.05301-1.417 1.64601-.591.898-.852 1.897-1.572 2.72601-.976 1.122-2.23 1.938-3.323 2.93201-1.35 1.229-2.054 2.88-3.19 4.28201-1.053 1.299-1.44 2.301-1.292 3.97301.082.937-1.646 1.103-1.707 2.39001-.082 1.735-1.35.8-2.238.771-.813-.027-3.369 1.226-3.668 2.00701.719-.16701 4.602-.90501 3.52.87.735-.809 1.881-.735 2.771-1.25901 1.039-.611 1.837-1.275 2.96-1.757 1.462-.628 3.622-2.44901 4.43-3.82501 1.892 1.098.086 3.93901 1.318 5.45801.495.60901.018 2.24001.834 2.48101.681.2 1.86-.196 1.447.992 1.598.31301 4.458-2.6 4.75.72001-.143-1.02301.867-1.21301 1.632-1.36001.382.012.654-.159.816-.514.297-.791 1.145-.497 1.801-.646-.852 2.67401-1.646 4.42101-1.52 7.19902 1.22-1.575.499-5.00201 2.547-5.96802 1.363-.642 1.588-.833 2.395-2.149 1.332-2.17501 1.696-.56501 3.048.268-.028-.457-.145-.89101-.35-1.30001.753-.052 1.49-.223 2.23-.36-.76-.382-1.613-.066-2.38.07-.194-1.051.55-1.095 1.139-1.659.893-.85601-.071-2.75701 1.029-3.84301 1.296-1.28001.93-.201 1.792-.53801.606-.236 1.875-1.764 2.02-.22 1.194-1.165 1.261.462 2.37.069-.477-.41-.588-1.027-.29-1.58.681.199 2.306.596 1.95 1.65.236-.128.476-.248.72-.36.097.267.193.534.29.80101.622-.49401.72-.49801.72.35.576-.19.98-.67601 1.01-1.29001-.362.93201.911 1.10601.57 2.02101.089-.586.466-.964 1.08-.73-.009.619-.416 1.087-1.01 1.23 1.028-.597 1.964.864 2.95-.07-.132 1.354.868.553 1.16-.15-.413 1.64.963.961.86 2.02101.386-.15401.676-.41701.87-.79001-.133.92801 1.024.589 1.22 1.43901.246-.234.486-.474.72-.72.047.539.241 1.019.58 1.44.238-.192.475-.385.71-.58.123.72.407 1.063 1.08.359-.525.375-.663.972-.28 1.51.149-.554.576-.98 1.149-1.08-.813.732-.524 2.29301.221 2.96101.325-.609-.066-1.63501.756-1.95301 1.494-.58.825.493 1.544.72301-.042-.60101.316-1.07201.86-1.29001-.25.472-.37.976-.36 1.51001 1.709-1.02501-.224 2.034 1.59.931-.25.229-.49.47-.72.72.583.202 1.116-.084 1.439-.57-.491 1.064 1.239.482.49 1.909-.669 1.27501-.354 2.33701-2 2.84101.592-.372 1.055-.04 1.22.57001.042-.91501 1.049-2.32101 1.893-1.13401.902 1.27101-.678 1.66801-1.175 2.62301-.424.814-1.178 3.32401-.887 4.20701.322.97701-1.228 1.78801-.55 2.51501.09-1.373 1.719-1.78901 2.3-2.88001.577-1.084.198-2.90001.826-3.79201.321-.458 1.77-1.499 2.239-.709.77 1.296-1.668 1.987-1.834 3.06101.71-.457.95-.287.72.51.839-.406 2.018-3.69201 2.45-2.02001.071-1.154 2.296-1.78 3.16-1.29-.092-2.27201 4.617.244 5.452.725.592.341 3.853 1.66801 3.908 2.29501.71-.463 2.593.708 2.24-.79.943.209 1.581.914 2.44 1.29.99.432 2.052.366 2.88 1.16-.016-1.385.839-1.238 1.915-1.277 2.157-.077 4.063-.942 6.26-.473 4.022.858 7.743 4.29201 10.878 6.75202 1.044.819 2.241.957 3.107 1.988.829.98801 1.47 2.09201 2.255 3.10601.885 1.14401 2.07 1.65401 2.882 2.77801.867 1.2 2.461 1.33201 3.415 2.57301.958 1.246 2.354.742 3.447 1.815 1.265 1.24301 3.487.74101 5.039.54701 3.568-.44501 6.204.889 7.241 4.42901.402 1.371 1.004 2.73601 1.028 4.18801.007.438-.365 1.17101-.027 1.33901.387.191.602.722.756 1.09.648 1.549 1.747 4.99901.913 6.63302.23-.351.443-.71.64-1.08-.156 1.638 1.041 3.61101-.64 4.82001.266.064.529.137.79.22-.673 1.355.393 2.98701-.43 4.21501-.852 1.27201-.216 2.98601-.883 4.32202-.776 1.551-1.045 3.29301-1.764 4.86801-.79 1.73301-2.512 2.86401-3.183 4.66502-.25-.17801-.49-.36801-.72-.57001.053.73001-.175 1.63901-.87.43.121.46001.411.70101.87.72101-1.05 2.071-2.588 4.77301-4.327 6.34002-.717.646-1.685.904-2.415 1.546-.761.669-1.354 1.54501-2.258 2.04401.151-.61501-.243-1.04801-.8-1.22001-.069.669.771.88501.65 1.51001-.157.805-.852 1.879-1.65.87.395.516 1.325 1.014.763 1.79201-.325.451-1.682 1.945-1.133.288-.451.717-.357 1.62-1 2.24.289-.09.576-.187.86-.29-1.584 2.26101-4.102 13.65304-8.21 12.96004.756-1.722-.991-2.04301-1.51-3.39101-.034.781-.897 2.97601-1.58 1.301.212.70101 1.296.98901 1.264 1.74401-.058 1.327-1.735 2.27401-1.264 3.72601-1.154-.78-.917 1.208-.939 2.02001.083-.372.202-.73201.359-1.07901.387 1.01001.396 1.88501.36 2.94901-.28-.222-.543-.462-.79-.72.625.529 1.184 2.23901.94 3.03001.196-.504.386-1.011.57-1.521.099 3.029-.866 5.77401-.429 8.84802.375 2.63701 1.522 5.39802 1.653 8.02703.232 4.66801-2.698 9.01602-1.4 13.80404.725 2.67001-.964 2.99801-2.108 5.00501-1.319 2.31301-1.521 5.18702-1.191 7.78203.235 1.852 1.332 5.58301-.86 6.54602-2.067.909-.407 4.95501-2.864 5.28701 1.745 1.54401-1.21 3.47801-2.207 4.42801-.854.81401-.607 1.42801-.909 2.52001-.445 1.61101-1.178 3.06301-.919 4.78002.135.893.782 2.288.112 3.10301-1.105 1.345-2.795 1.303-4.184 2.132-.942.563-1.913 1.61201-2.336 2.62801-.274.657.045 1.266.236 1.89301.197.643-.63.978-.303 1.697-.983-1.088-3.803-.543-5.04-.285-.724.151-1.887.55-2.59.145-1.043-.601-.302-1.614-.36-2.52001-2.316.271-.415 1.23701-.724 2.40201-.306 1.153-4.934.706-5.977 1.268.707-.754 1.928-.416 2.81-.72-.948-.847-2.008-1.308-3.183-.592-1.043.635-1.511.13-2.589.252-.782.088-2.082.178-2.355 1.106-.255.86501 1.079 1.24601 1.578 1.61401-1.137.928-2.651-.048-3.395 1.049-.64.944-1.667 1.056-2.552 1.67101-.782.542.181 1.377-.603 1.891-1.084.711-2.931-1.302-4.471 0-.162.137-1.229 2.09701-1.612 1.61301-.334-.42-.071-1.03701-.908-.89401.441 1.30901-1.253 1.45901-2.193 2.08601-1.154.77-1.687 1.86501-2.598 2.85401-.993 1.076-2.521 1.376-3.597 2.34601-.918.83-1.442 2.087-2.483 2.784.239.14801.479.29501.72.44001-.808.836-1.614 1.81-2.09 2.88-.074-.545.069-1.024.43-1.439-.752.322-1.531.115-2.23-.221.325 1.494-.506 2.35801-1.94 1.15-.015.86101 2.02 1.74701 2.8 1.66001-.538.5-.725 1.176-.86 1.87-.107.55401-1.227.378-1.58.65001.482-.015.962.008 1.44.07-.217.681.064 1.379-.134 2.057-.233.797-1.081.934-1.306.033.278.589.15 1.39001.803 1.67001.854.366.355 2.177.557 2.87001.322 1.104 1.691 2.721 1.08 4.10001 1.056-.251.948.995.08 1.15.951.726.208 3.80101.969 5.07302.713 1.192-.552 4.15401-.609 5.36701-.378-.277-.691-.614-.94-1.011.259.617.236 1.35 1.01 1.591-.804 1.13401-2.082 1.81101-3.112 2.70701-1.097.95501-1.855 2.23301-2.534 3.50101-1.651 3.08501-2.133 6.37302-3.01 9.71303-.823 3.13701-2.38 5.98502-4.188 8.65303-1.741 2.56901-4.273 4.40401-6.307 6.74502.362-.928-.155-2.06001-.36-2.96001 1.06.291 1.478.383 2.417-.27.835-.58 1.301-1.91401 2.056-2.33801 1.043-.586 1.219-1.072 1.215-2.277-.003-.77701.135-2.13901 1.083-1.01601-.355-1.143.181-1.577.853-2.37401.551-.654.667-1.405.546-2.234-.087-.602-.726-2.61601.61-1.37101.033-.313-.396-2.244-.893-2.073-.316.108-2.045 1.411-2.057 1.793-.475-.538-.747-1.179-1.452-1.43-.832-.296-.672-1.48001-1.429-1.88001-.066 1.97001.868 1.89201 1.65 3.31001-1.653.404-.451 2.31401-.57 3.38001-.115-.526-.331-1.005-.649-1.439-.237.681.407 1.555.066 2.12501-.151.253-.682.206-.608.599.311 1.639-1.084 2.514-2.246 3.17701-.917.523-.55 1.667-.813 2.528-.221.72201-2.041 2.48701-.29 2.66001-.93.579-.269 1.85501.65 1.14901.148.917-.528 1.769-.898 2.542-.605 1.26701-.559 2.79501-.752 4.15802-.38 2.685-2.019 4.28601-3.41 6.46202-1.131 1.769-2.738 1.382-2.971-.65801-.102-.895-.441-1.918-.415-2.80101.034-1.118 1.313-2.059 1.756-3.021.704-1.52901-1.204-2.10001-2.214-2.56801-1.176-.545-1.764-1.50401-2.368-2.59401-1.322-2.38701-3.594-2.38601-5.533-3.95301-1.022-.827-1.577-2.14501-2.845-2.67701-.509-.085-1.015-.182-1.52-.29-.575-.275-.794-.957-1.37-1.22-.889-.40601-1.34.077-2.158-.99501-.87-1.14-1.674-2.365-3.162-2.75501.573 1.23901-2.352 3.17701-2.491.71501-.117-2.08301-2.592-3.42101-4.064-4.53102-1.093-.824-3.411-3.65601-5.059-2.462-.549.398-.392 1.417-1.288 1.327-1.037-.104-1.843.109-2.578-.81 1.546-.611 1.611-2.76701 2.912-3.76401 1.469-1.12501 2.166-2.80301 2.708-4.47402.612-1.882 2.23-3.29501 3.151-5.02301.467-.875 1.378-3.33001 2.599-2.07001.292-.586.031-1.098-.57-1.301.971-1.17501 2.141-2.35101 3.479-3.10101 1.369-.768 1.55-1.56101 2.489-2.57901.947-1.028 2.118-1.277 3.29-1.87501.856-.438 2.398-2.386 3.483-1.875.248-1.77701.186-3.20501.138-4.97902-.058-2.152-.265-3.28301-.995-5.28901-.517-1.41801-.842-3.05401-2.421-3.61401-.912-.324-2.64-.453-2.842.852-.853-.54-1.953-1.051-1.596-2.27601.497-1.698.633-2.81901.828-4.56601.134-1.198-.168-2.85401.369-3.95001.56-1.14401-1.251-2.24401.039-3.17701-.883-.604-1.593-1.80301-2.74-1.93901-1.206-.144-2.039 1.00801-3.09 1.35901-2.898.969-3.634-1.93701-4.25-4.17002-.37-1.341-.709-2.809-.957-4.17501-.229-1.268-.049-2.72101-1.068-3.65901-.953-.877-.41-2.18001-1.96-2.58801-1.21-.318-2.286-.22-3.277-1.125-.961-.877-1.545-.304-2.362.443-.828.757-1.984.238-2.936.116-1.37-.176-2.801-.161-4.03-.83-.654-.356-2.824.266-3.022-.565-.203-.84901.081-1.74201.031-2.59801-.047-.799-.589-1.92901-.287-2.70601.531-1.369-.035-2.61401.246-3.93501.215-1.014-1.573-1.42601-.609-2.56801-.833-.052-1.002-.892-1.068-1.561-.106-1.07201-.672-1.32801-1.257-2.14701-1.315-1.84001 3.289-1.88301 1.419-3.32701-2.262-1.746-1.496-3.09501-.427-5.54202.289-.661 1.336-1.905.986-2.536-.593-1.06901-.171-1.98601.103-3.18001.221-.96501.899-2.41401.814-3.38901-.087-.99501-1.129-1.71401-1.51-2.59001-.464-1.064-.542-3.32801-1.813-3.45201-1.705-.167-3.698-1.42301-4.26-3.14401-.374-1.145-.839-2.51801-.874-3.72901-.035-1.21001.868-2.22601.827-3.49601-2.433.556-4.97.293-7.423.042-1.557-.159-5.15.313-6.271-.93701-1.022-1.141-.782-3.41901-1.024-4.83801-.322-1.88601-2.557-2.99301-2.632-4.70701.622-.065 1.245-.088 1.87-.07-.421-2.07501-.554-4.25002-1.498-6.18202-.364-.74501-.849-1.27601-.662-2.15101.212-.994.365-1.626-.406-2.44101-2.549-2.692-6.367-3.40101-9.808-2.62-.961.218-2.658-2.33401-3.125-2.96101-.511-.68401-.875-.361-1.552-.415-.61-.049-1.984-.90401-2.414-1.33301-.382-.382-1.056-.032-1.51-.347-.693-.482-1.069-1.423-1.559-2.08301-.637-.857-.9-.698-1.766-.312-1.019.455-1.43-.661-2.122-1.115-1.797-1.183-2.451.144-4.275-.285-2.09-.49-2.294-.652-3.431-2.24901-.536-.753-2.41-2.005-3.293-2.097-.866-.09-.602-1.32201-1.12-1.89701-.377-.417-1.236-.343-1.229-.995.014-1.41901-1.324-2.24901-1.482-3.85801-.086-.87501.625-1.83101.443-2.61201-.163-.702-.969-.846-1.088-1.66301-.095-.657-.05-1.343-.22-1.99-.227-.86001.721-1.45801.865-2.23501.276-1.487.075-4.00901-1.3-4.96001-.334.314-.618 1.119-1.171 1.075-1.384-.111-2.449-.097-3.844.063-1.528.175-4.131.225-5.065 1.702-1.348 2.13001-3.299 2.12501-5.064 3.56401-.52.42401-1.326 1.08201-1.452 1.79101-.195 1.101-1.316.22-1.957.158-1.016-.1-1.452.993-1.78 1.73801-.451 1.025-1.355 1.582-2.352 2.032-.265.12-2.038.723-1.917-.11.154-1.061-1.067-.842-1.846-.864-2.029-.059-5.066-.962-7-.372-.995.304-1.924 1.391-3.053 1.043-.673-.207-1.587-1.296-2.311-.66-.322-2.63601-.225-5.30302-.556-7.93403-.16-1.271.125-1.67.5-2.757.021-.352-.085-.66701-.32-.94501-.372-.722.298-1.037.456-1.684-1.894996.023-3.649996 3.03601-4.917996 4.16601-1.923 1.71101-5.237 1.014-7.542.724.392-1.246-.6-3.30201-1.525-4.09701-1.657-1.423-4.582003-.354-6.395003-1.302 2.109-2.76301 1.422-3.54401-.849-5.87502-.484-.497-.54-.971-.739-1.60501-.212-.674-.978-.847-1.39-1.37-.949-1.202-.729-2.71601-2.206-3.68101 1.509-.914-1.237-2.72101-1.718-3.44601"/><g><path d="m237.35666 127.43855c.72-.143 1.353-.577 1.87-1.08-.794-.115-1.659.242-1.87 1.08"/><path d="m239.08666 128.43856c.584-.65301 1.517-.503 2.15-1.08001-.668-1.095-2.582-.07-2.15 1.08001"/><path d="m241.31666 126.99855c1.971-.483 6.736-5.18801 5.597-7.43202-1.163-2.29001-3.39.793-3.684 2.01401-.215.896.174 1.854-.726 2.447-.975.64101-1.7 1.72401-1.187 2.97101"/><path d="m245.20666 118.43853c.746-.499 2.766-1.86201 1.8-2.96001-1.04.545-1.453 1.933-1.8 2.96001"/><path d="m245.27666 124.76855c1.071-.37501 1.916-1.91601 1.22-2.94901-.013 1.16-1.233 1.802-1.22 2.94901"/><path d="m248.36566 121.74854c-.823.275-1.43 1.022-1.58 1.87.999-.242 1.23-1.35 2.021-1.87-.147 0-.294 0-.441 0"/><path d="m247.28566 118.93853c.323-.708.469-1.50701 1.3-1.80001-1.119-1.111-1.579 1.02201-1.3 1.80001"/><path d="m247.14666 122.53854c.651-.726 1.072-1.66101 1.857-2.26801.439-.34.689-1.256-.189-.944-.955.34-1.75 2.27301-1.668 3.21201"/><path d="m247.64666 119.00853c.58-.174 1.042-.644.79-1.29001-.514.23701-.865.70201-.79 1.29001"/><path d="m249.23566 116.70852c.53-.574 1.227-.948 1.754-1.525.66-.72501-.457-.99001-.958-.76101-1.025.46601-3.012 1.84701-.796 2.28601"/><path d="m248.29666 119.22853c.611-.324 1.908-.783 1.44-1.72901-.933.069-1.053 1.09101-1.44 1.72901"/><path d="m248.65566 121.52754c.373-.217.636-.52601.79-.93001-.605-.002-.932.315-.79.93001"/><path d="m248.87666 114.18851c.023.144.046.287.07.43101.565-.07101 1.045-.31101 1.44-.72001-.537-.396-1.131-.213-1.51.289"/><path d="m249.87666 126.92855c.535.862.897 1.86301 1.621 2.59801.545.554 2.784.719 1.629.072 1.025.117 2.303-.49 3.253-.214.672.195 1.658.736 1.427-.506.152.272.319.536.5.79.708-.48 1.434-1.163 1.44-2.09001.403 1.49501 2.97.42601 3.79-.001 1.496-.778 1.452-2.35 2.32-3.63601.836-1.239 1.1-2.479 1.384-3.92501.267-1.357 1.849-3.66201-.523-3.80801-1.855-.114-4.198-1.271-5.96-.51-.777.336.083.667-1.152.613-1.085-.047-1.972-.194-3.029-.473-1.931-.509-4.451-1.37101-5.728.788-.703 1.188-.763 3.07601.838 3.53301-.581-.125-1.158-.269-1.73-.431-.238.663.246.966.21 1.59101-.041.72-.621 1.267-.237 2.036.419.84 1.621-.264 2.257-.096-.984 1.65901-.773.469-2.52.72.385.89401.253 2.00501.21 2.94901"/><path d="m251.46666 114.18851c.961.71201.946-.32.632-.952-.725-1.457-1.497.094-.632.952"/><path d="m252.40566 112.74851c.725-1.075 1.273-2.34001.28-3.46001-.448.875-1.303 3.17301-.28 3.46001"/><path d="m252.18666 95.897459c.167-.24.333-.48.5-.72-.801-.23-.968.011-.5.72"/><path d="m252.83666 97.984469c1.108-.54701.535-1.50901 0-2.23101-1.084.502-.504 1.552 0 2.23101"/><path d="m255.20666 114.18851c.698 1.41201 2.07-.825 2.656-1.428 1.53-1.57601-1.203-1.303-2.048-1.039-.834.26-2.712.342-2.998 1.386-.241.881 1.907 1.02 2.39 1.081"/><path d="m253.83666 111.2385c.404-.326 2.35-1.811 1.615-2.435-1.174-.99701-2.501 1.528-1.615 2.435"/><path d="m253.91666 112.23851c.454-.192.837-.479 1.15-.86-.607-.092-1.014.302-1.15.86"/><path d="m253.91666 107.77749c.718-.022 1.604-.226 1.51-1.149-.763-.222-1.77.197-1.51 1.149"/><path d="m255.63666 106.18849c.456-.269.529-.625.22-1.069-.435.275-.508.631-.22 1.069"/><path d="m257.58666 114.18851c-1.031 1.58101 1.511 1.27701 2.314 1.00801 1.417-.475-1.086-2.22801-2.314-1.00801"/><path d="m263.77666 129.80856c.239-.625.382-1.272.43-1.93901-.898.31501-1.375 1.31601-.43 1.93901"/><path d="m267.59666 124.26854c1.948 1.90801.423-2.321 0 0"/><path d="m273.35666 120.15853c.76.347.029-.752 0-.79z"/><path d="m279.54666 342.2092c.218.215.435.431.65.649.252-.703.528-1.454-.07-2.09001-.407.395-.6.87601-.58 1.44101"/><path d="m282.42666 123.03854c.395-.108.588-.371.58-.79-.77-.166-.963.097-.58.79"/></g><path d="m281.99666 354.95924c.651-.90001 1.231-2.70101.43-3.68101-1.052.631-.539 2.725-.43 3.68101"/><g><path d="m302.72666 321.61914c.104-.66701-.446-1.11201-.14-1.80001-.915-.196-1.224.749-1.37 1.43901.547-.06301 1.05.057 1.51.361"/><path d="m308.99666 315.13912c.591-.086 1.108-.452 1.44-.93901-.696-.496-1.781.005-1.44.93901"/></g><g><path d="m304.09666 134.55857c.217-.24.433-.48.65-.72-.767-.07-.984.169-.65.72"/><path d="m294.08666 126.35755c.556-.202.864-.653.58-1.229-.278.818-.471.985-.58.5z"/><path d="m295.81666 128.65856c.263-.097.527-.193.79-.29-.688-.45501-.952-.358-.79.29"/><path d="m297.40566 140.75859c.469-.945.824-1.887.79-2.96001-1.143.48601-.744 2.00901-.79 2.96001"/><path d="m343.40566 231.61887c1.083-2.82701-1.857-.52501 0 0"/><path d="m344.41666 227.87885c.549-.523 1.896-1.392.79-2.16.182.886-.833 1.308-.79 2.16"/><path d="m344.41666 227.00885c.263-.059.241-.054 0 0"/><path d="m356.08666 210.5188c.294-.409.484-.862.57-1.359-.211.444-.401.897-.57 1.359"/><path d="m372.49666 181.35772c.073.17.147.34.22.511.331-.73901.257-.90901-.22-.511"/><path d="m365.51666 198.42877c-.229-.184-.423-.4-.58-.65001.193.21601.386.43301.58.65001"/></g></g><path d="m79.673661 34.841279c1.97-2.32401 2.956-4.81802 3.577-7.74803.596003-2.80901 1.535003-4.84701 2.999003-7.30302 1.193-2.00001 3.256-2.59001 4.4-4.68801 1.304-2.39001 3.956-2.12901 6.087-3.44401-.868 2.118-3.57.649-4.824 2.159-1.068 1.28601.428 4.34902 1.8 4.89602-1.241-.062-.044 2.69101.076 3.21101.368 1.599-1.169 3.21801-2.234 4.22601-1.387 1.312-2.063 2.90701-1.204 4.62901.333.66601.444 1.50801 1.083 1.98101.708.524.822.293.701 1.245-.255 2.00101 1.28 2.45201 2.888 1.53801 1.66-.944 2.317-2.34001 2.531-4.18301.275-2.36401-.787-3.68702-1.974-5.61602-.472-.766-.887-1.62801-1.167-2.48501-.252-.772.405-1.826-.196-2.45701.902.106 1.684-1.258 2.376-1.656 1.266-.729 2.451-1.68601 3.925996-1.94501 1.276-.225 2.296-.399 3.416-1.074.422-.254 1.678-1.269 2.231-1.012-.074-.402-.264-.73801-.57-1.00901.55.224 2.228 1.62801 2.8.96501.388-.45-.014-1.55601-.514-1.76401-.855-.355-2.001.453-2.866.511.169-.992-.665-6.2510204 2.275-5.04201 1.338.55 1.063 3.45401 1.27 4.59101.459 2.52301 3.171.848 4.967 1.47401 2.01.701 4.515 1.243 5.394 3.57701.538 1.429-.86 4.63501 1.52 5.14001 2.831.601 6.416-.71 9.221-1.083 2.405-.32 4.906-.833 6.379 1.316.61.89001 1.464 1.61701 2.484 1.97601.831.293 1.693.487 2.543.712-.09-.024 2.79.588 1.456.588 2.264 1.22701 3.341-1.427 5.131-1.593 1.088-.101 1.337-1.23401 2.24-1.65601 1.245-.58 2.665.528 3.938-.206-1.096-1.157-3.672.082-4.4-1.368h1.889c.886 0 1.146-.546 1.791-.576.318.11.626.242.925.397.882.16 1.798.051 2.672-.097 3.734-.63 7.559.074 11.233-.661-.574 1.164-2.413.945-3.47 1.501-1.658.873-3.611-.513-5.17.803.502-.501 1.023-.434 1.22.287-.616-.051-1.059.336-1.15.93701 1.365-.80501 2.412.013 2.382 1.614-.024 1.268-2.15.419-2.812.402.477 1.77901 3.405.527 3.1-1.08.789.112 1.125 1.017 1.189 1.698.085.90601.925 1.92601.821 2.76601.561-.598.843-1.427.58-2.231.724.708.833 2.076.21 2.88.765-.546.449-1.617.36-2.376.392.092.775.212 1.15.36-.074-.081-2.451-1.34901-1.052-1.17301 1.328.167 3.058 1.56101 2.352 3.04501.316-.574.77-.523.43-1.08.535-.267 1.088-.314 1.66-.145-1.219-1.352.754-.133 1.199.587.817 1.32201 2.258.78 3.316 1.60101 2.825 2.191-.49 2.201-1.205 4.22101.228-.252.468-.492.72-.72.199 1.035-.924 2.83001-1.413 3.69101-.302.532-.215.988-.902.988-.608 0-2.469-.544-2.865 0 .883.5 2.309.648 2.81 1.65601.571-.74401 1.376-1.27201 1.51-.072.827-.91001 1.447-1.34001 2.66-1.58401 1.133-.228 1.573.978 2.628-.039 1.823-1.758 5.105 2.60601 4.079 3.12401-1.021.516-1.608 1.261-2.439 2.05201-.777.741-2.123 1.097-2.738 1.748-.441.467-.8 1.11-1.197 1.62201-.804 1.038.368 1.693.281 2.82-.055.70101.207 1.48001 1.02 1.03501.972-.531 1.652.748.917 1.456-.809.779-2.012 1.05401-2.795 1.83601-.375.375-1.027-.169-1.413-.207-.344-.034-.54.638-.873.768-3.03 1.184.051 3.06201-1.553 4.83901-.408.45201-2.035 1.47501-1.458 2.26401.981 1.341 1.988 2.69801 3.043 3.98001 1.251 1.52101 3.802 3.92901 1.411 5.67302-.808.589-1.304 1.505-2.116 2.09001-.45.325-2.078.126-2.178.291-.438.719-1.747.557-1.771 1.303-.028.886-1.594.896-2.21 1.191-1.177.56401-2.624 1.30401-3.926.65301-.883-.441-1.698.664-2.617.844-1.119.221-1.138 1.395-.876 2.31301.378 1.326-.729 2.347-1.842 1.338-.753-.684-1.125-1.594-1.815-2.31701-.916-.961-1.504.332-2.401.006-1.232-.449-1.692-.085-2.933-.218-.966-.104-.75.271-1.126-.917-.355-1.122-1.801-1.219-2.764-1.027-1.275.254-1.238-.86201-2.23-1.29601-.829.83301.703 2.71001 1.208 3.32601 1.453 1.77201 2.652 2.09001 2.694 4.61602.014.82.041 1.633.254 2.431.27 1.00801 1.33 2.04501 1.188 3.10601-.241 1.80301-.247 2.59601 1.945 2.65101.635.016 3.115-.449 2.913.701-.375 2.12801-1.278 1.28001-2.533 2.58601-.662.689-2.439.521-2.754 1.256-.357.83401-.099 1.666011-.673 2.474011-.512.72-1.191 1.28901-1.652 2.05201.076-1.97601-2.667.831-3.542 1.15-1.293.473-2.221 1.04-3.03 2.16501-.542.754-1.672 2.72201-2.578 3.01801-.596-.721.172-1.62701-.02-2.41001-.324-1.324-2.269-.039-2.781.33-2.932 2.11001-4.839.139-6.752-2.37401-.894-1.174-1.132-2.872-1.544-4.24701-.472-1.579001-1.627-3.774011-1.555-5.427021.056-1.301-3.2-5.62501-4.768-4.44601-.05-1.46 2.091-2.94301 3.106-3.74201 1.771-1.395.59-2.87901-.659-4.30801-2.759-3.15301-1.818-9.02803-1.809-12.81404.003-1.35401.603-1.69201 1.476-2.56401.588-.587.042-1.71.336-2.41901.321-.772 1.512-1.219 1.421-2.165-.129-1.33001.001-1.59701-1.416-2.14401-1.548-.598-4.244.754-5.975.896-1.142.094-2.266.09-3.399-.09-1.707-.271-1.43.54901-2.801.83901.258-.055-1.709-.41601-1.51-.288-.796-.50901-1.447-2.13801-1.949-2.90301-.709-1.08201-1.38-2.14801-2.028-3.26501-.332-.57301-.798-1.48401-1.619-1.23601-1.531.463-2.223-.875-3.668996-1.026-.931-.098-1.626.727-2.475.943-1.253.32-2.429-.555-3.682-.325-.803.146-1.28-.372-2.118.051-.826.417-1.929-.079-2.393-.835-.358-.583-.467-1.222-.628-1.86701-.223-.895-1.544-.589-1.992-1.229-.86-1.229.242-3.83701.977-4.85001 1.394-1.92101-1.418-3.80902-2.044-5.20102-.66-1.467.059-4.87401-2.088003-4.31901.039-.52-.033-1.02401-.216-1.51301-.841.735-1.727 1.18201-2.874 1.14901"/><path d="m171.68666 40.889289c-.731-.146-1.479-.252-2.16-.576.655-.374 2.12-.531 2.16.576"/><path d="m172.40566 39.017289c.434-.656 1.124-1.48301 2.021-1.08-.297.971-1.258.798-2.021 1.08"/><path d="m172.62666 40.673289c-.193-.216-.387-.432-.58-.647.52-.028 1.026-.124 1.52-.288-.035.564-.376.903-.94.935"/><path d="m173.27666 39.449289c-.24-.096-.48-.192-.72-.288.457-.284.937-.332 1.44-.145-.24.145-.48.289-.72.433"/><path d="m174.20666 39.665289c-.12-.519.147-.615.8-.288-.267.096-.534.192-.8.288"/><path d="m174.42666 37.289279c-.24 0-.48 0-.72 0 .195-.532.637-.87 1.22-.721-.167.241-.334.481-.5.721"/><path d="m174.78566 35.417279c-.741-.233-.667-.473.221-.72-.074.241-.147.48-.221.72"/><path d="m174.92666 35.777279c-.722.342-1.247.962-1.87 1.439.257-.813 1.023-1.387 1.87-1.439"/><path d="m175.07566 35.345279c.12-.331.359-.523.72-.576-.24.192-.479.383-.72.576"/><path d="m142.09666 20.081229c-.24-.072-.48-.144-.72-.216.204-.237.444-.429.72-.576.323.315.323.578 0 .792"/><path d="m151.38666 20.297229c-.186-.54-3.585-1.289-1.821-1.85.937-.298.982.701 1.531.626.911-.124 1.064-1.20101 1.87-1.51301.489 1.93001.269 1.73301-1.58 2.73701"/><path d="m160.95666 23.537239c.388.458.701.962.94 1.51201-.461-.327-.933-.91401-.94-1.51201"/><path d="m169.95666 10.361199c-.768-.732-.124-1.6680004.65-2.0170004.29.7590004.056 1.5870004-.65 2.0170004"/><path d="m167.29666 27.353249c.842-1.256 3.108-1.125 3.625-2.606.318-.91101.113-3.01301-1.245-2.93801.962-.97301 2.597-1.16801 3.887-1.28701 2.629-.241.408 1.40701.573 2.94301.154 1.42801 1.032 2.73901-.816 3.41701-1.948.713-4.084-.293-6.024.471"/><path d="m176.29666 17.849219c.152-.903.964-1.459 1.8-1.655.057.971-1.195 1.214-1.8 1.655"/><path d="m107.24666 6.1851886c-.12-.24-.24-.479-.36-.72.795-.313 1.129.837 1.229 1.368-.315-.182-.605-.398-.869-.648"/><path d="m116.46666 10.073199c-1.237-.304-2.921-1.3720004-2.95-2.8090104.665.1 2.768 2.1490104 2.95 2.8090104"/><path d="m120.20666 10.217199c-.163-.412.081-1.4700004-.445-1.6810004-.443-.179-.638-.129-.485-.76801.937.70801 2.108 1.2400104.93 2.4490104"/><path d="m34.745661 100.50547c-.264-.072-.528-.144-.792-.216.281-1.720001 2.127-2.263001 3.528-1.44.759-1.468011-1.129-2.852011-.381-4.349021.958-1.921 3.111-1.823 4.917-2.13.343-.058.223-.889.69-.608.343.206 1.122.387 1.127-.218.01-1.20701 1.589-2.70801.631-3.49401 1.717-.046 2.034-2.25601 2.54-3.42801.4-.92601 1.181-1.56701 1.996-2.11601-1.014-.828.189-.953.504-1.80001-.707.028-1.61.61101-1.872-.432.554-.144.96-.551.936-1.152-.545-.191-1.651 1.267-1.764.144-.118-1.178.554-1.41201 1.476-1.87301-1.447.014-.786-1.912-.588-2.704.387-1.55501.047-3.63902-.103-5.22302-.114-1.199-.646-2.34301-.729-3.53801-.045-.654 2.047-.911 1.692-2.43801-.212-.914-2.315-3.01301-.919-3.54201 1.255-.475.178-3.13801-.367-3.74601-1.099-1.227-1.234-3.06201-2.421-4.09601-.781-.68-.001-1.53701.453-2.15901.548-.749.021-1.726.677-2.36201.361.42701.625.90701.792 1.44001 1.536-1.075 3.721-3.17501 3.011-5.26102-.728-2.137-2.086-2.59001-.779-4.60401.743.961 1.551 2.27301 2.192 3.34101.661 1.102 2.284 1.438.832 2.77901 1.95 2.238.993-4.18002.717-4.86702-.396-.99 4.167-3.27201 4.75-4.07201.733-1.007 1.257-2.69701 2.482-3.22801.694-.3 2.338-.129 2.728-.908.555-1.10701-.52-1.50701-.294-2.18901.401-1.213.568-2.73701 1.281-3.81501-1.059-.108-.772-.459-.053-.827.657-.336.403-1.24001.385-1.80401-.042-1.324 2.188-1.695 2.188-2.158 0-.69301 2.716-3.37101 3.349-3.35401 1.254.032 2.313 1.145 3.563 1.159-1.056-.14-.906 1.005-1.872 1.008.734 2.72101 2.34-.9 2.708-1.881.917-2.44901 1.999-2.27301 4.578-1.84301 3.519.587 4.639-1.701 7.414003-3.36401 1.526-.915 5.965-2.00401 4.596-4.6470104.583-.174 2.232-.70001 1.296.5040004 1.08-.165.4-1.2380104 1.584-1.7760104 1.426-.647 2.679-.648 3.897.37 4.154996 3.4730104-4.79 4.8800204-6.13 6.5900204-.716.91301-.987 2.24601-1.835 3.03901-.589.551-1.547.445-2.072 1.04201-.989 1.124-2.026 2.84-2.662 4.18801-.949003 2.009-.989003 4.07101-1.527003 6.18802-.53 2.079-2.041 4.57801-3.423 6.20802 1.147.033 2.033-.41401 2.88-1.15201.183.488.255.99301.216 1.51301 2.180003-.563 1.449003 3.30401 2.555003 4.71001 1.579 2.00801 2.013 3.18801 1.089 5.65502-.464 1.24-1.209 3.89301.468 4.52201 1.903.713.895 2.97901 2.853 3.44101.792.187 1.55-.317 2.324-.4 1.263-.136 2.414.711 3.682.595 1.129-.103 2.075-.905 3.227-.883 1.024.02 1.785996 1.009 2.753996 1.237.711.167 1.374-.43 2.023.139.854.74801 1.432 2.11601 2.062 3.04301.584.86001 1.12 1.73301 1.646 2.62701.68 1.154.961.831 1.988 1.128 1.495.43301 2.87-.751 4.819.031.596.23901 1.909-.415 2.553-.429 1.411-.032 2.611.08 3.849-.671 1.402-.85 3.718.822 2.982 2.29701-.421.843-1.446 1.49-1.63 2.43301-.227 1.161.241 1.77-.862 2.521-1.469 1.00101-.887 5.02502-1.032 6.65702-.173 1.93901.63 4.00101.994 6.04802.274 1.54201 3.23 3.57901 2.751 5.15202-.59 1.935-4.237 2.69-4.157 5.01001 1.322-.993 4.552 2.64101 4.97 3.74401-.092.299-.169.601-.233.90701.171.561.705 1.116.706 1.717.002 1.249.728 2.569011 1.037 3.806011.244.979 1.283 3.44601.03 3.59801-1.191.144-.914-1.132-.817-1.887.15-1.17801-1.219-6.684021-2.944-6.067021-.928.332-3.657 5.130011-4.407 2.32201-.28-1.04501-1.624-1.52101-1.476-.004.167 1.705001-1.999 1.081001-3.159 1.081001-1.738 0-3.477 0-5.215 0-1.15 0-2.392-.677001-3.523-.178-1.69.744-.345 4.53801-.518 5.93802 1.369-.92501 4.58-.123 5.196 1.388.228.559.357 2.44101-.709 2.34401-.659-.06-1.058-.93601-1.768-.809-1.567.28-4.307.711-4.422 2.54-.14 2.22801-.336 5.34602 1.588 6.80302.971.73501 2.104 1.37001 2.054 2.76001-.048 1.33401.631 1.84501 1.152 2.97101 1.183 2.55501-.349 6.05002-.71 8.66303-.868 6.29102-.727 13.13404-2.67 19.20705-.467-1.157-1.384-2.207-2.211-3.12401-.942-1.044-2.062996-.002-3.152996-.622-1.011-.575 1.606996-4.54701 1.958996-5.14701.687-1.16801 2.961-3.53401 1.914-4.65502-.453-.484-1.281-1.784-2.004-1.503-1.225996.476-2.270996-1.38901-3.109996-1.89301-1.411-.849-1.587-.144-2.914.507-1.256.61701-2.549-.451-3.53-1.091-1.149-.75-3.157 1.68701-4.479 2.20201-.799.312-2.381-.171-3.400003-.039-1.406.184-2.077-.103-3.183-.96201-.863-.671-.027-2.313-.337-3.33301-.423-1.392-2.629-.637-2.876-2.034-.176-.995-.387-2.20101-.787-3.12901-.42-.975-1.901-.771-2.502-1.63001-.651-.931-1.14-.909-2.011-1.202-1.108-.372-1.474-2.08201-1.558-3.08201-.159-1.906-3.932-4.74301-5.707-5.26301-.342-.101-.7-.71101-1.003-.229-.328.521-.32.742-1.019.424-1.041-.474-2.642-1.03501-3.519-1.72101-.681-.533-4.122-4.65701-4.496-1.822-.194 1.473-5.463-.262-6.616-.46801-1.87-.334-.494-1.916-1.872-2.505-1.209-.517-.674-1.54701-2.231-1.56601-1.224-.014-3.429-1.657-4.334-2.405-1.523-1.25601-2.972-2.51301-4.144-4.11402"/><path d="m43.169661 91.937449c.506-.32.362-.56-.432-.72001.144.24001.288.48001.432.72001"/><path d="m45.401661 86.897429c-.236.222-.452.462-.648.721.745.238.961-.002.648-.721"/><path d="m46.049661 78.041409c.198.279.414.543.647.792-.215-.264-.431-.528-.647-.792"/><path d="m47.417661 69.545379c.048-.264.096-.528.144-.792-.048.264-.097.528-.144.792"/><path d="m40.937661 92.441449c-.193-.257-.313-.545-.36-.864.489.06.956.498.36.864"/><path d="m40.937661 92.441449c.218.173.155.123 0 0"/><path d="m43.745661 91.793449c-.216-.24-.432-.48-.648-.72001.537.088.527.27901.648.72001"/><path d="m47.057661 76.816399c.267.188.531.38.792.576-.475.279-.979.351-1.512.217.157-.339.397-.604.72-.793"/><path d="m47.488661 77.105399c.096.072.192.145.288.217-.17.027-.266-.046-.288-.217"/><path d="m73.121661 19.217229c.192-.072.384-.144.576-.216-.192.072-.384.144-.576.216"/><g><path d="m126.11566 367.40927c.137-.722.965-.898 1.13-1.569.224-.915-.312-2.26901-.27-3.25101.119-2.79301 1.672-3.94501 2.687-6.31602.66-1.541.65-3.12401 1-4.73101.171-.78701.359-1.67301.81-2.35501s1.291-.133 1.992-.456c2.98-1.37201-.092-3.18401-1.09-4.74902-1.136-1.78.873-2.89201.241-4.62301-.45-1.232-3.986-7.55602-.959-7.66002-.306-.78101-1.928-2.61601-1.69-3.38501.561-1.81101 1.733-3.08301 3.448-3.84502 1.516-.673 3.96-1.274 4.684-2.95.727-1.68501.604-3.94602.894-5.73902.115-.709.604-1.86701.301-2.57601-.207-.485-1.475-1.229-1.357-1.742.132-.57501 1.259-2.39601 1.726-2.59201 1.273-.535.741-1.95401 1.938-2.55201 2.018-1.009 2.132-1.217 2.368-3.63901 1.626.326 2.452 1.98001 3.908 2.62001 1.675.736 3.642-.205 5.391.063 4.162.636 3.989 3.80301 6.111 6.75802.139-1.33601.109-2.60301.646-3.86401.289-.68001.761-3.10401 1.457-3.38101.53-.211 1.525-.103 2.147-.257 1.145-.28301 2.46-.05901 3.628-.05901.691 0 2.218-.373 2.437.40901.296 1.056 2.417 2.314 3.191 3.08801.893.893 1.52 1.015 2.077 2.177.438.915 1.009 1.82701 1.634 2.62401 1.446 1.84301 3.868 3.14301 5.754 4.49201 1.081.77301 1.601 1.87001 2.589 2.69101.917.762 2.185.715 3.247 1.136 1.432.56801 2.369.94401 3.959.94401 1.206 0 2.065 1.094 3.061 1.605 2.582 1.32801 4.6 3.83601 7.453 4.75402.839.271 1.839.356 2.512.98.979.91 1.403.378 2.405.977.967.578 2.249.667 2.974 1.58401.512.648 1.08 1.236 1.586 1.892.999 1.29301-.895 2.65801-1.149 4.15502-.38 2.229-2.375 2.817-1.914 5.43901.422 2.40001-1.362 3.14101-1.883 5.18202-.259 1.017-.618.655-.07 1.87 1.468-.571 3.038-.581 4.567-.285 2.705.523 5.244 2.11101 7.893 1.25301.831-.269 1.226 1.005 2.083.393.824-.588 1.704.761 2.377 1.019.469-.98.542-2.33301 1.87-2.52001 1.017-.143 1.539 1.01801 2.42.90001 1.397-.18601 1.177-1.87101 1.519-2.80301.393-1.07001 2.659-.96001 2.546-1.58101-.036-.197 1.303-2.13 1.46-2.104.994.161.801-2.16701.919-2.98701.235-1.63601.212-3.41601-.209-5.02302-.43-1.638.6-1.079 1.495-.512.203-1.305 1.93-1.175 2.842-.852 1.579.56 1.904 2.195 2.421 3.61401.73 2.006.937 3.13701.995 5.28901.03 1.12201.312 2.13401.142 3.26701-.098.57001-.191 1.14101-.28 1.71201-.357-.137-.697-.101-1.019.11-1.193.676-1.964 1.576-3.263 2.10601-.649.266-2.791 1.011-2.867 1.878-.117 1.31901-1.573 1.43901-2.465 2.01301-.519.333-.611 1.055-1.058 1.495-.652.643-1.483 1.11901-2.069 1.82801.601.203.862.715.57 1.301-1.324-1.368-3.936 4.07701-4.679 5.13802-1.295 1.851-1.635 5.62301-4.055 6.59702-1.089.438-1.009 1.91-1.54 2.777-.281.45801-.718.72901-1.247.81901.298.771.016 1.296-.556 1.805-1.626 1.44601.119 1.91401.276 3.45501.078.76501-.544.61701-.58 1.22001-.042.711.41 1.385.478 2.085.069.70301-.068 1.47701-.383 2.10901-.638 1.279.646.468.537 1.701-.138 1.56201-1.032 1.85501-.739 3.55702.251 1.459 1.125 2.006.651 3.48501-.428 1.334.479 2.974 1.145 4.08701 1.16 1.941-1.45 1.232-1.348 2.35801.134 1.472-.739 2.966-.048 4.44901.387.83 3.513 5.32101.997 5.18901 1.141.92701 1.264 2.12601 2.629 2.97901 1.484.92801 2.961 1.64401 4.547 2.37801 2.588 1.199 6.22 3.22901 4.816 6.42798-1.011 2.305 2.042 6.9501 4.793 5.8051 1.085-.453 1.564 2.81 1.792 3.394.681 1.749-.491 3.717-1.206 5.286-.658 1.443-2.344 3.492-2.394 5.086-.053 1.69.111 2.189-1.449 3.303-2.826 2.015-6.069 3.048-9.434 3.727-4.061.819-7.996 2.01-12.162 2.199-1.608.073-2.957.041-4.536-.102-1.801-.163-3.02-1.309-4.747-1.533.24.467.563.867.966 1.202.445.407-.046 1.289.207 1.795.142.282 3.424 2.711 1.347 1.903.957.699 1.413 1.193 1.624 2.385.152.86.283 2.285-1.044 1.575.197.868.445 1.7531.413 2.6511-.025.727-.771 1.358-.231 2.007.394.474.941.803 1.396 1.212.693.622.334 1.629 1.302 1.11-.59 3.534-4.185 4.07-7.161 4.338-3.947.355-7.177-2.311-11.059-2.898 1.607-.313-.078-.897-.593-.631-.678.35-1.085 1.219-1.114 1.952-.081 2.116 2.5 3.651 2.895 5.734.321 1.689.36 3.781 2.237 4.499.958.366 3.59.571 2.846 2.195.4.099 4.097.512 3.848-.448-.203-.784-1.91-.815-2.488-1.132 1.23.188 1.888-1.08 3.03-1.149 1.177-.071 2.392 1.568 2.59 2.59.184.946 1.38 2.337.72 3.31-.457.673-2.14.883-2.866.794-1.209-.147-1.013-1.521-1.613-2.119-.983-.979-2.331-1.375-3.534-.569-3.186 2.133 2.071 3.87 3.913 3.404-.154 1.005-1.226 1.334-2.033 1.666-1.594.657-1.528 1.38-2.145 2.799-.641 1.477-.743 1.979.275 3.3601.353.479.847 1.063.908 1.686-.119.421-.127.843-.025 1.267.426.394.651.88.674 1.458-.048.271.088 1.253-.309 1.359-.563.148-1.336.39-1.415 1.096-.132 1.186 1.667 1.372 1.475 2.305-.21 1.019-7.369-.432-5.835 2.165-3.091-.653-3.91 3.056-4.337 5.31-.717 3.775 1.761 5.273 4.603 7.194 1.396.944 2.602 2.193 4.166 2.879 1.993.874 4.405-.306 6.295.813 2.641 1.563 3.044 6.7941-1.076 6.2641.759.305 1.304-.37 2.02-.43 1.088-.091 1.515.653 2.16 1.37-.63.075-.834.443-.51 1-1.188-.241-3.579 2.827-4.315 3.556-.964.951-1.707 1.876-2.42 3.042-.481.787-.949 1.253-.906 2.224.034.773.113 1.507-.569 2.059.587.104 1.048-.215 1.16-.8.075 2.141 2.428 5.856-.772 6.878-2.357.751-3.113-2.833-5.138-3.198.521.196 1.895 1.246 1.44 1.94-.337.516-1.721.071-2.23.5 1.973-.808 2.809.502 4.54.87-.214 1.324-2.303 1.255-2.784 2.724-.647 1.977.744 3.257-.386 5.266 1.46-1.812 3.575 2.164 4.106 3.204.816 1.598-2.498.662-3.316 1.336.858-.282 2.877.526 3.244.311 1.181-.694 2.095.8921 2.995 1.6051 1.746 1.384 3.614 2.392 4.421 4.414-.424-.723-1.396-.689-2.112-.766-1.283-.136-2.455-.832-3.681-1.189-3.089-.9-6.415-1.285-9.617-1.285-1.419 0-2.839 0-4.258 0-1.194 0-3.709.486-4.74-.158-1.607-1.004-2.958-3.2521-5.042-3.5121.656-.966.052-2.536-.781-3.142-1.102-.802-.248-1.852-.841-2.839-.366-.608-1.5-2.188-2.402-1.775-.706.321-1.319-.133-2.026.046-.524.132-.798.76-1.247 1.019-.948.548-2.289-1.969-2.586-2.564-.591-1.184-2.97-1.995-3.16-3.199-.1-.637-.435-.655-.719-1.187-.225-.42-.042-.957-.208-1.408-.235-.635-.987-.867-1.22-1.51-.262-.725-.037-1.489-.15-2.23 1.202.194 1.292-.507 1.59-1.439.17-.531-.149-.965.28-1.44.381-.421 1.128-.124 1.521-.58.775-.899-.056-2.364-.656-3.159-.691-.914 1.127-.984 1.226-1.73.109-.828-1.106-1.874-1.696-2.292-1.199-.849-1.374-1.391-1.366-2.8351.005-.992.245-4.51 1.982-4.243-.351-.79-1.319-.866-1.278-1.697.026-.533-.521-.961-.286-1.518.167-.395.593-.593.784-.98.784-1.591-1.914-4.062-3.03-4.875.978-.046 1.564-1.91.49-2.215-.767-.218-2.012-1.984-1.192-2.739.697-.643.914-.213 1.403-1.253.414-.88.556-.9-.229-1.661-.69-.67-1.453-1.289-2.237-1.846-1.111-.791-2.681.041-3.693-1.067-.859-.941 4.718-.538 5.168-1.168-.249.348.025-1.833.14-1.511-.845-2.373-4.677.048-5.615-2.276-.235-.378-.465-.76-.688-1.146-.16-.621.797-1.174.383-1.765-.527-.753-1.843-1.1841-1.105-2.0171.922-1.041-3.644-1.86-1.993-3.34.883-.792-.227-1.432-1.034-1.57-1.537-.263-2.132-.84-2.61-2.326-.365-1.135-.404-2.487-.799-3.561-.3-.814-1.521-1.507-.358-2.329.721-.509 1.981-.098 1.071-1.322-.776-1.045-2.465-2.495-2.317-3.917.255-2.461-2.272-4.745-2.697-6.972-.172-.903-.109-2.102.301-2.912.654-1.293-1.192-1.612-1.398-2.707 1.715.577.608-1.9101.115-2.4791-.994-1.146-.708-1.722.675-1.771-.878-.856-.427-3.349-.833-4.537-.624-1.821 1.202-2.174 2.308-3.178 1.204-1.093-1.408-2.845-1.774-4.19-.463-1.7-3.098-3.779-2.83-5.457.18-1.127-.95-3.862-1.476-4.941-.563-1.158-.855-3.708.062-4.712.495-.542.941.039 1.237-.618.222-.495.171-1.213.547-1.63.297-.33 1.085-.534 1.126-1.027.098-1.1751-.323-2.4201-.776-3.4811-.383-.89596-.849-1.75397-1.285-2.62497-.107-.215-.986-.797-.987-.893-.007-.787.969-.44 1.067-1.332.097-.87601-.077-1.76001-.162-2.62901-.083-.847.124-4.80502 1.411-4.57502 1.246.222-.518-2.906-.623-3.15701-.487-1.165.136-5.18001-1.236-5.62401-.779-.252-.307 1.016-1.377-.315-.785-.97701-.562-1.44801-.395-2.53401.131-.852-.486-1.163-1.064-1.58401-.748-.545-.504-1.061-.742-1.83-.522-1.68601-2.222-2.73301-2.709-4.43201 1.61.741-.178-1.46101-.794-1.77501-1.472-.75-1.965-3.16701-2.028-4.61701-.077-1.78101 1.28-1.12101.892-3.01701-.284-1.39101 1.125-3.93001.13-5.06102 2.434 1.62601 1.515-2.57701 1.186-3.47401-.482-1.31-2.756-4.78101-1.98-6.04102"/><path d="m204.87666 452.1595c.118-.505-.119-.578-.71-.22.236.074.473.147.71.22"/><path d="m206.10666 453.6695c.063-.854-.814-1.272-1.51-.87.455.374.958.664 1.51.87"/></g><path d="m197.24666 83.369419c-.823-.489-2.572-3.46101-2.561-4.44101.015-1.43501 2.396-4.09701 1.748-5.39402-1.203-2.40701 1.989-2.51301 3.589-2.65401.916-.081 2.138-2.179.544-2.631 1.624-1.94701.981-6.21002 4.51-5.72202 1.111.154 7.061.672 6.5 2.62501.777-1.53401-.432-2.60201 2.041-2.59201.915.004 3.801-.12 3.859 1.297.477-.603 1.403-.265 2.02-.289-.152-.105-2.143-.84-1.848-1.042 1.316-.901 4.756.484 6.177.723 2.485.417 2.374 2.15301 1.291 3.99201-1.183 2.00601-2.811 3.14701-2.716 5.69502.083 2.22801-.158 4.88101.923 6.91102.858 1.61201 2.981 2.97101 1.837 5.04702-.392.711-1.004 1.26-1.204 2.075-.195.796.205 1.63701.006 2.47501-.37 1.562-1.462 3.41801-2.58 4.55101-.399.404-2.837-1.158-3.115-1.507-.967-1.217-3.044.259-4.435.513-1.122.205-1.316.453-2.321-.096-1.057-.577-.86-.021-1.446.616-1.478 1.60501.368 1.52201.683 3.29001.398 2.231011-3.256.991-4.127.439-.635-.402-1.642-.483-2.131-1.031-.549-.614-.713-1.467-1.054-2.19201-.66-1.405-2.527-3.63701-2.529-5.16601 0-.577-.231-3.74601-.974-3.84301-.531-.069-1.451.678-1.884.111-.423-.55501-.14-1.29201-.803-1.76001"/><path d="m19.408661 133.18857c1.541.497 1.571-1.807 1.484-2.73601-.069-.747-.391-1.307-.644-2.001-.428-1.17401.886-2.05101.418-3.18401-.511-1.24201-1.892-2.90001.397-3.12401.955-.093 1.326-.477 1.512-1.40501.241-1.207.883-.93 1.872-1.08-1.672-.162-1.842-2.33301-.829-3.34701 1.541-1.542 2.577-2.62801 2.706-4.92801.037-.65601-.941-3.63602-.322-4.00702.692-.414 3.387-2.436 3.414-.458-.429-1.188 1.045-1.728 1.9-2.02.899-.308 2.825-1.51101 2.996-.36101.369-.936.748-1.932 1.368-2.736 2.029 1.854 5.128 5.26201 8.123 5.24201.932-.006.971 1.12801 1.864 1.41001 1.196.378.145 2.767 2.224 2.742 1.56-.018 2.783.73901 4.421.76301.541.008 1.725.699 1.959-.257.074-.303-.48-.60201-.073-.80201 1.511-.742 2.648.55201 3.516 1.60301 1.342 1.624 3.158 1.668 4.822 2.76501-.87.21-1.729.067-2.592-.08-.104.599 1.778 2.401 2.137 2.88301 1.076 1.442.297 2.897 1.031 4.60701-.566.083-1.046-.083-1.439-.5-1.053 5.73601-4.405 10.76903-9.248 14.13104-2.322 1.61201-5.317 2.06801-7.877 3.19601-1.295.571-2.033 1.416-2.864 2.51301-.315.314-.588.661-.819 1.042-.169.604.198.941-.289 1.509-.49-2.327-1.502 2.20201-1.632 2.43201-.787 1.38901-1.557 3.35601-1.47 4.97802.104 1.945-1.316 1.872-1.8 3.39701-.496 1.561-.391 1.849-1.877 1.809-1.797-.049-2.241-2.039-2.807-3.35001-.73-1.692-1.542-.376-2.654-.986-.778-.426-1.636-2.03201-2.621-1.047-1.337 1.339-2.74.97-1.338-.89301-1.027-.146-1.245-1.455-.493-2.072.448-.367 1.256-.135 1.752-.53.788-.62701-.357-4.50002-1.259-4.88802 1.125-.584 2.049-.272 2.737-1.562.596-1.11601.72-2.39901 1.084-3.59401.449-1.47101.478-1.53901-.006-2.90501-.463-1.30901-.627-2.58801.288-3.75001-1.617.781-.587 2.574-.827 3.90301-.393 2.175-1.892.237-.325.127-.784-.051-.852-.709-.576-1.29001-.523.52801-2.34 2.73101-1.944 3.53001-1.187-.814-2.054-2.102-3.324-2.785-.888-.478-1.897-.74901-2.076-1.90401"/><path d="m27.904661 137.07858c.272-.487.248-.967-.072-1.44-.173.49-.149.97.072 1.44"/><path d="m28.265661 135.85758c-.098-.251-.218-.491-.36-.72.12.24.24.481.36.72"/><path d="m29.273661 106.40849c.106.153.154.323.144.51-.048-.17-.097-.34-.144-.51"/><path d="m26.753661 137.29858c-.797.087-1.639.67601-1.935 1.43301-.106.273.14 2.144.719 1.678.199-.16.586-1.144.583-1.389-.004-.417 1.149-.826 1.424-1.29301-.264-.142-.527-.286-.791-.429"/><path d="m218.48566 396.56936c-.065-.273-.158-.537-.28-.791.094.264.187.528.28.791"/><path d="m250.16666 561.5209c.427-.138.559-.394.394-.767-.676-.942-.963.994-.963-.744-1.503.225-.044 1.253.569 1.511"/><path d="m254.70666 556.8398c.097.193.193.387.29.58-1.631.621-2.934-.909-4.54-.79.736.653 1.36.357 1.905 1.231.425.682 2.124 1.187 2.845 1.429-1.206-.352-2.286-.044-3.45.29.836 1.2241 1.979-.758 2.95.3601-.593-.146-.865.126-.72.72-.191-.265-.384-.528-.58-.79-.036.723-.9 2.084.51 1.22-.439 1.082-2.68.952-3.6 1.22.374.179 3.57 1.553 1.58.36.439-.062 1.75 1.458 2.036.903.451-.877 1.897-.504 1.274-1.903 2.014.66 2.714-1.58 3.639-2.8991.316-.451.733-1.002.778-1.573.051-.644-1.459-1.379-1.177.083-.885-.4-2.82-.919-3.74-.441"/><path d="m252.75666 556.6298c.398.215.809.238 1.229.07-.155-.601-.642-.875-1.229-.65.265.196.531.39.8.58-.267 0-.533 0-.8 0"/><path d="m254.34666 555.9808c.222.203.486.3.79.29-.263-.097-.527-.194-.79-.29"/><path d="m255.56666 555.5498c.416.617 1.661.554 2.24.29-.734-.203-1.503-.112-2.24-.29"/><path d="m259.23566 563.8999c.513-.456-.153-.783-.57-.721.191.241.381.481.57.721"/><path d="m259.02666 562.7499c.994.478 1.731 1.646 2.95 1.58-.5-.324-.774-.863-.5-1.44.735.282 1.431.704 2.23.79.015-.933-.951-1.391-1.66-1.72.877-.096 1.438.485 2.23.487.542.002.859-.359 1.44-.207-.029-.984-1.909-1.203-2.44-1.87 1.029.614 2.206.723 3.371.591.736-.083 1.799-.96.729-1.161 1.09.171 2.239-.077 3.24-.5101-.291.072-2.788-1.026-3.09-1.29.753-.401 1.521.107 2.3-.08-.687-.532-3.89-2.472-3.96-.21.612.073 1.178.397 1.58.86-.853.027-3.507-1.659-1.65-1.44-.766-1.379-2.994-1.276-4.32-1.149.434.607.088 1.162-.51 1.439.562.042.909.35.79.94-.27-.136-.533-.282-.79-.44.238.815 1.425.944 1.37 1.8801-1.177-1.4531-3.477 1.428-2.59 2.66-.24.097-.48.193-.72.29"/><path d="m266.58666 561.9599c.203.203.443.347.72.43-.24-.144-.48-.286-.72-.43"/><path d="m171.25666 306.63909c.699-2.86101 1.094-5.84602 1.435-8.76903.188-1.619-.046-3.119-.154-4.72601-.104-1.555.708-2.91901 1.375-4.26301.951-1.91701.862-4.66602 3.304-5.02802 3.025-.448 6.107-1.078 9.029-1.982 4.753-1.47001 8.173-1.11901 12.472 1.277 1.71.953 4.04 2.20501 4.173 4.42201.08 1.33001 1.106 5.40202 2.497 5.83002-.893 1.058.548 1.44201.79 2.22901.183.598-.002 2.48501-.1 3.16601-.158.478-.248.968-.271 1.471.084.666.561 1.32401.335 2.01901-.268.828-.34 1.954-.248 2.81301.055.51 5.223 1.3 6 1.315 1.141.021 2.249.616 3.361.561 1.076-.055 1.545-2.069 2.621-1.302 1.054.75 1.731 1.133 3.034 1.313.972.134 2.038.667 2.224 1.73201.189 1.086 1.086 1.823 1.24 3.10501.198 1.644 1.075 3.08001 1.265 4.71501.216 1.86501.667 5.64802 3.219 5.40002 1.421-.138 2.383-1.20401 3.739-1.46701 1.255-.244 2.208 1.25901 3.1 1.87001-.553.4-.606.943-.313 1.518.573 1.12501-.04 1.73601.256 2.81401.311 1.132-.136 2.31901-.342 3.42401-.198 1.066.111 2.02301-.454 2.99501-.979 1.68201-.087 5.34902.098 7.24802.062.63.081 4.22701-.783 4.39102-.424.08-1.965 1.921-1.788 2.329.179.413-1.413.363-1.644.48-.458.232-.711.96901-.907 1.39601-.179.392-1.119 3.14901-1.888 2.44801-1.915-1.74601-3.023-.26601-3.896 1.556-.569-.217-1.005-1.149-1.644-1.149-.828 0-1.273.434-2.072-.042-.781-.466-1.273.309-2.043.332-.738.022-1.464-.393-2.16-.58-2.333-.62701-4.677-1.63901-7.145-1.38701-1.169.12-1.877.94-2.284-.47-.078-.268.872-2.29201 1.135-2.46501 2.49-1.64-.204-6.07402 2.144-7.22802 1.088-.535 1.357-2.77001 1.948-3.87201 1.067-1.98801-.504-3.49001-2.156-4.59001-1.347-.89701-3.144-.81001-4.283-1.76901-.676-.57-1.537-.775-2.383-.937-1.039-.198-1.755-1.03101-2.635-1.53601-1.97-1.13-3.665-2.108-5.469-3.55301-1.976-1.582-3.806-1.213-6.022-2.099-1.374-.54901-4.341-.89101-4.802-2.62901-.455-1.70801-4.339-3.01301-5.639-4.18401-1.375-1.23801-2.217-2.70001-3.162-4.25302-1.066-1.75-2.923-2.274-4.107-3.88901"/><path d="m169.81666 62.777359c1.451-1.59401 2.248-2.17901 1.743-4.34001-.355-1.51801.26-2.22901 1.721-2.34101.656-.051-.02-.94.933-.656 1.006.302 1.301-.334 2.187-.6.718-.215 1.576-.70801 1.91-1.41601.273-.578-.323-1.642-1.047-1.383-1.806.645-.694-.96801-1.456-1.96501-.692-.907.199-1.849.779-2.56401.729-.9.756-.547 1.8-1.08 1.401-.716 2.01-2.45401 3.239-3.15701 1.689-.968.475-1.539-.289-2.89101 1.176 1.37501 2.745 2.28301 4.1 3.45601-.655-1.004-2.009-1.242-2.52-2.376 1.665.753 3.407 1.846 4.639 3.21101.993 1.101 2.253 3.235 3.485 3.95301 1.373.8 1.729 3.37601 1.243 4.73001-.364 1.015-.89 1.70901-1.018 2.82501-.111.965-.135 2.01701-.708 2.85001 1.904-.349.466-5.00602 3.401-3.96401 2.203.782 4.91 2.354 5.448 4.89901 1.435-1.292 2.451 1.37601 2.652 2.40301.351 1.788-.332 4.48501-1.492 5.87702 1.928.546-.217 1.51.28 2.52-1.185.229-5.308-.055-4.663 2.15801.586 2.01101-1.026 3.32201-1.338 5.29602-.21 1.328 1.204 3.96001 2.175 4.85901.992.918.329 2.02101 1.815 2.23101.311.044 1.118-.341 1.308-.044.612.959.691 2.149.86 3.24001.314 2.036 2.432 3.69501 2.432 5.69701 0 2.03401 2.301 1.97201 3.03 3.20401-2.463 1.577011-4.856-1.6-7.214.338-.395.32401-.63.76401-.983 1.123011-.649.661-1.47.375-2.256.648-1.442.501-1.506 1.218-3.206 1.24-.528.007-.83.418-1.172.75501-.261.044-.501.14-.72.288.064.299.103.601.117.907-.374.749-2.458 1.082-3.217.822-.528-.181-.187-.792-.937-.798-.597-.005-1.793-.45-2.019-1.063-.363-.99101-1.782-2.52801-2.875-2.67501.098-.239001.195-.479001.29-.720001-1.011.065-.894-.84201-.771-1.53301.213-1.202-.101-1.665-.826-2.54001-1.202-1.45-1.146-4.21401-.773-5.93301.287-1.32501 1.269-2.54101 1.275-3.94002.005-1.211.342-1.121 1.042-2.143.439-.64 1.375-1.76401.962-2.52701-.332-.611-1.2-1.464-1.2-2.19301 0-.702.37-1.373-.439-1.725-.56-.243-1.984-.265-2.327-.842-.323-.54201.805-2.17201.916-2.80201.185-1.05001.047-2.26401-.788-3.01801-1.247-1.125-3.193.646-4.704-.101-1.797-.887-4.009-4.43802-4.824-6.20002"/><path d="m217.12666 378.42931c.649-.91501 1.859-1.73801 1.36-3.02901.963.702 1.947 1.228 3.138.616.655-.336.671-1.363 1.519-1.47901 1.556-.211 3.089 1.69101 4.133 2.59201 1.37 1.18201 3.983 2.19401 4.227 4.22002.088.732-.05 1.949.993 1.691.752-.187 2.08-.887 1.62-1.88101 1.269.33201 3.718 4.31502 4.747 3.94402.961-.347 1.144.416 1.923.902 1.035.645 2.058.646 2.979 1.587.672.68801 1.236 1.52201 2.053 2.05601 1.064.695 2.363.809 3.349 1.66101 1.808 1.562 2.354 3.56001 4.615 4.68101 2.558 1.268 1.338 2.00601.122 3.90201-.885 1.38001-.267 4.98202 1.112 5.87302.882.568-.571 3.94001-1.167 4.94501-.499.84101-2.151 4.37202-3.612 3.06801.771.97901-.94 1.49701-1.567 1.75001-1.785.721-2.388.772-4.31.368-1.536-.323-3.18-1.104-4.686-.345-.639.321-1.337.738-2.069.804-1.115.1-1.047-.678-1.768-1.066-1.249-.671-2.829-.426-4.035-1.15701-1.663-1.009-2.32-2.045-4.445-1.937-1.366.069-2.459.647-3.463-.469-1.347-1.49901-3.388-2.48601-4.469-4.20102-.754-1.196-1.942-6.30902-.229-6.78002 1.771-.488.456-2.544-.06-3.47701-.368-.665-.643-1.399-.934-2.099-.245-.58701.542-1.07401.251-1.89901-.253-.72-1.534-2.81601-.914-3.53701 1.375-1.597-.404-2.55101.182-3.62701.407-.748-.107-4.22701.062-4.34701 1.263-.89701-.371-2.14601-.657-3.33001"/><path d="m109.04666 272.94899c1.585-.898 3.479-.089 4.11-2.31101.291-1.023-1.113-2.525-.309-3.38901.191-.124.397-.157.62-.1.644-.008 1.21-1.069 1.559-1.481.008 1.25 1.333 1.804 1.673 2.91301.331 1.077.998 1.482 2.067 1.696-.991.944.461 3.58701.803 4.57902.889 2.583 1.406 4.09901 3.608 5.88001 1.991 1.61001 1.111 2.12501.252 4.15902-.149.354 1.46 1.369 1.454 2.055-.009.858-1.326.93-1.867 1.25701 1.079.999.203 2.076.87 3.17001.332.544 1.173.395 1.51.93.46.732-.085.799 0 1.521.257 2.19001 3.241 3.23401 3.485 5.76002.297 3.05901 2.346 5.61702 3.205 8.49003.659 2.199.647 5.00001 3.787 4.00001 3.246-1.03401 3.436.987 3.116 3.64801-.245 2.043.339 5.31601-1.403 6.82902-1.759 1.526-4.874 1.136-6.076 3.38301-.446.834-1.581 1.247-1.674 2.28701-.083.933 1.461 2.559 1.819 3.47401-2.273.078-.715 3.69601-.236 4.75001.419.922.922 1.80201 1.258 2.76201.517 1.477-.869 1.806-.78 3.14601.124 1.869 3.224 3.94101 2.779 5.52401-.269.95501-1.908 1.44401-2.7 1.04901-.959-.478-1.162 2.42901-1.276 2.89001-.7 2.80001-1.549 4.84501-3.045 7.28402-1.29 2.103.216 4.51101-.569 6.72702-.391 1.104-1.389 1.257-.985 2.65001.339 1.17 1.171 2.132 1.509 3.29401.197.675.209 1.385.408 2.059.181.613.738.89001.924 1.44601.376 1.124-1.024 2.315-2.037 1.639.839.953-.22 2.85901-.22 3.94501 0 .75501.754 1.89001.015 2.53901-.542.476-.944.363-1.003 1.34901-.101 1.671 1.087 3.37201 1.896 4.75401.394.672 1.236.445 1.679 1.074.384.545.179 1.15301-.567.80901.546 1.904 2.611 3.105 2.958 5.04401.139.777.163 1.486.968 1.88901 1.069.535.178 1.648.394 2.498.569 2.24401 2.757.23 2.729 2.78401-.022 2.02301.014 3.65301 1.121 5.41502.172.274.892 2.149-.099 1.868-.923-.262-.818.183-.793.94701.027.858-.381 1.651-.517 2.489-.165 1.01401.11 1.99501.148 3.00401.041 1.06501-.716.84901-.858 1.49201-.184.828.281.5.593 1.126.985 1.97501 1.458 4.01797 2.298 5.98297.27.6311-.031 1.0721-.673 1.1441-.596.066-.688 1.036-.846 1.468-.373 1.02-2.33.699-1.896 2.125.264.865-.391 1.645-.084 2.533.292.847.982 1.552 1.072 2.471.147 1.502.585 2.897.876 4.332.327 1.615 1.961 2.516 2.623 3.938.435.936.55 2.017 1.215 2.843.315.392 1.318 1.196 1.048 1.824-.587 1.367-3.169 1.271-2.712 3.186.285 1.193.079 4.053.945 4.897-.996.035-1.656.153-1.039 1.284.25.457 2.335 3.6681.249 2.9661.208 1.105 1.288 1.151 1.563 1.963.22.649-.427 1.327-.553 1.927-.405 1.91 1.19 3.092 1.722 4.896.438 1.485.689 3.362 1.307 4.726.612 1.35 1.729 2.388 2.511 3.629-.577.545-1.877.293-2.085 1.231-.183.823 1.003 2.133 1.119 3.116.131 1.113.683 3.396 1.656 4.063.879.602 2.976.184 3.051 1.67.064 1.288-1.88.339.056 1.916.389.316.968.758 1.32 1.148.785.87-.468.579-.217 1.176.241.5701 1.07.7901 1.404 1.3171.521.822-.689 1.347-.282 2.079.518.931.635 1.844 1.673 2.042 1.4.267 3.246-.271 4.318.846.283.295.243 1.849-.029 2.094-1.026.926-2.837-.013-3.989.032-2.507.098.187 1.621 1.293 1.719 2.365.208 5.077 2.681 3.312 4.921-.233.297-.76-.06-.995.301-.411.631.497 1.574.635 2.149.127.526.896.478 1.19.865.481.633-.253 1.761-.97 1.794 1.018.742 3.861 3.322 3.034 4.788-.388.688-1.257.854-.781 1.809.135.271.012 1.207.324 1.348.535.241.987.575 1.232 1.126-1.103-.169-2.018 2.751-1.963 3.575.064.951-.217 1.8491.416 2.6701.547.711 2.862 2.246 2.584 3.298-.171.647-1.217.57-1.397 1.17-.302 1.005 1.912 1.865 1.05 3.257-.45.726-1.66.568-1.967 1.373-.396 1.033.278 2.682-1.603 2.377.156 1.015.124 2.06.717 2.947.49.734 1.292 2.331 1.384 3.166.129 1.18 2.433 1.954 3.09 2.887.637.903.985 2.479 2.075 2.974.749.341.934-.12 1.492-.516.661-.469 1.25-.164 1.974-.157 1.557.016 1.697-.264 2.686 1.251.688 1.055.104 2.414 1.099 2.991.869.504 1.393 2.412.826 3.247 1.496.187 3.92 2.1431 4.774 3.2821.982 1.312 5.345.388 6.762.388 5.875 0 11.437 1.219 17.114 2.671-1.476.027-2.815-.606-4.24-.87-2.598-.481-1.282.933-2.09 2.02-.712.958-2.142.052-2.978.977-1.009 1.116-2.835.901-4.152 1.323.873 1.157.945 2.602 1.239 3.963.287 1.328 1.11 2.075 1.733 3.209 1.659 3.018-2.296 1.996-3.803 1.685-1.809-.375-5.922-1.509-6.616-3.499-.697-2 3.181-.854 1.547.473.93.025.641-1.107 1-1.595.258-.351 2.295 1.442 1.3 2.395 1.575-.539-1.296-2.968 1.665-3.493.511-.09.624-1.486.625-1.849.003-1.025-1.719-.809-2.29-1.357.041 1.067-1.492 2.046-2.23 2.59-1.253.923-2.372-.507-3.6.29.894-.172 1.593.603 2.229 1.08-.52.115-1.023.064-1.51-.15.195.545.122 1.052-.22 1.521.909.119 1.615.761 2.24 1.369-2.175.551-5.865-1.812-7.42-3.17 1.073.512 2.579.458 3.74.431-.187-.967-2.469-1.04-2.55-2.927-.049-1.132 1.932-1.592 1.55-.174 1.261-.37 1.449-.251 2.331-1.315.894-1.077 3.255.522 4.499-.334-.798-1.037-6.075-1.788-6.33 0-.709-.251-1.217-.556-.07-1.011-.678.023-3.406.061-2.81 1.37.482-.465.986-.488 1.51-.069-.205.551-.661.974-1.22 1.149.374.627 1.521 2.155.057 2.282-.907.079-2.921-1.066-1.137-1.562-.894.279-1.586-.47-2.23-.94.503.077 1.007.077 1.51 0-.275-.128-.542-.271-.8-.43.993-.603-.117-1.783 1.23-1.44-1.058-.387-1.058-.553 0-.5-.503-.164-1.006-.164-1.51 0 .53.373.662.972.28 1.51-.246-.508-.721-.878-1.29-.939.026.603-.321 1.118-.86 1.37.311-.697.094-.961-.65-.79 1.633-1.34-2.303-3.803-2.6-5.04.685.772 1.894 1.529 2.962 1.479.493-.022 2.396-1.729 1.868.251.758-.452 2.197.316 1.08-1.01.391 1.698-.65-.537-.65-1.37.847.075 1.589.942 2.207 1.44 1.147.924.426 1.738-.267 2.66.703-.458 1.493-.124 2.24-.07-.982-.493-.242-1.672-1.126-2.201-.54-.322-2.345-1.689-.743-1.899-.974-.764-1.407-1.9801-2.497-2.6311-1.167-.697-2.608-.721-3.633-1.688-.189.213-.332.453-.43.72.91-.101 5.346 1.063 5.225 2.3001-.098 1.016-4.649-1.3541-5.295-1.2901.459.631 1.137.495 1.697.9381.599.474.214 1.351 1.184 1.363-.37.415-.61.895-.721 1.439-.676-.994-1.183-2.197-2.16-2.9501.772.9861 1.919 2.3321 1.87 3.6701-1.114-.982-2.577-1.379-3.16-2.88.495.372.998.732 1.51 1.08-.39-.685-1.596-1.134-1.37-2.0901-.467.005-.977.4681-1.44.3601-.463-.1071-.36-.7901-.945-.8951-.613-.109-1.401-1.65-1.505-2.196 1.264.307 2.036 1.412 3.02 2.16-.985-1.116-1.594-2.541-2.73-3.529 1.564 1.408.373-.362-.36-.511-.072.24-.146.48-.22.721-.6-.152-1.126-.439-1.58-.86 1.011 1.633-1.391-1.059-1.768-1.394-.462-.411.687-.617.847-.643.323-.053.647-.068.974-.049 1.243.096-1.185-1.421.667-.365-.648-.546-.6-1.68.43-1.66-.844.026-1.775-.796-1.149-1.649-.808.717-.066 2.239-.585 3.1-.611 1.013-3.142-2.443-3.665-2.74.545.184 1.048.446 1.51.79-1.509-1.363.127-.358.87-.43-.939-.828-3.007-.758-3.39-1.94 0 1.668-1.873-.802-2.88-.869 1.022-2.026 4.292 1.104 5.91.869-1.429-.329-4.382-1.189-4.61-2.96 1.184-.063 2.011 1.172 3.24.721-.773.047-.946-.543-.649-1.15-.706 1.726-4.189-.923-1.73-1.37-.557.143-2.543-.482-1.407-1.148 1.496-.876 2.629.729 3.928 1.148-.947-.577-1.995-1.206-2.8-1.72-.42-.269-1.116-.332-1.08-1.01.035-.658.749-.803 1.22-.511-.781-.371-2.175-3.26-.58-2.439-.539-.351-1.042-.304-1.51.14.378.361.426 3.275.149 3.74-1.104-1.076-2.856-3.002-2.768-4.641.021-.382-1.31-1.078-.694-1.558.459-.357 1.562-.389 2.092-.202-.233-.172-3.927-.564-2.579-1.811.563-.521 2 .229 2.579.441-.604-.322-.851-.915-.43-1.511-.497.062-3.338-.177-1.52-.8-1.772.809-2.724-2.482-4.46-1.939-.267-1.93 2.612.328 3.09.79-.33-.5-.687-.98-1.07-1.44 1.348-.206 2.352.465 3.578.855.521.166 1.089-.009 1.562.33.66.474 1.493.22 2.05.685.256-.439.209-.846-.14-1.22-.309 1.591-2.715-.584-2.81-1.44.914.719 1.982.503 3.03.79-.388-.148-.789-.213-1.204-.195-.822-.081-1.211-.952-1.826-1.385-.547-.386-1.051-.203-1.51-.7901-.364-.466-.111-1.07-.57-1.52.633.846.838 2.8541-.802 2.4631-1.397-.333-4.301-.062-5.318-1.0941.624-.159.843-.617.43-1.149 1.431-.38 2.048 1.314 3.311 1.58-1.117-.214-.449-1.354.43-1.01-.159-1.315-.91-.039-1.717-.471-.554-.297-.809-1.04-1.522-1.04-.734 0 .304-3.374 1.51-1.439-.211-.587.003-.958.65-.931-.086-.361-.229-.697-.43-1.01-.126.918-1 1.202-1.44.29.47-.161.95-.281 1.44-.359-.475-.662-1.477-.791-2.126-1.216-1.355-.885-1.669-1.335-3.274-.444.577-.188 1.154.032 1.51.51-1.201-.297-2.437-.52-3.535-1.119-1.928-1.052-.56-1.517-1.285-2.771-.699 1.383-3.512 1.57-3.601 2.81 1.31-2.103 3.414 3.175.455.856-1.944-1.524-.202-5.499 2.136-4.536-.696-.103-.923-.569-.5-1.15 1.191.932.592-1.275 1.79 0-.96-.733.334-1.637-.79-2.3.653 2.755-2.789.478-.72.57-.743-.101-1.602-.299-1.8-1.15.964.355 1.866-.611 2.918-.411.908.173 1.082 1.137 1.982 1.201-1.299-.888.094-1.247.823-1.342.876-.113.61.99 1.557 1.062-.52.703.594 2.016.28.5 2.145.971-1.073 2.379-2.3 1.8.825.499 3.494.927 4.46.86-.543-.248-.89-.766-.859-1.37.621.41 1.37.609 1.654 1.385.306.834-.585 1.526-.145 2.365 1.422-.188 1.84-3.629 1.59-4.68-.236.773-.423 1.581-.94 2.229.107-1.532-1.999-5.385 1.01-5.33-.852-.467-1.715.188-2.16.87-.152-.695-.63-1.584-.43-2.31.229-.829 1.158-.841 1.43-1.65.54.653 1.33.902 2.054 1.274.933.479 1.182-.535.412-.466-.621.055-1.006-.234-1.499-.544-.916-.574-1.941-.068-2.837-.555 1.577-1.182-2.183-2.401.771-2.734 2.121-.239 3.054-3.232 1.97-4.896-.748 1.229-5.327-1.224-5.224-2.413.194-.247.449-.26.764-.037-1.327-1.398 1.35-2.3031.5-3.4601-.238.871-1.031.892-1.066-.051-.043-1.186-.817-.733-1.348-1.839-.459-.957.042-1.34.25-2.168.119-.48-.85-1.888.584-1.552-.003-.874-.573-.994-1.052-1.574-.395-.479-.255-1.115-.562-1.621-1.14-1.881.295-.789 1.463-1.055-1.125-.152-2.283-1.4-2.59-2.45 1.606-.57 2.397.797 3.17 1.939-.162-1.503-1.216-3.028-1.95-4.31-1.462 1.371-3.563-.627-1.773-1.81 1.133-.75 2.686-1.295 1.204-2.73.893 3.946-2.192 1.072-3.96.646-1.351-.324-.417 1.818-1.162 2.308-1.112.731-5.268-.496-3.019-1.514-3.951-.084-4.495-6.269-4.926-8.985-.191-1.205-.98-3.951-.427-5.147.554-1.1961 1.377-.143 1.134-1.6741-.169-1.065.268-2.074-.001-3.147-.406-1.617-.855-2.498-1.996-4.165-1.161-1.697-2.578-3.263-3.159-5.282-.358-1.246-.005-2.127-.961-3.199-.642-.721-1.274-1.38-1.743-2.233-.39-.711.149-1.098-.111-1.633-.467-.961-.985-1.634-.839-2.764.83.616 2.326 1.011 2.766-.276.547-1.6-1.098-2.822-.536-4.403.029.568.37.886.94.859-.02-.401-.109-.787-.266-1.157-.19-.727.415-1.529.406-2.292-.019-1.517-.875-2.5231.046-3.9561.746-1.16-.608-1.845-.048-3.22497.424-1.045 1.227-2.819 1.373-3.91001.355-2.653-.773-5.45701-.65-8.06902.068-1.44901 1.416-2.68901 1.349-3.97801-.058-1.12901-.953-2.45101-1.382-3.49201-.363-.88101.205-2.05701.539-2.86101.361-.869-.258-2.27701-.365-3.13001-.077-.616.299-1.132-.148-1.69601-.469-.592-.894-1.182-1.142-1.903-.55-1.59601-.774-3.07801-1.449-4.67202-1.224-2.892-2.579-6.03401-3.11-9.14402-.27-1.57901.053-1.73601 1.152-2.53301.858-.622.009-2.01201.59-2.81601.552-.764-1.233-4.95701-1.854-5.46702-.781-.643-1.771-2.503-1.224-3.52801.763-1.429.868-2.706 1.355-4.24001.31-.973-.401-2.67501-.384-3.74401.029-1.73501 1.338-2.78601.663-4.54501-1.011-2.63501.389-5.90902.409-8.70403.019-2.44001-1.5-4.45201-1.384-6.76602.067-1.333 1.485-1.56301 1.436-2.83701-.065-1.699-1.292-3.36601-1.651-5.04601-.375-1.75701-.079-3.48901-.333-5.23502-.127-.879-.452-1.474-.211-2.38701.197-.746.511-1.504.348-2.295-.193-.93501-1.609-.37201-1.841-1.40101-.245-1.083.119-2.26101.219-3.34101 1.697 1.52101 1.609-3.44101 1.593-4.17001-.092-4.22201.765-9.07803-.806-13.04204-1.683-4.24601-.571-8.91303-2.157-13.23804-.661-1.80101-1.386-3.97001-1.714-5.85402-.216-1.184.345-3.59201-1.035-4.23001"/><path d="m203.00666 567.1399c1.457 1.315 3.289 2.216 4.399 3.891-1.003-1.848-3.31 1.374.507 1.411 1.429.014 1.863 1.604 2.776 2.421 1.12 1.003 2.766 1.252 3.815 2.187 2.776 2.474 6.803 3.631 10.167 5.165 1.532.698 3.759 1.574 5.459 1.524.837-.024 1.666-.196 2.506-.158 1.183.053.917 1.292.61 2.28-.949-.524-2.064.384-3.184-.048-1.222-.472-2.906 1.098-4.439.77-1.721-.369-3.221-.786-5.007-.84-1.991-.06-4.54.034-6.41-.747-1.203-.501-1.929.734-2.96-.788-.947-1.398-1.482-3.148-2.241-4.656-2.05-4.079-4.268-8.188-5.998-12.412"/><path d="m237.42666 585.7899c.981-1.218 3.125-.88 4.46-1.37-1.813-.462-3.503.147-5.18.79.219.219.46.412.72.58"/><path d="m131.58666 475.9196c-.711-.545-.893-.142-1.244.412-.432.681-1.859-.778-2.426-.772 1.247 1.271.116 2.978.762 4.022 1.074 1.738.902 4.304 1.756 6.037.366.742-.437 1.202-.105 2.018.321.792 1.322 1.023 2.061 1.222.64.172 1.295.363 1.954.448 1.359.175.207-1.824.123-2.227 2.093-.248-.002-1.697-.65-2.31.48.076.96.076 1.44 0-.26-.474-4.179-3.032-2.021-3.021-1.636-.964.074-1.525.87-2.16-1.037-1.033-2.043-2.264-2.52-3.669"/><path d="m128.91666 491.3996c.263-.168.506-.361.73-.58-.48-.326-.96-.326-1.44 0 .237.194.473.387.71.58"/><path d="m131.29666 502.3397c.235-.591-.113-.934-.72-.72.219.261.459.501.72.72"/><path d="m132.52666 500.2497c-.071-.437-.071-.592-.58-.72.193.241.386.48.58.72"/><path d="m133.60666 482.8296c.128-.619-.112-.643-.72-.07.24.023.48.047.72.07"/><path d="m134.60666 482.1096c-.158-.684-.833-1.091-1.51-.87.566.181 1.07.471 1.51.87"/><path d="m134.75666 500.3997c-.306-.724-1.051-.684-1.521-.15.507.049 1.014.1 1.521.15"/><path d="m134.17666 495.2797c-.364-.149-.304-.396-.79-.141.263.048.527.094.79.141"/><path d="m134.68666 499.0997c.336-.351.43-.757.28-1.22-.421.471-.925.588-1.51.351.205.524.646.891 1.23.869"/><path d="m134.46666 495.5697c-.232-.086-.472-.109-.72-.07.24.024.48.047.72.07"/><path d="m134.53566 497.0097c-.201-.185-.441-.23-.72-.14.24.047.481.093.72.14"/><path d="m135.40566 493.9197c-.079-.545.172-1.0471.79-1.0801-.81.2491-1.676-.184-2.31.5701.549.046 1.056.216 1.52.51"/><path d="m135.90566 501.7597c.171-.777-.773-1.118-1.37-1.08.341.508.797.868 1.37 1.08"/><path d="m135.18666 476.1996c.033-.41-.16-.673-.58-.79.193.264.386.527.58.79"/><path d="m136.33666 485.8496c-.407-.376-.887-.52-1.44-.43.481.139.961.281 1.44.43"/><path d="m136.55666 501.3297c.77-.316 1.342-1.059 2.229-1.08-.712-.656-1.89-.937-2.818-.653-1.568.478-.435 1.461.589 1.733"/><path d="m136.62666 497.2307c.044-.329.141-.643.29-.94-.516-.207-1.046-.254-1.59-.14.299.521.732.88 1.3 1.08"/><path d="m135.40566 497.6597c.263.073.527.146.79.22-.263-.073-.526-.147-.79-.22"/><path d="m136.33666 508.9597c-.237-.177-.5-.297-.79-.36.263.12.526.24.79.36"/><path d="m136.55666 494.2797c-.184-.218-.424-.291-.72-.221.24.074.48.148.72.221"/><path d="m137.12666 499.1697c.097-.217.193-.433.29-.649-.493-.164-.996-.284-1.51-.36.217.514.667.902 1.22 1.009"/><path d="m137.12666 496.1497c-.143-.429-.43-.719-.86-.87-.03.574.286.893.86.87"/><path d="m137.27666 498.1597c.442-.651-.424-.699-.8-.36.266.12.533.24.8.36"/><path d="m136.76666 509.1797c.24.047.48.094.72.141.029-.487-.017-.968-.14-1.44-.643.182-.941.687-.58 1.299"/><path d="m136.55666 502.9197c.88.365 1.971-.181 2.8-.439-.911-.744-2.234-.691-2.8.439"/><path d="m137.77666 505.5097c.156-.624-.399-1.099-.94-1.229.016.584.381 1.058.94 1.229"/><path d="m137.70666 497.2997c.086-.768-.177-.814-.79-.14.263.047.527.093.79.14"/><path d="m137.56666 507.9597c-.177-.256-.371-.499-.58-.729.193.243.386.486.58.729"/><path d="m137.70666 506.2997c.179-.718-.061-.814-.72-.29.24.097.479.193.72.29"/><path d="m138.35666 495.5697c.31-.812-.575-1.356-1.23-1.44.338.541.749 1.02 1.23 1.44"/><path d="m137.99666 498.3797c.401-.46.231-.699-.51-.72.169.24.34.48.51.72"/><path d="m138.20666 501.7597c.101-.259.101-.522 0-.79-.275.15-.515.344-.72.58.24.07.479.14.72.21"/><path d="m138.56666 509.5397c.985-.489 1.284-2.512-.14-2.59-1.562-.086-.044 2.009.14 2.59"/><path d="m139.57566 502.9197c-.611.319-1.309.373-1.939.64.177 1.454 3.022 1.397 4.03 1.23-.141-.953-1.101-1.884-2.091-1.87"/><path d="m140.22666 506.0097c.457-.05.913-.097 1.37-.14-.429-.836-2.084-1.233-2.88-.79.423.44.927.749 1.51.93"/><path d="m139.93666 502.5597c.441-.79-.384-1.492-1.15-1.229.234.548.618.958 1.15 1.229"/><path d="m139.86566 500.7597c.313-.073.627-.146.94-.22-1.078-2.102-2.719-.429-.94.22"/><path d="m139.64666 478.6496c.143-.542-.097-.662-.72-.36.24.12.48.24.72.36"/><path d="m144.25666 534.2308c1.286-1.348-3.186-6.053-4.9-5.11.297.417 1.396.927 1.471 1.415.128.836 1.159.694-.101 1.185.671.275 1.461-.548 1.762.226.286.732 1.056 1.919 1.768 2.284"/><path d="m140.08666 507.8797c.385-.697 1.241-.45 1.8-.21-.382-1.119-2.477-1.145-1.8.21"/><path d="m140.51666 501.5497h.5c.002-.617-.315-.927-.93-.72.143.24.286.48.43.72"/><path d="m141.08666 506.6597c.075-.649-.188-.723-.79-.22.263.074.526.147.79.22"/><path d="m141.37666 494.6297c-.116-.782-.195-1.459-1.08-.93.112.537.526.908 1.08.93"/><path d="m141.59666 509.1097c1.083-.672-.506-1.698-1.3-1.15.26.536.728.968 1.3 1.15"/><path d="m141.16666 526.9598c.238-.462.141-.8451-.29-1.1501-.218.206-.388.4461-.51.7211.266.143.533.285.8.429"/><path d="m141.52666 534.1598c.995.221 1.609-.546 1.08-1.44-.651-1.104-1.274-.32-2.17-.069.197.872 1.095.942 1.8 1.149-.237.12-.474.24-.71.36"/><path d="m142.02666 510.7597c.121-.637.185-1.655-.79-1.51.111.583.374 1.086.79 1.51"/><path d="m141.88666 535.0298c.635-.161 1.19-.555 1.649-1.01-.859-.272-1.443.663-2.3.289.2.257.417.497.651.721"/><path d="m142.16666 526.5298c.292-.7191.052-.9091-.72-.5701.24.19.479.3801.72.5701"/><path d="m145.83666 500.6797c-.164-.282-.354-.545-.57-.79 1.068-.288.842-1.36-.159-1.458-.329.024-.639-.04-.93-.193-.858-.701-.691.319-1.791-.288-.224.613.151 1.049.72 1.22-.467.354-.994.521-1.58.5.196.735.713 1.729 1.65 1.521-1.625.294.044.98.617 1.057.908.12 1.578-.982 2.043-1.569"/><path d="m143.96666 528.9098c.242-.788-.069-1.67-.79-2.09-.326.479-.326.96 0 1.439-.522-.45-1.786-.675-1.51.431.762-.756 1.5.084 2.3.22"/><path d="m144.47666 532.0798c2.259-1.674-1.065-2.973-2.59-2.74.67 1.069 1.579 1.99 2.59 2.74"/><path d="m145.33666 537.4808c-.087-1.217-2.331-2.311-3.31-1.66.281 1.48 2.623.396 3.31 1.66"/><path d="m143.89666 529.4098c-.24-.607-.947-.723-1.51-.65.541.129 1.044.346 1.51.65"/><path d="m144.04666 509.3997c.045-.374-.396-2.749-1.005-2.525-1.8.661.33 1.966 1.005 2.525"/><path d="m143.10666 511.3397c.209-.449.546-.763 1.01-.939-.744-.889-1.942.156-1.01.939"/><path d="m143.39666 537.5498c.119-.492-.121-.589-.72-.29.24.097.48.193.72.29"/><path d="m143.32566 509.4697c-.089-.364-.306-.631-.649-.8.216.267.433.533.649.8"/><path d="m142.81666 505.8697c.263-.05.527-.101.79-.15-.264.05-.527.1-.79.15"/><path d="m143.82566 504.2797c-.155-.294-.372-.534-.649-.721.216.241.433.481.649.721"/><path d="m143.46666 521.2797c.36-.209.526-.522.5-.94-.816-.089-.983.225-.5.94"/><path d="m144.75666 513.2097c.331-1.055-.588-1.964-1.51-1.08.582.25 1.085.61 1.51 1.08"/><path d="m144.32566 539.0598c-.218-.958 1.525-1.708-.21-2.229.134.959-1.683 1.939.21 2.229"/><path d="m144.68666 511.6997c-.187-.457-.52-.743-1-.86.072.56.43.88 1 .86"/><path d="m145.33666 536.7598c.263-.12.527-.239.79-.359-.41-.762-1.219-1.204-2.08-1.16.45.489.88.995 1.29 1.519"/><path d="m144.68666 528.6198c-.172-.276-.363-.539-.57-.79.189.264.38.527.57.79"/><path d="m145.26666 535.3898c.021-.499-.195-.858-.65-1.08-.301.603.052.984.65 1.08"/><path d="m148.07566 534.1598c1.32-.287-2.461-4.025-2.95-4.601.087.505.18 1.009.28 1.511.223.553.779.846.94 1.439-.547-1.314-2.073-.535-1.334.674.556.909 2.212.59 3.064.977"/><path d="m145.55666 541.3598c-.203-.204-.443-.348-.72-.431.24.144.48.288.72.431"/><path d="m151.38666 545.1798c.668.294 1.581.343 2.16 0-.179-.229-.372-.446-.58-.649 1.313.914.778-1.322-.28-1.51 1.958.377-.851-2.111-.51-.141-.169-1.685-.261-4.123-1.627-5.358-.517-.467-.211-1.203-.956-1.438-.51-.161-1.087-2.839-1.087-.913-.776-3.075-3.575 1.297-1.51.36-1.648.424-.103 1.455.65.72-.521.674.784 2.732.93 3.46-.42-.404-.9-.717-1.439-.939 1.006 2.031-1.766-.878 0 1.229-.328-.473-.854-.771-1.44-.65.521.439 1.001.919 1.44 1.44-.778-.481-1.328-1.257-2.16-1.66-.122 1.349 1.298 1.581 1.932 2.489.687.985 1.777 2.48 3.108 2.551.069-.975-.999-1.343-1.08-2.229-.083-.908.876-.954.94-1.801.843.108 1.093 1.118-.15.86-.018.601.388 1.01.94 1.16-.267.137-.53.28-.79.43.241.56.995.646 1.454.935.996.627-.77 1.321.847 1.006-.254.229-.517.445-.792.648"/><path d="m145.69566 534.5998c.787-.45.456-.81-.36-.72.121.24.24.479.36.72"/><path d="m149.00666 544.3898c-.545-1.499-2.104-2.235-3.601-2.38.202.783.938 1.853 1.8 1.011.088 1.022 1.251.752 1.801 1.369"/><path d="m145.69566 527.3198c.182-.354.43-.286.22-.79-.073.264-.146.527-.22.79"/><path d="m148.07566 539.1298c.319-1.243-1.766-2.948-2.234-1.606-.187.536 1.918 1.305 2.234 1.606"/><path d="m146.70666 538.9898c-.177-.23-.417-.327-.72-.29.24.097.479.194.72.29"/><path d="m147.42666 531.2098c1.076-.764-.305-1.552-1.08-1.51.364.501.723 1.004 1.08 1.51"/><path d="m147.49666 528.1908c.854-.261 1.854-.06 2.52-.79-1.205-.624-2.405-.147-3.67-.29.107.591.549 1.014 1.15 1.08"/><path d="m149.58666 532.2898c.18-.709-.879-1.07-1.3-1.37-.432.938.74 1.067 1.3 1.37"/><path d="m151.38666 547.6998c.251-.542.611-.999 1.08-1.37-.838.543-1.576.484-1.37-.57-.378.183-.7.126-.965-.171-.604-.466-1.325.095-1.985.021.538.443 2.445.697 2.3 1.66-.959.215-.827-1.043-1.8-.87.027.421.05 1.005.392 1.321.595.553 1.818-.19 1.128 1.059.567-.126 1.028-.53 1.22-1.08"/><path d="m151.09666 532.5098c-.291-.549-.874-.921-1.51-.79.477.313.98.577 1.51.79"/><path d="m151.60666 551.7998c.224-.718-.396-1.327-.73-1.87.564.29 1.021.081 1.08-.569-.798.191-1.494-.459-2.23.14.7.241.792.749.22 1.22.907-.036.738 1.081 1.66 1.079"/><path d="m151.67666 528.4808c-.056-.407-.295-.624-.72-.65.24.216.48.433.72.65"/><path d="m152.17666 548.4898c-.197-.194-.437-.218-.72-.07.24.023.48.047.72.07"/><path d="m152.89666 541.9408c.217-.17.433-.341.65-.511-.353-.479-.861-.85-1.44-1 .214.529.477 1.033.79 1.511"/><path d="m152.89666 529.2708c-.223-.153-.463-.273-.72-.36.24.119.48.239.72.36"/><path d="m153.61566 551.9498c.099-.639-.104-1.408-.93-1.3.055.572.424 1.049.93 1.3"/><path d="m153.68666 545.8998c.263-.167.527-.333.79-.5-.263.167-.527.333-.79.5"/><path d="m154.12666 549.3598c.319-.292.509-.651.57-1.08-.637.08-.94.495-.57 1.08"/><path d="m156.13666 552.5998c.028-.563-1.594-2.258-2.16-1.729-1.054.984 1.527 1.704 2.16 1.729"/><path d="m156.85666 554.4698c.427-.671 1.234-1.154 2.02-.72-1.217-.816-1.347-2.573-3.17-2.31.423.477.806.983 1.15 1.52-.762-.145-1.522-.318-2.3-.36.063.829 1.541 1.767 2.229 1.07.024.267.047.533.071.8"/><path d="m155.20666 558.7898c1.057-.279.526-1.781.64-2.52-.541.417-1.023.18-1.22-.431.03.897-.065 2.226.58 2.951"/><path d="m155.12666 554.8998c.251-.124.492-.268.72-.431-.24.144-.48.288-.72.431"/><path d="m159.16666 552.2308c.03-.852-1.208-1.307-1.81-1.58 1.351 0 .365-.249-.138-.779-.567-.6-1.128-.918-1.942-.511.623.36.813.979 1.22 1.52.68.903 1.787.796 2.67 1.35"/><path d="m156.63666 557.4898c.85-.235 1.286-1.118 1.52-.21-.042-.313-.042-.627 0-.94.268.16.531.327.79.5-.717-1.182-1.642-2.518-2.74-.569.61.197.847.678.43 1.219"/><path d="m157.57566 560.9499c.86-.259.178-1.217-.29-1.4401-.13.5251-.033 1.0061.29 1.4401"/><path d="m159.16666 555.2598c.143-.814-.895-.855-1.16-1.51-.693.894.575 1.244 1.16 1.51"/><path d="m159.44566 562.8199c.435-.937.276-3.8181-1.29-3.6011.231.4981.495.9781.79 1.4401-1.322-.273-.183 1.675.5 2.161"/><path d="m160.16666 555.3298c.17-.047.34-.093.51-.14-.6-.74-1.148-1.548-1.95-2.091.456.759.923 1.512 1.44 2.231"/><path d="m160.16666 562.9599c.467-.55.759-2.585-.5-2.229-.019.784.397 1.467.5 2.229"/><path d="m161.75666 564.4809c.782-.965-1.069-.706-1.521-.801.517.249 1.023.515 1.521.801"/><path d="m162.11566 557.2798c-.041-.708-.647-1.252-1.37-1.09.325.497.808.894 1.37 1.09"/><path d="m160.81666 562.3899c.496-.099.879-.362 1.15-.79-.62-.175-1.065.172-1.15.79"/><path d="m163.98566 561.4499c.013-.993-2.224-1.9381-3.03-1.8701.913.8061 1.93 1.3651 3.03 1.8701"/><path d="m161.03566 563.3999c.016-.243.016-.487 0-.73z"/><path d="m162.18666 556.6298c.217-.146.433-.293.65-.439-.269-.645-.795-.815-1.3-.28.187.265.404.505.65.719"/><path d="m164.27666 560.1599c.167-.12.333-.24.5-.36-.789-.4441-1.224-1.2941-2.02-1.7291.354 1.213.241 1.5751 1.52 2.0891"/><path d="m164.05666 556.6298c.026-.571-.292-.911-.86-.939-.026.571.292.911.86.939"/><path d="m166.00666 565.0499c.41-.067.72-.284.93-.649-.854-.481-2.649-2.402-3.67-1.29.881-.269 1.595.421 2.3.79-1.766-.506-.026.962.44 1.149"/><path d="m174.42666 572.6799c.64.182 1.287.209 1.939.08-1.115-.288-1.916-1.203-3.02-1.52 2.252 2.196-3.08-2.156-.72.069-1.555-1.17-3.133-1.205-4.907-1.665-1.389-.36-2.542-1.878-4.093-1.494 1.877.854 3.188 2.048 5.157 2.646.993.304 2.042.125 3.02.519.815.329 1.611 1.745 2.624 1.365"/><path d="m164.84666 562.9599c-.227-.397-.257-.519-.79-.36.263.12.527.24.79.36"/><path d="m165.85666 560.2999c-.06-.7181-.964-.9161-1.51-1.0101.475.3791.978.7161 1.51 1.0101"/><path d="m168.01666 563.6799c-.27-1.426-2.392-2.345-3.67-2.449.801 1.307 2.571 1.49 3.67 2.449"/><path d="m165.78566 561.0209c-.328-.299-.068-.555-.72-.36.24.119.481.239.72.36"/><path d="m167.94566 565.0499c.167-.047.333-.093.5-.14-.476-.986-1.666-1.542-2.729-1.44.727.552 1.6.896 2.229 1.58"/><path d="m166.57566 561.8799c.515-.401.349-.641-.5-.72.167.24.334.48.5.72"/><path d="m167.08666 563.5399c.12-.519-.147-.615-.8-.29.266.097.533.193.8.29"/><path d="m168.87666 567.8599c1.012-.562.593-2.711-.709-2.477-1.014.183.713 2.073.709 2.477"/><path d="m170.24666 572.1799c-.546-.001-.771-.123-.79.58.277-.175.54-.368.79-.58"/><path d="m170.82566 571.0299c.167.267.407.433.72.5-.24-.167-.479-.333-.72-.5"/><path d="m173.12666 569.7309c-.196-.986-1.581-.885-2.23-.5.797-.275 1.602-.021 2.23.5"/><path d="m171.25666 562.2399c.573-.208.941-.676.649-1.29-.533.231-.86.702-.649 1.29"/><path d="m173.05666 574.9899c.17-.24.34-.479.51-.72-.892-.246-1.062-.006-.51.72"/><path d="m174.92666 573.3299c-.363.029-.723.079-1.08.15.187.242.38.479.58.71-.497-.145-1-.262-1.51-.351.644.236 2.969 1.028 2.01-.509"/><path d="m181.98566 579.4499c.753-.534 1.678-.978 2.59-1.15-.775-.273-.907-1.564.141-1.08-.271-1.502-1.809-.761-2.382-1.679-.424-.68-1.701-1.319-1.578-.051-.315-.609-1.42-1.693-1.51-.29-.412-.564-1.711-2.33-2.59-1.65.135.245.279.485.43.721-.503-.088-1.007-.088-1.51 0 .989.498 1.84 1.139 2.95 1.359-1.107.072-2.923-1.529-3.67-.07.594-.157.96.09.94.721 1.865-.837 1.326.383 2.063 1.481.382.568 1.115.802 1.479.113.501-.948 1.611-.989 2.579-.585-.245.235-.484.476-.72.72.259.198.523.392.79.58-.485.222-.988.389-1.51.5.533-.01 1.036.11 1.508.36"/><path d="m179.10666 579.4499c.027-.906-.966-.953-1.51-.5.605-.144 1.108.023 1.51.5"/><path d="m185.15566 578.9499c-.146.023-.293.047-.439.07.425.551.261.937-.431 1.01 1.017 1.039 2.383-.63.87-1.08"/><path d="m185.58666 581.8999c.205-.451.18-.688.79-.58-.503-.403-1.006-.403-1.51 0 .22.219.459.413.72.58"/><path d="m185.80666 577.1499c-.26.036-.5.129-.72.279.24-.092.48-.186.72-.279"/><path d="m188.60666 577.8699c-.635-.22-1.081.394-1.407-.305-.286-.61-1.587.641-2.043.665.359 1.194 3.545 1.273 3.09 2.81 1.966.037.049-1.433-.43-2.02.397.456.877.575 1.44.359-.37-.437-.586-.939-.65-1.509"/><path d="m187.09666 580.8199c-.244-.24-.508-.457-.79-.65.263.217.527.434.79.65"/><path d="m187.23566 582.2599c-.215-.136-.452-.209-.71-.22.237.073.474.147.71.22"/><path d="m187.67666 581.9699c.289-.74.049-.906-.72-.5.24.167.48.333.72.5"/><path d="m191.41666 578.4409c-.73-.343-1.804-.466-2.59-.28.174.135 2.246 3.953 2.23 1.149-.021 1.694 1.919.072 1.58 1.73.557-.118 1.087-.312 1.59-.58-.373-.524-2.118-2.641-1.73-.65-.562-.251-.98-.756-1.08-1.369"/><path d="m190.12666 584.5599c-.081-.505-.008-.713-.65-.72.217.24.433.479.65.72"/><path d="m191.20666 580.3099c.06.443.056.596.57.73-.19-.243-.38-.487-.57-.73"/><path d="m197.17666 580.2399c-.274-.889-1.182-1.406-1.58-2.23.459.464.939.487 1.439.07-1.129-.537-1.019-2.188-2.09-2.73-1.58-.799-.836 1.367-.14 1.87-.516-.178-1.023-.154-1.521.07.935 1.519 2.113 2.57 3.892 2.95"/><path d="m196.88666 586.1499c.073-.193.146-.387.22-.58-.997.128-1.874-.491-2.88-.21.096.268.24.508.43.72.599-.827 1.608-.549 2.23.07"/><path d="m197.96666 579.5999c.206-.883-.034-.979-.72-.29.24.096.48.193.72.29"/><path d="m201.35666 588.2309c.238-.641.438-1.201 1.22-.721-.377-1.027-1.979-.79-2.81-.93.592.029 1.089-.312 1.3-.86-.649-.058-1.09.644-1.717.534-.696-.122-1.398-.336-2.103-.104.683 1.692 3.308.31 4.11 2.081"/><path d="m198.90566 580.5999c.148-.923-.981-.74-1.439-.43.478.148.958.291 1.439.43"/><path d="m200.20666 585.2099c-.574-.094-1.08.05-1.52.43.589.15 1.095.008 1.52-.43"/><path d="m203.51666 585.8599c-.193.24-.387.479-.58.72.62-.058.552-.219.58-.72"/><path d="m204.52666 588.5209c-.167-.267-.406-.434-.72-.5.24.167.48.333.72.5"/><path d="m204.66666 588.7399c-.263-.047-.527-.094-.79-.141.263.048.526.094.79.141"/><path d="m204.59666 586.8699c1.274-.162 2.766.058 3.81-.87-1.083-.246-3.558-.638-4.46.15.188.266.405.506.65.72"/><path d="m204.37666 587.5899c.339.685 2.255.931 2.88.79-.674 1.339 2.7 2.216 3.529 1.73-.498-.376-1.005-.737-1.523-1.085-1.926-1.287 1.401-.609-.787-1.295.889-.31 2.042.828 3.035.894.95.063 1.615 1.163 1.215 1.696.794-.516 3.028.076 3.914.293 1.03.254 1.218 1.553 2.496 1.227-.807-.939-1.453-1.743-2.66-2.17-.918-.324-2.374-.139-3.03-1 .782.674 2.074.387 2.96.14-1.808-1.243-4.5-.195-6.05-1.939 1.416.55 1.885.351 3.283.374 1.097.019.468-1.069-.284-1.195-1.106-.186-2.272.153-3.322.475-.595.181-3.929-.355-2.847 1.137-.465-1.231-2.099-.777-2.809-.072"/><path d="m205.16666 589.0299c-.682.103-.585.292.29.569-.097-.189-.194-.379-.29-.569"/><path d="m207.40566 589.8899c-.155-.442-.158-.61-.72-.5.24.167.481.333.72.5"/><path d="m208.83666 590.3199c-.168-.248-.405-.392-.71-.431.236.144.473.288.71.431"/><path d="m223.02666 587.3699c-1.135-1.509-7.188-2.837-8.5-.86 1.103-.548 1.323.921 1.917 1.459.514.465 3.773.441 2.043.631.505.063 1.012.087 1.521.07.405-.089-.09-.479.099-.64.589-.503 1.153.826 1.485.981.93.436 1.734-.854 1.435-1.641"/><path d="m220.93666 591.6199c.167-.217.333-.434.5-.65-.8-.301-.967-.084-.5.65"/><path d="m222.80666 593.92c.023-.19.046-.38.07-.57-.531-.131-1.035-.061-1.51.21.526-.067 1.006.053 1.44.36"/><path d="m224.10666 592.99c-.172-.5451-.509-.9551-1.01-1.2301-.221.232-.388.499-.5.8.501.149 1.005.293 1.51.4301"/><path d="m222.87666 586.5099c.076.627 1.047.55 1.45.57-.453-.268-.936-.459-1.45-.57"/><path d="m224.75666 588.4499c-.392.021-.705.191-.94.51.453.259.933.329 1.44.21-.167-.24-.334-.479-.5-.72"/><path d="m225.11566 593.85c.119-.492-.121-.589-.72-.29.24.096.481.193.72.29"/><path d="m226.12666 594c-.15-.298-.367-.537-.65-.72.217.241.433.48.65.72"/><path d="m226.83666 588.8799c.573-.556.114-1.032-.57-.72.165.26.355.5.57.72"/><path d="m139.71666 509.7597c-.07-.267-.14-.533-.21-.8.979.097 1.048.363.21.8"/><path d="m158.00666 556.6998c.071.188.121.381.149.58-.049-.193-.099-.386-.149-.58"/><path d="m158.00666 556.6998c-.072-.252-.07-.243 0 0"/><path d="m173.41666 563.5399c-.023-.264-.046-.526-.07-.79.181.243.324.506.43.79-.121 0-.24 0-.36 0"/><path d="m193.64666 572.6099c-.517-.673-1.31-2.112-.72-2.95.202.967 1.667.887 1.51-.15-.084-.554-1.771-1.123-2.23-1.29.825-.771 1.907.167 2.758.364 1.855.429 1.016-1.762 1.58-2.558.604-.853 2.29 1.098 2.926 1.261 1.136.291 2.027-1.043 3.062-.401 1.14.707 1.215 2.283 1.919 3.313.974 1.428 1.67 3.027 2.349 4.609 1.575 3.667 3.908 7.062 5.206 10.831-.7-.42-1.531-.508-2.23-.93.408.407.888.694 1.44.86-1.038 1.11-3.541.42-4.734-.021-.611-.227-1.304-1.245-1.99-1.045-.912.267-1.073.513-1.847-.225.172.309.342.619.51.93-.529-.551-2.904.56-2.09-1.01-.14.768-2.644 1.169-3.31.87.457-.391.937-.751 1.439-1.08-.887-.518-2.113.539-2.96.72-.042-.576-.278-1.056-.71-1.439-.326 1.807-1.613-.307-2.24-.65.997 1.354-1.015.861-1.7.747-.546-.092-1.193.499-1.68.333-.514-.175-.693-1.134-1.149-1.44.871-.063 1.485.638 2.3.79-.051-.572-.402-.965-1.01-.859.585-.219 1.092-.099 1.52.359-1.641-1.554 3.171.087 3.663-.533.415-.524-.041-1.379 1.23-1.029.872.239-.017 2.645 1.437 2.283-.472-.327-.771-.854-.65-1.44 1.251-.021 2.493 1.565 3.75 1.01-1.207-.67-2.529-1.021-3.635-1.877-.965-.746-2.271-.162-2.995-1.363 2.028.327 4.296.937 5.98 2.16-.638-.4-.846-1.277.199-1.115.933.145 1.604 1.092 2.321 1.615-.25-.552-.633-.984-1.149-1.3.94-.346 1.951.927 2.589.506 1.017-.67 2.464.927 1.65 1.944.271-.585.807-.854 1.37-.43-.866-.908-.09-.953.65-.86-2.652-2.271-8.018-1.505-10.048-4.707-1.438-2.269 4.071-1.789 3.408-3.846-.827-2.566-6.054 1.658-7.689-.957"/><path d="m202.86566 564.6909c.146.079.243.199.29.359-.096-.12-.193-.239-.29-.359"/><path d="m211.71666 584.9199c.24.193.48.387.72.58-.551.261-.557-.198-.72-.58"/><path d="m119.05666 256.93894v.681c-3.572-.151.236-3.23901-2.06-4.31101-.523 2.52001-1.823.647-3.12.94.173-.359.63-1.75-.165-1.75-1.117 0-2.085-1.93601-2.465-.561-1.472-.84101-2.214-1.07301-1.25-2.81901.217.224.427.454.63.689.286-.957-.778-1.458-.596-2.32701.455-2.164 2.445-.585 3.216.237.959 1.02401 2.31 1.62701 3.235 2.63301.675.734.963 1.90301 2.205 1.70701-.111.538-.577 2.13.204 2.457.689.28901 1.492-.426 1.667.73301-.882-.267-1.051 1.212-2.12 1"/></g></svg>