<?xml version="1.0" encoding="UTF-8"?>
<svg width="1200pt" height="1200pt" version="1.1" viewBox="0 0 1200 1200" xmlns="http://www.w3.org/2000/svg">
    <g>
        <path fill="currentColor" d="m1181.2 553.12h-145.78c3.2812-5.625 5.1562-11.953 5.1562-18.75 0-20.625-16.875-37.5-37.5-37.5 0-20.625-16.875-37.5-37.5-37.5-3.0469 0-5.8594 0.23438-8.6719 0.9375-8.6719-12.188-22.969-19.688-38.203-19.688s-29.531 7.5-38.203 19.688c-2.8125-0.70312-5.625-0.9375-8.6719-0.9375-20.625 0-37.5 16.875-37.5 37.5-20.625 0-37.5 16.875-37.5 37.5 0 6.7969 1.875 13.125 5.1562 18.75h-123.28l-11.25-13.125-7.9688-34.219 27.891-102.19 43.828 36.797v85.312c0 3.5156 1.875 6.5625 4.9219 8.2031 1.4062 0.70312 3.0469 1.1719 4.4531 1.1719 1.875 0 3.5156-0.46875 5.1562-1.4062l28.125-18.047c2.5781-1.6406 4.2188-4.6875 4.2188-7.9688v-89.766c0-2.1094-0.70312-4.2188-2.1094-6.0938l-30-35.859c23.906-10.312 43.359-30.234 52.734-55.547l31.641-85.547 34.453 4.6875c1.6406 0.23438 3.0469 0.23438 4.6875 0.23438 11.484 0 22.031-5.625 28.359-15 3.9844-5.625 5.3906-12.891 3.75-19.453-1.4062-6.7969-5.625-12.656-11.484-16.172l-53.203-31.875v-15.469l29.062-4.6875c1.875-0.23438 3.5156-1.1719 4.9219-2.5781l39.844-38.203c3.75-3.5156 3.9844-9.6094 0.23438-13.359-3.5156-3.75-9.6094-3.9844-13.359-0.23438l-37.266 36.797-23.203 3.75v-15l24.375-15.938c4.2188-2.8125 5.625-8.6719 2.8125-12.891s-8.6719-5.625-12.891-2.8125l-24.844 16.406-18.75-5.8594 20.625-22.969c3.5156-3.75 3.0469-9.8438-0.70312-13.125-3.75-3.5156-9.8438-3.0469-13.125 0.70312l-26.25 29.297-15.938-4.9219 15.938-22.266c3.0469-4.2188 2.1094-10.078-2.1094-13.125s-10.078-2.1094-13.125 2.1094l-15.234 21.094-26.719-44.766c-2.5781-4.4531-8.4375-5.8594-12.891-3.2812s-5.8594 8.4375-3.2812 12.891l33.75 56.953c0.23438 0.23438 0.23438 0.46875 0.46875 0.46875 0.23438 0.23438 0.46875 0.70312 0.70312 0.9375l0.46875 0.46875c0.23438 0.23438 0.46875 0.46875 0.9375 0.70312l0.23438 0.23438c0.23438 0.23438 0.46875 0.23438 0.70312 0.46875 0.23438 0 0.23438 0.23438 0.46875 0.23438l1.4062 0.70312 64.453 20.156v39.609c-0.70312-0.23438-1.4062-0.23438-2.1094-0.46875l-1.4062-5.1562c-4.6875-16.641-19.219-27.891-36.562-28.594l-9.6094-0.23438c-2.5781 0-5.1562 0.9375-6.7969 2.8125-1.875 1.875-2.8125 4.2188-2.8125 6.7969l0.23438 10.312c0.23438 12.656 6.7969 24.375 17.109 31.406l-49.219 48.984h-272.81c-15.703 0-30.469 6.0938-41.484 17.109l-42.656 41.953c-2.1094 2.1094-3.0469 5.1562-2.8125 7.9688 0.46875 3.0469 2.1094 5.625 4.9219 7.0312 13.359 7.2656 29.531 6.3281 41.953-2.1094l9.375-6.5625c-1.4062 6.3281-2.1094 12.656-2.1094 19.219v89.297l-53.203 41.953c-7.9688 6.3281-12.422 15.703-12.422 25.781v14.062c-2.1094 2.3438-4.2188 4.6875-5.625 7.5-6.0938-0.70312-12.422 0-18.047 2.1094-6.0938-12.422-18.984-21.094-33.75-21.094-7.9688 0-15.703 2.5781-22.031 7.2656-7.5-4.6875-15.938-7.2656-24.844-7.2656-22.734 0-41.719 16.172-45.938 37.734-1.6406-0.23438-3.2812-0.23438-4.9219-0.23438-31.875 0-58.125 24.844-60.234 56.25h-122.11c-5.1562 0-9.375 4.2188-9.375 9.375v37.5c0 96.094 22.734 191.72 65.625 276.09 46.641 91.875 121.64 170.62 216.8 227.58 94.922 56.484 201.56 86.484 308.2 86.484 76.875 0 152.34-15.703 224.53-46.406 70.078-29.766 133.36-72.422 188.2-126.56 114.84-112.97 177.89-261.33 177.89-417.66v-37.5c0-5.1562-4.2188-9.375-9.375-9.375zm-400.08-238.83c-11.484 30.703-41.016 51.328-73.828 51.328h-9.6094l6.3281-23.438c17.344-4.6875 33.984-12.656 48.281-23.672l37.734-28.594zm-406.17 142.5c0-4.4531 1.875-8.4375 5.3906-11.016l56.719-44.766c2.3438-1.875 3.5156-4.4531 3.5156-7.2656v-93.75c0-11.484 3.0469-22.734 8.9062-32.812 1.6406-2.8125 1.6406-6.5625 0-9.375s-4.6875-4.6875-8.2031-4.6875h-7.0312c-1.875 0-3.75 0.46875-5.3906 1.6406l-24.844 17.109c-2.3438 1.6406-4.6875 2.5781-7.2656 3.2812l29.531-29.062c7.5-7.5 17.578-11.719 28.359-11.719h276.56c2.5781 0 4.9219-0.9375 6.5625-2.8125l56.25-56.25 15.469 7.2656c1.1719 0.46875 2.5781 0.9375 3.9844 0.9375 2.1094 0 4.4531-0.70312 6.0938-2.3438 2.8125-2.3438 3.9844-6.0938 3.0469-9.6094l-0.23438-0.9375c0.23438 0.23438 0.46875 0.23438 0.70312 0.46875l57.656 34.688c1.4062 0.9375 2.5781 2.3438 3.0469 3.9844s0 3.5156-0.9375 4.9219c-3.0469 4.2188-7.7344 6.7969-12.891 6.7969-0.70312 0-1.4062 0-2.1094-0.23438l-42.188-5.625c-4.4531-0.46875-8.4375 1.875-10.078 6.0938l-13.125 35.391-61.172 46.641c-9.375 7.2656-19.922 12.891-31.172 17.109 0.9375-4.6875-1.875-9.6094-6.5625-10.781-4.9219-1.4062-10.078 1.6406-11.484 6.5625l-51.094 186.8c-0.46875 1.4062-0.46875 3.0469 0 4.6875l8.9062 38.672c0.23438 1.4062 0.9375 2.8125 2.1094 3.9844l2.1094 2.5781h-9.375l-17.109-45.938 8.2031-41.953c0.46875-2.3438 0-4.9219-1.4062-6.7969-11.719-17.812-15-39.844-9.1406-60.469l19.219-67.031c1.4062-4.9219-1.4062-10.078-6.3281-11.484s-10.078 1.4062-11.484 6.3281l-0.70312 2.3438h-31.641c-16.406 0-31.875 7.2656-42.188 20.156l-13.828 17.344h-32.109v-17.109c0-5.1562-4.2188-9.375-9.375-9.375s-9.375 4.2188-9.375 9.375v39.375c0 15.234-8.9062 29.531-22.734 36.094l-74.531 35.859c-2.3438-0.46875-4.6875-0.70312-7.0312-0.70312-2.8125 0-5.625 0.23438-8.2031 0.9375zm45.469 36.328c-0.9375-8.4375-4.4531-16.172-10.078-22.031l27.656-13.359 41.953 95.391h-22.5c0.70312-3.2812 0.9375-6.5625 0.9375-10.078 0.23438-23.672-15.703-43.828-37.969-49.922zm84.609-21.797 32.344-37.5c11.719-13.594 16.641-31.641 13.359-49.453h58.594l-2.3438 8.4375c-7.0312 24.609-3.5156 50.625 9.375 72.422l-7.9688 41.016c-0.23438 1.6406-0.23438 3.5156 0.46875 5.1562l15.703 41.719h-90.234l-17.109-21.797zm52.969 348.52 6.0938 60c0.9375 8.6719 3.75 16.875 8.4375 24.141s11.016 13.125 18.516 17.344c7.5 3.9844 14.062 9.375 19.922 15.703 14.062 15.469 21.797 35.625 21.797 56.953 0 4.4531-0.23438 8.9062-0.9375 13.125-1.1719 7.0312-4.6875 13.125-10.078 17.344l-26.953 20.391c-2.5781 1.875-5.625 3.0469-8.6719 3.0469-5.625 0-12.422-3.5156-14.766-11.484-0.9375-3.2812-1.4062-6.7969-1.4062-10.312 0-5.625 1.4062-11.016 3.75-16.172 2.1094-4.2188 3.2812-8.9062 3.2812-13.594 0-11.016-5.8594-21.094-15.234-26.016-13.125-7.2656-24.141-17.812-32.344-30.938-7.9688-13.125-12.891-28.125-13.594-43.828-0.46875-7.2656-1.6406-14.062-3.9844-20.859-8.9062-27.422-31.641-47.109-58.828-51.797l-24.375-4.2188c-1.1719-0.23438-2.3438-0.46875-3.2812-0.46875-25.781-3.2812-51.094 7.5-67.266 28.594l-25.781 33.516c-2.1094 2.8125-4.9219 5.3906-7.9688 7.5s-6.3281 3.75-9.6094 4.9219c-10.781 3.5156-22.031 1.6406-31.406-4.9219-9.8438-7.2656-15.938-19.219-15.938-31.875v-2.1094c0-13.828-4.2188-27.188-11.953-38.438-25.078-36.562-58.594-66.797-96.797-87.891-8.4375-4.6875-19.219-4.6875-27.656-0.23438-11.25 5.8594-21.328 14.531-28.828 25.078-10.312 14.297-15.703 31.172-16.172 48.75-0.23438 12.422-2.3438 28.594-5.3906 43.594-33.047-73.125-51.094-153.75-52.5-235.31h565.31c2.5781 10.547 7.7344 20.391 15 28.359l4.2188 4.6875c5.3906 5.8594 10.078 12.422 14.062 19.219 3.9844 7.0312 7.2656 14.531 9.375 22.266 1.4062 4.4531 1.875 8.9062 1.875 13.359 0 19.688-11.953 36.797-29.766 42.656-32.578 10.781-53.672 44.297-50.156 79.922zm236.95 58.125-5.1562 2.5781c-3.9844 2.1094-7.0312 5.3906-8.9062 9.375l-4.2188 8.9062c-9.375 19.688-31.172 29.062-51.094 22.031-16.641-5.8594-21.562-27.891-9.1406-40.781 11.25-11.719 11.25-30.703 0-42.422-2.1094-2.3438-3.9844-4.9219-5.3906-7.7344l-15.234-31.875c-3.75-7.7344-2.3438-17.344 3.75-23.438 7.5-7.9688 19.922-7.9688 27.422 0 6.3281 6.5625 14.766 10.312 23.672 10.312 18.516 0 33.281 15.703 33.281 34.922v1.4062c0 7.9688 4.2188 15.234 11.25 18.984 14.766 7.7344 14.766 30-0.23438 37.734zm36.328-233.2c-13.125 0-25.547-5.3906-34.922-15.234-3.9844-4.2188-6.3281-10.078-6.3281-16.172 0-1.4062 0.23438-2.8125 0.46875-4.2188h107.11l1.4062 2.8125 8.6719 18.047c2.3438 4.9219 1.4062 11.25-2.3438 15.234-2.3438 2.3438-5.1562 3.5156-8.2031 3.5156s-6.0938-1.1719-8.2031-3.5156c-5.8594-6.0938-13.594-9.375-21.797-9.375-4.9219 0-9.6094 1.1719-13.828 3.5156-7.0312 3.75-14.531 5.3906-22.031 5.3906zm89.531 425.39c-0.70312-5.1562-1.1719-10.312-1.1719-15.469 0-4.6875 0.23438-9.1406 0.9375-13.594 1.1719-8.9062-1.6406-17.578-7.9688-23.906-5.8594-6.0938-14.062-8.9062-22.266-7.9688l-20.156 2.3438c-2.5781 0.23438-5.625-0.46875-7.7344-2.3438-2.8125-2.3438-4.4531-6.0938-4.2188-10.078s2.1094-7.2656 5.1562-9.375l15.938-10.781c6.7969-4.6875 12.891-10.312 17.812-16.875 4.9219-6.3281 7.7344-14.531 7.7344-22.5 0-11.016-4.6875-21.328-13.125-28.359-3.5156-2.8125-5.625-7.2656-6.0938-11.953l-5.625-54.141c0-0.9375-0.23438-2.1094-0.23438-3.0469 0-6.3281 2.1094-12.422 5.8594-17.578 6.0938-7.9688 15.938-11.719 25.547-9.6094l35.391 7.9688c16.641 3.75 34.922 1.875 50.391-5.8594 16.172-7.7344 26.25-24.141 26.25-42.656 0-14.062-6.0938-27.422-16.875-36.328-2.8125-2.3438-4.9219-5.1562-6.7969-8.4375-1.6406-3.2812-2.8125-6.7969-3.2812-10.547-0.23438-1.875-0.23438-3.9844-0.23438-5.8594 0-18.047 8.6719-34.688 23.203-44.531 14.062-9.375 18.984-27.656 12.188-43.359l-7.0312-15.703h147.42c-3.2812 188.2-103.12 357.89-251.02 460.55zm251.02-479.53h-1143.8v-18.75h1143.8z"/>
        <path fill="currentColor" d="m191.95 286.17c1.6406 2.5781 4.4531 4.4531 7.5 4.4531h0.46875c3.0469 0 5.625-1.4062 7.5-3.75l34.688-46.172h6.3281c33.75 0 63.281-22.266 72.422-54.609l23.203-23.203c2.1094-2.1094 3.0469-5.1562 2.5781-8.2031s-2.3438-5.625-5.1562-6.7969l-12.656-6.3281c-10.547-5.3906-23.438-4.4531-33.281 2.1094l-3.9844 2.5781c1.4062-14.297 0.9375-28.828-1.6406-43.125l-6.0938-36.094c-0.70312-3.75-3.5156-6.7969-7.2656-7.7344-3.75-0.70312-7.7344 0.70312-9.8438 3.9844l-21.328 32.109c-3.2812 4.9219-6.3281 10.312-8.9062 15.703l-0.46875-0.46875c-10.078-6.7969-17.344-17.109-20.391-28.828l-7.0312-28.125c-0.70312-3.2812-3.2812-5.8594-6.5625-6.7969s-6.7969 0-9.1406 2.3438l-7.2656 7.2656c-13.125 13.125-21.562 29.531-24.609 47.812-5.1562 34.453 9.8438 68.672 38.672 87.891l16.875 11.25-7.2656 5.8594h-46.875c-3.2812 0-6.5625 1.875-8.2031 4.6875s-1.6406 6.5625 0.23438 9.375zm20.625-58.125c2.1094 0 4.2188-0.70312 5.8594-2.1094l19.922-15.938c2.3438-1.875 3.75-4.6875 3.5156-7.7344s-1.6406-5.625-4.2188-7.5l-27.656-18.281c-22.734-15-34.453-42.188-30-68.906 2.1094-12.188 7.0312-23.438 15-32.812l3.0469 11.719c3.9844 16.406 14.062 30.469 28.125 39.844 10.078 6.7969 17.344 17.109 20.391 28.828l6.5625 26.016c0.70312 3.0469 3.0469 5.625 6.0938 6.5625s6.3281 0.46875 8.9062-1.6406l12.656-10.078 25.547-17.109c4.2188-2.8125 9.8438-3.2812 14.531-0.9375l0.9375 0.46875-15.703 15.703c-1.1719 1.1719-2.1094 2.8125-2.5781 4.4531-6.3281 25.312-28.828 42.891-54.844 42.891h-11.016c-3.0469 0-5.625 1.4062-7.5 3.75l-29.062 38.906-21.797-36.328h33.281z"/>
        <path fill="currentColor" d="m958.12 160.78 8.2031-1.6406v2.5781c0 26.016 16.406 49.219 40.312 58.359l12.891 45c0.9375 2.8125 3.0469 5.1562 5.8594 6.3281 0.9375 0.46875 2.1094 0.46875 3.2812 0.46875 1.875 0 3.5156-0.46875 5.1562-1.6406l53.672-35.625c2.5781-1.6406 4.2188-4.4531 4.2188-7.7344 0-3.0469-1.4062-6.0938-3.9844-7.7344l-41.484-29.297 15-10.078c26.953-18.047 40.781-50.156 35.625-82.031-1.4062-8.4375-4.2188-16.641-7.9688-24.141-3.9844-7.7344-8.9062-14.531-15-20.391l-6.5625-6.5625c-2.3438-2.3438-5.8594-3.2812-9.1406-2.3438s-5.8594 3.5156-6.5625 6.7969l-6.5625 26.016c-2.8125 10.781-9.375 20.156-18.516 26.25-6.5625 4.2188-12.188 9.8438-16.641 16.172-1.1719 1.875-2.3438 3.5156-3.5156 5.3906-4.4531-7.2656-12.422-11.719-21.094-11.719-9.6094 0-18.047 5.3906-22.266 13.828l-4.6875 9.375-8.6719 8.6719c-2.8125 2.8125-3.5156 7.5-1.6406 11.016s6.0938 5.3906 10.078 4.6875zm21.562-25.312c1.1719-2.1094 3.2812-3.5156 5.625-3.5156s4.4531 1.4062 5.625 3.5156c0 0.23438 0.23438 0.23438 0.23438 0.46875l34.453 60.938c0.70312 1.1719 1.6406 2.1094 2.8125 3.0469l37.5 26.953-31.641 20.859-10.781-37.5c-0.9375-3.0469-3.2812-5.625-6.5625-6.3281-18.75-5.1562-31.875-22.5-31.875-41.953v-14.062c0-2.8125-1.1719-5.3906-3.5156-7.2656-0.9375-0.9375-2.3438-1.4062-3.5156-1.875z"/>
    </g>
</svg>
