<?xml version="1.0" encoding="UTF-8"?>
<svg width="1200pt" height="1200pt" version="1.1" viewBox="0 0 1200 1200" xmlns="http://www.w3.org/2000/svg">
    <path fill="currentColor" d="m1161.6 990h-40.801v-62.398c16.801-4.8008 30-20.398 30-38.398v-49.203c0-21.602-18-39.602-39.602-39.602-21.602 0-39.602 18-39.602 39.602v50.398c0 18 13.199 33.602 30 38.398v62.398h-70.801l0.003906-501.59c0-9.6016-6-18-15.602-20.398l-193.2-56.398c-13.199-3.6016-27.602 6-27.602 20.398v556.8h-32.398v-456c0-14.398-12-26.398-26.398-26.398h-60v-318c0-14.398-12-26.398-26.398-26.398l-186-0.003906c-14.398 0-26.398 12-26.398 26.398v800.4h-31.199v-705.6c0-14.398-13.199-25.199-27.602-20.398l-193.2 56.398c-9.6016 2.3984-15.602 10.801-15.602 20.398v649.2l-70.801 0.003906v-62.398c16.801-4.8008 30-20.398 30-38.398v-49.203c0-21.602-18-39.602-39.602-39.602s-39.602 18-39.602 39.602v50.398c0 18 13.199 33.602 30 38.398v62.398l-40.797 0.003907c-4.8008 0-8.3984 3.6016-8.3984 8.3984v28.801c0 4.8008 3.6016 8.3984 8.3984 8.3984h1123.2c4.8008 0 8.3984-3.6016 8.3984-8.3984v-28.801c0.003906-5.9961-3.5977-9.5977-8.3945-9.5977zm-314.4-456c0-2.3984 2.3984-4.8008 4.8008-4.8008h120c2.3984 0 4.8008 2.3984 4.8008 4.8008v24c0 2.3984-2.3984 4.8008-4.8008 4.8008h-120c-2.3984 0-4.8008-2.3984-4.8008-4.8008zm0 75.602c0-2.3984 2.3984-4.8008 4.8008-4.8008h120c2.3984 0 4.8008 2.3984 4.8008 4.8008v24c0 2.3984-2.3984 4.8008-4.8008 4.8008h-120c-2.3984 0-4.8008-2.3984-4.8008-4.8008zm0 75.598c0-2.3984 2.3984-4.8008 4.8008-4.8008h120c2.3984 0 4.8008 2.3984 4.8008 4.8008v24c0 2.3984-2.3984 4.8008-4.8008 4.8008h-120c-2.3984 0-4.8008-2.3984-4.8008-4.8008zm0 75.602c0-2.3984 2.3984-4.8008 4.8008-4.8008h120c2.3984 0 4.8008 2.3984 4.8008 4.8008v24c0 2.3984-2.3984 4.8008-4.8008 4.8008h-120c-2.3984 0-4.8008-2.3984-4.8008-4.8008zm0 74.398c0-2.3984 2.3984-4.8008 4.8008-4.8008h120c2.3984 0 4.8008 2.3984 4.8008 4.8008v24c0 2.3984-2.3984 4.8008-4.8008 4.8008h-120c-2.3984 0-4.8008-2.3984-4.8008-4.8008zm0 75.602c0-2.3984 2.3984-4.8008 4.8008-4.8008h120c2.3984 0 4.8008 2.3984 4.8008 4.8008v24c0 2.3984-2.3984 4.8008-4.8008 4.8008h-120c-2.3984 0-4.8008-2.3984-4.8008-4.8008zm-624-528c0-2.3984 2.3984-4.8008 4.8008-4.8008h120c2.3984 0 4.8008 2.3984 4.8008 4.8008v24c0 2.3984-2.3984 4.8008-4.8008 4.8008h-120c-2.3984 0-4.8008-2.3984-4.8008-4.8008zm0 75.598c0-2.3984 2.3984-4.8008 4.8008-4.8008h120c2.3984 0 4.8008 2.3984 4.8008 4.8008v24c0 2.3984-2.3984 4.8008-4.8008 4.8008h-120c-2.3984 0-4.8008-2.3984-4.8008-4.8008zm0 75.602c0-2.3984 2.3984-4.8008 4.8008-4.8008h120c2.3984 0 4.8008 2.3984 4.8008 4.8008v24c0 2.3984-2.3984 4.8008-4.8008 4.8008h-120c-2.3984 0-4.8008-2.3984-4.8008-4.8008zm0 75.602c0-2.3984 2.3984-4.8008 4.8008-4.8008h120c2.3984 0 4.8008 2.3984 4.8008 4.8008v24c0 2.3984-2.3984 4.8008-4.8008 4.8008l-120-0.003906c-2.3984 0-4.8008-2.3984-4.8008-4.8008zm0 75.598c0-2.3984 2.3984-4.8008 4.8008-4.8008h120c2.3984 0 4.8008 2.3984 4.8008 4.8008v24c0 2.3984-2.3984 4.8008-4.8008 4.8008h-120c-2.3984 0-4.8008-2.3984-4.8008-4.8008zm0 75.602c0-2.3984 2.3984-4.8008 4.8008-4.8008h120c2.3984 0 4.8008 2.3984 4.8008 4.8008v24c0 2.3984-2.3984 4.8008-4.8008 4.8008h-120c-2.3984 0-4.8008-2.3984-4.8008-4.8008zm0 74.398c0-2.3984 2.3984-4.8008 4.8008-4.8008h120c2.3984 0 4.8008 2.3984 4.8008 4.8008v24c0 2.3984-2.3984 4.8008-4.8008 4.8008h-120c-2.3984 0-4.8008-2.3984-4.8008-4.8008zm0 75.602c0-2.3984 2.3984-4.8008 4.8008-4.8008h120c2.3984 0 4.8008 2.3984 4.8008 4.8008v24c0 2.3984-2.3984 4.8008-4.8008 4.8008h-120c-2.3984 0-4.8008-2.3984-4.8008-4.8008zm440.4-339.6c0-4.8008 3.6016-8.3984 8.3984-8.3984h26.398c4.8008 0 8.3984 3.6016 8.3984 8.3984v26.398c0 4.8008-3.6016 8.3984-8.3984 8.3984h-26.398c-4.8008 0-8.3984-3.6016-8.3984-8.3984zm0 86.402c0-4.8008 3.6016-8.3984 8.3984-8.3984h26.398c4.8008 0 8.3984 3.6016 8.3984 8.3984v26.398c0 4.8008-3.6016 8.3984-8.3984 8.3984h-26.398c-4.8008 0-8.3984-3.6016-8.3984-8.3984zm0 85.199c0-4.8008 3.6016-8.3984 8.3984-8.3984h26.398c4.8008 0 8.3984 3.6016 8.3984 8.3984v26.398c0 4.8008-3.6016 8.3984-8.3984 8.3984h-26.398c-4.8008 0-8.3984-3.6016-8.3984-8.3984zm0 86.398c0-4.8008 3.6016-8.3984 8.3984-8.3984h26.398c4.8008 0 8.3984 3.6016 8.3984 8.3984v26.398c0 4.8008-3.6016 8.3984-8.3984 8.3984h-26.398c-4.8008 0-8.3984-3.6016-8.3984-8.3984zm-8.4023 78c4.8008 0 8.3984 3.6016 8.3984 8.3984v74.398h-56.398v-82.801zm-76.801-680.4c0-4.8008 3.6016-8.3984 8.3984-8.3984l25.203-0.003906c4.8008 0 8.3984 3.6016 8.3984 8.3984v25.203c0 4.8008-3.6016 8.3984-8.3984 8.3984h-26.398c-4.8008 0-8.3984-3.6016-8.3984-8.3984l-0.003906-25.199zm0 86.398c0-4.8008 3.6016-8.3984 8.3984-8.3984h25.203c4.8008 0 8.3984 3.6016 8.3984 8.3984v26.398c0 4.8008-3.6016 8.3984-8.3984 8.3984h-26.398c-4.8008 0-8.3984-3.6016-8.3984-8.3984l-0.003906-26.398zm0 85.199c0-4.8008 3.6016-8.3984 8.3984-8.3984h25.203c4.8008 0 8.3984 3.6016 8.3984 8.3984v26.398c0 4.8008-3.6016 8.3984-8.3984 8.3984h-26.398c-4.8008 0-8.3984-3.6016-8.3984-8.3984l-0.003906-26.398zm0 86.402c0-4.8008 3.6016-8.3984 8.3984-8.3984l25.203-0.003906c4.8008 0 8.3984 3.6016 8.3984 8.3984v26.398c0 4.8008-3.6016 8.3984-8.3984 8.3984h-26.398c-4.8008 0-8.3984-3.6016-8.3984-8.3984l-0.003906-26.395zm0 86.398c0-4.8008 3.6016-8.3984 8.3984-8.3984h25.203c4.8008 0 8.3984 3.6016 8.3984 8.3984v26.398c0 4.8008-3.6016 8.3984-8.3984 8.3984h-26.398c-4.8008 0-8.3984-3.6016-8.3984-8.3984l-0.003906-26.398zm0 86.402c0-4.8008 3.6016-8.3984 8.3984-8.3984l25.203-0.003906c4.8008 0 8.3984 3.6016 8.3984 8.3984v26.398c0 4.8008-3.6016 8.3984-8.3984 8.3984h-26.398c-4.8008 0-8.3984-3.6016-8.3984-8.3984l-0.003906-26.395zm0 85.199c0-4.8008 3.6016-8.3984 8.3984-8.3984l25.203-0.003906c4.8008 0 8.3984 3.6016 8.3984 8.3984v26.398c0 4.8008-3.6016 8.3984-8.3984 8.3984h-26.398c-4.8008 0-8.3984-3.6016-8.3984-8.3984l-0.003906-26.395zm0 86.398c0-4.8008 3.6016-8.3984 8.3984-8.3984h25.203c4.8008 0 8.3984 3.6016 8.3984 8.3984v26.398c0 4.8008-3.6016 8.3984-8.3984 8.3984h-26.398c-4.8008 0-8.3984-3.6016-8.3984-8.3984l-0.003906-26.398zm-86.398-602.4c0-4.8008 3.6016-8.3984 8.3984-8.3984h26.398c4.8008 0 8.3984 3.6016 8.3984 8.3984l0.003907 25.199c0 4.8008-3.6016 8.3984-8.3984 8.3984h-26.398c-4.8008 0-8.3984-3.6016-8.3984-8.3984zm0 86.398c0-4.8008 3.6016-8.3984 8.3984-8.3984h26.398c4.8008 0 8.3984 3.6016 8.3984 8.3984v26.398c0 4.8008-3.6016 8.3984-8.3984 8.3984h-26.398c-4.8008 0-8.3984-3.6016-8.3984-8.3984zm0 85.199c0-4.8008 3.6016-8.3984 8.3984-8.3984h26.398c4.8008 0 8.3984 3.6016 8.3984 8.3984v26.398c0 4.8008-3.6016 8.3984-8.3984 8.3984h-26.398c-4.8008 0-8.3984-3.6016-8.3984-8.3984zm0 86.402c0-4.8008 3.6016-8.3984 8.3984-8.3984h26.398c4.8008 0 8.3984 3.6016 8.3984 8.3984v26.398c0 4.8008-3.6016 8.3984-8.3984 8.3984h-26.398c-4.8008 0-8.3984-3.6016-8.3984-8.3984zm0 86.398c0-4.8008 3.6016-8.3984 8.3984-8.3984h26.398c4.8008 0 8.3984 3.6016 8.3984 8.3984v26.398c0 4.8008-3.6016 8.3984-8.3984 8.3984h-26.398c-4.8008 0-8.3984-3.6016-8.3984-8.3984zm0 86.402c0-4.8008 3.6016-8.3984 8.3984-8.3984h26.398c4.8008 0 8.3984 3.6016 8.3984 8.3984v26.398c0 4.8008-3.6016 8.3984-8.3984 8.3984h-26.398c-4.8008 0-8.3984-3.6016-8.3984-8.3984zm0 85.199c0-4.8008 3.6016-8.3984 8.3984-8.3984h26.398c4.8008 0 8.3984 3.6016 8.3984 8.3984v26.398c0 4.8008-3.6016 8.3984-8.3984 8.3984h-26.398c-4.8008 0-8.3984-3.6016-8.3984-8.3984zm0 86.398c0-4.8008 3.6016-8.3984 8.3984-8.3984h26.398c4.8008 0 8.3984 3.6016 8.3984 8.3984v26.398c0 4.8008-3.6016 8.3984-8.3984 8.3984h-26.398c-4.8008 0-8.3984-3.6016-8.3984-8.3984zm43.199 86.402c0-4.8008 3.6016-8.3984 8.3984-8.3984h48v82.801h-56.398z"/>
</svg>
