<?xml version="1.0" encoding="UTF-8"?>
<svg width="1200pt" height="1200pt" version="1.1" viewBox="0 0 1200 1200" xmlns="http://www.w3.org/2000/svg">
    <g>
        <path fill="currentColor" d="m929.68 1024.8c-10.777-111.94-94.754-205.43-209.66-243.82-4.9922 24.887-54.973 44.438-116.02 44.438-61.043 0-111.01-19.547-116.04-44.438-114.89 38.387-198.86 131.86-209.64 243.82-25.32 10.309-39.695 21.938-39.695 34.246 0 1.2109 0.61328 2.3398 0.86328 3.5273h729.02c0.27734-1.1875 0.83984-2.3164 0.83984-3.5273 0-12.309-14.363-23.926-39.672-34.246z"/>
        <path fill="currentColor" d="m1100.1 335.39c-7.4414 0-15.109-0.51562-22.992-1.6211-12.059-1.6445-26.797-5.7617-43.078-12.254-17.473-6.1797-35.039-14.16-54.898-23.23-19.152-8.9414-37.285-16.246-54.023-22.547-16.895-6.6367-31.031-10.812-43.379-12.504-12.289-1.6914-24.938-2.5078-37.895-2.5078-30.637 0-63.254 4.5352-97.754 12.961l6.0586-43.945-38.172-5.2578-59.27 463.87 4.9922-257.86c2.3281-0.25391 4.8828-0.5625 7.7148-1.0547l27.539-207.48c0.66016-5.0625 3.3008-9.6719 7.3789-12.77 3.3945-2.5547 7.4766-3.9492 11.664-3.9492 0.85156 0 1.7539 0.058593 2.6289 0.16797l38.172 5.2578c10.523 1.4531 17.867 11.16 16.402 21.672l-2.2695 16.715c26.531-5.0156 51.672-7.5703 74.93-7.5703 13.945 0 27.539 0.92578 40.5 2.6875 13.547 1.8594 28.754 6.1797 47.617 13.598 21 7.9688 38.578 15.289 55.188 23.039 18.66 8.5195 36.301 16.559 54.035 22.859 7.1641 2.8555 14.027 5.2188 20.461 7.0547l3.5742-112.91c-17.293 6.7578-35.809 10.391-56.41 10.391-1.8945 0-3.8047-0.023437-5.7461-0.097656-12.203-0.40625-27.254-2.9141-44.148-7.6797-18-4.3203-36.395-10.43-57.023-17.34-19.992-6.8867-38.855-12.266-56.09-16.801-17.531-4.8242-31.992-7.5352-44.484-7.9336-2.6992-0.070313-5.3867-0.10938-8.1133-0.10938-39.254 0-81.156 8.7344-125.69 24.695l1.3672-44.34-38.484-1.2344-17.438 550.98h-13.57l-18.574-550.93-38.473 1.2734 1.4766 44.316c-44.375-15.77-86.148-24.457-125.26-24.457-2.8789 0-5.7461 0.035156-8.5938 0.13281-12.492 0.43359-26.93 3.1562-44.461 8.0156-17.23 4.5703-36.109 9.9961-56.062 16.895-20.641 6.9727-38.988 13.105-57 17.449-16.859 4.8125-31.934 7.3672-44.113 7.7773-2.0625 0.070313-4.1172 0.097656-6.1445 0.097656-20.438 0-38.844-3.6133-56.051-10.297l3.8047 113.58c3.0586-1.1641 5.8789-2.0156 9.1094-3.3828 16.008-6.0352 31.98-13.633 52.68-23.629 16.68-8.2305 34.129-15.961 54.66-24.203 18.707-7.8125 33.758-12.492 47.52-14.746 15.098-2.3867 31.066-3.5898 47.496-3.5898 21.238 0 44.016 2.0039 68.016 6.0234l-2.6641-16.633c-1.6562-10.488 5.4844-20.363 15.984-22.008l37.996-6.0273c0.99609-0.16797 1.9922-0.23828 3.0117-0.23828 4.0312 0 7.9922 1.2734 11.293 3.6602 4.1289 3 6.875 7.5117 7.6914 12.539l33.059 207.66c6.4062 1.6797 11.734 2.4258 16.297 2.8906l5.2188 257.82-73.535-465.37-38.016 6.0586 6.9375 43.801c-32.148-7.1172-62.629-10.934-91.32-10.934-15.336 0-30.18 1.0938-44.484 3.3594-12.359 2.0039-26.328 6.457-43.105 13.488-16.535 6.6484-34.609 14.363-53.543 23.723-19.621 9.4453-37.055 17.797-54.383 24.359-16.141 6.8281-30.805 11.258-42.828 13.164-9.0352 1.4531-17.762 2.1602-26.242 2.1602-12.746 0.003906-24.914-1.582-36.746-4.5547l38.34 240.89c9.4453 0.98438 18.434 1.4414 26.988 1.4414 12.574 0 24.324-0.98437 35.398-2.7617 12-1.9219 26.762-5.7969 42.898-12.422 17.23-7.2461 34.812-14.867 54.371-24.602 19.043-8.8203 37.754-16.906 55.223-24.504 17.52-6.8398 32.676-11.27 44.676-13.188 3-0.43359 6.9258-0.71875 11.797-0.71875 4.9688 0 10.859 0.28906 17.746 0.82812 13.801 0.83984 28.066 2.6523 42.91 5.3281 15.277 2.8672 28.523 5.6172 40.738 8.2578 6.168 1.1406 11.004 1.3555 15.289 1.3555 1.8477 0 3.5391-0.035156 5.1953-0.085937l41.23 259.02v0.023437l0.42188 2.6758c0.14453 0.023437 0.27734 0.046875 0.40625 0.070312 4.1172 12.145 34.246 21.562 71.23 21.562 38.113 0 68.965-10.008 71.566-22.668 0.085938 0 0.20312-0.023438 0.26562-0.023438l35.605-259.04h1.7383c5.1133 0 10.883-0.15625 18.758-1.7656 12.133-2.8438 25.355-5.8438 40.523-9.0859 14.809-3.0234 29.016-5.1133 42.84-6.2383 8.1367-0.83984 14.879-1.2344 20.363-1.2344 3.6602 0 6.7305 0.15625 9.1211 0.51563 12.07 1.6562 27.312 5.7617 45 12.191 17.578 7.2344 36.469 14.891 55.715 23.34 19.777 9.2539 37.5 16.523 54.863 23.449 16.297 6.3008 31.152 9.8398 43.164 11.496 9.6602 1.2969 19.789 2.0508 30.504 2.0508 10.066 0 20.664-0.64844 31.922-2.0039l33.191-241.66c-12.77 3.4336-26.016 5.3164-39.949 5.3164z"/>
    </g>
</svg>
