<?xml version="1.0" encoding="UTF-8"?>
<svg width="1200pt" height="1200pt" version="1.1" viewBox="0 0 1200 1200" xmlns="http://www.w3.org/2000/svg">
    <g>
        <path fill="currentColor" d="m994.48 436.23h-20.336l-1.1602-5.9883h-4.8125s0-3.5742-3.5742-4.7734c-3.5742-1.1992-10.762 0-10.762 0l-15.535 15.535-2.3867 4.7734v8.375s2.3867 2.375 0 8.3633-2.3867 5.9883-2.3867 5.9883l-3.5742 6.3047 1.1875 6.8477-9.5508-6.8477h-4.793s1.1875-7.5039-2.3867-9.8906c-3.5742-2.3867-9.9648-13.148-9.9648-13.148l-9.7383-8.3633-0.003907-5.9766h-7.793l-4.7617-2.3867-10.484-0.85938-3.8789-0.32812s5.9766 8.375 8.3867 11.949c2.375 3.5859 2.375 3.5859 2.375 3.5859l3.6016 7.1602c3.5742 5.9883 3.5742 5.9883 3.5742 5.9883l3.5742 4.7891-1.2109 7.5039h-3.5742l-5.9766 10.422-5.9492 2.3867-7.1992 1.1992-3.5742-5.9883 2.3867-8.0352 2.3867-7.5039-1.2109-7.1758-7.1758-5.9766-4.7891-4.7891-5.9766-4.7734-8.3633-7.1758-7.1484-5.9883-8.3867 2.3867-5.9766 4.7891-5.9766 3.5859-8.3867 10.762-7.1758 8.3633-8.3633 5.9883-5.9492 16.738h16.738l16.723 5.9766 4.7891 5.9883h5.9766l9.5742 9.5625h7.1758v4.7891l11.938 9.5625 8.3867 4.7891h14.312l0.003906-4.8008 9.5742-3.5859 7.1758-3.5859 4.7891-1.1875s9.5508 0 15.535 1.1875l5.9766 1.1992 6 1.1992 8.3359 3.5859 6 5.9883h11.961l11.938-5.9883v-5.9883l-0.003906-8.3594c-2.3867-7.1758-2.3867-7.1758-2.3867-7.1758l-10.762-13.137v-8.375s-2.3867-7.1602 4.7891-10.762c7.1758-3.6016 7.1758-3.5859 7.1758-3.5859h29.875v-5.9883h14.336v-11.934h-5.9766z"/>
        <path fill="currentColor" d="m600.02 82.422c-285.42 0-517.6 232.18-517.6 517.58 0 285.39 232.18 517.58 517.61 517.58 285.37 0 517.55-232.2 517.55-517.58-0.003906-285.4-232.18-517.58-517.56-517.58zm137.45 267.75-0.15234 0.22656c3.6758 0.42969 8.5156 0.97266 8.5156 0.97266h10.344l5.2305-7.1602 5.9766-8.3633 2.3867-10.773h17.914v40.648l-4.7617 3.5859c-4.7891 3.5859 0 8.375 0 8.375h-58.285v-19.152h6.2656l6.418-8.1484c-4.0938-0.47656-6.7344-0.83984 0.14844-0.21094zm-162.58 425.54v19.125l-2.375 3.5859c-2.3867 3.5859-7.1992 10.762-10.246 14.348-3.043 3.5859 0.66797 14.348 0 21.512-0.66797 7.1758-0.54297 5.9883-0.54297 5.9883s1.2109 7.1758 0 13.137c-1.1602 5.9883-7.1484 21.523-10.738 28.699-3.6016 7.1602-13.148 13.137-13.148 13.137s-9.5742 9.5742-13.176 11.961c-3.5742 2.3867-8.3633 7.1602-8.3633 7.1602l-21.512 3.5859-14.363 20.312s1.2109 11.961 0 16.738c-1.1602 4.7891-10.738 20.324-10.738 20.324s-20.324 13.137-28.711 16.738c-8.3359 3.5742 0 3.5742 0 3.5742s-2.375 5.9883-7.1484 14.348c-4.7617 8.375 1.1875 8.375 0 17.938s-5.9766 14.348-5.9766 14.348l-4.7891 9.5625c-0.66797 1.3281-1.1133 2.375-1.4531 3.2969-7.8438-3.082-15.535-6.3555-23.191-9.8281l-5.2305-12.582v-13.16-7.1602c0-7.1758-6-9.5625-6-9.5625v-20.312h-4.2461s0.66797-15.535 0-21.523c-0.66797-5.9883-0.51953-22.723-0.51953-26.301 0-3.5859 1.1875-19.137 0-26.301v-16.738l-6-19.125s-1.2109-4.7891-5.9766-9.5742c-4.7891-4.7891 0-9.5742 0-9.5742s-13.148-20.312-14.363-25.098c-1.1875-4.7734-13.125-29.875-13.125-29.875l-9.5742-9.5625v-5.9883h-7.1758l-13.148-10.762 7.1758-20.312 4.7617-15.535 1.2109-7.1602 7.1758-44.223v-4.7891l-7.1758-5.9883-10.762-8.3633-4.7891-5.9766h-4.7891l-17.938-7.1758-11.938-10.762-15.535-19.137h-7.1758v-3.5742h-9.5742l-27.512-4.7891-9.5508-9.5625-9.5742-27.5h-8.3633l-17.91-10.762v-40.648l-10.762 28.688-6-7.1602v-5.9766h-4.7617l0.023438-23.875-5.3828-10.762v-28.684l-5.4062-19.125v-20.504c29.191-83.078 80.16-155.95 146.1-211.74l-0.25391 1.2109-4.4844 8.9688 4.4844 0.89844 16.129-1.793 5.3828-10.773 3.5742-11.645 1.5547-7.7422c2.25-1.6406 4.5078-3.207 6.7578-4.8125l23.066 5.3828 0.91016 6.2773 4.4844 6.2773 0.88281 5.3828 6.2656-1.8047 5.1523-1.793v-9.8516l4.7383-7.1758 4.4727-13.441v-4.4727l8.0703-8.9688 1.8047-4.4844h3.5742s7.1758 2.6914 10.762 8.0703c3.5742 5.3945 6.2891 0 6.2891 0l8.957 7.1758c8.957 7.1602 13.441 0 13.441 0l8.957 8.0703h3.5742s12.555 14.348 16.156 20.613c3.5742 6.2773 1.7812 9.8672 1.7812 9.8672l8.9805 5.3828v7.1758l7.1758 10.762 0.91016 8.0703-8.0977 12.555h-5.3828-8.9805c-4.4961 0-12.555 0.88281-12.555 0.88281h-6.2656l-13.426-3.5742 0.85938-4.4727v-8.9688l-6.2656-18.832v-4.4727l-0.88281-4.4844h-8.957l-3.6016 4.4844-7.1758 5.3828c-7.1758 5.3828-8.0703 5.3828-8.0703 5.3828l-2.6914 8.0703-4.4844 8.9688v4.4844l-3.5742 4.4727h-27.805l-0.85938 6.2656-5.4062 4.4844-4.4844 10.762-4.4727-6.2773-6.2891 9.8672v8.0703l3.6016 6.2656 3.5742 4.4844 1.8594 4.4609 5.4062 7.1602 9.8672 14.348 15.008 7.1758 3.8281 1.793 4.4844 1.793 9.8398-2.6914 7.1758-13.453s0.88281-4.4727 3.5742-8.0586c2.7148-3.5859 2.7148-21.523 2.7148-21.523s0.85938-4.4727 0.85938-7.1602c0-2.6914 1.8047-11.66 1.8047-11.66v-5.3828h8.9805l3.6016 4.4727h2.6641s5.4062 6.2773 12.555 16.145c7.1758 9.8516 3.5742 0 3.5742 0l10.762 4.4727h16.145l11.672 8.0703 2.6914 7.1602 2.7148 5.3945 6.2383 10.762 7.1758 11.66 20.629 22.41 0.91016 8.0703 3.5742 17.039v4.4727l-12.555 6.2773-4.4883 0.003906s-9.8398-2.6914-15.246-2.6914l-9.8672-3.5859-4.4727-15.234-6.1133 4.9023-7.3281 5.8594h-5.4062l-8.9297 17.039 6.2656 7.1602h10.762l8.0703 0.89844 7.1484 1.793-2.9062 2.2734-6.3398 4.9141-4.7891 3.5859-15.535 2.3867-5.9492 1.1875-4.8125 1.1992-5.9766 1.1992h-5.9766l-15.535 2.3867-7.1758 3.5859-1.1875 23.91v9.5625l-1.2109 7.1758-11.961 8.3633-8.3359 8.375-8.3125 4.7734v5.9883l-16.801 4.7891 1.2109 19.125-4.8125 16.738 2.3867 11.949s-5.9766-2.3867-10.762-4.7891c-4.7891-2.3984-4.7891-2.3867-9.5508-5.9883-4.7891-3.5742-10.789-5.9766-10.789-5.9766l-7.1484-8.3633h-16.75c-8.3633 0-10.762 1.1992-10.762 1.1992l-20.324 5.9766-5.9766 3.5859-3.5742 9.5625-2.375 7.1758 2.375 15.523h14.336l4.7891 1.1992h10.762l3.5742 1.2109c3.6016 1.1875 10.789 2.375 10.789 2.375l3.5977 13.16-7.1992 13.148 20.324 10.762 3.5742 4.7891 4.7891 2.375 6 8.375 10.762 9.5625 8.3633 9.5742 13.148 4.7734h6.0508v-3.5742l9.5-4.7891 7.1484-2.3867 6 3.5859h11.961l8.3633 1.1992s37.062 13.148 40.637 15.523c3.5742 2.3984 10.762 1.1992 10.762 1.1992l43.023 31.086 3.6016 7.1758 2.3867 8.3633v12.543h15.535l20.324 12.555s5.9766 2.3867 13.148 5.9883c7.1484 3.5859 0 0 3.5742 2.3867 3.5742 2.375 7.1484 3.5742 7.1484 3.5742l4.7891 2.3867 8.3633 3.5859c8.3984 3.5938 0.007813 11.945 0.007813 11.945zm-207.09-160.47h-12.707l-15.07-10.762v-8.5039l-2.7148-4.9375-9.8398-8.9688v-7.1602h12.543l8.0469 4.4727 3.5742 7.1758h3.4492v5.3828l5.5312 8.0703h18.82l16.129 8.5273-3.5742 8.5156h-13.414l-6.3164-1.8047c-6.25-1.8008-4.457-0.007813-4.457-0.007813zm293.19-389.12-6.3164 6.2773s-5.3555 1.793-8.0469 2.6914c-2.7148 0.89844-8.957 1.793-8.957 1.793l-5.4062 1.8047-6.2656 3.5859-4.4727 7.1602s-9.0078 6.2773-11.672 8.0703c-2.6914 1.793-17.051 8.9688-17.051 8.9688l-3.5742 0.89844c-3.6016 0.88281-10.609 5.3828-10.609 5.3828l-6.418 2.6914s-11.645 14.348-13.465 17.039c-1.7812 2.6914-7.1758 10.762-7.1758 10.762h-9.8555v-6.2773h-5.3828l0.007813-8.9648-8.9805-5.3945s1.832-5.3828 0-9.8516c-1.7812-4.4844-6.2656-9.8516-6.2656-9.8516v-21.539l-4.4844-4.4844v-17.926l-1.8047-7.1758 1.8047-7.1758 4.4844-7.1602v-10.746l-5.3828-14.348-1.7812-5.3828s-4.4844-3.5742-7.1758-5.3828c-2.7148-1.793-5.4062 0-5.4062 0h-25.086l-7.1758-5.3828v-8.0703l4.4844-8.0703 6.2891-8.9688 11.621-5.3828 5.8984-3.7773c33.105-7.1133 67.426-10.926 102.63-10.926 40.609 0 80.086 5.0664 117.88 14.465l-1.3281 1.1484-5.3828 2.6797-5.4062 5.3828-7.1484 11.66v11.645l-4.5078 6.2773-8.9297 5.3828v2.6914l-5.3828 5.3828v26.438l-5.4062 4.9258v5.3828l-13.426 1.793 0.003907 9.8594zm12.531 43.051h-3.5742v-8.0742c-3.5742-8.0703 5.3828-4.4844 10.762-8.0703h16.574s2.25 0 4.9375 3.5742c2.6914 3.5859 3.5742 0 3.5742 0l10.789 4.4844h3.5742l4.4844 4.4727v4.9375h-3.6016v9.4102h-22.41l-2.6914-0.88281c-2.6914-0.89844-14.336-4.4844-14.336-4.4844zm335.09 599c-0.15234-1.6289-0.41797-3.6523-0.96094-6.3789-2.3867-11.949-5.0273-4.7734 1.0625-15.535l6.1133-10.762 8.3633-7.1758s4.7617-8.3477 7.1758-13.137c2.3867-4.7891 2.3867-4.7891 2.3867-4.7891l6.582-5.9766h4.7109c-10.27 22.195-22.094 43.508-35.434 63.754zm80.324-266.1c0 1.7188-0.10156 3.4102-0.125 5.1172l-1.0625 9.8398-11.961 11.672-5.9766 5.9883h-25.117l-15.535 7.1602-15.523-21.387-1.2109-24.492h-3.6016s-4.7383-7.9219-5.9492-11.496c-1.2109-3.6016-4.8125-16.738-4.8125-16.738l-7.1484-10.773-7.1484 4.7891v13.148s1.1875 2.3867 1.1875 7.1602v13.906l-3.6016 15.992 1.2109 5.0781 2.3867 3.4219 8.3633 13.012 16.723 19.125 16.75 11.949h22.699l3.6016 8.3633 4.7891 5.9883v5.9883s-2.4141-7.1602-6 0c-3.6016 7.1602-13.148 19.137-13.148 19.137l-4.7617 4.7734-8.3867 9.5625-8.3633 15.535-4.7891 7.1602-7.1758 5.9883-2.375 13.148-6 13.148-2.3867 11.949-4.7891 11.961v5.9766s1.2109 10.762-1.1875 16.738c-2.3867 5.9766-2.3867 14.336-2.3867 14.336l-4.7891 8.375-4.7617 7.1602-5.4062 11.949-7.7422 7.1758-3.6016 9.5625-1.2109 7.1602-7.1484 19.137-1.2109 5.9883s-5.9766 2.375-10.762 8.3633c-4.7891 5.9883-15.535 13.16-15.535 13.16l-7.1484 5.9766-16.75 8.3633-13.148 7.1602-20.301-5.9766-7.1758-19.137v-16.723l-1.2109-7.1758-4.7891-15.535-3.5742-14.336-1.1875-14.363-2.4141-20.312-4.7617-16.738-2.3867-26.285v-8.375s2.3867-1.1992 2.3867-10.762v-19.137l-9.5508-21.512-6-14.348-1.1875-4.7891-9.5742-14.336-8.3867-3.6016h-19.113s-15.523 0.011719-19.125-1.1875c-3.5742-1.1992-5.6445-1.1992-12.379-2.3867s-6.7344-1.1992-6.7344-1.1992l-7.1484-1.1992h-11.961l-5.6719-3.5859-12.238-8.3633v-5.9766l-11.961-21.523v-5.9531l-6-5.9766v-5.9883l-9.5508-16.586v-20.465-15.523s-7.1758-5.9883 0-9.5742c7.1484-3.5859 13.125-14.348 13.125-14.348l14.387-8.3633 12.238-10.762 9.2383-8.375 14.336-20.312 1.2109-5.9883 6.7344-8.3633v-4.7891l-16.281-11.938s-10.789-3.5742-8.9805-8.3633l1.7812-4.7891-1.7812-15.535v-4.7734l5.3555-2.3867 6.0234-11.949 4.7617-1.1992s2.6914 2.375 9.1328 3.5742l6.4414 1.2109s3.5508 1.1875 13.125-1.2109l9.5742-2.375 2.375-9.5625-8.3633-5.9883-4.7617-9.5625-11.938-3.5859-6.4414-5.9883 7.6055-2.375 10.789-4.7891 13.125-3.5859 8.3633-10.75 4.7617 0.007813 4.7891-7.1758 4.7617-5.9883s3.6016-2.375 8.3633-5.9883c4.7891-3.5742 8.3633-7.1602 8.3633-7.1602l7.1758-7.1602h7.1758l16.723 1.1992h14.387l16.699-3.5859 9.5742-8.375 5.5703-8.3633h9.9648v-4.7734l2.3867-7.1758-2.3867-9.8789-2.3867-9.2344v-5.9883l-0.003906-8.1211-7.5781-13.441-6.7812 13.441h-5.9492l-3.625 8.0977v9.5625l-7.1484 14.348-2.3867 8.375-5.9492 4.7734h-19.176l-7.1758 5.9883h-5.9492l-9.5742-5.9883-7.1758-7.1602h-8.3633v-8.375l4.1953-6.2891v-5.6602l4.168-7.1602h6s3.5742-15.535 7.1484-19.137c3.6016-3.5742 7.1758-4.8008 7.1758-4.8008l7.1758-13.441h8.3633l5.9766-12.848 9.5742-13.137 8.3633-7.1758h4.7617s2.4141 3.5859 7.1992 0l4.7617-3.5859h2.5156c104.44 82.508 174.45 206.58 184.91 347.05l-12.898-2.7656-8.3359 2.3867-4.7891 11.938h11.977l7.1484 7.1875 5.9766 7.1602 2.25 3.1719c0.050782 2.5 0.22656 4.9766 0.22656 7.5039l-0.085937 0.066406z"/>
    </g>
</svg>
