<?xml version="1.0" encoding="UTF-8"?>
<svg  viewBox="0 0 1000 1000" version="1.1" xmlns="http://www.w3.org/2000/svg" xmlns:xlink="http://www.w3.org/1999/xlink">
    <title>pin15</title>
    <defs>
        <path d="M95,595 C157.341649,643.604439 233.623275,669.941091 314.009244,669.941091 C394.376725,669.941091 470.658351,643.604439 533,595.03699 C440.892617,791.230249 314.009244,1000 314.009244,1000 C314.009244,1000 313.197072,998.663755 311.655517,996.104604 L310.363885,993.957717 C288.976817,958.368116 177.896644,771.590579 95,595 Z M313.01851,0 C485.992194,0 626,139.989296 626,312.98149 C626,485.973684 486.029213,626 313.01851,626 C140.026316,626 0,486.010704 0,312.98149 C0,140.007806 139.989296,0 313.01851,0 Z M313.01851,77.2041987 C182.783856,77.2041987 77.2041987,182.765346 77.2041987,312.98149 C77.2041987,443.216144 182.783856,548.795801 313.01851,548.795801 C443.234654,548.795801 548.814311,443.216144 548.814311,312.98149 C548.814311,182.765346 443.234654,77.2041987 313.01851,77.2041987 Z" id="path-1"></path>
    </defs>
    <g id="pin15" stroke="none" stroke-width="1" fill="none" fill-rule="evenodd">
        <g transform="translate(187.000000, 0.000000)">
            <mask id="mask-2" fill="white">
                <use xlink:href="#path-1"></use>
            </mask>
            <g id="Combined-Shape"></g>
            <polygon id="fill" fill="currentColor" mask="url(#mask-2)" points="-6661.95789 3389.71041 4814.16582 3389.71041 4814.16582 -2163.21685 -6661.95789 -2163.21685"></polygon>
        </g>
    </g>
</svg>