<?xml version="1.0" encoding="UTF-8"?>
<svg  viewBox="0 0 1000 1000" version="1.1" xmlns="http://www.w3.org/2000/svg" xmlns:xlink="http://www.w3.org/1999/xlink">
    <title>pin11</title>
    <defs>
        <path d="M507.903861,92.1794467 C622.037856,209.259111 622.260015,395.698767 511.162188,515.682303 C458.584646,572.465016 434.091657,609.771443 407.802886,664.5011 C316.662309,854.344019 297.00127,1000 297.00127,1000 C297.00127,1000 277.321718,854.344019 186.181141,664.5011 C159.910883,609.771443 135.417895,572.465016 82.8366501,515.682303 C-28.2593257,395.698767 -28.0371671,209.259111 86.0931254,92.1794467 C206.008799,-30.8374332 388.178874,-30.6154812 507.903861,92.1794467 Z M297.00127,80.5269683 C176.757913,80.5269683 79.2950714,177.908396 79.2950714,298.021404 C79.2950714,418.134412 176.757913,515.515839 297.00127,515.515839 C417.207601,515.515839 514.679699,418.134412 514.679699,298.021404 C514.679699,177.908396 417.207601,80.5269683 297.00127,80.5269683 Z M297.50924,133 C388.894143,133 463,207.087376 463,298.49076 C463,389.894143 388.894143,464 297.50924,464 C206.087376,464 132,389.894143 132,298.49076 C132,207.087376 206.087376,133 297.50924,133 Z" id="path-1"></path>
    </defs>
    <g id="pin11" stroke="none" stroke-width="1" fill="none" fill-rule="evenodd">
        <g transform="translate(203.000000, 1.000000)">
            <mask id="mask-2" fill="white">
                <use xlink:href="#path-1"></use>
            </mask>
            <g id="Combined-Shape"></g>
            <polygon id="fill" fill="currentColor" mask="url(#mask-2)" points="-1759.64184 3384.06437 9698.19547 3384.06437 9698.19547 -2160.01468 -1759.64184 -2160.01468"></polygon>
        </g>
    </g>
</svg>