<?xml version="1.0" encoding="UTF-8"?>
<svg  viewBox="0 0 1000 1000" version="1.1" xmlns="http://www.w3.org/2000/svg" xmlns:xlink="http://www.w3.org/1999/xlink">
    <title>pin14</title>
    <defs>
        <path d="M515.136386,0 C576.361233,0 626,49.5884583 626,110.774068 L626,514.806252 C626,575.15953 577.730834,624.193101 517.65349,625.543327 C427.222837,812.263017 313.009254,1000 313.009254,1000 C313.009254,1000 198.777163,812.263017 108.328002,625.543327 C48.269166,624.193101 0,575.15953 0,514.806252 L0,110.774068 C0,49.5884583 49.6202584,0 110.845105,0 L515.136386,0 Z M313.009254,95.3111995 C192.799042,95.3111995 95.3538125,192.675483 95.3538125,312.79016 C95.3538125,432.904837 192.799042,530.287617 313.009254,530.287617 C433.200958,530.287617 530.627679,432.904837 530.627679,312.79016 C530.627679,192.675483 433.200958,95.3111995 313.009254,95.3111995 Z" id="path-1"></path>
    </defs>
    <g id="pin14" stroke="none" stroke-width="1" fill="none" fill-rule="evenodd">
        <g transform="translate(187.000000, 0.000000)">
            <mask id="mask-2" fill="white">
                <use xlink:href="#path-1"></use>
            </mask>
            <g id="Clip-47"></g>
            <polygon id="fill" fill="currentColor" mask="url(#mask-2)" points="-5442 3388 6026 3388 6026 -2161 -5442 -2161"></polygon>
        </g>
    </g>
</svg>