<?xml version="1.0" encoding="UTF-8"?>
<svg  viewBox="0 0 1000 1000" version="1.1" xmlns="http://www.w3.org/2000/svg" xmlns:xlink="http://www.w3.org/1999/xlink">
    <title>pin10</title>
    <defs>
        <path d="M492.360154,0 C566.170406,0 626,59.7983908 626,133.542958 L626,492.037362 C626,528.93739 611.047691,562.304633 586.852675,586.479238 C562.674316,610.653843 529.271758,625.598816 492.360154,625.598816 L312.999075,1000 L133.654652,625.598816 C59.8462507,625.598816 0,565.800425 0,492.037362 L0,133.542958 C0,59.7983908 59.8462507,0 133.654652,0 L492.360154,0 Z M492.360154,44.3910108 L133.654652,44.3910108 C84.4539867,44.3910108 44.4312513,84.3799131 44.4312513,133.542958 L44.4312513,492.037362 C44.4312513,541.200407 84.4539867,581.207805 133.654652,581.207805 L492.360154,581.207805 C541.546013,581.207805 581.581704,541.200407 581.581704,492.037362 L581.581704,133.542958 C581.581704,84.3799131 541.546013,44.3910108 492.360154,44.3910108 Z" id="path-1"></path>
    </defs>
    <g id="pin10" stroke="none" stroke-width="1" fill="none" fill-rule="evenodd">
        <g transform="translate(187.000000, 0.000000)">
            <mask id="mask-2" fill="white">
                <use xlink:href="#path-1"></use>
            </mask>
            <g id="Clip-68"></g>
            <polygon id="fill" fill="currentColor" mask="url(#mask-2)" points="-463 3388 11005 3388 11005 -2161 -463 -2161"></polygon>
        </g>
    </g>
</svg>