<?xml version="1.0" encoding="UTF-8"?>
<svg  viewBox="0 0 1000 1000" version="1.1" xmlns="http://www.w3.org/2000/svg" xmlns:xlink="http://www.w3.org/1999/xlink">
    <title>pin13</title>
    <defs>
        <path d="M312.990746,0 C485.856547,0 626,140.035143 626,312.79016 C626,485.545177 312.990746,1000 312.990746,1000 C312.990746,1000 0,485.545177 0,312.79016 C0,140.035143 140.124945,0 312.990746,0 Z M305.957662,116.970314 L265.776543,240.469805 C264.814121,243.521687 261.963871,245.574771 258.743459,245.574771 L128.797978,245.574771 C121.635337,245.574771 118.637022,254.748913 124.44857,258.966059 L229.574668,335.318598 C232.165804,337.18672 233.257783,340.534542 232.258345,343.586424 L192.114242,467.085915 C189.893268,473.911033 197.703693,479.589383 203.515241,475.353741 L308.641339,399.019699 C311.232475,397.151577 314.749017,397.151577 317.340153,399.019699 L422.484759,475.353741 C428.277799,479.589383 436.088224,473.911033 433.86725,467.085915 L393.704639,343.586424 C392.723709,340.534542 393.797179,337.18672 396.388316,335.318598 L501.532921,258.966059 C507.34447,254.748913 504.346155,245.574771 497.183514,245.574771 L367.219525,245.574771 C364.017621,245.574771 361.185879,243.521687 360.186441,240.469805 L320.042338,116.970314 C317.821364,110.145196 308.160128,110.145196 305.957662,116.970314 Z" id="path-1"></path>
    </defs>
    <g id="pin13" stroke="none" stroke-width="1" fill="none" fill-rule="evenodd">
        <g transform="translate(187.000000, 0.000000)">
            <mask id="mask-2" fill="white">
                <use xlink:href="#path-1"></use>
            </mask>
            <g id="Clip-74"></g>
            <polygon id="fill" fill="currentColor" mask="url(#mask-2)" points="-4230 3388 7238 3388 7238 -2161 -4230 -2161"></polygon>
        </g>
    </g>
</svg>