<?xml version="1.0" encoding="UTF-8"?>
<svg  viewBox="0 0 1000 1000" version="1.1" xmlns="http://www.w3.org/2000/svg" xmlns:xlink="http://www.w3.org/1999/xlink">
    <title>pin16</title>
    <defs>
        <path d="M515.121157,0 C576.342343,0 626,49.62466 626,110.854938 L626,515.182082 C626,575.57942 577.713754,624.648788 517.638186,626 L108.343307,626 C48.2843957,624.648788 0,575.57942 0,515.182082 L0,110.854938 C0,49.62466 49.6187914,0 110.841828,0 L515.121157,0 Z M515.121157,74.0390302 L110.841828,74.0390302 C90.5556824,74.0390302 74.0302744,90.5497339 74.0302744,110.854938 L74.0302744,515.182082 C74.0302744,534.820934 89.8357379,551.18356 109.37973,551.96097 L516.601762,551.96097 C536.145754,551.18356 551.969726,534.820934 551.969726,515.182082 L551.969726,110.854938 C551.969726,90.5497339 535.442467,74.0390302 515.121157,74.0390302 Z M495,670 C409.179622,840.917292 312.490758,1000 312.490758,1000 C312.490758,1000 215.801894,840.917292 130,670 L495,670 Z" id="path-1"></path>
    </defs>
    <g id="pin16" stroke="none" stroke-width="1" fill="none" fill-rule="evenodd">
        <g transform="translate(187.000000, 0.000000)">
            <mask id="mask-2" fill="white">
                <use xlink:href="#path-1"></use>
            </mask>
            <g id="Combined-Shape"></g>
            <polygon id="fill" fill="currentColor" mask="url(#mask-2)" points="-7901.53416 3386.62894 3558.50838 3386.62894 3558.50838 -2160.83268 -7901.53416 -2160.83268"></polygon>
        </g>
    </g>
</svg>