<?xml version="1.0" encoding="UTF-8"?>
<svg  viewBox="0 0 1000 1000" version="1.1" xmlns="http://www.w3.org/2000/svg" xmlns:xlink="http://www.w3.org/1999/xlink">
    <title>pin12</title>
    <defs>
        <path d="M552.506445,0 C593.093543,0 626,32.8678443 626,73.4116341 L626,514.806252 C626,546.323869 612.822611,574.752613 591.66846,594.91353 C522.85732,660.575234 463.170412,735.152132 417.327164,818.477758 C359.879671,922.9631 313,1000 313,1000 C313,1000 266.120329,922.9631 208.654328,818.477758 C162.811081,735.152132 103.14268,660.575234 34.3130322,594.91353 C13.1773888,574.752613 0,546.323869 0,514.806252 L0,73.4116341 C0,32.8678443 32.8879494,0 73.4750473,0 L552.506445,0 Z M488.211152,73.4116341 L137.788848,73.4116341 C102.254316,73.4116341 73.4750473,102.191806 73.4750473,137.686119 L73.4750473,487.912698 C73.4750473,523.388514 102.254316,552.168686 137.788848,552.168686 L488.211152,552.168686 C523.727176,552.168686 552.506445,523.388514 552.506445,487.912698 L552.506445,137.686119 C552.506445,102.191806 523.727176,73.4116341 488.211152,73.4116341 Z" id="path-1"></path>
    </defs>
    <g id="pin12" stroke="none" stroke-width="1" fill="none" fill-rule="evenodd">
        <g transform="translate(186.000000, 0.000000)">
            <mask id="mask-2" fill="white">
                <use xlink:href="#path-1"></use>
            </mask>
            <g id="Clip-65"></g>
            <polygon id="fill" fill="currentColor" mask="url(#mask-2)" points="-2995 3388 8473 3388 8473 -2161 -2995 -2161"></polygon>
        </g>
    </g>
</svg>