<?xml version="1.0" encoding="UTF-8"?>
<svg  viewBox="0 0 1000 1000" version="1.1" xmlns="http://www.w3.org/2000/svg" xmlns:xlink="http://www.w3.org/1999/xlink">
    <title>pin27</title>
    <defs>
        <path d="M92.5,0 C104.700638,0 114.579099,9.91399242 114.579099,22.1400166 L114.579099,955.70147 L162.939331,955.70147 C175.119695,955.70147 185,965.615463 185,977.841487 C185,990.086008 175.119695,1000 162.939331,1000 L22.0772564,1000 C9.89689181,1000 0,990.086008 0,977.841487 C0,965.615463 9.89689181,955.70147 22.0772564,955.70147 L70.4393305,955.70147 L70.4393305,22.1400166 C70.4393305,9.91399242 80.3177924,0 92.5,0 Z M160,67 L633,248.009264 L160,429 L160,67 Z" id="path-1"></path>
    </defs>
    <g id="pin27" stroke="none" stroke-width="1" fill="none" fill-rule="evenodd">
        <g transform="translate(367.000000, 0.000000)">
            <mask id="mask-2" fill="white">
                <use xlink:href="#path-1"></use>
            </mask>
            <g id="Combined-Shape"></g>
            <polygon id="fill" fill="currentColor" mask="url(#mask-2)" points="-10503.9012 1594.21067 922.751544 1594.21067 922.751544 -3954.66568 -10503.9012 -3954.66568"></polygon>
        </g>
    </g>
</svg>