<?xml version="1.0" encoding="UTF-8"?>
<svg  viewBox="0 0 1000 1000" version="1.1" xmlns="http://www.w3.org/2000/svg" xmlns:xlink="http://www.w3.org/1999/xlink">
    <title>pin2</title>
    <defs>
        <path d="M286.500785,0 C513.059945,0 647.29324,249.755852 529.267852,439.895238 C484.659103,511.763487 430.854772,594.433429 397.236316,664.496464 C306.150097,854.339913 286.500785,1000 286.500785,1000 C286.500785,1000 266.832971,854.339913 175.746752,664.496464 C142.128296,594.433429 88.331366,511.763487 43.7337181,439.895238 C-74.2953707,249.755852 59.9416253,0 286.500785,0 Z M286.500785,80.5096031 C166.347646,80.5096031 68.9410843,177.887603 68.9410843,297.993549 C68.9410843,418.114291 166.347646,515.492291 286.500785,515.492291 C406.653924,515.492291 504.067887,418.114291 504.067887,297.993549 C504.067887,177.887603 406.653924,80.5096031 286.500785,80.5096031 Z" id="path-1"></path>
    </defs>
    <g id="pin2" stroke="none" stroke-width="1" fill="none" fill-rule="evenodd">
        <g transform="translate(213.000000, 0.000000)">
            <mask id="mask-2" fill="white">
                <use xlink:href="#path-1"></use>
            </mask>
            <g id="Clip-11"></g>
            <polygon id="fill" fill="currentColor" mask="url(#mask-2)" points="-1761 5180 9707 5180 9707 -369 -1761 -369"></polygon>
        </g>
    </g>
</svg>