<?xml version="1.0" encoding="UTF-8"?>
<svg  viewBox="0 0 1000 1000" version="1.1" xmlns="http://www.w3.org/2000/svg" xmlns:xlink="http://www.w3.org/1999/xlink">
    <title>pin23</title>
    <defs>
        <path d="M314,476 L240.509256,1000 L167,476 L314,476 Z M389.639042,0 C426.48679,0 456.360843,29.8760819 456.360843,66.7491645 L456.360843,101.993316 C470.160251,103.566715 481,115.357957 481,129.592596 L481,130.721741 C481,144.93787 470.160251,156.747622 456.360843,158.321022 L456.360843,273.678978 C470.160251,275.233868 481,287.04362 481,301.259748 L481,302.388894 C481,316.623532 470.160251,328.414774 456.360843,329.988174 L456.360843,365.232325 C456.360843,402.105407 426.48679,432 389.639042,432 L91.3609584,432 C54.51321,432 24.639157,402.105407 24.639157,365.232325 L24.639157,329.988174 C10.8397493,328.414774 0,316.623532 0,302.388894 L0,301.259748 C0,287.04362 10.8397493,275.233868 24.639157,273.678978 L24.639157,158.321022 C10.8397493,156.747622 0,144.93787 0,130.721741 L0,129.592596 C0,115.357957 10.8397493,103.566715 24.639157,101.993316 L24.639157,66.7491645 C24.639157,29.8760819 54.51321,0 91.3609584,0 L389.639042,0 Z" id="path-1"></path>
    </defs>
    <g id="pin23" stroke="none" stroke-width="1" fill="none" fill-rule="evenodd">
        <g transform="translate(260.000000, 0.000000)">
            <mask id="mask-2" fill="white">
                <use xlink:href="#path-1"></use>
            </mask>
            <g id="Combined-Shape"></g>
            <polygon id="fill" fill="currentColor" mask="url(#mask-2)" points="-5512.51194 1595.44571 5956.23874 1595.44571 5956.23874 -3957.72937 -5512.51194 -3957.72937"></polygon>
        </g>
    </g>
</svg>