<?xml version="1.0" encoding="UTF-8"?>
<svg  viewBox="0 0 1000 1000" version="1.1" xmlns="http://www.w3.org/2000/svg" xmlns:xlink="http://www.w3.org/1999/xlink">
    <title>pin21</title>
    <defs>
        <path d="M363,612 L308.490714,1000 L254,612 L363,612 Z M532.430823,0 C532.430823,57.016307 486.208055,103.235752 429.187648,103.235752 L405.3367,103.235752 L459.472806,437.365361 C483.120374,439.528431 506.231758,445.925203 527.679123,456.352309 L593.38941,488.280702 C607.829403,495.306057 617,509.966865 617,526.032744 C617,549.19793 598.215067,568 575.029726,568 L41.9702736,568 C18.784933,568 0,549.19793 0,526.032744 C0,509.966865 9.17059723,495.306057 23.6290791,488.280702 L89.3393665,456.352309 C110.768242,445.925203 133.879626,439.528431 157.527194,437.365361 L211.6633,103.235752 L187.812352,103.235752 C130.791945,103.235752 84.5691768,57.016307 84.5691768,0 L532.430823,0 Z" id="path-1"></path>
    </defs>
    <g id="pin21" stroke="none" stroke-width="1" fill="none" fill-rule="evenodd">
        <g transform="translate(192.000000, 0.000000)">
            <mask id="mask-2" fill="white">
                <use xlink:href="#path-1"></use>
            </mask>
            <g id="Combined-Shape"></g>
            <polygon id="fill" fill="currentColor" mask="url(#mask-2)" points="-2996.43718 1593.48006 8466.88331 1593.48006 8466.88331 -3952.8533 -2996.43718 -3952.8533"></polygon>
        </g>
    </g>
</svg>