<?xml version="1.0" encoding="UTF-8"?>
<svg  viewBox="0 0 1000 1000" version="1.1" xmlns="http://www.w3.org/2000/svg" xmlns:xlink="http://www.w3.org/1999/xlink">
    <title>pin25</title>
    <defs>
        <path d="M49.5,0 C76.8431229,0 99,22.0290391 99,49.200037 C99,68.2141866 88.1531567,84.6943494 72.2874859,92.8881901 L72.2874859,977.342088 C72.2874859,989.845556 62.0749718,1000 49.5,1000 C36.9250282,1000 26.7311161,989.845556 26.7311161,977.342088 L26.7311161,92.8881901 C10.8635851,84.6943494 -5.68434189e-14,68.2141866 -5.68434189e-14,49.200037 C-5.68434189e-14,22.0290391 22.1717587,0 49.5,0 Z M527.605828,114 C540.401965,114 546.818525,129.411384 537.757676,138.444373 L429.489782,246.379366 C423.886849,251.965071 423.886849,261.034929 429.489782,266.620634 L537.757676,374.555627 C546.818525,383.570181 540.401965,399 527.605828,399 L118,399 L118,114 L527.605828,114 Z" id="path-1"></path>
    </defs>
    <g id="pin25" stroke="none" stroke-width="1" fill="none" fill-rule="evenodd">
        <g id="pin26" transform="translate(455.000000, 0.000000)">
            <mask id="mask-2" fill="white">
                <use xlink:href="#path-1"></use>
            </mask>
            <g id="Combined-Shape"></g>
            <polygon id="fill" fill="currentColor" mask="url(#mask-2)" points="-8097.10152 1589.36352 3367.71955 1589.36352 3367.71955 -3941.03752 -8097.10152 -3941.03752"></polygon>
        </g>
    </g>
</svg>