<?xml version="1.0" encoding="UTF-8"?>
<svg  viewBox="0 0 1000 1000" version="1.1" xmlns="http://www.w3.org/2000/svg" xmlns:xlink="http://www.w3.org/1999/xlink">
    <title>pin26</title>
    <defs>
        <path d="M48,0 C74.5088394,0 96,21.5296402 96,48.108758 C96,66.6974938 85.4665642,82.8262277 70.0814758,90.8351059 L70.0814758,977.841487 C70.0814758,990.086008 60.1936972,1000 48,1000 C35.7878555,1000 25.9000769,990.086008 25.9000769,977.841487 L25.9000769,90.8351059 C10.5149885,82.8262277 0,66.6974938 0,48.108758 C0,21.5296402 21.4911606,0 48,0 Z M284.304333,83 C324.760407,83 331.183387,95.7298085 335.388227,112.382174 C335.419499,112.505957 335.450754,112.629671 335.482037,112.753306 L335.765637,113.863575 C335.797517,113.986633 335.829568,114.10958 335.861835,114.232402 L336.058422,114.967769 C339.157582,126.340247 344.948877,136.454094 391.284264,136.454094 C480.84224,136.454094 527.320672,95.1700562 535.880303,86.7307069 L536.375215,86.2373447 C536.670892,85.9391258 536.898105,85.7032371 537.057252,85.5353906 L537.305811,85.2693131 L537.333468,85.2388181 C541.406849,80.6686688 549,83.5735815 549,89.6794489 L549,353.859981 C549,355.488212 548.407508,357.060936 547.333617,358.282109 C545.315442,360.557932 496.916276,413.993524 391.284264,413.993524 C337.262667,413.993524 327.697994,399.439497 322.88052,381.510537 L322.588239,380.397323 L322.445986,379.837671 C319.611284,368.625079 317.55793,360.53943 284.304333,360.53943 C205.502937,360.53943 125.127735,412.383795 124.331574,412.901869 C119.886035,415.806782 114,412.605827 114,407.314075 L114,143.11504 C114,140.876222 115.129437,138.766923 117.018005,137.545749 C120.424832,135.306931 201.448072,83 284.304333,83 Z" id="path-1"></path>
    </defs>
    <g id="pin26" stroke="none" stroke-width="1" fill="none" fill-rule="evenodd">
        <g id="pin25" transform="translate(451.000000, 0.000000)">
            <mask id="mask-2" fill="white">
                <use xlink:href="#path-1"></use>
            </mask>
            <g id="Combined-Shape"></g>
            <polygon id="fill" fill="currentColor" mask="url(#mask-2)" points="-9339.16804 1594.60925 2140.43271 1594.60925 2140.43271 -3956.17934 -9339.16804 -3956.17934"></polygon>
        </g>
    </g>
</svg>