<?xml version="1.0" encoding="UTF-8"?>
<svg  viewBox="0 0 1000 1000" version="1.1" xmlns="http://www.w3.org/2000/svg" xmlns:xlink="http://www.w3.org/1999/xlink">
    <title>pin20</title>
    <defs>
        <path d="M289,0 C409.95382,0 508,21.7145018 508,48.49083 C508,75.2854982 409.95382,97 289,97 C168.04618,97 70,75.2854982 70,48.49083 C70,21.7145018 168.04618,0 289,0 Z M341,630 L289,1000 L237,630 C254.03,630.647176 271.412857,630.998501 289,630.998501 C306.587143,630.998501 323.97,630.647176 341,630 Z M149.165581,131 C189.549506,137.882446 238.191259,141.601187 288.994458,141.601187 C339.81613,141.601187 388.43941,137.882446 428.841809,131.018501 L463.092401,463.411052 C462.926136,463.559062 462.759871,463.707071 462.575132,463.855081 C447.075538,477.434961 438.669918,481.190705 427.271528,489.183223 C445.597627,487.925141 463.000032,480.358151 473.973523,471.736592 C537.523706,483.595861 578,501.431017 578,521.37531 C578,557.064124 448.608871,586 288.994458,586 C129.380044,586 0,557.064124 0,521.37531 C0,501.431017 40.467057,483.595861 104.015393,471.736592 C114.87804,480.265645 132.742292,487.962144 150.717388,489.183223 C140.390483,481.949254 130.673217,477.323954 114.896514,463.411052 L149.165581,131 Z" id="path-1"></path>
    </defs>
    <g id="pin20" stroke="none" stroke-width="1" fill="none" fill-rule="evenodd">
        <g transform="translate(211.000000, 0.000000)">
            <mask id="mask-2" fill="white">
                <use xlink:href="#path-1"></use>
            </mask>
            <g id="Combined-Shape"></g>
            <polygon id="fill" fill="currentColor" mask="url(#mask-2)" points="-1764.32304 1593.98235 9689.56293 1593.98235 9689.56293 -3956.37751 -1764.32304 -3956.37751"></polygon>
        </g>
    </g>
</svg>