<?xml version="1.0" encoding="UTF-8"?>
<svg  viewBox="0 0 1000 1000" version="1.1" xmlns="http://www.w3.org/2000/svg" xmlns:xlink="http://www.w3.org/1999/xlink">
    <title>pin24</title>
    <defs>
        <path d="M242.509253,0 C376.533369,0 485,108.390056 485,242.360906 C485,359.666321 401.813256,457.383841 291.107338,479.857206 L242.509253,1000 L193.892662,479.857206 C83.2052505,457.383841 0,359.684818 0,242.360906 C0,108.408553 108.466631,0 242.509253,0 Z M242.509253,44.3918319 C133.283855,44.3918319 44.4156141,133.193992 44.4156141,242.360906 C44.4156141,351.527819 133.283855,440.329979 242.509253,440.329979 C351.734651,440.329979 440.584386,351.527819 440.584386,242.360906 C440.584386,133.193992 351.734651,44.3918319 242.509253,44.3918319 Z M243.509243,88 C328.138978,88 397,156.865169 397,241.5 C397,326.134831 328.138978,395 243.509243,395 C158.861022,395 90,326.134831 90,241.5 C90,156.865169 158.861022,88 243.509243,88 Z" id="path-1"></path>
    </defs>
    <g id="pin24" stroke="none" stroke-width="1" fill="none" fill-rule="evenodd">
        <g transform="translate(258.000000, 0.000000)">
            <mask id="mask-2" fill="white">
                <use xlink:href="#path-1"></use>
            </mask>
            <g id="Combined-Shape"></g>
            <polygon id="fill" fill="currentColor" mask="url(#mask-2)" points="-6720.47528 1592.69933 4741.03059 1592.69933 4741.03059 -3953.4888 -6720.47528 -3953.4888"></polygon>
        </g>
    </g>
</svg>