<?xml version="1.0" encoding="UTF-8"?>
<svg  viewBox="0 0 1000 1000" version="1.1" xmlns="http://www.w3.org/2000/svg" xmlns:xlink="http://www.w3.org/1999/xlink">
    <title>pin3</title>
    <defs>
        <path d="M286.318421,0 C459.013469,0 599,140.052085 599,312.805185 C599,729.617354 286.318421,1000 286.318421,1000 C286.318421,1000 266.682218,854.339913 175.638276,664.496464 C142.042248,594.433429 88.2923017,511.763487 43.6948227,439.895238 C-74.233337,249.741055 59.8919171,0 286.318421,0 Z M301.110288,80.5096031 C181.037308,80.5096031 83.6883331,177.887603 83.6883331,298.008345 C83.6883331,418.114291 181.037308,515.492291 301.110288,515.492291 C421.183269,515.492291 518.513754,418.114291 518.513754,298.008345 C518.513754,177.887603 421.183269,80.5096031 301.110288,80.5096031 Z" id="path-1"></path>
    </defs>
    <g id="pin3" stroke="none" stroke-width="1" fill="none" fill-rule="evenodd">
        <g transform="translate(200.000000, 0.000000)">
            <mask id="mask-2" fill="white">
                <use xlink:href="#path-1"></use>
            </mask>
            <g id="Clip-8"></g>
            <polygon id="fill" fill="currentColor" mask="url(#mask-2)" points="-2997 5180 8471 5180 8471 -369 -2997 -369"></polygon>
        </g>
    </g>
</svg>