<?xml version="1.0" encoding="UTF-8"?>
<svg  viewBox="0 0 1000 1000" version="1.1" xmlns="http://www.w3.org/2000/svg" xmlns:xlink="http://www.w3.org/1999/xlink">
    <title>pin4</title>
    <defs>
        <path d="M286.5,0 C513.059781,0 647.293444,249.755852 529.267732,439.895238 C484.658861,511.763487 430.854382,594.433429 397.235834,664.496464 C379.621713,701.192625 364.690415,736.231541 352.053393,768.888165 L416.108106,768.888165 C378.678099,819.478559 295.436576,937.17262 286.555507,999.570892 C286.518502,999.852032 286.5,1000 286.5,1000 C286.5,1000 286.462996,999.852032 286.444493,999.570892 C277.563424,937.17262 194.303398,819.478559 156.854889,768.888165 L220.928104,768.888165 C208.291083,736.231541 193.341283,701.192625 175.745664,664.496464 C142.127116,594.433429 88.322637,511.763487 43.7322678,439.895238 C-74.293444,249.755852 59.9402194,0 286.5,0 Z M286.5,80.5096031 C166.32803,80.5096031 68.9323022,177.887603 68.9323022,297.993549 C68.9323022,418.114291 166.32803,515.492291 286.5,515.492291 C406.653468,515.492291 504.049196,418.114291 504.049196,297.993549 C504.049196,177.887603 406.653468,80.5096031 286.5,80.5096031 Z" id="path-1"></path>
    </defs>
    <g id="pin4" stroke="none" stroke-width="1" fill="none" fill-rule="evenodd">
        <g transform="translate(213.000000, 0.000000)">
            <mask id="mask-2" fill="white">
                <use xlink:href="#path-1"></use>
            </mask>
            <g id="Clip-17"></g>
            <polygon id="fill" fill="currentColor" mask="url(#mask-2)" points="-4244 5180 7224 5180 7224 -369 -4244 -369"></polygon>
        </g>
    </g>
</svg>