<?xml version="1.0" encoding="UTF-8"?>
<svg  viewBox="0 0 1000 1000" version="1.1" xmlns="http://www.w3.org/2000/svg" xmlns:xlink="http://www.w3.org/1999/xlink">
    <title>pin5</title>
    <defs>
        <path d="M177.140855,860.231299 C178.547814,868.255679 173.142129,875.885659 165.070627,877.275274 C133.784298,882.669706 107.755554,890.336546 89.8353372,899.44829 C73.4516681,907.767549 67.6201927,915.362512 67.6201927,919.693539 C67.6201927,925.301759 78.7462776,939.256882 120.862489,951.940341 C160.627598,963.917935 213.777331,970.512155 270.5,970.512155 C327.241182,970.512155 380.372402,963.917935 420.156024,951.940341 C462.253722,939.256882 473.379807,925.301759 473.379807,919.693539 C473.379807,915.362512 467.548332,907.767549 451.183175,899.44829 C433.244446,890.336546 407.234215,882.669706 375.929373,877.275274 C367.876383,875.885659 362.470698,868.255679 363.859145,860.231299 C365.247591,852.206919 372.911816,846.834602 380.983319,848.218688 C487.153197,866.517739 503,900.854492 503,919.693539 C503,951.182872 462.605462,969.959258 428.727367,980.165738 C386.259416,992.956091 330.0551,1000 270.5,1000 C210.9449,1000 154.759097,992.956091 112.272633,980.165738 C78.3945378,969.959258 38,951.182872 38,919.693539 C38,900.854492 53.8468031,866.517739 160.016681,848.218688 C168.088184,846.829073 175.752409,852.206919 177.140855,860.231299 Z M269.49473,0 C482.61701,0 608.890432,234.76692 497.857225,413.50588 C483.596605,436.474976 468.332013,460.617634 453.152277,485.068943 L450.474603,489.386907 C450.028544,490.107043 449.582615,490.827403 449.136842,491.547963 L446.464303,495.873559 C419.317095,539.871393 392.958435,584.453313 373.676322,624.624443 C290.564559,797.728494 270.665157,931.747548 269.545993,939.632897 L269.49473,940 C269.49473,940 269.49288,939.986308 269.489132,939.95902 L269.443468,939.632897 C268.324304,931.747548 248.424902,797.728494 165.313138,624.624443 C133.703118,558.770132 83.0752341,481.062044 41.1322362,413.50588 C-69.8824535,234.76692 56.3909692,0 269.49473,0 Z M269.513248,75.6806625 C156.48011,75.6806625 64.8536403,167.210756 64.8536403,280.125002 C64.8536403,393.0226 156.48011,484.569341 269.513248,484.569341 C382.527869,484.569341 474.154338,393.0226 474.154338,280.125002 C474.154338,167.210756 382.527869,75.6806625 269.513248,75.6806625 Z" id="path-1"></path>
    </defs>
    <g id="pin5" stroke="none" stroke-width="1" fill="none" fill-rule="evenodd">
        <g transform="translate(231.000000, 0.000000)">
            <mask id="mask-2" fill="white">
                <use xlink:href="#path-1"></use>
            </mask>
            <g id="Combined-Shape"></g>
            <polygon id="fill" fill="currentColor" mask="url(#mask-2)" points="-5473 5180 5995 5180 5995 -369 -5473 -369"></polygon>
        </g>
    </g>
</svg>