<?xml version="1.0" encoding="UTF-8"?>
<svg  viewBox="0 0 1000 1000" version="1.1" xmlns="http://www.w3.org/2000/svg" xmlns:xlink="http://www.w3.org/1999/xlink">
    <title>pin6</title>
    <defs>
        <path d="M289,0 C448.728554,0 578,129.250884 578,289 C578,448.719492 448.747069,578 289,578 C129.271446,578 0,448.732452 0,289 C0,129.280508 129.271446,0 289,0 Z M289,71.2761007 C168.763854,71.2761007 71.2825934,168.754907 71.2825934,289 C71.2825934,409.23028 168.763854,506.709087 289,506.709087 C409.236146,506.709087 506.717407,409.23028 506.717407,289 C506.717407,168.754907 409.236146,71.2761007 289,71.2761007 Z M167,616 C206.620158,625.64002 247.696126,630.577546 289.527642,630.577546 C331.34073,630.577546 372.361414,625.64002 412,616.018506 C357.15833,693.816005 327.194434,746.999899 310.701392,782.597094 C345.198571,781.214661 379.087627,776.4659 412,768.472956 C286.929297,945.88153 291.259872,995.317863 289.527642,1000 C288.808951,998.080879 288.624671,941.569522 167,768.45445 C199.691237,776.40668 233.359158,781.149888 267.635201,782.571185 C250.792027,746.257789 220.772847,692.529806 167,616 Z" id="path-1"></path>
    </defs>
    <g id="pin6" stroke="none" stroke-width="1" fill="none" fill-rule="evenodd">
        <g transform="translate(211.000000, -0.000000)">
            <mask id="mask-2" fill="white">
                <use xlink:href="#path-1"></use>
            </mask>
            <g id="Combined-Shape"></g>
            <polygon id="fill" fill="currentColor" mask="url(#mask-2)" points="-6643.2076 5182.57142 4782.21399 5182.57142 4782.21399 -369.369594 -6643.2076 -369.369594"></polygon>
        </g>
    </g>
</svg>