<?xml version="1.0" encoding="UTF-8"?>
<svg  viewBox="0 0 1000 1000" version="1.1" xmlns="http://www.w3.org/2000/svg" xmlns:xlink="http://www.w3.org/1999/xlink">
    <title>pin7</title>
    <defs>
        <path d="M507.903527,92.1812834 C622.037965,209.267155 622.260124,395.704914 511.161866,515.676133 C458.58412,572.465666 434.091037,609.768014 407.802164,664.500814 C316.661233,854.341802 297.000118,1000 297.000118,1000 C297.000118,1000 277.32049,854.341802 186.17956,664.500814 C159.9092,609.768014 135.416116,572.465666 82.8365192,515.676133 C-28.2598875,395.704914 -28.037728,209.267155 86.0967097,92.1812834 C206.023956,-30.8380443 388.196589,-30.6160946 507.903527,92.1812834 Z M297.000118,80.5215251 C176.774808,80.5215251 79.302332,177.898263 79.302332,298.002651 C79.302332,418.121835 176.774808,515.498573 297.000118,515.498573 C417.225429,515.498573 514.697905,418.121835 514.697905,298.002651 C514.697905,177.898263 417.225429,80.5215251 297.000118,80.5215251 Z" id="path-1"></path>
    </defs>
    <g id="pin7" stroke="none" stroke-width="1" fill="none" fill-rule="evenodd">
        <g transform="translate(202.000000, 0.000000)">
            <mask id="mask-2" fill="white">
                <use xlink:href="#path-1"></use>
            </mask>
            <g id="Clip-14"></g>
            <polygon id="Fill-13" fill="currentColor" mask="url(#mask-2)" points="-7910 5180 3558 5180 3558 -369 -7910 -369"></polygon>
        </g>
    </g>
</svg>