<?xml version="1.0" encoding="UTF-8"?>
<svg  viewBox="0 0 1000 1000" version="1.1" xmlns="http://www.w3.org/2000/svg" xmlns:xlink="http://www.w3.org/1999/xlink">
    <title>pin8</title>
    <defs>
        <path d="M265.5,0 C412.131266,0 531,118.887733 531,265.569493 C531,412.23831 265.5,849 265.5,849 C265.5,849 0,412.23831 0,265.569493 C0,118.887733 118.868734,0 265.5,0 Z M265.5,80.9212369 C163.562343,80.9212369 80.9031955,163.587805 80.9031955,265.569493 C80.9031955,367.538238 163.562343,450.221446 265.5,450.221446 C367.45614,450.221446 450.096805,367.538238 450.096805,265.569493 C450.096805,163.587805 367.45614,80.9212369 265.5,80.9212369 Z M363.742448,905.837073 C367.038,913.311494 363.631362,922.033192 356.15157,925.318611 L303.311651,948.499481 L356.15157,971.682198 C363.631362,974.967618 367.038,983.689316 363.742448,991.163737 C361.31707,996.701646 355.873855,1000 350.188102,1000 C348.190405,1000 346.17049,999.599024 344.228336,998.74718 L266.505148,964.649405 L188.781959,998.74718 C186.837954,999.599024 184.819891,1000 182.820343,1000 C177.136441,1000 171.693226,996.701646 169.249333,991.163737 C165.972296,983.689316 169.36042,974.967618 176.858726,971.682198 L229.698645,948.499481 L176.858726,925.318611 C169.36042,922.033192 165.972296,913.311494 169.249333,905.837073 C172.544886,898.362651 181.283653,894.970058 188.781959,898.251782 L266.505148,932.353252 L344.228336,898.251782 C351.724792,894.970058 360.46541,898.362651 363.742448,905.837073 Z" id="path-1"></path>
    </defs>
    <g id="pin8" stroke="none" stroke-width="1" fill="none" fill-rule="evenodd">
        <g transform="translate(234.000000, 0.000000)">
            <mask id="mask-2" fill="white">
                <use xlink:href="#path-1"></use>
            </mask>
            <g id="Combined-Shape"></g>
            <polygon id="fill" fill="currentColor" mask="url(#mask-2)" points="-9171.67824 5176.17822 2307.28502 5176.17822 2307.28502 -367.274016 -9171.67824 -367.274016"></polygon>
        </g>
    </g>
</svg>