<?xml version="1.0" encoding="UTF-8"?>
<svg viewBox="0 0 2667 2667" version="1.1" xmlns="http://www.w3.org/2000/svg" xmlns:xlink="http://www.w3.org/1999/xlink">
    <title>geofind</title>
    <defs>
        <linearGradient x1="61.4196836%" y1="90.4143232%" x2="40.3515595%" y2="8.1506569%" id="linearGradient-1">
            <stop stop-color="#FFBA24" offset="0%"></stop>
            <stop stop-color="#FF9E20" offset="39.9065778%"></stop>
            <stop stop-color="#FF771C" offset="100%"></stop>
        </linearGradient>
        <polygon id="path-2" points="2.17206702e-13 2666.6666 2666.6666 2666.6666 2666.6666 0 2.17206702e-13 0"></polygon>
    </defs>
    <g id="Page-1" stroke="none" stroke-width="1" fill="none" fill-rule="evenodd">
        <g id="geofind" transform="translate(-0.000000, 0.000000)">
            <path d="M1949.63875,992.910779 C1949.01342,992.673446 1948.38675,992.442779 1947.76008,992.220112 C1948.14008,991.618779 1948.51875,991.017446 1948.89742,990.416112 C1949.14142,991.248112 1949.38808,992.081446 1949.63875,992.910779 M1197.3561,468.209459 C1196.5401,463.342792 1196.56544,458.388126 1197.8001,453.472126 C1203.38677,431.248126 1199.91077,406.66946 1177.2921,395.788127 C1169.30277,391.944127 1160.18144,390.698794 1151.4161,391.809461 C1142.6481,392.921461 1134.13477,396.397461 1127.35344,402.11346 C1112.72011,414.446793 1110.84944,431.71746 1115.64011,448.148126 C1061.11877,407.546794 979.290776,411.13346 919.00411,435.43346 C897.044111,444.282793 876.220111,456.322792 858.009445,471.488125 C850.960112,477.357459 840.781446,488.861458 846.310779,498.688125 C849.541445,504.432124 856.045445,505.620124 862.066778,504.972124 C893.217444,501.621458 932.377443,501.632125 958.400109,521.648124 C923.097444,510.254791 880.356111,519.258791 847.918779,533.301457 C813.704113,548.11479 775.077447,575.414789 759.782781,610.629455 C756.789448,617.521455 753.109448,627.438788 759.380114,633.713455 C766.606781,640.941454 779.521447,635.009455 787.192114,631.541455 C807.984113,622.140122 831.877446,617.337455 853.242779,627.796121 C880.401445,641.088121 894.481444,674.073454 901.389444,701.757453 C911.678777,743.010785 911.196111,789.906784 905.430777,831.80945 C903.586777,845.216116 901.377444,858.572116 898.870778,871.869449 C840.526779,896.013448 852.138779,952.02678 865.724112,1003.53611 C820.709446,1148.39478 756.624114,1290.22277 710.950782,1434.88943 C645.286784,1414.1721 577.601452,1422.0361 519.109454,1459.78277 C473.188122,1489.41743 432.009456,1539.56677 419.848123,1593.68143 C417.71479,1603.17343 414.67879,1620.26276 425.057456,1626.1961 C428.430789,1628.12543 432.280123,1628.23343 435.933456,1627.1241 C445.544122,1624.2041 454.973455,1620.54943 464.656122,1617.62143 C479.348121,1613.17876 494.324121,1609.74543 509.577454,1607.9401 C533.721453,1605.08143 557.261453,1606.4641 579.418786,1613.35343 C531.690787,1612.63076 485.518788,1626.1681 453.386789,1666.05476 C414.26279,1714.62409 410.07479,1785.32809 422.033456,1844.23609 C423.890789,1853.38676 428.530789,1869.55742 440.328122,1869.56009 C449.009455,1869.56276 453.278789,1860.88942 455.462789,1853.77609 C462.706788,1830.18142 478.301455,1809.25209 498.573454,1795.23076 C513.78412,1784.71209 530.46412,1777.98009 549.094786,1777.39476 C578.226786,1776.47743 606.256118,1790.87476 629.637451,1806.94276 C662.652117,1829.63209 693.377449,1859.94276 721.318782,1888.55476 C756.929448,1925.02276 791.252114,1962.76942 826.688113,1999.42542 C866.045445,2040.13475 906.653444,2079.67875 950.310776,2115.79875 C1044.95077,2194.09742 1150.06277,2252.79208 1273.23077,2270.06541 C1434.11076,2292.63341 1590.00009,2239.08008 1728.23476,2160.11475 C1781.59076,2129.63475 1830.92809,2092.42275 1873.12409,2047.65342 C1920.10809,2023.32542 1958.03208,1974.85609 1981.57875,1928.58942 C2008.14542,1876.39609 2027.48942,1803.89876 2010.64808,1745.76676 C2017.20142,1682.19743 2012.78008,1617.7961 1999.74808,1555.3041 C1996.52275,1539.84143 1993.12142,1524.41743 1989.57075,1509.02677 C1971.70275,1431.52277 1950.16008,1354.9441 1928.01609,1278.57344 C1918.23609,1244.84544 1908.32142,1211.15077 1898.74275,1177.36411 C1891.05209,1150.23344 1883.50275,1122.96811 1876.89075,1095.54411 C1887.22142,1081.27744 1897.47342,1066.95344 1907.54809,1052.50544 C1915.69209,1099.18944 1941.06408,1159.44277 1962.29342,1194.79744 C1973.51208,1213.47744 1992.11608,1235.49877 2016.61875,1231.25077 C2046.12542,1226.13477 2062.20008,1187.18144 2066.84675,1161.27211 C2068.78808,1150.44811 2069.48941,1139.11078 2068.42541,1128.10144 C2096.53608,1099.75078 2108.73608,1059.34144 2098.15341,1020.68144 C2111.72275,1008.81878 2121.76008,994.026779 2125.87475,976.124113 C2134.99208,936.45878 2112.23475,896.360115 2087.09075,867.469449 C2071.78275,849.877449 2051.03342,830.504116 2029.98942,818.608117 C2031.56142,812.55345 2032.96942,806.452117 2034.18808,800.316117 C2045.06408,801.464117 2056.67875,798.676117 2066.21342,794.105451 C2093.43608,781.053451 2106.85341,753.313452 2086.20141,727.388119 C2068.30941,704.924119 2050.93608,682.450787 2036.15742,657.742787 C2023.31875,636.285455 1999.61608,591.892122 2016.16008,567.436123 C2028.19608,549.644123 2032.90675,526.894791 2016.48142,510.082791 C2010.67208,504.140124 2003.04542,500.122791 1994.96542,498.294791 C1986.88008,496.462791 1978.25875,496.805458 1970.45342,499.670791 C1948.39208,507.773458 1942.85342,530.333457 1946.05608,551.572123 C1946.55742,554.888123 1946.47608,558.161456 1945.94408,561.36679 C1857.65342,489.001458 1725.03742,454.204126 1614.97609,439.301459 C1534.81476,428.44546 1451.1401,425.592126 1370.47477,432.050793 C1335.96543,434.812126 1301.2001,439.346793 1267.36543,446.757459 C1243.96277,451.881459 1219.6281,458.620126 1197.3561,468.209459" id="path52" fill="#0B121F" transform="translate(1272.026439, 1333.341102) scale(-1, 1) rotate(-180.000000) translate(-1272.026439, -1333.341102) "></path>
            <path d="M856.510645,1992.17719 C705.518649,1840.34652 600.930652,1688.51453 493.866654,1762.56519 L493.866654,1762.56519 C472.113322,1777.60519 455.354655,1800.05986 447.550655,1825.48652 L447.550655,1825.48652 C442.173322,1842.99586 433.985322,1835.66386 430.143989,1816.72919 L430.143989,1816.72919 C406.265323,1699.10386 453.741322,1569.47053 623.771984,1600.30253 L623.771984,1600.30253 C547.118653,1546.11453 456.731989,1586.31186 433.529322,1593.34653 L433.529322,1593.34653 C425.545323,1595.78386 424.338656,1585.5412 427.922656,1569.6332 L427.922656,1569.6332 C448.246655,1479.16787 566.582653,1366.77187 716.327982,1419.54787 L716.327982,1419.54787 C761.321314,1274.75587 828.357313,1125.37588 873.062645,980.855879 L873.062645,980.855879 C859.782645,944.957213 858.414645,915.258547 865.385312,892.369214 L865.385312,892.369214 C870.785312,874.681215 883.370645,860.322548 906.138644,852.065215 L906.138644,852.065215 C909.062644,836.977216 911.573311,821.973216 913.627977,807.07855 L913.627977,807.07855 C932.039977,673.19722 888.727978,550.69989 783.782647,598.139888 L783.782647,598.139888 C765.382648,606.458555 760.167981,604.909221 767.370647,588.065222 L767.370647,588.065222 C794.49998,525.866557 911.477311,474.611891 972.337309,511.085224 L972.337309,511.085224 C981.049309,516.310557 983.142642,511.366557 978.634642,504.998557 L978.634642,504.998557 C951.963976,467.425225 899.631978,466.747892 861.182645,470.883891 L861.182645,470.883891 C848.073312,472.293225 852.286645,461.161225 863.303978,451.987892 L863.303978,451.987892 C953.505309,376.879894 1114.39997,378.56656 1151.13197,483.815891 L1151.13197,483.815891 C1254.44664,347.697228 2188.89061,370.670561 2008.45328,832.566549 L2008.45328,832.566549 C1976.25728,915.022547 1918.75462,997.883878 1867.95729,1067.90921 L1867.95729,1067.90921 C1894.59062,1179.86921 1955.15995,1356.20254 1991.64528,1531.1332 L1991.64528,1531.1332 C2004.81595,1594.29053 2008.87062,1658.23586 2002.24662,1720.67853 L2002.24662,1720.67853 C2016.22262,1766.83186 2007.16795,1834.21986 1974.20662,1898.97586 L1974.20662,1898.97586 C1946.08795,1954.23052 1906.68262,1995.52919 1868.07595,2015.08119 L1868.07595,2015.08119 C1829.26929,2056.47319 1781.58396,2094.25052 1724.13062,2127.06785 L1724.13062,2127.06785 C1581.32129,2208.64785 1457.27063,2241.13985 1348.39597,2241.13985 L1348.39597,2241.13985 C1135.28397,2241.13985 980.303975,2116.65985 856.510645,1992.17719" id="path74" fill="url(#linearGradient-1)" fill-rule="nonzero" transform="translate(1227.942844, 1320.410585) scale(-1, 1) rotate(-180.000000) translate(-1227.942844, -1320.410585) "></path>
            <g id="Highlight" transform="translate(1333.333300, 1333.333300) scale(-1, 1) rotate(-180.000000) translate(-1333.333300, -1333.333300) translate(0.000000, 0.000000)">
                <mask id="mask-3" fill="white">
                    <use xlink:href="#path-2"></use>
                </mask>
                <g id="path80"></g>
                <path d="M1791.43702,1945.70368 C1691.43969,2155.62101 1440.2117,2219.05968 1226.76904,2157.19968 C995.762375,2090.23168 809.36638,1876.46369 874.730378,1533.06503 C898.253044,1409.4557 941.51571,1305.4397 978.758376,1194.7037 C1112.63704,795.651713 2061.18102,1379.6877 1791.43702,1945.70368" id="path86" fill="#FFDD3B" opacity="0.255115327" mask="url(#mask-3)"></path>
                <path d="M693.058383,1578.42463 C693.149049,1580.71796 695.083716,1582.50596 697.377049,1582.41796 C699.671716,1582.32863 701.458382,1580.39263 701.370382,1578.09796 C701.362382,1577.85263 697.253049,1492.04863 736.131715,1385.11263 C736.915715,1382.95397 735.799715,1380.56597 733.639715,1379.78197 C731.478382,1378.9993 729.091715,1380.11397 728.309048,1382.2753 C688.867716,1490.7553 693.049049,1578.17263 693.058383,1578.42463" id="path90" fill="#0B121F" mask="url(#mask-3)"></path>
                <path d="M468.258122,1779.39476 C505.886121,1733.04142 561.302119,1721.85476 631.371451,1763.48142 C670.17545,1786.53476 677.37945,1747.76942 660.142117,1722.76409 C613.459451,1655.06809 477.420788,1669.85609 468.258122,1779.39476 M475.379455,1591.94543 C510.612787,1566.72676 575.874119,1571.39343 624.554118,1604.81476 C652.794117,1624.20409 664.25945,1602.52409 653.124784,1583.94676 C623.628784,1534.74409 496.967454,1524.38276 475.379455,1591.94543" id="path94" fill="#FFDD3B" mask="url(#mask-3)"></path>
                <path d="M799.48678,607.447718 C824.502779,587.955719 865.768112,595.038385 893.590778,625.485051 C909.732111,643.147717 919.20411,625.481051 913.918777,609.327718 C899.917444,566.545053 819.95878,551.70372 799.48678,607.447718" id="path98" fill="#FFB423" mask="url(#mask-3)"></path>
            </g>
            <g id="Eyes" transform="translate(1537.799095, 898.362404) scale(-1, 1) rotate(-180.000000) translate(-1537.799095, -898.362404) translate(1081.836240, 669.641103)">
                <path d="M794.605713,456.904789 C819.245713,463.372788 864.595045,410.75279 895.895044,339.375458 C902.355044,324.644792 907.708377,310.270126 911.925711,296.668793 C903.128377,308.114126 893.829711,319.375459 883.979045,330.438125 C853.441712,364.734124 817.659046,392.794124 779.432381,413.834123 C777.884381,437.662122 782.78838,453.800789 794.605713,456.904789" id="path110" fill="#0B121F"></path>
                <path d="M804.881447,438.494256 C825.160113,443.818256 862.485445,400.50759 888.249444,341.760925 C892.714778,331.579592 896.536111,321.600925 899.705444,312.035592 C894.617444,318.226259 889.386778,324.363592 883.978778,330.438258 C883.224111,331.283592 882.446778,332.100925 881.685445,332.939592 C857.776112,386.85959 824.390779,426.820923 806.701446,422.486256 C800.561447,420.982256 797.113447,414.336923 796.19478,404.042257 C794.872113,404.85959 793.55078,405.68359 792.220114,406.48359 C791.617447,424.202256 795.733447,436.092922 804.881447,438.494256" id="path114" fill="#FFFFFF"></path>
                <path d="M172.058662,370.334657 C90.8226644,369.542657 21.1173328,264.57866 16.3826663,135.891997 C15.1186663,101.655997 18.5893329,69.1799983 25.890666,39.979999 C15.9359996,27.934666 7.20133315,14.573333 -1.34689861e-14,0 C77.1679981,71.1946649 232.138661,98.2853309 328.791992,40.8586656 C320.370659,51.9066654 311.241326,61.6279985 301.562659,70.0853316 C306.575992,91.817331 309.713326,114.883997 310.589326,138.775997 C315.322659,267.46266 253.291994,371.126657 172.058662,370.334657" id="path118" fill="#0B121F"></path>
                <path d="M163.921996,329.484792 C97.0486642,328.587458 39.4086657,237.182127 35.1859991,125.312797 C34.2619991,100.694131 36.0033324,77.1407981 39.9886657,55.3847986 C50.3126654,65.575465 61.1473318,74.1581315 73.2299982,82.0514646 C71.4086649,95.7487976 70.5446649,110.086131 70.7699982,124.86613 C72.2473315,224.374128 122.084664,306.107459 182.075329,307.434126 C206.081995,307.964792 228.069994,295.527459 245.723327,274.054126 C225.280661,308.782126 196.515328,329.922125 163.921996,329.484792" id="path122" fill="#FFFFFF"></path>
                <path d="M240.884261,229.923594 C258.521594,228.950261 272.022927,213.484928 271.022927,195.366262 C270.022927,177.246262 254.902927,163.359596 237.264261,164.332929 C219.626928,165.306263 206.126928,180.772929 207.126928,198.890262 C208.126928,217.010261 223.245594,230.896928 240.884261,229.923594" id="path130" fill="#FFFFFF"></path>
            </g>
            <g id="Nose" transform="translate(1746.073065, 1127.722288) scale(-1, 1) rotate(-180.000000) translate(-1746.073065, -1127.722288) translate(1352.663913, 660.242168)">
                <path d="M139.991783,179.903511 C120.17445,205.806177 100.494451,231.746176 79.3077847,256.560842 C55.958452,283.910175 31.1304526,309.412841 3.94778662,332.982173 C0.381120039,336.075507 -0.736213266,340.910173 0.463786704,345.38484 C1.54778668,349.430173 4.43045327,352.599506 8.35711984,354.050173 C17.8811196,357.570173 26.4531194,362.698173 33.9211192,369.590173 C86.8291179,418.424838 80.8917847,587.3435 87.8517845,657.282165 C89.5144511,673.972832 91.5971178,690.631498 94.3331177,707.182164 C109.205117,797.126162 153.833116,877.175493 240.337114,914.532826 C302.127779,941.214158 372.471777,939.935492 436.257109,921.215492 C506.545107,900.584826 570.747772,858.716827 619.381105,804.100828 C752.887768,654.172832 788.727767,468.492837 786.7411,273.135508 C786.683767,267.683508 783.230434,262.944842 778.066434,261.203509 C772.891767,259.460842 767.254434,261.178175 763.926434,265.502175 C739.917102,296.708841 703.101102,330.086174 670.12377,351.126173 C649.141104,364.510173 617.225105,380.784839 591.335772,376.092839 C577.186439,373.526172 566.667773,364.566173 563.275773,350.427506 C562.533106,347.32884 562.187773,344.135507 562.227773,340.947507 C562.301106,335.36484 563.557106,329.766174 565.987773,324.730174 C576.057106,303.862174 598.726438,303.020841 618.281105,309.838174 C624.455771,311.990174 630.926438,308.300841 633.342438,302.480841 C652.178437,257.108842 658.634437,201.078177 643.717104,153.748845 C623.394438,89.2701795 585.254439,32.5648476 518.843774,10.0128482 C471.867775,-5.93648474 420.61311,-1.24448486 373.853111,12.9595148 C322.102445,28.6808477 272.570447,56.7715137 230.002448,89.8848462 C196.607782,115.862179 165.718449,146.280845 139.991783,179.903511" id="path146" fill="#0B121F"></path>
                <path d="M146.61845,184.972977 C107.427784,236.268976 69.0011183,287.608975 9.41045315,339.284973 C8.32111984,340.22764 8.14911984,341.812973 8.52111984,343.22764 C8.91178649,344.660973 9.8691198,345.714306 11.2477864,346.22764 C21.8117862,350.12764 31.2984526,355.816973 39.5771191,363.459639 C95.558451,415.128971 88.7824512,582.459634 96.1517843,656.452965 C97.7904509,672.960965 99.8424509,689.443631 102.563784,705.822297 C149.113116,987.443624 453.085109,978.323624 613.151771,798.555628 C745.125101,650.364966 780.369101,466.68497 778.399767,273.218308 C778.381101,271.316975 777.203767,269.719642 775.403767,269.110308 C773.587767,268.499642 771.682434,269.090308 770.535767,270.590308 C755.953101,289.531641 718.945102,329.87164 674.60777,358.156973 C526.735774,452.48497 521.89044,267.399642 621.025105,301.959641 C622.859771,302.603641 624.874438,301.140974 625.637104,299.283641 C643.831771,255.479642 650.006437,201.45431 635.762437,156.255645 C555.455773,-98.5310158 273.41978,19.2943146 146.61845,184.972977" id="path150" fill="#FF860F"></path>
                <path d="M237.808981,703.899498 C253.511647,696.375498 257.754314,664.616832 247.299647,632.975499 C236.843647,601.334167 215.642315,581.771501 199.939648,589.2955 C184.239649,596.820834 179.995649,628.578166 190.450315,660.219499 C200.904982,691.862164 222.106314,711.423497 237.808981,703.899498" id="path158" fill="#0B121F"></path>
                <path d="M592.938705,277.622975 C559.633373,271.708308 531.602707,276.909642 513.202707,290.533641 C477.461375,316.978974 487.932041,364.062973 508.320041,395.765639 C436.318709,387.182972 359.990711,377.389639 242.530714,330.822974 C209.340048,317.662974 173.445382,313.056307 173.445382,313.056307 C169.077382,-30.1970175 618.936038,46.6429806 592.938705,277.622975" id="path162" fill="#E53929"></path>
                <path d="M57.4089853,324.82804 C55.4369853,326.005374 54.7983187,328.56404 55.9743186,330.533374 C57.151652,332.50404 59.7103186,333.14404 61.6796518,331.966707 C122.842317,295.254708 207.770315,324.473374 301.866313,353.781373 C428.746309,393.625372 575.847639,438.281371 697.100969,342.402707 C698.962303,341.062707 699.384969,338.462707 698.044969,336.601373 C696.704969,334.737373 694.104969,334.317373 692.242303,335.657373 C572.047639,428.800038 428.954309,385.024039 304.344979,345.829373 C208.380982,315.942707 121.77165,286.193375 57.4089853,324.82804" id="path166" fill="#0B121F"></path>
                <path d="M221.818448,703.404431 C233.138448,691.947098 235.303781,664.047099 226.114448,636.233766 C220.229115,618.4231 210.939781,604.440433 201.142448,596.9591 C199.026448,595.3431 196.885115,594.0311 194.747782,593.0471 C196.306448,591.4711 198.042448,590.204434 199.942448,589.292434 C200.219782,589.160434 200.502448,589.033767 200.783782,588.916434 C216.394448,582.469767 237.031781,601.8991 247.298447,632.975099 C257.75178,664.615098 253.51178,696.375098 237.809114,703.900431 C232.854448,706.272431 227.354448,705.952431 221.818448,703.404431" id="path174" fill="#162238"></path>
            </g>
            <g id="Globe" transform="translate(1568.308865, 1746.645532) scale(-1, 1) rotate(-180.000000) translate(-1568.308865, -1746.645532) translate(1118.265194, 1296.601807)">
                <path d="M1.28957756,416.185568 C-7.71975554,535.602899 30.7269102,652.624229 108.786908,743.42156 C186.84424,834.218891 296.76957,889.788223 416.185567,898.797556 C535.602898,907.808223 652.620228,869.360224 743.417559,791.304226 C834.217557,713.245561 889.788222,603.32023 898.797555,483.901567 C907.808222,364.480236 869.356223,247.456239 791.293558,156.657575 C713.236226,65.8655771 603.314896,10.2989118 483.902899,1.28957873 C364.484235,-7.71975438 247.462905,30.7269113 156.665574,108.785576 C65.869576,186.842907 10.2989107,296.769571 1.28957756,416.185568" id="path186" fill="#0B121F" opacity="0.369280134"></path>
                <path d="M9.54131069,416.807302 C-8.81468885,660.091296 173.525307,872.189957 416.807967,890.545957 C660.091961,908.901956 872.190622,726.561961 890.546622,483.277967 C908.902622,239.996639 726.562626,27.8953114 483.278632,9.54064519 C239.997305,-8.81535435 27.8959769,173.525974 9.54131069,416.807302" id="path190" fill="#166EDF"></path>
                <path d="M64.565176,515.180633 C48.3838431,702.115295 209.121172,865.088624 423.581167,879.192623 C638.041162,893.29529 825.011824,753.18996 841.191823,566.256631 C857.373156,379.321969 696.635827,216.34864 482.177166,202.24464 C267.717171,188.140641 80.7451756,328.245971 64.565176,515.180633" id="path194" fill="#5197FB"></path>
                <path d="M702.18116,177.944241 C710.514493,173.884241 720.21716,174.046908 728.734493,177.458908 C737.889159,181.128241 745.099826,188.212241 749.507826,196.974907 C757.465159,212.789573 749.851826,231.153573 734.751826,239.134906 C716.07316,249.008239 697.150494,238.424239 689.807827,220.070907 C685.411827,209.077574 685.26116,195.524241 692.67316,185.745574 C695.194494,182.420241 698.430493,179.770908 702.18116,177.944241 M316.066503,826.605558 C296.583837,823.204225 272.627837,811.674892 257.731838,798.604225 C246.465171,788.717559 236.930505,774.810893 241.729172,759.15356 C248.365171,737.500227 277.301171,730.165561 297.191837,729.540227 C311.32917,729.096227 327.449169,731.560227 339.479836,739.418894 C352.922502,748.196227 361.526502,762.400226 363.202502,778.348226 C364.715835,792.764226 360.301169,808.113559 349.226502,817.917558 C339.986502,826.100225 328.079836,828.704225 316.066503,826.605558 M157.04384,119.477576 C161.053174,123.885576 161.914507,130.361576 158.966507,135.773575 C149.931841,152.361575 169.09184,183.545574 172.414507,200.48824 C176.322507,220.413573 173.766507,238.534906 159.265174,253.506906 C154.693174,258.229572 149.573174,262.012239 144.357174,265.957572 C129.989174,276.825572 130.409174,279.541572 133.145174,296.364238 C135.826508,312.822904 139.531841,332.350904 128.942508,345.186903 C119.255841,356.926903 103.611842,356.63357 90.0651753,353.520237 C85.1558421,352.392237 68.9385092,347.942903 59.7598428,347.336237 C56.3691762,347.114903 53.8531763,349.72957 54.0785096,353.154903 C55.9238429,381.118903 42.9518432,396.588236 15.5131772,402.389569 C13.9291772,402.724235 12.367844,402.802902 10.8625107,402.633569 C23.033177,289.288238 77.4051757,190.056241 157.04384,119.477576 M428.959834,891.289556 C591.774496,899.152223 739.263826,817.370892 822.05849,688.410895 C802.047824,674.428229 781.411825,674.573562 759.698492,684.290895 C752.503825,687.510895 745.889159,691.464228 738.961159,695.152228 C737.382492,695.992228 732.922493,698.333561 730.377159,698.993561 C729.931826,698.248228 729.499826,697.293561 729.282493,696.782895 C719.895826,674.642895 708.015827,660.649562 684.095827,653.548229 C666.729161,648.392229 651.334495,655.176229 635.319828,660.816229 C633.782495,661.358896 632.263828,661.562896 630.678495,661.109562 C626.527829,659.922896 623.005162,654.924229 621.109162,651.334896 C617.570495,644.636229 615.841162,636.449563 615.902496,628.901563 C615.914496,627.101563 616.030496,625.30023 616.257162,623.514897 C619.621162,596.900231 643.294495,591.230897 666.807828,592.576231 C680.369161,593.352231 693.402494,590.026897 704.731827,582.488231 C726.058493,568.289565 736.807826,542.472232 737.634492,517.502899 C738.571826,489.356233 727.182493,461.949567 705.96516,443.293568 C690.931827,430.073568 683.074494,421.893568 691.007827,401.098902 C702.006493,372.266903 719.867826,345.280237 710.722493,313.181571 C707.422493,301.592238 702.76116,289.630905 698.47716,278.357572 C692.135827,261.670906 685.51316,245.077573 678.755827,228.557573 C672.182494,212.489573 665.467828,196.458907 658.498494,180.557574 C653.630495,169.449575 648.586495,157.797575 642.861162,147.110908 C627.581162,118.596242 606.163829,100.861576 575.138497,91.2802431 C563.794497,87.7762432 551.746497,87.0949099 541.322497,93.6615764 C530.346498,100.576243 525.179831,113.060243 521.266498,124.856242 C517.083831,137.456242 513.859831,150.114908 508.890498,162.490908 C499.658498,185.481574 483.106499,201.66824 467.206499,219.95224 C457.945166,230.601573 449.425166,241.509573 442.743833,253.998906 C436.9385,264.846905 435.0105,276.429572 436.9905,288.560238 C438.357167,296.938905 441.451833,304.832238 445.225166,312.396238 C448.995833,319.945571 453.491833,327.049571 457.334499,334.52557 C458.834499,337.442904 461.550499,342.988237 461.501166,346.484237 C458.619833,351.884237 434.863833,360.398903 429.3345,362.42157 C415.109167,367.614903 393.599834,374.553569 383.849168,386.468236 C376.339835,395.645569 372.675835,403.896235 369.195835,415.028235 C367.542502,420.317568 362.914502,433.866901 356.514502,435.613568 C347.935836,437.952234 322.630503,424.273568 314.65317,420.521568 C283.546504,405.890902 247.010505,398.950902 214.971839,414.928235 C183.01184,430.865568 163.998507,466.556234 158.04384,500.5869 C150.287841,544.920232 163.058507,594.612231 206.098506,616.069563 C206.339839,616.18823 206.639839,616.33623 206.958506,616.501563 C206.787839,617.08023 206.611839,617.622897 206.482506,618.042897 C205.397172,621.593563 204.246506,625.105563 203.243839,628.686896 C198.338506,646.204229 210.862506,661.530896 223.518505,671.897562 C240.118505,685.493562 262.270504,696.514895 281.765171,705.305561 C301.815837,714.344228 324.129169,719.802894 344.626502,708.877561 C359.283835,701.064228 369.461168,686.897562 380.541168,674.940229 C381.317168,674.104229 383.493168,671.942895 384.837168,671.338895 C388.839835,673.370895 396.243834,686.657562 398.330501,690.238895 C412.557167,714.661561 438.717167,720.253561 462.423833,705.938894 C462.991833,705.593561 463.459833,705.266894 463.978499,704.850894 C474.834499,696.124228 492.531832,688.125562 505.903832,684.693562 C512.326498,683.046895 519.797165,682.344228 526.357164,683.560228 C527.962498,683.860228 532.959831,685.110895 533.893164,686.672228 C534.286498,688.796228 530.431831,694.289561 529.274498,695.786895 C526.609164,699.233561 523.511831,702.481561 520.622498,705.749561 C516.563831,710.336228 512.735831,715.017561 509.379832,720.153561 C499.899832,734.670894 495.822499,750.292227 495.885165,767.592226 C495.902499,772.148226 495.865165,781.988226 493.911832,785.833559 C491.667832,790.250892 487.357165,793.501559 483.431832,796.348226 C476.670499,801.245559 470.153166,805.558892 465.579833,812.814892 C456.727833,826.862891 457.306499,842.088224 464.875833,853.061557 C447.7225,856.453557 434.231833,868.605557 429.3825,888.357557 C429.139834,889.344223 429.001167,890.324223 428.959834,891.289556" id="path198" fill="#00A3AF"></path>
                <path d="M316.06597,826.605958 C296.584637,823.204625 272.628637,811.675292 257.732638,798.604625 C246.464638,788.717959 236.931305,774.811293 241.728638,759.15396 C248.364638,737.500627 277.300637,730.164627 297.192637,729.539294 C311.32997,729.095294 327.448636,731.560627 339.480636,739.41796 C352.921969,748.196627 361.525969,762.399293 363.203302,778.348626 C364.716635,792.763292 360.300635,808.112625 349.225969,817.917958 C339.985969,826.100625 328.080636,828.703291 316.06597,826.605958 M807.707291,680.785962 C792.197958,675.037962 776.260625,676.877962 759.697959,684.291295 C752.504625,687.511295 745.888626,691.464628 738.960626,695.152628 C734.371293,697.593961 729.488626,697.012628 727.244626,692.195295 C718.152626,672.695295 706.320627,660.144629 684.096627,653.548629 C666.729961,648.391296 651.333961,655.176629 635.320628,660.816629 C633.783295,661.357962 632.263295,661.563296 630.679295,661.109962 C626.527295,659.921962 623.004629,654.924629 621.108629,651.335296 C617.569962,644.635296 615.840629,636.449963 615.903296,628.901963 C615.915296,627.101963 616.029962,625.30063 616.256629,623.515297 C619.620629,596.900631 643.293962,591.231297 666.808628,592.576631 C680.368627,593.352631 693.40196,590.025964 704.731293,582.487298 C726.057959,568.289965 736.808626,542.471299 737.635292,517.503299 C738.571292,489.3553 727.183293,461.948634 705.96596,443.293974 C690.932627,430.073968 683.073961,421.893968 691.007294,401.099302 C702.007293,372.267303 719.867293,345.279303 710.723293,313.181971 C707.42196,301.591305 702.760627,289.631305 698.47796,278.356638 L697.924627,276.901972 C638.635295,234.985973 564.65263,207.789974 482.807299,202.293974 C477.724632,208.16464 472.429966,213.94464 467.205966,219.95264 C457.944633,230.60064 449.425966,241.509973 442.7433,253.999306 C436.9393,264.845972 435.0113,276.429972 436.989967,288.559305 C438.357967,296.939305 441.452633,304.832638 445.225966,312.396638 C448.9953,319.945971 453.4913,327.049971 457.333966,334.52597 C465.685966,350.776637 440.5313,358.328636 429.333967,362.42197 C415.108634,367.615303 393.600634,374.553969 383.848635,386.468636 C376.340635,395.644636 372.675302,403.895302 369.195302,415.027302 C367.543302,420.317968 362.915302,433.867301 356.515302,435.613968 C347.935302,437.952634 322.62997,424.273968 314.65397,420.521968 C283.545971,405.889969 247.011305,398.949969 214.971306,414.928635 C183.01264,430.865968 163.997973,466.5553 158.04464,500.5873 C150.288641,544.920632 163.057974,594.612631 206.099306,616.06863 C206.340639,616.18863 206.639306,616.33663 206.959306,616.501963 C206.787306,617.08063 206.612639,617.623297 206.481972,618.041963 C205.396639,621.593963 204.247306,625.10463 203.244639,628.685963 C198.339306,646.204629 210.863306,661.529962 223.517972,671.897962 C240.117972,685.493962 262.271304,696.515295 281.765971,705.304628 C301.815303,714.344628 324.128636,719.803294 344.625969,708.876628 C357.549969,701.988628 366.989968,690.160628 376.635302,679.264628 C382.315301,672.849962 386.561968,671.524629 391.795301,679.432628 C394.603301,683.676628 397.220634,688.331295 398.331301,690.239295 C412.557967,714.661961 438.716633,720.252627 462.423299,705.939294 C462.992633,705.593961 463.460633,705.267294 463.977966,704.849961 C474.835299,696.124628 492.532632,688.125962 505.903298,684.693962 C510.045965,683.639295 515.368631,682.921962 519.803298,683.595295 C530.309964,685.189962 532.924631,689.719295 526.629964,699.012628 C524.941964,701.501961 522.595298,703.517961 520.621965,705.748628 C516.563298,710.336628 512.735298,715.016628 509.379298,720.153961 C499.899298,734.671294 495.821965,750.292627 495.884632,767.592626 C495.903299,772.148626 495.864632,781.988626 493.912632,785.832626 C491.667299,790.249959 487.357965,793.501959 483.431299,796.348626 C476.671299,801.245959 470.152633,805.559292 465.579299,812.815292 C459.752633,822.059292 458.013966,831.816625 459.661966,840.533958 C461.151299,848.415291 460.503299,853.345957 453.093966,857.067291 C444.032633,861.621957 436.729967,869.23929 432.2673,879.66729 C596.452629,887.31129 743.265959,804.788625 807.707291,680.785962" id="path202" fill="#0D88D5"></path>
                <path d="M12.5790439,388.509436 C37.9403766,383.149436 40.9417099,369.69077 39.9230433,354.089437 C37.8590433,322.966771 69.4643759,334.224104 93.2417086,339.693437 C133.025708,348.836103 120.667041,314.388104 117.717708,288.840105 C112.972375,247.422773 169.32304,258.360106 158.492374,203.216107 C155.141707,186.061441 133.455041,152.953442 146.509707,128.988109 C89.839042,182.494774 46.5977098,251.684106 24.2937103,332.269437 C19.0937105,351.00677 15.2323772,369.773436 12.5790439,388.509436 M708.393693,190.698774 C691.263027,199.008107 706.035027,238.254773 728.123026,226.59344 C736.059026,222.38544 741.475026,212.598773 736.836359,203.352107 C730.375026,190.538774 717.079026,186.434774 708.393693,190.698774 M318.505703,812.632092 C351.881702,818.448092 360.915035,770.356093 331.723036,751.296093 C302.503037,732.209427 224.600372,750.652093 267.089704,787.941426 C280.600371,799.790759 302.44837,809.814759 318.505703,812.632092 M455.0897,693.793428 C439.595033,703.149428 421.555034,701.996095 410.588367,683.097428 C401.583034,667.709429 389.357701,644.520096 370.137702,665.297429 C347.001702,690.228095 335.395036,713.898761 287.59637,692.373428 C239.853705,670.820095 211.999039,649.990763 216.905706,632.510763 C221.811039,614.952097 226.421705,610.368097 212.428372,603.370764 C146.724374,570.640098 163.55904,456.440101 221.303039,427.622768 C243.713705,416.470768 273.040371,416.630768 308.613703,433.358768 C344.107036,450.061434 368.179035,465.9841 382.737701,419.257435 C385.069701,411.940102 387.481701,404.433435 394.827034,395.453436 C409.463034,377.572103 474.256366,370.816103 475.651032,347.629437 C477.072366,324.360104 436.807033,295.058771 455.251033,260.692106 C473.615032,226.272106 506.344365,206.91744 522.055031,167.777441 C537.791031,128.612109 536.075031,94.0307764 570.95103,104.833443 C601.940363,114.377443 618.696362,132.070775 630.357695,153.812108 C644.779028,180.752108 689.46836,290.341438 697.08036,317.069438 C704.585693,343.420104 689.441694,365.32277 677.752361,396.042769 C666.359028,425.826768 680.647027,439.926768 696.599027,453.948101 C745.253692,496.7321 723.297693,581.604098 667.619028,578.413431 C630.088362,576.269431 605.988362,591.522764 602.183029,621.734763 C598.564363,650.257429 616.229696,682.588095 640.035028,674.196095 C651.911028,670.014762 666.733694,663.205429 680.059027,667.146762 C702.57636,673.848095 710.18836,688.109428 716.22036,702.317428 C732.011026,739.581427 768.388358,667.844095 814.201691,700.228095 C747.665692,796.868092 643.975028,864.985424 525.379031,885.41209 C498.652365,890.02409 471.148366,892.221423 443.160367,891.74009 C448.576366,869.677424 466.697699,863.698757 484.284365,867.210757 C488.197699,867.98809 495.113699,871.12409 501.305698,871.473424 C515.997698,872.250757 516.800365,855.656091 502.725698,854.369424 C499.241698,854.048091 495.621699,854.316091 493.907032,854.156091 C475.168366,852.385424 467.824366,835.872091 477.581699,820.377425 C483.853699,810.433425 499.456365,806.250759 506.560365,792.256092 C509.669698,786.145426 510.099032,776.548093 510.072365,767.541426 C509.939032,732.236094 529.908364,718.214761 540.497697,704.462761 C562.668364,675.833429 532.000364,663.366762 502.377698,670.953429 C482.272366,676.128095 463.560366,686.984095 455.0897,693.793428" id="path206" fill="#57BE1F"></path>
                <path d="M318.505436,812.631558 C351.881435,818.447558 360.914769,770.35556 331.722769,751.29556 C302.50277,732.20756 224.600105,750.65156 267.089438,787.940892 C280.601437,799.790225 302.44677,809.815559 318.505436,812.631558 M455.089433,693.794228 C439.5961,703.148895 421.554767,701.996895 410.589434,683.096895 C401.582768,667.710229 389.357435,644.522229 370.137435,665.296895 C347.002769,690.227562 335.394769,713.899561 287.597437,692.371561 C239.853438,670.820895 212.000106,649.990229 216.905439,632.511563 C221.810772,614.952897 226.421439,610.367564 212.428106,603.371564 C146.724107,570.639564 163.558774,456.440901 221.302772,427.623568 C243.713438,416.470235 273.041437,416.631568 308.61477,433.359568 C344.106769,450.060901 368.181435,465.983567 382.737435,419.258235 C385.069435,411.939568 387.482768,404.434235 394.826768,395.452902 C409.462767,377.572903 474.258766,370.816903 475.652099,347.62757 C477.070766,324.359571 436.806767,295.059571 455.250766,260.691572 C467.042766,238.591573 484.756099,222.700907 500.085432,203.79824 C566.020097,210.772907 626.386762,231.895573 677.452094,263.372906 C686.720094,286.890238 694.32676,307.400904 697.081427,317.068904 C704.58676,343.41957 689.441427,365.322236 677.753427,396.042236 C666.360094,425.826235 680.646761,439.927568 696.59876,453.947567 C745.254759,496.731566 723.297426,581.604898 667.618761,578.414231 C630.089429,576.270231 605.989429,591.523564 602.181429,621.735563 C598.564096,650.258229 616.229429,682.587562 640.034762,674.198229 C651.910761,670.015562 666.734761,663.206229 680.058761,667.147562 C702.577427,673.848895 710.19076,688.110228 716.220093,702.319561 C730.430759,735.85156 761.314759,681.127562 800.744091,693.432895 C735.362759,806.474225 600.165429,881.898223 448.0001,880.111557 C456.009433,867.623557 470.313433,864.42089 484.282765,867.211557 C488.197432,867.98889 495.113432,871.12489 501.306765,871.471557 C515.997431,872.250224 516.800098,855.656891 502.726765,854.370224 C499.241432,854.048891 495.624099,854.316891 493.906765,854.155557 C475.169432,852.386224 467.824099,835.874225 477.581432,820.379558 C483.853432,810.432892 499.456098,806.251559 506.560098,792.258226 C509.669432,786.144892 510.100098,776.547559 510.073432,767.53956 C509.938765,732.23556 529.910764,718.214227 540.498764,704.462228 C562.668097,675.832895 532.000098,663.367562 502.378765,670.954229 C482.273432,676.127562 463.560099,686.983562 455.089433,693.794228" id="path210" fill="#7BD31B"></path>
                <path d="M130.291441,158.980375 C86.4181088,207.124374 54.2554429,264.399039 35.69411,326.835037 C35.3954434,327.840371 35.7687767,328.880371 36.6354433,329.467037 C37.5074433,330.053704 38.6087766,330.012371 39.4301099,329.357704 C39.5767766,329.244371 39.7194433,329.131037 39.8661099,329.020371 C51.435443,320.215037 69.6087759,324.283037 82.5594422,327.375037 C86.8301088,328.395037 91.0821087,329.492371 95.3621085,330.476371 C98.7461085,331.255037 108.292775,333.06037 110.703441,330.136371 C114.230108,325.861704 111.247441,309.172371 110.354108,303.641705 C109.616775,299.076371 108.850108,294.515038 108.320775,289.919038 C107.055442,278.891038 109.215442,268.772372 116.136775,259.939039 C123.444775,250.613706 134.135441,245.471039 142.282107,237.057706 C151.224774,227.821706 151.55944,217.00704 149.211441,205.037707 C148.239441,200.080374 146.068774,195.053707 144.226107,190.353707 C141.522107,183.447041 138.796774,176.535041 136.687441,169.416375 C135.779441,166.349708 134.984774,163.247041 134.358108,160.109708 C134.178108,159.212375 133.552774,158.539041 132.671441,158.295041 C131.790108,158.049708 130.907441,158.304375 130.291441,158.980375 M712.534093,199.200374 C718.62876,196.232374 725.792759,202.444374 728.386093,207.600374 C730.498093,211.800373 727.407426,216.27104 723.70476,218.23104 C713.02876,223.873707 706.84876,201.969707 712.534093,199.200374 M320.131436,803.315025 C304.835437,800.643025 284.999437,791.073692 273.327437,780.831026 C270.008771,777.919026 262.866104,770.879026 264.335438,766.083026 C265.454104,762.433693 270.960771,759.41236 274.295437,757.96836 C281.516771,754.839027 290.095437,753.419027 297.935437,753.173693 C306.96077,752.889693 318.859436,754.19236 326.551436,759.213693 C334.035436,764.101693 338.755436,771.940359 339.688769,780.819026 C340.392769,787.516359 338.791436,795.577692 333.552769,800.215025 C329.758103,803.576359 324.972769,804.159025 320.131436,803.315025 M449.8301,685.892362 C463.360766,675.243029 483.378099,666.064362 500.027432,661.793696 C517.283431,657.365696 545.318097,657.524362 554.862097,675.763029 C561.066097,687.623028 555.50743,700.508361 547.980764,710.247028 C541.926097,718.081694 534.632764,724.729694 529.176764,733.083027 C522.226098,743.723027 519.483431,754.875027 519.530098,767.505693 C519.563431,776.757693 519.248765,788.160359 514.994098,796.540359 C510.839431,804.715025 504.612765,810.197692 497.306098,815.493692 C493.728765,818.087025 487.903432,821.739025 485.584765,825.420358 C479.516766,835.049691 483.243432,843.648358 494.876765,844.744358 C497.779432,844.916358 500.694098,844.687024 503.588765,844.951024 C514.371431,845.940358 523.196765,853.367024 522.116765,864.827024 C521.847431,867.672357 520.907431,870.424357 519.339431,872.81369 C518.811431,873.61769 518.810098,874.600357 519.334098,875.403024 C519.858098,876.207024 520.758098,876.60169 521.703431,876.444357 C522.394098,876.327024 523.083431,876.212357 523.772765,876.092357 C633.791428,857.136357 732.411426,795.796359 798.527424,705.936361 C799.000758,705.293694 799.118091,704.528361 798.862091,703.776361 C798.604758,703.020361 798.046091,702.484361 797.279424,702.264361 C786.708758,699.220361 776.718092,702.317695 767.111425,706.915028 C754.980759,712.716361 737.856759,725.759027 723.874093,722.140361 C715.69676,720.023027 710.679426,713.476361 707.515427,706.009694 C700.903427,690.413695 694.23676,681.223028 677.366094,676.213695 C667.138094,673.176362 652.848761,679.709695 643.176762,683.117695 C637.028762,685.283028 630.464762,685.640362 624.176762,683.843028 C602.083429,677.524362 592.094096,649.539029 592.256763,628.71503 C592.279429,625.985696 592.455429,623.257697 592.798096,620.548363 C597.822096,580.811031 631.874095,566.893698 668.159428,568.971031 C676.595427,569.455031 684.570094,567.501698 691.62876,562.803031 C706.447427,552.939032 713.435426,533.909699 714.00476,516.717699 C714.703426,495.632366 706.258093,475.032367 690.354094,461.049701 C682.787427,454.397701 675.290094,447.437701 670.258094,438.589701 C661.854094,423.820368 663.028761,408.103035 668.915428,392.671036 C673.047427,381.839036 678.003427,371.345703 682.370094,360.60837 C685.698094,352.42837 688.822094,343.709704 689.49676,334.843037 C689.88876,329.683037 689.40476,324.640371 687.98476,319.659037 C684.802094,308.489704 680.498094,297.607038 676.375427,286.757705 C670.100761,270.252372 663.556761,253.852372 656.871428,237.509706 C650.370095,221.616373 643.736762,205.776374 636.844762,190.048374 C632.158095,179.357708 627.535429,168.571041 622.019429,158.276375 C609.663429,135.213709 593.171429,121.596376 568.160763,113.869709 C563.98743,112.581709 557.866097,111.187043 553.926097,113.667043 C548.934097,116.812376 545.524764,126.825709 543.706097,132.304375 C539.394097,145.301708 535.942098,158.576375 530.831431,171.303041 C520.380765,197.324374 503.047432,214.772373 485.047432,235.46704 C477.003432,244.716373 469.394099,254.309706 463.590099,265.153705 C448.076766,294.147038 486.778099,320.376371 485.092765,348.201703 C483.830099,369.043036 453.6941,378.695036 437.4461,384.629702 C428.9621,387.728369 407.532767,394.861702 402.148768,401.443035 C396.724768,408.071035 394.283434,414.016368 391.766101,422.080368 C387.091435,437.033701 379.208768,453.929701 362.736769,458.424367 C344.410102,463.421701 320.771436,449.532368 304.58877,441.917701 C280.351437,430.517701 250.735438,423.515035 225.522105,436.085701 C200.568773,448.529701 185.954106,478.255033 181.334106,504.661699 C177.212773,528.221699 179.724773,555.376365 193.867439,575.353698 C199.796773,583.729698 207.462106,590.328364 216.648772,594.907031 C222.650105,597.89903 228.336772,601.793697 230.423439,608.516364 C232.980772,616.749697 228.238105,627.11503 226.012772,635.06303 C224.302105,641.168363 234.215438,650.097696 238.500772,653.607029 C253.664771,666.025695 273.654104,675.709695 291.48477,683.749695 C331.240769,701.675028 337.864769,686.207028 363.199435,658.869696 C370.031435,651.497696 379.194101,645.832363 389.592768,648.100363 C400.071434,650.385696 407.354101,659.729696 412.798101,668.316362 C414.880767,671.599029 416.804767,674.977695 418.760767,678.336362 C426.055434,690.856361 437.2261,693.221695 449.552766,686.081695 C449.6541,686.023028 449.736766,685.965695 449.8301,685.892362" id="path214" fill="#7BD31B"></path>
                <path d="M320.132103,803.314759 C304.83477,800.642759 285.000104,791.073426 273.328104,780.832093 C270.009438,777.918759 262.865438,770.878759 264.334771,766.08276 C265.453438,762.433426 270.960104,759.412093 274.296104,757.968093 C281.516104,754.83876 290.096104,753.41876 297.936103,753.173427 C306.960103,752.889427 318.860103,754.192093 326.550769,759.21476 C334.036103,764.101426 338.756102,771.940093 339.688102,780.818759 C340.392102,787.516092 338.792102,795.577426 333.552103,800.214759 C329.757436,803.576092 324.973436,804.158759 320.132103,803.314759 M449.829433,685.892095 C463.360099,675.244095 483.378766,666.064095 500.026765,661.793429 C517.284098,657.365429 545.318764,657.524096 554.86143,675.764095 C561.066764,687.624095 555.506764,700.508095 547.981431,710.246761 C541.926764,718.081427 534.633431,724.730761 529.176098,733.08276 C522.226765,743.72276 519.484098,754.87476 519.529431,767.505426 C519.564098,776.757426 519.249431,788.160092 514.993431,796.540092 C510.840098,804.714759 504.613432,810.198759 497.305432,815.494758 C493.729432,818.086758 487.904099,821.738758 485.584099,825.420091 C479.516099,835.050758 483.242766,843.648091 494.877432,844.745424 C497.780098,844.916091 500.693432,844.686758 503.589432,844.950758 C514.372098,845.940091 523.197431,853.366757 522.117431,864.826757 C521.846765,867.67209 520.906765,870.425424 519.338765,872.814757 C518.844098,873.566757 518.812098,874.477424 519.242765,875.250757 C561.18143,868.95609 601.014763,856.784091 637.465428,839.646758 C667.370761,825.228091 695.53876,807.396092 721.397426,786.544092 C750.917425,762.061426 776.090758,733.525427 795.709424,701.856095 C785.717425,699.533428 776.241425,702.544095 767.110758,706.914761 C754.981425,712.716094 737.857426,725.758761 723.87476,722.140094 C715.696093,720.024094 710.67876,713.477428 707.51476,706.009428 C700.90276,690.414762 694.236094,681.224095 677.365427,676.213429 C667.137428,673.176095 652.849428,679.709428 643.177428,683.117428 C637.028095,685.282762 630.465429,685.641428 624.177429,683.842762 C602.084096,677.524095 592.093429,649.540096 592.257429,628.714763 C592.278763,625.98543 592.456096,623.25743 592.798763,620.548097 C597.822763,580.810764 631.874762,566.893431 668.160094,568.970765 C676.596094,569.454765 684.57076,567.501431 691.628094,562.802765 C706.44676,552.938765 713.43476,533.909432 714.005426,516.717433 C714.704093,495.633433 706.25876,475.033434 690.35476,461.049434 C682.788094,454.397434 675.290761,447.437434 670.258761,438.589434 C661.854761,423.820102 663.028094,408.102769 668.914761,392.670769 C673.048094,381.838769 678.004094,371.345436 682.370761,360.609436 C685.697427,352.428103 688.82276,343.709437 689.496094,334.84277 C689.888094,329.682771 689.405427,324.640104 687.984094,319.658771 C684.801427,308.489438 680.497427,297.606771 676.374761,286.758772 C672.404094,276.306772 668.321428,265.897439 664.164094,255.518772 C618.950762,230.020106 567.106763,212.410773 511.002765,205.080107 C503.056098,215.394773 494.136099,225.018773 485.046765,235.466773 C477.002766,244.716106 469.393433,254.309439 463.590766,265.153439 C448.077433,294.148105 486.778765,320.376104 485.093432,348.201437 C483.829432,369.04277 453.694766,378.696103 437.445433,384.629436 C428.962767,387.728102 407.532101,394.862769 402.148101,401.442769 C396.724101,408.070769 394.284101,414.016102 391.765434,422.080107 C387.092101,437.033435 379.209435,453.929434 362.737435,458.424101 C344.409436,463.421434 320.772103,449.532101 304.589437,441.917434 C280.350771,430.517435 250.736105,423.514768 225.522772,436.086768 C200.568106,448.529434 185.954773,478.254767 181.33344,504.661433 C177.212107,528.221432 179.724106,555.376098 193.868106,575.353431 C199.797439,583.730764 207.461439,590.328097 216.648106,594.906764 C222.650772,597.898764 228.337439,601.79343 230.424105,608.516097 C232.981438,616.74943 228.237439,627.114763 226.012105,635.062763 C224.302772,641.168096 234.216105,650.097429 238.501438,653.606762 C253.665438,666.026762 273.653437,675.709429 291.485437,683.749428 C331.241436,701.674761 337.865436,686.206762 363.200102,658.869429 C370.032102,651.497429 379.193435,645.833429 389.592101,648.100096 C400.070768,650.385429 407.354767,659.730762 412.798767,668.316095 C414.880101,671.600095 416.805434,674.977429 418.7601,678.337428 C426.0561,690.856095 437.225433,693.221428 449.553433,686.081428 C449.653433,686.024095 449.737433,685.965428 449.829433,685.892095" id="path218" fill="#6ED834"></path>
                <path d="M93.8235753,306.920504 C98.3995751,306.920504 102.110242,303.376505 102.110242,299.003171 C102.110242,294.627171 98.3995751,291.083171 93.8235753,291.083171 C89.250242,291.083171 85.5395755,294.627171 85.5395755,299.003171 C85.5395755,303.376505 89.250242,306.920504 93.8235753,306.920504 M575.699563,142.504509 C579.57023,142.504509 582.712896,139.504509 582.712896,135.803175 C582.712896,132.099176 579.57023,129.099176 575.699563,129.099176 C571.828897,129.099176 568.68623,132.099176 568.68623,135.803175 C568.68623,139.504509 571.828897,142.504509 575.699563,142.504509 M549.175564,180.076508 C552.42623,180.076508 555.063564,177.555174 555.063564,174.447174 C555.063564,171.339174 552.42623,168.817841 549.175564,168.817841 C545.924897,168.817841 543.286231,171.339174 543.286231,174.447174 C543.286231,177.555174 545.924897,180.076508 549.175564,180.076508 M66.1902426,317.008504 C69.7289092,317.008504 72.5982424,314.265838 72.5982424,310.884504 C72.5982424,307.501838 69.7289092,304.760504 66.1902426,304.760504 C62.6529094,304.760504 59.7835761,307.501838 59.7835761,310.884504 C59.7835761,314.265838 62.6529094,317.008504 66.1902426,317.008504" id="path222" fill="#2C6E08"></path>
                <path d="M554.17943,768.053026 C556.346097,768.053026 558.106097,766.373026 558.106097,764.299693 C558.106097,762.227693 556.346097,760.549026 554.17943,760.549026 C552.012764,760.549026 550.254097,762.227693 550.254097,764.299693 C550.254097,766.373026 552.012764,768.053026 554.17943,768.053026 M659.604761,693.067695 C661.771428,693.067695 663.530094,691.386361 663.530094,689.314362 C663.530094,687.243695 661.771428,685.563695 659.604761,685.563695 C657.438094,685.563695 655.679428,687.243695 655.679428,689.314362 C655.679428,691.386361 657.438094,693.067695 659.604761,693.067695 M667.834094,709.347694 C670.784761,709.347694 673.179427,707.059694 673.179427,704.237028 C673.179427,701.417028 670.784761,699.129028 667.834094,699.129028 C664.883428,699.129028 662.490094,701.417028 662.490094,704.237028 C662.490094,707.059694 664.883428,709.347694 667.834094,709.347694 M584.662096,817.007692 C586.828763,817.007692 588.586096,815.327692 588.586096,813.254358 C588.586096,811.182358 586.828763,809.503692 584.662096,809.503692 C582.492763,809.503692 580.73543,811.182358 580.73543,813.254358 C580.73543,815.327692 582.492763,817.007692 584.662096,817.007692 M599.135429,813.722358 C602.819429,813.722358 605.807429,810.866358 605.807429,807.343692 C605.807429,803.819692 602.819429,800.963692 599.135429,800.963692 C595.448763,800.963692 592.462096,803.819692 592.462096,807.343692 C592.462096,810.866358 595.448763,813.722358 599.135429,813.722358 M595.934096,773.851693 C599.950096,773.851693 603.207429,770.738359 603.207429,766.899693 C603.207429,763.05836 599.950096,759.945026 595.934096,759.945026 C591.918096,759.945026 588.65943,763.05836 588.65943,766.899693 C588.65943,770.738359 591.918096,773.851693 595.934096,773.851693 M429.0381,657.105029 C432.288767,657.105029 434.9261,654.586362 434.9261,651.477029 C434.9261,648.367696 432.288767,645.846363 429.0381,645.846363 C425.7861,645.846363 423.148767,648.367696 423.148767,651.477029 C423.148767,654.586362 425.7861,657.105029 429.0381,657.105029 M361.667435,626.955696 C365.683435,626.955696 368.942102,623.842363 368.942102,620.002363 C368.942102,616.162363 365.683435,613.050363 361.667435,613.050363 C357.651435,613.050363 354.394102,616.162363 354.394102,620.002363 C354.394102,623.842363 357.651435,626.955696 361.667435,626.955696 M321.88877,478.461033 C325.138103,478.461033 327.776769,475.941034 327.776769,472.833034 C327.776769,469.7237 325.138103,467.202367 321.88877,467.202367 C318.635436,467.202367 315.998103,469.7237 315.998103,472.833034 C315.998103,475.941034 318.635436,478.461033 321.88877,478.461033 M296.831437,488.913033 C300.78477,488.913033 303.990103,485.846367 303.990103,482.069033 C303.990103,478.289033 300.78477,475.225034 296.831437,475.225034 C292.88077,475.225034 289.67277,478.289033 289.67277,482.069033 C289.67277,485.846367 292.88077,488.913033 296.831437,488.913033 M612.270096,501.7837 C615.519429,501.7837 618.159429,499.2637 618.159429,496.1557 C618.159429,493.046366 615.519429,490.5277 612.270096,490.5277 C609.019429,490.5277 606.380762,493.046366 606.380762,496.1557 C606.380762,499.2637 609.019429,501.7837 612.270096,501.7837 M646.696761,458.431701 C651.783428,458.431701 655.914095,454.485034 655.914095,449.619701 C655.914095,444.751701 651.783428,440.807701 646.696761,440.807701 C641.607428,440.807701 637.476762,444.751701 637.476762,449.619701 C637.476762,454.485034 641.607428,458.431701 646.696761,458.431701 M606.447429,275.777039 C611.534096,275.777039 615.664762,271.830372 615.664762,266.966372 C615.664762,262.099706 611.534096,258.154372 606.447429,258.154372 C601.358096,258.154372 597.227429,262.099706 597.227429,266.966372 C597.227429,271.830372 601.358096,275.777039 606.447429,275.777039 M324.978103,780.341026 C328.435436,780.341026 331.239436,777.661026 331.239436,774.357026 C331.239436,771.053026 328.435436,768.371693 324.978103,768.371693 C321.522103,768.371693 318.718103,771.053026 318.718103,774.357026 C318.718103,777.661026 321.522103,780.341026 324.978103,780.341026" id="path226" fill="#46A214"></path>
                <path d="M713.01916,431.722235 C707.85116,427.046235 703.520493,421.042235 704.985827,414.756902 C707.837827,402.531569 746.969826,398.295569 746.97916,422.139568 C746.981826,432.955568 737.892492,444.078234 724.833826,439.290234 C721.128493,437.931568 717.133826,435.448901 713.01916,431.722235 M421.0005,335.694237 C423.341834,328.699571 428.903167,321.010237 436.7485,324.096904 C443.997833,326.947571 446.421833,340.204904 439.595167,346.82757 C431.633833,354.55957 415.628501,351.738237 421.0005,335.694237 M301.368503,395.404902 C279.131171,375.636903 281.151171,362.636903 292.653837,354.95157 C317.377836,338.428904 383.115168,335.862237 356.308502,391.046236 C347.699169,408.764902 329.203169,420.148902 301.368503,395.404902 M70.4085092,362.792903 C81.6858422,358.032903 100.199175,381.432903 84.4765088,390.263569 C67.2751759,399.924902 59.0791761,367.576903 70.4085092,362.792903 M192.543173,711.988894 C189.743173,694.546228 199.717839,689.462228 216.067172,694.280895 C229.807172,698.327561 244.535171,708.719561 243.845838,715.894228 C243.167172,722.952894 233.071172,731.928894 222.284505,735.45156 C205.816506,740.83156 194.936506,726.912894 192.543173,711.988894 M419.7885,859.960891 C419.7885,859.960891 436.4125,857.880891 439.877833,843.795558 C444.9005,823.371558 413.853834,804.903559 407.807167,838.890224 C405.949834,849.327558 408.491167,860.203557 419.7885,859.960891 M726.761826,679.199562 C728.516493,682.767562 731.061826,685.971562 734.409826,685.376895 C742.008492,684.031562 755.929825,671.143562 737.409826,666.198229 C729.427159,664.067562 719.932493,665.295562 726.761826,679.199562 M212.243172,114.587576 C195.692506,91.8795765 237.243172,84.56491 240.379172,100.251576 C241.616505,106.428909 239.767172,113.738243 236.032505,118.614242 C230.751172,125.515576 221.688505,127.543576 212.243172,114.587576" id="path230" fill="#FFFFFF"></path>
            </g>
            <g id="Feet" transform="translate(1556.093500, 2054.700658) scale(-1, 1) rotate(-180.000000) translate(-1556.093500, -2054.700658) translate(1024.197181, 1842.414206)">
                <path d="M172.299323,347.938359 C139.928657,352.545026 104.376658,338.766359 115.984657,300.64636 C123.063324,277.407694 145.144657,221.858362 136.399324,180.923697 C131.452657,157.78103 111.295324,157.74103 99.6646578,174.714363 C83.8926582,197.723696 84.0179916,233.750362 81.1979916,274.725028 C76.7686584,339.078359 -35.3513388,283.255694 11.36466,234.991695 C41.2366593,204.131696 133.088657,111.165032 104.945991,59.4436996 C66.8313253,-10.6149653 185.020656,-25.5882983 165.579323,51.7610331 C151.22599,108.867698 263.35932,175.990363 299.983319,198.426363 C357.259318,233.515695 262.60332,315.535693 242.263321,254.321028 C229.313988,215.342362 220.452655,180.423697 199.440655,162.074364 C183.943322,148.537031 164.435323,153.602364 165.415323,177.247697 C167.153989,219.070362 202.392655,267.358361 215.040655,288.097027 C235.789988,322.11836 204.795322,344.325026 172.299323,347.938359" id="path242" fill="#F16130"></path>
                <path d="M897.501705,422.377824 C867.940372,416.163157 841.419039,392.984491 863.524372,363.549825 C877.001705,345.605826 913.700371,304.340493 919.021704,266.040494 C922.028371,244.385828 904.541704,237.991162 889.084371,249.059162 C868.133705,264.060494 856.876372,295.384494 841.501706,330.068493 C817.352373,384.544491 737.613709,300.700494 793.404374,273.536494 C829.077706,256.168495 938.15637,204.427163 930.041704,150.641831 C919.049704,77.7898325 1026.3897,102.076499 985.108369,163.103164 C954.62837,208.155163 1030.80837,301.812494 1055.53237,332.847159 C1094.19103,381.384492 984.421702,422.657824 987.783036,363.168492 C989.819036,327.16716 989.159036,291.97116 977.744369,269.129828 C969.249703,252.129828 951.983037,251.167161 945.377703,272.004494 C933.69237,308.86316 949.049703,361.908492 953.48837,383.907158 C960.771036,419.988491 926.855037,429.49249 897.501705,422.377824" id="path246" fill="#F16130"></path>
                <path d="M57.3714589,244.968228 C67.3434586,249.053562 72.6287918,267.618894 67.9021253,281.270894 C57.8554589,310.268227 16.2887933,292.94156 27.2541263,263.794894 C32.2047929,250.628228 46.7074592,240.602895 57.3714589,244.968228 M186.596789,281.589561 C199.722122,282.172227 210.495455,298.46156 207.906122,313.374893 C202.399455,345.054892 147.635457,342.332226 154.226123,310.194893 C157.199456,295.680227 172.566123,280.969561 186.596789,281.589561" id="path250" fill="#FB8660"></path>
                <path d="M936.75677,373.036092 C947.399437,378.889425 949.686103,393.230758 944.24477,403.090758 C937.54877,415.220091 925.036771,416.905424 915.167437,412.717424 C899.847438,406.222758 898.236771,391.717425 903.919438,381.648092 C909.743438,371.324092 923.239437,365.598759 936.75677,373.036092 M1048.14343,338.461426 C1055.6861,343.070759 1057.1621,354.626759 1053.1621,362.649425 C1048.24077,372.522758 1039.2781,374.020092 1032.2701,370.748092 C1021.39143,365.672092 1020.40077,353.977426 1024.57543,345.780092 C1028.85277,337.378759 1038.56343,332.605426 1048.14343,338.461426" id="path254" fill="#FB8660"></path>
            </g>
            <g id="Hands" transform="translate(1486.658632, 1646.364245) scale(-1, 1) rotate(-180.000000) translate(-1486.658632, -1646.364245) translate(853.686499, 1442.792914)">
                <path d="M1143.67505,96.7608204 C1130.56172,58.3341547 1123.87772,21.6581556 1132.29105,7.01415601 C1144.43238,-14.0498435 1191.55772,15.2408225 1227.16305,56.1554881 C1272.68171,108.458153 1281.70038,164.264819 1234.96038,201.072818 C1247.67105,239.42215 1235.62972,280.447483 1206.04438,308.272815 C1214.33905,367.560814 1164.54838,455.110145 1115.70172,373.79148 C1081.75505,317.227482 1047.51905,216.091484 1063.55772,188.208818 C1070.67105,175.858152 1088.69105,179.523485 1109.92839,192.430151 C1095.07639,149.660819 1087.33505,108.42882 1096.69505,92.1501539 C1103.87639,79.6888209 1122.17105,83.5461541 1143.67505,96.7608204" id="path266" fill="#FFB423"></path>
                <path d="M1167.00572,113.953087 C1167.27505,114.135753 1264.95105,185.715752 1242.90972,258.206416 C1242.40172,259.857083 1240.66438,260.753083 1239.03505,260.202416 C1237.40438,259.649083 1236.48972,257.858416 1236.99772,256.205083 C1257.66572,188.239751 1163.87238,119.321087 1163.61638,119.143753 C1162.19372,118.16242 1161.79772,116.19842 1162.72972,114.765087 C1163.66438,113.33442 1165.58172,112.97042 1167.00572,113.953087 M1138.11505,212.799751 C1136.69105,211.817084 1134.77238,212.181084 1133.84038,213.614418 C1132.90705,215.046417 1133.30172,217.011751 1134.72705,217.993084 C1134.98305,218.169084 1224.77905,279.789083 1204.11238,347.754414 C1203.60438,349.406414 1204.51772,351.197081 1206.14838,351.751747 C1207.77905,352.301081 1209.51638,351.405081 1210.02305,349.754414 C1232.06572,277.265083 1138.38438,212.985084 1138.11505,212.799751" id="path270" fill="#0B121F"></path>
                <path d="M1214.61078,227.90255 C1219.70412,245.411883 1207.43078,256.273216 1191.98678,245.289217 C1170.01878,229.667884 1150.48412,172.223885 1157.79745,166.471885 C1164.30145,161.631885 1206.88945,201.347884 1214.61078,227.90255 M1170.22278,332.067881 C1161.69212,296.051882 1107.44412,240.089217 1098.42279,246.12255 C1088.26012,253.313217 1110.49612,331.421215 1138.80545,353.783881 C1158.71078,369.509214 1175.84812,355.817214 1170.22278,332.067881" id="path274" fill="#FFDD3B"></path>
                <path d="M374.383337,132.702553 C419.347336,96.1265538 376.332671,79.7038875 337.386005,77.4772209 C308.519339,75.825221 253.00334,76.7945543 206.620675,87.3492207 C124.696677,105.994554 89.2606777,292.614549 126.316677,342.813214 C223.596674,474.574544 337.991338,368.066547 406.554003,271.826549 C430.538003,238.159884 453.032669,188.614551 385.423337,215.025217 C401.738003,200.387885 413.54867,183.329218 421.028669,169.703885 C442.482002,130.64122 408.446003,128.66522 374.383337,132.702553" id="path278" fill="#FF8D1E"></path>
                <path d="M323.471739,258.997083 C338.934405,248.64775 356.775738,235.561084 373.317071,220.691751 C386.14507,209.159751 398.151737,196.590418 407.578403,183.461085 C408.907736,181.614418 411.48507,181.195752 413.33307,182.525085 C415.179736,183.855752 415.598403,186.431752 414.270403,188.279751 C404.434403,201.978418 392.035737,214.977084 378.846404,226.831751 C362.025071,241.95575 343.838405,255.29175 328.062405,265.85175 C326.170405,267.118416 323.606405,266.613083 322.341072,264.71975 C321.073072,262.829083 321.578405,260.265083 323.471739,258.997083 M287.231739,281.299749 C287.243739,281.294416 291.861073,278.967749 306.198406,270.109083 C308.135739,268.913083 310.678406,269.514416 311.873072,271.450416 C313.069072,273.387749 312.466405,275.929083 310.529072,277.125083 C295.921073,286.146416 290.931739,288.665082 290.918406,288.670416 C288.883739,289.689082 286.409073,288.863749 285.391739,286.829082 C284.37174,284.794416 285.197073,282.318416 287.231739,281.299749 M260.085073,181.798418 C276.929073,176.623752 299.909072,167.589085 322.138405,157.083752 C341.222405,148.062419 359.698404,137.981086 373.159737,128.379753 C375.014404,127.05842 377.593071,127.49442 378.914404,129.35042 C380.235737,131.20642 379.798404,133.785086 377.942404,135.106419 C364.049071,145.017086 345.133071,155.347752 325.662405,164.551752 C303.106406,175.213085 279.714406,184.403752 262.510407,189.689085 C260.33174,190.357085 258.022407,189.134418 257.353074,186.955752 C256.68374,184.778418 257.90774,182.467752 260.085073,181.798418 M12.3357463,98.773087 C13.5437463,93.7704205 5.81707981,91.2704206 4.48507984,96.7810871 C-12.1682531,165.301085 20.4970794,209.665084 54.1197453,254.96375 C58.1144118,260.34375 62.1184117,265.73975 65.8490783,270.910416 L67.5944116,273.330416 C83.0917445,294.807749 99.5797441,317.666415 119.087744,342.181081 C135.279743,362.53308 151.797076,377.55708 168.417076,387.998413 C196.058408,405.362413 223.909074,410.057079 251.018407,405.515746 C277.906406,401.010413 303.947739,387.402413 328.235738,368.07708 C360.986404,342.019748 390.62507,305.497082 414.84507,266.941083 C416.058403,265.014416 415.479568,262.465083 413.551736,261.25175 C411.62507,260.038416 409.075736,260.617083 407.863736,262.545083 C384.098404,300.374415 355.075738,336.163748 323.093072,361.611747 C299.845072,380.110413 275.058406,393.111746 249.661074,397.36908 C224.483741,401.586413 198.577075,397.202413 172.814409,381.015747 C156.974409,371.06508 141.15441,356.650414 125.551743,337.039748 C105.966411,312.423748 89.634411,289.785082 74.2877448,268.514416 L72.5410781,266.093083 C68.5210782,260.52375 64.627745,255.27575 60.7464118,250.04775 C28.2877459,206.317084 -3.40558663,163.537085 12.3357463,98.773087" id="path282" fill="#0B121F"></path>
                <path d="M256.57054,223.291484 C237.566541,244.596817 247.583874,268.220816 276.813206,263.116816 C318.386539,255.85815 384.726537,187.866151 378.27187,174.810152 C372.345204,163.584819 285.389206,190.980818 256.57054,223.291484 M293.047873,311.364815 C309.421206,293.255482 341.027871,275.223483 361.553204,268.251483 C377.798537,262.73415 386.99587,262.98215 376.910537,281.787482 C366.637204,300.946149 339.767871,331.983481 316.629205,343.908814 C286.574539,359.404814 270.179873,336.636814 293.047873,311.364815" id="path286" fill="#FFB423"></path>
            </g>
        </g>
    </g>
</svg>