<?xml version="1.0" standalone="no"?>
<!DOCTYPE svg PUBLIC "-//W3C//DTD SVG 20010904//EN"
 "http://www.w3.org/TR/2001/REC-SVG-20010904/DTD/svg10.dtd">
<svg version="1.0" xmlns="http://www.w3.org/2000/svg"
 width="512.000000pt" height="512.000000pt" viewBox="0 0 512.000000 512.000000"
 preserveAspectRatio="xMidYMid meet">
<metadata>
Created by potrace 1.11, written by Peter Selinger 2001-2013
</metadata>
<g transform="translate(0.000000,512.000000) scale(0.100000,-0.100000)"
fill="#000000" stroke="none">
<path d="M2389 5046 c-2 -2 -29 -7 -59 -11 -328 -39 -696 -200 -960 -420 -238
-198 -399 -415 -540 -730 -39 -86 -100 -295 -115 -395 -4 -25 -9 -54 -11 -65
-16 -81 -22 -287 -11 -385 43 -375 323 -924 795 -1559 128 -173 338 -437 457
-576 182 -213 192 -224 273 -314 89 -98 91 -101 50 -102 -18 0 -40 -2 -48 -3
-8 -2 -44 -6 -80 -10 -78 -8 -113 -13 -245 -40 -147 -31 -265 -97 -265 -151 0
-66 153 -137 365 -169 11 -2 36 -6 55 -10 142 -24 254 -31 525 -31 234 0 311
3 470 20 87 9 239 41 318 66 78 24 134 56 161 92 20 27 20 28 2 61 -37 68
-221 130 -486 162 -81 9 -105 12 -137 13 -18 0 -33 5 -33 9 0 4 15 23 33 42
31 34 147 164 199 225 111 129 169 197 203 240 22 28 43 52 46 55 11 10 198
249 290 370 303 401 570 834 691 1125 68 163 107 283 134 419 14 73 19 242 9
346 -55 582 -352 1085 -830 1408 -237 159 -463 247 -795 308 -39 7 -455 16
-461 10z m356 -491 c172 -18 389 -91 550 -186 291 -171 527 -463 618 -765 43
-139 48 -164 61 -267 30 -249 -9 -514 -105 -724 -17 -37 -35 -77 -40 -88 -10
-22 -15 -30 -73 -120 -139 -212 -327 -377 -561 -491 -197 -96 -358 -134 -580
-139 -77 -2 -167 1 -200 6 -33 5 -73 11 -90 14 -52 8 -189 46 -219 61 -16 8
-34 14 -40 14 -21 0 -209 101 -285 153 -111 75 -285 253 -360 367 -93 142
-176 329 -196 441 -3 18 -8 36 -11 40 -24 39 -38 389 -20 489 37 197 74 309
147 449 193 369 533 631 938 721 49 11 120 23 158 26 37 4 69 7 70 8 5 4 176
-3 238 -9z"/>
<path d="M2469 4299 c-514 -52 -933 -446 -1013 -953 -17 -112 -13 -306 9 -410
72 -342 296 -631 610 -789 75 -37 202 -83 257 -92 18 -3 58 -10 89 -16 32 -5
101 -10 155 -10 390 -1 747 188 961 509 63 96 134 253 149 332 3 14 9 41 14
61 17 61 24 149 23 259 -3 293 -120 568 -333 780 -242 243 -581 363 -921 329z
m206 -273 c206 -21 406 -121 546 -274 53 -58 131 -171 148 -214 5 -12 15 -36
22 -53 52 -126 73 -318 49 -455 -13 -75 -16 -88 -35 -145 -98 -286 -364 -515
-661 -569 -110 -20 -288 -13 -382 14 -380 108 -638 435 -646 820 -2 97 18 222
50 310 17 46 92 191 104 200 3 3 14 16 23 30 9 14 45 53 80 88 140 142 337
234 532 249 44 3 81 7 83 8 2 2 11 1 20 -1 9 -2 40 -5 67 -8z"/>
<path d="M2384 3816 c-226 -71 -403 -263 -458 -496 -21 -90 -15 -254 13 -340
78 -242 292 -430 531 -467 85 -14 261 -4 298 16 10 5 19 9 22 9 8 1 63 22 90
34 63 31 133 81 185 135 316 324 226 861 -178 1065 -39 20 -86 39 -103 43 -31
6 -31 6 -36 -43 -6 -58 -29 -93 -81 -123 -47 -26 -124 -23 -165 8 -43 31 -73
92 -69 136 3 20 2 37 -2 36 -3 0 -25 -6 -47 -13z m59 -282 c109 -77 121 -222
26 -314 -77 -75 -194 -79 -273 -9 -88 76 -95 203 -17 290 68 75 183 90 264 33z"/>
</g>
</svg>
