<?xml version="1.0" encoding="UTF-8"?>
<svg width="1200pt" height="1200pt" version="1.1" viewBox="0 0 1200 1200" xmlns="http://www.w3.org/2000/svg">
    <g>
        <path fill="currentColor" d="m492.45 259.91c-0.61328 0.003907-1.2188 0.10156-1.8008 0.29688l-42.301 14.141-26.688-4.6484c-2-0.35156-4.0352 0.39062-5.3438 1.9453l-10.184 12.105-22.598 15.969c-0.26953 0.18359-0.51953 0.39453-0.75391 0.62109l-5.8594 5.8594c-0.5 0.50781-0.89844 1.1016-1.1797 1.7578l-6.1406 14.004-24.707 16.43c-0.36328 0.24219-0.69531 0.52344-0.99219 0.83984l-14.598 15.559c-0.019531 0.023437-0.039062 0.050781-0.058593 0.074219l-9.6797 10.656c-0.18359 0.19922-0.35156 0.41016-0.50391 0.63672l-20.34 30.02c-0.57422 0.85156-0.91406 1.8398-0.97266 2.8633l-0.91406 15.602-1.582 4.0586c-0.37891 0.96094-0.49219 2.0078-0.32422 3.0273l0.84375 5.0039-1.5977 16.883-9.4453 6.2891c-1.4688 0.97656-2.3984 2.582-2.5234 4.3398l-0.96094 13.52c-0.015626 0.26172-0.015626 0.52344 0 0.78125l0.96094 14.586c0.058594 0.88281 0.32031 1.7422 0.76562 2.5078l9.6992 16.516c0.24609 0.42188 0.54297 0.80859 0.88672 1.1523l13.355 13.254 1.582 7.9844c0.097656 0.50781 0.26953 1 0.5 1.4609l5.8594 11.602c0.35156 0.70312 0.84375 1.3281 1.4492 1.832l38.773 32.059c1.8711 1.543 4.5117 1.7305 6.582 0.47266l16.102-9.8164h18.969l13.758 3.6445c1.1562 0.30078 2.3828 0.23047 3.4961-0.20312l49.062-18.836 8.3398 1.2695 7.3633 13.137c0.42188 0.73828 1 1.375 1.6992 1.8594l6.8047 4.7969c1.0586 0.74219 2.3398 1.1016 3.6289 1.0195l26.48-1.625 2.2578 7.4102-0.89844 18.141-1.668 11.703-6.7891 8.4727c-1.7227 2.1367-1.6797 5.1914 0.10156 7.2773l28.516 33.301 16.887 39.332 0.8125 4.0625 2.7891 19.777v9.1953l-10.23 11.926c-0.54688 0.64062-0.94531 1.3984-1.1641 2.2148l-4.7969 17.461c-0.22266 0.80859-0.26172 1.6523-0.11719 2.4805l3.8359 22.242c0.09375 0.57031 0.27344 1.1211 0.53125 1.6367l22.91 44.77 4.6641 29.137c0.089844 0.58984 0.27344 1.1641 0.54297 1.6953l25.891 50.73 1.6523 6.6875 0.92969 12.191c0.14453 1.9336 1.2617 3.6641 2.9688 4.5898l10.641 5.7422c1.5703 0.85156 3.4492 0.91797 5.0781 0.17578l19.777-9.0039 18.805 2.6445c0.69922 0.097656 1.4102 0.070312 2.0977-0.089844l16.398-3.8359c0.77344-0.18359 1.5039-0.52344 2.1406-1.0039l39.719-30.039c0.26953-0.20313 0.51953-0.42969 0.75-0.67969l10.656-11.613c0.61719-0.66797 1.0625-1.4727 1.3008-2.3477l5.8594-21.285c0.30078-1.1016 0.26562-2.2695-0.10156-3.3516l26.285-13.547c1.8945-0.98047 3.0859-2.9336 3.0859-5.0625v-21.301c0-0.57031-0.082031-1.1367-0.25-1.6836l-3.6602-11.793 1.5352-1.2539 7.4375-4.5898c0.44922-0.27734 0.85547-0.61328 1.2109-1.0039l10.848-11.836 26.109-12.09c1.1719-0.53906 2.125-1.4609 2.7031-2.6133l7.7773-15.555c0.51172-1.0352 0.69531-2.1953 0.53125-3.3359l-1.6211-11.559 1.8594-3.1875c0.51562-0.87109 0.78906-1.8672 0.79688-2.8789v-15.379l2.5078-6.8203c1.0938-2.9492-0.41406-6.2266-3.3633-7.3203l-4.2227-1.5508-0.73828-17.402 2.5547-6.6719c0.63672-1.6602 0.46094-3.5195-0.47266-5.0312l-6.1719-9.9648 10.91-23.555 49.754-53.535c0.26172-0.28516 0.49609-0.59766 0.69531-0.92969l41.742-68.902c0.69141-1.1445 0.95703-2.5 0.75-3.8203l-3.9414-25.137c-0.26562-1.707-1.2969-3.2031-2.7969-4.0586-1.5039-0.85938-3.3125-0.98828-4.9219-0.35547l-9.4883 3.75-27.262 8.4727-12.059 0.79688-6.793-3.9844c1.8438-2.1094 1.8828-5.2461 0.089844-7.3984l-20.34-24.277c-0.52734-0.63672-1.1875-1.1523-1.9336-1.5078l-14.922-7.0234-15.617-26.496c-0.55078-0.93359-1.3594-1.6914-2.332-2.1836l-8.75-4.4141-1.668-22.02c-0.10938-1.4414-0.75781-2.7852-1.8164-3.7656l-11.691-10.789-6.332-14.465c-0.17578-0.39844-0.39844-0.77344-0.66406-1.1211l-27.883-37.387-12.398-22.055c-1.3008-2.3164-4.0312-3.4258-6.582-2.6719l-8.4258 2.5117-51.426-8.3125-15.895-6.5664c-1.5312-0.63281-3.2617-0.56641-4.7383 0.17578l-15.441 7.7812c-1.3281 0.66406-2.3477 1.8242-2.832 3.2305l-2.3906 7.0117-3.1172 2.2305-21.047-4.8867-12.34-13.211c-1.1953-1.2812-2.918-1.9414-4.6641-1.7852l-9.2539 0.82422-16.621-7.6289 3.4414-7.3672c0.85156-1.8281 0.67188-3.9727-0.47266-5.6367l-8.7383-12.664c-1.0586-1.5547-2.8125-2.4883-4.6953-2.4961z"/>
        <path fill="currentColor" d="m893.71 713.17-6.8633 13.754-2.332 8.7266-5.3555-2.2305-5.332 14.953-2.418 2.0508-2.8945 2.8789-3.3789 1.6367-1.1953 1.7422h-0.29688l-18.094 6.4219-7.5273 14.922 0.51562 24.117-7.6328 7.1602-6.4336 12.867 1.1367 27.531 13.711 10.051 21.52-6.9375 1.0625-2.0977 29.773-57.695 3.3047-11.793 4.2227-6.1406 0.64844-5.6523 5.3281-6.5547-0.48828-27.543z"/>
    </g>
</svg>
