<?xml version="1.0" encoding="UTF-8"?>
<svg width="1200pt" height="1200pt" version="1.1" viewBox="0 0 1200 1200" xmlns="http://www.w3.org/2000/svg">
    <g>
        <path fill="currentColor" d="m826.51 856.92c0.71484-0.28906 1.8906-0.28906 2.6055 0 0.71484 0.28906 0.12891 0.52734-1.3047 0.52734s-2.0195-0.23828-1.3047-0.52734zm-65.664-8.3867c1.2969-0.25 3.1719-0.23828 4.1719 0.019532 0.99609 0.26172-0.0625 0.46484-2.3594 0.45312-2.293-0.011718-3.1094-0.22656-1.8125-0.47266zm-77.027-44.871c-1.2969-1.6523-1.2617-1.6914 0.39453-0.39453 1.7383 1.3633 2.2891 2.2188 1.4297 2.2188-0.21484 0-1.0391-0.82031-1.8242-1.8242zm127.12-2.0156c0.75391-0.30078 1.6523-0.26563 2 0.082031 0.34766 0.34766-0.26953 0.59375-1.3672 0.54688-1.2148-0.050782-1.4609-0.29688-0.62891-0.62891zm-103.01-4.5c-0.94141-0.60547-1.0664-1.0156-0.32031-1.0273 0.68359-0.007813 1.5312 0.45312 1.8867 1.0273 0.80078 1.293 0.4375 1.293-1.5625 0zm82.355-51.477c0-0.21484 0.82031-1.0391 1.8242-1.8242 1.6523-1.2969 1.6914-1.2617 0.39453 0.39453-1.3633 1.7383-2.2188 2.2891-2.2188 1.4297zm-114.51-5.8594c0-1.4336 0.23828-2.0195 0.52734-1.3047 0.28906 0.71484 0.28906 1.8906 0 2.6055-0.28906 0.71484-0.52734 0.12891-0.52734-1.3047zm0.42187-9.0781c-0.56641-1.4844-0.44531-1.6055 0.58203-0.58203 0.71094 0.70703 1.0312 1.5469 0.71094 1.8711-0.32031 0.32031-0.90234-0.25781-1.2969-1.2852zm-106.84-0.91406c0.050781-1.2148 0.29688-1.4609 0.62891-0.62891 0.30078 0.75391 0.26562 1.6523-0.082031 2s-0.59375-0.26953-0.54688-1.3672zm118.84-11.469c0.050781-1.2148 0.29688-1.4609 0.62891-0.62891 0.30078 0.75391 0.26562 1.6523-0.082031 2s-0.59375-0.26953-0.54688-1.3672zm-31.355-17.508c0-0.21484 0.82031-1.0391 1.8242-1.8242 1.6523-1.2969 1.6914-1.2617 0.39453 0.39453-1.3633 1.7383-2.2188 2.2891-2.2188 1.4297zm-305.85-8.1367c0.30078-0.48828 0.98438-0.61719 1.5195-0.28516 1.3633 0.84375 1.2109 1.1719-0.54688 1.1719-0.83594 0-1.2734-0.39844-0.96875-0.88672zm297.68-0.85156c0-1.4336 0.23828-2.0195 0.52734-1.3047 0.28906 0.71484 0.28906 1.8906 0 2.6055-0.28906 0.71484-0.52734 0.12891-0.52734-1.3047zm-65.84-0.39453c0-0.21484 0.82031-1.0391 1.8242-1.8242 1.6523-1.2969 1.6914-1.2617 0.39453 0.39453-1.3633 1.7383-2.2188 2.2891-2.2188 1.4297zm5.2109-5.2109c0-0.21484 0.82031-1.0391 1.8242-1.8242 1.6523-1.2969 1.6914-1.2617 0.39453 0.39453-1.3633 1.7383-2.2188 2.2891-2.2188 1.4297zm215.6-3.4453c0.75391-0.30078 1.6523-0.26563 2 0.082031 0.34766 0.34766-0.26953 0.59375-1.3672 0.54688-1.2148-0.050782-1.4609-0.29688-0.62891-0.62891zm-301.28-26.062c0.75391-0.30078 1.6523-0.26563 2 0.082031 0.34766 0.34766-0.26953 0.59375-1.3672 0.54688-1.2148-0.050782-1.4609-0.29688-0.62891-0.62891zm281.1-21.25c-0.37891-0.61328-0.46484-1.3359-0.19141-1.6094 0.27344-0.27344 0.77344 0.22656 1.1133 1.1133 0.70312 1.8359 0.10547 2.1602-0.92578 0.49609zm-387.24-0.85156c0-0.9375 3.1328-2.5469 3.75-1.9297 0.17969 0.17969-0.59375 0.89844-1.7148 1.5977-1.1211 0.69922-2.0391 0.84766-2.0391 0.33203zm435.76-51.203c-0.94141-0.60547-1.0664-1.0156-0.32031-1.0273 0.68359-0.007812 1.5312 0.45312 1.8867 1.0273 0.80078 1.293 0.4375 1.293-1.5625 0zm4.9531-12.156c0.71484-0.28906 1.8906-0.28906 2.6055 0 0.71484 0.28906 0.12891 0.52734-1.3047 0.52734s-2.0195-0.23828-1.3047-0.52734zm-442.99-7.3203c0.75391-0.30078 1.6523-0.26563 2 0.082031 0.34766 0.34766-0.26953 0.59375-1.3672 0.54688-1.2148-0.050782-1.4609-0.29688-0.62891-0.62891zm-134.29-1.3125c0-0.53906 0.46484-1.2695 1.0312-1.6172 0.58984-0.36328 0.76562 0.054688 0.41016 0.98047-0.69141 1.8047-1.4414 2.1367-1.4414 0.63672zm547.3-6.8359c-2.5312-2.582-4.3711-4.6914-4.082-4.6914 0.28516 0 2.5938 2.1094 5.125 4.6914s4.3711 4.6914 4.082 4.6914c-0.28516 0-2.5938-2.1094-5.125-4.6914zm-43.98 0.85156c0.75391-0.30078 1.6523-0.26562 2 0.082032 0.34766 0.34766-0.26953 0.59375-1.3672 0.54688-1.2148-0.050781-1.4609-0.29688-0.62891-0.62891zm3.3242-6.9805c0-0.21484 0.82031-1.0391 1.8242-1.8242 1.6523-1.2969 1.6914-1.2617 0.39453 0.39453-1.3633 1.7383-2.2188 2.2891-2.2188 1.4297zm-368.56-1.7578c-1.0703-1.7305-0.10938-1.9727 1.3867-0.34766 0.73828 0.80078 0.88281 1.457 0.32031 1.457s-1.332-0.5-1.7109-1.1133zm-17.156-5.5547c0-0.22656 0.72656-0.6875 1.6172-1.0312 0.92578-0.35547 1.3477-0.17969 0.98047 0.41016-0.61328 0.99219-2.5977 1.4648-2.5977 0.62109zm15.359-11.188c0.70703-0.71094 1.5469-1.0312 1.8711-0.71094 0.32031 0.32031-0.25781 0.90234-1.2852 1.2969-1.4844 0.56641-1.6055 0.44531-0.58203-0.58203zm452.8-3.6055c0.050781-1.2148 0.29688-1.4609 0.62891-0.62891 0.30078 0.75391 0.26562 1.6523-0.082031 2-0.34766 0.34766-0.59375-0.26953-0.54688-1.3672zm-3.3438-24.152c-1.2969-1.6523-1.2617-1.6914 0.39453-0.39453 1.7383 1.3633 2.2891 2.2188 1.4297 2.2188-0.21484 0-1.0391-0.82031-1.8242-1.8242zm-6.707-26.582-3.0625-3.3867 3.3867 3.0625c1.8633 1.6836 3.3867 3.207 3.3867 3.3867 0 0.80469-0.85938 0.097656-3.7148-3.0625zm-17.27-0.51953c-1.2969-1.6523-1.2617-1.6914 0.39453-0.39453 1.7383 1.3633 2.2891 2.2188 1.4297 2.2188-0.21484 0-1.0391-0.82031-1.8242-1.8242zm2.0859-5.2109c-1.2969-1.6523-1.2617-1.6914 0.39453-0.39453 1.7383 1.3633 2.2891 2.2188 1.4297 2.2188-0.21484 0-1.0391-0.82031-1.8242-1.8242zm68.352-3.6484-3.0625-3.3867 3.3867 3.0625c1.8633 1.6836 3.3867 3.207 3.3867 3.3867 0 0.80469-0.85938 0.097656-3.7148-3.0625zm9.0078-0.34766c0.050781-1.2148 0.29688-1.4609 0.62891-0.62891 0.30078 0.75391 0.26562 1.6523-0.082031 2-0.34766 0.34766-0.59375-0.26953-0.54688-1.3672zm-88.695-7.793c0-0.60547 0.46875-0.8125 1.043-0.46094 0.57422 0.35547 1.043 0.85156 1.043 1.1055s-0.46875 0.46094-1.043 0.46094-1.043-0.49609-1.043-1.1055zm3.0469-5.9336-2.5273-2.8672 2.8672 2.5273c1.5781 1.3906 2.8672 2.6797 2.8672 2.8672 0 0.81641-0.84375 0.15234-3.207-2.5273zm56.797-3.6484-1.9844-2.3438 2.3438 1.9844c2.2031 1.8672 2.8203 2.707 1.9844 2.707-0.19922 0-1.2539-1.0547-2.3438-2.3438zm-88.504 0.24609c0.62109-1.0039 0.37891-1.1992-0.88281-0.71484-0.95312 0.36719-1.7344 0.21094-1.7344-0.34375 0-1.2891 2.8125-1.3203 3.6055-0.039063 0.32812 0.53516 0.050782 1.3086-0.62109 1.7266-0.81641 0.50391-0.9375 0.30078-0.36719-0.625zm-2.0273-19.055c0.39062-1.0273 0.97266-1.6055 1.2969-1.2852 0.32031 0.32031 0 1.1641-0.71094 1.8711-1.0312 1.0234-1.1484 0.90234-0.58203-0.58203zm83.934-14.898c0.050781-1.2148 0.29688-1.4609 0.62891-0.62891 0.30078 0.75391 0.26562 1.6523-0.082031 2s-0.59375-0.26953-0.54688-1.3672zm1.3828-7.9922-1.9844-2.3438 2.3438 1.9844c1.2891 1.0938 2.3438 2.1484 2.3438 2.3438 0 0.83594-0.83984 0.21875-2.707-1.9844zm-25.637-1.4922c0.75391-0.30078 1.6523-0.26562 2 0.082031 0.34766 0.34766-0.26953 0.59375-1.3672 0.54688-1.2148-0.050782-1.4609-0.29688-0.62891-0.62891zm4.1055 0.023438c0.71484-0.28906 1.8906-0.28906 2.6055 0 0.71484 0.28906 0.12891 0.52734-1.3047 0.52734-1.4336 0-2.0195-0.23828-1.3047-0.52734zm-404.12-36.113c-1.3203-2.1953-1.2969-2.2188 0.5-0.5 1.0352 0.98828 1.6562 2.0234 1.3789 2.2969-0.27344 0.27344-1.1211-0.53516-1.8789-1.8008zm10.32-3.3398c-1.4336-0.82031-2.1094-1.5078-1.5039-1.5273 0.60547-0.019531 2.0156 0.65234 3.1289 1.4922 2.5742 1.9453 1.75 1.9648-1.625 0.03125zm-14.855-2.2539c0.71484-0.28906 1.8906-0.28906 2.6055 0 0.71484 0.28906 0.12891 0.52734-1.3047 0.52734s-2.0195-0.23828-1.3047-0.52734zm403.19-0.36719c0.35938-0.58203 1.0898-0.78906 1.625-0.46094 1.4453 0.89453 1.1758 1.5195-0.65625 1.5195-0.89453 0-1.332-0.47656-0.96875-1.0586zm-41.449-3.8477c1.2891-0.25 3.4023-0.25 4.6914 0 1.2891 0.25 0.23437 0.45312-2.3438 0.45312-2.582 0-3.6367-0.20312-2.3438-0.45312zm12.512 0c1.2891-0.25 3.4023-0.25 4.6914 0 1.2891 0.25 0.23438 0.45312-2.3438 0.45312-2.582 0-3.6367-0.20312-2.3438-0.45312zm-55.758-7.3086c1.5859-0.23828 3.9297-0.23438 5.2109 0.015625 1.2812 0.24609-0.015625 0.44531-2.8828 0.4375-2.8672-0.007813-3.9141-0.21094-2.332-0.44922zm-320.02-3.2148c-0.89453-0.57031-0.59375-1.2188 1.043-2.2383 2.0273-1.2617 2.1484-1.2461 1.0117 0.13281-0.71094 0.86328-0.98438 1.875-0.60938 2.2539 0.92578 0.92578 0.11328 0.83984-1.4453-0.14844zm251.79-8.2188c0.75391-0.30078 1.6523-0.26562 2 0.082032 0.34766 0.34766-0.26953 0.59375-1.3672 0.54687-1.2148-0.050781-1.4609-0.29687-0.62891-0.62891zm-227.34-4.6289c0.70703-0.71094 1.5469-1.0312 1.8711-0.71094 0.32031 0.32031-0.25781 0.90234-1.2852 1.2969-1.4844 0.56641-1.6055 0.44531-0.58203-0.58203z"/>
        <path fill="currentColor" d="m765.07 853.77c0.75391-0.30078 1.6523-0.26563 2 0.082031 0.34766 0.34766-0.26953 0.59375-1.3672 0.54688-1.2148-0.050782-1.4609-0.29688-0.62891-0.62891zm39.973-18.051c0-1.4336 0.23828-2.0195 0.52734-1.3047 0.28906 0.71484 0.28906 1.8906 0 2.6055-0.28906 0.71484-0.52734 0.12891-0.52734-1.3047zm-4.25-29.801c0.050782-1.2148 0.29688-1.4609 0.62891-0.62891 0.30078 0.75391 0.26562 1.6523-0.082031 2-0.34766 0.34766-0.59375-0.26953-0.54688-1.3672zm13.273-4.2734c0.75391-0.30078 1.6523-0.26563 2 0.082031 0.34766 0.34766-0.26953 0.59375-1.3672 0.54688-1.2148-0.050782-1.4609-0.29688-0.62891-0.62891zm-19.691-7.3672-2.5273-2.8672 2.8672 2.5273c1.5781 1.3906 2.8672 2.6797 2.8672 2.8672 0 0.81641-0.84375 0.15234-3.207-2.5273zm-92.836-29.191c-1.2969-1.6523-1.2617-1.6914 0.39453-0.39453 1.0039 0.78516 1.8242 1.6094 1.8242 1.8242 0 0.85938-0.85547 0.30469-2.2188-1.4297zm125.23-25.219c0-0.53906 0.46484-1.2695 1.0312-1.6172 0.58984-0.36328 0.76562 0.054688 0.41016 0.98047-0.69141 1.8047-1.4414 2.1367-1.4414 0.63672zm-2.2188-14.395c-1.2969-1.6523-1.2617-1.6914 0.39453-0.39453 1.7383 1.3633 2.2891 2.2188 1.4297 2.2188-0.21484 0-1.0391-0.82031-1.8242-1.8242zm-255.19-20.676c0.050781-1.2148 0.29688-1.4609 0.62891-0.62891 0.30078 0.75391 0.26562 1.6523-0.082031 2s-0.59375-0.26953-0.54688-1.3672zm-269.18-83.574c-1.2969-1.6523-1.2617-1.6914 0.39453-0.39453 1.0039 0.78516 1.8242 1.6094 1.8242 1.8242 0 0.85938-0.85547 0.30469-2.2188-1.4297zm490.27-13.812c0-1.4336 0.23828-2.0195 0.52734-1.3047 0.28906 0.71484 0.28906 1.8906 0 2.6055-0.28906 0.71484-0.52734 0.12891-0.52734-1.3047zm-26.793-31.344c-0.37891-0.61328-0.46484-1.3359-0.19141-1.6094 0.27344-0.27344 0.77344 0.22656 1.1133 1.1133 0.70312 1.8359 0.10547 2.1602-0.92578 0.49609zm-462.82-5.1445c-0.35547-0.57422-0.14844-1.043 0.46094-1.043 0.60547 0 1.1055 0.46875 1.1055 1.043s-0.20703 1.043-0.46094 1.043-0.75-0.46875-1.1055-1.043zm549.91-10.363c0-0.53906 0.46484-1.2695 1.0312-1.6172 0.58984-0.36328 0.76562 0.054688 0.41016 0.98047-0.69141 1.8047-1.4414 2.1367-1.4414 0.63672zm5.7773-26.051c-0.32813-0.53516-0.20313-1.2148 0.28516-1.5195 0.48828-0.30078 0.88672 0.13672 0.88672 0.96875 0 1.7578-0.32812 1.9102-1.1719 0.54687zm-214.69-70.785c-0.29688-0.47656 0.125-0.86719 0.93359-0.86719 0.80859 0 1.2305 0.39062 0.93359 0.86719-0.29688 0.47656-0.71484 0.86719-0.93359 0.86719s-0.64062-0.39062-0.93359-0.86719zm226.01-18.156-1.9844-2.3438 2.3438 1.9844c2.2031 1.8672 2.8203 2.707 1.9844 2.707-0.19922 0-1.2539-1.0547-2.3438-2.3438zm-46.488-25.473c0.75391-0.30078 1.6523-0.26562 2 0.082032 0.34766 0.34766-0.26953 0.59375-1.3672 0.54687-1.2148-0.050781-1.4609-0.29687-0.62891-0.62891zm-15.703-59.398c0.71484-0.28906 1.8906-0.28906 2.6055 0 0.71484 0.28906 0.12891 0.52734-1.3047 0.52734-1.4336 0-2.0195-0.23828-1.3047-0.52734zm23.727-0.36719c0.35938-0.58203 1.0898-0.78906 1.625-0.46094 1.4453 0.89453 1.1758 1.5195-0.65625 1.5195-0.89453 0-1.332-0.47656-0.96875-1.0586zm-397.63-2.6797c0.050781-1.2148 0.29688-1.4609 0.62891-0.62891 0.30078 0.75391 0.26562 1.6523-0.082031 2-0.34766 0.34766-0.59375-0.26953-0.54688-1.3672zm331.17-4.2539c0.71484-0.28906 1.8906-0.28906 2.6055 0 0.71484 0.28906 0.12891 0.52734-1.3047 0.52734s-2.0195-0.23828-1.3047-0.52734zm-162.5-12.598c-1.3242-1.6875-1.2734-1.7109 0.65234-0.29688 1.1484 0.83984 2.2812 1.6641 2.5195 1.8242 0.23828 0.16406-0.054688 0.29688-0.65234 0.29688s-1.7344-0.82031-2.5195-1.8242zm82.293-2.0156c0.75391-0.30078 1.6523-0.26562 2 0.082032 0.34766 0.34766-0.26953 0.59375-1.3672 0.54687-1.2148-0.050781-1.4609-0.29687-0.62891-0.62891zm-141.3-14.605c1.0156-0.26563 2.4219-0.24609 3.1289 0.039062 0.70703 0.28516-0.125 0.5-1.8438 0.48047s-2.2969-0.25391-1.2852-0.51953z"/>
        <path fill="currentColor" d="m808.85 862.11c0.75391-0.30078 1.6523-0.26562 2 0.082031 0.34766 0.34766-0.26953 0.59375-1.3672 0.54688-1.2148-0.050782-1.4609-0.29688-0.62891-0.62891zm-3.8086-30.562c0-1.4336 0.23828-2.0195 0.52734-1.3047 0.28906 0.71484 0.28906 1.8906 0 2.6055-0.28906 0.71484-0.52734 0.12891-0.52734-1.3047zm-15.719-27.715c0.050781-1.2148 0.29688-1.4609 0.62891-0.62891 0.30078 0.75391 0.26562 1.6523-0.082031 2-0.34766 0.34766-0.59375-0.26953-0.54688-1.3672zm-124.22-26.234-2.5273-2.8672 2.8672 2.5273c2.6797 2.3633 3.3438 3.207 2.5273 3.207-0.1875 0-1.4766-1.2891-2.8672-2.8672zm3.0117-8.2695c0.75391-0.30078 1.6523-0.26562 2 0.082031 0.34766 0.34766-0.26953 0.59375-1.3672 0.54688-1.2148-0.050782-1.4609-0.29688-0.62891-0.62891zm164.49-0.15625c-0.29688-0.47656 0.125-0.86719 0.93359-0.86719 0.80859 0 1.2305 0.39062 0.93359 0.86719-0.29687 0.47656-0.71484 0.86719-0.93359 0.86719s-0.64062-0.39062-0.93359-0.86719zm-19.957-10.668c-0.37891-0.61328-0.46484-1.3359-0.19141-1.6094 0.27344-0.27344 0.77344 0.22656 1.1133 1.1133 0.70312 1.8359 0.10547 2.1602-0.92578 0.49609zm6.9062-2.3125c0.23828-0.16406 1.3711-0.98437 2.5195-1.8242 1.9297-1.4141 1.9766-1.3906 0.65234 0.29688-0.78516 1.0039-1.9219 1.8242-2.5195 1.8242-0.59766 0-0.89453-0.13281-0.65234-0.29688zm-315.54-93.789-1.9844-2.3438 2.3438 1.9844c2.2031 1.8672 2.8203 2.707 1.9844 2.707-0.19922 0-1.2539-1.0547-2.3438-2.3438zm-85.906-19.941c0-0.21484 0.82031-1.0391 1.8242-1.8242 1.6523-1.2969 1.6914-1.2617 0.39453 0.39453-1.3633 1.7383-2.2188 2.2891-2.2188 1.4297zm40.395-2.3828c0.71484-0.28906 1.8906-0.28906 2.6055 0 0.71484 0.28906 0.12891 0.52734-1.3047 0.52734s-2.0195-0.23828-1.3047-0.52734zm-64.289-101.04c0.050781-1.2148 0.29688-1.4609 0.62891-0.62891 0.30078 0.75391 0.26562 1.6523-0.082031 2-0.34766 0.34766-0.59375-0.26953-0.54688-1.3672zm504.2-88.133c0.70703-0.71094 1.5469-1.0312 1.8711-0.71094 0.32031 0.32031-0.25781 0.90234-1.2852 1.2969-1.4844 0.56641-1.6055 0.44531-0.58203-0.58203zm-38.77-19.605c-0.32812-0.53516-0.20312-1.2148 0.28516-1.5195 0.48828-0.30078 0.88672 0.13672 0.88672 0.96875 0 1.7578-0.32812 1.9102-1.1719 0.54688zm-53.457-10.203c1.5859-0.23828 3.9297-0.23438 5.2109 0.015625 1.2812 0.24609-0.015625 0.44531-2.8828 0.4375-2.8672-0.007813-3.9141-0.21094-2.332-0.44922zm-38.066-67.75c1.2891-0.25 3.4023-0.25 4.6914 0 1.2891 0.25 0.23438 0.45312-2.3438 0.45312-2.582 0-3.6367-0.20312-2.3438-0.45312zm-76.273-4.1016c-0.55078-1.4297-0.39844-1.4961 0.92969-0.39453 1.8086 1.5 1.9961 2.1055 0.65625 2.1055-0.51172 0-1.2266-0.76953-1.5859-1.7109zm-244.27-9.4375c1.0156-0.26562 2.4219-0.24609 3.1289 0.039063 0.70703 0.28516-0.125 0.5-1.8438 0.48047-1.7188-0.019532-2.2969-0.25391-1.2852-0.51953zm16.203-1.0312c0.75391-0.30078 1.6523-0.26562 2 0.082032 0.34766 0.34766-0.26953 0.59375-1.3672 0.54687-1.2148-0.050781-1.4609-0.29687-0.62891-0.62891zm30.23-12.512c0.75391-0.30078 1.6523-0.26563 2 0.082031 0.34766 0.34766-0.26953 0.59375-1.3672 0.54688-1.2148-0.050782-1.4609-0.29688-0.62891-0.62891zm15.637-1.043c0.75391-0.30078 1.6523-0.26562 2 0.082031s-0.26953 0.59375-1.3672 0.54688c-1.2148-0.050781-1.4609-0.29688-0.62891-0.62891zm37.477-1.0664c1.2969-0.25 3.1719-0.23828 4.1719 0.019532 0.99609 0.26172-0.0625 0.46484-2.3594 0.45312-2.293-0.011719-3.1094-0.22656-1.8125-0.47266zm-55.199-9.3555c0.75391-0.30078 1.6523-0.26562 2 0.082031s-0.26953 0.59375-1.3672 0.54688c-1.2148-0.050781-1.4609-0.29688-0.62891-0.62891z" />
        <path fill="currentColor" d="m804.62 862.14c0.71484-0.28906 1.8906-0.28906 2.6055 0 0.71484 0.28906 0.12891 0.52734-1.3047 0.52734-1.4336 0-2.0195-0.23828-1.3047-0.52734zm-273.91-72.684c0-0.21875 0.9375-0.64453 2.0859-0.94531 1.1484-0.30078 1.8242-0.12109 1.5039 0.39844-0.5625 0.90625-3.5898 1.3672-3.5898 0.54688zm51.164-31.484c0.050781-1.2148 0.29687-1.4609 0.62891-0.62891 0.30078 0.75391 0.26562 1.6523-0.082032 2-0.34766 0.34766-0.59375-0.26953-0.54687-1.3672zm238.13-20.23c-0.36328-0.58984 0.054688-0.76562 0.98047-0.41016 1.8047 0.69141 2.1367 1.4414 0.63672 1.4414-0.53906 0-1.2695-0.46484-1.6172-1.0312zm-18.707-23.684c-0.56641-1.4844-0.44531-1.6055 0.58203-0.58203 0.71094 0.70703 1.0312 1.5469 0.71094 1.8711-0.32031 0.32031-0.90234-0.25781-1.2969-1.2852zm-4.6719-20.723c0.050781-1.2148 0.29688-1.4609 0.62891-0.62891 0.30078 0.75391 0.26562 1.6523-0.082031 2-0.34766 0.34766-0.59375-0.26953-0.54688-1.3672zm-76.262-2.2578-2.5273-2.8672 2.8672 2.5273c2.6797 2.3633 3.3438 3.207 2.5273 3.207-0.1875 0-1.4766-1.2891-2.8672-2.8672zm-116.6-24.844c0.050781-1.2148 0.29688-1.4609 0.62891-0.62891 0.30078 0.75391 0.26562 1.6523-0.082031 2-0.34766 0.34766-0.59375-0.26953-0.54688-1.3672zm-130.66-27.188c0.71484-0.28906 1.8906-0.28906 2.6055 0 0.71484 0.28906 0.12891 0.52734-1.3047 0.52734s-2.0195-0.23828-1.3047-0.52734zm-93.695-27.195c-1.2969-1.6523-1.2617-1.6914 0.39453-0.39453 1.0039 0.78516 1.8242 1.6094 1.8242 1.8242 0 0.85938-0.85547 0.30469-2.2188-1.4297zm-60.07-76.039c1.0039-0.26172 2.6445-0.26172 3.6484 0 1.0039 0.26172 0.18359 0.47656-1.8242 0.47656-2.0078 0-2.8281-0.21484-1.8242-0.47656zm71.754-5.1016c0.050781-1.2148 0.29688-1.4609 0.62891-0.62891 0.30078 0.75391 0.26562 1.6523-0.082031 2s-0.59375-0.26953-0.54688-1.3672zm461.82-12.512c0.050782-1.2148 0.29688-1.4609 0.62891-0.62891 0.30078 0.75391 0.26562 1.6523-0.082031 2-0.34766 0.34766-0.59375-0.26953-0.54688-1.3672zm-27.105-17.723c0.050781-1.2148 0.29688-1.4609 0.62891-0.62891 0.30078 0.75391 0.26562 1.6523-0.082031 2-0.34766 0.34766-0.59375-0.26953-0.54688-1.3672zm1.8711-33.535c-1.2969-1.6523-1.2617-1.6914 0.39453-0.39453 1.7383 1.3633 2.2891 2.2188 1.4297 2.2188-0.21484 0-1.0391-0.82031-1.8242-1.8242zm27.766-54.457c-0.36328-0.58984 0.054688-0.76562 0.98047-0.41016 1.8047 0.69141 2.1367 1.4414 0.63672 1.4414-0.53906 0-1.2695-0.46484-1.6172-1.0312zm63.91-27.828c0.75391-0.30078 1.6523-0.26562 2 0.082031 0.34766 0.34766-0.26953 0.59375-1.3672 0.54688-1.2148-0.050781-1.4609-0.29688-0.62891-0.62891zm-480.39-32.707c0-0.60547 0.46875-0.8125 1.043-0.46094 0.57422 0.35547 1.043 0.85156 1.043 1.1055s-0.46875 0.46094-1.043 0.46094c-0.57422 0-1.043-0.49609-1.043-1.1055zm246.81-1.7148c1.2891-0.25 3.4023-0.25 4.6914 0 1.2891 0.25 0.23438 0.45312-2.3438 0.45312-2.582 0-3.6367-0.20312-2.3438-0.45312zm-71.41-7.2812c1.0039-0.26172 2.6445-0.26172 3.6484 0 1.0039 0.26172 0.18359 0.47656-1.8242 0.47656s-2.8281-0.21484-1.8242-0.47656zm-59.879-1.0352c0.75391-0.30078 1.6523-0.26562 2 0.082032s-0.26953 0.59375-1.3672 0.54688c-1.2148-0.050781-1.4609-0.29688-0.62891-0.62891zm-102.16-2.0859c0.75391-0.30078 1.6523-0.26562 2 0.082031 0.34766 0.34766-0.26953 0.59375-1.3672 0.54688-1.2148-0.050781-1.4609-0.29688-0.62891-0.62891zm143.86 0c0.75391-0.30078 1.6523-0.26562 2 0.082031s-0.26953 0.59375-1.3672 0.54688c-1.2148-0.050781-1.4609-0.29688-0.62891-0.62891zm-99.035-13.551c0.75391-0.30078 1.6523-0.26562 2 0.082031 0.34766 0.34766-0.26953 0.59375-1.3672 0.54688-1.2148-0.050781-1.4609-0.29688-0.62891-0.62891z" />
        <path fill="currentColor" d="m758.81 858.98c0.75391-0.30078 1.6523-0.26562 2 0.082031s-0.26953 0.59375-1.3672 0.54688c-1.2148-0.050781-1.4609-0.29688-0.62891-0.62891zm86.527-53.168c0.75391-0.30078 1.6523-0.26562 2 0.082032 0.34766 0.34766-0.26953 0.59375-1.3672 0.54687-1.2148-0.050781-1.4609-0.29687-0.62891-0.62891zm-24.043-4.1484c0.71484-0.28906 1.8906-0.28906 2.6055 0 0.71484 0.28906 0.12891 0.52734-1.3047 0.52734s-2.0195-0.23828-1.3047-0.52734zm8.0781-6.6055c1.0391-1.1484 2.1211-2.0859 2.4062-2.0859s-0.32812 0.9375-1.3672 2.0859c-1.0391 1.1484-2.1211 2.0859-2.4062 2.0859-0.28516 0 0.32813-0.9375 1.3672-2.0859zm-137.28-5.9258c0.75391-0.30078 1.6523-0.26562 2 0.082031s-0.26953 0.59375-1.3672 0.54688c-1.2148-0.050781-1.4609-0.29688-0.62891-0.62891zm128.52-47.945c0.36719-2.1094-0.21484-2.8125-1.1406-1.3789-0.60547 0.94141-1.0156 1.0664-1.0273 0.32031-0.027343-1.9844 1.7227-2.5156 3.043-0.92578 0.85156 1.0234 0.87891 1.6641 0.09375 2.1523-0.61719 0.37891-1.0508 0.30469-0.96875-0.16797zm-83.414-17.625c0.050781-1.2148 0.29688-1.4609 0.62891-0.62891 0.30078 0.75391 0.26562 1.6523-0.082031 2s-0.59375-0.26953-0.54688-1.3672zm79.156-6.1562c-0.70703-0.85547-1.7773-1.25-2.375-0.88281-0.65234 0.40234-0.76953 0.16016-0.30078-0.60156 0.58984-0.95703 1.2773-0.82422 2.7656 0.52344 1.0898 0.98438 1.9805 1.9531 1.9805 2.1523 0 0.77344-0.84766 0.28906-2.0742-1.1914zm-245.95-1.1406c0.050781-1.2148 0.29688-1.4609 0.62891-0.62891 0.30078 0.75391 0.26562 1.6523-0.082031 2-0.34766 0.34766-0.59375-0.26953-0.54688-1.3672zm226.38-27.539c0-2.0078 0.21484-2.8281 0.47656-1.8242 0.26172 1.0039 0.26172 2.6445 0 3.6484-0.26172 1.0039-0.47656 0.18359-0.47656-1.8242zm-201.44-13.613c0-0.60547 0.46875-0.8125 1.043-0.46094 0.57422 0.35547 1.043 0.85156 1.043 1.1055 0 0.25391-0.46875 0.46094-1.043 0.46094-0.57422 0-1.043-0.49609-1.043-1.1055zm272.09-98.977c0-0.57422 0.49609-1.043 1.1055-1.043 0.60547 0 0.8125 0.46875 0.46094 1.043-0.35547 0.57422-0.85156 1.043-1.1055 1.043s-0.46094-0.46875-0.46094-1.043zm-575.65-8.0078c0.75391-0.30078 1.6523-0.26562 2 0.082032s-0.26953 0.59375-1.3672 0.54688c-1.2148-0.050781-1.4609-0.29688-0.62891-0.62891zm-20.914-33.336c0.71484-0.28906 1.8906-0.28906 2.6055 0s0.12891 0.52734-1.3047 0.52734c-1.4336 0-2.0195-0.23828-1.3047-0.52734zm106.32-21.332c0.70703-0.71094 1.5469-1.0312 1.8711-0.71094 0.32031 0.32031-0.25781 0.90234-1.2852 1.2969-1.4844 0.56641-1.6055 0.44531-0.58203-0.58203zm448.62-16.117c0.050781-1.2148 0.29688-1.4609 0.62891-0.62891 0.30078 0.75391 0.26562 1.6523-0.082031 2-0.34766 0.34766-0.59375-0.26953-0.54688-1.3672zm5.5508-26.758-1.9844-2.3438 2.3438 1.9844c2.2031 1.8672 2.8203 2.707 1.9844 2.707-0.19922 0-1.2539-1.0547-2.3438-2.3438zm-38.23-18.633c0.70703-0.71094 1.5469-1.0312 1.8711-0.71094 0.32031 0.32031-0.25781 0.90234-1.2852 1.2969-1.4844 0.56641-1.6055 0.44531-0.58203-0.58203zm86.891-27.586c0.050781-1.2148 0.29688-1.4609 0.62891-0.62891 0.30078 0.75391 0.26562 1.6523-0.082032 2-0.34766 0.34766-0.59375-0.26953-0.54688-1.3672zm-49.273-1.1484c0.75391-0.30078 1.6523-0.26562 2 0.082032 0.34766 0.34766-0.26953 0.59375-1.3672 0.54687-1.2148-0.050781-1.4609-0.29687-0.62891-0.62891zm5.2109-1.043c0.75391-0.30078 1.6523-0.26563 2 0.082031 0.34766 0.34766-0.26953 0.59375-1.3672 0.54688-1.2148-0.050782-1.4609-0.29688-0.62891-0.62891zm86.461-37.508c0.71484-0.28906 1.8906-0.28906 2.6055 0 0.71484 0.28906 0.12891 0.52734-1.3047 0.52734s-2.0195-0.23828-1.3047-0.52734zm-88.766-25.195c-0.29688-0.47656 0.125-0.86719 0.93359-0.86719 0.80859 0 1.2305 0.39062 0.93359 0.86719-0.29688 0.47656-0.71484 0.86719-0.93359 0.86719s-0.64063-0.39062-0.93359-0.86719zm-395.73-12.223c0-0.89453 0.47656-1.332 1.0586-0.96875 0.58203 0.35938 0.78906 1.0898 0.46094 1.625-0.89453 1.4453-1.5195 1.1758-1.5195-0.65625zm146.71-7.4688c1.8516-0.23047 5.1328-0.23438 7.2969-0.007812 2.1641 0.22656 0.64844 0.41406-3.3633 0.41797-4.0117 0.003907-5.7852-0.17969-3.9336-0.41016z" />
        <path fill="currentColor" d="m798.62 860.74c0-0.57422 0.49609-1.043 1.1055-1.043 0.60547 0 0.8125 0.46875 0.46094 1.043-0.35547 0.57422-0.85156 1.043-1.1055 1.043-0.25391 0-0.46094-0.46875-0.46094-1.043zm15.117 0c-0.35547-0.57422-0.14844-1.043 0.46094-1.043 0.60547 0 1.1055 0.46875 1.1055 1.043 0 0.57422-0.20703 1.043-0.46094 1.043s-0.75-0.46875-1.1055-1.043zm-96.43-12.57c0-0.60547 0.46875-0.8125 1.043-0.46094 0.57422 0.35547 1.043 0.85156 1.043 1.1055s-0.46875 0.46094-1.043 0.46094c-0.57422 0-1.043-0.49609-1.043-1.1055zm-11.469-12.969c-2.5312-2.582-4.3711-4.6914-4.082-4.6914 0.28516 0 2.5938 2.1094 5.125 4.6914s4.3711 4.6914 4.082 4.6914c-0.28516 0-2.5938-2.1094-5.125-4.6914zm94.027-4.1719c0.019531-1.7188 0.25391-2.2969 0.51953-1.2852 0.26562 1.0156 0.24609 2.4219-0.039063 3.1289s-0.5-0.125-0.48047-1.8438zm54.852-8.5312c0.75391-0.30078 1.6523-0.26562 2 0.082031 0.34766 0.34766-0.26953 0.59375-1.3672 0.54688-1.2148-0.050781-1.4609-0.29688-0.62891-0.62891zm-109.1-7.6289c0-1.4336 0.23828-2.0195 0.52734-1.3047 0.28906 0.71484 0.28906 1.8906 0 2.6055-0.28906 0.71484-0.52734 0.12891-0.52734-1.3047zm76.156-5.8398c-0.73828-0.80078-0.88281-1.457-0.32031-1.457 1.082 0 2.6484 1.9844 2.0312 2.5703-0.19922 0.19141-0.96875-0.30859-1.7109-1.1133zm3.7539-7.3828c0.75391-0.30078 1.6523-0.26563 2 0.082031 0.34766 0.34766-0.26953 0.59375-1.3672 0.54688-1.2148-0.050782-1.4609-0.29688-0.62891-0.62891zm-86.242-3.0234c0.050782-1.2148 0.29688-1.4609 0.62891-0.62891 0.30078 0.75391 0.26563 1.6523-0.082031 2-0.34766 0.34766-0.59375-0.26953-0.54688-1.3672zm54.129 0.20703c0-0.21875 0.9375-0.64453 2.0859-0.94531s1.8242-0.12109 1.5039 0.39844c-0.5625 0.90625-3.5898 1.3672-3.5898 0.54688zm-2.0039-8.5469c0.050782-1.2148 0.29688-1.4609 0.62891-0.62891 0.30078 0.75391 0.26563 1.6523-0.082031 2-0.34766 0.34766-0.59375-0.26953-0.54688-1.3672zm-84.32-10.34c0.019531-1.7188 0.25391-2.2969 0.51953-1.2852 0.26562 1.0156 0.24609 2.4219-0.039063 3.1289-0.28516 0.70703-0.5-0.125-0.48047-1.8438zm117.76-21.371c0-1.4336 0.23828-2.0195 0.52734-1.3047 0.28906 0.71484 0.28906 1.8906 0 2.6055-0.28906 0.71484-0.52734 0.12891-0.52734-1.3047zm-111.51-15.117c0.019531-1.7188 0.25391-2.2969 0.51953-1.2852 0.26562 1.0156 0.24609 2.4219-0.039062 3.1289-0.28516 0.70703-0.5-0.125-0.48047-1.8438zm-32.438-4.2578c0.050781-1.2148 0.29688-1.4609 0.62891-0.62891 0.30078 0.75391 0.26562 1.6523-0.082031 2-0.34766 0.34766-0.59375-0.26953-0.54688-1.3672zm39.879 0.13281c0-0.83594 0.39844-1.2734 0.88672-0.96875 0.48828 0.30078 0.61719 0.98438 0.28516 1.5195-0.84375 1.3633-1.1719 1.2109-1.1719-0.54687zm-15.418-4.6641c-0.32813-0.53516-0.20313-1.2148 0.28516-1.5195 0.48828-0.30078 0.88672 0.13672 0.88672 0.96875 0 1.7578-0.32812 1.9102-1.1719 0.54687zm116.78-2.8945c-0.56641-1.4844-0.44531-1.6055 0.58203-0.58203 0.71094 0.70703 1.0312 1.5469 0.71094 1.8711-0.32031 0.32031-0.90234-0.25781-1.2969-1.2852zm-108.1-47.996c-1.2969-1.6523-1.2617-1.6914 0.39453-0.39453 1.0039 0.78516 1.8242 1.6094 1.8242 1.8242 0 0.85938-0.85547 0.30469-2.2188-1.4297zm-120.8-4.8242c0-0.21484 0.82031-1.0391 1.8242-1.8242 1.6523-1.2969 1.6914-1.2617 0.39453 0.39453-1.3633 1.7383-2.2188 2.2891-2.2188 1.4297zm159.5-20.977c0-0.85937 0.45312-1.5625 1.0117-1.5625 0.55469 0 0.73828 0.70313 0.41016 1.5625-0.32812 0.85938-0.78516 1.5625-1.0117 1.5625-0.22656 0-0.41016-0.70312-0.41016-1.5625zm-125.23-1.3047c-1.2969-1.6523-1.2617-1.6914 0.39453-0.39453 1.7383 1.3633 2.2891 2.2188 1.4297 2.2188-0.21484 0-1.0391-0.82031-1.8242-1.8242zm-163.8-17.629c0.71484-0.28906 1.8906-0.28906 2.6055 0 0.71484 0.28906 0.12891 0.52734-1.3047 0.52734-1.4336 0-2.0195-0.23828-1.3047-0.52734zm319.26-7.5898c0-0.53906 0.46484-1.2695 1.0312-1.6172 0.58984-0.36328 0.76562 0.054687 0.41016 0.98047-0.69141 1.8047-1.4414 2.1367-1.4414 0.63672zm54.492-37.59c0-2.582 0.20313-3.6367 0.45313-2.3438 0.25 1.2891 0.25 3.4023 0 4.6914-0.25 1.2891-0.45313 0.23437-0.45313-2.3438zm-12.926-4.9531c-1.2969-1.6523-1.2617-1.6914 0.39453-0.39453 1.7383 1.3633 2.2891 2.2188 1.4297 2.2188-0.21484 0-1.0391-0.82031-1.8242-1.8242zm18.98 0.17188c0.050781-1.2148 0.29688-1.4609 0.62891-0.62891 0.30078 0.75391 0.26562 1.6523-0.082031 2s-0.59375-0.26953-0.54688-1.3672zm-12.07-11.902c1.0391-1.1484 2.1211-2.0859 2.4062-2.0859 0.28516 0-0.32813 0.9375-1.3672 2.0859-1.0391 1.1484-2.1211 2.0859-2.4062 2.0859s0.32812-0.9375 1.3672-2.0859zm21.371-14.594c-0.94141-0.60547-1.0664-1.0156-0.32031-1.0273 0.68359-0.007813 1.5312 0.45312 1.8867 1.0273 0.80078 1.293 0.4375 1.293-1.5625 0zm-68.641-11.469c0-1.4336 0.23828-2.0195 0.52734-1.3047s0.28906 1.8906 0 2.6055c-0.28906 0.71484-0.52734 0.12891-0.52734-1.3047zm-18.406-2.0859c1.0391-1.1484 2.1211-2.0859 2.4062-2.0859s-0.32812 0.9375-1.3672 2.0859c-1.0391 1.1484-2.1211 2.0859-2.4062 2.0859-0.28516 0 0.32812-0.9375 1.3672-2.0859zm-470.88-19.477c0.75391-0.30078 1.6523-0.26563 2 0.082031 0.34766 0.34766-0.26953 0.59375-1.3672 0.54688-1.2148-0.050782-1.4609-0.29688-0.62891-0.62891zm555.39-4.8047c0.39062-1.0273 0.97266-1.6055 1.2969-1.2852 0.32031 0.32031 0 1.1641-0.71094 1.8711-1.0312 1.0234-1.1484 0.90234-0.58203-0.58203zm-32.906-1.1289c0-0.21484 0.82031-1.0391 1.8242-1.8242 1.6523-1.2969 1.6914-1.2617 0.39453 0.39453-1.3633 1.7383-2.2188 2.2891-2.2188 1.4297zm52.125-6.2539c0-0.21484 0.82031-1.0391 1.8242-1.8242 1.6523-1.2969 1.6914-1.2617 0.39453 0.39453-1.3633 1.7383-2.2188 2.2891-2.2188 1.4297zm-352.36-16.285c0-0.57422 0.49609-1.043 1.1055-1.043 0.60547 0 0.8125 0.46875 0.46094 1.043-0.35547 0.57422-0.85156 1.043-1.1055 1.043-0.25391 0-0.46094-0.46875-0.46094-1.043zm308.66-6.8633c0.050781-1.2148 0.29688-1.4609 0.62891-0.62891 0.30078 0.75391 0.26562 1.6523-0.082031 2-0.34766 0.34766-0.59375-0.26953-0.54688-1.3672zm9.168-19.98c-1.2969-1.6523-1.2617-1.6914 0.39453-0.39453 1.0039 0.78516 1.8242 1.6094 1.8242 1.8242 0 0.85938-0.85547 0.30469-2.2188-1.4297zm62.684-13.75c0-0.53906 0.46484-1.2695 1.0312-1.6172 0.58984-0.36328 0.76562 0.054687 0.41016 0.98047-0.69141 1.8047-1.4414 2.1367-1.4414 0.63672zm-247.35-6.3984c0.36719-1.4102 0.83984-1.8828 1.1016-1.1016 0.25 0.75391-0.039062 1.8633-0.64453 2.4688-0.77344 0.77344-0.91016 0.36719-0.45703-1.3672zm-4.7305-3.5664c0.019531-1.7188 0.25391-2.2969 0.51953-1.2852 0.26562 1.0156 0.24609 2.4219-0.039062 3.1289-0.28516 0.70703-0.5-0.125-0.48047-1.8438zm182.04-27.297c0.75391-0.30078 1.6523-0.26562 2 0.082032 0.34766 0.34766-0.26953 0.59375-1.3672 0.54688-1.2148-0.050781-1.4609-0.29688-0.62891-0.62891zm-386.7-54.281c-1.2969-1.6523-1.2617-1.6914 0.39453-0.39453 1.7383 1.3633 2.2891 2.2188 1.4297 2.2188-0.21484 0-1.0391-0.82031-1.8242-1.8242zm405.46-9.3125c0.75391-0.30078 1.6523-0.26562 2 0.082032 0.34766 0.34766-0.26953 0.59375-1.3672 0.54688-1.2148-0.050781-1.4609-0.29688-0.62891-0.62891zm-180.85-9.1445c0-0.83594 0.39844-1.2734 0.88672-0.96875 0.48828 0.30078 0.61719 0.98438 0.28516 1.5195-0.84375 1.3633-1.1719 1.2109-1.1719-0.54687zm-235.31-4.9297c0.30078-0.48828 0.98438-0.61719 1.5195-0.28516 1.3633 0.84375 1.2109 1.1719-0.54688 1.1719-0.83594 0-1.2734-0.39844-0.96875-0.88672zm259.72 0.54297c0.71484-0.28906 1.8906-0.28906 2.6055 0 0.71484 0.28906 0.12891 0.52734-1.3047 0.52734s-2.0195-0.23828-1.3047-0.52734zm-170.97-26.062c0.71484-0.28906 1.8906-0.28906 2.6055 0 0.71484 0.28906 0.12891 0.52734-1.3047 0.52734s-2.0195-0.23828-1.3047-0.52734z" />
        <path fill="currentColor" d="m820.72 869.57c1.6406-3.5977 11.727-9.457 17.777-10.328 2.7227-0.39062 4.9531-0.45312 4.9531-0.13672 0 0.31641-3.168 2.2383-7.0352 4.2734-3.8711 2.0352-8.6289 4.8555-10.578 6.2695-4.7852 3.4688-6.7148 3.4414-5.1133-0.074219zm-41.637-7.4258c-0.95703-0.38672-1.0078-1.0586-0.1875-2.5898 0.88281-1.6484 1.4062-1.8164 2.5977-0.83203 1.1523 0.95703 2.2031 0.94141 4.6328-0.066406 2.5195-1.043 4.082-1.0391 7.8906 0.027344 3.2461 0.91016 4.3125 1.6055 3.375 2.1992-2.2227 1.4102-5.2305 1.0352-7.4258-0.92188-1.9727-1.7617-2.0195-1.7422-1.3164 0.51953 0.68359 2.1914 0.43359 2.3398-3.7695 2.2617-2.4766-0.046875-5.082-0.31641-5.7969-0.60547zm-13.82-1.9883c-2.0078-0.73438-5.3086-1.3711-7.3398-1.4141s-6.4844-0.86719-9.9023-1.832c-3.418-0.96484-7.957-1.8359-10.086-1.9375-4.8086-0.23047-13.328-2.5547-13.328-3.6367 0-0.44141-1.3789-1.2852-3.0664-1.875-2.8398-0.99219-2.9766-1.2617-1.8242-3.7422 1.1133-2.4023 1.7148-2.6289 5.9336-2.2461 5.6328 0.51562 10.055 2.0938 10.621 3.7891 0.22656 0.68359 2.7578 1.4688 5.6211 1.7422 3.9727 0.38281 5.543 0.10156 6.6094-1.1875 1.0781-1.2969 1.7344-1.4102 2.8398-0.49219 0.79297 0.65625 4.707 1.4297 8.6992 1.7148 3.9922 0.28516 7.0078 0.92578 6.6992 1.4219-0.30859 0.49609-1.7031 0.90234-3.1016 0.90234-1.5664 0-2.543 0.60156-2.543 1.5625 0 1.1211 1.1445 1.5625 4.0586 1.5625 2.6445 0 4.2656 0.54297 4.6602 1.5625 0.32812 0.85938 1.7617 1.5625 3.1758 1.5625 1.418 0 2.8711 0.47266 3.2266 1.0508 0.97656 1.582-2.4219 2.4883-4.1055 1.0938-1.1328-0.94141-1.6641-0.88281-2.332 0.25781-0.72656 1.2344-1.457 1.2578-4.5156 0.13672zm35.941 0.007812c1.4922-1.1289 3.3672-1.375 6.7773-0.88672 7.8984 1.125 7.2969 2.5156-1.0703 2.4805-7.1211-0.03125-7.5938-0.16406-5.7031-1.5938zm15.027-0.84375c1.0391-1.2539 3.1992-1.6992 8.2344-1.6992 7.3398 0 8.2148 1.1367 1.2578 1.6328-2.3281 0.16406-5.7344 0.63281-7.5664 1.0352-3 0.66016-3.1914 0.5625-1.9258-0.96875zm-112.02-27.02c-4.9844-5.2852-9.6562-11.016-10.387-12.734s-2.1445-5.1133-3.1445-7.5352c-1-2.4258-3.1445-5.8945-4.7656-7.7109-1.6211-1.8164-3.4805-4.9922-4.1289-7.0586-0.64844-2.0664-2.5117-5.1641-4.1406-6.8828-10.129-10.703-17.676-19.605-17.676-20.852 0-2.2422 1.5859-2.6836 3.7539-1.043 1.0859 0.82422 3.5039 1.5117 5.3672 1.5312 3.2461 0.03125 7.5586 3.0039 7.5586 5.2109 0 0.55469 2.4961 2.8945 5.5508 5.1992 3.0547 2.3047 6.1797 5.3711 6.9531 6.8086 0.88281 1.6484 2.3047 2.6211 3.832 2.6211 1.3359 0 3.3672 0.9375 4.5156 2.0859s2.457 2.0859 2.9102 2.0859 2.5938 1.668 4.7539 3.707c3.5039 3.3047 3.8945 4.1797 3.6055 8.0781-0.27734 3.75-0.019531 4.418 1.8281 4.6797 1.3711 0.19531 2.625 1.6133 3.457 3.9102 1.4922 4.1289 4.9023 6.5391 6.6992 4.7422 0.82422-0.82422 0.64844-1.1406-0.63281-1.1406-2.375 0-2.25-1.7539 0.21484-3.0742 1.6641-0.89062 2.168-0.60156 3.1055 1.7891 0.61328 1.5703 1.9414 3.9922 2.9531 5.3828 1.8086 2.4922 1.8008 2.5234-0.51172 1.918-2.9492-0.76953-4.4062 1.6602-4.4062 7.3398 0 2.2578-0.27734 5.5-0.61719 7.1992-0.53125 2.6523-1.1172 3.1094-4.1055 3.2227-3.1094 0.11719-4.4648-0.90625-12.543-9.4766zm95.891 2.3906c0.67188-5.9258 0.55859-6.4727-1.418-6.9883-2.2852-0.59766-3.043-5.25-1.1641-7.1445 0.92188-0.92969 2.2773-5.5508 4.1172-14.02 1.0703-4.9336 3.0117-8.3398 4.7539-8.3398 0.79297 0 1.6172-0.52734 1.832-1.1758 0.28906-0.87109 1.8047-0.87109 5.8711 0 8.9453 1.918 12.703 1.5352 16.008-1.625 3.2812-3.1445 3.8477-1.6914 1.1367 2.9023l-1.7891 3.0273h-12.172c-10.141 0-12.281 0.27734-12.805 1.6484-1.0742 2.8008-0.66797 5.0195 1.4141 7.7344 1.9336 2.5195 2.1016 2.5469 4.9297 0.89844 3.7812-2.2031 11.789-3.5859 11.789-2.0352 0 0.625-0.58594 1.1523-1.3047 1.1758-0.71484 0.023437-2.918 1.4219-4.8906 3.1094l-3.5898 3.0664 1.7656 3.6992c0.96875 2.0352 1.7656 4.4102 1.7656 5.2773 0 0.86719 1.1758 2.668 2.6172 4.0039 2.2852 2.1172 2.5117 2.9258 1.793 6.3906-0.45312 2.1797-1.3945 4.1562-2.0938 4.3867-1.8633 0.62109-2.8398-2.8398-1.4375-5.0859 1.8477-2.957 1.457-3.4062-1.3633-1.5586-3.3711 2.207-3.6836 2.1406-3.6836-0.79688 0-1.3633-0.70312-3.0625-1.5625-3.7773-0.85938-0.71484-1.5625-2.6484-1.5625-4.2969 0-1.9297-0.53906-3-1.5156-3-1.6797 0-2.5078 3.5703-2.9141 12.512-0.23438 5.1641-0.50781 5.7695-2.75 6.0859-2.4609 0.34766-2.4805 0.27344-1.7617-6.0742zm-28.773-5.3672c-0.48438-3.207-6.4727-4.9883-11.277-3.3516-3.0234 1.0273-3.707 0.98828-3.9844-0.23828-0.19531-0.85156-1.5977-1.4766-3.3047-1.4766-5.4453 0-6.2656-0.84766-6.2656-6.4648 0-4.2656-0.36328-5.293-2.0195-5.7266-2.5898-0.67578-4.2344-5.4414-4.2344-12.266 0-6.1172 2.0469-10.023 4.3164-8.2266 0.77734 0.61719 2.6562 1.4141 4.1758 1.7773 2.8672 0.68359 4.0195-0.59375 4.0195-4.457 0-1.7578 3.8828-4.2539 6.6211-4.2539 1.6797 0 7.9727-6.4609 7.9727-8.1875 0-0.72266 2.1484-2.2617 4.7773-3.4258 2.6289-1.1641 4.5391-2.3516 4.25-2.6406-0.28906-0.28906 1.043-2.5859 2.9648-5.1055 1.9219-2.5156 3.793-5.5234 4.1602-6.6797 0.96094-3.0312 1.8398-2.6094 4.0195 1.9414 1.1914 2.4883 3.4805 4.8945 5.9961 6.3086 4.8125 2.7031 5.0781 3.7578 1.2031 4.7305-2.5352 0.63672-2.668 0.86328-1.1445 1.9766 1.543 1.1289 1.4336 1.4219-1.0859 2.8711-2.3047 1.3242-2.7578 2.2461-2.5273 5.1719 0.54687 6.9336 1.6133 10.199 4.082 12.523 3.1953 3.0039 3.1445 3.6836-0.35547 4.5625-3.5742 0.89844-4.4062 2.1875-4.4258 6.8711-0.011719 2.7266-0.82031 4.4844-3.0469 6.6211-2.5625 2.4531-3.1445 4.0195-3.7539 10.098-0.39844 3.957-1.1445 7.1953-1.6602 7.1953s-0.9375-0.48047-0.9375-1.0625c0-0.58594-1.8438-0.12109-4.0977 1.0273l-4.0977 2.0898-0.33203-2.1992zm77.055-2.8945c-0.61719-2.3633 1.6094-3.1836 8.7188-3.2031 3.332-0.007812 5.3164 0.56641 6.5156 1.8906 2.2422 2.4805 2.1992 3.7266-0.097657 2.7656-4.4688-1.8711-9.6328-2.293-10.805-0.88281-1.6836 2.0273-3.7227 1.7578-4.332-0.57422zm-3.1953-17.465c-1.2109-1.2109-0.75391-2.4336 0.90625-2.4336 1.3047 0 1.4805-0.91016 0.94141-4.9688-0.45312-3.418-0.16406-6.1055 0.92188-8.6016l1.582-3.6328 0.085938 2.9375c0.070312 2.4492 0.43359 2.8281 2.1719 2.2734 2.3438-0.74609 2.8945 1.3789 0.87891 3.3945-0.91406 0.91406-0.85156 1.6445 0.26172 3.0117 1.3125 1.6094 1.2539 1.7227-0.53516 1.0508-2.5586-0.96094-3.9414 1.1484-2.5078 3.8242 0.79688 1.4922 0.71094 2.2461-0.33203 2.9062-1.7031 1.082-3.4258 1.1719-4.3633 0.23047zm-137.26-13.523c-1.4336-1.4453-4.543-3.9805-6.9141-5.6367-5.7188-3.9961-11.797-15.859-11.836-23.098-0.007812-1.5703-0.82422-3.2852-1.8398-3.8789-1.0039-0.58594-1.4414-1.0781-0.97266-1.0938s-0.21875-1.5547-1.5312-3.418c-3.375-4.8008-4.6797-5.9961-6.5469-5.9961-0.97656 0-1.6719-0.94531-1.7227-2.3438-0.42188-11.434-0.31641-16.418 0.34766-16.418 0.42969 0 0.78125-0.94141 0.78125-2.0859 0-1.1484-0.62109-2.0859-1.3828-2.0859-0.89844 0-1.3555-1.2734-1.3047-3.6445 0.042969-2.0039 0.46094-3.6484 0.92969-3.6484 1.0781-0.003906-0.16406-4.1914-1.8594-6.2578-0.70312-0.85938-1.8984-3.9102-2.6523-6.7773-1.5078-5.7266-5.8125-16.16-6.668-16.16-0.29688 0-2.3438 1.9336-4.5508 4.2969-3.582 3.8398-4.3633 4.2188-7.3359 3.5664-3.3008-0.72656-3.3281-0.77734-3.332-7.1641-0.003906-6.6367-3.0469-14.023-5.2227-12.676-0.58984 0.36328-1.0273-0.76172-1.0273-2.6523 0-2.3789-0.55859-3.4336-2.0273-3.8164-2.6367-0.6875-9.1289-9.043-9.957-12.809-0.78516-3.5742-4.6953-7.6523-4.6953-4.8945 0 3.0469-4.832 5.1406-12.578 5.4414-8.1719 0.32031-10.355 1.5078-10.355 5.6367 0 3.2344-4.1406 7.6953-6.3555 6.8477-0.92578-0.35547-1.9727 0.57812-2.832 2.5234-0.75 1.6992-4.1523 5.9805-7.5586 9.5117-3.4062 3.5352-6.1914 6.832-6.1914 7.3242 0 0.49609-1.2891 1.7188-2.8672 2.7227-1.5781 1.0039-3.2422 2.4219-3.6992 3.1523s-1.6328 1.3281-2.6055 1.3281c-1.5938 0-1.7812 1.7344-1.8711 17.039-0.089844 15.992-0.23438 17.176-2.3438 19.285-2.5156 2.5156-2.9141 4.9336-0.94531 5.7266 0.71484 0.28906 0.023437 0.5625-1.5352 0.60938-2.0273 0.058594-3.2812 0.9375-4.3906 3.082-0.85547 1.6523-2.25 3.2695-3.1055 3.5977-2.1602 0.82812-6.543-4.668-7.9805-9.9961-0.64453-2.3906-3.2344-8.4062-5.7617-13.367-2.5234-4.9609-4.5898-9.3867-4.5898-9.8281 0-0.44531-2.0586-5.3164-4.5742-10.824-4.9531-10.844-10.02-27.902-10.02-33.738 0-2-0.63281-5.457-1.4062-7.6797-0.77344-2.2227-1.2031-4.625-0.95703-5.3438 0.25-0.71484-0.054687-1.3047-0.67578-1.3047s-1.1289 1.375-1.1289 3.0508c0 3.0703-3.9688 7.375-6.8047 7.375-1.5547 0-11.961-9.1523-11.961-10.52 0-0.51953 1.1172-0.94531 2.4805-0.94531 1.3633 0 3.0391-0.67188 3.7188-1.4961 1.0352-1.2461 0.71484-1.4805-1.9102-1.4062-1.7344 0.050781-4.2305-0.69922-5.543-1.6641-1.3164-0.96484-3.8398-2.6797-5.6133-3.8125-1.7734-1.1328-3.7578-3.2266-4.4102-4.6562-0.65234-1.4297-1.6641-2.6016-2.25-2.6016s-1.0664-0.70312-1.0664-1.5625-0.58594-1.6172-1.3047-1.6797c-2.4062-0.21484-15.84 0.25-21.633 0.75-5.5547 0.47656-18.234-0.92188-26.402-2.9102-3.2266-0.78516-4.293-1.707-5.5898-4.8203-2.0078-4.8203-3.5938-5.8828-5.3203-3.5664-1.0352 1.3867-2.9141 1.8047-8.1172 1.8047-3.8477 0-7.0898-0.50391-7.5117-1.1641-0.41016-0.64062-3.4102-2.8633-6.6641-4.9375-4.2422-2.7031-7-5.5234-9.7266-9.9375-5.2344-8.4805-7.9141-8.8906-16.117-2.4766-0.26953 0.21094 0.027344 0.71094 0.66406 1.1094 0.63672 0.39844 1.8906 2.4922 2.793 4.6562 0.89844 2.1602 3.7656 5.8672 6.3711 8.2383 2.6055 2.3711 4.7344 4.8906 4.7344 5.6016s0.70312 1.5625 1.5625 1.8906 1.5547 1.2031 1.5469 1.9375c-0.011719 0.94922-0.29688 0.89062-0.98438-0.19922-1.457-2.3047-2.4727-0.53906-1.1328 1.9648 1.5586 2.9141 2.8086 2.7383 3.6211-0.50781 1.1523-4.5859 3.1797-2.2383 3.5156 4.0586 0.28516 5.4062 0.54688 5.9648 3.0742 6.5977 1.5195 0.38281 2.9102 0.24609 3.0938-0.30469 0.18359-0.54688 2.0195-0.79688 4.082-0.55859 3.4766 0.40625 4.2305-0.066406 10.281-6.3906l6.5312-6.8281 0.49609 5.1719c0.61328 6.3633 3.3867 9.6016 9.7578 11.387 3.207 0.89844 5.1875 2.2227 6.4062 4.2852 0.96875 1.6406 2.3672 2.9844 3.1016 2.9844 2.1367 0 1.5586 3.3672-1.3125 7.5859-1.457 2.1445-2.5117 4.7148-2.3438 5.7148 0.22656 1.3477-0.29688 1.7305-2.043 1.4883-2.0977-0.29297-2.3438 0.11719-2.3438 3.8516 0 3.5312-0.44141 4.3906-2.8672 5.543-1.5781 0.75-3.3203 2.3906-3.8711 3.6484-0.55078 1.2578-2.0938 2.5586-3.4258 2.8906-1.332 0.33594-2.8633 1.7656-3.3984 3.1836-0.69531 1.8242-1.7656 2.5781-3.6797 2.5781-4.918 0-12.762 4.1016-13.855 7.2422-0.78906 2.2656-2.5156 3.4766-8.1484 5.7227-3.9297 1.5664-7.8477 3.4766-8.707 4.2422-1.6641 1.4844-8.2656 4.0938-15.117 5.9805-2.293 0.63281-5.3867 2.0391-6.8789 3.1289-3.1406 2.3008-9.1602 2.1523-10.391-0.25781-0.44141-0.85938-1.6211-4.8242-2.625-8.8125-1.4453-5.7422-2.6562-8.0625-5.8203-11.164-4.5156-4.4258-4.5898-4.5938-2.4414-5.418 0.86719-0.33203 2.4805 0.39844 3.6484 1.6484 1.1523 1.2344 2.0938 1.6719 2.0938 0.96875 0-1.6445-2.6758-5.8633-7-11.031-1.8828-2.2539-3.4258-4.8477-3.4258-5.7695 0-0.91797-2.582-4.2188-5.7344-7.3359-3.1523-3.1133-5.7344-6.4727-5.7344-7.4609s-0.46875-2.0898-1.043-2.4414c-0.57422-0.35547-1.043-1.9023-1.043-3.4375 0-4.2656-3.3594-11.449-6.0195-12.871-1.3086-0.69922-2.6758-2.4766-3.043-3.9492-0.88672-3.5586-11.684-19.902-13.648-20.656-0.85156-0.32422-2.4023-0.058594-3.4531 0.59766-1.6133 1.0078-2.2969 0.67188-4.4414-2.1797-4.1953-5.582-6.9297-11.488-6.9297-14.973 0-3.4492 1.3867-4.5586 5.6914-4.5586 3.332 0 4.3125-1.5273 7.4258-11.555 1.793-5.7695 2.7773-11.477 2.8828-16.664l0.16016-7.8906-4.4492 0.18359c-2.4453 0.10156-5.2969 0.95312-6.3359 1.8945-2.5781 2.3359-8.1328 2.1523-11.344-0.375-3.0938-2.4336-7.582-2.7852-7.582-0.58984 0 2.5664-3.8047 2.875-7.9609 0.64844-2.3711-1.2695-4.3281-1.7383-4.8984-1.168-1.168 1.168-4.0312 0.20703-3.2344-1.082 0.31641-0.51172 0.19531-0.93359-0.27344-0.93359s-1.5195-1.5234-2.3359-3.3867c-0.81641-1.8633-2.2227-3.9648-3.1211-4.6719-1.1836-0.92969-1.3008-1.5039-0.42578-2.0859 1.5547-1.0352 0.53906-6.5312-1.207-6.5312-1.3867 0-2.7969-3.6328-1.7969-4.6289 0.32031-0.32031 2.4961-0.63672 4.8398-0.70313 7.043-0.20312 10.527-1.3125 10.367-3.3008-0.12109-1.4883 0.80859-1.7891 5.5156-1.7891 4.082 0 6.4727-0.59766 8.5703-2.1523 4.0742-3.0117 14.465-4.3945 17.688-2.3555 1.3398 0.84766 2.7109 1.2734 3.043 0.9375 0.33203-0.33203 1.3477 0.03125 2.2539 0.8125 3.8164 3.2852 16.055 4.707 23.27 2.7031 7.7656-2.1562 7.0586-7.3516-1.7734-13-5.6289-3.5977-7.2344-5.7109-4.3398-5.7109 1.5625 0 9.9609 3.3828 14.367 5.7891 1.5234 0.83203 4.8711 1.5117 7.4453 1.5117 3.9102 0 5.4922 0.67578 9.6484 4.1055 6.3945 5.2812 20.523 12.531 24.789 12.715 2.4531 0.10547 2.7031 0.25781 0.96094 0.59375-1.8008 0.34766-2.3438 1.168-2.3438 3.5195 0 1.6875-0.56641 3.9766-1.2617 5.0859-1.6602 2.6562 1.332 9.4219 4.168 9.4219 1.043 0 3.4883 1.1719 5.4336 2.6055 3.5859 2.6445 7.3008 3.1797 13.512 1.9375 4.2617-0.85156 4.6641-2.0352 3.1562-9.293-0.89844-4.3203-1.7656-6.0625-3.2148-6.4414-1.0938-0.28516-1.9844-1.2031-1.9844-2.0352 0-0.83594-0.70312-2.2188-1.5625-3.082-0.85938-0.85938-1.5664-2.5859-1.5703-3.8359-0.003906-1.25-0.70703-3.6133-1.5625-5.2578-0.85547-1.6406-1.5586-4.1406-1.5586-5.5508 0-2.0039-0.91016-2.9453-4.1602-4.3125-2.2891-0.96094-4.1641-2.2461-4.1719-2.8516-0.007812-0.60938-1.4727-2.6016-3.2617-4.4297-1.7891-1.8281-2.7148-3.3242-2.0586-3.3242s1.6523-1.207 2.2148-2.6875c0.90625-2.3867 1.5117-2.6484 5.4453-2.3672 3.0195 0.21875 4.3945-0.085938 4.3203-0.96484-0.058593-0.70703-0.17578-2.4219-0.26172-3.8125-0.21094-3.3906-2.7383-5.7539-5.4102-5.0586-2.8398 0.74219-8.2969-4.3945-8.2969-7.8125 0-1.375-1.3984-4.4531-3.1094-6.8398-1.7109-2.3867-3.3984-5.7969-3.75-7.582-0.55078-2.7812-0.29688-3.332 1.8047-3.8945 1.3438-0.35938 3.8203-0.66016 5.5-0.66797 1.6797-0.007813 4.6094-0.57813 6.5078-1.2617 2.8125-1.0156 5.3516-0.91016 13.625 0.56641 5.5938 1 12.434 2.5312 15.195 3.4023 3.8242 1.207 5.3672 1.2969 6.4688 0.38672 0.79688-0.66016 1.9258-0.90234 2.5117-0.54297 1.2969 0.80078 5.2812-1.1875 5.2812-2.6367 0-0.57422-1.6406-2.0078-3.6484-3.1953-2.0078-1.1836-3.6484-2.8008-3.6484-3.5898 0-0.78906-1.2188-2.2344-2.7109-3.2109-2.375-1.5547-2.6328-2.2656-2.0742-5.7539 1.2188-7.6133-3.207-10.391-8.9062-5.5938-3.7031 3.1172-5.168 2.6562-9.2656-2.9219-2.9336-3.9883-3.0352-4.4102-1.375-5.625 0.98828-0.72266 2.5508-1.3125 3.4727-1.3125 4.4805 0 5.582-6.2734 1.9219-10.926-1.6562-2.1055-2.6133-5.6133-3.5898-13.168-0.94922-7.3242-2.5547-13.344-5.5625-20.836-2.3242-5.7969-4.2266-10.727-4.2266-10.953 0-0.22656 2.9648-1.8125 6.5859-3.5234s8.4062-4.6836 10.633-6.6094l4.0469-3.4961-2.3047-2.9297c-1.2695-1.6133-2.1367-3.1016-1.9297-3.3086 0.20703-0.20703 1.9727 0.27734 3.9258 1.0781 6.625 2.7109 8.2383 2.9883 8.2383 1.4141 0-1.2773-1.5195-2.2461-9.3828-5.9727-0.85938-0.40625-1.7305-1.5938-1.9375-2.6367-0.20313-1.043-1.3164-2.6602-2.4688-3.5977-2.082-1.6875-2.0781-1.7148 0.63281-3.4883 1.8633-1.2227 2.7305-2.7109 2.7305-4.6953 0-4.1094 2.0781-6.5391 4.9414-5.7734 1.2852 0.34375 2.0938 1.0117 1.8047 1.4805-0.29297 0.47266 1.4727 1.2539 3.9219 1.7344 4.0352 0.79297 4.4805 1.1875 4.7773 4.2344 0.19531 2.0156 1.1328 3.793 2.3477 4.4414 1.1094 0.59375 3.1797 3.3672 4.5977 6.1641 1.418 2.7969 3.9961 6.0938 5.7305 7.332 3.8203 2.7227 3.8477 3.1328 0.55078 8.3594l-2.6055 4.1289 2.5742 0.64844c1.6797 0.42187 3.1562 0.066406 4.2461-1.0234 0.91797-0.91797 2.0664-1.668 2.5547-1.668s1.2031-1.4375 1.5859-3.1992c0.50781-2.3125 0.20313-3.75-1.1016-5.1914-1.7266-1.9062-1.6953-2.0391 0.68359-2.9922 2.207-0.88281 2.0039-1.0039-1.7812-1.0625-4.8594-0.074219-7.7188-2.457-7.7188-6.4258 0-1.8555-1.0195-3.0977-3.7539-4.5703l-3.7539-2.0234 2.9727-2.4219c2.9336-2.3906 2.9453-2.4414 0.88672-4.0664-1.2461-0.98438-1.457-1.4609-0.51953-1.1875 0.85938 0.25391 2.6523 2.0664 3.9805 4.0273 2.5156 3.7148 5.6758 5.5039 8.4648 4.7969 1.0312-0.26172 0.31641-0.91016-1.9492-1.7695-3.3984-1.2891-3.4609-1.3984-1.2344-2.2227 1.2891-0.47656 2.0469-1.3398 1.6914-1.918-0.98047-1.5859 2.4297-1.2773 11.461 1.0352 4.4844 1.1484 8.8086 2.0859 9.6094 2.0859 2.7031 0 0.23828-2.0195-3.7852-3.1016-2.1953-0.58984-5.332-2.1289-6.9727-3.418l-2.9844-2.3438 6.7578-0.80859c3.7148-0.44531 8.5156-0.77734 10.668-0.73828 4.9648 0.089844 4.9648-1.082-0.003906-3.3984-2.1484-1-2.8711-1.6367-1.6094-1.4141s2.4375-0.015625 2.6094-0.53125 3.3594-1.6602 7.0859-2.543c3.7266-0.88281 9.4922-2.3203 12.812-3.1875 3.3203-0.87109 8.9492-1.5 12.512-1.4023s8.4805-0.17188 10.93-0.59766c3.7188-0.64453 4.3555-1.0938 3.8398-2.7188-0.91016-2.8672 3.0117-3.9062 10.469-2.7734 3.4414 0.52344 7.5234 0.99219 9.0742 1.043 1.6055 0.050781 2.9531 0.75781 3.1289 1.6406 0.24609 1.2344 2.5312 1.5977 11.254 1.7852 6.0195 0.12891 11.922 0.44531 13.117 0.69922 3.5938 0.76562 9.9883 4.9727 9.2852 6.1094-0.5625 0.91016-3.957 2.918-13.156 7.7852-4.3945 2.3242-0.49219 3.6016 4.8242 1.5781 1.5039-0.57422 2.4453-1.5117 2.0898-2.0859-0.35547-0.57422 0.046875-1.043 0.89453-1.043s2.9102-0.78516 4.582-1.7461c2.957-1.6953 3.1484-1.668 6.6992 1.043 3.4375 2.6211 4.3242 2.7891 14.824 2.7891 6.4141 0 10.922 0.40234 10.586 0.94531-0.71094 1.1484 19.012 2.7656 20.055 1.6445 0.40625-0.43359 0.14844-1-0.56641-1.2578-0.71484-0.25781-1.3047-0.96094-1.3047-1.5664 0-0.73438 1.8281-0.83984 5.4727-0.31641 3.0117 0.43359 6.6445 0.76172 8.0781 0.73047 5.1797-0.11328 11.082 2.1641 18.242 7.0391 6.5664 4.4688 12.629 7.3711 15.395 7.3711 0.55469 0 0.79688-1.0977 0.54297-2.4375-0.44531-2.3242-0.26562-2.4023 3.7891-1.6953 2.3398 0.40625 9.1797 0.44922 15.199 0.09375l10.945-0.64844-3.6484-1.8008c-2.9023-1.4336-3.1875-1.8047-1.3906-1.8242 1.2422-0.011719 2.4453-0.58594 2.6758-1.2734 0.32422-0.96875 3.2227-0.94922 12.855 0.089844 12.57 1.3555 16.605 1.6992 23.574 2.0234 2.1094 0.097656 4.5469 0.89062 5.4219 1.7617 2.5078 2.5078 10.285 3.7422 28.797 4.5625 17.289 0.76953 19.035 1.1445 27.105 5.8516 3.1055 1.8125 31.758 2.2578 32.84 0.50781 0.35547-0.57422 1.3477-1.043 2.207-1.043s1.2734 0.46875 0.91797 1.043c-0.35547 0.57422 0.085937 1.043 0.98047 1.043 0.89453 0 1.625 0.40625 1.625 0.89844 0 1.0664 12.289 3.8398 13.156 2.9688 0.32812-0.32812-1.3242-1.5781-3.6758-2.7734-2.3477-1.1992-4.2695-2.4531-4.2695-2.793 0-0.74609 18.309 0.38281 29.531 1.8164 9.0508 1.1562 41.562 8.9961 51.164 12.336 3.3867 1.1758 7.8867 2.1406 9.9961 2.1406 6.0273 0 19.969 3.9453 22.125 6.2617 1.6094 1.7266 1.6641 2.0781 0.33203 2.0781-2.4375 0-1.9258 1.9023 1.2617 4.707 2.2969 2.0195 2.5039 2.5312 1.043 2.5547-1.0039 0.019531-1.8242-0.46484-1.8242-1.0703 0-0.60547-0.49219-0.80078-1.0938-0.42969-1.3984 0.86328-10.523-1.1719-16.824-3.7578-2.6875-1.1016-7.1445-2.0195-9.9023-2.043-2.7617-0.019532-6.1914-0.70703-7.625-1.5273-1.4336-0.82031-3.543-1.4766-4.6914-1.4609-1.5586 0.023438-1.2188 0.46094 1.3477 1.7383 4.4336 2.2031 4.2734 5.6758-0.30469 6.5898-2.3398 0.46875-2.707 0.8125-1.457 1.3633 0.91797 0.40625 2.0898 0.61719 2.6055 0.46875 0.51562-0.14453 2.3438 0.49219 4.0664 1.4219 1.7188 0.92969 5.6719 3.0234 8.7773 4.6562 7.4375 3.9062 7.6602 5.1094 0.86719 4.707-4.7344-0.28125-6.0469 0.097656-9.7109 2.8164-2.332 1.7266-5.1445 5.0391-6.2539 7.3594-1.4258 2.9844-2.4727 4.0234-3.582 3.5586-7.2227-3.0508-14.594-2.9375-14.594 0.22656 0 1.4375-0.24219 1.4336-2.3164-0.019531-2.8516-1.9961-3.9375-2.0547-3.9375-0.20312 0 0.93359-0.85156 1.2578-2.4844 0.94531-2.8242-0.53906-4.5859 1.4062-2.8477 3.1484 0.63672 0.63672 1.1602 2.1484 1.1602 3.3594 0 3.2344 2.375 5.9297 5.5312 6.2734 1.5234 0.16797 4.3477 1.8711 6.2734 3.7852 1.9258 1.9141 4.6328 4.3203 6.0117 5.3477 2.4727 1.8359 2.4766 1.8555 0.16406 1.2344-3.5312-0.95312-2.9258 1.4297 1.5156 5.9805l3.8594 3.9531h-2.8164c-3.5117 0-3.7461 2.5234-0.55078 5.9258 1.8594 1.9805 1.9648 2.4141 0.58203 2.4141-2.6758 0-3.1133 1.8398-1.1992 5.0781 1.7695 2.9961 1.4297 8.4766-0.52734 8.4766-1.0273 0-21.633-18.355-29.941-26.672-3.3828-3.3867-5.6367-6.668-6.1133-8.8945-0.41406-1.9414-1.1641-4.0391-1.6641-4.6602-0.57812-0.72266 0.03125-1.6367 1.6836-2.5234 1.4258-0.76172 2.6211-2.1289 2.6523-3.0352 0.21875-5.9844 1.2305-11.129 2.6719-13.57 1.6016-2.7148 1.5586-2.957-1.0508-5.7734-1.5-1.6172-2.7227-3.5742-2.7227-4.3516 0-1.7344-3.7578-1.875-4.8086-0.17969-0.44141 0.71094 0.13672 1.8242 1.3672 2.6406 2.1055 1.3984 2.0977 1.4414-0.74219 4.4844-2.7695 2.9648-2.9805 3.0156-6.0156 1.5-1.7305-0.86328-3.4141-2.2617-3.7383-3.1094-0.42969-1.1172-2.2891-1.5391-6.8164-1.5391-3.4258 0-6.4609 0.37891-6.7461 0.83984-0.28516 0.46484-0.83203 3.1953-1.2148 6.0703l-0.69531 5.2305 8.0391 3.1719-8.1328 0.8125c-6.7031 0.66797-8.3516 0.53125-9.3828-0.76953-1.6055-2.0273-11.164-3.4727-12.172-1.8398-0.46875 0.75781-5.6484 1.25-14.598 1.3906-12.668 0.19531-13.969 0.39453-15.027 2.3008-0.63672 1.1484-1.5664 2.3828-2.0703 2.75-0.50391 0.36719-0.60156 1.1719-0.21875 1.793 0.38281 0.62109-0.027344 2.5273-0.91016 4.2344-0.88281 1.707-1.6055 3.9766-1.6055 5.0391s-1.1719 3.5234-2.6055 5.4648c-3.5273 4.7852-3.2891 6.0391 1.3047 6.8594 2.1484 0.38281 4.9648 1.6602 6.2539 2.8359 2.2695 2.0664 2.3438 2.0703 2.3281 0.13281-0.023437-2.9375-1.2148-4.3398-4.1523-4.8867-2.207-0.41016-2.0859-0.50781 0.78125-0.625 2-0.082031 3.3867 0.36328 3.3867 1.0977 0 1.4961 4.4023 8.125 5.4023 8.1367 0.39062 0.003906 1.0078-0.92969 1.375-2.0781 0.39844-1.25 1.5703-2.082 2.9375-2.0742 3.9062 0.015625 13.094 4.9453 16.836 9.0312 3.9961 4.3594 5.9922 4.3164 2.5547-0.054688-1.2422-1.582-1.9219-3.5195-1.5586-4.4609 0.35156-0.91406 0.10547-2.3086-0.55078-3.0977-0.65234-0.78906-0.76172-1.4297-0.24219-1.4297 0.51953 0 3.2734 2.457 6.1211 5.4609 2.8477 3.0039 10.016 10.199 15.93 15.988 9.7344 9.5273 10.453 10.48 7.5586 10.055-1.7578-0.25781-3.1953-0.003907-3.1953 0.5625 0 2.9336 3.5508 8.8242 6.875 11.402 2.0664 1.6055 4.7695 3.7656 6 4.8008l2.2422 1.8828-2.2773-1.1016c-3.3984-1.6445-4.5-1.3516-4.5 1.1914 0 2.9141-1.0938 1.7812-4.7305-4.8984-1.5586-2.8672-4.1914-7.0898-5.8477-9.3828s-4.8516-6.75-7.1055-9.9023c-7.8984-11.059-13.477-14.793-12.145-8.1289 0.36719 1.8359 1.4961 4.2969 2.5117 5.4727s2.9062 4.1133 4.1992 6.5312c2.0703 3.8594 2.2852 5.3867 1.7578 12.512-1.4961 20.23-6.5391 31.441-13.516 30.062-1.6914-0.33594-3.3711-1.0859-3.7305-1.6719-0.6875-1.1094-4.1367-0.26953-4.1367 1.0078 0 0.40234-0.99219 1.8008-2.2031 3.1016-1.8047 1.9375-2.082 3.1406-1.5234 6.625 0.625 3.9102 0.36719 4.582-3.1172 8.1523l-3.8008 3.8906 6.8398 5.375c6.7383 5.293 12.613 12.348 15.07 18.086 1.6328 3.8164 0.17187 6.5898-3.9492 7.4922-1.7188 0.37891-3.3906 1.1211-3.7188 1.6484s-1.6836 0.96094-3.0117 0.96094c-2.7734 0-5.3516-4.8203-4.3203-8.0703 0.41797-1.3164-0.24609-2.793-2-4.4375-1.6094-1.5117-2.4062-3.1602-2.0586-4.25 0.92578-2.9219-3.1211-5.9062-7.1055-5.2422-1.9961 0.33203-4.9102-2.2461-4.9219-4.3594-0.042969-6.6602-2.0078-8.332-9.6641-8.2266-3.0664 0.042969-5.25 0.94141-8.3711 3.4492-2.9844 2.3984-4.0078 2.8359-3.4922 1.4961 0.39844-1.043 0.21875-2.5117-0.40625-3.2617-0.80469-0.97266-0.8125-1.9648-0.023437-3.4414 1.6016-2.9961 0.30859-5.3555-2.9414-5.3555-2.0508 0-3.6836 1.1602-6.1445 4.3594-1.8438 2.3984-3.3516 4.7422-3.3516 5.2109s-1.4062 0.85156-3.1289 0.85156c-2.3633 0-3.1289 0.47656-3.1289 1.957 0 2.5312 1.9766 4.1211 6.1758 4.9609 2.2305 0.44531 3.6914 1.5156 4.3164 3.1602 1.3867 3.6484 4.0312 4.25 6.1758 1.4062 1.7656-2.3438 1.9375-2.3633 7.8672-0.91406 6.6523 1.625 8.3984 3.5703 4.1562 4.6367-2.7852 0.69922-9.9297 8.9844-9.9297 11.52 0 0.76953 1.8438 2.5664 4.0977 3.9883 2.2539 1.4219 5.5352 4.6758 7.293 7.2305 1.7578 2.5547 4.7227 5.9023 6.5898 7.4375 1.8672 1.5352 2.8398 2.5 2.1602 2.1484-2.8438-1.4883-2.1758 1.5078 0.8125 3.6328l3.2539 2.3164-2.7227 1.6523c-3.2266 1.957-3.5039 3.2539-0.69922 3.2539 1.1133 0 2.3125 0.46875 2.668 1.043 0.99219 1.6055 2.3945 1.2383 2.9961-0.78125 0.29688-1.0039 0.27734 1.6953-0.042969 5.9961-0.37891 5.0469-1.0977 8.1133-2.0312 8.6523-0.79297 0.45703-1.4414 1.8789-1.4414 3.1562s-0.75391 3.3984-1.6719 4.7109c-0.97656 1.3945-1.4844 3.6602-1.2227 5.4453 0.24609 1.6836 0.13281 3.0586-0.25 3.0586-0.38281 0-1.5312 1.5234-2.5469 3.3867-1.0156 1.8633-3.6523 4.7969-5.8555 6.5156s-4.293 3.9492-4.6406 4.9531c-0.34766 1.0039-1.6289 1.8242-2.8398 1.8242-1.2148 0-4.3203 1.0234-6.9023 2.2734-3.2734 1.5859-4.8203 1.9023-5.1055 1.043-0.66797-2.0078-2.3203-1.4023-2.3203 0.85547 0 1.1602-0.69531 2.0859-1.5625 2.0859-0.85938 0-1.5625 0.5-1.5625 1.1133s-0.86328 0.83984-1.918 0.50391c-2.4844-0.78906-9.1094 1.9844-9.9453 4.1641-0.35547 0.92969-0.64844 2.5859-0.64844 3.6875 0 1.1016-0.39453 2-0.875 2-1.0117 0-3.293-4.6484-3.293-6.707 0-1.6836-5.9062-2.7344-8.9453-1.5898-3.2539 1.2227-10.746 9.0352-11.484 11.977-1.1797 4.707 0.54297 7.5938 10.871 18.191 11.602 11.906 14.195 17.238 13.945 28.688-0.125 5.707-0.42969 6.4961-3.5664 9.1406-1.8867 1.5898-4.6836 3.1719-6.2109 3.5078-1.7266 0.38281-3.0078 1.5078-3.375 2.9688-0.32422 1.2969-2.75 4.1211-5.3828 6.2812l-4.793 3.9297 0.29688-4.8477c0.25-4.0703-0.085937-5.1172-2.1094-6.5352-2.0195-1.4141-2.5547-1.4531-3.3203-0.24609-0.72266 1.1445-0.91797 1.0664-0.92969-0.38281-0.007812-1.0039-0.48438-1.8242-1.0586-1.8242-0.57422 0-0.98828-0.35156-0.91797-0.78125 0.32031-2.0352-0.25-2.7148-1.1211-1.3398-0.76953 1.2148-1.2031 0.89453-2.1289-1.5625-1.5508-4.1328-5.5859-7.7656-9.9688-8.9766-2.8398-0.78516-3.5859-1.5195-3.5859-3.5469 0-1.8125-0.57422-2.5586-1.9727-2.5586-2.207 0-3.2383 1.9375-3.2383 6.0781 0 1.5312-0.71484 6.1953-1.5859 10.371-1.1641 5.5703-1.2852 8.1445-0.46875 9.6719 0.61328 1.1445 1.4688 1.8633 1.9023 1.5977 0.43359-0.26953 2 2.6523 3.4844 6.4883 1.9531 5.0508 3.5 7.4062 5.6133 8.5391 1.6055 0.85937 5.3438 4 8.3086 6.9805 5.2266 5.2539 5.4062 5.6328 5.9336 12.512 0.38672 5.0625 1.3516 8.5117 3.3594 12.043 1.9609 3.4492 2.3945 4.9648 1.4258 4.9883-0.76562 0.019531-0.21875 0.70703 1.2148 1.5273l2.6055 1.4883-2.6055-0.027344c-1.4336-0.015625-3.7773-1.207-5.2109-2.6523zm14.594-55.566c0-0.53906-0.46875-1.2695-1.043-1.625-0.57422-0.35547-1.043 0.085937-1.043 0.98047 0 0.89453 0.46875 1.625 1.043 1.625 0.57422 0 1.043-0.44141 1.043-0.98047zm-415.95-122.09c0-0.53906-0.46875-0.98047-1.043-0.98047-0.57422 0-1.043 0.73047-1.043 1.625s0.46875 1.3359 1.043 0.98047c0.57422-0.35547 1.043-1.0859 1.043-1.625zm95.023-84.043c-2.8203-3.5352-5.8008-4.5-6.6758-2.1602-1.4297 3.8164 4.2852 8.8398 7.6602 6.7344 1.6289-1.0195 1.5469-1.4062-0.98438-4.5742zm27.93-18.988c1.1992-2.2383-1.4688-8.918-3.1484-7.8789-0.52734 0.32812-0.96094-0.17578-0.96094-1.1172s-0.58594-1.5039-1.3047-1.2539c-0.71484 0.25391-1.2422 1.1914-1.1719 2.0898 0.078125 0.98047-0.4375 1.4102-1.3047 1.0781-0.85938-0.32812-1.4336 0.13672-1.4336 1.1562 0 0.9375 0.70313 1.9766 1.5625 2.3086 0.85938 0.32812 1.5625 1.4102 1.5625 2.3984 0 0.98828 0.3125 2.1133 0.69531 2.4961 1.375 1.375 4.4648 0.65625 5.5-1.2773zm-9.0234-2.2148c-0.58594-2.2461-2.3828-3.9141-2.3828-2.2148 0 1.7773 1.2344 4.3164 2.0977 4.3164 0.45703 0 0.58594-0.94531 0.28516-2.1016zm79.918-8.4492c2.3555-4.5195 2.2461-5.75-0.42969-4.7227-2.1055 0.80859-4.1328 5.3047-3.332 7.3906 0.90625 2.3633 1.2773 2.0977 3.7617-2.6641zm21.582-3.3281c0.39453-0.39453-1.3555-0.68359-3.8867-0.64453-3.1836 0.050781-3.9883 0.31641-2.6094 0.85547 2.3281 0.91406 5.4727 0.80859 6.4961-0.21094zm-14.508-1.3477c-0.34766-0.34766-1.2461-0.38281-2-0.082031-0.83203 0.33203-0.58594 0.57812 0.62891 0.62891 1.0977 0.046875 1.7148-0.19922 1.3672-0.54688zm135.8-33.805c0-1.0508 0.875-2.1914 1.9492-2.5312 5.5625-1.7656 7.3906-7.9102 4.3789-14.723-3.0156-6.8164-4.2422-6.6875-4.2422 0.44922 0 8.0703-4.0859 16.555-8.7617 18.184-2.75 0.95703-2.8789 1.1719-1.0898 1.8047 2.9766 1.0508 7.7656-0.91406 7.7656-3.1836zm282.23-88.168c-0.34766-0.34766-1.2461-0.38281-2-0.082032-0.83203 0.33203-0.58594 0.57813 0.62891 0.62891 1.0977 0.046875 1.7148-0.19922 1.3672-0.54688zm-470.92-9.1055c0-1.5859-5.1406-4.2656-6.1289-3.1914-0.35547 0.38672-0.12891 0.89062 0.50781 1.1172 0.63672 0.23047 2.043 1.0898 3.1289 1.9102 2.457 1.8594 2.4922 1.8633 2.4922 0.16406zm118.32-29.879c-0.35547-0.57422-1.582-1.043-2.7305-1.043-1.1484 0-1.7969 0.46875-1.4414 1.043 0.35547 0.57422 1.582 1.043 2.7305 1.043s1.7969-0.46875 1.4414-1.043zm-42.141 444.54c0.050782-1.2148 0.29688-1.4609 0.62891-0.62891 0.30078 0.75391 0.26563 1.6523-0.082031 2-0.34766 0.34766-0.59375-0.26953-0.54688-1.3672zm302.3-14.664c-0.035156-0.66016-1.707-2.168-3.7148-3.3516-2.8086-1.6562-3.6484-2.8359-3.6484-5.1172 0-1.6289-0.64453-3.8477-1.4375-4.9297-1.3594-1.8633-1.5312-1.8711-3.2383-0.16406-1.3477 1.3477-2.1484 1.5117-3.1836 0.65625-1.0508-0.87109-1.668-0.61328-2.582 1.0977-1.6055 3.0039-2.4375 1.9258-1.5664-2.0312 0.46875-2.1406 1.332-3.2031 2.5938-3.2031 1.0391 0 2.1602-0.70312 2.4922-1.5625 0.72656-1.8906 4.4805-2.082 5.1172-0.26172 0.33203 0.94531 1.0547 0.77344 2.6211-0.62109 1.2734-1.1289 1.9102-2.5977 1.5391-3.5586-0.42578-1.1094-0.21875-1.3828 0.64062-0.85156 0.69922 0.42969 1.9453 0.52344 2.7734 0.20703 1.1641-0.44531 1.2695-1.1875 0.46484-3.3086-0.57031-1.5039-0.77734-3.1523-0.46094-3.6641 0.86719-1.4023 4.7578 1.4102 4.1484 2.9961-0.28906 0.75391 0.11719 2.6328 0.90625 4.1719 2.1562 4.2227 3.0039 9.3164 2.2383 13.414-0.61719 3.3008-0.82422 3.4883-2.0273 1.8438-1.9023-2.6016-3.9688-1.0664-2.6016 1.9297 0.70703 1.5469 0.71484 3.1914 0.027344 4.9141-0.56641 1.4258-1.0625 2.0508-1.0977 1.3906zm-261.39-4.793c-1.3984-2.207-1.3828-23.887 0.015625-23.441 2.6953 0.86328 9.2617 12.051 9.7812 16.668 0.45312 4.0273 0.19531 4.8945-1.9102 6.3672-2.8945 2.0273-6.7344 2.2227-7.8867 0.40234zm214.45-15.441c-0.046875-1.7578 5.8438-7.9492 6.7227-7.0703 0.29297 0.29297-1.0898 2.3711-3.0742 4.6133-2.2812 2.582-3.6211 3.4844-3.6484 2.4531zm30.336-5.2344c-2.2539-2.0977-2.2812-2.3008-0.57031-4.1953 2.1016-2.3242 1.5078-3.2773-2.0469-3.2773-2.2422 0-2.5977-0.52734-2.9102-4.3242l-0.35547-4.3242 3.3867 1.0625c2.2305 0.69922 3.3867 1.7266 3.3867 3.0039 0 1.5859 0.52734 1.8203 2.8672 1.2773 2.1289-0.49219 2.4648-0.39453 1.3047 0.39062-1.3438 0.91016-1.3047 1.0586 0.26172 1.0742 1.0039 0.007812 1.8242 0.66406 1.8242 1.4531 0 0.78906 0.70312 2.0195 1.5625 2.7344 2.1719 1.8047 1.9531 3.1289-0.51953 3.1289-1.1484 0-2.0859-0.65234-2.0859-1.4531 0-2.0859-2.8398-2.8828-3.5625-1.0039-0.89062 2.3203-0.71094 3.1914 0.32031 1.5625 1.4531-2.2891 2.1328 0.17969 0.75781 2.7461l-1.2578 2.3477-2.3672-2.207zm-23.004-3.793c0.042969-0.44531 0.86328-2.5664 1.8242-4.7109 1.7422-3.8867 1.75-3.8906 2.9102-1.3945 1.0234 2.207 0.80469 2.7656-1.8242 4.7109-1.6406 1.2148-2.9531 1.8438-2.9102 1.3945zm34.324-2.9727c0-0.90234-0.70312-2.3438-1.5625-3.2031s-1.5625-2.2188-1.5625-3.0195c0-0.86719 0.63281-1.2148 1.5625-0.85547 2.2344 0.85938 1.9297-1.0508-0.51953-3.2734-2.7734-2.5117-2.6289-3.6484 0.46094-3.6484 2.7812 0 3.625 0.92969 5.375 5.9141 1 2.8516 0.91016 3.3711-0.65234 3.7812-1.3281 0.34766-1.6758 1.2031-1.293 3.2109 0.3125 1.6328 0.054687 2.7344-0.64063 2.7344-0.64062 0-1.1641-0.73828-1.1641-1.6367zm-8.6016-10.957c-2.3398-1.3633-2.4609-4.2656-0.14062-3.375 1.3828 0.53125 1.4922 0.29297 0.61719-1.3359-0.58594-1.0898-2.3516-3.1562-3.9258-4.5898l-2.8555-2.6055 0.61719 2.4961c0.4375 1.7656 0.29297 2.1719-0.49219 1.3828-0.60938-0.60938-1.7617-0.85938-2.5586-0.55469-0.99609 0.38281-1.2461 0.03125-0.80469-1.125 0.46484-1.207 0.042969-1.6797-1.4922-1.6797-3.0508 0-3.6484 1.6289-1.6914 4.6172 1.6055 2.4492 1.3633 4.7656-0.49219 4.7656-0.46484 0-2.0742-1.8594-3.5781-4.1328-1.5781-2.3828-2.1211-3.8984-1.2852-3.5781 0.79688 0.30469 1.7578 0.054687 2.1367-0.55859 0.37891-0.61328 0.13281-1.1133-0.54688-1.1133-0.82812 0-1.0195-1.0742-0.58203-3.2539 0.5625-2.8047 0.4375-3.0742-0.90625-1.9609-1.3164 1.0898-1.8828 0.58203-3.625-3.2617-2.2266-4.9062-2.7578-8.7266-1.0703-7.6836 0.66016 0.40625 1.043-2.293 1.043-7.3672v-8.0117l3.2578 0.65234c1.793 0.35938 3.8477 0.65234 4.5742 0.65234 1.2812 0 2.1211 2.7227 3.2812 10.676 0.4375 2.9805 0.17578 4.0508-1.1016 4.543-2.6602 1.0195-2.1719 6.5469 0.67187 7.6445 2.0859 0.80469 2.1406 0.98828 0.51953 1.6406-2.9609 1.1953-2.0898 2.5977 1.6172 2.5977 1.8906 0 3.9023 0.46094 4.4688 1.0273 0.56641 0.56641 2.6523 1.2031 4.6406 1.4219 1.9883 0.21875 3.4219 0.8125 3.1914 1.3203-0.23047 0.50781-1.4023 0.79297-2.6055 0.63281-2.1758-0.29297-2.1758-0.28516-0.10156 1.3516 1.457 1.1484 2.0859 2.8828 2.0859 5.7656 0 4.457-0.12891 4.5938-2.8672 3zm14.73-124.73c-0.92969-0.21484-2.5117-2.2148-3.5195-4.4492-1.0078-2.2344-2.9297-5.0938-4.2734-6.3555l-2.4414-2.293 2.6211-3.2383c1.4414-1.7812 3.9375-4.6797 5.5508-6.4414 1.6133-1.7617 3.1172-3.75 3.3398-4.4141 0.25391-0.75 3.5156-1.3164 8.5391-1.4883 7.3516-0.25 8.082-0.46094 7.625-2.2188-0.62891-2.4258 1.4258-5.8672 3.5234-5.8984 0.86719-0.011719 2.6758-0.87109 4.0234-1.9102 2.0156-1.5508 2.5508-3.1484 3.0234-9 0.48828-6.0742 0.29688-7.3164-1.3164-8.4922-1.2812-0.9375-1.918-2.8164-1.9805-5.832-0.078125-3.8555 0.22266-4.4961 2.2539-4.7852 2.7539-0.39062 3.1875 1.5 0.51953 2.2734-1.2891 0.375-1.1641 0.47266 0.41797 0.33594 2.7852-0.23828 10.789 8.4844 10.789 11.762 0 1.2383 0.48047 3.1523 1.0664 4.2461 0.85938 1.6094 0.76172 1.875-0.51953 1.3828-2.0273-0.77734-2.0234 1.5586 0.007812 4.2422 0.84375 1.1133 1.5312 3.1289 1.5312 4.4805s0.67969 3.7695 1.5078 5.375c2.1484 4.1562 1.0273 7.7461-2.1719 6.9414-1.7812-0.44531-2.4648-0.17969-2.4648 0.96484 0 2.1602-1.6914 2-2.5977-0.24219-0.65625-1.6211-0.83984-1.5625-1.6406 0.51953-0.98828 2.5625-3.0781 2.9648-6.3438 1.2188-2.582-1.3828-4.1953-0.16406-1.6641 1.2539 1.2891 0.72266 1.5 1.375 0.73828 2.2656-0.58984 0.69141-1.7148 2.1797-2.5 3.3164-1.3711 1.9805-1.5898 1.8867-5.6875-2.4609-2.8125-2.9844-4.8164-4.3086-5.9023-3.8945-2.1523 0.82422-0.92969 2.7305 1.75 2.7305 1.668 0 2.0273 0.58203 1.7617 2.8672-0.26172 2.2656-0.80469 2.8008-2.5898 2.5547-1.5273-0.21094-2.4805 0.37891-2.9375 1.8242-0.80469 2.5352-1.8945 2.707-3.6641 0.57031-2.375-2.8633-3.1289-1.625-3.1289 5.1523 0 6.9375-0.38672 7.7852-3.2539 7.125zm4.2578-15.855c1.4883-2.7852 1.3516-3.8906-0.48437-3.8906-0.85938 0-1.5625 0.35938-1.5625 0.80078 0 0.44141-1.5234 0.94922-3.3867 1.1289l-3.3867 0.32812 3.1289 1.7148c4.1484 2.2734 4.4375 2.2695 5.6953-0.082031zm5.25-4.3008c0-0.53906-0.70312-0.98047-1.5625-0.98047-1.6133 0-2.0703 1.2305-0.89844 2.4023 0.83203 0.83203 2.4609-0.10938 2.4609-1.4219zm-552.12-3.5469c-2.4531-1.793-1.957-2.2852 3.5391-3.5195 3.5117-0.78906 4.4023-0.69922 4.4023 0.4375 0 0.78516-1.3438 2.1211-2.9883 2.9727-2.5469 1.3164-3.2773 1.3359-4.9492 0.11328zm560.46-16.199c0-0.57422 0.46875-1.043 1.043-1.043s1.043 0.46875 1.043 1.043c0 0.57422-0.46875 1.043-1.043 1.043s-1.043-0.46875-1.043-1.043zm0.77344-30.414c-2.2305-2.5039-2.6094-3.5469-1.6953-4.6523 0.87891-1.0586 0.87891-1.7852 0-2.8438-0.95703-1.1523-0.67188-1.3242 1.4883-0.91016 2.4766 0.47266 2.6172 0.29297 1.9688-2.4883-0.81641-3.5-3.293-7.7266-5.4805-9.3555-0.95312-0.71094-1.1367-1.3945-0.48047-1.8008 0.58203-0.35937 3.1758 0.74609 5.7578 2.457 6.168 4.0859 16.125 7.5547 17.109 5.9648 0.46484-0.75391 0.98828-0.44922 1.4727 0.84375 0.67578 1.8242 0.85547 1.7422 1.8789-0.85156 1.5117-3.8281 1.8945-3.6133 1.3828 0.78125-0.30078 2.5781-0.011719 3.6602 0.99219 3.6836 2.1875 0.050781-2.2773 3.0938-4.543 3.0938-1.0781 0-2.3438 1.1328-2.8984 2.5938-0.89062 2.3438-1.2656 2.4844-3.8828 1.457-3.8398-1.5039-11.758-2.0547-11.758-0.8125 0 0.53906 1.168 1.5156 2.5977 2.1641 2.0156 0.91797 2.3359 1.4961 1.4375 2.582-1.6055 1.9336-2.0664 1.7695-5.3477-1.9102zm-162.12-188.24c-5.8984-0.33594-6.3828-0.52734-4.9297-1.9805 1.3555-1.3555 2.3906-1.4258 6.5469-0.42578 5.0508 1.2109 9.7227 3.3477 6.4844 2.9648-0.85938-0.10156-4.5078-0.35156-8.1016-0.55469zm-9.6172-4.4414c0-1.3047 1.1055-1.3047 3.1289 0 1.2656 0.81641 1.1133 1.0117-0.78125 1.0273-1.2891 0.007812-2.3438-0.45312-2.3438-1.0273zm-202.24-24.625c-4.3008-0.82812-9.8008-1.6172-12.223-1.7539-5.9375-0.33984-7.4336-1.9414-4.625-4.9531 1.9375-2.082 2.8711-2.2617 9.1406-1.7578 4.7891 0.38281 7.2656 1.0703 7.8906 2.1836 0.57812 1.0312 3.1484 1.875 7.0586 2.3164 4.6328 0.52344 6.6836 1.3086 8.3086 3.1758l2.1562 2.4805-4.9453-0.09375c-2.7188-0.050781-8.4648-0.76953-12.762-1.5977z"/>
    </g>
</svg>
