<?xml version="1.0" encoding="UTF-8"?>
<svg width="1200pt" height="1200pt" version="1.1" viewBox="0 0 1200 1200" xmlns="http://www.w3.org/2000/svg">
    <path fill="currentColor" d="m1010.4 1162.8-3.5977 1.1992h-2.3984l-1.1992 1.1992v-2.3984l-1.1992-1.1992h-3.6016l-4.8008 2.3984-3.6016-1.1992-8.3984 1.1992 3.6016 8.3984 8.3984 2.3984 18-8.3984v-1.1992zm-398.4-520.8 2.3984 13.199 18 16.801 10.801-25.199-6-15.602zm-30 381.6 6-18-2.3984-20.398-10.801 9.6016-3.6016 8.3984 3.6016 15.602zm-256.8-367.2 9.6016-14.398 6 8.3984-6 13.199 3.6016 8.3984 21.602 4.8008c3.6016 6 8.3984 12 12 19.199l-2.3984 16.801c-8.3984-1.1992-16.801-1.1992-26.398-2.3984l-3.6016 19.199 9.6016 15.602-18 8.3984 4.8008 10.801c9.6016 1.1992 18 3.6016 27.602 4.8008l-15.609 7.1992-25.199 28.801 9.6016 6 12-10.801 15.602 3.6016 12-13.199 8.3984 4.8008 30-7.1992h22.801l15.602-14.398-7.1992-14.398 8.3984-8.3984 2.3984-18-21.602-6-4.8008-12-10.801-33.602-12-4.8008c-6-13.199-10.801-26.398-16.801-39.602l-18-1.2031 15.602-27.602 4.8008-26.398h-19.199l-18 4.8008 18-36-20.398 2.3984-14.398-2.3984-13.199 26.398-6 33.602 8.3984 15.602zm544.8 500.4-13.199-1.1992-13.199 1.1992-9.6016-7.1992-3.6016 9.6016 21.602 3.6016v3.6016l25.199-2.3984 2.3984-6-9.6016 2.3984zm-46.801-55.199 15.602 6v-12l-8.3984-6-9.6016-10.801 6-4.8008-8.3984-10.801-3.6016-13.199 3.6016-4.8008 9.6016 12h9.6016l8.3984-3.6016-12-13.199 21.602-6 9.6016 2.3984 10.801 1.1992v4.8008l6 10.801c7.1992-6 15.602-12 21.602-19.199l20.398-1.1992 3.6016-6-15.602-7.1992-2.3984-8.3984-7.2109-15.602 6-16.801 9.6016-9.6016 4.8008-28.801 4.8008 2.3984 8.3984-4.8008v-6l13.199-18 6-14.398 15.602-3.6016 1.1992 9.6016 26.398 6 4.8008 6-16.801 8.3984-3.6016 4.8008 19.199 7.1992-3.6016 12 9.6016 4.8008 24-14.398 19.199-4.8008 3.6016-8.3984-18 1.1992-8.3984-6-1.1992-15.602 14.398-9.6016 16.801-1.1992 12-8.3984 14.398-2.3984v-10.801l8.3984-7.1992 16.801-2.3984 2.3984-8.3984-3.6016-14.398 7.1992-14.398v-8.3984l-23.992-8.4062h-9.6016l-10.801-13.199-13.199 4.8008-21.602-9.6016v-4.8008l-6-12-14.398-1.1992-1.1992-8.3984 4.8008-6-12-16.801-18 2.3984-4.8008-1.1992-4.8008 6-6-1.1992-4.8008-18-3.6016-9.6016 3.6016-2.3984 14.398 1.1992 7.1992-6-4.8008-7.1992-12-4.8008 1.1992-4.8008-7.1992-4.8008-11.996-21.598 3.6016-8.3984-1.1992-14.398-16.801-7.1992-9.6016 3.6016-2.3984-7.1992-18-8.4062-6-18-1.1992-15.602-8.3984-7.1992 7.1992-10.801-4.8008-31.199 12-19.199-2.3984-6-18 1.1992-19.199-6-21.602 4.8008-21.602 9.6016 1.1992 19.199 10.801 12 6-3.6016c-1.1992 14.398-3.6016 30-4.8008 44.398l-14.398 1.1992-13.199-24-16.801 10.801-8.3984 20.398-1.1992 24 4.7969 24.004-24 9.6016-3.6016 13.199h-16.801l-1.1992-7.1992-16.801-4.8008c-16.801 7.1992-32.398 15.602-49.199 24l-12 8.3984-8.3984-9.6016-19.199-12-9.6016 8.3984-19.199 6.0039v-10.801l-18-7.1992v-12l-4.8008-14.398 12-22.801 4.8008 3.6016 4.8008-12-9.6016-4.8008-1.1992-8.4023 4.8008-10.801v-16.801l-14.398 9.6016-6 8.3984-13.203 2.4023-4.8008 9.6016-2.3984 8.3984v31.199l7.1992 16.801 1.1992 16.801 3.6016 10.801-12 14.398-3.6016-6-14.398 1.1992-3.6016 6-14.398 1.1992-24 12-15.602 42-8.3984 7.2031c-9.6016 3.6016-19.199 7.1992-28.801 10.801l-4.8008 22.801-40.801 20.398-16.801-12 6 30-28.801-7.1992-22.801 6 1.1992 19.199 26.398 9.6016 13.199 13.199 18 26.398-3.6016 49.199-8.3984 14.398-27.602-1.1992-14.398 1.1992-19.191-2.3984h-22.801l-21.602-4.8008-24 16.801 7.1992 10.801-1.1992 16.801 1.1992 8.3984 3.6016 8.3984v9.6016l-3.6016 13.199-1.1992 9.6016-7.1992 8.3984-1.1992 14.398 3.6016 8.3984 7.1992 2.3984 1.1992 13.199-2.3984 16.801 8.3984-2.3984 9.6016 3.6016 7.1992-6 16.801 3.6016 4.8008 12 6 7.1992 8.3984 1.1992 7.1992-8.3984 10.801-7.1992h38.398l12-16.801 13.199-4.8008 3.6016-14.398 9.6016-9.6016-7.1992-13.199 7.1992-18 10.801-13.199 1.1992-7.1992 22.801-4.8008 16.801-15.602-1.1992-13.199 2.3984-14.398 25.199-7.1992 34.801 6 15.602-13.199 7.1992-1.1992 9.6016-10.801 8.3984-3.6016 14.398 8.3984 8.3984 2.3984 6 24 12 13.199 15.602 15.602 13.199 10.801 13.199 1.1992 7.1992 9.6016 10.801 3.6016 4.8008 9.6016 7.1992 2.3984c3.6016 8.3984 8.3984 16.801 12 24l-3.6016 4.8008-3.6016 12v7.1992l7.1992-1.1992 9.6016-19.199 7.1992-1.1992 2.3984-12-12-8.3984 7.1992-14.398 15.602 3.6016 9.6016 10.801 3.6016-8.3984-1.1992-4.8008-14.398-12c-9.6016-4.8008-19.199-10.801-28.801-15.602l4.8008-4.8008-4.8008-4.8008h-13.199l-19.199-19.199-10.801-18.008-16.801-12-6-12 2.3984-7.1992-1.1992-12 14.398-8.3984 14.398 3.6016c-1.1992 1.1992-3.6016 1.1992-4.8008 2.3984v8.3984l4.8008 8.3984 4.8008-10.801 10.801 3.6016v8.3984l8.3984 10.801-3.6016 2.3984 14.398 18 15.602 7.1992 9.6016 8.3984c8.3984 4.8008 15.602 8.3984 24 13.199l4.8008 7.1992 3.6016 2.3984 2.3984 3.6016-2.3984 7.1992-1.1992 15.602 1.1992 10.801 9.6016 7.1992v4.8008l2.3984 1.1992 1.1992 6c4.8008 7.1992 10.801 15.602 15.602 22.801l3.6016 14.398 6 18 14.398 9.6016h12l-6-19.199 10.801-2.3984zm-549.6-338.4 31.199-16.801 13.199-25.199-2.3984-20.398 9.6016-20.398-19.199-19.199-14.398 1.1992c-12 13.199-24 25.199-37.199 37.199l9.6016 30-14.398 30zm-103.2-508.8-28.801-3.6016-28.801 22.801-21.602-12-26.398 22.801-27.602-28.801-25.195 7.2031-12 27.602 36 9.5977 1.1992 12-31.199 8.3984 37.199 20.398-16.801 18c24 6 48 12 70.801 18 21.602-10.801 43.199-22.801 64.801-34.801l22.801-31.199-19.199-28.801zm507.6 842.4-18 2.3984-20.398-2.3984-2.3984 10.801 24 10.801 8.3984 2.3984 13.199 8.3984 3.6016-10.801-2.3984-7.1992 6-16.801zm-104.4-62.402-9.6016-1.1992 3.6016 13.199 1.1992 27.602 6 6 7.1992-7.1992 8.3984 1.1992 2.3984-30-10.801-16.801zm-52.801-482.4 24 16.801 22.801-7.1992 34.801-38.398 12 20.398 13.199 46.801 14.398 36 6 28.801 20.398-1.1992 9.6016-24 21.602 3.6016 9.6016-30 7.1992-55.199 15.598-8.4062 15.602-38.398-15.602-19.203-12-25.199 13.199-51.602 33.602-33.602 27.602-32.398-2.3984-25.199 16.801-28.801 30-12 24 20.398 2.3984 18-12 8.3984-39.602 43.199-15.602 24-8.3984 21.602 8.3984 33.602-3.6016 36 16.801 12 9.6016 19.199 28.801-7.1992 30-13.199 31.199-2.3984c18-22.801 36-44.398 52.801-67.199l6-19.199-25.199-26.398 7.1992-25.199-15.602-30 12-36-20.398-49.199 15.602-33.602-27.602-32.402 2.3984-33.602 14.398-4.8008 30-19.199-19.199-31.199 22.801-13.199-54-38.398-31.199 10.801-31.199-2.3984-26.398 43.199-28.801-2.3984-38.398 22.801c-25.199 32.398-50.398 64.801-76.801 96-24 48-48 96-73.199 142.8l-34.801 40.801-45.602 32.398-15.602 24 6 82.801zm673.2 542.4-6-26.398 12-6-7.1992-7.1992-13.199-6 1.1992-10.801-2.3984-8.3984-16.801-10.801-18 1.1992-20.398 12-14.398-2.3984-20.398 3.6016-25.199-8.3984-30.008-16.805h-28.801l-20.398 7.1992-20.398 15.602-33.602-3.6016-7.1992 18-26.398 1.1992-19.203 21.602 10.801 10.801-8.3984 16.801 13.199 12 10.801 21.602h19.199l16.801 12 12-2.3984 3.6016-8.3984 19.199 1.1992 14.398 12 26.398-2.3984 12-12 14.398 4.8008 10.801-2.3984-8.3984 5.9922 6 9.6016c3.6016-3.6016 6-6 9.6016-9.6016l1.1992-12 6 4.8008 19.199-6 9.6016 3.6016h14.398l20.398-8.3984h9.6016l19.199-3.6016 7.1992-3.6016 20.398 2.3984 6 6 8.3984-3.6016-9.6016-18z" fill-rule="evenodd"/>
</svg>
