<?xml version="1.0" encoding="UTF-8"?>
<svg width="1200pt" height="1200pt" version="1.1" viewBox="0 0 1200 1200" xmlns="http://www.w3.org/2000/svg">
    <path fill="currentColor" d="m207.95 249.11 7.957-2.9297 3.3125 1.3555-2.207 2.4844zm16.57 8.0977h-5.0898l-2.4258-2.7617h5.3047l3.0977-5.3398 2.207 2.4844zm657.48 657 20.629 1.9453-4.332 5.2578-17.375-0.003906zm-177.74-33.777h-5.6992l2.4492-5.5078 4.6211 1.3789zm67.836 44.832-13.02 1.6562-1.4023-3.875-4.0078-3.1445 14.652-1.8711 7.8711 3.8398zm14.508-9.3008c-0.64844-1.1523-1.4883-2.1836-2.4844-3.0703 1.3438-0.097656 2.5664-0.46875 3.8867-0.80469-0.74219 1.3047-1.2109 2.6758-1.4023 3.875zm30.273 2.0859 6.5156-2.4609-4.3438-4.1523-2.1719-7.4648-8.6875-1.3789 7.8125-4.4141 10.848 3.3008 8.1484-1.9336 13.02 1.3789 6.7578 7.1875 8.1836-0.81641 5.7461 6.9102-2.9766 5.7969-3.2539-1.9688-10.285-2.6055-5.7227 5.1133-3.5273-2.5195-3.8047 1.1523-5.9297 7.7539-5.4375-7.4648-8.7109 0.55078-10.586-0.55078-3.7695 4.7266-6.2539-6.1445 7.3086-2.4609zm-62.137-84.887 4.0547 5.8086 1.8242 8.293 2.2578 1.1172v6.6367l-5.2422-4.4297 1.3672-4.7031-4.2969-3.3242v-9.3984zm-1.2461 37.609 11.34 7.1992 3.7422 4.7148 15.203 1.6445 2.4375 6.1562h6.5156l7.8711 6.0859-17.363 4.3906h-20.879l3.793-6.6836-1.2852-4.1758h-8.5078l-6.2383-4.9453v-5.8086h-13.285l-8.8906-8.0391h-15.758l2.9766-5.5078h-14.125l-5.4258 4.9688h-4.8477l-1.9219 3.8867-7.8438 1.3438 4.0664-10.246 12.48-5.7852h16.262l22.523 3.0469 6.7578 5.5312zm-54.254-670.54 4.332-0.75781 4.7539 6.625v5.1016l-9.0977-1.3203zm10.562 13.801-2.7734 3.2148-4.4531-3.2148zm-11.676 5.8555h8.9023l1.4883 5.6758 5.7461 0.38281 3.3398 5.293-2.9648 4.0781 6.1211 5.7617h8.3398l10.199-4.5352 9.4688 3.3945 2.2578 3.7812-5.8242 7.3711h-8.4609l-11.27-0.75781-7.9688-0.94922v-2.8789l-6.2539 2.8789-6.4922-4.5352 3.1445-8.3164-0.53906-5.6758-0.34766-3.9727-4.8242 2.832-5.5664-6.0469zm-5.0039 49.332-4.6328 4.1641-3.7188-3.0234 1.2461-8.4727 2.9648-7.2109 6.7422-4.3438 5.5547 3.9727h6.8164l1.7148 2.6406-10.57 11.148-8.5312-1.1289zm-3.3359-28.152 4.6328-5.1016 5.375 0.75781 1.1172 4.3555-1.8594 5.2812h-4.8242zm-5.0156-44.109v-6.9375l5.0156-0.75781 1.1172 5.8555 4.4883 6.8047-1.7148 6.9961-3.9141 0.003906-0.75781-6.2383-5.9414-0.75781zm-10.945 20.316 1.6797 9.6133 3.8984-4.7266 3.6953 4.7266 1.6797-4.7266 6.7422 1.8945v3.5898l-5.375 3.3945 1.2969 2.4609-4.2461 6.4219-6.8398-2.2695 4.2617-7.1875h-7.2461l-3.5156-8.3867zm-2.3984 32.098 10.57 0.94922 1.1172 4.1523-6.6719 7.4023 3.5273 5.0742-3.5273 7.5586h-6.8633l-0.74219 3.4062-4.2734-1.1406-0.92578-6.8867-7.2383-9.1641 2.5938-4.3438 5.7461 5.5195 3.4453-4.7656-4.1875-3.5898zm-16.5-51.586 11.688 1.0547-5.3633 6.1797-7.25-1.5703zm-1.668 24.945-1.7891-6.8047 5.0039-3.5898 3.7578 1.4531-2.2578 9.1328 6.4336 1.7031-8.0078 9.6875-8.543-4.8477-5.1836 2.5195-12.121-0.37109-5.3164-4.1641 10.32-1.8828-2.0391-3.0234-7.5938 1.1367-4.2461-7.7539 9.0703 1.3555 1.7031-6.0703 6.6953-2.1836 5.207 4.7656-0.19141 6.6836 4.6445 4.1523zm-30.051-23.734 12.254-3.8633 10.57 3.6953-8.7227 8.3984-2.9766-4.1992-6.2773 4.1992-4.2461-1.3203-5.5781 3.1094-5.0391-6.5156zm-54.887 35.449 20.578-10.969 3.1562-7.5586 13.164 2.2695 0.92578 6.8047 8.3398 1.1289-0.19141 12.098 2.9531 0.94922-3.7578 6.2383 3.7578-1.3203 6.2539 5.4727-3.2656 3.4062 5.1953 1.8828 3.707-7.5586 4.2617 7.1758-3.8984 10.391 3.8984 0.94922 3.3359-11.34 2.9531-6.0469 5.0156 2.2695-1.2969-4.5352 6.6719-2.832 4.8242 6.4336-5.207 5.1016-4.6914-2.832 1.7383 8.3164-5.7461 17.953 8.7109 10.969-2.2305 5.293-6.8633-3.3945 2.7852 6.0469-1.1289 3.5898-11.113-1.5117-7.4297-2.6523-0.003906-5.8711-9.8164 3.0234-14.652 0.94922-11.688-5.293 1.4883-7.3672-9.4531-5.1016v-8.5078l9.6484-0.75781 11.316 6.6133 5.0039-0.75781-5.7461-7.1758-14.461-4.1641-1.4883-5.293 13.535-0.5625-6.1211-0.75781-4.2617-7.1875 13.355-11.723-22.812 13.043-9.2773-2.4609 1.8477-5.1016zm-216.45-69.805v-5.3984l4.1406-2.2578-0.88672 3.8281 0.88672 3.8281-2.8672 8.7852-5.3047-2.4727zm-42.492 36.035 5.5195 2.6992-2.4375 5.1836-4.1992-1.1289zm7.7305 88.523h-8.1719l-7.0664-4.0547 3.5391-4.3672 6.8516-2.1602 0.88672 4.3203h3.7578l3.3125 2.207zm8.3984-6.5273-5.3047-0.011719v-4.0547h5.3047zm41.328 140.1 1.1055-25.57 4.6445-2.3633 3.9727 4.7266-7.0664 7.4297 0.66016 8.5664zm543.38 153.72-7.8711-1.9336v-6.9102l2.7461-8.0156h5.9766l-0.27344 8.5664 2.7227-1.6562 3.2539 2.7734zm-40.965-47.844-2.4609-1.1172h13.992l11.531 7.7539h-11.398zm97.137 6.6367 2.7109-2.4961-1.9062 9.1328 4.6211-3.875 2.2305 12.996-6.1094 2.8906v-4.5469l-5.0742 4.5469-1.1055-2.8906zm-270.74 508.88-1.5977-1.8477-1.4883 2.8086-4.0781-3.5898v-6.793l-10.57-5.6875-2.0391-4.9062-3.3359-1.8711 1.4883 4.5234-8.7109-3.3242-2.9766-5.7461 0.625-6.1328-25.453-29.641-41.004-13.008-27.121-28.547-9.6484-2.832-12.238 5.8555h-9.2773l-16.5-6.9961-9.0859-6.2539-9.2773-3.7695-15.023-9.2539-7.9688-8.5078-6.3008-1.5-9.6484-4.5469-6.1211-10.02-11.125-7.9336-4.6328-13.621h4.4531l-0.74219-4.9219 3.3359-6.793-2.5938-5.7969-1.2969-9.0703-6.8633-11.746-1.668-6.2539-9.6484-11.172-1.1172-6.0469-4.2734-5.2695-5.375-3.0234-1.8594-6.0469 4.0781-3.7812-1.4883-3.7578-4.6328-1.7266 0.37109-5.2812-3.1562-0.75781-2.7852-3.7578-0.16797-6.625-3.3359-1.8945-8.3398-17.953-3.3359-19.801 2.0391-6.7578-3.5039-1.5938-1.2969-4.9219-4.8242-0.5625-3.8984-5.125-3.8984 5.6875-0.55078 16.078 6.1211 11.746 0.17969 4.332 5.1953 9.8047-1.2656 6.7734 2.7852 0.75781 0.92578 4.9219 4.2617 10.211 0.92578 10.199 1.8594 6.4336 1.4883 17.207 4.6328 1.1875 4.4531 7.7539-0.55078 7.2344-6.3086 1.8828-2.5938-9.3594-14.832-20.641 2.7852-6.0469-0.17969-8.8672-6.1211-6.9961-0.92578-4.1758h-3.1562l-9.457-9.4453-3.3359-7.7539 11.676 4.5352-2.2188-4.7539 2.5938-5.6523-4.0781-11.902-6.4922-6.4453-4.1172-47.062-7.4141-13.598-3.707-1.8945-2.4102-6.2539-9.0859-5.4844 0.37109-5.2695-4.4531-20.746 3.1562-4.3438-2.7852-3.9375 0.37109-7.9453 3.1562 1.5234v-6.1211l-2.2188 0.007813-3.3359-13.43 3.3359-21.168 6.4922-10.391 4.2734-18.707 10.379-12.289 19.477-33.828 4.9336-25.645-4.6328-13.234-3.3359-17.953 3.1562-3.2148 5.1953 8.6992 7.7891 8.8789-6.8633-13.234-1.1172-9.2656 4.2617-7.3672-2.7852-5.1016 2.5938-6.625-3.5273-6.2383 1.2969-7.3672 4.2617-1.8828 1.8594-3.6836 1.1406-8.3164 1.4023-7.1406-3.8984-2.4609-5.5664 6.9961-0.92578-6.0469 5.1953-11.723-0.55078-10.211-5.6211 2.457 5.5664-10.777 3.5273-11.16 2.7852-1.3203-1.668-2.2695-1.4883-22.488 3.3359-2.2695-6.4922-2.2695 0.19141-7.1875-10.031-9.0703 0.74219-4.9062-1.1172-3.0234 0.74219-8.5078-3.5273-4.9062-4.8242-0.94922-4.0781 4.7266-5.1953 3.4062-4.0781-4.1523-18.539 0.94922 1.4883-5.293 5.9414 1.5117 0.55078-4.7266 5.375-1.8945 6.1211-3.4062h7.2344l3.5273 3.0234 1.1172-4.9219-5.1953-1.7031h-11.316l-8.3398 3.7812-6.6719-0.5625-7.6094 1.1289 1.1172 3.7812-1.8594 3.0234-21.875 0.94922-5.0039-1.1289-3.707 1.7031-7.2344 0.94922-6.3008-2.832-7.6094 0.94922-4.4531-3.0234-0.92578 1.3203-9.0859-1.3203-2.2188-4.9141-5.5664 0.94922-0.92578-4.1641-4.4531 0.5625-2.0391 2.4609-3.1562-3.3945-6.1211-3.0234 4.2617-2.2695 6.6719 1.3203v2.832l7.043-0.38281v1.8828l3.1562-1.7031 6.3008-0.38281 5.0039 3.0234-2.5938 2.4609 1.8594 1.5117 3.3359-3.2148h8.3398l4.6328 3.2148 2.7852-1.7031 11.496-1.5117 10.199-5.8555 7.6094-1.1406-6.3008-2.832 1.668-3.2148-6.6719 1.3203 3.3359-6.2383-2.0391-5.8555-6.8633-2.2695 7.043-5.8555 4.8242-0.75781 5.1953-5.6758-3.8984-2.2695-1.2969-4.9219 7.7891-10.957 4.2734 6.8047 2.0391-2.0742-1.2969-3.5898 1.2969-6.625 4.8242-5.293 12.613-3.4062 3.5273 1.3203 10.57-3.5898 0.92578 1.8828-1.668 3.0234 1.4883 2.832 6.6719 0.75781 1.2969 3.4062 4.8242 0.37109 9.0859-8.125 4.6328 1.3203 2.4102-1.8945-4.2617-3.0234-4.6328-0.5625 0.37109-4.5352-3.707-3.2148-0.92578-5.4844 6.1211-6.2383 4.4531-0.37109v-5.4844l2.5938-3.2148 9.457 4.5352 8.1602 1.7031 1.4883 3.2148-7.9688 3.9727 1.4883 7.5586 5.0039 0.94922 10.02-8.3164-1.4883-3.9727 7.2344-6.2383 7.6094-11.34 6.4922-2.2695 6.6719 6.9961 17.617-1.7031 5.9414 4.3438-1.2969 3.0234 6.3008-4.1641 4.8242 6.0469 8.3398 0.94922-0.1875 5.6758-2.5938 3.5898 3.3359 2.0742-4.2617 8.8789 2.9648 0.94922 2.2188 3.2148 0.74219 8.8789 3.8984 3.3945v4.7266l6.4922 5.1016v5.3516l2.8789 5.3984 0.91016 0.49219-2.2188 5.293 6.8633 15.695 4.6328-3.5898 23.93-1.5117 4.2617 2.832-4.6328 2.6406 6.3125 1.8945 7.2344-4.3438 1.2969 4.3438-4.0781 5.4844 0.17969 5.8555 11.316-6.0469-5.5664 10.02 10.199-3.2148 11.316 19.273 6.6719 1.1406 3.8984 3.5898 1.1172 6.4219-10.57 1.8828 12.059 7.7539h12.984l6.3008 11.531-2.7852 6.4336 4.4531-1.5117 2.5938-12.098 11.496-2.0742-11.699-1.1406 1.8008-4.1641 13.223-1.3203-2.2578 6.8047 13.754 11.34 19.68 1.3203 0.17969-5.6758h5.7461l-6.1211-7.5586 7.9922-7.9453 8.5312 6.625 1.7148 7.7539-9.1445 2.4609 3.7578 3.4062-5.2422 5.1016 5.7461 5.8555 0.37109-6.9961 4.0781-0.94922 7.6094-4.9062-2.3633-4.3438 2.7461-5.6758-6.4922-6.2383-2.4102-3.7812 3.7578-2.832-1.7148-4.5352 11.848-11.156 5.5664 4.5352v9.6367l4.2461 5.8555-4.6211 7.1875 5.7461 2.0742-0.92578 14.363 5.0039-9.2656 6.4922 1.7031 1.8242 7.1758-3.707 3.7812 4.4297 9.6367 5.9141-5.293 3.3125-8.5078 4.4297-1.6914-1.1055-9.6367 4.4414-2.832 14.258 7.3789 0.75781 7.1758-5.0273 1.8828 4.2461 12.469-5.7461 6.4336-11.281 4.9062-5.3516-3.0234-5.2422-1.3203 1.7148 5.293-9.2539 7.3672 2.0391 4.9062-11.723 10.211-17.438 2.4609 4.0938 3.2148-3.5156 5.293-9.2539 3.7812-18.539 17.016-3.8984 12.852-2.9648 6.0469 2.0391 5.1016 8.1836 0.19141 2.2578 17.004-3.5273 4.7266 15.91-2.6406 17.977 14.93 9.2656 3.7812 6.6953 6.8047 22.055 1.8945v25.895l12.422 17.953 6.4922 4.5352 2.7617-4.7148 4.2461 5.1016-0.20312-6.9961 2.5938-5.4844-3.7188-7.1758 0.75781-10.391-3.2383-11.902 13.535-6.8047 7.3906-13.414-1.8359-15.121-10.57-12.48 6.8516-9.8281-3.7578-12.852 1.8594-7.5586-4.1289-7.1875 3.8867-5.6641 8.7461 2.6523 11.734 1.5117 3.168-3.4062 11.699 8.3164 5.207 6.8047 12.422 1.7031-0.19141 10.777 2.2305 10.586 8.3281 1.8945 5.5664 6.9961 10.945-6.9961 1.4883-5.8555 2.9648-13.234 31.223 33.395-2.7461 8.125 15.023 9.0703 2.7461 7.7539 5.7461-4.3438 4.2461 3.7812 11.258 1.7031-5.7461 5.4844 6.7188-2.0742 3.2891 5.8555 3.3125-2.2695 5.2188 2.2695 3.7578 9.0703 5.2305 5.1133-5.5547 10.969 9.6602-1.6211-3.7812 11.617-0.78125 11.34 5.7344-6.0859 5.3867 1.1055-3.2539 4.9805 5.4258 1.668 11.398-3.875 2.1719 4.7031-1.0781 7.1875 6.7578-2.4961v6.3594l-3.832 4.6992-7.3086 13.824h-6.793l6.5898-8.293-5.9648 1.3789-1.7031-4.4297-7.0547 3.6016-12.469 1.9336-9.4922 2.2188v-5.5547l3.793-6.3594-1.8945-5.8086 1.8945-3.3125v-10.512l6.6367-18.301-14.102 4.7266-4.6328 8.6992-6.4922 6.0469-32.449 1.5117-17.438 3.5898-5.1953 9.8281-4.8242 0.17969-8.1602 8.5078-17.988 25.703 6.1211-4.3438 9.2656-13.223 21.887-14.746 15.203-1.7031 5.7461 8.5078-7.1172 7.1758-10.02-0.37109 3.7578 3.7812 8.5312-2.4609 0.75781 9.4453 10.223 11.902 7.4023 1.7031 16.309 1.7031 3.5273 2.4609-14.258 10.02-10.754 2.4609-9.0859 14.363-7.7891-3.7812-1.4883-7.7539 11.867-11.527-1.4883-3.5898-8.5312 5.4844-7.4883 1.3555-4.1523 6-26.398 14.195-4.8242 16.246 6.6719 7.9453-10.309 5.4844-11.52-0.75781-8.5312 4.9219 14.785-1.1289-18.734 6.0508 0.74219 6.4336-8.1602 13.414-5.9414-5.293 5.1953 12.277-4.7539 5.4844-5.2578 10.223-0.75781-4.332 2.4102-5.8555-3.5156-4.1523-1.1172-13.992-5.0156 12.84 3.3477 3.4062 1.4766 6.8047-3.8867 4.7266 6.2539 1.7031 0.75781 6.0469 2.9766 8.8789-9.0977 5.8555 3.1445 3.5898-0.53906 3.0234-8.9023 0.75781-7.2461 8.7461-6.1211 1.2109-7.6094 6.0469-13.754 13.402-9.4453 12.254 0.22656 15.121 5.0039 12.48 0.86328 7.2227 6.4922 16.246 0.5625 14.93-6.2539 10.586h-5.832l-0.9375-5.4844-5.7461-6.0469-9.6953-19.477 1.1641-17.004-13.754-13.766-11.723 4.7539-7.043-8.8633-11.148-3.0234-10.598 3.0234-16.246-1.3672-4.0781 6.4453 6.1211 5.7852-2.2305 2.2695-6.8516-5.1367-10.57 3.0234-8.9102-7.8984-6.3008 2.6641-10.945-4.5352-12.793 2.4609-14.102 9.0703-13.727 6.7578-5.7461 11.555 0.70703 10.379-8.6406 22.922-3.5273 19.477 3.3359 20.027 8.5312 18.719 3.8633 13.621 8.1602 1.3086 6.4922 7.1992 8.1602-1.3203 22.246-3.2148 9.2773-3.2266 6.6875-7.3828 4.2461-17.578 20.594-5.6445 19.668 0.5625 0.75781 9.2656-8.1953 7.9336-0.75781 7.7539-5.3516 17.688-3.5156 1.7891-1.6094 23.438 2.8203 5.8438 29.016-1.6914 22.621 7.5703 4.2461 10.246-9.4453 40.078 19.656 29.723 4.668-1.6211 4.2461 4.7539 23.184-10.391 18.348 4.1992 15.758 16.645-8.1562 18.637-12.254-19.488 4.6445-4.1875-3.707-0.91016-8.6055-8.1602-6.793 1.8945-3.5391 6.2539-4.9922 1.7031-1.5 2.4609 5.207 7.9453-10.199 3.0234-1.5-6.6133-1.8477-2.6758-1.1289 5.6992-6.8516-7.5586-6.1328-1.7266-3.3125 0.40625zm62.016-718.25 9.5898-6.5156 3.9844 3.5273 2.0156 4.8828-7.2734 3.5273zm-21.66 169.26v4.9805l-8.9766-4.9805 1.1055-3.0469zm-12.898-143.83 3.9258 5.5312 8.9766 4.1523-2.4492 6.3594 4.8828-1.1055 4.6094 1.3789-2.4375 5.8086-9.2031-0.82812v-3.875l-6.5391 0.55078-5.9648 4.7031-8.1484 3.3242v-7.1875h-7.5977l4.6211-4.4297 4.8711-18.254h6.5156l-0.53906 5.5312zm10.449 30.984-6.5156 7.4648-6.5156-2.7617 1.3555-5.8086 8.3984-1.6562zm9.7578 12.445 1.3555-7.7383 5.1602 2.207-2.4375 5.5312h-4.0781zm20.195-124.81h-10.656l-7.7539 5.9766 9.8633 2.9883 0.25391-5.543 10.355-1.5234 10.176 11.137 8.5312-1.8945 6.6719 5.1602 15.203 9.2383 6.3828 13.031-6.6602 1.6328 2.9141 6.2539 8.5312 4.8828 14.387 3.2656 1.8008 5.6992h13.68l-4.2461 15.758-5.3281 10.32-9.8516-10.598-10.332-6.793-3.4688 5.9766 9.0586 11.41 9.2656 3.793 5.0625 13.848-5.2695 5.5664-9.0586-5.5664-10.391-3.8047 3.4688 7.1523 12.758 4.5234 4.2461 7.9219-19.441-2.7617-5.0742-7.4648h-10.906l-6.1562-8.2812-11.461-10.055-6.7578 1.1758-4.9453 3.9844-10.645 0.81641v-13.859l11.977 0.53906 6.6602-0.53906 6.707-4.0781-5.0625-6.5156 7.7539-4.6211 2.1367-7.332-7.4531-11.137-13.297-11.137-11.449-9.5039-8.9297 8.4258-13.031-6.793-13.199 0.5625-6.3242-4.3438-8.7461-6.2539 10.129-2.1719-2.6641-3.5273h-7.4648v-9.7812l10.129-13.586 13.645-3.2031-6.0234 6.4688-1.4297 6.2539 2.9023 8.1484 4.5469-3.8047-2.1367-6.793 5.0156-5.6992 13.32-1.8945 15.254 1.6328zm6.3828-68.977-9.2773 2.2695 4.2617 8.6992-3.3359 5.293-8.7109 5.4844 4.8242 5.6758-6.707 5.8555-3.7578-0.75781-2.4102-5.1016-9.0977 2.9531-9.0859-1.0664-8.3281-1.8945 2.9531-5.4727h8.5312l-3.5156-6.9961 6.4922-0.9375 2.7461 4.3086 2.3984-1.8594v-8.125l-8.1836 3.0234-1.5-4.5352-8.8789 3.9727-7.7109-9.8281 5.9297-2.2695-7.7656-5.293 8.3281-13.223 6.8516-3.0234 5.207 9.4453 5.2578 4.9062 4.0781-5.4844-7.668-2.6523-1.2461-11.148 14.258-5.1016 6.2148 2.4609 4.2461-6.4336 18-4.5352 16.703 5.4844-11.305 12.66 8.7227-0.94922-11.039 13.992zm222.16 53.113-15.227 23.449-1.8359 6.0469 4.0781 10.957-2.1016 9.4453-10.152 4.9219v4.5352l-4.8008 2.2695v5.6758l-2.2305 1.5117 3.7188 4.9219 5.9297 9.4453v6.4336l-3.3359 6.8047 3.3359 2.2695 7.043 18.145-1.1289 4.9062 2.2305 3.7305-8.1602 5.1133-9.6602-11.879-6.7305 4.5469-8.8555 3.7695-8.9023-12.098-10.008-1.8828 0.003907-6.0625-8.5312-2.6406-4.8125-8.6992 3.3125-4.5352-3.3125-3.7812-3.7188 6.0469c-11.82-9.9102-10.223-7.7773-21.516-21.926l1.8125-4.9219-6.7188-3.3945v-7.1758l7.7773 0.37109 0.75781-5.293-3.707-6.8047-0.37109-10.957-4.9453-0.38281-10.246 0.38281 8.9023 4.1523-5.1602 4.9062-8.1602-3.0234-2.9531-6.4336 4.7656-1.1289-4.7656-4.9062h8.8438l8.5547-0.38281-13.32-10.586h-7.7773l-2.9648 6.8047-5.2188-3.7812v-7.9336l-2.2578-9.0703-9.2539-11.34-11.844-6.4219-4.7656-5.6758-4.0664-2.2539h-15.203l-7.0547 4.5352h-8.8906l-4.8242-7.9453-7.043-3.0234h12.238l4.4531-3.7812-0.30078-4.9219-5.2578 3.0234-9.2539-1.5117-5.2422-4.5352 7.7656-8.3164 8.5312-6.4219 3.7422 1.8828-2.6055-8.6992-5.9297 1.8945-2.9766-5.293 8.207-9.8281h4.4414l-0.37109-5.293 8.1953-8.3164 4.4297 3.4062 5.9141-3.4062-5.2188-3.7812h8.5547l-2.2578-8.3164 7.0547-3.4062-2.2578-5.6758 14.09-6.4336h4.4531l-1.8125 5.293 6.2539-5.293 11.125-0.011718-0.33594 5.3164-7.4141 6.4297 6.2539-0.38281 4.1406-1.5117 2.5781 3.4062-1.8359-7.5586 8.1602 4.9062 3.7188-6.0469-2.5781-4.5586 4.8008-4.1172 8.5312 6.4219-2.3984 9.8281 5.7461-3.4062 2.9414 1.1289-1.8359 5.6758 6.2891 2.2695 14.113 16.262 6.6719-2.6406 2.6172 4.5352 6.707-3.4062 7.0547 3.4062-8.5312 6.8047 4.7773 3.7812 7.0312-3.4062 2.2578 3.4062 7.4023-0.75781-1.1406 9.0703 6.2656 1.1406 8.9023-1.8828-5.2188 9.8281 9.2539-0.75781-1.4883 10.969-8.9023-1.1289 0.75781 8.6875 9.2539 0.75781 2.9531-7.5586 5.5938 2.2695 2.9414 6.4336 15.254 5.6758 4.4297 7.1875-7.7539 2.2695-12.984-3.7812 2.6523 4.5352 5.8789 2.6523-2.5938 10.199 8.2188-7.9336 10.32-1.5117v15.086c-0.015624-0.007813 0.042969-0.007813 0.042969-0.007813z"/>
</svg>
