<?xml version="1.0" encoding="UTF-8"?>
<svg width="1200pt" height="1200pt" version="1.1" viewBox="0 0 1200 1200" xmlns="http://www.w3.org/2000/svg">
    <path fill='currentColor' d="m933.16 1022.1 26.809 12.664 15.137-5.0469 21.664-7.0234 16.621 2.4727 1.9805 43.824-9.4961 12.859-2.8672 30.273-9.6953-10.387-19.289 26.414-5.7383-2.0781-17.016-1.1875-17.113-32.449-3.7578-24.73-16.027-32.152 0.69141-16.816zm-50.949-851.37 9.9922 22.258 17.809-10.684 9.1992 12.07 13.355 11.18-2.8672 12.664 5.9336 24.535 4.2539 14.344 7.0234 3.4609 7.5195 24.73-2.6719 15.039 9.0039 19.688 30.074 15.234 19.586 13.949 18.598 12.762-3.6602 7.1211 15.828 18.5 10.785 32.152 11.078-6.5273 11.277 12.961 6.8242-4.5508 4.75 31.758 19.688 18.5 12.859 11.574 21.664 24.633 7.8164 24.633 0.69141 17.512-1.8789 19.191 13.258 26.512-1.582 27.797-4.8477 14.641-7.5195 28.391 0.59375 18.402-5.4414 23.148-12.266 29.68-20.578 16.125-10.09 25.621-9.3008 16.52-8.2109 28.984-10.684 16.918-7.0234 25.523-3.5625 23.742 1.3867 10.98-15.926 12.07-31.062 1.2852-25.621 14.344-12.762 13.652-16.719 15.234-22.953-15.629-17.016-6.2344 4.3516-18.301-15.137 6.6289-24.336 25.523-23.941-9.5977-15.73-5.5391-15.828-2.4727-26.809-10.191-17.906-21.566-5.1445-26.316-6.4297-17.312-13.652-13.852-26.711-4.0547 9.1016-16.422-6.7266-24.93-13.555 23.246-24.73 6.2344 14.543-18.598 4.1562-19.289 10.684-16.324-2.1758-24.434-22.555 28.195-17.312 11.375-10.586 26.613-21.664-13.852 0.89062-17.707-17.312-24.039-14.641-12.367 5.2422-7.6172-35.613-19.785-19.488-0.89062-26.711-15.828-49.66 3.0664-35.91 11.672-31.559 10.883-26.512-2.1758-29.383 16.816-24.043 7.6172-5.3438 17.312-10.289 13.453-23.543 0.79297-17.41 2.9688-24.535-6.0352-19.984 3.6602-18.992 1.4805-16.52 17.809-8.1133-1.4844-13.949 9.4961-13.355 10.684-20.277-1.2852h-18.598l-29.383-21.469-14.938-6.332 0.59375-19.094 13.75-4.5508 4.75-7.5195-0.98828-11.871 3.3633-22.754-3.0664-19.289-14.641-32.547-4.5508-18.301 1.1875-18.105-11.082-20.574-0.69141-9.1992-12.27-12.465-3.4609-24.434-15.828-24.535-3.8594-13.156 12.168 13.355-9.3984-28.492 13.75 8.9023 8.2109 11.871-0.49609-15.73-13.75-24.039-2.6719-9.5938-6.4297-9.1016 2.9688-17.512 5.6406-7.418 3.7578-15.039-2.9688-17.512 11.477-21.469 2.0781 22.652 11.672-20.477 22.555-9.8945 13.555-12.664 21.172-10.883 12.562-2.2734 7.6172 3.6602 21.863-10.98 16.816-3.2656 4.1562-6.4297 7.3203-2.6719 15.332 0.69141 29.184-8.6055 15.039-12.961 7.1211-15.629 16.223-14.738 1.2852-11.574 0.69141-15.73 19.391-24.434 11.672 24.832 11.781-5.7344-9.8945-13.652 8.707-13.949 12.266 6.2344 3.3633-21.863 15.137-14.047 6.7266-11.277 13.949-4.8477 0.39453-7.9141 12.168 3.3633 0.49609-7.1211 12.168-4.0547 13.453-3.8594 20.477 13.059 15.434 16.918 17.312 0.19922 17.609 2.6719-5.8359-15.629 13.258-22.754 12.465-7.418-4.3516-7.0234 12.07-16.125 16.816-9.9922 14.148 3.3633 23.348-5.3438-0.49609-14.344-20.281-9.3008 14.738-4.0547 18.402 6.9258 14.738 11.574 23.348 7.2227 7.9141-2.8672 17.215 8.707 16.223-8.1133 10.387 2.4727 6.5273-5.4414 12.762 13.949-7.418 15.137-10.484 11.477-9.4961 0.98828 3.2656 11.375-8.1133 14.148-9.8945 13.949 1.9805 8.0117 22.062 15.828 21.367 9.1992 14.246 9.8945 20.082 17.016h7.8164l14.543 7.418 4.2539 8.9023 26.512 9.793 18.301-9.8945 5.4414-15.531 5.6406-12.762 3.4609-15.73 8.4102-22.754-3.8672-13.758 1.9805-8.3086-3.1641-16.223 3.6602-21.367 5.3438-5.7383-4.3516-9.3984 6.7266-14.938 5.2422-15.434 0.69141-8.0117 10.289-10.484 7.8164 13.75 1.8789 17.609 6.9258 3.3633 1.1875 11.871 10.09 14.344 2.0781 16.027z"/>
</svg>
