<?xml version="1.0" encoding="UTF-8"?>
<svg width="1200pt" height="1200pt" version="1.1" viewBox="0 0 1200 1200" xmlns="http://www.w3.org/2000/svg">
    <path fill="currentColor" d="m342.21 1016.4 3.8984 2.0898-0.69531 2.5078-4.5977 0.69531zm8.0664 10.738h-1.9453v2.1953h1.9453zm-4.5859 7.0781 3.2773 3.0586v3.1914l2.7109 0.55078 0.55078-2.7852-3.1211-4.0195-3.4219-0.70703zm-8.3398-11.004-0.70703 3.8984 2.9141-1.9336zm5.5547 5.4258-3.3359 0.5625v5.0039l4.5977-2.4961zm-4.8711-65.242h-3.6133l-1.9453 3.2031 4.8711 1.2461zm218.26-829.95-5.9766 2.0039-5.3164 12.277 11.281-1.3203v-12.961zm-216.02 874.04-1.668-3.0586 2.2188-4.0312-1.5352-4.4531-5.4102 7.7891 2.6992 2.5078-1.332 3.625 0.70703 7.6445 4.3086-6.2656v-3.7578zm14.879 42.852 2.5078-1.1172v-3.7578h-5.4258l-4.3086-1.668-3.7695-1.9219-1.3906-1.4297 2.9297 5.9766 6.5391 2.2188-0.5625 2.5273 4.1758 5.4258 3.0586 1.5234-1.2461-5.0039zm-17.113-56.207-2.7852-2.0898-1.1172 2.7852zm3.4805-5.6992 0.55078 3.2031 2.0898-2.3633-2.0898-9.7305-7.3672 2.2305-1.668 8.4844h5.0039zm70.957 91.113 3.1914 0.42188 2.5078-1.5117-2.5078-1.5117zm528.54-720.06-5.6641-16.105-18.828 0.91016-18.828-11.797-14.293-10.441-15.191-6.3477-25.402 3.625-19.957-5.6758-9.3008 5.2188-8.6172 1.3672-0.45703-12.707-9.0703-4.5352-27.445-8.1719-14.52 2.2695-6.1211 10.441-11.34 9.5273-9.5273-2.9414 14.293-3.6367 5.8906-10.441 1.8125-11.797-33.121 2.4961-2.2695 15.648-3.1797-2.9531-10.43 8.6172-9.9844 2.7227 10.211-7.4883 1.8125-9.7578 24.492-26.543v-10.883l-10.883-1.8125-11.797-33.793-7.9336-0.89844-16.332-14.293-15.422-3.6367-11.113-4.3086-36.973 3.625-12.254-10.43-6.5742-0.68359-0.68359-8.6172-6.8047-4.5352-6.5742 3.1797-10.441-14.977-19.285 2.4961 3.4062-8.6172 4.5352-5.4492-7.2617-2.9531-25.402-8.1719 9.3008-6.8047-25.176 2.7227-14.746 9.5156-10.883-1.8125-6.8047-6.5742-30.852 3.8516-2.0391-10.43-19.957-4.5352-1.5859-8.3164-6.5742 1.0547 3.625 10.441-15.191 3.625-5.4492 4.7656-7.0312-10.441 9.5273-4.7656 0.24219-8.5625-14.977 7.0312-11.34 8.6172-17.461 2.0391-2.0391 9.0703-2.4961-6.1211-7.7148 3.3945-7.7148 10.211 0.91016 9.9844-7.0312 3.3945-9.0703 10.883-0.68359 9.5273-9.9844 22.453-1.1406 2.2695 3.1797 9.9844-3.1797 3.1797 2.2695 21.77 3.8516 3.625-13.609 18.145-10.441 3.4062 0.45703 7.4883h-5.2188l2.2695 7.9453-19.727 6.1211 1.3555 11.34-4.5352 6.3477-1.3555 5.4375-3.8516 3.8516-2.0391 18.145 8.3867 7.0312 5.8906-5.4492-1.3555 14.746-6.1211 1.5859-14.293 15.434 1.1289 9.5273 6.5742 8.8438-4.5352 3.625 16.559 10.883 8.8438 17.242 9.5273 10.199 18.828 40.367 19.285 29.258 2.0391 14.293 17.461 18.602 30.168 13.379 20.641 12.254 17.016 14.52 2.2695 40.824-7.7148 37.43-4.3086 39.695-7.4883 25.402-3.4062 6.8047 1.1289 14.977-4.7656 7.0312 1.1406 24.035-7.4883 27.215-18.371 36.973-6.8047 4.7656 0.91016 16.332 4.3086 10.883-6.1211 7.2617-3.1797 5.2188-1.1289 12.926 2.0391 5.8906-6.3477 4.7656-0.45703 10.883-2.4961 7.2617 6.1211 0.91016 4.0781-7.0312-0.91016-8.1719 4.0781-7.7148 6.5742-3.168 4.0781 3.625-10.441 32.891 2.7227 4.7656-10.656 21.539-6.5234-7.8984-13.152 7.9336 6.1211 6.1211 8.6172 2.4961-3.1797 4.0781-4.9922 6.1211 4.7656 11.34-7.2617 4.3086 2.7227 9.3008 3.625 4.5352-2.2695 7.2461 6.3477 5.9023 2.9531 10.441-0.45703 9.0703 5.6758 3.625 1.1289 7.9453 9.7578-2.7227 3.1797 7.7148 5.8906-1.1289 7.0312 10.883 10.43 2.0391h14.977l12.254 3.8516 16.559-5.9023-13.836-4.5352-17.016-13.379 0.22656-7.7148-11.566-4.0781 5.8906-2.7109 7.0312 2.7109-5.8906-10.199 0.22656-6.1211-2.7227-0.45703 7.2617-9.9844 11.113-2.7227 3.4062-9.5273 8.8438-7.9453 9.9844-5.8906 6.8047-9.9844v-4.5352l-12.48-1.1406-6.3477-8.3867 0.22656-7.2617 12.254-9.9844 15.191-3.8516 3.8516-7.4883 0.91016-7.4883 10.656-7.0312-4.9922-2.9531 4.9922-3.8516 0.91016-3.8633-6.3477-1.3555v-14.977l6.3477-2.9531 12.926 4.5352 11.797 0.45703 7.0391-4.7305-2.2695-7.7148 6.1211-9.7578-2.2695-8.3867 15.191 2.0391 35.16-5.2188 14.965-8.1602 14.746-18.602-0.91016-4.9922-6.1211-1.5977-2.0391-6.1211 6.1211-6.3477-8.1602-6.1211-9.3008-3.1797 3.6367-7.4883 6.5742 5.8906h8.1602l34.703 3.6367 20.641-16.105 16.559-21.77 10.441-15.648 9.0703-11.566 6.5742 1.5859-8.8438 10.656-12.254 11.34 12.926-8.1602 13.609-14.965 9.0703-14.062 17.016-12.695 4.9922-17.914 3.1797-22.68 15.875-14.52 26.988-16.105 16.559-5.6641 4.5352-7.0312 17.461-2.7227 17.016-0.68359 2.9531-8.8438 12.254-5.2188 1.1406-11.34 13.836-19.5 6.8047-7.7148 3.1797-17.242 7.7148-10.656 3.625-17.461 3.1797-8.3867 1.8125-40.598 4.5352-12.48 5.4492-0.22656 1.8125 3.1797 12.469-18.602 3.4062-11.113 12.023-12.926 17.688-18.828 7.0312-22.68zm-422.39 666.39-4.5977 4.7656-7.6562 5.1016v3.0586l5.7852-0.68359 16.332-7.3203-1.1875-3.7422zm-168.76-86.711 3.2031 6.8164h4.0312l0.83984-1.2461-2.7852-2.8672 0.83984-2.8438-2.5078-1.5234zm6.8164-11.125-1.3906-0.82812-1.3906 5.4258 2.7852 1.5352zm151.91 97.836h-7.4883l-3.5742 8.6758h-5.4492l5.4492 2.7227 7.1406-3.3945 7.4883-5.7852zm-27.949-119.28-3.2383 5.8672 2.2305 4.7383 5.1836-1.3906 2.8438-8.2578-2.0625-2.2305zm-119.23 152.77 4.1758-1.2461v-4.1758l-4.1758 1.1172zm41.461 13.91-1.3906-1.668-5.0039-0.69531h-6.2656l0.69531 2.3633 6.2656 3.625 0.83984-3.625 2.3633 2.9297 7.9336 0.73047-1.5352-3zm-25.32-9.7305-1.668-4.1641-7.3672-3.3477v3.3477l3.3359 1.6562h2.6406v2.2305l-4.1758 0.55078 1.8125 2.543h8.9023l2.6406 2.8906h-4.3086l2.3633 2.0898 4.8711 0.97266-2.7852-6.8164zm67.922 5.7109 5.1016-1.4531 5.1016-1.4414h-6.8047z"/>
</svg>
