<?xml version="1.0" encoding="utf-8"?>
<!-- Generator: Adobe Illustrator 23.0.3, SVG Export Plug-In . SVG Version: 6.00 Build 0)  -->
<svg version="1.1" id="Layer_1" xmlns="http://www.w3.org/2000/svg" xmlns:xlink="http://www.w3.org/1999/xlink" x="0px" y="0px"
	 viewBox="0 0 512 512" style="enable-background:new 0 0 512 512;" xml:space="preserve">
<style type="text/css">
	.st0{fill:#D3D4D3;}
	.st1{fill:#AA8CC0;}
	.st2{fill:#6A6D71;}
	.st3{fill:#753D90;}
</style>
<g>
	<path class="st0" d="M285.62,462.87c-6.14,6.72-11.5,12.47-15.8,17.03c-2.91,2.78-6.96,4.48-11.46,4.48
		c-4.54,0-8.62-1.73-11.53-4.55c-4.29-4.53-9.63-10.26-15.74-16.95c-39.36,2.64-68.07,10.86-68.07,20.59
		c0,11.87,42.69,21.49,95.34,21.49s95.34-9.62,95.34-21.49C353.7,473.72,324.98,465.51,285.62,462.87z"/>
	<path class="st1" d="M258.36,108.62c47.99,0,87.03,38.91,87.03,86.74c0,47.83-39.04,86.74-87.03,86.74
		c-47.99,0-87.04-38.91-87.04-86.74C171.32,147.53,210.36,108.62,258.36,108.62L258.36,108.62z M258.36,81.65
		c-63.01,0-114.09,50.91-114.09,113.71c0,62.8,51.08,113.71,114.09,113.71c63.01,0,114.09-50.91,114.09-113.71
		C372.45,132.56,321.37,81.65,258.36,81.65L258.36,81.65z"/>
	<path class="st2" d="M274.94,129.63c0.27,1.17,0.43,2.39,0.43,3.64c0,8.9-7.24,16.12-16.17,16.12c-8.93,0-16.17-7.22-16.17-16.12
		c0-1.4,0.2-2.75,0.54-4.05c-29.99,6.72-52.4,33.4-52.4,65.32c0,36.98,30.09,66.96,67.2,66.96c37.11,0,67.19-29.98,67.19-66.96
		C325.55,163.26,304.03,136.99,274.94,129.63z M232.87,196.13c-11.46,0-20.74-9.25-20.74-20.67c0-11.42,9.29-20.68,20.74-20.68
		c11.46,0,20.75,9.26,20.75,20.68C253.61,186.88,244.33,196.13,232.87,196.13z"/>
	<g>
		<path class="st3" d="M258.35,6.94C153.59,6.94,68.66,91.58,68.66,196c0,88.76,137.04,240.33,178.16,283.82
			c2.91,2.82,6.99,4.55,11.53,4.55c4.5,0,8.55-1.7,11.46-4.48c41.1-43.49,178.23-195.14,178.23-283.9
			C448.05,91.58,363.12,6.94,258.35,6.94z M258.35,335.06c-58.05,0-107.84-35.14-129.17-85.25c-7.11-16.7-11.07-35.06-11.09-54.35
			v-0.22c0-77.21,62.79-139.82,140.27-139.82c77.47,0,140.29,62.6,140.29,139.82v0.24c-0.02,19.29-3.98,37.64-11.09,54.32
			C366.22,299.92,316.41,335.06,258.35,335.06z"/>
	</g>
</g>
</svg>
