<?xml version="1.0" encoding="UTF-8"?>
<svg width="302px" height="262px" viewBox="0 0 302 262" version="1.1" xmlns="http://www.w3.org/2000/svg" xmlns:xlink="http://www.w3.org/1999/xlink">
    <title>Group</title>
    <defs>
        <polygon id="path-1" points="0 0 220.439429 0 220.439429 206.105 0 206.105"></polygon>
    </defs>
    <g id="Page-1" stroke="none" stroke-width="1" fill="none" fill-rule="evenodd">
        <g id="Group">
            <polyline id="Fill-123" fill="#1A1919" points="228.993 109.174 226.028 116.032 218.378 111.307 227.078 107.482 228.993 109.174"></polyline>
            <g id="Group-127">
                <mask id="mask-2" fill="white">
                    <use xlink:href="#path-1"></use>
                </mask>
                <g id="Clip-125"></g>
                <polyline id="Fill-124" fill="#1A1919" mask="url(#mask-2)" points="127.011 204.414 129.975 197.556 133.501 203.331 128.925 206.105 127.011 204.414"></polyline>
                <path d="M79.836,50.402 C78.437,52.207 76.356,53.394 74.054,53.657 C71.48,63.655 71.219,74.315 73.907,84.316 C78.067,99.795 88.527,111.441 101.461,120.126 C101.121,117.67 101.332,115.204 102.677,113.166 C97.606,108.473 92.912,102.61 89.578,96.737 C83.262,85.61 81.123,73.276 85.771,61.067 C86.721,58.572 87.874,56.162 89.249,53.878 C86.518,52.292 82.859,51.18 79.836,50.402 Z M65.943,49.857 C61.975,50.773 57.292,52.071 54.027,54.05 C52.096,55.22 50.974,56.419 50.011,58.446 C49.227,60.095 48.651,61.744 47.745,63.356 C45.514,67.331 41.893,70.534 37.898,72.666 C33.082,75.237 27.65,76.334 22.21,76.036 C18.312,75.822 14.304,76.299 10.658,77.74 C9.544,78.181 7.884,78.954 6.938,79.725 L-0.06,85.424 L3.198,77.008 C9.311,61.222 20.001,49.14 36.443,44.084 C45.513,41.294 55.573,40.953 64.98,42.47 C65.135,42.003 65.332,41.549 65.566,41.115 C62.88,38.272 59.556,35.063 56.337,33.327 C54.392,32.277 52.815,31.927 50.626,32.103 C48.806,32.249 47.089,32.575 45.239,32.597 C40.681,32.652 36.097,31.117 32.253,28.724 C27.619,25.838 23.952,21.683 21.49,16.823 C19.751,13.39 17.383,10.206 14.376,7.78 C13.38,6.977 11.871,5.912 10.658,5.44 L2.22,2.231 L11.143,0.844 C27.653,-1.722 43.319,1.375 55.876,12.803 C62.932,19.225 68.319,27.739 71.781,36.658 C75.323,27.537 80.857,18.851 88.177,12.359 C100.684,1.267 116.162,-1.683 132.417,0.844 L141.34,2.231 L132.9,5.441 C131.76,5.874 130.259,6.927 129.322,7.671 C126.25,10.107 123.834,13.34 122.07,16.823 C119.608,21.683 115.941,25.838 111.307,28.724 C107.463,31.117 102.879,32.652 98.321,32.597 C96.471,32.575 94.754,32.248 92.934,32.102 C90.869,31.937 89.352,32.231 87.495,33.184 C84.73,34.601 81.896,37.15 79.514,39.551 C80.176,40.309 80.701,41.179 81.062,42.122 C87.265,41.351 93.657,41.38 99.816,42.388 C106.331,37.744 114.074,35.332 122.007,34.598 C127.82,34.06 134.559,34.368 140.236,35.844 C142.142,36.338 143.99,37.058 145.761,37.913 C149.757,39.843 153.519,42.528 156.877,45.419 C158.454,46.778 160.098,48.288 161.506,49.829 L161.921,50.283 L162.065,50.881 C162.31,51.896 162.239,53.129 161.891,54.104 C161.01,56.578 158.672,57.525 156.2,57.492 L155.229,57.479 L154.542,56.792 C154.304,56.555 154.065,56.318 153.822,56.082 L153.822,56.875 C153.822,57.446 153.711,58.083 153.542,58.661 C153.994,66.862 156.769,74.489 161.261,81.306 C165.591,81.596 171.092,81.088 175.108,80.181 C180.055,79.064 188.417,77.265 192.257,81.51 C194.539,84.031 196.594,88.557 197.774,91.932 L204.267,99.806 C207.993,100.941 211.732,102.714 214.89,104.961 C216.998,106.461 220.182,109.127 220.423,111.903 C220.494,112.72 220.336,113.532 219.927,114.246 C217.294,118.829 207.44,115.78 203.819,113.744 C200.521,111.888 195.487,111.332 191.774,111.662 C189.49,111.864 187.141,112.412 185.099,113.479 C178.088,117.144 171.566,117.267 163.937,118.376 C162.227,118.625 160.533,119.071 158.908,119.657 C155.153,121.012 148.541,124.641 147.633,128.953 C146.668,133.537 144.147,138.849 141.956,142.981 C140.412,145.894 138.711,148.781 136.837,151.495 C135.307,153.71 134.59,156.945 134.221,159.575 C133.866,162.102 133.746,164.678 133.734,167.228 C133.727,168.985 133.811,170.735 133.811,172.486 C133.811,173.354 133.903,174.269 133.962,175.137 C134.05,176.425 134.118,177.716 134.105,179.008 C134.065,182.667 133.319,187.224 129.326,188.554 C127.852,189.045 126.315,189.212 124.856,188.569 C123.003,187.753 121.965,185.918 121.078,184.201 C119.922,181.962 118.883,179.769 117.577,177.597 C115.311,173.827 114.372,169.346 114.239,164.988 C114.183,163.129 114.254,161.036 114.535,159.141 L112.639,154.042 C109.891,152.758 106.649,151.464 105.098,148.819 C104.294,147.447 104.075,145.971 104.245,144.481 C92.805,137.226 81.87,126.933 74.321,115.855 C68.306,107.027 64.047,97.243 62.272,86.677 C60.168,74.154 61.749,61.763 65.953,49.873 C65.949,49.867 65.946,49.862 65.943,49.857 L65.943,49.857 Z" id="Fill-126" fill="#1A1919" mask="url(#mask-2)"></path>
            </g>
            <path d="M185.164,100.886 C226.679,100.886 258.163,140.448 248.091,180.59 C247.128,184.639 245.788,188.542 244.104,192.256 C236.911,208.932 220.843,231.471 185.164,253.543 C149.484,231.471 133.416,208.932 126.223,192.256 C124.539,188.542 123.199,184.639 122.236,180.59 C112.163,140.448 143.648,100.886 185.164,100.886" id="Fill-128" fill="#1A1919"></path>
            <path d="M185.164,250.502 C207.906,236.219 230.904,216.341 241.754,191.19 C243.389,187.583 244.629,183.805 245.588,179.965 C249.847,162.909 246.415,145.203 236.49,130.75 C224.838,113.782 205.807,103.467 185.164,103.467 C164.52,103.467 145.488,113.782 133.837,130.75 C123.912,145.203 120.48,162.909 124.74,179.965 C125.698,183.805 126.938,187.583 128.593,191.234 C139.423,216.343 162.42,236.219 185.164,250.502" id="Fill-129" fill="#008AC4"></path>
            <path d="M185.163,212.639 C211.539,212.639 233.05,191.127 233.05,164.752 C233.05,138.377 211.539,116.866 185.163,116.866 C158.789,116.866 137.277,138.377 137.277,164.752 C137.277,191.127 158.789,212.639 185.163,212.639" id="Fill-130" fill="#1A1919"></path>
            <g id="Group-134" transform="translate(5.428000, 2.388183)">
                <path d="M179.735,207.636817 C204.671,207.636817 225.009,187.299817 225.009,162.363817 C225.009,137.427817 204.671,117.090817 179.735,117.090817 C154.801,117.090817 134.463,137.427817 134.463,162.363817 C134.463,187.299817 154.801,207.636817 179.735,207.636817" id="Fill-131" fill="#FFFFFE"></path>
                <path d="M66.851,43.9098174 C91.322,48.5368174 88.859,53.3628174 92.471,59.7978174 C96.085,66.2328174 104.788,71.8638174 115.791,71.2608174 C126.794,70.6578174 132.704,75.4838174 132.704,75.4838174 C114.64,28.8268174 66.851,43.9098174 66.851,43.9098174 Z M66.352,42.0618174 C66.352,42.0618174 77.185,-6.86518256 126.622,0.818817435 C126.622,0.818817435 119.488,3.52481744 114.509,13.3548174 C109.53,23.1848174 100.302,27.9068174 92.922,27.8178174 C85.542,27.7298174 82.594,23.1828174 66.352,42.0618174 C66.352,42.0618174 55.52,-6.86518256 6.082,0.818817435 C6.082,0.818817435 13.217,3.52481744 18.195,13.3548174 C23.174,23.1848174 32.403,27.9068174 39.782,27.8178174 C47.161,27.7298174 50.11,23.1828174 66.352,42.0618174 Z M65.853,43.9098174 C65.853,43.9098174 18.064,28.8278174 8.8817842e-16,75.4838174 C8.8817842e-16,75.4838174 5.91,70.6578174 16.913,71.2608174 C27.916,71.8638174 36.619,66.2328174 40.233,59.7978174 C43.846,53.3628174 41.382,48.5368174 65.853,43.9098174 L65.853,43.9098174 Z" id="Fill-133" fill="#9EC73D"></path>
            </g>
            <path d="M149.889,47.489 C149.889,47.489 143.378,41.729 132.357,45.375 C121.335,49.02 105.33,60.515 106.206,72.056 C107.081,83.597 122.06,103.152 122.06,103.152 C122.06,103.152 143.055,88.296 153.711,92.614 C164.368,96.933 167.891,96.537 167.891,96.537 C167.891,96.537 145.113,78.79 149.889,47.489" id="Fill-135" fill="#1A1919"></path>
            <path d="M149.428,46.982 C149.428,46.982 143.791,75.714 163.379,93.098 L166.435,96.346 L173.031,97.207 C173.031,97.207 146.82,79.394 151.688,48.732 L150.348,47.996 L149.428,46.982" id="Fill-136" fill="#777776"></path>
            <path d="M145.134,48.012 C145.44,48.476 145.741,48.894 145.906,49.115 C147.202,50.851 148.7,52.509 150.205,54.064 C151.064,54.953 151.946,55.822 152.848,56.667 L153.414,57.197 L153.503,57.968 C153.646,59.215 153.376,60.713 152.799,61.818 C151.29,64.708 148.163,65.138 145.237,64.541 L144.433,64.378 L143.951,63.716 C142.419,61.617 140.566,59.447 138.734,57.618 C137.9,56.785 135.456,54.49 133.993,54.087 C134.315,55.104 135.311,56.63 135.743,57.174 C137.644,59.57 139.668,61.912 141.65,64.244 L142.357,65.075 L142.088,66.132 C141.113,69.969 137.89,73.098 133.677,72.288 L132.866,72.132 L132.375,71.466 C130.046,68.305 126.948,64.944 123.416,63.116 C121.416,62.08 118.953,61.396 116.772,62.291 C112.17,64.178 111.615,71.509 111.805,75.667 C112.099,82.096 115.111,87.953 119.169,92.817 C121.067,95.092 123.718,97.769 126.168,99.49 L128.691,101.263 L106.528,116.068 L105.322,115.11 C103.696,113.819 102.084,112.265 100.631,110.791 C97.208,107.313 94.076,103.459 91.445,99.348 C83.978,87.678 80.961,74.481 86.031,61.166 C90.883,48.422 100.243,39.929 113.38,36.402 C121.554,34.207 131.921,33.971 140.166,36.113 C142.054,36.603 143.885,37.316 145.64,38.164 C149.614,40.083 153.356,42.754 156.695,45.63 C158.264,46.982 159.9,48.483 161.3,50.017 L161.667,50.418 L161.794,50.946 C162.026,51.909 161.959,53.086 161.629,54.011 C160.789,56.369 158.553,57.245 156.204,57.214 L155.27,57.201 L154.65,56.501 C152.876,54.497 150.848,52.482 148.826,50.739 C148.143,50.15 146.535,48.83 145.134,48.012" id="Fill-137" fill="#1A1919"></path>
            <path d="M106.635,113.456 C106.635,113.456 77.266,90.124 88.005,61.918 C98.744,33.712 129.182,35.441 139.635,38.157 C150.088,40.873 159.741,51.441 159.741,51.441 C159.741,51.441 160.634,55.161 156.232,55.102 C156.232,55.102 147.545,45.264 143.365,45.206 C139.238,45.15 145.795,52.954 151.404,58.208 C151.404,58.208 152.042,63.771 145.658,62.472 C145.658,62.472 137.913,51.87 133.561,51.915 C130.138,51.95 132.409,56.371 134.088,58.487 C135.768,60.604 140.041,65.612 140.041,65.612 C140.041,65.612 138.652,71.093 134.076,70.214 C122.079,53.925 108.854,57.368 109.695,75.764 C110.391,90.978 124.954,101.219 124.954,101.219 L106.635,113.456" id="Fill-138" fill="#9E9F9E"></path>
            <path d="M125.186,36.72 C125.186,36.72 132.01,35.808 137.645,37.492 C137.645,37.492 131.58,41.398 128.28,40.962 C124.979,40.526 125.186,36.72 125.186,36.72 Z M104.849,54.757 C104.849,54.757 91.948,52.357 91.499,61.207 C91.049,70.057 99.898,72.607 102.898,69.307 C105.898,66.007 110.398,55.356 104.849,54.757 L104.849,54.757 Z" id="Fill-139" fill="#1A1919"></path>
            <path d="M108.866,144.468 C108.866,144.468 40.689,107.719 71.89,41.719 L75.039,43.519 C75.039,43.519 48.083,98.407 114.285,130.138 L110.586,138.47 L108.866,144.468" id="Fill-140" fill="#73614A"></path>
            <path d="M114.511,158.426 C114.789,156.974 115.191,155.476 115.592,154.054 C116.594,150.504 117.828,146.998 119.25,143.594 C123.467,133.495 129.535,123.89 137.684,116.505 C152.972,102.649 174.289,98.49 194.302,98.18 C200.304,98.086 206.539,99.935 211.765,102.834 C214.726,104.477 220.237,108.142 220.563,111.891 C220.637,112.736 220.472,113.577 220.048,114.315 C217.367,118.982 207.456,115.95 203.751,113.866 C200.478,112.024 195.471,111.474 191.787,111.801 C189.522,112.002 187.19,112.545 185.164,113.603 C178.132,117.279 171.608,117.402 163.958,118.515 C162.257,118.763 160.572,119.206 158.956,119.789 C155.255,121.124 148.666,124.729 147.77,128.982 C146.802,133.579 144.277,138.902 142.08,143.047 C140.533,145.964 138.83,148.856 136.953,151.574 C135.437,153.77 134.725,156.989 134.359,159.594 C134.006,162.115 133.886,164.685 133.875,167.229 C133.867,168.986 133.951,170.735 133.951,172.486 C133.951,173.351 134.043,174.263 134.102,175.127 C134.19,176.42 134.258,177.713 134.244,179.01 C134.205,182.736 133.43,187.334 129.37,188.688 C127.862,189.19 126.292,189.355 124.799,188.697 C122.91,187.866 121.857,186.016 120.954,184.266 C119.799,182.029 118.762,179.838 117.458,177.669 C115.169,173.862 114.224,169.339 114.096,164.938 C114.038,162.907 114.127,160.439 114.511,158.426" id="Fill-141" fill="#1A1919"></path>
            <path d="M116.997,158.901 C116.997,158.901 115.146,168.913 119.626,176.365 C124.107,183.817 124.07,187.786 128.57,186.287 C133.07,184.787 131.42,175.637 131.42,172.486 C131.42,169.336 130.52,156.436 134.87,150.136 C139.22,143.836 144.094,134.161 145.294,128.461 C146.494,122.761 155.343,117.21 163.593,116.011 C171.843,114.811 177.392,114.811 183.991,111.36 C190.592,107.911 200.191,108.96 204.992,111.66 C209.792,114.36 218.342,115.56 218.042,112.11 C217.741,108.66 206.231,100.526 194.342,100.71 C182.452,100.895 157.031,102.386 139.383,118.38 C121.735,134.375 116.997,158.901 116.997,158.901" id="Fill-142" fill="#8FD1E9"></path>
            <path d="M112.474,130.318 L105.895,116.848 L139.792,85.461 L166.339,88.207 L188.696,81.997 L209.756,107.54 L204.771,106.324 C202.907,105.869 200.878,105.56 198.981,105.306 C194.223,104.667 189.368,104.416 184.57,104.566 C171.074,104.988 157.676,108.638 147.154,117.426 C137.178,125.757 129.89,136.629 125.343,148.756 C123.888,152.635 122.703,156.66 121.871,160.72 C121.555,162.261 121.239,163.937 121.095,165.507 L120.408,172.971 L109.197,142.828 L112.474,130.318" id="Fill-143" fill="#1A1919"></path>
            <path d="M119.396,165.351 L110.985,142.738 L114.285,130.138 L107.985,117.238 L140.385,87.238 L166.485,89.938 L188.085,83.938 L205.175,104.666 C205.175,104.666 170.035,96.093 146.06,116.116 C122.085,136.139 119.396,165.351 119.396,165.351" id="Fill-144" fill="#EEA26E"></path>
            <path d="M115.026,146.516 L116.679,158.048 L113.589,154.231 C110.757,152.83 106.978,151.553 105.304,148.697 C103.832,146.187 104.428,143.362 105.582,140.863 C106.141,139.652 106.279,138.046 106.278,136.728 C106.278,134.952 105.94,131.796 105.25,130.141 C104.856,129.197 104.356,128.251 103.939,127.305 C103.231,125.7 102.599,124.043 102.155,122.344 C101.382,119.382 101.115,115.941 102.895,113.271 C103.568,112.262 104.452,111.256 105.253,110.346 C106.516,108.911 107.828,107.512 109.153,106.135 C112.627,102.524 116.243,99.014 119.943,95.637 C123.273,92.597 126.729,89.6 130.33,86.886 C132.792,85.031 136.18,82.615 139.125,81.666 C145.264,79.689 149.718,79.333 155.972,80.668 C156.725,80.829 157.477,80.999 158.231,81.16 C162.82,82.133 170.583,81.449 175.161,80.415 C180,79.323 188.323,77.519 192.079,81.67 C194.437,84.276 196.55,89.05 197.692,92.431 L200.812,99.373 L194.277,94.77 C192.96,93.677 189.357,91.464 187.627,92.727 C186.566,93.499 185.692,94.394 184.713,95.25 C181.813,97.787 178.699,98.549 174.941,99.046 C167.327,100.051 159.046,99.34 153.044,105.069 C148.026,109.86 138.508,118.509 131.937,120.01 C129.785,120.502 127.583,125.721 126.831,127.541 C126.119,129.262 125.475,131.008 124.783,132.737 C124.227,134.128 123.579,135.735 122.736,136.974 C121.725,138.461 120.417,139.778 119.149,141.048 C118.015,142.186 115.279,144.72 115.026,146.516" id="Fill-145" fill="#1A1919"></path>
            <path d="M107.535,141.764 C109.335,137.864 107.985,131.114 107.235,129.314 C106.484,127.514 101.685,118.964 104.685,114.464 C107.685,109.964 130.935,86.563 139.784,83.714 C148.634,80.864 152.834,82.213 157.784,83.264 C162.734,84.313 170.984,83.563 175.635,82.514 C180.284,81.463 187.635,79.963 190.484,83.113 C193.335,86.264 196.705,93.494 196.705,93.494 C196.705,93.494 189.96,88.364 186.359,90.989 C182.76,93.614 182.609,95.864 174.66,96.914 C166.71,97.964 158.159,97.214 151.56,103.514 C144.96,109.814 136.708,116.714 131.458,117.914 C126.208,119.114 123.507,132.015 120.958,135.765 C118.407,139.515 112.856,142.934 112.857,146.774 L114.13,152.716 C109.206,150.28 104.388,148.581 107.535,141.764" id="Fill-146" fill="#9EC73D"></path>
            <polyline id="Fill-147" fill="#1A1919" points="158.718 153.082 171.446 140.353 185.978 160.612 200.509 140.353 214.266 154.11 194.006 168.642 214.266 183.173 201.537 195.901 187.006 175.218 172.475 195.9 158.718 182.144 179.401 167.613 158.718 153.082"></polyline>
            <path d="M73.084,53.497 C77.669,53.497 81.409,49.756 81.409,45.171 C81.409,40.586 77.669,36.846 73.084,36.846 C68.499,36.846 64.758,40.586 64.758,45.171 C64.758,49.756 68.499,53.497 73.084,53.497" id="Fill-148" fill="#1A1919"></path>
            <path d="M73.084,51.321 C76.471,51.321 79.234,48.559 79.234,45.171 C79.234,41.784 76.471,39.021 73.084,39.021 C69.696,39.021 66.934,41.784 66.934,45.171 C66.934,48.559 69.696,51.321 73.084,51.321" id="Fill-149" fill="#C8A564"></path>
            <polyline id="Fill-150" fill="#D8232A" points="158.117 149.706 170.846 136.978 185.377 157.237 199.908 136.978 213.665 150.735 193.406 165.266 213.665 179.798 200.937 192.526 186.406 171.842 171.875 192.525 158.118 178.769 178.801 164.237 158.117 149.706"></polyline>
            <path d="M127.415,207.125 L140.015,199.325 L151.415,213.726 L139.715,224.826 C139.715,224.826 131.315,219.726 127.415,207.125" id="Fill-151" fill="#1A1919"></path>
            <polyline id="Fill-152" fill="#1A1919" points="143.54 197.075 154.715 211.025 162.642 199.135 154.865 190.325 143.54 197.075"></polyline>
            <path d="M127.011,204.414 L139.611,196.613 L151.011,211.014 L139.311,222.114 C139.311,222.114 130.911,217.014 127.011,204.414" id="Fill-153" fill="#D8232A"></path>
            <polyline id="Fill-154" fill="#D8232A" points="143.136 194.363 154.311 208.313 162.238 196.423 154.461 187.613 143.136 194.363"></polyline>
            <path d="M241.191,126.475 L229.53,135.619 L216.609,122.566 L227.012,110.242 C227.012,110.242 235.924,114.383 241.191,126.475" id="Fill-155" fill="#1A1919"></path>
            <polyline id="Fill-156" fill="#1A1919" points="226.274 138.245 213.627 125.614 205.412 136.958 215.765 146.205 226.274 138.245"></polyline>
            <path d="M241.267,123.7 L229.605,132.844 L216.685,119.791 L227.087,107.467 C227.087,107.467 235.999,111.608 241.267,123.7" id="Fill-157" fill="#D8232A"></path>
            <polyline id="Fill-158" fill="#D8232A" points="226.35 135.47 213.702 122.839 205.487 134.183 215.84 143.429 226.35 135.47"></polyline>
            <path d="M227.176,230.998 L222.117,228.572 L223.933,233.88 C224.876,236.639 224.939,240.68 223.482,243.272 C219.318,250.683 227.964,255.211 231.79,250.375 C233.938,247.661 233.852,242.17 233.061,238.949 C232.546,236.856 231.624,234.835 230.163,233.231 C229.315,232.301 228.312,231.542 227.176,230.998 Z M230.444,224.91 C231.941,225.019 233.64,224.846 235.117,224.587 C238.022,224.079 240.96,222.968 243.108,220.886 C250.589,213.639 258.353,222.34 253.967,228.182 C251.346,231.674 244.375,233.349 240.194,233.418 C235.804,233.492 231.408,232.223 228.482,228.782 L224.844,224.503 L230.444,224.91 L230.444,224.91 Z" id="Fill-159" fill="#1A1919"></path>
            <path d="M226.159,233.119 C226.159,233.119 228.323,239.461 225.533,244.425 C222.744,249.39 227.949,251.437 229.944,248.915 C231.94,246.393 232.254,236.042 226.159,233.119 Z M230.274,227.257 C230.274,227.257 239.252,227.898 244.745,222.576 C250.238,217.254 254.678,223.315 252.085,226.77 C249.492,230.224 236.156,234.173 230.274,227.257 L230.274,227.257 Z" id="Fill-160" fill="#008AC4"></path>
            <path d="M266.065,233.579 C264.991,233.965 263.848,234.04 262.887,233.267 C260.576,231.408 262.861,228.115 264.071,226.327 C265.794,223.783 268.033,221.545 270.448,219.644 C270.418,216.73 269.896,213.083 268.788,210.461 C266.98,207.505 265.168,204.551 263.362,201.593 C262.218,199.72 261.075,197.845 259.937,195.968 C259.27,194.867 258.588,193.774 257.952,192.654 C257.436,191.744 257.182,190.599 257.18,189.557 C257.178,188.458 257.455,187.359 258.11,186.465 C260.501,183.205 264.98,185.187 267.688,186.867 C270.348,188.518 272.801,189.757 275.924,190.261 C278.309,190.646 280.712,190.834 283.082,191.328 C287.28,192.204 291.641,195.49 294.372,198.72 C298.398,203.478 300.295,209.31 299.813,215.508 C301.998,219.99 302.557,225.074 300.608,229.757 C299.817,231.658 298.683,234.259 296.253,234.288 C295.184,234.301 294.62,233.936 293.752,233.431 C293.205,233.113 292.844,233.066 292.295,233.218 C286.573,240.097 278.343,244.78 270.041,247.843 C266.229,249.25 262.113,250.484 258.093,251.212 C255.059,260.964 252.328,261.179 244.15,261.062 C245.252,259.618 247.393,257.694 247.373,255.848 C247.361,254.609 247.741,253.32 248.287,252.175 C247.346,251.437 246.634,250.506 246.263,249.309 C245.788,247.775 246.033,246.313 245.84,244.779 C245.61,242.952 244.693,241.511 243.483,240.166 L240.249,236.57 L245.075,236.27 C248.614,236.049 251.837,237.691 254.255,240.188 C254.871,240.824 255.456,241.528 255.981,242.259 C259.877,240.042 263.445,237.206 266.065,233.579" id="Fill-161" fill="#1A1919"></path>
            <path d="M270.869,209.384 C270.869,209.384 280.896,232.285 255.147,245.36 C255.147,245.36 251.622,238.204 245.221,238.603 C251.265,245.321 245.189,248.684 251.549,251.348 C251.549,251.348 249.689,253.612 249.711,255.824 C249.733,258.036 249.122,258.605 248.503,258.943 C251.708,260.229 255.734,252.292 256.188,249.155 C256.188,249.155 279.243,245.806 290.9,231.229 C295.893,229.206 295.728,235.401 298.45,228.859 C300.664,223.539 298.777,218.526 297.423,215.966 C298.837,202.664 288.055,194.754 282.605,193.617 C275.922,192.222 273.867,193.452 266.455,188.853 C259.043,184.255 258.954,189.684 259.985,191.5 C261.016,193.316 270.869,209.384 270.869,209.384" id="Fill-162" fill="#4D9EA1"></path>
            <path d="M275.86,218.782 C275.86,218.782 276.26,211.867 270.642,209.013 C270.642,209.013 276.616,221.49 268.232,234.566 C268.232,234.566 273.087,228.507 274.321,225.59 C275.556,222.673 275.86,218.782 275.86,218.782" id="Fill-163" fill="#A4D8DF"></path>
            <path d="M275.86,218.782 C275.86,218.782 269.748,222.111 266.007,227.638 C262.266,233.165 265.448,231.306 266.332,230.9 C267.216,230.496 272.123,229.318 272.123,229.318 C272.123,229.318 275.921,224.877 275.86,218.782" id="Fill-164" fill="#4D9EA1"></path>
            <path d="M276.604,200.529 C276.604,200.529 282.453,201.129 280.953,206.379 C280.953,206.379 282.903,203.642 281.328,201.617 C279.753,199.592 276.604,200.529 276.604,200.529" id="Fill-165" fill="#1A1919"></path>
        </g>
    </g>
</svg>