<svg height="141" viewBox="0 0 90 141" width="90" xmlns="http://www.w3.org/2000/svg"><g fill="none" fill-rule="evenodd"><path d="m33.5.5c5.249836 0 10.0037167 2.01696904 13.444452 5.2812564 3.4309569 3.25501034 5.555548 7.7510605 5.555548 12.7187436 0 5.4224243-2.5313247 10.2825747-6.5297474 13.5806912-1.7103639 5.5341675-5.7442657 9.8401218-10.9904524 11.9708818-3.6690786 4.5828762-9.2224751 7.448427-15.4798002 7.448427-5.249836 0-10.0037167-2.016969-13.44445202-5.2812564-3.43095684-3.2550103-5.55554798-7.7510605-5.55554798-12.7187436 0-3.6533341 1.14895228-7.0519575 3.12187394-9.8890747 2.03910237-2.9322868 4.95763964-5.2650496 8.39832586-6.6624983 1.0281607-1.2071591 1.9691669-2.1709556 3.0095476-3.0291182 1.2866989-4.08659962 3.7228745-7.40969409 6.9818124-9.75715949 3.191484-2.2988773 7.1722594-3.66214931 11.4884402-3.66214931z" fill="#fff" stroke="#fff" transform="translate(15 70)"/><g transform="translate(.39359 .331288)"><path d="m57.8174101 73.7587124c.113.31.254.648.451.959l1.325-.705c-.62-.113-1.212-.226-1.776-.254zm-16.215 9.673.564-.31c0-.31-.029-.621-.057-.931-.367.761-.507 1.241-.507 1.241z" fill="#222"/><path d="m11.4554101 46.6287124c3.102-5.64 6.289-10.039 9.447-13.508h.028c12.324-13.508 23.774-12.464 23.915-12.464.253.056.507 0 .733-.113 3.186-1.382 5.301-3.469 6.289-6.204.76-2.031.733-4.089.479-5.78100001 2.594 2.59400001 2.764 6.31700001 2.764 6.51400001.028.564.366 1.072.874 1.269.536.197 1.128.084 1.522-.282 3.695-3.554 3.582-7.92500001 2.398-11.33700001 2.651 1.749 4.484 3.948 5.471 6.54300001 2.369 6.289-.903 12.944-.958 13-.311.649-.114 1.41.478 1.805 11.958 8.009 18.98 17.231 20.926 27.44-15.85-2.877-26.453 2.566-26.905 2.82l-.083.056-.254.198-.142.197-.141.254-.085.141c-.451 1.636-.197 4.878-.055 6.091-1.439 3.807-1.552 7.333-.339 10.491.564.028 1.156.141 1.776.254l-1.325.705c.085.225.197.423.311.648 1.776 3.215 4.794 5.415 7.783 6.853.564 2.482 2.227 13.085-9.109 22.7579996l-.226.226c-.366.508-.366 1.241.057 1.748.282.339.676.508 1.099.508.311 0 .65-.113.903-.338.846-.734 1.636-1.467 2.369-2.228 2.2 3.694 2.933 7.671 3.046 8.403-.79 1.1-1.58 2.172-2.285 3.159-3.891-1.41-7.219-3.751-8.742-4.935-.564-.423-.874-.705-.902-.705-.423-.395-.987-.479-1.495-.254-.169.085-.338.197-.48.338-6.598 7.276-15.651 8.884-15.764 8.912l-.141.056-.084.028h-.028c-.593.198-.988.79-.903 1.439.451 4.568-.959 8.178-1.241 8.827-.789 0-1.551-.029-2.425.028-.987.056-1.918.141-2.792.253l-.028-.14c-.846-1.833-1.693-4.541-2.059-5.894 1.269-1.1 2.453-2.284 3.554-3.553l.084-.085c7.558-8.489 11.619-19.713 12.944-28.9349996.452-3.13.593-6.063.452-8.713l-.564.31s.14-.48.507-1.241c-.367-4.653-1.636-8.375-3.722-10.603-2.398-2.567-4.822-3.836-7.107-4.343-6.035-1.411-10.97 2.594-11.026 2.651-.593.479-.677 1.353-.198 1.974.508.591 1.382.676 2.002.197.028-.028.113-.085.254-.197 1.382-1.016 7.783-5.02 14.044 1.635 2.735 2.961 3.723 9.814 2.566 17.908-1.579 10.9699996-7.727 26.2269996-19.825 34.0379996-.62-1.043-1.41-2.764-1.579-4.653 6.486-7.276 7.953-20.135 8.037-20.784.085-.7619996-.479-1.4669996-1.241-1.5509996-.761-.085-1.466.479-1.551 1.269-.028.141-1.466 12.4929996-7.247 19.1199996-.367.141-.649.451-.79.846-.395.395-.818.762-1.241 1.072-1.015-3.835-2.566-14.016 4.512-25.5499996.423-.677.226-1.552-.451-1.946-.649-.423-1.523-.198-1.946.451-4.343 7.1069996-5.69599998 13.6769996-5.83699998 18.8389996l-2.172 1.579c-.874-3.074-2.058-9.814.79-17.4849996.451-.113.846-.338 1.043-.79.169-.451.085-.93-.169-1.325 1.04299998-2.228 2.45299998-4.512 4.34299998-6.825.507-.592.423-1.466-.169-1.974-.621-.507-1.495-.423-2.003.198-1.83299998 2.199-3.21499998 4.456-4.31399998 6.655-.818-1.043-1.72-2.622-2.51-4.879-1.861-5.217-4.879-19.684 6.85299998-41.089m18.697 86.3799996c.762-.028 1.495-.056 2.171-.056 7.84 0 10.745 2.397 11.45 3.186l.113.113c.31.367.451.677.479.846-.084-.056-.338-.084-.705-.225h-.028c-5.217-2.059-11.337-2.426-11.59-2.454h-.085c-.198 0-1.89 0-4.484.536-1.269.254-2.764.62-4.4 1.184-2.735.931-4.173.564-4.399.339.085-.226 1.297-1.636 5.161-2.623 1.607-.395 3.666-.705 6.317-.846m30.936-10.547.198-.197c.225-.283 5.386-6.74 8.488-11.788 2.792-4.541 3.554-5.528 4.682-5.472-.283.988-1.354 2.905-1.974 4.005-1.636 2.905-2.849 5.02-1.157 6.148 1.184.789 2.736.028 5.301-1.241 1.242-.621 3.949-1.946 5.021-1.946.112 0 .226.028.31.056.423 1.016-3.525 3.498-11.816 7.361l-1.552.705c-2.368 1.128-4.117 2.453-5.499 3.554-2.424 1.86-3.214 2.312-4.456 1.607.254-.621 1.355-1.861 2.454-2.792m-.056-48.4489996c-1.213-2.172-1.523-4.654-.931-7.389 1.833 2.651 4.936 4.738 9.447 6.374 4.513 1.635 6.007 6.401 6.487 9.672-.818-.479-1.805-.874-3.046-1.099-2.989-.536-9.306-2.821-11.957-7.558m9.475-3.666c-7.191-2.595-9.983-6.092-9.56-11.845 2.594-1.128 12.183-4.681 25.297-2.059 1.043 11.309-4.287 21.039-7.446 25.691-.591-3.919-2.453-9.673-8.291-11.787m-68.58399998 18.33c1.043 2.905 2.453 5.302 3.92 6.74-4.371 11.3649996-.48 21.0659996-.254 21.5739996.169.395.507.705.902.818.141.028.254.056.395.056.282 0 .593-.112.818-.282l2.143-1.579c.30999998 4.456 1.43899998 7.248 1.55099998 7.501.142.367.452.649.818.79.169.056.31.084.479.084.226 0 .452-.056.677-.169.592-.338 1.157-.705 1.692-1.1.79 2.905 2.426 5.02 2.51 5.133.283.339.705.536 1.128.536.226 0 .48-.057.705-.197 1.157-.677 2.257-1.467 3.328-2.257.423 1.326 1.015 3.074 1.636 4.541-2.087.423-3.751 1.015-5.02 1.663-1.805.903-2.82 1.974-3.215 2.99-.423 1.044-.225 2.115.48 2.877 1.325 1.409 4.004 1.55 7.36.422 4.343-1.466 7.586-1.579 7.953-1.579.366.029 3.271.226 6.571 1.016 1.353.31 2.792.705 4.117 1.24.677.282 1.297.367 1.804.367 1.129 0 1.805-.536 2.087-.846.79-.818.931-2.087.339-3.328-.339-.761-.987-1.523-1.889-2.256-1.89-1.467-5.02-2.736-9.561-3.13.536-1.523 1.297-4.428 1.157-7.981 2.763-.677 9.532-2.848 15.2-8.545.197.141.395.31.649.479 1.691 1.298 4.597 3.187 8.009 4.54-.593.79-1.044 1.355-1.241 1.58-1.157.987-3.553 3.243-3.413 5.246.029.761.451 1.438 1.128 1.889.988.62 1.918.902 2.764.902 1.89 0 3.497-1.241 5.161-2.538 1.354-1.043 2.904-2.256 4.963-3.215l1.551-.733c7.388-3.441 15.031-6.994 13.142-11.083-.31-.705-.846-1.213-1.58-1.467-1.973-.705-4.794.677-7.501 2.003-.423.197-.902.451-1.353.648.309-.564.648-1.156.902-1.635 1.805-3.215 2.876-5.245 2.228-6.768-.254-.621-.761-1.044-1.439-1.241-3.694-.987-5.245 1.551-8.347 6.627-.225.339-.479.733-.705 1.1-.564-2.031-1.579-4.794-3.271-7.36 6.345-7.6999996 6.515-15.3139996 6.035-19.2329996 1.128.394 2.199.676 3.046.817 2.791.508 3.947 2.312 3.976 2.398l.084.084c.084.113.198.226.311.31l.112.085c.169.085.339.141.508.169l.084.028h.113c.395 0 .762-.169 1.016-.423l.056-.056c.507-.564 12.465-14.383 10.18-31.952-1.494-11.477-8.713-21.771-21.489-30.57.959-2.425 2.764-8.319.565-14.128-1.693-4.51200001-5.387-7.92500001-10.943-10.18100001-.592-.225-1.268-.056-1.663.451-.367.508-.367 1.213.028 1.72.169.226 3.751 4.908 1.861 9.27900001-.818-2.56600001-2.679-5.92200001-6.853-7.47400001-.536-.197-1.128-.056-1.522.367-.396.423-.48 1.043-.226 1.579.029.028 1.833 3.864.535 7.38900001-.705 1.861-2.199 3.356-4.455 4.428-2.51-.17-15.369-.029-28.314 16.13-2.509 3.131-5.02 6.853-7.44499998 11.281-12.324 22.42-9.052 37.845-7.078 43.429" fill="#222"/><g fill="#ea862c"><path d="m18.6744101 136.477712c.226.225 1.664.592 4.399-.339 1.636-.564 3.131-.93 4.4-1.184 2.594-.536 4.286-.536 4.484-.536h.085c.253.028 6.373.395 11.59 2.454h.028c.367.141.621.169.705.225-.028-.169-.169-.479-.479-.846l-.113-.113c-.705-.789-3.61-3.186-11.45-3.186-.676 0-1.409.028-2.171.056-2.651.141-4.71.451-6.317.846-3.864.987-5.076 2.397-5.161 2.623"/><path d="m58.6344101 125.253712c1.242.705 2.032.253 4.456-1.607 1.382-1.101 3.131-2.426 5.499-3.554l1.552-.705c8.291-3.864 12.239-6.345 11.816-7.361-.084-.027-.198-.056-.31-.056-1.072 0-3.779 1.325-5.02 1.946-2.566 1.269-4.118 2.03-5.302 1.241-1.692-1.128-.479-3.243 1.157-6.148.62-1.1 1.691-3.017 1.974-4.005-1.128-.056-1.89.931-4.682 5.472-3.102 5.047-8.263 11.505-8.488 11.788l-.198.197c-1.099.931-2.2 2.171-2.454 2.792"/><path d="m61.0324101 74.0127124c1.918 3.412 5.753 5.555 8.855 6.683l.029.029c1.184.422 2.255.704 3.073.846 1.241.225 2.228.62 3.046 1.099-.48-3.271-1.974-8.037-6.487-9.672-4.511-1.636-7.614-3.723-9.447-6.374-.592 2.735-.282 5.217.931 7.389"/><path d="m70.5074101 70.3467124c5.838 2.114 7.7 7.868 8.291 11.787 3.159-4.652 8.489-14.382 7.446-25.691-13.114-2.622-22.703.931-25.297 2.059-.423 5.753 2.369 9.25 9.56 11.845"/></g><path d="m25.1324101 124.407712c.366 1.353 1.213 4.061 2.059 5.894l.028.14c.874-.112 1.805-.197 2.792-.253.874-.057 1.636-.028 2.425-.028.282-.649 1.692-4.259 1.241-8.827-.085-.649.31-1.241.903-1.439-1.129.226-3.949.79-5.894.96-1.101 1.269-2.285 2.453-3.554 3.553" fill="#68ca5a"/><path d="m51.0774101 110.560712c.508-.225 1.072-.141 1.495.254.055.028 4.314 3.723 9.644 5.64.705-.987 1.495-2.059 2.285-3.159-.113-.732-.846-4.709-3.046-8.403-.733.761-1.523 1.494-2.369 2.228-.253.225-.592.338-.903.338-.423 0-.817-.169-1.099-.508-.423-.507-.423-1.24-.057-1.748z" fill="#68ca5a"/><path d="m27.2194101 130.441712-.028-.14c-.846-1.833-1.693-4.541-2.059-5.894 1.269-1.1 2.453-2.284 3.554-3.553 1.945-.17 4.765-.734 5.894-.96-.537.179-.912.683-.914 1.258-.001.06.003.12.011.181.062.625.088 1.231.088 1.815-.001 3.685-1.085 6.452-1.329 7.012-.395 0-.782-.007-1.181-.007-.398 0-.807.007-1.244.035-.987.056-1.918.141-2.792.253"/><path d="m62.2164101 116.454712c-5.33-1.917-9.589-5.612-9.644-5.64-.006-.005-.011-.01-.017-.015-.002-.002-.004-.004-.007-.006-.001-.001-.002-.002-.003-.003-.003-.003-.006-.006-.009-.009-.005-.004-.01-.008-.014-.012-.002-.001-.004-.003-.005-.004-.007-.005-.013-.011-.019-.016-.002-.001-.004-.003-.005-.004-.25-.203-.541-.305-.838-.308-.004 0-.008 0-.011 0-.001 0-.002 0-.003 0-.178 0-.357.037-.531.109-.011.004-.022.009-.033.014l5.95-5.358c-.178.246-.269.545-.268.845.001.32.107.642.325.903.282.339.676.508 1.099.508.311 0 .65-.113.903-.338.846-.734 1.636-1.467 2.369-2.228 2.2 3.694 2.933 7.671 3.046 8.403-.79 1.1-1.58 2.172-2.285 3.159"/><path d="m46.6774101 42.1737124c3.526-1.523 6.487-1.636 8.827-.31 3.441 1.917 4.034 6.12 4.061 6.317.113.761-.423 1.466-1.212 1.579h-.197c-.677 0-1.27-.508-1.382-1.213 0-.028-.452-3.017-2.651-4.258-1.523-.846-3.666-.677-6.317.479-.733.311-1.552-.028-1.862-.733s.028-1.551.733-1.861m-33.248 43.57c.592.508.676 1.382.169 1.974-1.89 2.313-3.3 4.597-4.34299998 6.825 0 0-.451.592-.62 1.043-.198.452-.254 1.072-.254 1.072-2.848 7.6709996-1.664 14.4109996-.79 17.4849996l2.172-1.579c.141-5.162 1.49399998-11.732 5.83699998-18.8389996.423-.649 1.297-.874 1.946-.451.677.394.874 1.269.451 1.946-7.078 11.5339996-5.527 21.7149996-4.512 25.5499996.423-.31.846-.677 1.241-1.072.141-.395.423-.705.79-.846 5.781-6.627 7.219-18.9789996 7.247-19.1199996.085-.79.79-1.354 1.551-1.269.762.084 1.326.789 1.241 1.5509996-.084.649-1.551 13.508-8.037 20.784.169 1.889.959 3.61 1.579 4.653 12.098-7.811 18.246-23.068 19.825-34.0379996 1.157-8.094.169-14.947-2.566-17.908-6.909-7.36-14.016-1.692-14.298-1.438-.62.479-1.494.394-2.002-.197-.479-.621-.395-1.495.198-1.974.084-.085 9.418-7.615 18.133 1.692 2.086 2.228 3.355 5.95 3.722 10.603 1.326-2.848 5.584-9.645 15.708-8.432-1.213-3.158-1.1-6.684.339-10.491-.142-1.213-.396-4.455.055-6.091l.085-.141.141-.254.142-.197.254-.198.083-.056c.423-.226 9.673-4.992 23.802-3.3 1.016.141 2.03.282 3.103.48-1.946-10.209-8.968-19.431-20.926-27.44-.592-.395-.789-1.156-.478-1.805.055-.056 3.327-6.711.958-13-.987-2.59500001-2.82-4.79400001-5.471-6.54300001 1.184 3.412 1.297 7.78300001-2.398 11.33700001-.394.366-.986.479-1.522.282-.508-.197-.846-.705-.874-1.269 0-.197-.17-3.92-2.764-6.51400001.254 1.69200001.281 3.75000001-.479 5.78100001-.988 2.735-3.103 4.822-6.289 6.204-.226.113-.48.169-.733.113-.17 0-18.218-1.664-33.39 25.972-11.73199998 21.405-8.71399998 35.872-6.85299998 41.089.79 2.257 1.692 3.836 2.51 4.879 1.099-2.199 2.481-4.456 4.31399998-6.655.508-.621 1.382-.705 2.003-.198" fill="#68ca5a"/><path d="m57.8174101 73.7587124c.113.31.254.648.451.959l1.325-.705c-.62-.113-1.212-.226-1.776-.254" fill="#222"/><path d="m41.6024101 83.4317124.564-.31c0-.31-.029-.621-.057-.931-.367.761-.507 1.241-.507 1.241" fill="#222"/><path d="m78.7984101 82.1337124c6.712-13.169 4.231-23.632 4.231-23.632-1.702-.686-4.722-.915-7.994-.915-6.542 0-14.088.915-14.088.915 1.922-.836 7.684-3.003 15.875-3.003 2.864 0 6.025.265 9.422.944.089.972.132 1.932.1330159 2.879.0099841 10.065-4.6920159 18.559-7.5790159 22.812" fill="#f2d5b4"/><path d="m76.0354101 82.6697124c-.818-.479-1.805-.874-3.046-1.099-.818-.142-1.889-.424-3.073-.846l-.029-.029s1.805-4.343-1.974-5.978c-3.75-1.636-7.473-6.007-7.812-8.094 1.833 2.651 4.936 4.738 9.447 6.374 4.513 1.635 6.007 6.401 6.487 9.672" fill="#e0582a"/><path d="m40.1104101 42.9037124c0 6.956 5.639 12.595 12.595 12.595s12.594-5.639 12.594-12.595-5.638-12.594-12.594-12.594-12.595 5.638-12.595 12.594" fill="#f5f5f2"/><path d="m45.9444101 44.0347124c.31.705 1.129 1.044 1.862.733 2.651-1.156 4.794-1.325 6.317-.479 2.199 1.241 2.651 4.23 2.651 4.258.112.706.705 1.213 1.382 1.213h.197c.789-.113 1.325-.818 1.212-1.579-.027-.198-.62-4.4-4.061-6.317-2.34-1.326-5.301-1.213-8.827.31-.705.31-1.043 1.156-.733 1.861" fill="#222"/><path d="m14.4184101 41.6427124c2.15-3.341 4.324-6.149 6.484-8.522h.012c-2.158 2.366-4.342 5.18-6.496 8.522" fill="#68ca5a"/><path d="m7.11241012 92.5967124c-.818-1.043-1.72-2.622-2.51-4.879-.787-2.206-1.781-6.066-1.77900302-11.405.00300302-7.287 1.86100302-17.33 8.632003-29.684.98-1.782 1.969-3.441 2.963-4.986 2.154-3.342 4.338-6.156 6.496-8.522h.016c-24.92899998 34.8-9.504 52.821-9.504 52.821-1.83299998 2.199-3.21499998 4.456-4.31399998 6.655"/><path d="m8.73941012 95.3527124c.201-.399.516-.81.516-.81s-.314.412-.516.81" fill="#55201a"/><path d="m7.59141012 114.142712c-.459-1.615-1.004-4.242-1.005-7.485 0-2.928.443-6.359 1.795-9.9999996 0 0 .061-.63.259-1.081.027-.072.061-.148.099-.224.202-.398.516-.81.516-.81 1.04299998-2.228 2.45299998-4.512 4.34299998-6.825-3.158 6.345-4.42799998 14.4389996-4.42799998 14.4389996 1.41099998-2.4529996 6.42999998-8.4319996 6.42999998-8.4319996-4.343 7.1069996-5.69599998 13.6769996-5.83699998 18.8389996z"/><path d="m13.4854101 120.769712c-.402-1.521-.889-4.039-.889-7.243.001-4.878 1.129-11.346 5.401-18.3069996-3.158 9.0799996-2.115 17.5129996-2.115 17.5129996 2.82-2.82 6.881-13.0009996 6.881-13.0009996-.028.141-1.466 12.4929996-7.247 19.1199996-.367.141-.649.451-.79.846-.395.395-.818.762-1.241 1.072"/><path d="m19.0974101 125.450712c-.62-1.043-1.41-2.764-1.579-4.653 6.486-7.276 7.953-20.135 8.037-20.784.874 5.95-2.622 18.02-2.622 18.02 6.317-6.542 11.083-21.6859996 11.647-34.6019996.422-9.786-8.094-11.365-12.268-11.562.786-.578 3.196-2.123 6.28-2.123 2.338 0 5.065.889 7.764 3.758 1.977 2.14 3.041 6.312 3.0420048 11.516.0009952 1.998-.1550048 4.147-.4760048 6.392-1.579 10.9699996-7.727 26.2269996-19.825 34.0379996"/><path d="m85.8214101 53.5107124c-.462-.085-.914-.16-1.359-.229-.142-.022-.284-.043-.425-.064-.442-.065-.88-.126-1.319-.187-.112-2.03-1.692-13.621-22.899-28.116 0 0 5.781-7.558 2.933-13.875 0 0-1.325 4.174-5.246 5.02 2.309-2.221 3.131-4.761 3.134-7.18700001.002-1.456-.292-2.87-.736-4.15 2.651 1.749 4.484 3.948 5.471 6.54300001.629 1.67.86 3.367.86 4.958-.002 4.401-1.778 8.001-1.818 8.042-.099.205-.146.422-.146.635-.001.459.219.9.624 1.17 11.958 8.009 18.98 17.231 20.926 27.44" fill="#7fedc2"/></g></g></svg>