<svg height="141" viewBox="0 0 90 141" width="90" xmlns="http://www.w3.org/2000/svg"><g fill="#fffffe" fill-rule="evenodd" transform="translate(.392968 .37913)"><path d="m42.1070316 82.1908703c-.36.76-.5 1.239-.5 1.239l.56-.309c0-.31-.03-.621-.06-.93zm15.71-8.431c.11.311.25.651.45.96l1.33-.71c-.62-.109-1.21-.22-1.78-.25z"/><path d="m70.1370316 119.38987-1.55.7c-2.37 1.13-4.11 2.46-5.5 3.561-2.42 1.859-3.21 2.309-4.45 1.599.25-.62 1.35-1.86 2.45-2.79l.2-.189c.23-.29 5.39-6.74 8.49-11.79 2.79-4.54 3.55-5.53 4.68-5.471-.28.981-1.35 2.901-1.97 4-1.64 2.91-2.85 5.021-1.16 6.151 1.18.79 2.73.03 5.3-1.241 1.24-.62 3.95-1.95 5.02-1.95.11 0 .23.03.31.061.42 1.009-3.52 3.5-11.82 7.359zm-16.66-7.869c-.57-.42-.88-.7-.9-.7-.43-.401-.99-.481-1.5-.26-.17.09-.34.199-.48.34-6.6 7.279-15.65 8.88-15.76 8.91l-.14.06-.09.03h-.03c-.59.189-.98.79-.9 1.43.45 4.57-.96 8.179-1.24 8.83-.79 0-1.55-.031-2.43.03-.98.059-1.91.14-2.79.25l-.03-.141c-.84-1.83-1.69-4.54-2.05-5.889 1.27-1.1 2.45-2.29 3.55-3.55l.08-.09c7.56-8.49 11.62-19.71 12.95-28.9309997.45-3.13.59-6.069.45-8.719l-.56.309s.14-.479.5-1.239c-.36-4.651-1.63-8.37-3.72-10.601-2.4-2.569-4.82-3.84-7.11-4.34-6.03-1.41-10.97 2.59-11.02 2.651-.59.479-.68 1.349-.2 1.97.51.589 1.38.679 2 .2.03-.031.12-.09.26-.2 1.38-1.02 7.78-5.02 14.04 1.639 2.74 2.96 3.72 9.811 2.57 17.901-1.58 10.9689997-7.73 26.2289997-19.83 34.0399997-.62-1.04-1.41-2.76-1.58-4.651 6.49-7.279 7.95-20.139 8.04-20.79.08-.7599997-.48-1.4599997-1.24-1.5499997-.76-.08-1.47.481-1.55 1.271-.03.14-1.47 12.4999997-7.25 19.1199997-.37.14-.65.449-.79.85-.39.389-.82.759-1.24 1.07-1.02-3.83-2.57-14.021 4.51-25.5509997.42-.68.23-1.55-.45-1.949-.65-.42-1.52-.19-1.95.46-4.34 7.0999997-5.69000002 13.6699997-5.83000002 18.8299997l-2.17 1.579c-.88-3.069-2.06-9.809.78-17.4789997.46-.111.85-.34 1.05-.79.17-.451.08-.93-.17-1.331 1.04000002-2.219 2.45000002-4.509 4.34000002-6.82.51-.59.42-1.47-.17-1.97-.62-.509-1.49-.429-2 .191-1.83000002 2.199-3.21000002 4.46-4.31000002 6.66-.82-1.051-1.72-2.62-2.51-4.881-1.87-5.22-4.88-19.689 6.85000002-41.09 3.1-5.639 6.29-10.04 9.45-13.509h.02c12.33-13.51 23.78-12.46 23.92-12.46.25.049.51 0 .73-.121 3.19-1.379 5.3-3.46 6.29-6.2.76-2.029.73-4.09.48-5.77899997 2.59 2.58999997 2.76 6.31899997 2.76 6.50999997.03.569.37 1.08.88 1.269.53.2 1.13.09 1.52-.279 3.7-3.551 3.58-7.92099997 2.4-11.34099997 2.65 1.75 4.48 3.95 5.47 6.55099997 2.37 6.29-.9 12.939-.96 13-.31.649-.11 1.409.48 1.8 11.96 8.009 18.98 17.229 20.92 27.439-15.84-2.88-26.45 2.57-26.9 2.82l-.08.06c-.09.051-.17.141-.26.2l-.14.191-.14.259-.08.14c-.46 1.631-.2 4.881-.06 6.091-1.44 3.809-1.55 7.33-.34 10.489.57.03 1.16.141 1.78.25l-1.33.71c.09.221.2.42.31.651 1.78 3.209 4.8 5.41 7.79 6.849.56 2.481 2.22 13.091-9.11 22.7609997l-.23.22c-.37.509-.37 1.24.06 1.75.28.339.67.509 1.1.509.31 0 .65-.109.9-.339.85-.731 1.64-1.47 2.37-2.231 2.2 3.7 2.93 7.671 3.04 8.41-.78 1.101-1.57 2.17-2.28 3.16-3.89-1.41-7.22-3.75-8.74-4.939zm-9.11 25.58c-.09-.061-.34-.091-.71-.23h-.02c-5.22-2.06-11.34-2.42-11.59-2.451h-.09c-.2 0-1.89 0-4.48.54-1.27.25-2.77.621-4.4 1.18-2.74.931-4.18.561-4.4.341.08-.231 1.3-1.641 5.16-2.62.19-.05.39-.09.59-.141 1.52-.33 3.39-.59 5.73-.71.76-.029 1.49-.059 2.17-.059 1.01 0 1.93.04 2.78.11 5.77.479 8.05 2.39 8.67 3.079l.11.11c.31.371.45.68.48.851zm34.43-54.9609997c-.59-3.92-2.45-9.68-8.29-11.789-7.19-2.601-9.98-6.091-9.56-11.851 2.6-1.129 12.18-4.679 25.3-2.059 1.04 11.309-4.29 21.04-7.45 25.699zm-5.81-.569c-2.99-.531-9.3-2.821-11.95-7.561-1.22-2.17-1.53-4.649-.93-7.389 1.83 2.66 4.93 4.74 9.44 6.379 4.51 1.63 6.01 6.401 6.49 9.67-.82-.479-1.81-.87-3.05-1.099zm9.9 27.8089997c-1.97-.71-4.79.67-7.5 2-.42.201-.9.451-1.35.651.31-.571.65-1.16.9-1.641 1.8-3.21 2.88-5.239 2.23-6.769-.26-.621-.76-1.04-1.44-1.241-3.7-.979-5.25 1.55-8.35 6.63-.22.341-.48.731-.7 1.101-.57-2.03-1.58-4.79-3.28-7.361 6.35-7.6999997 6.52-15.3089997 6.04-19.2289997 1.13.39 2.2.67 3.05.819 2.79.5 3.94 2.311 3.97 2.391l.09.09c.08.109.19.219.31.309l.11.08c.17.09.34.141.51.17l.08.031h.11c.4 0 .77-.17 1.02-.42l.06-.061c.5-.559 12.46-14.38 10.18-31.949-1.5-11.481-8.72-21.771-21.49-30.57.96-2.43 2.76-8.321.56-14.13-1.69-4.50999997-5.38-7.92999997-10.94-10.17999997-.59-.23-1.27-.061-1.66.449-.37.511-.37 1.21.02 1.721.17.229 3.75 4.909 1.87 9.27899997-.82-2.56899997-2.68-5.91999997-6.86-7.46999997-.53-.2-1.13-.059-1.52.361-.4.42-.48 1.05-.23 1.58.03.029 1.84 3.859.54 7.38999997-.71 1.86-2.2 3.36-4.46 4.429-2.51-.17-15.37-.029-28.31 16.13-2.51 3.131-5.02 6.851-7.44000002 11.28-12.33 22.42-9.06 37.84-7.08 43.43 1.04 2.901 2.45 5.301 3.92 6.74-4.37 11.3609997-.48 21.0609997-.26 21.5709997.17.399.51.71.91.82.14.029.25.06.39.06.28 0 .59-.121.82-.29l2.14-1.581c.31000002 4.46 1.44000002 7.25 1.55000002 7.51.14.361.45.641.82.79.17.051.31.08.48.08.23 0 .45-.059.68-.17.59-.339 1.15-.7 1.69-1.099.79 2.91 2.42 5.019 2.51 5.13.28.34.7.54 1.13.54.22 0 .48-.061.7-.2 1.16-.67 2.26-1.46 3.33-2.25.42 1.32 1.01 3.07 1.63 4.54-2.08.419-3.75 1.009-5.02 1.66-1.34.67-2.25 1.439-2.8 2.21v.009c-.18.26-.31.51-.41.771-.42 1.04-.23 2.109.48 2.88 1.32 1.41 4 1.55 7.36.42 4.34-1.47 7.59-1.58 7.95-1.58.37.03 3.27.229 6.57 1.019 1.36.311 2.8.7 4.12 1.24.68.281 1.3.361 1.81.361 1.12 0 1.8-.53 2.08-.84.79-.82.93-2.091.34-3.33-.34-.761-.99-1.521-1.89-2.261-.2-.159-.42-.309-.66-.46-1.92-1.26-4.85-2.309-8.9-2.67.54-1.519 1.3-4.429 1.16-7.979 2.76-.681 9.53-2.851 15.2-8.54.2.139.39.309.65.479 1.69 1.29 4.59 3.181 8.01 4.54-.6.79-1.05 1.351-1.25 1.58-1.15.981-3.55 3.241-3.41 5.241.03.759.45 1.44 1.13 1.889.99.62 1.92.901 2.76.901 1.89 0 3.5-1.241 5.16-2.54 1.36-1.04 2.91-2.25 4.97-3.21l1.55-.731c7.39-3.439 15.03-7 13.14-11.09-.31-.7-.85-1.21-1.58-1.46z"/><path d="m57.8180316 73.7598703c.113.311.254.649.451.959l1.325-.705c-.62-.113-1.212-.226-1.776-.254"/><path d="m41.6030316 83.4328703.564-.31c0-.31-.029-.621-.057-.931-.367.762-.507 1.241-.507 1.241"/><path d="m45.9450316 44.0368703c.31.705 1.129 1.043 1.862.733 2.651-1.156 4.794-1.326 6.317-.48 2.199 1.241 2.651 4.23 2.651 4.258.112.705.705 1.213 1.382 1.213h.197c.789-.112 1.325-.817 1.212-1.579-.027-.197-.62-4.399-4.061-6.317-2.34-1.326-5.301-1.212-8.827.31-.705.311-1.043 1.156-.733 1.862"/></g></svg>