<?xml version="1.0" encoding="UTF-8"?>
<svg width="90px" height="141px" viewBox="0 0 90 141" version="1.1" xmlns="http://www.w3.org/2000/svg" xmlns:xlink="http://www.w3.org/1999/xlink">
    <title>Group</title>
    <g id="Page-1" stroke="none" stroke-width="1" fill="none" fill-rule="evenodd">
        <g id="Logo" transform="translate(-250.000000, -431.000000)" fill="#FFFFFE">
            <g id="Group" transform="translate(250.392968, 431.379130)">
                <path d="M42.1070316,82.1908703 C41.7470316,82.9508703 41.6070316,83.4298703 41.6070316,83.4298703 L42.1670316,83.1208703 C42.1670316,82.8108703 42.1370316,82.4998703 42.1070316,82.1908703 Z M57.8170316,73.7598703 C57.9270316,74.0708703 58.0670316,74.4108703 58.2670316,74.7198703 L59.5970316,74.0098703 C58.9770316,73.9008703 58.3870316,73.7898703 57.8170316,73.7598703 L57.8170316,73.7598703 Z" id="Fill-24"></path>
                <path d="M70.1370316,119.38987 L68.5870316,120.08987 C66.2170316,121.21987 64.4770316,122.54987 63.0870316,123.65087 C60.6670316,125.50987 59.8770316,125.95987 58.6370316,125.24987 C58.8870316,124.62987 59.9870316,123.38987 61.0870316,122.45987 L61.2870316,122.27087 C61.5170316,121.98087 66.6770316,115.53087 69.7770316,110.48087 C72.5670316,105.94087 73.3270316,104.95087 74.4570316,105.00987 C74.1770316,105.99087 73.1070316,107.91087 72.4870316,109.00987 C70.8470316,111.91987 69.6370316,114.03087 71.3270316,115.16087 C72.5070316,115.95087 74.0570316,115.19087 76.6270316,113.91987 C77.8670316,113.29987 80.5770316,111.96987 81.6470316,111.96987 C81.7570316,111.96987 81.8770316,111.99987 81.9570316,112.03087 C82.3770316,113.03987 78.4370316,115.53087 70.1370316,119.38987 Z M53.4770316,111.52087 C52.9070316,111.10087 52.5970316,110.82087 52.5770316,110.82087 C52.1470316,110.41987 51.5870316,110.33987 51.0770316,110.56087 C50.9070316,110.65087 50.7370316,110.75987 50.5970316,110.90087 C43.9970316,118.17987 34.9470316,119.78087 34.8370316,119.81087 L34.6970316,119.87087 L34.6070316,119.90087 L34.5770316,119.90087 C33.9870316,120.08987 33.5970316,120.69087 33.6770316,121.33087 C34.1270316,125.90087 32.7170316,129.50987 32.4370316,130.16087 C31.6470316,130.16087 30.8870316,130.12987 30.0070316,130.19087 C29.0270316,130.24987 28.0970316,130.33087 27.2170316,130.44087 L27.1870316,130.29987 C26.3470316,128.46987 25.4970316,125.75987 25.1370316,124.41087 C26.4070316,123.31087 27.5870316,122.12087 28.6870316,120.86087 L28.7670316,120.77087 C36.3270316,112.28087 40.3870316,101.06087 41.7170316,91.8398703 C42.1670316,88.7098703 42.3070316,85.7708703 42.1670316,83.1208703 L41.6070316,83.4298703 C41.6070316,83.4298703 41.7470316,82.9508703 42.1070316,82.1908703 C41.7470316,77.5398703 40.4770316,73.8208703 38.3870316,71.5898703 C35.9870316,69.0208703 33.5670316,67.7498703 31.2770316,67.2498703 C25.2470316,65.8398703 20.3070316,69.8398703 20.2570316,69.9008703 C19.6670316,70.3798703 19.5770316,71.2498703 20.0570316,71.8708703 C20.5670316,72.4598703 21.4370316,72.5498703 22.0570316,72.0708703 C22.0870316,72.0398703 22.1770316,71.9808703 22.3170316,71.8708703 C23.6970316,70.8508703 30.0970316,66.8508703 36.3570316,73.5098703 C39.0970316,76.4698703 40.0770316,83.3208703 38.9270316,91.4108703 C37.3470316,102.37987 31.1970316,117.63987 19.0970316,125.45087 C18.4770316,124.41087 17.6870316,122.69087 17.5170316,120.79987 C24.0070316,113.52087 25.4670316,100.66087 25.5570316,100.00987 C25.6370316,99.2498703 25.0770316,98.5498703 24.3170316,98.4598703 C23.5570316,98.3798703 22.8470316,98.9408703 22.7670316,99.7308703 C22.7370316,99.8708703 21.2970316,112.23087 15.5170316,118.85087 C15.1470316,118.99087 14.8670316,119.29987 14.7270316,119.70087 C14.3370316,120.08987 13.9070316,120.45987 13.4870316,120.77087 C12.4670316,116.94087 10.9170316,106.74987 17.9970316,95.2198703 C18.4170316,94.5398703 18.2270316,93.6698703 17.5470316,93.2708703 C16.8970316,92.8508703 16.0270316,93.0808703 15.5970316,93.7308703 C11.2570316,100.83087 9.90703158,107.40087 9.76703158,112.56087 L7.59703158,114.13987 C6.71703158,111.07087 5.53703158,104.33087 8.37703158,96.6608703 C8.83703158,96.5498703 9.22703158,96.3208703 9.42703158,95.8708703 C9.59703158,95.4198703 9.50703158,94.9408703 9.25703158,94.5398703 C10.2970316,92.3208703 11.7070316,90.0308703 13.5970316,87.7198703 C14.1070316,87.1298703 14.0170316,86.2498703 13.4270316,85.7498703 C12.8070316,85.2408703 11.9370316,85.3208703 11.4270316,85.9408703 C9.59703158,88.1398703 8.21703158,90.4008703 7.11703158,92.6008703 C6.29703158,91.5498703 5.39703158,89.9808703 4.60703158,87.7198703 C2.73703158,82.4998703 -0.272968417,68.0308703 11.4570316,46.6298703 C14.5570316,40.9908703 17.7470316,36.5898703 20.9070316,33.1208703 L20.9270316,33.1208703 C33.2570316,19.6108703 44.7070316,20.6608703 44.8470316,20.6608703 C45.0970316,20.7098703 45.3570316,20.6608703 45.5770316,20.5398703 C48.7670316,19.1608703 50.8770316,17.0798703 51.8670316,14.3398703 C52.6270316,12.3108703 52.5970316,10.2498703 52.3470316,8.56087033 C54.9370316,11.1508703 55.1070316,14.8798703 55.1070316,15.0708703 C55.1370316,15.6398703 55.4770316,16.1508703 55.9870316,16.3398703 C56.5170316,16.5398703 57.1170316,16.4298703 57.5070316,16.0608703 C61.2070316,12.5098703 61.0870316,8.13987033 59.9070316,4.71987033 C62.5570316,6.46987033 64.3870316,8.66987033 65.3770316,11.2708703 C67.7470316,17.5608703 64.4770316,24.2098703 64.4170316,24.2708703 C64.1070316,24.9198703 64.3070316,25.6798703 64.8970316,26.0708703 C76.8570316,34.0798703 83.8770316,43.2998703 85.8170316,53.5098703 C69.9770316,50.6298703 59.3670316,56.0798703 58.9170316,56.3298703 L58.8370316,56.3898703 C58.7470316,56.4408703 58.6670316,56.5308703 58.5770316,56.5898703 L58.4370316,56.7808703 L58.2970316,57.0398703 L58.2170316,57.1798703 C57.7570316,58.8108703 58.0170316,62.0608703 58.1570316,63.2708703 C56.7170316,67.0798703 56.6070316,70.6008703 57.8170316,73.7598703 C58.3870316,73.7898703 58.9770316,73.9008703 59.5970316,74.0098703 L58.2670316,74.7198703 C58.3570316,74.9408703 58.4670316,75.1398703 58.5770316,75.3708703 C60.3570316,78.5798703 63.3770316,80.7808703 66.3670316,82.2198703 C66.9270316,84.7008703 68.5870316,95.3108703 57.2570316,104.98087 L57.0270316,105.20087 C56.6570316,105.70987 56.6570316,106.44087 57.0870316,106.95087 C57.3670316,107.28987 57.7570316,107.45987 58.1870316,107.45987 C58.4970316,107.45987 58.8370316,107.35087 59.0870316,107.12087 C59.9370316,106.38987 60.7270316,105.65087 61.4570316,104.88987 C63.6570316,108.58987 64.3870316,112.56087 64.4970316,113.29987 C63.7170316,114.40087 62.9270316,115.46987 62.2170316,116.45987 C58.3270316,115.04987 54.9970316,112.70987 53.4770316,111.52087 Z M44.3670316,137.10087 C44.2770316,137.03987 44.0270316,137.00987 43.6570316,136.87087 L43.6370316,136.87087 C38.4170316,134.81087 32.2970316,134.45087 32.0470316,134.41987 L31.9570316,134.41987 C31.7570316,134.41987 30.0670316,134.41987 27.4770316,134.95987 C26.2070316,135.20987 24.7070316,135.58087 23.0770316,136.13987 C20.3370316,137.07087 18.8970316,136.70087 18.6770316,136.48087 C18.7570316,136.24987 19.9770316,134.83987 23.8370316,133.86087 C24.0270316,133.81087 24.2270316,133.77087 24.4270316,133.71987 C25.9470316,133.38987 27.8170316,133.12987 30.1570316,133.00987 C30.9170316,132.98087 31.6470316,132.95087 32.3270316,132.95087 C33.3370316,132.95087 34.2570316,132.99087 35.1070316,133.06087 C40.8770316,133.53987 43.1570316,135.45087 43.7770316,136.13987 L43.8870316,136.24987 C44.1970316,136.62087 44.3370316,136.92987 44.3670316,137.10087 Z M78.7970316,82.1398703 C78.2070316,78.2198703 76.3470316,72.4598703 70.5070316,70.3508703 C63.3170316,67.7498703 60.5270316,64.2598703 60.9470316,58.4998703 C63.5470316,57.3708703 73.1270316,53.8208703 86.2470316,56.4408703 C87.2870316,67.7498703 81.9570316,77.4808703 78.7970316,82.1398703 Z M72.9870316,81.5708703 C69.9970316,81.0398703 63.6870316,78.7498703 61.0370316,74.0098703 C59.8170316,71.8398703 59.5070316,69.3608703 60.1070316,66.6208703 C61.9370316,69.2808703 65.0370316,71.3608703 69.5470316,72.9998703 C74.0570316,74.6298703 75.5570316,79.4008703 76.0370316,82.6698703 C75.2170316,82.1908703 74.2270316,81.7998703 72.9870316,81.5708703 Z M82.8870316,109.37987 C80.9170316,108.66987 78.0970316,110.04987 75.3870316,111.37987 C74.9670316,111.58087 74.4870316,111.83087 74.0370316,112.03087 C74.3470316,111.45987 74.6870316,110.87087 74.9370316,110.38987 C76.7370316,107.17987 77.8170316,105.15087 77.1670316,103.62087 C76.9070316,102.99987 76.4070316,102.58087 75.7270316,102.37987 C72.0270316,101.40087 70.4770316,103.92987 67.3770316,109.00987 C67.1570316,109.35087 66.8970316,109.74087 66.6770316,110.11087 C66.1070316,108.08087 65.0970316,105.32087 63.3970316,102.74987 C69.7470316,95.0498703 69.9170316,87.4408703 69.4370316,83.5208703 C70.5670316,83.9108703 71.6370316,84.1908703 72.4870316,84.3398703 C75.2770316,84.8398703 76.4270316,86.6508703 76.4570316,86.7308703 L76.5470316,86.8208703 C76.6270316,86.9298703 76.7370316,87.0398703 76.8570316,87.1298703 L76.9670316,87.2098703 C77.1370316,87.2998703 77.3070316,87.3508703 77.4770316,87.3798703 L77.5570316,87.4108703 L77.6670316,87.4108703 C78.0670316,87.4108703 78.4370316,87.2408703 78.6870316,86.9908703 L78.7470316,86.9298703 C79.2470316,86.3708703 91.2070316,72.5498703 88.9270316,54.9808703 C87.4270316,43.4998703 80.2070316,33.2098703 67.4370316,24.4108703 C68.3970316,21.9808703 70.1970316,16.0898703 67.9970316,10.2808703 C66.3070316,5.77087033 62.6170316,2.35087033 57.0570316,0.100870331 C56.4670316,-0.129129669 55.7870316,0.0398703309 55.3970316,0.549870331 C55.0270316,1.06087033 55.0270316,1.75987033 55.4170316,2.27087033 C55.5870316,2.49987033 59.1670316,7.17987033 57.2870316,11.5498703 C56.4670316,8.98087033 54.6070316,5.62987033 50.4270316,4.07987033 C49.8970316,3.87987033 49.2970316,4.02087033 48.9070316,4.44087033 C48.5070316,4.86087033 48.4270316,5.49087033 48.6770316,6.02087033 C48.7070316,6.04987033 50.5170316,9.87987033 49.2170316,13.4108703 C48.5070316,15.2708703 47.0170316,16.7708703 44.7570316,17.8398703 C42.2470316,17.6698703 29.3870316,17.8108703 16.4470316,33.9698703 C13.9370316,37.1008703 11.4270316,40.8208703 9.00703158,45.2498703 C-3.32296842,67.6698703 -0.0529684171,83.0898703 1.92703158,88.6798703 C2.96703158,91.5808703 4.37703158,93.9808703 5.84703158,95.4198703 C1.47703158,106.78087 5.36703158,116.48087 5.58703158,116.99087 C5.75703158,117.38987 6.09703158,117.70087 6.49703158,117.81087 C6.63703158,117.83987 6.74703158,117.87087 6.88703158,117.87087 C7.16703158,117.87087 7.47703158,117.74987 7.70703158,117.58087 L9.84703158,115.99987 C10.1570316,120.45987 11.2870316,123.24987 11.3970316,123.50987 C11.5370316,123.87087 11.8470316,124.15087 12.2170316,124.29987 C12.3870316,124.35087 12.5270316,124.37987 12.6970316,124.37987 C12.9270316,124.37987 13.1470316,124.32087 13.3770316,124.20987 C13.9670316,123.87087 14.5270316,123.50987 15.0670316,123.11087 C15.8570316,126.02087 17.4870316,128.12987 17.5770316,128.24087 C17.8570316,128.58087 18.2770316,128.78087 18.7070316,128.78087 C18.9270316,128.78087 19.1870316,128.71987 19.4070316,128.58087 C20.5670316,127.91087 21.6670316,127.12087 22.7370316,126.33087 C23.1570316,127.65087 23.7470316,129.40087 24.3670316,130.87087 C22.2870316,131.28987 20.6170316,131.87987 19.3470316,132.53087 C18.0070316,133.20087 17.0970316,133.96987 16.5470316,134.74087 L16.5470316,134.74987 C16.3670316,135.00987 16.2370316,135.25987 16.1370316,135.52087 C15.7170316,136.56087 15.9070316,137.62987 16.6170316,138.40087 C17.9370316,139.81087 20.6170316,139.95087 23.9770316,138.82087 C28.3170316,137.35087 31.5670316,137.24087 31.9270316,137.24087 C32.2970316,137.27087 35.1970316,137.46987 38.4970316,138.25987 C39.8570316,138.57087 41.2970316,138.95987 42.6170316,139.49987 C43.2970316,139.78087 43.9170316,139.86087 44.4270316,139.86087 C45.5470316,139.86087 46.2270316,139.33087 46.5070316,139.02087 C47.2970316,138.20087 47.4370316,136.92987 46.8470316,135.69087 C46.5070316,134.92987 45.8570316,134.16987 44.9570316,133.42987 C44.7570316,133.27087 44.5370316,133.12087 44.2970316,132.96987 C42.3770316,131.70987 39.4470316,130.66087 35.3970316,130.29987 C35.9370316,128.78087 36.6970316,125.87087 36.5570316,122.32087 C39.3170316,121.63987 46.0870316,119.46987 51.7570316,113.78087 C51.9570316,113.91987 52.1470316,114.08987 52.4070316,114.25987 C54.0970316,115.54987 56.9970316,117.44087 60.4170316,118.79987 C59.8170316,119.58987 59.3670316,120.15087 59.1670316,120.37987 C58.0170316,121.36087 55.6170316,123.62087 55.7570316,125.62087 C55.7870316,126.37987 56.2070316,127.06087 56.8870316,127.50987 C57.8770316,128.12987 58.8070316,128.41087 59.6470316,128.41087 C61.5370316,128.41087 63.1470316,127.16987 64.8070316,125.87087 C66.1670316,124.83087 67.7170316,123.62087 69.7770316,122.66087 L71.3270316,121.92987 C78.7170316,118.49087 86.3570316,114.92987 84.4670316,110.83987 C84.1570316,110.13987 83.6170316,109.62987 82.8870316,109.37987 L82.8870316,109.37987 Z" id="Fill-25"></path>
                <path d="M57.8180316,73.7598703 C57.9310316,74.0708703 58.0720316,74.4088703 58.2690316,74.7188703 L59.5940316,74.0138703 C58.9740316,73.9008703 58.3820316,73.7878703 57.8180316,73.7598703" id="Fill-26"></path>
                <path d="M41.6030316,83.4328703 L42.1670316,83.1228703 C42.1670316,82.8128703 42.1380316,82.5018703 42.1100316,82.1918703 C41.7430316,82.9538703 41.6030316,83.4328703 41.6030316,83.4328703" id="Fill-27"></path>
                <path d="M45.9450316,44.0368703 C46.2550316,44.7418703 47.0740316,45.0798703 47.8070316,44.7698703 C50.4580316,43.6138703 52.6010316,43.4438703 54.1240316,44.2898703 C56.3230316,45.5308703 56.7750316,48.5198703 56.7750316,48.5478703 C56.8870316,49.2528703 57.4800316,49.7608703 58.1570316,49.7608703 L58.3540316,49.7608703 C59.1430316,49.6488703 59.6790316,48.9438703 59.5660316,48.1818703 C59.5390316,47.9848703 58.9460316,43.7828703 55.5050316,41.8648703 C53.1650316,40.5388703 50.2040316,40.6528703 46.6780316,42.1748703 C45.9730316,42.4858703 45.6350316,43.3308703 45.9450316,44.0368703" id="Fill-28"></path>
            </g>
        </g>
    </g>
</svg>