<?xml version="1.0" encoding="UTF-8"?>
<svg width="90px" height="141px" viewBox="0 0 90 141" version="1.1" xmlns="http://www.w3.org/2000/svg"
     xmlns:xlink="http://www.w3.org/1999/xlink">
  <title>Group 3</title>
  <g id="Page-1" stroke="none" stroke-width="1" fill="none" fill-rule="evenodd">
    <g id="Logo" transform="translate(-250.000000, -78.000000)">
      <g id="Group-3" transform="translate(250.393590, 78.331288)">
        <g id="Group-2" transform="translate(14.606410, 69.668712)" fill="#FFFFFF" stroke="#FFFFFF">
          <path
            d="M33.5,0.5 C38.749836,0.5 43.5037167,2.51696904 46.944452,5.7812564 C50.3754089,9.03626674 52.5,13.5323169 52.5,18.5 C52.5,23.9224243 49.9686753,28.7825747 45.9702526,32.0806912 C44.2598887,37.6148587 40.2259869,41.920813 34.9798002,44.051573 C31.3107216,48.6344492 25.7573251,51.5 19.5,51.5 C14.250164,51.5 9.4962833,49.483031 6.05554798,46.2187436 C2.62459114,42.9637333 0.5,38.4676831 0.5,33.5 C0.5,29.8466659 1.64895228,26.4480425 3.62187394,23.6109253 C5.66097631,20.6786385 8.57951358,18.3458757 12.0201998,16.948427 C13.0483605,15.7412679 13.9893667,14.7774714 15.0297474,13.9193088 C16.3164463,9.83270918 18.7526219,6.50961471 22.0115598,4.16214931 C25.2030438,1.86327201 29.1838192,0.5 33.5,0.5 Z"
            id="Combined-Shape"></path>
        </g>
        <g id="Group">
          <path
            d="M57.8174101,73.7587124 C57.9304101,74.0687124 58.0714101,74.4067124 58.2684101,74.7177124 L59.5934101,74.0127124 C58.9734101,73.8997124 58.3814101,73.7867124 57.8174101,73.7587124 Z M41.6024101,83.4317124 L42.1664101,83.1217124 C42.1664101,82.8117124 42.1374101,82.5007124 42.1094101,82.1907124 C41.7424101,82.9517124 41.6024101,83.4317124 41.6024101,83.4317124 L41.6024101,83.4317124 Z"
            id="Fill-6" class="bird-stroke"></path>
          <path
            d="M11.4554101,46.6287124 C14.5574101,40.9887124 17.7444101,36.5897124 20.9024101,33.1207124 L20.9304101,33.1207124 C33.2544101,19.6127124 44.7044101,20.6567124 44.8454101,20.6567124 C45.0984101,20.7127124 45.3524101,20.6567124 45.5784101,20.5437124 C48.7644101,19.1617124 50.8794101,17.0747124 51.8674101,14.3397124 C52.6274101,12.3087124 52.6004101,10.2507124 52.3464101,8.55871239 C54.9404101,11.1527124 55.1104101,14.8757124 55.1104101,15.0727124 C55.1384101,15.6367124 55.4764101,16.1447124 55.9844101,16.3417124 C56.5204101,16.5387124 57.1124101,16.4257124 57.5064101,16.0597124 C61.2014101,12.5057124 61.0884101,8.13471239 59.9044101,4.72271239 C62.5554101,6.47171239 64.3884101,8.67071239 65.3754101,11.2657124 C67.7444101,17.5547124 64.4724101,24.2097124 64.4174101,24.2657124 C64.1064101,24.9147124 64.3034101,25.6757124 64.8954101,26.0707124 C76.8534101,34.0797124 83.8754101,43.3017124 85.8214101,53.5107124 C69.9714101,50.6337124 59.3684101,56.0767124 58.9164101,56.3307124 L58.8334101,56.3867124 L58.5794101,56.5847124 L58.4374101,56.7817124 L58.2964101,57.0357124 L58.2114101,57.1767124 C57.7604101,58.8127124 58.0144101,62.0547124 58.1564101,63.2677124 C56.7174101,67.0747124 56.6044101,70.6007124 57.8174101,73.7587124 C58.3814101,73.7867124 58.9734101,73.8997124 59.5934101,74.0127124 L58.2684101,74.7177124 C58.3534101,74.9427124 58.4654101,75.1407124 58.5794101,75.3657124 C60.3554101,78.5807124 63.3734101,80.7807124 66.3624101,82.2187124 C66.9264101,84.7007124 68.5894101,95.3037124 57.2534101,104.976712 L57.0274101,105.202712 C56.6614101,105.710712 56.6614101,106.443712 57.0844101,106.950712 C57.3664101,107.289712 57.7604101,107.458712 58.1834101,107.458712 C58.4944101,107.458712 58.8334101,107.345712 59.0864101,107.120712 C59.9324101,106.386712 60.7224101,105.653712 61.4554101,104.892712 C63.6554101,108.586712 64.3884101,112.563712 64.5014101,113.295712 C63.7114101,114.395712 62.9214101,115.467712 62.2164101,116.454712 C58.3254101,115.044712 54.9974101,112.703712 53.4744101,111.519712 C52.9104101,111.096712 52.6004101,110.814712 52.5724101,110.814712 C52.1494101,110.419712 51.5854101,110.335712 51.0774101,110.560712 C50.9084101,110.645712 50.7394101,110.757712 50.5974101,110.898712 C43.9994101,118.174712 34.9464101,119.782712 34.8334101,119.810712 L34.6924101,119.866712 L34.6084101,119.894712 L34.5804101,119.894712 C33.9874101,120.092712 33.5924101,120.684712 33.6774101,121.333712 C34.1284101,125.901712 32.7184101,129.511712 32.4364101,130.160712 C31.6474101,130.160712 30.8854101,130.131712 30.0114101,130.188712 C29.0244101,130.244712 28.0934101,130.329712 27.2194101,130.441712 L27.1914101,130.301712 C26.3454101,128.468712 25.4984101,125.760712 25.1324101,124.407712 C26.4014101,123.307712 27.5854101,122.123712 28.6864101,120.854712 L28.7704101,120.769712 C36.3284101,112.280712 40.3894101,101.056712 41.7144101,91.8347124 C42.1664101,88.7047124 42.3074101,85.7717124 42.1664101,83.1217124 L41.6024101,83.4317124 C41.6024101,83.4317124 41.7424101,82.9517124 42.1094101,82.1907124 C41.7424101,77.5377124 40.4734101,73.8157124 38.3874101,71.5877124 C35.9894101,69.0207124 33.5654101,67.7517124 31.2804101,67.2447124 C25.2454101,65.8337124 20.3104101,69.8387124 20.2544101,69.8957124 C19.6614101,70.3747124 19.5774101,71.2487124 20.0564101,71.8697124 C20.5644101,72.4607124 21.4384101,72.5457124 22.0584101,72.0667124 C22.0864101,72.0387124 22.1714101,71.9817124 22.3124101,71.8697124 C23.6944101,70.8537124 30.0954101,66.8497124 36.3564101,73.5047124 C39.0914101,76.4657124 40.0794101,83.3187124 38.9224101,91.4127124 C37.3434101,102.382712 31.1954101,117.639712 19.0974101,125.450712 C18.4774101,124.407712 17.6874101,122.686712 17.5184101,120.797712 C24.0044101,113.521712 25.4714101,100.662712 25.5554101,100.013712 C25.6404101,99.2517124 25.0764101,98.5467124 24.3144101,98.4627124 C23.5534101,98.3777124 22.8484101,98.9417124 22.7634101,99.7317124 C22.7354101,99.8727124 21.2974101,112.224712 15.5164101,118.851712 C15.1494101,118.992712 14.8674101,119.302712 14.7264101,119.697712 C14.3314101,120.092712 13.9084101,120.459712 13.4854101,120.769712 C12.4704101,116.934712 10.9194101,106.753712 17.9974101,95.2197124 C18.4204101,94.5427124 18.2234101,93.6677124 17.5464101,93.2737124 C16.8974101,92.8507124 16.0234101,93.0757124 15.6004101,93.7247124 C11.2574101,100.831712 9.90441012,107.401712 9.76341012,112.563712 L7.59141012,114.142712 C6.71741012,111.068712 5.53341012,104.328712 8.38141012,96.6577124 C8.83241012,96.5447124 9.22741012,96.3197124 9.42441012,95.8677124 C9.59341012,95.4167124 9.50941012,94.9377124 9.25541012,94.5427124 C10.2984101,92.3147124 11.7084101,90.0307124 13.5984101,87.7177124 C14.1054101,87.1257124 14.0214101,86.2517124 13.4294101,85.7437124 C12.8084101,85.2367124 11.9344101,85.3207124 11.4264101,85.9417124 C9.59341012,88.1407124 8.21141012,90.3977124 7.11241012,92.5967124 C6.29441012,91.5537124 5.39241012,89.9747124 4.60241012,87.7177124 C2.74141012,82.5007124 -0.276589882,68.0337124 11.4554101,46.6287124 M30.1524101,133.008712 C30.9144101,132.980712 31.6474101,132.952712 32.3234101,132.952712 C40.1634101,132.952712 43.0684101,135.349712 43.7734101,136.138712 L43.8864101,136.251712 C44.1964101,136.618712 44.3374101,136.928712 44.3654101,137.097712 C44.2814101,137.041712 44.0274101,137.013712 43.6604101,136.872712 L43.6324101,136.872712 C38.4154101,134.813712 32.2954101,134.446712 32.0424101,134.418712 L31.9574101,134.418712 C31.7594101,134.418712 30.0674101,134.418712 27.4734101,134.954712 C26.2044101,135.208712 24.7094101,135.574712 23.0734101,136.138712 C20.3384101,137.069712 18.9004101,136.702712 18.6744101,136.477712 C18.7594101,136.251712 19.9714101,134.841712 23.8354101,133.854712 C25.4424101,133.459712 27.5014101,133.149712 30.1524101,133.008712 M61.0884101,122.461712 L61.2864101,122.264712 C61.5114101,121.981712 66.6724101,115.524712 69.7744101,110.476712 C72.5664101,105.935712 73.3284101,104.948712 74.4564101,105.004712 C74.1734101,105.992712 73.1024101,107.909712 72.4824101,109.009712 C70.8464101,111.914712 69.6334101,114.029712 71.3254101,115.157712 C72.5094101,115.946712 74.0614101,115.185712 76.6264101,113.916712 C77.8684101,113.295712 80.5754101,111.970712 81.6474101,111.970712 C81.7594101,111.970712 81.8734101,111.998712 81.9574101,112.026712 C82.3804101,113.042712 78.4324101,115.524712 70.1414101,119.387712 L68.5894101,120.092712 C66.2214101,121.220712 64.4724101,122.545712 63.0904101,123.646712 C60.6664101,125.506712 59.8764101,125.958712 58.6344101,125.253712 C58.8884101,124.632712 59.9894101,123.392712 61.0884101,122.461712 M61.0324101,74.0127124 C59.8194101,71.8407124 59.5094101,69.3587124 60.1014101,66.6237124 C61.9344101,69.2747124 65.0374101,71.3617124 69.5484101,72.9977124 C74.0614101,74.6327124 75.5554101,79.3987124 76.0354101,82.6697124 C75.2174101,82.1907124 74.2304101,81.7957124 72.9894101,81.5707124 C70.0004101,81.0347124 63.6834101,78.7497124 61.0324101,74.0127124 M70.5074101,70.3467124 C63.3164101,67.7517124 60.5244101,64.2547124 60.9474101,58.5017124 C63.5414101,57.3737124 73.1304101,53.8207124 86.2444101,56.4427124 C87.2874101,67.7517124 81.9574101,77.4817124 78.7984101,82.1337124 C78.2074101,78.2147124 76.3454101,72.4607124 70.5074101,70.3467124 M1.92341012,88.6767124 C2.96641012,91.5817124 4.37641012,93.9787124 5.84341012,95.4167124 C1.47241012,106.781712 5.36341012,116.482712 5.58941012,116.990712 C5.75841012,117.385712 6.09641012,117.695712 6.49141012,117.808712 C6.63241012,117.836712 6.74541012,117.864712 6.88641012,117.864712 C7.16841012,117.864712 7.47941012,117.752712 7.70441012,117.582712 L9.84741012,116.003712 C10.1574101,120.459712 11.2864101,123.251712 11.3984101,123.504712 C11.5404101,123.871712 11.8504101,124.153712 12.2164101,124.294712 C12.3854101,124.350712 12.5264101,124.378712 12.6954101,124.378712 C12.9214101,124.378712 13.1474101,124.322712 13.3724101,124.209712 C13.9644101,123.871712 14.5294101,123.504712 15.0644101,123.109712 C15.8544101,126.014712 17.4904101,128.129712 17.5744101,128.242712 C17.8574101,128.581712 18.2794101,128.778712 18.7024101,128.778712 C18.9284101,128.778712 19.1824101,128.721712 19.4074101,128.581712 C20.5644101,127.904712 21.6644101,127.114712 22.7354101,126.324712 C23.1584101,127.650712 23.7504101,129.398712 24.3714101,130.865712 C22.2844101,131.288712 20.6204101,131.880712 19.3514101,132.528712 C17.5464101,133.431712 16.5314101,134.502712 16.1364101,135.518712 C15.7134101,136.562712 15.9114101,137.633712 16.6164101,138.395712 C17.9414101,139.804712 20.6204101,139.945712 23.9764101,138.817712 C28.3194101,137.351712 31.5624101,137.238712 31.9294101,137.238712 C32.2954101,137.267712 35.2004101,137.464712 38.5004101,138.254712 C39.8534101,138.564712 41.2924101,138.959712 42.6174101,139.494712 C43.2944101,139.776712 43.9144101,139.861712 44.4214101,139.861712 C45.5504101,139.861712 46.2264101,139.325712 46.5084101,139.015712 C47.2984101,138.197712 47.4394101,136.928712 46.8474101,135.687712 C46.5084101,134.926712 45.8604101,134.164712 44.9584101,133.431712 C43.0684101,131.964712 39.9384101,130.695712 35.3974101,130.301712 C35.9334101,128.778712 36.6944101,125.873712 36.5544101,122.320712 C39.3174101,121.643712 46.0864101,119.472712 51.7544101,113.775712 C51.9514101,113.916712 52.1494101,114.085712 52.4034101,114.254712 C54.0944101,115.552712 57.0004101,117.441712 60.4124101,118.794712 C59.8194101,119.584712 59.3684101,120.149712 59.1714101,120.374712 C58.0144101,121.361712 55.6184101,123.617712 55.7584101,125.620712 C55.7874101,126.381712 56.2094101,127.058712 56.8864101,127.509712 C57.8744101,128.129712 58.8044101,128.411712 59.6504101,128.411712 C61.5404101,128.411712 63.1474101,127.170712 64.8114101,125.873712 C66.1654101,124.830712 67.7154101,123.617712 69.7744101,122.658712 L71.3254101,121.925712 C78.7134101,118.484712 86.3564101,114.931712 84.4674101,110.842712 C84.1574101,110.137712 83.6214101,109.629712 82.8874101,109.375712 C80.9144101,108.670712 78.0934101,110.052712 75.3864101,111.378712 C74.9634101,111.575712 74.4844101,111.829712 74.0334101,112.026712 C74.3424101,111.462712 74.6814101,110.870712 74.9354101,110.391712 C76.7404101,107.176712 77.8114101,105.146712 77.1634101,103.623712 C76.9094101,103.002712 76.4024101,102.579712 75.7244101,102.382712 C72.0304101,101.395712 70.4794101,103.933712 67.3774101,109.009712 C67.1524101,109.348712 66.8984101,109.742712 66.6724101,110.109712 C66.1084101,108.078712 65.0934101,105.315712 63.4014101,102.749712 C69.7464101,95.0497124 69.9164101,87.4357124 69.4364101,83.5167124 C70.5644101,83.9107124 71.6354101,84.1927124 72.4824101,84.3337124 C75.2734101,84.8417124 76.4294101,86.6457124 76.4584101,86.7317124 L76.5424101,86.8157124 C76.6264101,86.9287124 76.7404101,87.0417124 76.8534101,87.1257124 L76.9654101,87.2107124 C77.1344101,87.2957124 77.3044101,87.3517124 77.4734101,87.3797124 L77.5574101,87.4077124 L77.6704101,87.4077124 C78.0654101,87.4077124 78.4324101,87.2387124 78.6864101,86.9847124 L78.7424101,86.9287124 C79.2494101,86.3647124 91.2074101,72.5457124 88.9224101,54.9767124 C87.4284101,43.4997124 80.2094101,33.2057124 67.4334101,24.4067124 C68.3924101,21.9817124 70.1974101,16.0877124 67.9984101,10.2787124 C66.3054101,5.76671239 62.6114101,2.35371239 57.0554101,0.0977123938 C56.4634101,-0.127287606 55.7874101,0.0417123938 55.3924101,0.548712394 C55.0254101,1.05671239 55.0254101,1.76171239 55.4204101,2.26871239 C55.5894101,2.49471239 59.1714101,7.17671239 57.2814101,11.5477124 C56.4634101,8.98171239 54.6024101,5.62571239 50.4284101,4.07371239 C49.8924101,3.87671239 49.3004101,4.01771239 48.9064101,4.44071239 C48.5104101,4.86371239 48.4264101,5.48371239 48.6804101,6.01971239 C48.7094101,6.04771239 50.5134101,9.88371239 49.2154101,13.4087124 C48.5104101,15.2697124 47.0164101,16.7647124 44.7604101,17.8367124 C42.2504101,17.6667124 29.3914101,17.8077124 16.4464101,33.9667124 C13.9374101,37.0977124 11.4264101,40.8197124 9.00141012,45.2477124 C-3.32258988,67.6677124 -0.0505898818,83.0927124 1.92341012,88.6767124"
            id="Fill-7" class="bird-stroke"></path>
          <path
            d="M18.6744101,136.477712 C18.9004101,136.702712 20.3384101,137.069712 23.0734101,136.138712 C24.7094101,135.574712 26.2044101,135.208712 27.4734101,134.954712 C30.0674101,134.418712 31.7594101,134.418712 31.9574101,134.418712 L32.0424101,134.418712 C32.2954101,134.446712 38.4154101,134.813712 43.6324101,136.872712 L43.6604101,136.872712 C44.0274101,137.013712 44.2814101,137.041712 44.3654101,137.097712 C44.3374101,136.928712 44.1964101,136.618712 43.8864101,136.251712 L43.7734101,136.138712 C43.0684101,135.349712 40.1634101,132.952712 32.3234101,132.952712 C31.6474101,132.952712 30.9144101,132.980712 30.1524101,133.008712 C27.5014101,133.149712 25.4424101,133.459712 23.8354101,133.854712 C19.9714101,134.841712 18.7594101,136.251712 18.6744101,136.477712"
            id="Fill-8" fill="#EA862C"></path>
          <path
            d="M58.6344101,125.253712 C59.8764101,125.958712 60.6664101,125.506712 63.0904101,123.646712 C64.4724101,122.545712 66.2214101,121.220712 68.5894101,120.092712 L70.1414101,119.387712 C78.4324101,115.523712 82.3804101,113.042712 81.9574101,112.026712 C81.8734101,111.999712 81.7594101,111.970712 81.6474101,111.970712 C80.5754101,111.970712 77.8684101,113.295712 76.6274101,113.916712 C74.0614101,115.185712 72.5094101,115.946712 71.3254101,115.157712 C69.6334101,114.029712 70.8464101,111.914712 72.4824101,109.009712 C73.1024101,107.909712 74.1734101,105.992712 74.4564101,105.004712 C73.3284101,104.948712 72.5664101,105.935712 69.7744101,110.476712 C66.6724101,115.523712 61.5114101,121.981712 61.2864101,122.264712 L61.0884101,122.461712 C59.9894101,123.392712 58.8884101,124.632712 58.6344101,125.253712"
            id="Fill-9" fill="#EA862C"></path>
          <path
            d="M61.0324101,74.0127124 C62.9504101,77.4247124 66.7854101,79.5677124 69.8874101,80.6957124 L69.9164101,80.7247124 C71.1004101,81.1467124 72.1714101,81.4287124 72.9894101,81.5707124 C74.2304101,81.7957124 75.2174101,82.1907124 76.0354101,82.6697124 C75.5554101,79.3987124 74.0614101,74.6327124 69.5484101,72.9977124 C65.0374101,71.3617124 61.9344101,69.2747124 60.1014101,66.6237124 C59.5094101,69.3587124 59.8194101,71.8407124 61.0324101,74.0127124"
            id="Fill-10" fill="#EA862C"></path>
          <path
            d="M70.5074101,70.3467124 C76.3454101,72.4607124 78.2074101,78.2147124 78.7984101,82.1337124 C81.9574101,77.4817124 87.2874101,67.7517124 86.2444101,56.4427124 C73.1304101,53.8207124 63.5414101,57.3737124 60.9474101,58.5017124 C60.5244101,64.2547124 63.3164101,67.7517124 70.5074101,70.3467124"
            id="Fill-11" fill="#EA862C"></path>
          <path
            d="M25.1324101,124.407712 C25.4984101,125.760712 26.3454101,128.468712 27.1914101,130.301712 L27.2194101,130.441712 C28.0934101,130.329712 29.0244101,130.244712 30.0114101,130.188712 C30.8854101,130.131712 31.6474101,130.160712 32.4364101,130.160712 C32.7184101,129.511712 34.1284101,125.901712 33.6774101,121.333712 C33.5924101,120.684712 33.9874101,120.092712 34.5804101,119.894712 C33.4514101,120.120712 30.6314101,120.684712 28.6864101,120.854712 C27.5854101,122.123712 26.4014101,123.307712 25.1324101,124.407712"
            id="Fill-12" fill="currentColor"></path>
          <path
            d="M51.0774101,110.560712 C51.5854101,110.335712 52.1494101,110.419712 52.5724101,110.814712 C52.6274101,110.842712 56.8864101,114.537712 62.2164101,116.454712 C62.9214101,115.467712 63.7114101,114.395712 64.5014101,113.295712 C64.3884101,112.563712 63.6554101,108.586712 61.4554101,104.892712 C60.7224101,105.653712 59.9324101,106.386712 59.0864101,107.120712 C58.8334101,107.345712 58.4944101,107.458712 58.1834101,107.458712 C57.7604101,107.458712 57.3664101,107.289712 57.0844101,106.950712 C56.6614101,106.443712 56.6614101,105.710712 57.0274101,105.202712 L51.0774101,110.560712"
            id="Fill-13" fill="currentColor"></path>
          <path
            d="M27.2194101,130.441712 L27.1914101,130.301712 C26.3454101,128.468712 25.4984101,125.760712 25.1324101,124.407712 C26.4014101,123.307712 27.5854101,122.123712 28.6864101,120.854712 C30.6314101,120.684712 33.4514101,120.120712 34.5804101,119.894712 C34.0434101,120.073712 33.6684101,120.577712 33.6664101,121.152712 C33.6654101,121.212712 33.6694101,121.272712 33.6774101,121.333712 C33.7394101,121.958712 33.7654101,122.564712 33.7654101,123.148712 C33.7644101,126.833712 32.6804101,129.600712 32.4364101,130.160712 C32.0414101,130.160712 31.6544101,130.153712 31.2554101,130.153712 C30.8574101,130.153712 30.4484101,130.160712 30.0114101,130.188712 C29.0244101,130.244712 28.0934101,130.329712 27.2194101,130.441712"
            id="Fill-14" class='bird-color-darken'></path>
          <path
            d="M62.2164101,116.454712 C56.8864101,114.537712 52.6274101,110.842712 52.5724101,110.814712 C52.5664101,110.809712 52.5614101,110.804712 52.5554101,110.799712 C52.5534101,110.797712 52.5514101,110.795712 52.5484101,110.793712 C52.5474101,110.792712 52.5464101,110.791712 52.5454101,110.790712 C52.5424101,110.787712 52.5394101,110.784712 52.5364101,110.781712 C52.5314101,110.777712 52.5264101,110.773712 52.5224101,110.769712 C52.5204101,110.768712 52.5184101,110.766712 52.5174101,110.765712 C52.5104101,110.760712 52.5044101,110.754712 52.4984101,110.749712 C52.4964101,110.748712 52.4944101,110.746712 52.4934101,110.745712 C52.2434101,110.542712 51.9524101,110.440712 51.6554101,110.437712 C51.6514101,110.437712 51.6474101,110.437712 51.6444101,110.437712 C51.6434101,110.437712 51.6424101,110.437712 51.6414101,110.437712 C51.4634101,110.437712 51.2844101,110.474712 51.1104101,110.546712 C51.0994101,110.550712 51.0884101,110.555712 51.0774101,110.560712 L57.0274101,105.202712 C56.8494101,105.448712 56.7584101,105.747712 56.7594101,106.047712 C56.7604101,106.367712 56.8664101,106.689712 57.0844101,106.950712 C57.3664101,107.289712 57.7604101,107.458712 58.1834101,107.458712 C58.4944101,107.458712 58.8334101,107.345712 59.0864101,107.120712 C59.9324101,106.386712 60.7224101,105.653712 61.4554101,104.892712 C63.6554101,108.586712 64.3884101,112.563712 64.5014101,113.295712 C63.7114101,114.395712 62.9214101,115.467712 62.2164101,116.454712"
            id="Fill-15" class='bird-color-darken'></path>
          <path
            d="M46.6774101,42.1737124 C50.2034101,40.6507124 53.1644101,40.5377124 55.5044101,41.8637124 C58.9454101,43.7807124 59.5384101,47.9837124 59.5654101,48.1807124 C59.6784101,48.9417124 59.1424101,49.6467124 58.3534101,49.7597124 L58.1564101,49.7597124 C57.4794101,49.7597124 56.8864101,49.2517124 56.7744101,48.5467124 C56.7744101,48.5187124 56.3224101,45.5297124 54.1234101,44.2887124 C52.6004101,43.4427124 50.4574101,43.6117124 47.8064101,44.7677124 C47.0734101,45.0787124 46.2544101,44.7397124 45.9444101,44.0347124 C45.6344101,43.3297124 45.9724101,42.4837124 46.6774101,42.1737124 M13.4294101,85.7437124 C14.0214101,86.2517124 14.1054101,87.1257124 13.5984101,87.7177124 C11.7084101,90.0307124 10.2984101,92.3147124 9.25541012,94.5427124 C9.25541012,94.5427124 8.80441012,95.1347124 8.63541012,95.5857124 C8.43741012,96.0377124 8.38141012,96.6577124 8.38141012,96.6577124 C5.53341012,104.328712 6.71741012,111.068712 7.59141012,114.142712 L9.76341012,112.563712 C9.90441012,107.401712 11.2574101,100.831712 15.6004101,93.7247124 C16.0234101,93.0757124 16.8974101,92.8507124 17.5464101,93.2737124 C18.2234101,93.6677124 18.4204101,94.5427124 17.9974101,95.2197124 C10.9194101,106.753712 12.4704101,116.934712 13.4854101,120.769712 C13.9084101,120.459712 14.3314101,120.092712 14.7264101,119.697712 C14.8674101,119.302712 15.1494101,118.992712 15.5164101,118.851712 C21.2974101,112.224712 22.7354101,99.8727124 22.7634101,99.7317124 C22.8484101,98.9417124 23.5534101,98.3777124 24.3144101,98.4627124 C25.0764101,98.5467124 25.6404101,99.2517124 25.5554101,100.013712 C25.4714101,100.662712 24.0044101,113.521712 17.5184101,120.797712 C17.6874101,122.686712 18.4774101,124.407712 19.0974101,125.450712 C31.1954101,117.639712 37.3434101,102.382712 38.9224101,91.4127124 C40.0794101,83.3187124 39.0914101,76.4657124 36.3564101,73.5047124 C29.4474101,66.1447124 22.3404101,71.8127124 22.0584101,72.0667124 C21.4384101,72.5457124 20.5644101,72.4607124 20.0564101,71.8697124 C19.5774101,71.2487124 19.6614101,70.3747124 20.2544101,69.8957124 C20.3384101,69.8107124 29.6724101,62.2807124 38.3874101,71.5877124 C40.4734101,73.8157124 41.7424101,77.5377124 42.1094101,82.1907124 C43.4354101,79.3427124 47.6934101,72.5457124 57.8174101,73.7587124 C56.6044101,70.6007124 56.7174101,67.0747124 58.1564101,63.2677124 C58.0144101,62.0547124 57.7604101,58.8127124 58.2114101,57.1767124 L58.2964101,57.0357124 L58.4374101,56.7817124 L58.5794101,56.5847124 L58.8334101,56.3867124 L58.9164101,56.3307124 C59.3394101,56.1047124 68.5894101,51.3387124 82.7184101,53.0307124 C83.7344101,53.1717124 84.7484101,53.3127124 85.8214101,53.5107124 C83.8754101,43.3017124 76.8534101,34.0797124 64.8954101,26.0707124 C64.3034101,25.6757124 64.1064101,24.9147124 64.4174101,24.2657124 C64.4724101,24.2097124 67.7444101,17.5547124 65.3754101,11.2657124 C64.3884101,8.67071239 62.5554101,6.47171239 59.9044101,4.72271239 C61.0884101,8.13471239 61.2014101,12.5057124 57.5064101,16.0597124 C57.1124101,16.4257124 56.5204101,16.5387124 55.9844101,16.3417124 C55.4764101,16.1447124 55.1384101,15.6367124 55.1104101,15.0727124 C55.1104101,14.8757124 54.9404101,11.1527124 52.3464101,8.55871239 C52.6004101,10.2507124 52.6274101,12.3087124 51.8674101,14.3397124 C50.8794101,17.0747124 48.7644101,19.1617124 45.5784101,20.5437124 C45.3524101,20.6567124 45.0984101,20.7127124 44.8454101,20.6567124 C44.6754101,20.6567124 26.6274101,18.9927124 11.4554101,46.6287124 C-0.276589882,68.0337124 2.74141012,82.5007124 4.60241012,87.7177124 C5.39241012,89.9747124 6.29441012,91.5537124 7.11241012,92.5967124 C8.21141012,90.3977124 9.59341012,88.1407124 11.4264101,85.9417124 C11.9344101,85.3207124 12.8084101,85.2367124 13.4294101,85.7437124"
            id="Fill-16" fill="currentColor"></path>
          <path
            d="M57.8174101,73.7587124 C57.9304101,74.0687124 58.0714101,74.4067124 58.2684101,74.7177124 L59.5934101,74.0127124 C58.9734101,73.8997124 58.3814101,73.7867124 57.8174101,73.7587124"
            id="Fill-17" class="bird-stroke"></path>
          <path
            d="M41.6024101,83.4317124 L42.1664101,83.1217124 C42.1664101,82.8117124 42.1374101,82.5007124 42.1094101,82.1907124 C41.7424101,82.9517124 41.6024101,83.4317124 41.6024101,83.4317124"
            id="Fill-18" class="bird-stroke"></path>
          <path
            d="M78.7984101,82.1337124 C85.5104101,68.9647124 83.0294101,58.5017124 83.0294101,58.5017124 C81.3274101,57.8157124 78.3074101,57.5867124 75.0354101,57.5867124 C68.4934101,57.5867124 60.9474101,58.5017124 60.9474101,58.5017124 C62.8694101,57.6657124 68.6314101,55.4987124 76.8224101,55.4987124 C79.6864101,55.4987124 82.8474101,55.7637124 86.2444101,56.4427124 C86.3334101,57.4147124 86.3764101,58.3747124 86.377426,59.3217124 C86.3874101,69.3867124 81.6854101,77.8807124 78.7984101,82.1337124"
            id="Fill-19" fill="#F2D5B4"></path>
          <path
            d="M76.0354101,82.6697124 C75.2174101,82.1907124 74.2304101,81.7957124 72.9894101,81.5707124 C72.1714101,81.4287124 71.1004101,81.1467124 69.9164101,80.7247124 L69.8874101,80.6957124 C69.8874101,80.6957124 71.6924101,76.3527124 67.9134101,74.7177124 C64.1634101,73.0817124 60.4404101,68.7107124 60.1014101,66.6237124 C61.9344101,69.2747124 65.0374101,71.3617124 69.5484101,72.9977124 C74.0614101,74.6327124 75.5554101,79.3987124 76.0354101,82.6697124"
            id="Fill-20" fill="#E0582A"></path>
          <path
            d="M40.1104101,42.9037124 C40.1104101,49.8597124 45.7494101,55.4987124 52.7054101,55.4987124 C59.6614101,55.4987124 65.2994101,49.8597124 65.2994101,42.9037124 C65.2994101,35.9477124 59.6614101,30.3097124 52.7054101,30.3097124 C45.7494101,30.3097124 40.1104101,35.9477124 40.1104101,42.9037124"
            id="Fill-21" fill="#F5F5F2"></path>
          <path
            d="M45.9444101,44.0347124 C46.2544101,44.7397124 47.0734101,45.0787124 47.8064101,44.7677124 C50.4574101,43.6117124 52.6004101,43.4427124 54.1234101,44.2887124 C56.3224101,45.5297124 56.7744101,48.5187124 56.7744101,48.5467124 C56.8864101,49.2527124 57.4794101,49.7597124 58.1564101,49.7597124 L58.3534101,49.7597124 C59.1424101,49.6467124 59.6784101,48.9417124 59.5654101,48.1807124 C59.5384101,47.9827124 58.9454101,43.7807124 55.5044101,41.8637124 C53.1644101,40.5377124 50.2034101,40.6507124 46.6774101,42.1737124 C45.9724101,42.4837124 45.6344101,43.3297124 45.9444101,44.0347124"
            id="Fill-22" class="bird-stroke"></path>
          <path
            d="M14.4184101,41.6427124 C16.5684101,38.3017124 18.7424101,35.4937124 20.9024101,33.1207124 L20.9144101,33.1207124 C18.7564101,35.4867124 16.5724101,38.3007124 14.4184101,41.6427124"
            id="Fill-29" fill="currentColor"></path>
          <path
            d="M7.11241012,92.5967124 C6.29441012,91.5537124 5.39241012,89.9747124 4.60241012,87.7177124 C3.81541012,85.5117124 2.82141012,81.6517124 2.8234071,76.3127124 C2.82641012,69.0257124 4.68441012,58.9827124 11.4554101,46.6287124 C12.4354101,44.8467124 13.4244101,43.1877124 14.4184101,41.6427124 C16.5724101,38.3007124 18.7564101,35.4867124 20.9144101,33.1207124 L20.9304101,33.1207124 C-3.99858988,67.9207124 11.4264101,85.9417124 11.4264101,85.9417124 C9.59341012,88.1407124 8.21141012,90.3977124 7.11241012,92.5967124"
            id="Fill-30" class='bird-color-darken'></path>
          <path
            d="M8.73941012,95.3527124 C8.94041012,94.9537124 9.25541012,94.5427124 9.25541012,94.5427124 C9.25541012,94.5427124 8.94141012,94.9547124 8.73941012,95.3527124"
            id="Fill-31" fill="#55201A"></path>
          <path
            d="M7.59141012,114.142712 C7.13241012,112.527712 6.58741012,109.900712 6.58641012,106.657712 C6.58641012,103.729712 7.02941012,100.298712 8.38141012,96.6577124 C8.38141012,96.6577124 8.44241012,96.0277124 8.64041012,95.5767124 C8.66741012,95.5047124 8.70141012,95.4287124 8.73941012,95.3527124 C8.94141012,94.9547124 9.25541012,94.5427124 9.25541012,94.5427124 C10.2984101,92.3147124 11.7084101,90.0307124 13.5984101,87.7177124 C10.4404101,94.0627124 9.17041012,102.156712 9.17041012,102.156712 C10.5814101,99.7037124 15.6004101,93.7247124 15.6004101,93.7247124 C11.2574101,100.831712 9.90441012,107.401712 9.76341012,112.563712 L7.59141012,114.142712"
            id="Fill-32" class='bird-color-darken'></path>
          <path
            d="M13.4854101,120.769712 C13.0834101,119.248712 12.5964101,116.730712 12.5964101,113.526712 C12.5974101,108.648712 13.7254101,102.180712 17.9974101,95.2197124 C14.8394101,104.299712 15.8824101,112.732712 15.8824101,112.732712 C18.7024101,109.912712 22.7634101,99.7317124 22.7634101,99.7317124 C22.7354101,99.8727124 21.2974101,112.224712 15.5164101,118.851712 C15.1494101,118.992712 14.8674101,119.302712 14.7264101,119.697712 C14.3314101,120.092712 13.9084101,120.459712 13.4854101,120.769712"
            id="Fill-33" class='bird-color-darken'></path>
          <path
            d="M19.0974101,125.450712 C18.4774101,124.407712 17.6874101,122.686712 17.5184101,120.797712 C24.0044101,113.521712 25.4714101,100.662712 25.5554101,100.013712 C26.4294101,105.963712 22.9334101,118.033712 22.9334101,118.033712 C29.2504101,111.491712 34.0164101,96.3477124 34.5804101,83.4317124 C35.0024101,73.6457124 26.4864101,72.0667124 22.3124101,71.8697124 C23.0984101,71.2917124 25.5084101,69.7467124 28.5924101,69.7467124 C30.9304101,69.7467124 33.6574101,70.6357124 36.3564101,73.5047124 C38.3334101,75.6447124 39.3974101,79.8167124 39.3984149,85.0207124 C39.3994101,87.0187124 39.2434101,89.1677124 38.9224101,91.4127124 C37.3434101,102.382712 31.1954101,117.639712 19.0974101,125.450712"
            id="Fill-34" class='bird-color-darken'></path>
          <path
            d="M85.8214101,53.5107124 C85.3594101,53.4257124 84.9074101,53.3507124 84.4624101,53.2817124 C84.3204101,53.2597124 84.1784101,53.2387124 84.0374101,53.2177124 C83.5954101,53.1527124 83.1574101,53.0917124 82.7184101,53.0307124 C82.6064101,51.0007124 81.0264101,39.4097124 59.8194101,24.9147124 C59.8194101,24.9147124 65.6004101,17.3567124 62.7524101,11.0397124 C62.7524101,11.0397124 61.4274101,15.2137124 57.5064101,16.0597124 C59.8154101,13.8387124 60.6374101,11.2987124 60.6404101,8.87271239 C60.6424101,7.41671239 60.3484101,6.00271239 59.9044101,4.72271239 C62.5554101,6.47171239 64.3884101,8.67071239 65.3754101,11.2657124 C66.0044101,12.9357124 66.2354101,14.6327124 66.2354101,16.2237124 C66.2334101,20.6247124 64.4574101,24.2247124 64.4174101,24.2657124 C64.3184101,24.4707124 64.2714101,24.6877124 64.2714101,24.9007124 C64.2704101,25.3597124 64.4904101,25.8007124 64.8954101,26.0707124 C76.8534101,34.0797124 83.8754101,43.3017124 85.8214101,53.5107124"
            id="Fill-35" class='bird-color-lighten'></path>
        </g>
      </g>
    </g>
  </g>
</svg>
