<?xml version="1.0" encoding="utf-8"?>
<!-- Generator: Adobe Illustrator 23.0.3, SVG Export Plug-In . SVG Version: 6.00 Build 0)  -->
<svg version="1.1" id="Layer_1" xmlns="http://www.w3.org/2000/svg" xmlns:xlink="http://www.w3.org/1999/xlink" x="0px" y="0px"
	 viewBox="0 0 512 512" style="enable-background:new 0 0 512 512;" xml:space="preserve">
<style type="text/css">
	.st0{fill:#6A6D71;}
	.st1{fill:#753D90;}
</style>
<path class="st0" d="M279.8,98.6c0.4,1.7,0.6,3.5,0.6,5.3c0,13-10.3,23.5-23.1,23.5c-12.7,0-23.1-10.5-23.1-23.5c0-2,0.3-4,0.8-5.9
	c-42.8,9.8-74.7,48.6-74.7,95.1c0,53.8,42.9,97.5,95.8,97.5s95.8-43.6,95.8-97.5C352,147.5,321.3,109.3,279.8,98.6z M219.8,195.4
	c-16.3,0-29.6-13.5-29.6-30.1s13.2-30.1,29.6-30.1c16.3,0,29.6,13.5,29.6,30.1C249.4,181.9,236.2,195.4,219.8,195.4L219.8,195.4z"/>
<path class="st1" d="M258.4,6.9C153.6,6.9,68.7,91.6,68.7,196c0,88.8,137,240.3,178.2,283.8c2.9,2.8,7,4.5,11.5,4.5
	c4.5,0,8.5-1.7,11.5-4.5C310.9,436.4,448,284.8,448,196C448,91.6,363.1,6.9,258.4,6.9L258.4,6.9z M258.4,335.1
	c-58.1,0-107.8-35.1-129.2-85.2c-7.1-16.7-11.1-35.1-11.1-54.4v-0.2c0-77.2,62.8-139.8,140.3-139.8c77.5,0,140.3,62.6,140.3,139.8
	v0.2c0,19.3-4,37.6-11.1,54.3C366.2,299.9,316.4,335.1,258.4,335.1L258.4,335.1z"/>
</svg>
