<?xml version="1.0" encoding="UTF-8"?>
<svg enable-background="new 0 0 512 512" version="1.1" viewBox="0 0 512 512" xml:space="preserve" xmlns="http://www.w3.org/2000/svg"><style type="text/css">
	.st0{fill:#D3D4D3;}
	.st1{fill:#AA8CC0;}
	.st2{fill:#6A6D71;}
	.st3{fill:#753D90;}
</style><path class="st0" d="m285.62 462.87c-6.14 6.72-11.5 12.47-15.8 17.03-2.91 2.78-6.96 4.48-11.46 4.48-4.54 0-8.62-1.73-11.53-4.55-4.29-4.53-9.63-10.26-15.74-16.95-39.36 2.64-68.07 10.86-68.07 20.59 0 11.87 42.69 21.49 95.34 21.49s95.34-9.62 95.34-21.49c0-9.75-28.72-17.96-68.08-20.6z"/><path class="st1" d="m258.36 108.62c47.99 0 87.03 38.91 87.03 86.74s-39.04 86.74-87.03 86.74-87.04-38.91-87.04-86.74 39.04-86.74 87.04-86.74zm0-26.97c-63.01 0-114.09 50.91-114.09 113.71s51.08 113.71 114.09 113.71 114.09-50.91 114.09-113.71-51.08-113.71-114.09-113.71z"/><path class="st2" d="m274.94 129.63c0.27 1.17 0.43 2.39 0.43 3.64 0 8.9-7.24 16.12-16.17 16.12s-16.17-7.22-16.17-16.12c0-1.4 0.2-2.75 0.54-4.05-29.99 6.72-52.4 33.4-52.4 65.32 0 36.98 30.09 66.96 67.2 66.96s67.19-29.98 67.19-66.96c-0.01-31.28-21.53-57.55-50.62-64.91zm-42.07 66.5c-11.46 0-20.74-9.25-20.74-20.67s9.29-20.68 20.74-20.68c11.46 0 20.75 9.26 20.75 20.68-0.01 11.42-9.29 20.67-20.75 20.67z"/><path class="st3" d="m258.35 6.94c-104.76 0-189.69 84.64-189.69 189.06 0 88.76 137.04 240.33 178.16 283.82 2.91 2.82 6.99 4.55 11.53 4.55 4.5 0 8.55-1.7 11.46-4.48 41.1-43.49 178.23-195.14 178.23-283.9 0.01-104.41-84.92-189.05-189.69-189.05zm0 328.12c-58.05 0-107.84-35.14-129.17-85.25-7.11-16.7-11.07-35.06-11.09-54.35v-0.22c0-77.21 62.79-139.82 140.27-139.82 77.47 0 140.29 62.6 140.29 139.82v0.24c-0.02 19.29-3.98 37.64-11.09 54.32-21.34 50.12-71.15 85.26-129.21 85.26z"/></svg>
